<svg width="240" height="210" viewBox="0 0 240 210" fill="none" xmlns="http://www.w3.org/2000/svg">
<path d="M185 15H175V25H185V15Z" fill="#FFFBA4"/>
<path d="M195 15H185V25H195V15Z" fill="#FFFBA4"/>
<path d="M135 25H125V35H135V25Z" fill="#D2B863"/>
<path d="M135 15H125V25H135V15Z" fill="#FFFBA4"/>
<path d="M145 25H135V35H145V25Z" fill="#FFFBA4"/>
<path d="M165 25H155V35H165V25Z" fill="#D2B863"/>
<path d="M175 25H165V35H175V25Z" fill="#3D2E10"/>
<path d="M185 25H175V35H185V25Z" fill="#AD832D"/>
<path d="M195 25H185V35H195V25Z" fill="#AD832D"/>
<path d="M205 25H195V35H205V25Z" fill="#D2B863"/>
<path d="M135 35H125V45H135V35Z" fill="#FFFBA4"/>
<path d="M145 35H135V45H145V35Z" fill="#D2B863"/>
<path d="M155 35H145V45H155V35Z" fill="#3D2E10"/>
<path d="M165 35H155V45H165V35Z" fill="#AD832D"/>
<path d="M175 35H165V45H175V35Z" fill="#AD832D"/>
<path d="M185 35H175V45H185V35Z" fill="#D2B863"/>
<path d="M105 45H95V55H105V45Z" fill="#FFFBA4"/>
<path d="M125 45H115V55H125V45Z" fill="#D2B863"/>
<path d="M135 45H125V55H135V45Z" fill="#3D2E10"/>
<path d="M145 45H135V55H145V45Z" fill="#D2B863"/>
<path d="M155 45H145V55H155V45Z" fill="#FFFBA4"/>
<path d="M105 55H95V65H105V55Z" fill="#AD832D"/>
<path d="M115 55H105V65H115V55Z" fill="#D2B863"/>
<path d="M125 55H115V65H125V55Z" fill="#FFFBA4"/>
<path d="M135 55H125V65H135V55Z" fill="#D2B863"/>
<path d="M145 55H135V65H145V55Z" fill="#AD832D"/>
<path d="M155 55H145V65H155V55Z" fill="#D2B863"/>
<path d="M165 55H155V65H165V55Z" fill="#D2B863"/>
<path d="M95 65H85V75H95V65Z" fill="#AD832D"/>
<path d="M105 65H95V75H105V65Z" fill="#AD832D"/>
<path d="M115 65H105V75H115V65Z" fill="#3D2E10"/>
<path d="M125 65H115V75H125V65Z" fill="#D2B863"/>
<path d="M155 65H145V75H155V65Z" fill="#AD832D"/>
<path d="M165 65H155V75H165V65Z" fill="#AD832D"/>
<path d="M175 65H165V75H175V65Z" fill="#D2B863"/>
<path d="M75 75H65V85H75V75Z" fill="#FFFBA4"/>
<path d="M95 75H85V85H95V75Z" fill="#AD832D"/>
<path d="M105 75H95V85H105V75Z" fill="#3D2E10"/>
<path d="M115 75H105V85H115V75Z" fill="#AD832D"/>
<path d="M125 75H115V85H125V75Z" fill="#D2B863"/>
<path d="M135 75H125V85H135V75Z" fill="#FFFBA4"/>
<path d="M135 85H125V95H135V85Z" fill="#D2B863"/>
<path d="M145 85H135V95H145V85Z" fill="#D2B863"/>
<path d="M75 85H65V95H75V85Z" fill="#AD832D"/>
<path d="M85 85H75V95H85V85Z" fill="#D2B863"/>
<path d="M95 85H85V95H95V85Z" fill="#FFFBA4"/>
<path d="M105 85H95V95H105V85Z" fill="#AD832D"/>
<path d="M115 85H105V95H115V85Z" fill="#AD832D"/>
<path d="M125 85H115V95H125V85Z" fill="#AD832D"/>
<path d="M75 95H65V105H75V95Z" fill="#D2B863"/>
<path d="M85 95H75V105H85V95Z" fill="#3D2E10"/>
<path d="M95 95H85V105H95V95Z" fill="#D2B863"/>
<path d="M65 105H55V115H65V105Z" fill="#AD832D"/>
<path d="M75 105H65V115H75V105Z" fill="#3D2E10"/>
<path d="M85 105H75V115H85V105Z" fill="#AD832D"/>
<path d="M95 105H85V115H95V105Z" fill="#AD832D"/>
<path d="M105 105H95V115H105V105Z" fill="#D2B863"/>
<path d="M65 115H55V125H65V115Z" fill="#AD832D"/>
<path d="M75 115H65V125H75V115Z" fill="#AD832D"/>
<path d="M85 115H75V125H85V115Z" fill="#AD832D"/>
<path d="M95 115H85V125H95V115Z" fill="#D2B863"/>
<path d="M105 115H95V125H105V115Z" fill="#AD832D"/>
<path d="M115 115H105V125H115V115Z" fill="#D2B863"/>
<path d="M65 125H55V135H65V125Z" fill="#3D2E10"/>
<path d="M75 125H65V135H75V125Z" fill="#AD832D"/>
<path d="M55 135H45V145H55V135Z" fill="#3D2E10"/>
<path d="M65 135H55V145H65V135Z" fill="#AD832D"/>
<path d="M55 145H45V155H55V145Z" fill="#3D2E10"/>
<path d="M55 155H45V165H55V155Z" fill="#3D2E10"/>
<path d="M45 165H35V175H45V165Z" fill="#3D2E10"/>
<path d="M45 175H35V185H45V175Z" fill="#3D2E10"/>
<path d="M45 185H35V195H45V185Z" fill="#3D2E10"/>
</svg>
