<svg width="340" height="340" viewBox="0 0 340 340" fill="none" xmlns="http://www.w3.org/2000/svg">
<g clip-path="url(#clip0_2544_61467)">
<path fill-rule="evenodd" clip-rule="evenodd" d="M302.045 178.085L299.426 177.943C299.576 175.222 299.652 172.485 299.652 169.731C299.652 166.977 299.576 164.239 299.426 161.518L302.045 161.377C302.206 164.158 302.285 166.94 302.279 169.722C302.273 172.504 302.195 175.292 302.045 178.085ZM297.284 131.149L294.773 131.816C293.368 126.525 291.673 121.315 289.694 116.21L292.137 115.259C294.147 120.459 295.865 125.767 297.284 131.157V131.149ZM278.164 88.0101L275.955 89.4372C272.968 84.8383 269.727 80.4083 266.248 76.1676L268.29 74.4985C271.829 78.8195 275.126 83.333 278.164 88.0184V88.0101ZM246.618 52.9L244.944 54.928C240.692 51.4643 236.25 48.2379 231.64 45.2637L233.062 43.0688C237.76 46.0928 242.285 49.3749 246.618 52.9ZM205.751 29.14L204.805 31.5852C199.685 29.6055 194.458 27.9115 189.149 26.5111L189.819 24.0074C195.222 25.4185 200.541 27.1321 205.751 29.14ZM159.52 19.2253L159.377 21.8459C156.65 21.6956 153.902 21.6205 151.135 21.6205C148.368 21.6205 145.624 21.6956 142.902 21.8459L142.759 19.2253C145.537 19.0751 148.324 19 151.127 19C153.93 19 156.742 19.0751 159.52 19.2253ZM112.46 23.9823L113.13 26.486C107.821 27.8864 102.594 29.5804 97.474 31.5602L96.5285 29.1149C101.738 27.1071 107.057 25.3935 112.46 23.9823ZM69.2083 43.0521L70.6308 45.247C66.0206 48.2212 61.579 51.4476 57.3263 54.9113L55.6528 52.8833C59.9851 49.3582 64.5106 46.0761 69.2083 43.0521ZM33.9724 74.5152L36.0057 76.1843C32.5375 80.4303 29.3055 84.8629 26.3244 89.4622L24.1154 88.0351C27.1478 83.3502 30.4386 78.8366 33.9724 74.5152ZM10.2001 115.267L12.6434 116.218C10.6612 121.322 8.96557 126.533 7.5643 131.825L5.05402 131.157C6.47279 125.769 8.1908 120.464 10.2001 115.267ZM0.234291 161.393C0.0780964 164.175 0 166.957 0 169.739C0 172.521 0.0780964 175.303 0.234291 178.085L2.85335 177.943C2.73062 175.255 2.66926 172.521 2.66926 169.739C2.66926 166.957 2.74457 164.22 2.89518 161.527L0.234291 161.393ZM4.99545 208.329L7.50572 207.653C8.90575 212.948 10.6014 218.161 12.5848 223.268L10.2001 224.211C8.17219 219.014 6.43464 213.709 4.99545 208.321V208.329ZM24.1154 251.468L26.3244 250.041C29.3055 254.64 32.5375 259.073 36.0057 263.319L33.9724 264.988C30.4403 260.662 27.1496 256.146 24.1154 251.459V251.468ZM55.6612 286.603L57.3347 284.575C61.5874 288.039 66.029 291.265 70.6391 294.239L69.2167 296.434C64.5183 293.402 59.9929 290.112 55.6612 286.578V286.603ZM96.5285 310.346L97.474 307.901C102.59 309.879 107.814 311.567 113.121 312.958L112.452 315.462C107.052 314.053 101.736 312.343 96.5285 310.338V310.346ZM142.759 320.261L142.902 317.64C145.629 317.791 148.374 317.866 151.135 317.866C153.897 317.866 156.644 317.791 159.377 317.64L159.52 320.261C156.73 320.411 153.941 320.486 151.152 320.486C148.324 320.478 145.537 320.403 142.759 320.253V320.261ZM189.819 315.504L189.149 313C194.459 311.606 199.686 309.915 204.805 307.934L205.751 310.38C200.54 312.382 195.221 314.09 189.819 315.496V315.504ZM233.071 296.434L231.648 294.239C236.258 291.265 240.7 288.039 244.953 284.575L246.626 286.603C242.294 290.125 237.768 293.404 233.071 296.426V296.434ZM268.307 264.971L266.265 263.302C269.738 259.058 272.973 254.625 275.955 250.024L278.164 251.451C275.129 256.132 271.838 260.643 268.307 264.963V264.971ZM292.104 224.219L289.677 223.26C291.657 218.152 293.353 212.939 294.757 207.645L297.267 208.321C295.841 213.709 294.118 219.013 292.104 224.211V224.219Z" fill="url(#paint0_linear_2544_61467)"/>
<path fill-rule="evenodd" clip-rule="evenodd" d="M328.536 156.102V183.367H303.961V156.102H328.536ZM289.895 149.217C289.378 150.396 289.116 151.669 289.125 152.956V186.814C289.125 188.031 289.384 189.235 289.886 190.344C290.387 191.431 291.081 192.418 291.937 193.257C292.852 194.086 293.909 194.745 295.058 195.201C296.289 195.708 297.609 195.963 298.94 195.952H330.737C331.938 195.955 333.129 195.725 334.243 195.276C335.344 194.82 336.349 194.16 337.205 193.332C338.072 192.474 338.768 191.46 339.255 190.344C339.776 189.161 340.038 187.881 340.025 186.589V152.664C340.03 151.472 339.767 150.294 339.255 149.217C338.784 148.114 338.085 147.121 337.205 146.304C336.313 145.428 335.255 144.739 334.092 144.276C332.86 143.773 331.541 143.518 330.21 143.525H298.413C297.182 143.555 295.971 143.839 294.857 144.36C293.748 144.802 292.738 145.46 291.886 146.296C291.041 147.133 290.365 148.125 289.895 149.217ZM261.889 183.367H249.915V195.952H284.958V183.367H274.741V152.664C274.741 151.476 274.49 150.302 274.005 149.217C273.581 148.115 272.918 147.12 272.064 146.304C271.25 145.432 270.26 144.741 269.16 144.276C267.989 143.766 266.723 143.51 265.445 143.525H250.35V156.102H261.872L261.889 183.367Z" fill="url(#paint1_linear_2544_61467)"/>
<path d="M330.235 145.196C331.337 145.194 332.429 145.409 333.448 145.83C334.404 146.212 335.274 146.779 336.009 147.499C336.726 148.158 337.296 148.96 337.682 149.852V149.902C338.084 150.759 338.293 151.694 338.293 152.64V186.582C338.303 187.638 338.089 188.684 337.665 189.653C336.872 191.483 335.4 192.936 333.557 193.709C332.643 194.079 331.665 194.266 330.678 194.26H298.882C297.788 194.261 296.705 194.048 295.694 193.634C294.739 193.252 293.861 192.704 293.1 192.015C292.398 191.33 291.83 190.52 291.426 189.628C291.018 188.737 290.806 187.769 290.807 186.79V152.924C290.797 151.864 291.014 150.814 291.443 149.844C291.822 148.954 292.367 148.144 293.049 147.457C293.74 146.773 294.563 146.237 295.468 145.88H295.509C296.402 145.464 297.37 145.237 298.354 145.212H330.201M302.254 185.054H330.176V154.434H302.287V185.038M265.537 145.196C266.559 145.197 267.57 145.407 268.507 145.813C269.391 146.187 270.186 146.742 270.842 147.44C271.514 148.088 272.037 148.874 272.373 149.744V149.794C272.766 150.662 272.969 151.604 272.967 152.556V184.929H283.167V194.176H251.571V184.929H263.545V154.434H252.023V145.196H265.52M330.218 143.526H298.388C297.157 143.556 295.946 143.84 294.832 144.361C293.722 144.803 292.713 145.461 291.861 146.297C290.108 148.08 289.126 150.477 289.125 152.974V186.832C289.125 188.049 289.384 189.253 289.886 190.362C290.387 191.449 291.081 192.436 291.937 193.275C292.852 194.104 293.909 194.763 295.058 195.219C296.266 195.714 297.559 195.969 298.865 195.97H330.77C331.958 195.969 333.134 195.739 334.235 195.294C335.336 194.838 336.341 194.178 337.197 193.35C338.064 192.492 338.759 191.478 339.247 190.362C339.767 189.179 340.03 187.899 340.017 186.607V152.665C340.022 151.473 339.759 150.295 339.247 149.218C338.775 148.115 338.077 147.123 337.197 146.305C336.305 145.43 335.246 144.74 334.084 144.277C332.868 143.779 331.566 143.524 330.252 143.526H330.218ZM303.944 183.368V156.103H328.52V183.368H303.944ZM265.52 143.526H250.35V156.103H261.872V183.368H249.915V195.954H284.958V183.368H274.741V152.665C274.741 151.477 274.49 150.303 274.005 149.218C273.581 148.116 272.918 147.122 272.064 146.305C271.25 145.433 270.26 144.742 269.16 144.277C268.016 143.784 266.783 143.528 265.537 143.526H265.52Z" fill="url(#paint2_linear_2544_61467)"/>
<path d="M118.285 130.414H105.139V143.525H118.285V130.414Z" fill="#C3BCC3"/>
<path d="M197.142 130.416H183.996V143.527H197.142V130.416Z" fill="#C3BCC3"/>
<path d="M118.285 143.525H105.139V156.628H118.285V143.525Z" fill="#655F67"/>
<path d="M197.142 143.526H183.996V156.629H197.142V143.526Z" fill="#C3BCC3"/>
<path d="M118.285 156.628H105.139V169.739H118.285V156.628Z" fill="#655F67"/>
<path d="M197.142 156.628H183.996V169.739H197.142V156.628Z" fill="#C3BCC3"/>
<path d="M118.285 169.739H105.139V182.85H118.285V169.739Z" fill="#655F67"/>
<path d="M197.142 169.739H183.996V182.85H197.142V169.739Z" fill="#C3BCC3"/>
<path d="M118.285 182.851H105.139V195.953H118.285V182.851Z" fill="#655F67"/>
<path d="M197.142 182.851H183.996V195.953H197.142V182.851Z" fill="#C3BCC3"/>
<path d="M118.285 195.953H105.139V209.064H118.285V195.953Z" fill="#655F67"/>
<path d="M197.142 195.953H183.996V209.064H197.142V195.953Z" fill="#655F67"/>
<path d="M118.285 209.064H105.139V222.175H118.285V209.064Z" fill="#655F67"/>
<path d="M197.142 209.062H183.996V222.173H197.142V209.062Z" fill="#655F67"/>
<path d="M118.285 222.176H105.139V235.278H118.285V222.176Z" fill="#655F67"/>
<path d="M197.142 222.174H183.996V235.276H197.142V222.174Z" fill="#655F67"/>
<path d="M118.285 235.277H105.139V248.388H118.285V235.277Z" fill="#460A07"/>
<path d="M197.142 235.278H183.996V248.389H197.142V235.278Z" fill="#655F67"/>
<path d="M118.285 248.388H105.139V261.49H118.285V248.388Z" fill="#460A07"/>
<path d="M197.142 248.39H183.996V261.492H197.142V248.39Z" fill="#460A07"/>
<path d="M131.422 130.414H118.285V143.525H131.422V130.414Z" fill="#C3BCC3"/>
<path d="M210.279 130.416H197.142V143.527H210.279V130.416Z" fill="#EFEDEF"/>
<path d="M131.422 143.525H118.285V156.628H131.422V143.525Z" fill="#C3BCC3"/>
<path d="M210.279 143.526H197.142V156.629H210.279V143.526Z" fill="#C3BCC3"/>
<path d="M131.422 156.628H118.285V169.739H131.422V156.628Z" fill="#C3BCC3"/>
<path d="M210.279 156.628H197.142V169.739H210.279V156.628Z" fill="#EFEDEF"/>
<path d="M131.422 169.739H118.285V182.85H131.422V169.739Z" fill="#C3BCC3"/>
<path d="M210.279 169.739H197.142V182.85H210.279V169.739Z" fill="#EFEDEF"/>
<path d="M131.422 182.851H118.285V195.953H131.422V182.851Z" fill="#C3BCC3"/>
<path d="M210.279 182.851H197.142V195.953H210.279V182.851Z" fill="#C3BCC3"/>
<path d="M131.422 195.953H118.285V209.064H131.422V195.953Z" fill="#C3BCC3"/>
<path d="M210.279 195.953H197.142V209.064H210.279V195.953Z" fill="#C3BCC3"/>
<path d="M131.422 209.064H118.285V222.175H131.422V209.064Z" fill="#655F67"/>
<path d="M210.279 209.062H197.142V222.173H210.279V209.062Z" fill="#C3BCC3"/>
<path d="M131.422 222.176H118.285V235.278H131.422V222.176Z" fill="#460A07"/>
<path d="M210.279 222.174H197.142V235.276H210.279V222.174Z" fill="#655F67"/>
<path d="M131.422 235.277H118.285V248.388H131.422V235.277Z" fill="#460A07"/>
<path d="M210.279 235.278H197.142V248.389H210.279V235.278Z" fill="#460A07"/>
<path d="M223.423 235.278H210.277V248.389H223.423V235.278Z" fill="#C3BCC3"/>
<path d="M236.568 222.174H223.423V235.276H236.568V222.174Z" fill="#EFEDEF"/>
<path d="M118.285 117.305H105.139V130.416H118.285V117.305Z" fill="#C3BCC3"/>
<path d="M197.142 117.305H183.996V130.416H197.142V117.305Z" fill="#C3BCC3"/>
<path d="M131.422 117.305H118.285V130.416H131.422V117.305Z" fill="#EFEDEF"/>
<path d="M210.279 117.305H197.142V130.416H210.279V117.305Z" fill="#EFEDEF"/>
<path d="M118.285 104.201H105.139V117.304H118.285V104.201Z" fill="#C3BCC3"/>
<path d="M197.142 104.2H183.996V117.303H197.142V104.2Z" fill="#C3BCC3"/>
<path d="M131.422 104.201H118.285V117.304H131.422V104.201Z" fill="#EFEDEF"/>
<path d="M210.279 104.2H197.142V117.303H210.279V104.2Z" fill="#EFEDEF"/>
<path d="M105.139 130.414H92.0022V143.525H105.139V130.414Z" fill="#655F67"/>
<path d="M183.996 130.416H170.859V143.527H183.996V130.416Z" fill="#655F67"/>
<path d="M105.139 143.525H92.0022V156.628H105.139V143.525Z" fill="#460A07"/>
<path d="M183.996 143.526H170.859V156.629H183.996V143.526Z" fill="#C3BCC3"/>
<path d="M105.139 156.628H92.0022V169.739H105.139V156.628Z" fill="#460A07"/>
<path d="M183.996 156.628H170.859V169.739H183.996V156.628Z" fill="#655F67"/>
<path d="M105.139 169.739H92.0022V182.85H105.139V169.739Z" fill="#460A07"/>
<path d="M183.996 169.739H170.859V182.85H183.996V169.739Z" fill="#655F67"/>
<path d="M105.139 182.851H92.0022V195.953H105.139V182.851Z" fill="#460A07"/>
<path d="M183.996 182.851H170.859V195.953H183.996V182.851Z" fill="#460A07"/>
<path d="M105.139 195.953H92.0022V209.064H105.139V195.953Z" fill="#460A07"/>
<path d="M183.996 195.953H170.859V209.064H183.996V195.953Z" fill="#460A07"/>
<path d="M105.139 209.064H92.0022V222.175H105.139V209.064Z" fill="#460A07"/>
<path d="M183.996 209.062H170.859V222.173H183.996V209.062Z" fill="#460A07"/>
<path d="M105.139 222.176H92.0022V235.278H105.139V222.176Z" fill="#460A07"/>
<path d="M183.996 222.174H170.859V235.276H183.996V222.174Z" fill="#460A07"/>
<path d="M105.139 235.277H92.0022V248.388H105.139V235.277Z" fill="#460A07"/>
<path d="M183.996 235.278H170.859V248.389H183.996V235.278Z" fill="#460A07"/>
<path d="M105.139 117.305H92.0022V130.416H105.139V117.305Z" fill="#655F67"/>
<path d="M183.996 117.305H170.859V130.416H183.996V117.305Z" fill="#655F67"/>
<path d="M131.422 91.0898H118.285V104.201H131.422V91.0898Z" fill="#EFEDEF"/>
<path d="M210.279 91.0898H197.142V104.201H210.279V91.0898Z" fill="#C3BCC3"/>
<path d="M105.139 104.201H92.0022V117.304H105.139V104.201Z" fill="#655F67"/>
<path d="M183.996 104.2H170.859V117.303H183.996V104.2Z" fill="#655F67"/>
<path d="M105.139 91.0898H92.0022V104.201H105.139V91.0898Z" fill="#C3BCC3"/>
<path d="M183.996 91.0898H170.859V104.201H183.996V91.0898Z" fill="#C3BCC3"/>
<path d="M118.285 91.0898H105.139V104.201H118.285V91.0898Z" fill="#C3BCC3"/>
<path d="M197.142 91.0898H183.996V104.201H197.142V91.0898Z" fill="#C3BCC3"/>
<path d="M118.285 77.9873H105.139V91.09H118.285V77.9873Z" fill="#EFEDEF"/>
<path d="M197.142 77.9873H183.996V91.09H197.142V77.9873Z" fill="#EFEDEF"/>
<path d="M183.996 77.9873H170.859V91.09H183.996V77.9873Z" fill="#EFEDEF"/>
<path d="M78.8567 117.305H65.7112V130.416H78.8567V117.305Z" fill="#460A07"/>
<path d="M157.713 169.739H144.568V182.85H157.713V169.739Z" fill="#C3BCC3"/>
<path d="M144.568 182.851H131.422V195.953H144.568V182.851Z" fill="#C3BCC3"/>
<path d="M157.713 182.851H144.568V195.953H157.713V182.851Z" fill="#460A07"/>
<path d="M144.568 195.953H131.422V209.064H144.568V195.953Z" fill="#460A07"/>
<path d="M170.858 91.0898H157.721V104.201H170.858V91.0898Z" fill="#655F67"/>
<path d="M157.713 104.2H144.568V117.303H157.713V104.2Z" fill="#655F67"/>
<path d="M92.0022 104.201H78.8567V117.304H92.0022V104.201Z" fill="#655F67"/>
<path d="M170.858 156.628H157.721V169.739H170.858V156.628Z" fill="#C3BCC3"/>
<path d="M170.858 169.739H157.721V182.85H170.858V169.739Z" fill="#460A07"/>
<path fill-rule="evenodd" clip-rule="evenodd" d="M66 0V3.03571H67V0H66ZM66 9.10714V15.1786H67V9.10714H66ZM66 21.25V27.3214H67V21.25H66ZM66 33.3929V39.4643H67V33.3929H66ZM66 45.5357V51.6071H67V45.5357H66ZM66 57.6786V63.75H67V57.6786H66ZM66 69.8214V75.8929H67V69.8214H66ZM66 81.9643L66 88.0357H67L67 81.9643H66ZM66 94.1071V100.179H67V94.1071H66ZM66 106.25V112.321H67V106.25H66ZM66 118.393V124.464H67V118.393H66ZM66 130.536V136.607H67V130.536H66ZM66 142.679V148.75H67V142.679H66ZM66 154.821V160.893H67V154.821H66ZM66 166.964V173.036H67V166.964H66ZM66 179.107V185.179H67V179.107H66ZM66 191.25V197.321H67V191.25H66ZM66 203.393V209.464H67V203.393H66ZM66 215.536V221.607H67V215.536H66ZM66 227.679V233.75H67V227.679H66ZM66 239.821V245.893H67V239.821H66ZM66 251.964V258.036H67V251.964H66ZM66 264.107V270.179H67V264.107H66ZM66 276.25V282.321H67V276.25H66ZM66 288.393V294.464H67V288.393H66ZM66 300.536V306.607H67V300.536H66ZM66 312.679V318.75H67V312.679H66ZM66 324.822V330.893H67V324.822H66ZM66 336.964V340H67V336.964H66ZM3.03571 78H0V77H3.03571V78ZM15.1786 78H9.10714V77H15.1786V78ZM27.3214 78H21.25V77H27.3214V78ZM39.4643 78H33.3929V77H39.4643V78ZM51.6071 78H45.5357V77H51.6071V78ZM63.75 78H57.6786V77H63.75V78ZM75.8929 78H69.8214V77H75.8929V78ZM88.0357 78H81.9643V77H88.0357V78ZM100.179 78H94.1071V77H100.179V78ZM112.321 78H106.25V77H112.321V78ZM124.464 78H118.393V77H124.464V78ZM136.607 78L130.536 78V77L136.607 77V78ZM148.75 78H142.679V77H148.75V78ZM160.893 78H154.821V77H160.893V78ZM173.036 78H166.964V77H173.036V78ZM185.179 78H179.107V77H185.179V78ZM197.321 78H191.25V77H197.321V78ZM209.464 78H203.393V77H209.464V78ZM221.607 78L215.536 78V77L221.607 77V78ZM233.75 78H227.679V77H233.75V78ZM245.893 78H239.821V77H245.893V78ZM258.036 78H251.964V77H258.036V78ZM270.179 78H264.107V77H270.179V78ZM282.321 78H276.25V77H282.321V78ZM294.464 78H288.393V77H294.464V78ZM306.607 78L300.536 78V77L306.607 77V78ZM318.75 78H312.679V77H318.75V78ZM330.893 78H324.822V77H330.893V78ZM340 78H336.964V77H340V78ZM0 144H3.03571V143H0V144ZM9.10714 144H15.1786V143H9.10714V144ZM21.25 144H27.3214V143H21.25V144ZM33.3929 144H39.4643V143H33.3929V144ZM45.5357 144H51.6071V143H45.5357V144ZM57.6786 144H63.75V143H57.6786V144ZM69.8214 144H75.8929V143H69.8214V144ZM81.9643 144L88.0357 144V143L81.9643 143V144ZM94.1071 144H100.179V143H94.1071V144ZM106.25 144H112.321V143H106.25V144ZM118.393 144H124.464V143H118.393V144ZM130.536 144H136.607V143H130.536V144ZM142.679 144H148.75V143H142.679V144ZM154.821 144H160.893V143H154.821V144ZM166.964 144H173.036V143H166.964V144ZM179.107 144H185.179V143H179.107V144ZM191.25 144H197.321V143H191.25V144ZM203.393 144H209.464V143H203.393V144ZM215.536 144H221.607V143H215.536V144ZM227.679 144H233.75V143H227.679V144ZM239.821 144H245.893V143H239.821V144ZM251.964 144H258.036V143H251.964V144ZM264.107 144H270.179V143H264.107V144ZM276.25 144H282.321V143H276.25V144ZM288.393 144H294.464V143H288.393V144ZM300.536 144H306.607V143H300.536V144ZM312.679 144H318.75V143H312.679V144ZM324.822 144H330.893V143H324.822V144ZM336.964 144H340V143H336.964V144ZM0 261H3.03571V260H0V261ZM9.10714 261H15.1786V260H9.10714V261ZM21.25 261H27.3214V260H21.25V261ZM33.3929 261H39.4643V260H33.3929V261ZM45.5357 261H51.6071V260H45.5357V261ZM57.6786 261H63.75V260H57.6786V261ZM69.8214 261H75.8929V260H69.8214V261ZM81.9643 261H88.0357V260H81.9643V261ZM94.1071 261H100.179V260H94.1071V261ZM106.25 261H112.321V260H106.25V261ZM118.393 261H124.464V260H118.393V261ZM130.536 261H136.607V260H130.536V261ZM142.679 261H148.75V260H142.679V261ZM154.821 261H160.893V260H154.821V261ZM166.964 261H173.036V260H166.964V261ZM179.107 261H185.179V260H179.107V261ZM191.25 261H197.321V260H191.25V261ZM203.393 261H209.464V260H203.393V261ZM215.536 261H221.607V260H215.536V261ZM227.679 261H233.75V260H227.679V261ZM239.821 261H245.893V260H239.821V261ZM251.964 261H258.036V260H251.964V261ZM264.107 261H270.179V260H264.107V261ZM276.25 261H282.321V260H276.25V261ZM288.393 261H294.464V260H288.393V261ZM300.536 261H306.607V260H300.536V261ZM312.679 261H318.75V260H312.679V261ZM324.822 261H330.893V260H324.822V261ZM336.964 261H340V260H336.964V261ZM237 3.03571V0H238V3.03571H237ZM237 15.1786V9.10714H238V15.1786H237ZM237 27.3214V21.25H238V27.3214H237ZM237 39.4643V33.3929H238V39.4643H237ZM237 51.6071V45.5357H238V51.6071H237ZM237 63.75V57.6786H238V63.75H237ZM237 75.8929V69.8214H238V75.8929H237ZM237 88.0357V81.9643H238V88.0357H237ZM237 100.179V94.1071H238V100.179H237ZM237 112.321V106.25H238V112.321H237ZM237 124.464V118.393H238V124.464H237ZM237 136.607V130.536H238V136.607H237ZM237 148.75V142.679H238V148.75H237ZM237 160.893V154.821H238V160.893H237ZM237 173.036V166.964H238V173.036H237ZM237 185.179V179.107H238V185.179H237ZM237 197.321V191.25H238V197.321H237ZM237 209.464V203.393H238V209.464H237ZM237 221.607V215.536H238V221.607H237ZM237 233.75V227.679H238V233.75H237ZM237 245.893V239.821H238V245.893H237ZM237 258.036V251.964H238V258.036H237ZM237 270.179V264.107H238V270.179H237ZM237 282.321V276.25H238V282.321H237ZM237 294.464V288.393H238V294.464H237ZM237 306.607V300.536H238V306.607H237ZM237 318.75V312.679H238V318.75H237ZM237 330.893V324.822H238V330.893H237ZM237 340V336.964H238V340H237ZM210 0V3.03571H211V0H210ZM210 9.10714V15.1786H211V9.10714H210ZM210 21.25V27.3214H211V21.25H210ZM210 33.3929V39.4643H211V33.3929H210ZM210 45.5357V51.6071H211V45.5357H210ZM210 57.6786V63.75H211V57.6786H210ZM210 69.8214V75.8929H211V69.8214H210ZM210 81.9643V88.0357H211V81.9643H210ZM210 94.1071V100.179H211V94.1071H210ZM210 106.25V112.321H211V106.25H210ZM210 118.393V124.464H211V118.393H210ZM210 130.536V136.607H211V130.536H210ZM210 142.679V148.75H211V142.679H210ZM210 154.821V160.893H211V154.821H210ZM210 166.964V173.036H211V166.964H210ZM210 179.107V185.179H211V179.107H210ZM210 191.25V197.321H211V191.25H210ZM210 203.393V209.464H211V203.393H210ZM210 215.536V221.607H211V215.536H210ZM210 227.679V233.75H211V227.679H210ZM210 239.821V245.893H211V239.821H210ZM210 251.964V258.036H211V251.964H210ZM210 264.107V270.179H211V264.107H210ZM210 276.25V282.321H211V276.25H210ZM210 288.393V294.464H211V288.393H210ZM210 300.536V306.607H211V300.536H210ZM210 312.679V318.75H211V312.679H210ZM210 324.822V330.893H211V324.822H210ZM210 336.964V340H211V336.964H210ZM250 3.03571V0H251V3.03571H250ZM250 15.1786V9.10714H251V15.1786H250ZM250 27.3214V21.25H251V27.3214H250ZM250 39.4643V33.3929H251V39.4643H250ZM250 51.6071V45.5357H251V51.6071H250ZM250 63.75V57.6786H251V63.75H250ZM250 75.8929V69.8214H251V75.8929H250ZM250 88.0357V81.9643H251V88.0357H250ZM250 100.179V94.1071H251V100.179H250ZM250 112.321V106.25H251V112.321H250ZM250 124.464V118.393H251V124.464H250ZM250 136.607V130.536H251V136.607H250ZM250 148.75V142.679H251V148.75H250ZM250 160.893V154.821H251V160.893H250ZM250 173.036V166.964H251V173.036H250ZM250 185.179V179.107H251V185.179H250ZM250 197.321V191.25H251V197.321H250ZM250 209.464V203.393H251V209.464H250ZM250 221.607V215.536H251V221.607H250ZM250 233.75V227.679H251V233.75H250ZM250 245.893V239.821H251V245.893H250ZM250 258.036V251.964H251V258.036H250ZM250 270.179V264.107H251V270.179H250ZM250 282.321V276.25H251V282.321H250ZM250 294.464V288.393H251V294.464H250ZM250 306.607V300.536H251V306.607H250ZM250 318.75V312.679H251V318.75H250ZM250 330.893V324.822H251V330.893H250ZM250 340V336.964H251V340H250ZM0 196H3.03571V195H0V196ZM9.10714 196H15.1786V195H9.10714V196ZM21.25 196H27.3214V195H21.25V196ZM33.3929 196H39.4643V195H33.3929V196ZM45.5357 196H51.6071V195H45.5357V196ZM57.6786 196H63.75V195H57.6786V196ZM69.8214 196H75.8929V195H69.8214V196ZM81.9643 196L88.0357 196V195L81.9643 195V196ZM94.1071 196H100.179V195H94.1071V196ZM106.25 196H112.321V195H106.25V196ZM118.393 196H124.464V195H118.393V196ZM130.536 196H136.607V195H130.536V196ZM142.679 196H148.75V195H142.679V196ZM154.821 196H160.893V195H154.821V196ZM166.964 196H173.036V195H166.964V196ZM179.107 196H185.179V195H179.107V196ZM191.25 196H197.321V195H191.25V196ZM203.393 196H209.464V195H203.393V196ZM215.536 196H221.607V195H215.536V196ZM227.679 196H233.75V195H227.679V196ZM239.821 196H245.893V195H239.821V196ZM251.964 196H258.036V195H251.964V196ZM264.107 196H270.179V195H264.107V196ZM276.25 196H282.321V195H276.25V196ZM288.393 196H294.464V195H288.393V196ZM300.536 196H306.607V195H300.536V196ZM312.679 196H318.75V195H312.679V196ZM324.822 196H330.893V195H324.822V196ZM336.964 196H340V195H336.964V196Z" fill="#EC4237"/>
</g>
<defs>
<linearGradient id="paint0_linear_2544_61467" x1="151.135" y1="19" x2="151.135" y2="320.478" gradientUnits="userSpaceOnUse">
<stop stop-color="#EFEDEF"/>
<stop offset="1" stop-color="#655F67"/>
</linearGradient>
<linearGradient id="paint1_linear_2544_61467" x1="294.97" y1="143.524" x2="294.97" y2="195.953" gradientUnits="userSpaceOnUse">
<stop stop-color="#EFEDEF"/>
<stop offset="0.484375" stop-color="#EFEDEF"/>
<stop offset="0.484475" stop-color="#0F0913"/>
<stop offset="1" stop-color="#C3BCC3"/>
</linearGradient>
<linearGradient id="paint2_linear_2544_61467" x1="294.949" y1="143.526" x2="294.949" y2="195.954" gradientUnits="userSpaceOnUse">
<stop offset="0.17" stop-color="#EFEDEF"/>
<stop offset="0.55" stop-color="#655F67"/>
<stop offset="0.73" stop-color="#0F0913"/>
<stop offset="0.93" stop-color="#C3BCC3"/>
</linearGradient>
<clipPath id="clip0_2544_61467">
<rect width="340" height="340" fill="white"/>
</clipPath>
</defs>
</svg>
