<svg width="240" height="210" viewBox="0 0 240 210" fill="none" xmlns="http://www.w3.org/2000/svg">
<path d="M55 175H65V165H55V175Z" fill="#D2B863"/>
<path d="M55 185H65V175H55V185Z" fill="#AD832D"/>
<path d="M65 185H75V175H65V185Z" fill="#3D2E10"/>
<path d="M75 175H85V165H75V175Z" fill="#3D2E10"/>
<path d="M195 55H205V45H195V55Z" fill="#460A07"/>
<path d="M205 45H215V35H205V45Z" fill="#460A07"/>
<path d="M185 55H195V45H185V55Z" fill="#460A07"/>
<path d="M195 45H205V35H195V45Z" fill="#460A07"/>
<path d="M205 35H215V25H205V35Z" fill="#460A07"/>
<path d="M185 65H195V55H185V65Z" fill="#460A07"/>
<path d="M175 55H185V45H175V55Z" fill="#460A07"/>
<path d="M185 45H195V35H185V45Z" fill="#3D2E10"/>
<path d="M195 35H205V25H195V35Z" fill="#3D2E10"/>
<path d="M175 65H185V55H175V65Z" fill="#FFFBA4"/>
<path d="M175 75H185V65H175V75Z" fill="#FFFBA4"/>
<path d="M165 65H175V55H165V65Z" fill="#FFFBA4"/>
<path d="M165 55H175V45H165V55Z" fill="#FFFBA4"/>
<path d="M175 45H185V35H175V45Z" fill="#460A07"/>
<path d="M185 35H195V25H185V35Z" fill="#460A07"/>
<path d="M195 25H205V15L195 15V25Z" fill="#460A07"/>
<path d="M155 65H165V55H155V65Z" fill="#3D2E10"/>
<path d="M165 75H175V65H165V75Z" fill="#3D2E10"/>
<path d="M145 65H155V55H145V65Z" fill="#D2B863"/>
<path d="M155 55H165V45H155V55Z" fill="#FFFBA4"/>
<path d="M165 45H175V35H165V45Z" fill="#3D2E10"/>
<path d="M175 35H185V25H175V35Z" fill="#3D2E10"/>
<path d="M185 25H195V15L185 15V25Z" fill="#3D2E10"/>
<path d="M135 65H145V55H135V65Z" fill="#D2B863"/>
<path d="M155 75H165V65H155V75Z" fill="#AD832D"/>
<path d="M155 85H165V75H155V85Z" fill="#3D2E10"/>
<path d="M125 65H135V55H125V65Z" fill="#FFFBA4"/>
<path d="M145 55H155V45H145V55Z" fill="#3D2E10"/>
<path d="M155 45H165V35H155V45Z" fill="#FFFBA4"/>
<path d="M165 35H175V25H165V35Z" fill="#FFFBA4"/>
<path d="M175 25H185V15L175 15V25Z" fill="#FFFBA4"/>
<path d="M185 15L195 15V5L185 5V15Z" fill="#3D2E10"/>
<path d="M145 75H155V65H145V75Z" fill="#3D2E10"/>
<path d="M145 85H155V75H145V85Z" fill="#AD832D"/>
<path d="M135 55H145V45H135V55Z" fill="#FFFBA4"/>
<path d="M145 45H155V35H145V45Z" fill="#FFFBA4"/>
<path d="M155 35H165V25H155V35Z" fill="#3D2E10"/>
<path d="M165 25H175V15L165 15V25Z" fill="#3D2E10"/>
<path d="M175 15L185 15V5L175 5V15Z" fill="#3D2E10"/>
<path d="M135 75H145V65H135V75Z" fill="#D2B863"/>
<path d="M135 85H145V75H135V85Z" fill="#3D2E10"/>
<path d="M135 95H145V85H135V95Z" fill="#AD832D"/>
<path d="M125 85H135V75H125V85Z" fill="#D2B863"/>
<path d="M125 75H135V65H125V75Z" fill="#D2B863"/>
<path d="M125 95H135V85H125V95Z" fill="#AD832D"/>
<path d="M115 85H125V75H115V85Z" fill="#D2B863"/>
<path d="M115 75H125V65H115V75Z" fill="#FFFBA4"/>
<path d="M105 85H115V75H105V85Z" fill="#FFFBA4"/>
<path d="M115 95H125V85H115V95Z" fill="#D2B863"/>
<path d="M115 105H125V95H115V105Z" fill="#AD832D"/>
<path d="M105 95H115V85H105V95Z" fill="#D2B863"/>
<path d="M95 95H105V85H95V95Z" fill="#FFFBA4"/>
<path d="M95 105H105V95H95V105Z" fill="#D2B863"/>
<path d="M95 115H105V105H95V115Z" fill="#D2B863"/>
<path d="M115 115H125V105H115V115Z" fill="#D2B863"/>
<path d="M85 105H95V95H85V105Z" fill="#FFFBA4"/>
<path d="M105 105H115V95H105V105Z" fill="#D2B863"/>
<path d="M105 115H115V105H105V115Z" fill="#AD832D"/>
<path d="M165 95H155V85H165V95Z" fill="#3D2E10"/>
<path d="M145 105H135V95H145V105Z" fill="#3D2E10"/>
<path d="M125 115H115V105H125V115Z" fill="#D2B863"/>
<path d="M175 85H165V75H175V85Z" fill="#3D2E10"/>
<path d="M155 95H145V85H155V95Z" fill="#3D2E10"/>
<path d="M135 105H125V95H135V105Z" fill="#AD832D"/>
<path d="M45 155L55 155L55 165L45 165L45 155Z" fill="#FFFBA4"/>
<path d="M35 155L45 155L45 165L35 165L35 155Z" fill="#FFFBA4"/>
<path d="M55 155L65 155L65 165L55 165L55 155Z" fill="#AD832D"/>
<path d="M65 155L75 155L75 165L65 165L65 155Z" fill="#AD832D"/>
<path d="M75 155L85 155L85 165L75 165L75 155Z" fill="#3D2E10"/>
<path d="M85 155L95 155L95 165L85 165L85 155Z" fill="#3D2E10"/>
<path d="M55 145L65 145L65 155L55 155L55 145Z" fill="#D2B863"/>
<path d="M65 145L75 145L75 155L65 155L65 145Z" fill="#AD832D"/>
<path d="M75 145L85 145L85 155L75 155L75 145Z" fill="#AD832D"/>
<path d="M85 145L95 145L95 155L85 155L85 145Z" fill="#3D2E10"/>
<path d="M95 145L105 145L105 155L95 155L95 145Z" fill="#3D2E10"/>
<path d="M75 135L85 135L85 145L75 145L75 135Z" fill="#AD832D"/>
<path d="M85 135L95 135L95 145L85 145L85 135Z" fill="#AD832D"/>
<path d="M95 135L105 135L105 145L95 145L95 135Z" fill="#3D2E10"/>
<path d="M95 125L105 125L105 135L95 135L95 125Z" fill="#AD832D"/>
<path d="M105 135L115 135L115 145L105 145L105 135Z" fill="#3D2E10"/>
<path d="M105 125L115 125L115 135L105 135L105 125Z" fill="#3D2E10"/>
<path d="M105 115L115 115L115 125L105 125L105 115Z" fill="#AD832D"/>
<path d="M115 125L125 125L125 135L115 135L115 125Z" fill="#3D2E10"/>
<path d="M115 115L125 115L125 125L115 125L115 115Z" fill="#3D2E10"/>
<path d="M125 115L135 115L135 125L125 125L125 115Z" fill="#3D2E10"/>
<path d="M125 105L135 105L135 115L125 115L125 105Z" fill="#3D2E10"/>
<path d="M135 105L145 105L145 115L135 115L135 105Z" fill="#3D2E10"/>
<path d="M145 95L155 95L155 105L145 105L145 95Z" fill="#3D2E10"/>
<path d="M45 135L55 135L55 145L45 145L45 135Z" fill="#FFFBA4"/>
<path d="M55 125L65 125L65 135L55 135L55 125Z" fill="#FFFBA4"/>
<path d="M65 125L75 125L75 135L65 135L65 125Z" fill="#D2B863"/>
<path d="M65 115L75 115L75 125L65 125L65 115Z" fill="#FFFBA4"/>
<path d="M75 115L85 115L85 125L75 125L75 115Z" fill="#D2B863"/>
<path d="M85 115L95 115L95 125L85 125L85 115Z" fill="#D2B863"/>
<path d="M75 105L85 105L85 115L75 115L75 105Z" fill="#FFFBA4"/>
<path d="M85 105L95 105L95 115L85 115L85 105Z" fill="#D2B863"/>
<path d="M55 135L65 135L65 145L55 145L55 135Z" fill="#D2B863"/>
<path d="M75 125L85 125L85 135L75 135L75 125Z" fill="#D2B863"/>
<path d="M95 115L105 115L105 125L95 125L95 115Z" fill="#AD832D"/>
<path d="M115 105L125 105L125 115L115 115L115 105Z" fill="#D2B863"/>
<path d="M45 145L55 145L55 155L45 155L45 145Z" fill="#D2B863"/>
<path d="M35 145L45 145L45 155L35 155L35 145Z" fill="#FFFBA4"/>
<path d="M65 135L75 135L75 145L65 145L65 135Z" fill="#D2B863"/>
<path d="M85 125L95 125L95 135L85 135L85 125Z" fill="#AD832D"/>
<path d="M125 105L115 105L115 115L125 115L125 105Z" fill="#AD832D"/>
<path d="M45 175H55V165H45V175Z" fill="#AD832D"/>
<path d="M45 185H55V175H45V185Z" fill="#3D2E10"/>
<path d="M35 175H45V165H35V175Z" fill="#FFFBA4"/>
<path d="M35 185H45V175H35V185Z" fill="#AD832D"/>
<path d="M25 195H35V185H25V195Z" fill="#460A07"/>
<path d="M65 175H75V165H65V175Z" fill="#3D2E10"/>
</svg>
