<svg width="240" height="210" viewBox="0 0 240 210" fill="none" xmlns="http://www.w3.org/2000/svg" style="shape-rendering: crispEdges;">
<path d="M180 180H170V190H180V180Z" fill="#3D2E10"/>
<path d="M170 180H160V190H170V180Z" fill="#3D2E10"/>
<path d="M190 170H180V180H190V170Z" fill="#AD832D"/>
<path d="M160 160H150V170H160V160Z" fill="#AD832D"/>
<path d="M160 170H150V180H160V170Z" fill="#3D2E10"/>
<path d="M170 170H160V180H170V170Z" fill="#AD832D"/>
<path d="M180 170H170V180H180V170Z" fill="#D2B863"/>
<path d="M200 160H190V170H200V160Z" fill="#D2B863"/>
<path d="M200 150H190V160H200V150Z" fill="#FFFBA4"/>
<path d="M150 160H140V170H150V160Z" fill="#3D2E10"/>
<path d="M150 150H140V160H150V150Z" fill="#AD832D"/>
<path d="M190 150H180V160H190V150Z" fill="#D2B863"/>
<path d="M190 160H180V170H190V160Z" fill="#D2B863"/>
<path d="M160 150H150V160H160V150Z" fill="#D2B863"/>
<path d="M190 140H180V150H190V140Z" fill="#FFFBA4"/>
<path d="M160 140H150V150H160V140Z" fill="#AD832D"/>
<path d="M180 140H170V150H180V140Z" fill="#D2B863"/>
<path d="M180 130H170V140H180V130Z" fill="#FFFBA4"/>
<path d="M180 120H170V130H180V120Z" fill="#3D2E10"/>
<path d="M180 110H170V120H180V110Z" fill="#AD832D"/>
<path d="M180 80H170V90H180V80Z" fill="#D2B863"/>
<path d="M180 70H170V80H180V70Z" fill="#FFFBA4"/>
<path d="M180 60H170V70H180V60Z" fill="#D2B863"/>
<path d="M140 60H130V70H140V60Z" fill="#AD832D"/>
<path d="M140 70H130V80H140V70Z" fill="#3D2E10"/>
<path d="M180 50H170V60H180V50Z" fill="#FFFBA4"/>
<path d="M170 50H160V60H170V50Z" fill="#D2B863"/>
<path d="M170 60H160V70H170V60Z" fill="#AD832D"/>
<path d="M170 70H160V80H170V70Z" fill="#D2B863"/>
<path d="M170 80H160V90H170V80Z" fill="#AD832D"/>
<path d="M170 110H160V120H170V110Z" fill="#3D2E10"/>
<path d="M170 120H160V130H170V120Z" fill="#3D2E10"/>
<path d="M170 130H160V140H170V130Z" fill="#FFFBA4"/>
<path d="M170 140H160V150H170V140Z" fill="#D2B863"/>
<path d="M140 50H130V60H140V50Z" fill="#D2B863"/>
<path d="M130 50H120V60H130V50Z" fill="#AD832D"/>
<path d="M120 50H110V60H120V50Z" fill="#3D2E10"/>
<path d="M130 60H120V70H130V60Z" fill="#3D2E10"/>
<path d="M170 40H160V50H170V40Z" fill="#FFFBA4"/>
<path d="M160 40H150V50H160V40Z" fill="#FFFBA4"/>
<path d="M150 40H140V50H150V40Z" fill="#FFFBA4"/>
<path d="M150 50H140V60H150V50Z" fill="#AD832D"/>
<path d="M160 50H150V60H160V50Z" fill="#AD832D"/>
<path d="M140 40H130V50H140V40Z" fill="#D2B863"/>
<path d="M130 40H120V50H130V40Z" fill="#D2B863"/>
<path d="M120 40H110V50H120V40Z" fill="#AD832D"/>
<path d="M140 30H130V40H140V30Z" fill="#FFFBA4"/>
<path d="M130 30H120V40H130V30Z" fill="#D2B863"/>
<path d="M140 20H130V30H140V20Z" fill="#FFFBA4"/>
<path d="M80 180H70V190H80V180Z" fill="#3D2E10"/>
<path d="M70 180H60V190H70V180Z" fill="#3D2E10"/>
<path d="M90 170H80V180H90V170Z" fill="#AD832D"/>
<path d="M60 160H50V170H60V160Z" fill="#AD832D"/>
<path d="M60 170H50V180H60V170Z" fill="#3D2E10"/>
<path d="M70 170H60V180H70V170Z" fill="#AD832D"/>
<path d="M80 170H70V180H80V170Z" fill="#D2B863"/>
<path d="M100 160H90V170H100V160Z" fill="#D2B863"/>
<path d="M100 150H90V160H100V150Z" fill="#FFFBA4"/>
<path d="M50 160H40V170H50V160Z" fill="#3D2E10"/>
<path d="M50 150H40V160H50V150Z" fill="#AD832D"/>
<path d="M90 150H80V160H90V150Z" fill="#D2B863"/>
<path d="M90 160H80V170H90V160Z" fill="#D2B863"/>
<path d="M60 150H50V160H60V150Z" fill="#D2B863"/>
<path d="M90 140H80V150H90V140Z" fill="#FFFBA4"/>
<path d="M60 140H50V150H60V140Z" fill="#AD832D"/>
<path d="M80 140H70V150H80V140Z" fill="#D2B863"/>
<path d="M80 130H70V140H80V130Z" fill="#FFFBA4"/>
<path d="M80 120H70V130H80V120Z" fill="#3D2E10"/>
<path d="M70 120H60V130H70V120Z" fill="#3D2E10"/>
<path d="M70 130H60V140H70V130Z" fill="#FFFBA4"/>
<path d="M70 140H60V150H70V140Z" fill="#D2B863"/>
<path d="M70 20H60V30H70V20Z" fill="#FFFBA4"/>
<path d="M80 20H70V30H80V20Z" fill="#FFFBA4"/>
<path d="M60 30H50V40H60V30Z" fill="#AD832D"/>
<path d="M90 40H80V50H90V40Z" fill="#D2B863"/>
<path d="M90 30H80V40H90V30Z" fill="#FFFBA4"/>
<path d="M80 30H70V40H80V30Z" fill="#D2B863"/>
<path d="M70 30H60V40H70V30Z" fill="#D2B863"/>
<path d="M50 40H40V50H50V40Z" fill="#AD832D"/>
<path d="M50 50H40V60H50V50Z" fill="#3D2E10"/>
<path d="M100 40H90V50H100V40Z" fill="#FFFBA4"/>
<path d="M100 50H90V60H100V50Z" fill="#D2B863"/>
<path d="M60 50H50V60H60V50Z" fill="#AD832D"/>
<path d="M60 40H50V50H60V40Z" fill="#D2B863"/>
<path d="M90 50H80V60H90V50Z" fill="#D2B863"/>
<path d="M60 60H50V70H60V60Z" fill="#3D2E10"/>
<path d="M90 60H80V70H90V60Z" fill="#AD832D"/>
<path d="M70 60H60V70H70V60Z" fill="#AD832D"/>
<path d="M70 70H60V80H70V70Z" fill="#3D2E10"/>
<path d="M70 110H60V120H70V110Z" fill="#3D2E10"/>
<path d="M80 110H70V120H80V110Z" fill="#AD832D"/>
<path d="M180 90H170V100H180V90Z" fill="#D2B863"/>
<path d="M170 90H160V100H170V90Z" fill="#3D2E10"/>
<path d="M70 90H60V100H70V90Z" fill="#3D2E10"/>
<path d="M80 90H70V100H80V90Z" fill="#FFFBA4"/>
<path d="M180 100H170V110H180V100Z" fill="#D2B863"/>
<path d="M170 100H160V110H170V100Z" fill="#AD832D"/>
<path d="M70 100H60V110H70V100Z" fill="#AD832D"/>
<path d="M80 100H70V110H80V100Z" fill="#D2B863"/>
<path d="M70 80H60V90H70V80Z" fill="#3D2E10"/>
<path d="M80 80H70V90H80V80Z" fill="#3D2E10"/>
<path d="M80 70H70V80H80V70Z" fill="#AD832D"/>
<path d="M80 60H70V70H80V60Z" fill="#D2B863"/>
</svg>
