<svg width="240" height="210" viewBox="0 0 240 210" fill="none" xmlns="http://www.w3.org/2000/svg" style="shape-rendering: crispEdges;">
<path d="M160 185H150V195H160V185Z" fill="#D2B863"/>
<path d="M140 185H130V195H140V185Z" fill="#3D2E10"/>
<path d="M100 185H90V195H100V185Z" fill="#D2B863"/>
<path d="M90 185H80V195H90V185Z" fill="#D2B863"/>
<path d="M80 185H70V195H80V185Z" fill="#D2B863"/>
<path d="M70 185H60V195H70V185Z" fill="#D2B863"/>
<path d="M160 175H150V185H160V175Z" fill="#3D2E10"/>
<path d="M170 175H160V185H170V175Z" fill="#D2B863"/>
<path d="M170 185H160V195H170V185Z" fill="#FFFBA4"/>
<path d="M180 175H170V185H180V175Z" fill="#3D2E10"/>
<path d="M180 185H170V195H180V185Z" fill="#FFFBA4"/>
<path d="M150 175H140V185H150V175Z" fill="#FFFBA4"/>
<path d="M140 175H130V185H140V175Z" fill="#3D2E10"/>
<path d="M110 175H100V185H110V175Z" fill="#AD832D"/>
<path d="M110 185H100V195H110V185Z" fill="#FFFBA4"/>
<path d="M120 175H110V185H120V175Z" fill="#AD832D"/>
<path d="M120 185H110V195H120V185Z" fill="#FFFBA4"/>
<path d="M100 175H90V185H100V175Z" fill="#3D2E10"/>
<path d="M90 175H80V185H90V175Z" fill="#AD832D"/>
<path d="M80 175H70V185H80V175Z" fill="#3D2E10"/>
<path d="M70 175H60V185H70V175Z" fill="#3D2E10"/>
<path d="M60 175H50V185H60V175Z" fill="#AD832D"/>
<path d="M60 185H50V195H60V185Z" fill="#D2B863"/>
<path d="M160 165H150V175H160V165Z" fill="#AD832D"/>
<path d="M170 165H160V175H170V165Z" fill="#D2B863"/>
<path d="M170 155H160V165H170V155Z" fill="#AD832D"/>
<path d="M180 165H170V175H180V165Z" fill="#AD832D"/>
<path d="M150 165H140V175H150V165Z" fill="#AD832D"/>
<path d="M140 165H130V175H140V165Z" fill="#D2B863"/>
<path d="M130 165H120V175H130V165Z" fill="#3D2E10"/>
<path d="M130 175H120V185H130V175Z" fill="#D2B863"/>
<path d="M130 185H120V195H130V185Z" fill="#3D2E10"/>
<path d="M120 165H110V175H120V165Z" fill="#AD832D"/>
<path d="M110 165H100V175H110V165Z" fill="#D2B863"/>
<path d="M100 165H90V175H100V165Z" fill="#D2B863"/>
<path d="M90 165H80V175H90V165Z" fill="#AD832D"/>
<path d="M80 165H70V175H80V165Z" fill="#D2B863"/>
<path d="M70 165H60V175H70V165Z" fill="#FFFBA4"/>
<path d="M50 185H40V195H50V185Z" fill="#FFFBA4"/>
<path d="M50 175H40V185H50V175Z" fill="#D2B863"/>
<path d="M60 165H50V175H60V165Z" fill="#D2B863"/>
<path d="M80 155H70V165H80V155Z" fill="#FFFBA4"/>
<path d="M70 155H60V165H70V155Z" fill="#D2B863"/>
<path d="M160 155H150V165H160V155Z" fill="#D2B863"/>
<path d="M150 155H140V165H150V155Z" fill="#3D2E10"/>
<path d="M140 155H130V165H140V155Z" fill="#3D2E10"/>
<path d="M130 155H120V165H130V155Z" fill="#AD832D"/>
<path d="M120 155H110V165H120V155Z" fill="#D2B863"/>
<path d="M110 155H100V165H110V155Z" fill="#D2B863"/>
<path d="M100 155H90V165H100V155Z" fill="#D2B863"/>
<path d="M100 145H90V155H100V145Z" fill="#D2B863"/>
<path d="M90 155H80V165H90V155Z" fill="#D2B863"/>
<path d="M160 145H150V155H160V145Z" fill="#D2B863"/>
<path d="M170 145H160V155H170V145Z" fill="#AD832D"/>
<path d="M160 135H150V145H160V135Z" fill="#D2B863"/>
<path d="M150 145H140V155H150V145Z" fill="#3D2E10"/>
<path d="M140 145H130V155H140V145Z" fill="#AD832D"/>
<path d="M130 145H120V155H130V145Z" fill="#D2B863"/>
<path d="M120 145H110V155H120V145Z" fill="#D2B863"/>
<path d="M110 145H100V155H110V145Z" fill="#D2B863"/>
<path d="M150 135H140V145H150V135Z" fill="#3D2E10"/>
<path d="M140 135H130V145H140V135Z" fill="#D2B863"/>
<path d="M130 135H120V145H130V135Z" fill="#D2B863"/>
<path d="M120 135H110V145H120V135Z" fill="#D2B863"/>
<path d="M110 135H100V145H110V135Z" fill="#D2B863"/>
<path d="M150 125H140V135H150V125Z" fill="#AD832D"/>
<path d="M140 125H130V135H140V125Z" fill="#D2B863"/>
<path d="M130 125H120V135H130V125Z" fill="#D2B863"/>
<path d="M120 125H110V135H120V125Z" fill="#D2B863"/>
<path d="M150 115H140V125H150V115Z" fill="#AD832D"/>
<path d="M160 115H150V125H160V115Z" fill="#D2B863"/>
<path d="M160 125H150V135H160V125Z" fill="#D2B863"/>
<path d="M140 115H130V125H140V115Z" fill="#D2B863"/>
<path d="M130 115H120V125H130V115Z" fill="#D2B863"/>
<path d="M120 115H110V125H120V115Z" fill="#D2B863"/>
<path d="M160 105H150V115H160V105Z" fill="#D2B863"/>
<path d="M170 115H160V125H170V115Z" fill="#3D2E10"/>
<path d="M170 125H160V135H170V125Z" fill="#AD832D"/>
<path d="M170 105H160V115H170V105Z" fill="#3D2E10"/>
<path d="M150 105H140V115H150V105Z" fill="#AD832D"/>
<path d="M140 105H130V115H140V105Z" fill="#D2B863"/>
<path d="M130 105H120V115H130V105Z" fill="#D2B863"/>
<path d="M120 105H110V115H120V105Z" fill="#D2B863"/>
<path d="M160 95H150V105H160V95Z" fill="#AD832D"/>
<path d="M150 95H140V105H150V95Z" fill="#AD832D"/>
<path d="M140 95H130V105H140V95Z" fill="#D2B863"/>
<path d="M130 95H120V105H130V95Z" fill="#D2B863"/>
<path d="M120 95H110V105H120V95Z" fill="#AD832D"/>
<path d="M110 95H100V105H110V95Z" fill="#D2B863"/>
<path d="M160 85H150V95H160V85Z" fill="#AD832D"/>
<path d="M170 95H160V105H170V95Z" fill="#D2B863"/>
<path d="M170 85H160V95H170V85Z" fill="#D2B863"/>
<path d="M150 85H140V95H150V85Z" fill="#D2B863"/>
<path d="M140 85H130V95H140V85Z" fill="#D2B863"/>
<path d="M130 85H120V95H130V85Z" fill="#D2B863"/>
<path d="M120 85H110V95H120V85Z" fill="#AD832D"/>
<path d="M110 85H100V95H110V85Z" fill="#D2B863"/>
<path d="M160 75H150V85H160V75Z" fill="#FFFBA4"/>
<path d="M150 75H140V85H150V75Z" fill="#D2B863"/>
<path d="M140 75H130V85H140V75Z" fill="#D2B863"/>
<path d="M130 75H120V85H130V75Z" fill="#D2B863"/>
<path d="M120 75H110V85H120V75Z" fill="#D2B863"/>
<path d="M110 75H100V85H110V75Z" fill="#AD832D"/>
<path d="M100 75H90V85H100V75Z" fill="#D2B863"/>
<path d="M160 65H150V75H160V65Z" fill="#AD832D"/>
<path d="M150 65H140V75H150V65Z" fill="#D2B863"/>
<path d="M140 65H130V75H140V65Z" fill="#D2B863"/>
<path d="M130 65H120V75H130V65Z" fill="#D2B863"/>
<path d="M120 65H110V75H120V65Z" fill="#D2B863"/>
<path d="M110 65H100V75H110V65Z" fill="#AD832D"/>
<path d="M100 65H90V75H100V65Z" fill="#D2B863"/>
<path d="M160 55H150V65H160V55Z" fill="#FFFBA4"/>
<path d="M150 55H140V65H150V55Z" fill="#3D2E10"/>
<path d="M140 55H130V65H140V55Z" fill="#3D2E10"/>
<path d="M130 55H120V65H130V55Z" fill="#3D2E10"/>
<path d="M120 55H110V65H120V55Z" fill="#3D2E10"/>
<path d="M110 55H100V65H110V55Z" fill="#3D2E10"/>
<path d="M100 55H90V65H100V55Z" fill="#AD832D"/>
<path d="M160 45H150V55H160V45Z" fill="#FFFBA4"/>
<path d="M150 45H140V55H150V45Z" fill="#D2B863"/>
<path d="M140 45H130V55H140V45Z" fill="#D2B863"/>
<path d="M130 45H120V55H130V45Z" fill="#D2B863"/>
<path d="M120 45H110V55H120V45Z" fill="#D2B863"/>
<path d="M110 45H100V55H110V45Z" fill="#D2B863"/>
<path d="M100 45H90V55H100V45Z" fill="#D2B863"/>
<path d="M160 35H150V45H160V35Z" fill="#FFFBA4"/>
<path d="M150 35H140V45H150V35Z" fill="#FFFBA4"/>
<path d="M140 35H130V45H140V35Z" fill="#AD832D"/>
<path d="M130 35H120V45H130V35Z" fill="#D2B863"/>
<path d="M120 35H110V45H120V35Z" fill="#D2B863"/>
<path d="M110 35H100V45H110V35Z" fill="#D2B863"/>
<path d="M100 35H90V45H100V35Z" fill="#FFFBA4"/>
<path d="M150 25H140V35H150V25Z" fill="#FFFBA4"/>
<path d="M170 75H160V85H170V75Z" fill="#AD832D"/>
<path d="M170 65H160V75H170V65Z" fill="#AD832D"/>
<path d="M170 55H160V65H170V55Z" fill="#3D2E10"/>
<path d="M170 135H160V145H170V135Z" fill="#3D2E10"/>
<path d="M170 45H160V55H170V45Z" fill="#AD832D"/>
<path d="M170 35H160V45H170V35Z" fill="#AD832D"/>
<path d="M180 95H170V105H180V95Z" fill="#3D2E10"/>
<path d="M180 85H170V95H180V85Z" fill="#AD832D"/>
<path d="M180 75H170V85H180V75Z" fill="#D2B863"/>
<path d="M180 65H170V75H180V65Z" fill="#D2B863"/>
<path d="M180 55H170V65H180V55Z" fill="#3D2E10"/>
<path d="M190 55H180V65H190V55Z" fill="#3D2E10"/>
<path d="M180 45H170V55H180V45Z" fill="#D2B863"/>
<path d="M180 35H170V45H180V35Z" fill="#D2B863"/>
<path d="M190 75H180V85H190V75Z" fill="#3D2E10"/>
<path d="M190 65H180V75H190V65Z" fill="#AD832D"/>
<path d="M190 45H180V55H190V45Z" fill="#AD832D"/>
<path d="M190 35H180V45H190V35Z" fill="#AD832D"/>
<path d="M160 25H150V35H160V25Z" fill="#FFFBA4"/>
<path d="M170 25H160V35H170V25Z" fill="#FFFBA4"/>
<path d="M180 25H170V35H180V25Z" fill="#AD832D"/>
<path d="M140 25H130V35H140V25Z" fill="#FFFBA4"/>
<path d="M150 15H140V25H150V15Z" fill="#FFFBA4"/>
<path d="M160 15H150V25H160V15Z" fill="#FFFBA4"/>
<path d="M170 15H160V25H170V15Z" fill="#FFFBA4"/>
<path d="M180 15H170V25H180V15Z" fill="#FFFBA4"/>
<path d="M190 25H180V35H190V25Z" fill="#FFFBA4"/>
<path d="M200 35H190V45H200V35Z" fill="#FFFBA4"/>
<path d="M140 15H130V25H140V15Z" fill="#FFFBA4"/>
<path d="M130 15H120V25H130V15Z" fill="#FFFBA4"/>
<path d="M110 15H100V25H110V15Z" fill="#FFFBA4"/>
<path d="M120 15H110V25H120V15Z" fill="#FFFBA4"/>
<path d="M130 25H120V35H130V25Z" fill="#AD832D"/>
<path d="M120 25H110V35H120V25Z" fill="#AD832D"/>
<path d="M110 25H100V35H110V25Z" fill="#D2B863"/>
</svg>
