<svg width="537" height="525" viewBox="0 0 537 525" fill="none" xmlns="http://www.w3.org/2000/svg" style="shape-rendering: crispEdges;">
<g clip-path="url(#clip0_2269_47903)">
<path d="M284.033 401.547L268.972 410.243L277.668 425.305L292.729 416.609L284.033 401.547Z" fill="#3D2E10"/>
<path d="M299.095 392.851L284.033 401.547L292.729 416.609L307.791 407.913L299.095 392.851Z" fill="#3D2E10"/>
<path d="M305.461 369.094L290.399 377.79L299.095 392.851L314.157 384.155L305.461 369.094Z" fill="#3D2E10"/>
<path d="M329.219 375.46L314.157 384.156L322.853 399.217L337.915 390.521L329.219 375.46Z" fill="#3D2E10"/>
<path d="M344.28 366.764L329.219 375.459L337.915 390.521L352.976 381.825L344.28 366.764Z" fill="#3D2E10"/>
<path d="M350.647 343.006L335.585 351.702L344.281 366.764L359.342 358.068L350.647 343.006Z" fill="#3D2E10"/>
<path d="M374.403 349.372L359.342 358.068L368.038 373.13L383.099 364.434L374.403 349.372Z" fill="#3D2E10"/>
<path d="M389.466 340.676L374.404 349.372L383.1 364.434L398.162 355.738L389.466 340.676Z" fill="#3D2E10"/>
<path d="M260.276 395.181L245.215 403.877L253.911 418.939L268.972 410.243L260.276 395.181Z" fill="#3D2E10"/>
<path d="M395.831 316.919L380.769 325.615L389.465 340.676L404.527 331.98L395.831 316.919Z" fill="#3D2E10"/>
<path d="M236.519 388.816L221.457 397.511L230.153 412.573L245.215 403.877L236.519 388.816Z" fill="#3D2E10"/>
<path d="M402.197 293.161L387.135 301.857L395.831 316.919L410.893 308.223L402.197 293.161Z" fill="#3D2E10"/>
<path d="M212.761 382.45L197.699 391.146L206.395 406.207L221.457 397.511L212.761 382.45Z" fill="#3D2E10"/>
<path d="M408.563 269.404L393.501 278.1L402.197 293.161L417.258 284.465L408.563 269.404Z" fill="#3D2E10"/>
<path d="M189.004 376.084L173.942 384.78L182.638 399.841L197.7 391.146L189.004 376.084Z" fill="#3D2E10"/>
<path d="M414.929 245.646L399.867 254.342L408.563 269.404L423.625 260.708L414.929 245.646Z" fill="#3D2E10"/>
<path d="M180.308 361.022L165.246 369.718L173.942 384.78L189.004 376.084L180.308 361.022Z" fill="#3D2E10"/>
<path d="M406.233 230.585L391.171 239.281L399.867 254.342L414.928 245.646L406.233 230.585Z" fill="#3D2E10"/>
<path d="M156.55 354.656L141.488 363.352L150.184 378.414L165.246 369.718L156.55 354.656Z" fill="#3D2E10"/>
<path d="M412.599 206.827L397.537 215.523L406.233 230.585L421.295 221.889L412.599 206.827Z" fill="#3D2E10"/>
<path d="M147.855 339.595L132.793 348.291L141.489 363.352L156.551 354.657L147.855 339.595Z" fill="#3D2E10"/>
<path d="M403.902 191.766L388.841 200.461L397.537 215.523L412.598 206.827L403.902 191.766Z" fill="#3D2E10"/>
<path d="M139.158 324.533L124.097 333.229L132.793 348.291L147.854 339.595L139.158 324.533Z" fill="#3D2E10"/>
<path d="M395.206 176.704L380.145 185.4L388.84 200.462L403.902 191.766L395.206 176.704Z" fill="#3D2E10"/>
<path d="M130.463 309.472L115.401 318.167L124.097 333.229L139.159 324.533L130.463 309.472Z" fill="#3D2E10"/>
<path d="M386.511 161.642L371.45 170.338L380.146 185.4L395.207 176.704L386.511 161.642Z" fill="#3D2E10"/>
<path d="M136.829 285.714L121.768 294.41L130.463 309.472L145.525 300.776L136.829 285.714Z" fill="#3D2E10"/>
<path d="M362.753 155.276L347.691 163.972L356.387 179.034L371.449 170.338L362.753 155.276Z" fill="#3D2E10"/>
<path d="M128.133 270.653L113.071 279.348L121.767 294.41L136.829 285.714L128.133 270.653Z" fill="#3D2E10"/>
<path d="M354.058 140.215L338.997 148.911L347.692 163.972L362.754 155.276L354.058 140.215Z" fill="#3D2E10"/>
<path d="M134.499 246.895L119.438 255.591L128.133 270.652L143.195 261.956L134.499 246.895Z" fill="#3D2E10"/>
<path d="M330.3 133.849L315.238 142.545L323.934 157.606L338.996 148.91L330.3 133.849Z" fill="#3D2E10"/>
<path d="M140.864 223.137L125.803 231.833L134.499 246.895L149.56 238.199L140.864 223.137Z" fill="#3D2E10"/>
<path d="M155.927 214.442L140.865 223.137L149.561 238.199L164.623 229.503L155.927 214.442Z" fill="#3D2E10"/>
<path d="M201.111 188.354L186.05 197.05L194.746 212.112L209.807 203.416L201.111 188.354Z" fill="#3D2E10"/>
<path d="M216.173 179.658L201.111 188.354L209.807 203.416L224.869 194.72L216.173 179.658Z" fill="#3D2E10"/>
<path d="M231.234 170.962L216.173 179.658L224.869 194.72L239.93 186.024L231.234 170.962Z" fill="#3D2E10"/>
<path d="M246.296 162.267L231.234 170.962L239.93 186.024L254.992 177.328L246.296 162.267Z" fill="#3D2E10"/>
<path d="M291.481 136.179L276.419 144.875L285.115 159.936L300.176 151.241L291.481 136.179Z" fill="#3D2E10"/>
<path d="M306.542 127.483L291.48 136.179L300.176 151.241L315.238 142.545L306.542 127.483Z" fill="#3D2E10"/>
<path d="M162.292 190.684L147.23 199.38L155.926 214.442L170.988 205.746L162.292 190.684Z" fill="#3D2E10"/>
<path d="M177.354 181.988L162.292 190.684L170.988 205.746L186.049 197.05L177.354 181.988Z" fill="#3D2E10"/>
<path d="M207.477 164.597L192.415 173.292L201.111 188.354L216.173 179.658L207.477 164.597Z" fill="#3D2E10"/>
<path d="M222.538 155.901L207.477 164.597L216.172 179.658L231.234 170.962L222.538 155.901Z" fill="#3D2E10"/>
<path d="M252.661 138.509L237.6 147.205L246.295 162.266L261.357 153.571L252.661 138.509Z" fill="#3D2E10"/>
<path d="M267.724 129.813L252.662 138.509L261.358 153.571L276.42 144.875L267.724 129.813Z" fill="#3D2E10"/>
<path d="M198.781 149.535L183.72 158.231L192.416 173.292L207.477 164.597L198.781 149.535Z" fill="#3D2E10"/>
<path d="M213.843 140.839L198.781 149.535L207.477 164.597L222.539 155.901L213.843 140.839Z" fill="#3D2E10"/>
<path d="M205.147 125.777L190.085 134.473L198.781 149.535L213.842 140.839L205.147 125.777Z" fill="#3D2E10"/>
<path d="M220.208 117.082L205.146 125.778L213.842 140.839L228.904 132.143L220.208 117.082Z" fill="#3D2E10"/>
</g>
<defs>
<clipPath id="clip0_2269_47903">
<rect width="417.401" height="365.225" fill="white" transform="translate(-8.0459 208.7) rotate(-30)"/>
</clipPath>
</defs>
</svg>
