<svg width="240" height="210" viewBox="0 0 240 210" fill="none" xmlns="http://www.w3.org/2000/svg">
<path d="M195 110H205V100H195V110Z" fill="#AD832D"/>
<path d="M185 120H195V110H185V120Z" fill="#3D2E10"/>
<path d="M175 130H185V120H175V130Z" fill="#3D2E10"/>
<path d="M175 140H185V130H175V140Z" fill="#AD832D"/>
<path d="M165 150H175V140H165V150Z" fill="#AD832D"/>
<path d="M175 160H185V150H175V160Z" fill="#3D2E10"/>
<path d="M185 150H195V140H185V150Z" fill="#3D2E10"/>
<path d="M195 150H205V140H195V150Z" fill="#3D2E10"/>
<path d="M205 150H215V140H205V150Z" fill="#AD832D"/>
<path d="M215 150H225V140H215V150Z" fill="#AD832D"/>
<path d="M185 140H195V130H185V140Z" fill="#3D2E10"/>
<path d="M185 130H195V120H185V130Z" fill="#AD832D"/>
<path d="M195 140H205V130H195V140Z" fill="#AD832D"/>
<path d="M195 130H205V120H195V130Z" fill="#3D2E10"/>
<path d="M195 120H205V110H195V120Z" fill="#D2B863"/>
<path d="M205 140H215V130H205V140Z" fill="#3D2E10"/>
<path d="M205 130H215V120H205V130Z" fill="#D2B863"/>
<path d="M205 120H215V110H205V120Z" fill="#AD832D"/>
<path d="M205 110H215V100H205V110Z" fill="#D2B863"/>
<path d="M215 140H225V130H215V140Z" fill="#D2B863"/>
<path d="M215 130H225V120H215V130Z" fill="#FFFBA4"/>
<path d="M215 120H225V110H215V120Z" fill="#D2B863"/>
<path d="M215 110H225V100H215V110Z" fill="#FFFBA4"/>
<path d="M185 160H195V150H185V160Z" fill="#3D2E10"/>
<path d="M195 160H205V150H195V160Z" fill="#AD832D"/>
<path d="M205 160H215V150H205V160Z" fill="#3D2E10"/>
<path d="M175 170H185V160H175V170Z" fill="#AD832D"/>
<path d="M185 170H195V160H185V170Z" fill="#3D2E10"/>
<path d="M195 170H205V160H195V170Z" fill="#3D2E10"/>
<path d="M165 170H175V160H165V170Z" fill="#3D2E10"/>
<path d="M155 170H165V160H155V170Z" fill="#3D2E10"/>
<path d="M165 180H175V170H165V180Z" fill="#3D2E10"/>
<path d="M175 180H185V170H175V180Z" fill="#3D2E10"/>
<path d="M155 180H165V170H155V180Z" fill="#460A07"/>
<path d="M185 100H195V90H185V100Z" fill="#AD832D"/>
<path d="M195 100H205V90H195V100Z" fill="#D2B863"/>
<path d="M205 100H215V90H205V100Z" fill="#FFFBA4"/>
<path d="M185 110H195V100H185V110Z" fill="#FFFBA4"/>
<path d="M175 90H185V80H175V90Z" fill="#AD832D"/>
<path d="M185 90H195V80H185V90Z" fill="#D2B863"/>
<path d="M195 90H205V80H195V90Z" fill="#AD832D"/>
<path d="M175 100H185V90H175V100Z" fill="#FFFBA4"/>
<path d="M175 110H185V100H175V110Z" fill="#3D2E10"/>
<path d="M175 80H185V70H175V80Z" fill="#D2B863"/>
<path d="M175 120H185V110H175V120Z" fill="#AD832D"/>
<path d="M185 80H195V70H185V80Z" fill="#AD832D"/>
<path d="M195 80H205V70H195V80Z" fill="#D2B863"/>
<path d="M165 70H175V60H165V70Z" fill="#D2B863"/>
<path d="M175 70H185V60H175V70Z" fill="#AD832D"/>
<path d="M185 70H195V60H185V70Z" fill="#D2B863"/>
<path d="M165 80H175V70H165V80Z" fill="#AD832D"/>
<path d="M165 90H175V80H165V90Z" fill="#FFFBA4"/>
<path d="M165 100H175V90H165V100Z" fill="#3D2E10"/>
<path d="M165 130H175V120H165V130Z" fill="#AD832D"/>
<path d="M165 140H175V130H165V140Z" fill="#3D2E10"/>
<path d="M125 40H135V30H125V40Z" fill="#FFFBA4"/>
<path d="M145 40H155V30H145V40Z" fill="#D2B863"/>
<path d="M135 40H145V30H135V40Z" fill="#AD832D"/>
<path d="M155 40H165V30H155V40Z" fill="#AD832D"/>
<path d="M165 40H175V30H165V40Z" fill="#D2B863"/>
<path d="M175 40H185V30H175V40Z" fill="#FFFBA4"/>
<path d="M185 40H195V30H185V40Z" fill="#FFFBA4"/>
<path d="M155 50H165V40H155V50Z" fill="#D2B863"/>
<path d="M165 50H175V40H165V50Z" fill="#D2B863"/>
<path d="M165 60H175V50H165V60Z" fill="#AD832D"/>
<path d="M175 60H185V50H175V60Z" fill="#D2B863"/>
<path d="M165 30H175V20H165V30Z" fill="#FFFBA4"/>
<path d="M155 30H165V20H155V30Z" fill="#FFFBA4"/>
<path d="M145 30H155V20H145V30Z" fill="#D2B863"/>
<path d="M125 50H135V40H125V50Z" fill="#D2B863"/>
<path d="M135 50H145V40H135V50Z" fill="#D2B863"/>
<path d="M145 50H155V40H145V50Z" fill="#FFFBA4"/>
<path d="M125 60H135V50H125V60Z" fill="#AD832D"/>
<path d="M135 60H145V50H135V60Z" fill="#D2B863"/>
<path d="M145 60H155V50H145V60Z" fill="#AD832D"/>
<path d="M125 70H135V60H125V70Z" fill="#D2B863"/>
<path d="M135 70H145V60H135V70Z" fill="#AD832D"/>
<path d="M145 70H155V60H145V70Z" fill="#D2B863"/>
<path d="M125 80H135V70H125V80Z" fill="#AD832D"/>
<path d="M135 80H145V70H135V80Z" fill="#AD832D"/>
<path d="M145 80H155V70H145V80Z" fill="#AD832D"/>
<path d="M125 90H135V80H125V90Z" fill="#D2B863"/>
<path d="M135 90H145V80H135V90Z" fill="#AD832D"/>
<path d="M145 90H155V80H145V90Z" fill="#3D2E10"/>
<path d="M125 100H135V90H125V100Z" fill="#AD832D"/>
<path d="M135 100H145V90H135V100Z" fill="#3D2E10"/>
<path d="M125 110H135V100H125V110Z" fill="#3D2E10"/>
<path d="M125 120H135V110H125V120Z" fill="#AD832D"/>
<path d="M125 130H135V120H125V130Z" fill="#3D2E10"/>
<path d="M135 130H145V120H135V130Z" fill="#AD832D"/>
<path d="M125 140H135V130H125V140Z" fill="#AD832D"/>
<path d="M135 140H145V130H135V140Z" fill="#3D2E10"/>
<path d="M145 140H155V130H145V140Z" fill="#3D2E10"/>
<path d="M125 150H135V140H125V150Z" fill="#3D2E10"/>
<path d="M135 150H145V140H135V150Z" fill="#AD832D"/>
<path d="M145 150H155V140H145V150Z" fill="#3D2E10"/>
<path d="M125 160H135V150H125V160Z" fill="#460A07"/>
<path d="M135 160H145V150H135V160Z" fill="#3D2E10"/>
<path d="M145 160H155V150H145V160Z" fill="#3D2E10"/>
<path d="M155 60H165V50H155V60Z" fill="#D2B863"/>
<path d="M155 70H165V60H155V70Z" fill="#AD832D"/>
<path d="M155 80H165V70H155V80Z" fill="#AD832D"/>
<path d="M155 90H165V80H155V90Z" fill="#FFFBA4"/>
<path d="M155 140H165V130H155V140Z" fill="#AD832D"/>
<path d="M155 150H165V140H155V150Z" fill="#3D2E10"/>
<path d="M215 100H225V90H215V100Z" fill="#D2B863"/>
<path d="M205 90H215V80H205V90Z" fill="#D2B863"/>
<path d="M215 90H225V80H215V90Z" fill="#FFFBA4"/>
<path d="M205 80H215V70H205V80Z" fill="#AD832D"/>
<path d="M195 70H205V60H195V70Z" fill="#D2B863"/>
<path d="M205 70H215V60H205V70Z" fill="#FFFBA4"/>
<path d="M175 50H185V40H175V50Z" fill="#D2B863"/>
<path d="M185 50H195V40H185V50Z" fill="#AD832D"/>
<path d="M195 50H205V40H195V50Z" fill="#FFFBA4"/>
<path d="M185 60H195V50H185V60Z" fill="#FFFBA4"/>
<path d="M195 60H205V50H195V60Z" fill="#D2B863"/>
<path d="M45 110H35V100H45V110Z" fill="#AD832D"/>
<path d="M55 120H45V110H55V120Z" fill="#AD832D"/>
<path d="M65 130H55V120H65V130Z" fill="#3D2E10"/>
<path d="M65 140H55V130H65V140Z" fill="#3D2E10"/>
<path d="M75 150H65V140H75V150Z" fill="#AD832D"/>
<path d="M65 160H55V150H65V160Z" fill="#3D2E10"/>
<path d="M55 150H45V140H55V150Z" fill="#3D2E10"/>
<path d="M45 150H35V140H45V150Z" fill="#3D2E10"/>
<path d="M35 150H25V140H35V150Z" fill="#3D2E10"/>
<path d="M25 150H15L15 140H25V150Z" fill="#460A07"/>
<path d="M55 140H45V130H55V140Z" fill="#AD832D"/>
<path d="M55 130H45V120H55V130Z" fill="#3D2E10"/>
<path d="M45 140H35V130H45V140Z" fill="#3D2E10"/>
<path d="M45 130H35V120H45V130Z" fill="#AD832D"/>
<path d="M45 120H35V110H45V120Z" fill="#3D2E10"/>
<path d="M35 140H25V130H35V140Z" fill="#AD832D"/>
<path d="M35 130H25V120H35V130Z" fill="#3D2E10"/>
<path d="M35 120H25V110H35V120Z" fill="#AD832D"/>
<path d="M35 110H25V100H35V110Z" fill="#3D2E10"/>
<path d="M25 140H15L15 130H25V140Z" fill="#3D2E10"/>
<path d="M25 130H15L15 120H25V130Z" fill="#460A07"/>
<path d="M25 120H15L15 110H25V120Z" fill="#3D2E10"/>
<path d="M25 110H15L15 100H25V110Z" fill="#460A07"/>
<path d="M55 160H45V150H55V160Z" fill="#AD832D"/>
<path d="M45 160H35V150H45V160Z" fill="#3D2E10"/>
<path d="M35 160H25V150H35V160Z" fill="#3D2E10"/>
<path d="M65 170H55V160H65V170Z" fill="#3D2E10"/>
<path d="M55 170H45V160H55V170Z" fill="#3D2E10"/>
<path d="M45 170H35V160H45V170Z" fill="#460A07"/>
<path d="M75 170H65V160H75V170Z" fill="#AD832D"/>
<path d="M85 170H75V160H85V170Z" fill="#3D2E10"/>
<path d="M75 180H65V170H75V180Z" fill="#3D2E10"/>
<path d="M65 180H55V170H65V180Z" fill="#460A07"/>
<path d="M85 180H75V170H85V180Z" fill="#3D2E10"/>
<path d="M55 100H45V90H55V100Z" fill="#AD832D"/>
<path d="M45 100H35V90H45V100Z" fill="#3D2E10"/>
<path d="M35 100H25V90H35V100Z" fill="#AD832D"/>
<path d="M55 110H45V100H55V110Z" fill="#3D2E10"/>
<path d="M65 90H55V80H65V90Z" fill="#AD832D"/>
<path d="M55 90H45V80H55V90Z" fill="#3D2E10"/>
<path d="M45 90H35V80H45V90Z" fill="#AD832D"/>
<path d="M65 100H55V90H65V100Z" fill="#3D2E10"/>
<path d="M65 110H55V100H65V110Z" fill="#AD832D"/>
<path d="M65 80H55V70H65V80Z" fill="#3D2E10"/>
<path d="M65 120H55V110H65V120Z" fill="#3D2E10"/>
<path d="M55 80H45V70H55V80Z" fill="#AD832D"/>
<path d="M45 80H35V70H45V80Z" fill="#3D2E10"/>
<path d="M75 70H65V60H75V70Z" fill="#3D2E10"/>
<path d="M65 70H55V60H65V70Z" fill="#AD832D"/>
<path d="M55 70H45V60H55V70Z" fill="#3D2E10"/>
<path d="M75 80H65V70H75V80Z" fill="#AD832D"/>
<path d="M75 90H65V80H75V90Z" fill="#3D2E10"/>
<path d="M75 100H65V90H75V100Z" fill="#AD832D"/>
<path d="M75 130H65V120H75V130Z" fill="#AD832D"/>
<path d="M75 140H65V130H75V140Z" fill="#3D2E10"/>
<path d="M115 40H105V30H115V40Z" fill="#D2B863"/>
<path d="M125 40H115V30H125V40Z" fill="#FFFBA4"/>
<path d="M95 40H85V30H95V40Z" fill="#AD832D"/>
<path d="M105 40H95V30H105V40Z" fill="#FFFBA4"/>
<path d="M85 40H75V30H85V40Z" fill="#D2B863"/>
<path d="M75 40H65V30H75V40Z" fill="#AD832D"/>
<path d="M65 40H55V30H65V40Z" fill="#FFFBA4"/>
<path d="M55 40H45V30H55V40Z" fill="#D2B863"/>
<path d="M85 50H75V40H85V50Z" fill="#AD832D"/>
<path d="M75 50H65V40H75V50Z" fill="#3D2E10"/>
<path d="M75 60H65V50H75V60Z" fill="#AD832D"/>
<path d="M65 60H55V50H65V60Z" fill="#AD832D"/>
<path d="M75 30H65V20H75V30Z" fill="#D2B863"/>
<path d="M85 30H75V20H85V30Z" fill="#FFFBA4"/>
<path d="M95 30H85V20H95V30Z" fill="#FFFBA4"/>
<path d="M115 50H105V40H115V50Z" fill="#FFFBA4"/>
<path d="M125 50H115V40H125V50Z" fill="#D2B863"/>
<path d="M105 50H95V40H105V50Z" fill="#AD832D"/>
<path d="M95 50H85V40H95V50Z" fill="#D2B863"/>
<path d="M115 60H105V50H115V60Z" fill="#AD832D"/>
<path d="M125 60H115V50H125V60Z" fill="#D2B863"/>
<path d="M105 60H95V50H105V60Z" fill="#D2B863"/>
<path d="M95 60H85V50H95V60Z" fill="#AD832D"/>
<path d="M115 70H105V60H115V70Z" fill="#D2B863"/>
<path d="M125 70H115V60H125V70Z" fill="#AD832D"/>
<path d="M105 70H95V60H105V70Z" fill="#AD832D"/>
<path d="M95 70H85V60H95V70Z" fill="#D2B863"/>
<path d="M115 80H105V70H115V80Z" fill="#AD832D"/>
<path d="M125 80H115V70H125V80Z" fill="#D2B863"/>
<path d="M105 80H95V70H105V80Z" fill="#D2B863"/>
<path d="M95 80H85V70H95V80Z" fill="#FFFBA4"/>
<path d="M115 90H105V80H115V90Z" fill="#D2B863"/>
<path d="M125 90H115V80H125V90Z" fill="#AD832D"/>
<path d="M105 90H95V80H105V90Z" fill="#FFFBA4"/>
<path d="M95 90H85V80H95V90Z" fill="#3D2E10"/>
<path d="M115 100H105V90H115V100Z" fill="#FFFBA4"/>
<path d="M125 100H115V90H125V100Z" fill="#AD832D"/>
<path d="M105 100H95V90H105V100Z" fill="#3D2E10"/>
<path d="M115 110H105V100H115V110Z" fill="#3D2E10"/>
<path d="M125 110H115V100H125V110Z" fill="#AD832D"/>
<path d="M115 120H105V110H115V120Z" fill="#AD832D"/>
<path d="M125 120H115V110H125V120Z" fill="#3D2E10"/>
<path d="M115 130H105V120H115V130Z" fill="#3D2E10"/>
<path d="M125 130H115V120H125V130Z" fill="#AD832D"/>
<path d="M105 130H95V120H105V130Z" fill="#AD832D"/>
<path d="M115 140H105V130H115V140Z" fill="#AD832D"/>
<path d="M125 140H115V130H125V140Z" fill="#3D2E10"/>
<path d="M105 140H95V130H105V140Z" fill="#3D2E10"/>
<path d="M95 140H85V130H95V140Z" fill="#AD832D"/>
<path d="M115 150H105V140H115V150Z" fill="#3D2E10"/>
<path d="M125 150H115V140H125V150Z" fill="#AD832D"/>
<path d="M105 150H95V140H105V150Z" fill="#AD832D"/>
<path d="M95 150H85V140H95V150Z" fill="#3D2E10"/>
<path d="M115 160H105V150H115V160Z" fill="#460A07"/>
<path d="M125 160H115V150H125V160Z" fill="#3D2E10"/>
<path d="M105 160H95V150H105V160Z" fill="#3D2E10"/>
<path d="M95 160H85V150H95V160Z" fill="#460A07"/>
<path d="M85 60H75V50H85V60Z" fill="#AD832D"/>
<path d="M85 70H75V60H85V70Z" fill="#AD832D"/>
<path d="M85 80H75V70H85V80Z" fill="#3D2E10"/>
<path d="M85 90H75V80H85V90Z" fill="#FFFBA4"/>
<path d="M85 140H75V130H85V140Z" fill="#3D2E10"/>
<path d="M85 150H75V140H85V150Z" fill="#3D2E10"/>
<path d="M25 100H15L15 90H25V100Z" fill="#3D2E10"/>
<path d="M35 90H25V80H35V90Z" fill="#3D2E10"/>
<path d="M25 90H15L15 80H25V90Z" fill="#3D2E10"/>
<path d="M35 80H25V70H35V80Z" fill="#3D2E10"/>
<path d="M45 70H35V60H45V70Z" fill="#AD832D"/>
<path d="M35 70H25V60H35V70Z" fill="#3D2E10"/>
<path d="M65 50H55V40H65V50Z" fill="#AD832D"/>
<path d="M55 50H45V40H55V50Z" fill="#3D2E10"/>
<path d="M45 50H35V40H45V50Z" fill="#AD832D"/>
<path d="M55 60H45V50H55V60Z" fill="#AD832D"/>
<path d="M45 60H35V50H45V60Z" fill="#3D2E10"/>
</svg>
