<svg width="240" height="210" viewBox="0 0 240 210" fill="none" xmlns="http://www.w3.org/2000/svg">
<path d="M90 180H80V190H90V180Z" fill="#3D2E10"/>
<path d="M100 180H90V190H100V180Z" fill="#3D2E10"/>
<path d="M120 180H110V190H120V180Z" fill="#3D2E10"/>
<path d="M130 180H120V190H130V180Z" fill="#3D2E10"/>
<path d="M150 180H140V190H150V180Z" fill="#3D2E10"/>
<path d="M160 180H150V190H160V180Z" fill="#3D2E10"/>
<path d="M80 170H70V180H80V170Z" fill="#3D2E10"/>
<path d="M90 170H80V180H90V170Z" fill="#AD832D"/>
<path d="M100 170H90V180H100V170Z" fill="#3D2E10"/>
<path d="M110 170H100V180H110V170Z" fill="#3D2E10"/>
<path d="M120 170H110V180H120V170Z" fill="#AD832D"/>
<path d="M130 170H120V180H130V170Z" fill="#AD832D"/>
<path d="M140 170H130V180H140V170Z" fill="#3D2E10"/>
<path d="M150 170H140V180H150V170Z" fill="#AD832D"/>
<path d="M160 170H150V180H160V170Z" fill="#AD832D"/>
<path d="M170 170H160V180H170V170Z" fill="#3D2E10"/>
<path d="M70 160H60V170H70V160Z" fill="#3D2E10"/>
<path d="M80 160H70V170H80V160Z" fill="#AD832D"/>
<path d="M90 160H80V170H90V160Z" fill="#D2B863"/>
<path d="M100 160H90V170H100V160Z" fill="#D2B863"/>
<path d="M110 160H100V170H110V160Z" fill="#3D2E10"/>
<path d="M120 160H110V170H120V160Z" fill="#D2B863"/>
<path d="M130 160H120V170H130V160Z" fill="#D2B863"/>
<path d="M140 160H130V170H140V160Z" fill="#AD832D"/>
<path d="M150 160H140V170H150V160Z" fill="#D2B863"/>
<path d="M160 160H150V170H160V160Z" fill="#D2B863"/>
<path d="M170 160H160V170H170V160Z" fill="#AD832D"/>
<path d="M180 160H170V170H180V160Z" fill="#3D2E10"/>
<path d="M60 150H50V160H60V150Z" fill="#3D2E10"/>
<path d="M70 150H60V160H70V150Z" fill="#3D2E10"/>
<path d="M80 150H70V160H80V150Z" fill="#D2B863"/>
<path d="M90 150H80V160H90V150Z" fill="#AD832D"/>
<path d="M100 150H90V160H100V150Z" fill="#D2B863"/>
<path d="M110 150H100V160H110V150Z" fill="#D2B863"/>
<path d="M120 150H110V160H120V150Z" fill="#D2B863"/>
<path d="M130 150H120V160H130V150Z" fill="#D2B863"/>
<path d="M140 150H130V160H140V150Z" fill="#D2B863"/>
<path d="M150 150H140V160H150V150Z" fill="#D2B863"/>
<path d="M160 150H150V160H160V150Z" fill="#AD832D"/>
<path d="M170 150H160V160H170V150Z" fill="#D2B863"/>
<path d="M180 150H170V160H180V150Z" fill="#AD832D"/>
<path d="M190 150H180V160H190V150Z" fill="#3D2E10"/>
<path d="M50 140H40V150H50V140Z" fill="#3D2E10"/>
<path d="M60 140H50V150H60V140Z" fill="#3D2E10"/>
<path d="M70 140H60V150H70V140Z" fill="#D2B863"/>
<path d="M80 140H70V150H80V140Z" fill="#D2B863"/>
<path d="M90 140H80V150H90V140Z" fill="#D2B863"/>
<path d="M100 140H90V150H100V140Z" fill="#030E27"/>
<path d="M110 140H100V150H110V140Z" fill="#D2B863"/>
<path d="M120 140H110V150H120V140Z" fill="#D2B863"/>
<path d="M130 140H120V150H130V140Z" fill="#030E27"/>
<path d="M140 140H130V150H140V140Z" fill="#030E27"/>
<path d="M150 140H140V150H150V140Z" fill="#030E27"/>
<path d="M160 140H150V150H160V140Z" fill="#D2B863"/>
<path d="M170 140H160V150H170V140Z" fill="#D2B863"/>
<path d="M180 140H170V150H180V140Z" fill="#FFFBA4"/>
<path d="M190 140H180V150H190V140Z" fill="#3D2E10"/>
<path d="M200 140H190V150H200V140Z" fill="#FFFBA4"/>
<path d="M50 130H40V140H50V130Z" fill="#3D2E10"/>
<path d="M60 130H50V140H60V130Z" fill="#D2B863"/>
<path d="M70 130H60V140H70V130Z" fill="#AD832D"/>
<path d="M80 130H70V140H80V130Z" fill="#D2B863"/>
<path d="M90 130H80V140H90V130Z" fill="#D2B863"/>
<path d="M100 130H90V140H100V130Z" fill="#D2B863"/>
<path d="M110 130H100V140H110V130Z" fill="#030E27"/>
<path d="M120 130H110V140H120V130Z" fill="#030E27"/>
<path d="M130 130H120V140H130V130Z" fill="#030E27"/>
<path d="M140 130H130V140H140V130Z" fill="#030E27"/>
<path d="M150 130H140V140H150V130Z" fill="#030E27"/>
<path d="M160 130H150V140H160V130Z" fill="#030E27"/>
<path d="M170 130H160V140H170V130Z" fill="#D2B863"/>
<path d="M180 130H170V140H180V130Z" fill="#AD832D"/>
<path d="M190 130H180V140H190V130Z" fill="#FFFBA4"/>
<path d="M200 130H190V140H200V130Z" fill="#D2B863"/>
<path d="M40 120H30V130H40V120Z" fill="#3D2E10"/>
<path d="M50 120H40V130H50V120Z" fill="#AD832D"/>
<path d="M60 120H50V130H60V120Z" fill="#D2B863"/>
<path d="M70 120H60V130H70V120Z" fill="#D2B863"/>
<path d="M80 120H70V130H80V120Z" fill="#D2B863"/>
<path d="M90 120H80V130H90V120Z" fill="#D2B863"/>
<path d="M100 120H90V130H100V120Z" fill="#030E27"/>
<path d="M110 120H100V130H110V120Z" fill="#030E27"/>
<path d="M120 120H110V130H120V120Z" fill="#030E27"/>
<path d="M130 120H120V130H130V120Z" fill="#030E27"/>
<path d="M140 120H130V130H140V120Z" fill="#030E27"/>
<path d="M150 120H140V130H150V120Z" fill="#030E27"/>
<path d="M160 120H150V130H160V120Z" fill="#030E27"/>
<path d="M170 120H160V130H170V120Z" fill="#D2B863"/>
<path d="M180 120H170V130H180V120Z" fill="#D2B863"/>
<path d="M190 120H180V130H190V120Z" fill="#D2B863"/>
<path d="M200 120H190V130H200V120Z" fill="#AD832D"/>
<path d="M210 120H200V130H210V120Z" fill="#D2B863"/>
<path d="M40 110H30V120H40V110Z" fill="#AD832D"/>
<path d="M50 110H40V120H50V110Z" fill="#D2B863"/>
<path d="M60 110H50V120H60V110Z" fill="#D2B863"/>
<path d="M70 110H60V120H70V110Z" fill="#030E27"/>
<path d="M80 110H70V120H80V110Z" fill="#D2B863"/>
<path d="M90 110H80V120H90V110Z" fill="#030E27"/>
<path d="M100 110H90V120H100V110Z" fill="#030E27"/>
<path d="M110 110H100V120H110V110Z" fill="#030E27"/>
<path d="M120 110H110V120H120V110Z" fill="#030E27"/>
<path d="M130 110H120V120H130V110Z" fill="#030E27"/>
<path d="M140 110H130V120H140V110Z" fill="#030E27"/>
<path d="M150 110H140V120H150V110Z" fill="#030E27"/>
<path d="M160 110H150V120H160V110Z" fill="#030E27"/>
<path d="M170 110H160V120H170V110Z" fill="#030E27"/>
<path d="M180 110H170V120H180V110Z" fill="#D2B863"/>
<path d="M190 110H180V120H190V110Z" fill="#D2B863"/>
<path d="M200 110H190V120H200V110Z" fill="#D2B863"/>
<path d="M210 110H200V120H210V110Z" fill="#FFFBA4"/>
<path d="M40 100H30V110H40V100Z" fill="#3D2E10"/>
<path d="M50 100H40V110H50V100Z" fill="#D2B863"/>
<path d="M60 100H50V110H60V100Z" fill="#D2B863"/>
<path d="M70 100H60V110H70V100Z" fill="#D2B863"/>
<path d="M80 100H70V110H80V100Z" fill="#030E27"/>
<path d="M90 100H80V110H90V100Z" fill="#030E27"/>
<path d="M100 100H90V110H100V100Z" fill="#030E27"/>
<path d="M110 100H100V110H110V100Z" fill="#030E27"/>
<path d="M120 100H110V110H120V100Z" fill="#030E27"/>
<path d="M130 100H120V110H130V100Z" fill="#030E27"/>
<path d="M140 100H130V110H140V100Z" fill="#030E27"/>
<path d="M150 100H140V110H150V100Z" fill="#030E27"/>
<path d="M160 100H150V110H160V100Z" fill="#030E27"/>
<path d="M170 100H160V110H170V100Z" fill="#030E27"/>
<path d="M180 100H170V110H180V100Z" fill="#030E27"/>
<path d="M190 100H180V110H190V100Z" fill="#D2B863"/>
<path d="M200 100H190V110H200V100Z" fill="#D2B863"/>
<path d="M210 100H200V110H210V100Z" fill="#D2B863"/>
<path d="M40 90H30V100H40V90Z" fill="#AD832D"/>
<path d="M50 90H40V100H50V90Z" fill="#D2B863"/>
<path d="M60 90H50V100H60V90Z" fill="#D2B863"/>
<path d="M70 90H60V100H70V90Z" fill="#030E27"/>
<path d="M80 90H70V100H80V90Z" fill="#D2B863"/>
<path d="M90 90H80V100H90V90Z" fill="#D2B863"/>
<path d="M100 90H90V100H100V90Z" fill="#D2B863"/>
<path d="M110 90H100V100H110V90Z" fill="#030E27"/>
<path d="M120 90H110V100H120V90Z" fill="#030E27"/>
<path d="M130 90H120V100H130V90Z" fill="#030E27"/>
<path d="M140 90H130V100H140V90Z" fill="#D2B863"/>
<path d="M150 90H140V100H150V90Z" fill="#D2B863"/>
<path d="M160 90H150V100H160V90Z" fill="#D2B863"/>
<path d="M170 90H160V100H170V90Z" fill="#D2B863"/>
<path d="M180 90H170V100H180V90Z" fill="#D2B863"/>
<path d="M190 90H180V100H190V90Z" fill="#D2B863"/>
<path d="M200 90H190V100H200V90Z" fill="#D2B863"/>
<path d="M210 90H200V100H210V90Z" fill="#FFFBA4"/>
<path d="M50 80H40V90H50V80Z" fill="#3D2E10"/>
<path d="M60 80H50V90H60V80Z" fill="#D2B863"/>
<path d="M70 80H60V90H70V80Z" fill="#D2B863"/>
<path d="M80 80H70V90H80V80Z" fill="#AD832D"/>
<path d="M90 80H80V90H90V80Z" fill="#D2B863"/>
<path d="M100 80H90V90H100V80Z" fill="#030E27"/>
<path d="M110 80H100V90H110V80Z" fill="#030E27"/>
<path d="M120 80H110V90H120V80Z" fill="#D2B863"/>
<path d="M130 80H120V90H130V80Z" fill="#D2B863"/>
<path d="M140 80H130V90H140V80Z" fill="#D2B863"/>
<path d="M150 80H140V90H150V80Z" fill="#D2B863"/>
<path d="M160 80H150V90H160V80Z" fill="#FFFBA4"/>
<path d="M170 80H160V90H170V80Z" fill="#AD832D"/>
<path d="M180 80H170V90H180V80Z" fill="#D2B863"/>
<path d="M190 80H180V90H190V80Z" fill="#D2B863"/>
<path d="M200 80H190V90H200V80Z" fill="#D2B863"/>
<path d="M50 70H40V80H50V70Z" fill="#3D2E10"/>
<path d="M60 70H50V80H60V70Z" fill="#AD832D"/>
<path d="M70 70H60V80H70V70Z" fill="#D2B863"/>
<path d="M80 70H70V80H80V70Z" fill="#FFFBA4"/>
<path d="M90 70H80V80H90V70Z" fill="#AD832D"/>
<path d="M100 70H90V80H100V70Z" fill="#D2B863"/>
<path d="M110 70H100V80H110V70Z" fill="#FFFBA4"/>
<path d="M120 70H110V80H120V70Z" fill="#AD832D"/>
<path d="M130 70H120V80H130V70Z" fill="#AD832D"/>
<path d="M140 70H130V80H140V70Z" fill="#FFFBA4"/>
<path d="M150 70H140V80H150V70Z" fill="#FFFBA4"/>
<path d="M160 70H150V80H160V70Z" fill="#AD832D"/>
<path d="M170 70H160V80H170V70Z" fill="#D2B863"/>
<path d="M180 70H170V80H180V70Z" fill="#FFFBA4"/>
<path d="M190 70H180V80H190V70Z" fill="#AD832D"/>
<path d="M200 70H190V80H200V70Z" fill="#FFFBA4"/>
<path d="M60 60H50V70H60V60Z" fill="#3D2E10"/>
<path d="M70 60H60V70H70V60Z" fill="#AD832D"/>
<path d="M80 60H70V70H80V60Z" fill="#D2B863"/>
<path d="M90 60H80V70H90V60Z" fill="#FFFBA4"/>
<path d="M100 60H90V70H100V60Z" fill="#AD832D"/>
<path d="M110 60H100V70H110V60Z" fill="#AD832D"/>
<path d="M120 60H110V70H120V60Z" fill="#3D2E10"/>
<path d="M130 60H120V70H130V60Z" fill="#3D2E10"/>
<path d="M140 60H130V70H140V60Z" fill="#AD832D"/>
<path d="M150 60H140V70H150V60Z" fill="#AD832D"/>
<path d="M160 60H150V70H160V60Z" fill="#FFFBA4"/>
<path d="M170 60H160V70H170V60Z" fill="#FFFBA4"/>
<path d="M180 60H170V70H180V60Z" fill="#AD832D"/>
<path d="M190 60H180V70H190V60Z" fill="#FFFBA4"/>
<path d="M70 50H60V60H70V50Z" fill="#FFFBA4"/>
<path d="M80 50H70V60H80V50Z" fill="#AD832D"/>
<path d="M90 50H80V60H90V50Z" fill="#FFFBA4"/>
<path d="M100 50H90V60H100V50Z" fill="#AD832D"/>
<path d="M110 50H100V60H110V50Z" fill="#3D2E10"/>
<path d="M120 50H110V60H120V50Z" fill="#3D2E10"/>
<path d="M130 50H120V60H130V50Z" fill="#3D2E10"/>
<path d="M140 50H130V60H140V50Z" fill="#3D2E10"/>
<path d="M150 50H140V60H150V50Z" fill="#AD832D"/>
<path d="M160 50H150V60H160V50Z" fill="#FFFBA4"/>
<path d="M170 50H160V60H170V50Z" fill="#AD832D"/>
<path d="M180 50H170V60H180V50Z" fill="#FFFBA4"/>
<path d="M90 40H80V50H90V40Z" fill="#AD832D"/>
<path d="M100 40H90V50H100V40Z" fill="#AD832D"/>
<path d="M120 40H110V50H120V40Z" fill="#3D2E10"/>
<path d="M130 40H120V50H130V40Z" fill="#3D2E10"/>
<path d="M150 40H140V50H150V40Z" fill="#AD832D"/>
<path d="M160 40H150V50H160V40Z" fill="#AD832D"/>
<path d="M120 30H110V40H120V30Z" fill="#3D2E10"/>
<path d="M130 30H120V40H130V30Z" fill="#3D2E10"/>
<path d="M130 20H120V30H130V20Z" fill="#3D2E10"/>
<path d="M140 20H130V30H140V20Z" fill="#3D2E10"/>
</svg>
