<svg width="240" height="210" viewBox="0 0 240 210" fill="none" xmlns="http://www.w3.org/2000/svg" style="shape-rendering: crispEdges;">
<path d="M130 30H120V40H130V30Z" fill="#AD832D"/>
<path d="M180 30L170 30L170 40L180 40L180 30Z" fill="#FFFBA4"/>
<path d="M150 30L140 30L140 40L150 40L150 30Z" fill="#AD832D"/>
<path d="M180 40L170 40L170 50L180 50L180 40Z" fill="#FFFBA4"/>
<path d="M170 40L160 40L160 50L170 50L170 40Z" fill="#3D2E10"/>
<path d="M160 40L150 40L150 50L160 50L160 40Z" fill="#AD832D"/>
<path d="M140 40L130 40L130 50L140 50L140 40Z" fill="#030E27"/>
<path d="M180 50L170 50L170 60L180 60L180 50Z" fill="#D2B863"/>
<path d="M170 50L160 50L160 60L170 60L170 50Z" fill="#AD832D"/>
<path d="M190 60L180 60L180 70L190 70L190 60Z" fill="#FFFBA4"/>
<path d="M180 60L170 60L170 70L180 70L180 60Z" fill="#3D2E10"/>
<path d="M170 60L160 60L160 70L170 70L170 60Z" fill="#AD832D"/>
<path d="M160 50L150 50L150 60L160 60L160 50Z" fill="#030E27"/>
<path d="M190 70L180 70L180 80L190 80L190 70Z" fill="#D2B863"/>
<path d="M180 70L170 70L170 80L180 80L180 70Z" fill="#3D2E10"/>
<path d="M170 70L160 70L160 80L170 80L170 70Z" fill="#AD832D"/>
<path d="M150 50L140 50L140 60L150 60L150 50Z" fill="#FFFBA4"/>
<path d="M160 60L150 60L150 70L160 70L160 60Z" fill="#030E27"/>
<path d="M160 70L150 70L150 80L160 80L160 70Z" fill="#030E27"/>
<path d="M190 80L180 80L180 90L190 90L190 80Z" fill="#FFFBA4"/>
<path d="M180 80L170 80L170 90L180 90L180 80Z" fill="#3D2E10"/>
<path d="M170 80L160 80L160 90L170 90L170 80Z" fill="#AD832D"/>
<path d="M200 90L190 90L190 100L200 100L200 90Z" fill="#D2B863"/>
<path d="M190 90L180 90L180 100L190 100L190 90Z" fill="#D2B863"/>
<path d="M180 90L170 90L170 100L180 100L180 90Z" fill="#AD832D"/>
<path d="M200 100L190 100L190 110L200 110L200 100Z" fill="#FFFBA4"/>
<path d="M190 100L180 100L180 110L190 110L190 100Z" fill="#D2B863"/>
<path d="M180 100L170 100L170 110L180 110L180 100Z" fill="#3D2E10"/>
<path d="M140 30L130 30L130 40L140 40L140 30Z" fill="#AD832D"/>
<path d="M130 40L120 40L120 50L130 50L130 40Z" fill="#030E27"/>
<path d="M140 50L130 50L130 60L140 60L140 50Z" fill="#030E27"/>
<path d="M130 50L120 50L120 60L130 60L130 50Z" fill="#030E27"/>
<path d="M150 60L140 60L140 70L150 70L150 60Z" fill="#FFFBA4"/>
<path d="M140 60L130 60L130 70L140 70L140 60Z" fill="#FFFBA4"/>
<path d="M130 60L120 60L120 70L130 70L130 60Z" fill="#030E27"/>
<path d="M150 70L140 70L140 80L150 80L150 70Z" fill="#030E27"/>
<path d="M140 70L130 70L130 80L140 80L140 70Z" fill="#FFFBA4"/>
<path d="M130 70L120 70L120 80L130 80L130 70Z" fill="#FFFBA4"/>
<path d="M160 80L150 80L150 90L160 90L160 80Z" fill="#030E27"/>
<path d="M150 80L140 80L140 90L150 90L150 80Z" fill="#030E27"/>
<path d="M170 90L160 90L160 100L170 100L170 90Z" fill="#3D2E10"/>
<path d="M160 90L150 90L150 100L160 100L160 90Z" fill="#AD832D"/>
<path d="M140 80L130 80L130 90L140 90L140 80Z" fill="#030E27"/>
<path d="M150 90L140 90L140 100L150 100L150 90Z" fill="#030E27"/>
<path d="M170 100L160 100L160 110L170 110L170 100Z" fill="#AD832D"/>
<path d="M160 100L150 100L150 110L160 110L160 100Z" fill="#3D2E10"/>
<path d="M130 80L120 80L120 90L130 90L130 80Z" fill="#FFFBA4"/>
<path d="M140 90L130 90L130 100L140 100L140 90Z" fill="#030E27"/>
<path d="M150 100L140 100L140 110L150 110L150 100Z" fill="#AD832D"/>
<path d="M140 100L130 100L130 110L140 110L140 100Z" fill="#AD832D"/>
<path d="M170 20L160 20L160 30L170 30L170 20Z" fill="#FFFBA4"/>
<path d="M160 20L150 20L150 30L160 30L160 20Z" fill="#FFFBA4"/>
<path d="M170 30L160 30L160 40L170 40L170 30Z" fill="#AD832D"/>
<path d="M150 20L140 20L140 30L150 30L150 20Z" fill="#FFFBA4"/>
<path d="M130 20L120 20L120 30L130 30L130 20Z" fill="#D2B863"/>
<path d="M160 30L150 30L150 40L160 40L160 30Z" fill="#3D2E10"/>
<path d="M150 40L140 40L140 50L150 50L150 40Z" fill="#030E27"/>
<path d="M140 20L130 20L130 30L140 30L140 20Z" fill="#FFFBA4"/>
<path d="M190 110L180 110L180 120L190 120L190 110Z" fill="#D2B863"/>
<path d="M180 110L170 110L170 120L180 120L180 110Z" fill="#D2B863"/>
<path d="M170 110L160 110L160 120L170 120L170 110Z" fill="#D2B863"/>
<path d="M160 110L150 110L150 120L160 120L160 110Z" fill="#D2B863"/>
<path d="M150 110L140 110L140 120L150 120L150 110Z" fill="#D2B863"/>
<path d="M140 110L130 110L130 120L140 120L140 110Z" fill="#D2B863"/>
<path d="M130 110L120 110L120 120L130 120L130 110Z" fill="#D2B863"/>
<path d="M130 100L120 100L120 110L130 110L130 100Z" fill="#AD832D"/>
<path d="M130 90L120 90L120 100L130 100L130 90Z" fill="#030E27"/>
<path d="M210 150L200 150L200 160L210 160L210 150Z" fill="#FFFBA4"/>
<path d="M200 150L190 150L190 160L200 160L200 150Z" fill="#3D2E10"/>
<path d="M190 150L180 150L180 160L190 160L190 150Z" fill="#D2B863"/>
<path d="M180 150L170 150L170 160L180 160L180 150Z" fill="#3D2E10"/>
<path d="M170 150L160 150L160 160L170 160L170 150Z" fill="#D2B863"/>
<path d="M160 150L150 150L150 160L160 160L160 150Z" fill="#3D2E10"/>
<path d="M150 150L140 150L140 160L150 160L150 150Z" fill="#D2B863"/>
<path d="M140 150L130 150L130 160L140 160L140 150Z" fill="#3D2E10"/>
<path d="M200 140L190 140L190 150L200 150L200 140Z" fill="#FFFBA4"/>
<path d="M190 140L180 140L180 150L190 150L190 140Z" fill="#FFFBA4"/>
<path d="M180 140L170 140L170 150L180 150L180 140Z" fill="#D2B863"/>
<path d="M170 140L160 140L160 150L170 150L170 140Z" fill="#D2B863"/>
<path d="M160 140L150 140L150 150L160 150L160 140Z" fill="#AD832D"/>
<path d="M150 140L140 140L140 150L150 150L150 140Z" fill="#AD832D"/>
<path d="M140 140L130 140L130 150L140 150L140 140Z" fill="#AD832D"/>
<path d="M130 140L120 140L120 150L130 150L130 140Z" fill="#AD832D"/>
<path d="M220 170L210 170L210 180L220 180L220 170Z" fill="#D2B863"/>
<path d="M210 170L200 170L200 180L210 180L210 170Z" fill="#AD832D"/>
<path d="M200 170L190 170L190 180L200 180L200 170Z" fill="#3D2E10"/>
<path d="M190 170L180 170L180 180L190 180L190 170Z" fill="#AD832D"/>
<path d="M180 170L170 170L170 180L180 180L180 170Z" fill="#3D2E10"/>
<path d="M170 170L160 170L160 180L170 180L170 170Z" fill="#AD832D"/>
<path d="M160 170L150 170L150 180L160 180L160 170Z" fill="#3D2E10"/>
<path d="M150 170L140 170L140 180L150 180L150 170Z" fill="#3D2E10"/>
<path d="M140 170L130 170L130 180L140 180L140 170Z" fill="#3D2E10"/>
<path d="M140 160L130 160L130 170L140 170L140 160Z" fill="#D2B863"/>
<path d="M130 150L120 150L120 160L130 160L130 150Z" fill="#D2B863"/>
<path d="M130 160L120 160L120 170L130 170L130 160Z" fill="#3D2E10"/>
<path d="M130 170L120 170L120 180L130 180L130 170Z" fill="#3D2E10"/>
<path d="M220 160L210 160L210 170L220 170L220 160Z" fill="#FFFBA4"/>
<path d="M210 160L200 160L200 170L210 170L210 160Z" fill="#3D2E10"/>
<path d="M200 160L190 160L190 170L200 170L200 160Z" fill="#D2B863"/>
<path d="M190 160L180 160L180 170L190 170L190 160Z" fill="#3D2E10"/>
<path d="M180 160L170 160L170 170L180 170L180 160Z" fill="#D2B863"/>
<path d="M170 160L160 160L160 170L170 170L170 160Z" fill="#3D2E10"/>
<path d="M160 160L150 160L150 170L160 170L160 160Z" fill="#D2B863"/>
<path d="M150 160L140 160L140 170L150 170L150 160Z" fill="#3D2E10"/>
<path d="M150 180L140 180L140 190L150 190L150 180Z" fill="#3D2E10"/>
<path d="M140 180L130 180L130 190L140 190L140 180Z" fill="#3D2E10"/>
<path d="M130 180L120 180L120 190L130 190L130 180Z" fill="#AD832D"/>
<path d="M230 180L220 180L220 190L230 190L230 180Z" fill="#AD832D"/>
<path d="M220 180L210 180L210 190L220 190L220 180Z" fill="#AD832D"/>
<path d="M210 180L200 180L200 190L210 190L210 180Z" fill="#3D2E10"/>
<path d="M200 180L190 180L190 190L200 190L200 180Z" fill="#3D2E10"/>
<path d="M190 180L180 180L180 190L190 190L190 180Z" fill="#3D2E10"/>
<path d="M180 180L170 180L170 190L180 190L180 180Z" fill="#AD832D"/>
<path d="M170 180L160 180L160 190L170 190L170 180Z" fill="#3D2E10"/>
<path d="M160 180L150 180L150 190L160 190L160 180Z" fill="#3D2E10"/>
<path d="M120 30H110V40H120V30Z" fill="#AD832D"/>
<path d="M110 30H100V40H110V30Z" fill="#AD832D"/>
<path d="M80 30H70V40H80V30Z" fill="#AD832D"/>
<path d="M120 40H110V50H120V40Z" fill="#030E27"/>
<path d="M110 40H100V50H110V40Z" fill="#030E27"/>
<path d="M100 40H90V50H100V40Z" fill="#030E27"/>
<path d="M80 40H70V50H80V40Z" fill="#3D2E10"/>
<path d="M120 50H110V60H120V50Z" fill="#FFFBA4"/>
<path d="M110 50H100V60H110V50Z" fill="#FFFBA4"/>
<path d="M100 50H90V60H100V50Z" fill="#030E27"/>
<path d="M120 60H110V70H120V60Z" fill="#030E27"/>
<path d="M110 60H100V70H110V60Z" fill="#FFFBA4"/>
<path d="M100 60H90V70H100V60Z" fill="#FFFBA4"/>
<path d="M120 70H110V80H120V70Z" fill="#030E27"/>
<path d="M110 70H100V80H110V70Z" fill="#030E27"/>
<path d="M100 70H90V80H100V70Z" fill="#FFFBA4"/>
<path d="M90 50H80V60H90V50Z" fill="#030E27"/>
<path d="M90 60H80V70H90V60Z" fill="#030E27"/>
<path d="M90 70H80V80H90V70Z" fill="#030E27"/>
<path d="M120 80H110V90H120V80Z" fill="#FFFBA4"/>
<path d="M110 80H100V90H110V80Z" fill="#030E27"/>
<path d="M100 80H90V90H100V80Z" fill="#030E27"/>
<path d="M120 90H110V100H120V90Z" fill="#030E27"/>
<path d="M110 90H100V100H110V90Z" fill="#030E27"/>
<path d="M100 90H90V100H100V90Z" fill="#030E27"/>
<path d="M120 100H110V110H120V100Z" fill="#AD832D"/>
<path d="M110 100H100V110H110V100Z" fill="#AD832D"/>
<path d="M100 100H90V110H100V100Z" fill="#AD832D"/>
<path d="M70 30H60V40H70V30Z" fill="#D2B863"/>
<path d="M70 40H60V50H70V40Z" fill="#D2B863"/>
<path d="M80 50H70V60H80V50Z" fill="#AD832D"/>
<path d="M70 50H60V60H70V50Z" fill="#D2B863"/>
<path d="M80 60H70V70H80V60Z" fill="#AD832D"/>
<path d="M70 60H60V70H70V60Z" fill="#3D2E10"/>
<path d="M60 60H50V70H60V60Z" fill="#D2B863"/>
<path d="M80 70H70V80H80V70Z" fill="#AD832D"/>
<path d="M70 70H60V80H70V70Z" fill="#3D2E10"/>
<path d="M60 70H50V80H60V70Z" fill="#D2B863"/>
<path d="M90 80H80V90H90V80Z" fill="#030E27"/>
<path d="M80 80H70V90H80V80Z" fill="#AD832D"/>
<path d="M90 90H80V100H90V90Z" fill="#AD832D"/>
<path d="M80 90H70V100H80V90Z" fill="#3D2E10"/>
<path d="M70 80H60V90H70V80Z" fill="#3D2E10"/>
<path d="M70 90H60V100H70V90Z" fill="#AD832D"/>
<path d="M90 100H80V110H90V100Z" fill="#3D2E10"/>
<path d="M80 100H70V110H80V100Z" fill="#AD832D"/>
<path d="M60 80H50V90H60V80Z" fill="#D2B863"/>
<path d="M60 90H50V100H60V90Z" fill="#D2B863"/>
<path d="M70 100H60V110H70V100Z" fill="#3D2E10"/>
<path d="M60 100H50V110H60V100Z" fill="#D2B863"/>
<path d="M120 20H110V30H120V20Z" fill="#FFFBA4"/>
<path d="M110 20H100V30H110V20Z" fill="#D2B863"/>
<path d="M100 30H90V40H100V30Z" fill="#AD832D"/>
<path d="M100 20H90V30H100V20Z" fill="#D2B863"/>
<path d="M80 20H70V30H80V20Z" fill="#D2B863"/>
<path d="M90 30H80V40H90V30Z" fill="#3D2E10"/>
<path d="M90 40H80V50H90V40Z" fill="#AD832D"/>
<path d="M90 20H80V30H90V20Z" fill="#D2B863"/>
<path d="M120 110H110V120H120V110Z" fill="#D2B863"/>
<path d="M110 110H100V120H110V110Z" fill="#D2B863"/>
<path d="M100 110H90V120H100V110Z" fill="#D2B863"/>
<path d="M90 110H80V120H90V110Z" fill="#D2B863"/>
<path d="M80 110H70V120H80V110Z" fill="#D2B863"/>
<path d="M70 110H60V120H70V110Z" fill="#D2B863"/>
<path d="M60 110H50V120H60V110Z" fill="#D2B863"/>
<path d="M50 100H40V110H50V100Z" fill="#D2B863"/>
<path d="M50 90H40V100H50V90Z" fill="#D2B863"/>
<path d="M200 120L190 120L190 130L200 130L200 120Z" fill="#D2B863"/>
<path d="M190 120L180 120L180 130L190 130L190 120Z" fill="#AD832D"/>
<path d="M180 120L170 120L170 130L180 130L180 120Z" fill="#AD832D"/>
<path d="M170 120L160 120L160 130L170 130L170 120Z" fill="#AD832D"/>
<path d="M160 120L150 120L150 130L160 130L160 120Z" fill="#AD832D"/>
<path d="M150 120L140 120L140 130L150 130L150 120Z" fill="#AD832D"/>
<path d="M140 120L130 120L130 130L140 130L140 120Z" fill="#3D2E10"/>
<path d="M130 120L120 120L120 130L130 130L130 120Z" fill="#3D2E10"/>
<path d="M130 130L120 130L120 140L130 140L130 130Z" fill="#030E27"/>
<path d="M120 120H110V130H120V120Z" fill="#3D2E10"/>
<path d="M110 120H100V130H110V120Z" fill="#3D2E10"/>
<path d="M100 120H90V130H100V120Z" fill="#3D2E10"/>
<path d="M90 120H80V130H90V120Z" fill="#3D2E10"/>
<path d="M80 120H70V130H80V120Z" fill="#3D2E10"/>
<path d="M70 120H60V130H70V120Z" fill="#3D2E10"/>
<path d="M60 120H50V130H60V120Z" fill="#3D2E10"/>
<path d="M50 120H40V130H50V120Z" fill="#3D2E10"/>
<path d="M40 130H30V140H40V130Z" fill="#3D2E10"/>
<path d="M210 130L200 130L200 140L210 140L210 130Z" fill="#D2B863"/>
<path d="M200 130L190 130L190 140L200 140L200 130Z" fill="#030E27"/>
<path d="M190 130L180 130L180 140L190 140L190 130Z" fill="#030E27"/>
<path d="M180 130L170 130L170 140L180 140L180 130Z" fill="#FFFBA4"/>
<path d="M170 130L160 130L160 140L170 140L170 130Z" fill="#FFFBA4"/>
<path d="M160 130L150 130L150 140L160 140L160 130Z" fill="#FFFBA4"/>
<path d="M150 130L140 130L140 140L150 140L150 130Z" fill="#030E27"/>
<path d="M140 130L130 130L130 140L140 140L140 130Z" fill="#030E27"/>
<path d="M120 130H110V140H120V130Z" fill="#030E27"/>
<path d="M110 130H100V140H110V130Z" fill="#030E27"/>
<path d="M100 130H90V140H100V130Z" fill="#030E27"/>
<path d="M90 130H80V140H90V130Z" fill="#FFFBA4"/>
<path d="M80 130H70V140H80V130Z" fill="#030E27"/>
<path d="M70 130H60V140H70V130Z" fill="#FFFBA4"/>
<path d="M60 130H50V140H60V130Z" fill="#030E27"/>
<path d="M50 130H40V140H50V130Z" fill="#030E27"/>
<path d="M120 150H110V160H120V150Z" fill="#3D2E10"/>
<path d="M110 150H100V160H110V150Z" fill="#D2B863"/>
<path d="M100 150H90V160H100V150Z" fill="#3D2E10"/>
<path d="M90 150H80V160H90V150Z" fill="#D2B863"/>
<path d="M80 150H70V160H80V150Z" fill="#3D2E10"/>
<path d="M70 150H60V160H70V150Z" fill="#D2B863"/>
<path d="M60 150H50V160H60V150Z" fill="#3D2E10"/>
<path d="M50 150H40V160H50V150Z" fill="#D2B863"/>
<path d="M120 140H110V150H120V140Z" fill="#AD832D"/>
<path d="M110 140H100V150H110V140Z" fill="#AD832D"/>
<path d="M100 140H90V150H100V140Z" fill="#AD832D"/>
<path d="M90 140H80V150H90V140Z" fill="#AD832D"/>
<path d="M80 140H70V150H80V140Z" fill="#AD832D"/>
<path d="M70 140H60V150H70V140Z" fill="#3D2E10"/>
<path d="M60 140H50V150H60V140Z" fill="#3D2E10"/>
<path d="M50 140H40V150H50V140Z" fill="#3D2E10"/>
<path d="M120 170H110V180H120V170Z" fill="#3D2E10"/>
<path d="M110 170H100V180H110V170Z" fill="#3D2E10"/>
<path d="M100 170H90V180H100V170Z" fill="#3D2E10"/>
<path d="M90 170H80V180H90V170Z" fill="#AD832D"/>
<path d="M80 170H70V180H80V170Z" fill="#3D2E10"/>
<path d="M70 170H60V180H70V170Z" fill="#AD832D"/>
<path d="M60 170H50V180H60V170Z" fill="#3D2E10"/>
<path d="M50 170H40V180H50V170Z" fill="#AD832D"/>
<path d="M40 170H30V180H40V170Z" fill="#3D2E10"/>
<path d="M40 160H30V170H40V160Z" fill="#D2B863"/>
<path d="M40 150H30V160H40V150Z" fill="#3D2E10"/>
<path d="M30 160H20V170H30V160Z" fill="#3D2E10"/>
<path d="M30 170H20V180H30V170Z" fill="#3D2E10"/>
<path d="M120 160H110V170H120V160Z" fill="#D2B863"/>
<path d="M110 160H100V170H110V160Z" fill="#3D2E10"/>
<path d="M100 160H90V170H100V160Z" fill="#D2B863"/>
<path d="M90 160H80V170H90V160Z" fill="#3D2E10"/>
<path d="M80 160H70V170H80V160Z" fill="#D2B863"/>
<path d="M70 160H60V170H70V160Z" fill="#3D2E10"/>
<path d="M60 160H50V170H60V160Z" fill="#D2B863"/>
<path d="M50 160H40V170H50V160Z" fill="#3D2E10"/>
<path d="M40 180H30V190H40V180Z" fill="#3D2E10"/>
<path d="M30 180H20V190H30V180Z" fill="#3D2E10"/>
<path d="M20 180H10V190H20V180Z" fill="#3D2E10"/>
<path d="M120 180H110V190H120V180Z" fill="#3D2E10"/>
<path d="M110 180H100V190H110V180Z" fill="#3D2E10"/>
<path d="M100 180H90V190H100V180Z" fill="#3D2E10"/>
<path d="M90 180H80V190H90V180Z" fill="#3D2E10"/>
<path d="M80 180H70V190H80V180Z" fill="#3D2E10"/>
<path d="M70 180H60V190H70V180Z" fill="#3D2E10"/>
<path d="M60 180H50V190H60V180Z" fill="#3D2E10"/>
<path d="M50 180H40V190H50V180Z" fill="#3D2E10"/>
</svg>
