<svg width="400" height="340" viewBox="0 0 400 340" fill="none" xmlns="http://www.w3.org/2000/svg">
<path d="M400 220H390V230H400V220Z" fill="#D2B863"/>
<path d="M390 220H380V230H390V220Z" fill="#3D2E10"/>
<path d="M380 220H370V230H380V220Z" fill="#D2B863"/>
<path d="M370 220H360V230H370V220Z" fill="#AD832D"/>
<path d="M390 210H380V220H390V210Z" fill="#FFFBA4"/>
<path d="M380 210H370V220H380V210Z" fill="#3D2E10"/>
<path d="M370 210H360V220H370V210Z" fill="#FFFBA4"/>
<path d="M360 210H350V220H360V210Z" fill="#D2B863"/>
<path d="M350 210H340V220H350V210Z" fill="#AD832D"/>
<path d="M340 210H330V220H340V210Z" fill="#3D2E10"/>
<path d="M380 200H370V210H380V200Z" fill="#D2B863"/>
<path d="M370 200H360V210H370V200Z" fill="#3D2E10"/>
<path d="M360 200H350V210H360V200Z" fill="#FFFBA4"/>
<path d="M350 200H340V210H350V200Z" fill="#D2B863"/>
<path d="M340 200H330V210H340V200Z" fill="#AD832D"/>
<path d="M330 200H320V210H330V200Z" fill="#3D2E10"/>
<path d="M320 200H310V210H320V200Z" fill="#D2B863"/>
<path d="M320 210H310V220H320V210Z" fill="#3D2E10"/>
<path d="M330 210H320V220H330V210Z" fill="#AD832D"/>
<path d="M310 200H300V210H310V200Z" fill="#3D2E10"/>
<path d="M370 190H360V200H370V190Z" fill="#FFFBA4"/>
<path d="M360 190H350V200H360V190Z" fill="#3D2E10"/>
<path d="M350 190H340V200H350V190Z" fill="#FFFBA4"/>
<path d="M340 190H330V200H340V190Z" fill="#D2B863"/>
<path d="M330 190H320V200H330V190Z" fill="#AD832D"/>
<path d="M320 190H310V200H320V190Z" fill="#3D2E10"/>
<path d="M310 190H300V200H310V190Z" fill="#D2B863"/>
<path d="M300 190H290V200H300V190Z" fill="#3D2E10"/>
<path d="M300 200H290V210H300V200Z" fill="#AD832D"/>
<path d="M290 190H280V200H290V190Z" fill="#AD832D"/>
<path d="M290 200H280V210H290V200Z" fill="#3D2E10"/>
<path d="M280 190H270V200H280V190Z" fill="#3D2E10"/>
<path d="M360 180H350V190H360V180Z" fill="#D2B863"/>
<path d="M350 180H340V190H350V180Z" fill="#030E27"/>
<path d="M340 180H330V190H340V180Z" fill="#030E27"/>
<path d="M330 180H320V190H330V180Z" fill="#030E27"/>
<path d="M320 180H310V190H320V180Z" fill="#030E27"/>
<path d="M310 180H300V190H310V180Z" fill="#3D2E10"/>
<path d="M270 150H260V160H270V150Z" fill="#030E27"/>
<path d="M300 180H290V190H300V180Z" fill="#D2B863"/>
<path d="M290 180H280V190H290V180Z" fill="#3D2E10"/>
<path d="M280 180H270V190H280V180Z" fill="#D2B863"/>
<path d="M270 180H260V190H270V180Z" fill="#3D2E10"/>
<path d="M260 180H250V190H260V180Z" fill="#AD832D"/>
<path d="M250 180H240V190H250V180Z" fill="#3D2E10"/>
<path d="M260 190H250V200H260V190Z" fill="#3D2E10"/>
<path d="M270 190H260V200H270V190Z" fill="#AD832D"/>
<path d="M350 170H340V180H350V170Z" fill="#FFFBA4"/>
<path d="M340 170H330V180H340V170Z" fill="#030E27"/>
<path d="M320 170H310V180H320V170Z" fill="#FFFBA4"/>
<path d="M310 170H300V180H310V170Z" fill="#030E27"/>
<path d="M300 170H290V180H300V170Z" fill="#030E27"/>
<path d="M290 170H280V180H290V170Z" fill="#D2B863"/>
<path d="M280 170H270V180H280V170Z" fill="#3D2E10"/>
<path d="M270 170H260V180H270V170Z" fill="#AD832D"/>
<path d="M260 170H250V180H260V170Z" fill="#3D2E10"/>
<path d="M250 170H240V180H250V170Z" fill="#3D2E10"/>
<path d="M240 170H230V180H240V170Z" fill="#3D2E10"/>
<path d="M230 170H220V180H230V170Z" fill="#3D2E10"/>
<path d="M240 180H230V190H240V180Z" fill="#3D2E10"/>
<path d="M340 160H330V170H340V160Z" fill="#D2B863"/>
<path d="M330 160H320V170H330V160Z" fill="#030E27"/>
<path d="M300 160H290V170H300V160Z" fill="#030E27"/>
<path d="M290 160H280V170H290V160Z" fill="#FFFBA4"/>
<path d="M280 160H270V170H280V160Z" fill="#D2B863"/>
<path d="M270 160H260V170H270V160Z" fill="#3D2E10"/>
<path d="M260 160H250V170H260V160Z" fill="#3D2E10"/>
<path d="M330 150H320V160H330V150Z" fill="#FFFBA4"/>
<path d="M320 150H310V160H320V150Z" fill="#030E27"/>
<path d="M290 150H280V160H290V150Z" fill="#030E27"/>
<path d="M280 150H270V160H280V150Z" fill="#3D2E10"/>
<path d="M260 150H250V160H260V150Z" fill="#3D2E10"/>
<path d="M250 150H240V160H250V150Z" fill="#AD832D"/>
<path d="M250 160H240V170H250V160Z" fill="#3D2E10"/>
<path d="M240 150H230V160H240V150Z" fill="#3D2E10"/>
<path d="M230 150H220V160H230V150Z" fill="#AD832D"/>
<path d="M320 140H310V150H320V140Z" fill="#D2B863"/>
<path d="M310 140H300V150H310V140Z" fill="#030E27"/>
<path d="M280 140H270V150H280V140Z" fill="#3D2E10"/>
<path d="M270 140H260V150H270V140Z" fill="#FFFBA4"/>
<path d="M260 140H250V150H260V140Z" fill="#030E27"/>
<path d="M250 140H240V150H250V140Z" fill="#D2B863"/>
<path d="M240 140H230V150H240V140Z" fill="#AD832D"/>
<path d="M230 140H220V150H230V140Z" fill="#3D2E10"/>
<path d="M220 140H210V150H220V140Z" fill="#3D2E10"/>
<path d="M210 140H200V150H210V140Z" fill="#3D2E10"/>
<path d="M220 150H210V160H220V150Z" fill="#3D2E10"/>
<path d="M310 130H300V140H310V130Z" fill="#AD832D"/>
<path d="M300 130H290V140H300V130Z" fill="#FFFBA4"/>
<path d="M280 130H270V140H280V130Z" fill="#030E27"/>
<path d="M290 140H280V150H290V140Z" fill="#D2B863"/>
<path d="M290 130H280V140H290V130Z" fill="#3D2E10"/>
<path d="M250 110H240V120H250V110Z" fill="#030E27"/>
<path d="M300 150H290V160H300V150Z" fill="#030E27"/>
<path d="M300 140H290V150H300V140Z" fill="#030E27"/>
<path d="M310 160H300V170H310V160Z" fill="#FFFBA4"/>
<path d="M320 160H310V170H320V160Z" fill="#030E27"/>
<path d="M330 170H320V180H330V170Z" fill="#030E27"/>
<path d="M310 150H300V160H310V150Z" fill="#030E27"/>
<path d="M270 130H260V140H270V130Z" fill="#D2B863"/>
<path d="M260 130H250V140H260V130Z" fill="#3D2E10"/>
<path d="M250 130H240V140H250V130Z" fill="#D2B863"/>
<path d="M240 130H230V140H240V130Z" fill="#FFFBA4"/>
<path d="M230 130H220V140H230V130Z" fill="#AD832D"/>
<path d="M290 120H280V130H290V120Z" fill="#FFFBA4"/>
<path d="M280 120H270V130H280V120Z" fill="#D2B863"/>
<path d="M270 120H260V130H270V120Z" fill="#030E27"/>
<path d="M260 120H250V130H260V120Z" fill="#D2B863"/>
<path d="M250 120H240V130H250V120Z" fill="#3D2E10"/>
<path d="M240 120H230V130H240V120Z" fill="#3D2E10"/>
<path d="M230 120H220V130H230V120Z" fill="#3D2E10"/>
<path d="M220 120H210V130H220V120Z" fill="#3D2E10"/>
<path d="M210 110H200V120H210V110Z" fill="#3D2E10"/>
<path d="M270 110H260V120H270V110Z" fill="#FFFBA4"/>
<path d="M260 110H250V120H260V110Z" fill="#3D2E10"/>
<path d="M240 110H230V120H240V110Z" fill="#3D2E10"/>
<path d="M230 110H220V120H230V110Z" fill="#D2B863"/>
<path d="M250 100H240V110H250V100Z" fill="#D2B863"/>
<path d="M240 100H230V110H240V100Z" fill="#AD832D"/>
<path d="M80 190H70V200H80V190Z" fill="#3D2E10"/>
<path d="M270 270H260V280H270V270Z" fill="#FFFBA4"/>
<path d="M260 270H250V280H260V270Z" fill="#AD832D"/>
<path d="M270 280H260V290H270V280Z" fill="#AD832D"/>
<path d="M260 280H250V290H260V280Z" fill="#3D2E10"/>
<path d="M250 270H240V280H250V270Z" fill="#3D2E10"/>
<path d="M240 270H230V280H240V270Z" fill="#AD832D"/>
<path d="M230 270H220V280H230V270Z" fill="#3D2E10"/>
<path d="M220 270H210V280H220V270Z" fill="#AD832D"/>
<path d="M260 260H250V270H260V260Z" fill="#FFFBA4"/>
<path d="M250 260H240V270H250V260Z" fill="#D2B863"/>
<path d="M240 260H230V270H240V260Z" fill="#3D2E10"/>
<path d="M230 260H220V270H230V260Z" fill="#FFFBA4"/>
<path d="M220 260H210V270H220V260Z" fill="#D2B863"/>
<path d="M200 260H190V270H200V260Z" fill="#3D2E10"/>
<path d="M190 260H180V270H190V260Z" fill="#FFFBA4"/>
<path d="M240 250H230V260H240V250Z" fill="#D2B863"/>
<path d="M250 250H240V260H250V250Z" fill="#FFFBA4"/>
<path d="M230 250H220V260H230V250Z" fill="#3D2E10"/>
<path d="M220 250H210V260H220V250Z" fill="#FFFBA4"/>
<path d="M210 250H200V260H210V250Z" fill="#D2B863"/>
<path d="M200 250H190V260H200V250Z" fill="#AD832D"/>
<path d="M190 250H180V260H190V250Z" fill="#3D2E10"/>
<path d="M180 250H170V260H180V250Z" fill="#FFFBA4"/>
<path d="M170 250H160V260H170V250Z" fill="#D2B863"/>
<path d="M180 260H170V270H180V260Z" fill="#3D2E10"/>
<path d="M190 270H180V280H190V270Z" fill="#3D2E10"/>
<path d="M130 250H120V260H130V250Z" fill="#AD832D"/>
<path d="M130 260H120V270H130V260Z" fill="#3D2E10"/>
<path d="M140 250H130V260H140V250Z" fill="#FFFBA4"/>
<path d="M150 260H140V270H150V260Z" fill="#D2B863"/>
<path d="M150 250H140V260H150V250Z" fill="#AD832D"/>
<path d="M140 260H130V270H140V260Z" fill="#AD832D"/>
<path d="M160 270.06H150V280.06H160V270.06Z" fill="#D2B863"/>
<path d="M120 250H110V260H120V250Z" fill="#3D2E10"/>
<path d="M110 250H100V260H110V250Z" fill="#3D2E10"/>
<path d="M230 240H220V250H230V240Z" fill="#D2B863"/>
<path d="M240 240H230V250H240V240Z" fill="#FFFBA4"/>
<path d="M220 240H210V250H220V240Z" fill="#3D2E10"/>
<path d="M210 240H200V250H210V240Z" fill="#FFFBA4"/>
<path d="M200 240H190V250H200V240Z" fill="#D2B863"/>
<path d="M190 240H180V250H190V240Z" fill="#AD832D"/>
<path d="M180 240H170V250H180V240Z" fill="#3D2E10"/>
<path d="M170 240H160V250H170V240Z" fill="#3D2E10"/>
<path d="M160 240H150V250H160V240Z" fill="#FFFBA4"/>
<path d="M150 240H140V250H150V240Z" fill="#D2B863"/>
<path d="M140 240H130V250H140V240Z" fill="#3D2E10"/>
<path d="M130 240H120V250H130V240Z" fill="#FFFBA4"/>
<path d="M120 240H110V250H120V240Z" fill="#AD832D"/>
<path d="M110 240H100V250H110V240Z" fill="#3D2E10"/>
<path d="M100 240H90V250H100V240Z" fill="#FFFBA4"/>
<path d="M210 230H200V240H210V230Z" fill="#3D2E10"/>
<path d="M220 230H210V240H220V230Z" fill="#D2B863"/>
<path d="M230 230H220V240H230V230Z" fill="#FFFBA4"/>
<path d="M200 230H190V240H200V230Z" fill="#FFFBA4"/>
<path d="M190 230H180V240H190V230Z" fill="#030E27"/>
<path d="M180 230H170V240H180V230Z" fill="#030E27"/>
<path d="M170 230H160V240H170V230Z" fill="#030E27"/>
<path d="M160 230H150V240H160V230Z" fill="#030E27"/>
<path d="M150 230H140V240H150V230Z" fill="#AD832D"/>
<path d="M140 230H130V240H140V230Z" fill="#D2B863"/>
<path d="M130 230H120V240H130V230Z" fill="#3D2E10"/>
<path d="M120 230H110V240H120V230Z" fill="#FFFBA4"/>
<path d="M110 230H100V240H110V230Z" fill="#AD832D"/>
<path d="M100 230H90V240H100V230Z" fill="#3D2E10"/>
<path d="M200 220H190V230H200V220Z" fill="#3D2E10"/>
<path d="M210 220H200V230H210V220Z" fill="#D2B863"/>
<path d="M190 220H180V230H190V220Z" fill="#030E27"/>
<path d="M180 220H170V230H180V220Z" fill="#030E27"/>
<path d="M170 220H160V230H170V220Z" fill="#FFFBA4"/>
<path d="M160 220H150V230H160V220Z" fill="#030E27"/>
<path d="M150 220H140V230H150V220Z" fill="#030E27"/>
<path d="M140 220H130V230H140V220Z" fill="#FFFBA4"/>
<path d="M130 220H120V230H130V220Z" fill="#D2B863"/>
<path d="M120 220H110V230H120V220Z" fill="#3D2E10"/>
<path d="M110 220H100V230H110V220Z" fill="#D2B863"/>
<path d="M180 210H170V220H180V210Z" fill="#030E27"/>
<path d="M190 210H180V220H190V210Z" fill="#D2B863"/>
<path d="M170 210H160V220H170V210Z" fill="#030E27"/>
<path d="M160 210H150V220H160V210Z" fill="#FFFBA4"/>
<path d="M150 210H140V220H150V210Z" fill="#030E27"/>
<path d="M140 210H130V220H140V210Z" fill="#D2B863"/>
<path d="M130 210H120V220H130V210Z" fill="#3D2E10"/>
<path d="M120 210H110V220H120V210Z" fill="#D2B863"/>
<path d="M110 210H100V220H110V210Z" fill="#3D2E10"/>
<path d="M100 210H90V220H100V210Z" fill="#D2B863"/>
<path d="M100 220H90V230H100V220Z" fill="#AD832D"/>
<path d="M90 220H80V230H90V220Z" fill="#3D2E10"/>
<path d="M90 230H80V240H90V230Z" fill="#3D2E10"/>
<path d="M90 240H80V250H90V240Z" fill="#3D2E10"/>
<path d="M90 250H80V260H90V250Z" fill="#3D2E10"/>
<path d="M100 250H90V260H100V250Z" fill="#3D2E10"/>
<path d="M100 260H90V270H100V260Z" fill="#3D2E10"/>
<path d="M110 260H100V270H110V260Z" fill="#3D2E10"/>
<path d="M120 260H110V270H120V260Z" fill="#3D2E10"/>
<path d="M90 200H80V210H90V200Z" fill="#AD832D"/>
<path d="M170 200H160V210H170V200Z" fill="#030E27"/>
<path d="M160 200H150V210H160V200Z" fill="#030E27"/>
<path d="M150 200H140V210H150V200Z" fill="#030E27"/>
<path d="M140 200H130V210H140V200Z" fill="#030E27"/>
<path d="M130 200H120V210H130V200Z" fill="#D2B863"/>
<path d="M120 200H110V210H120V200Z" fill="#3D2E10"/>
<path d="M110 200H100V210H110V200Z" fill="#D2B863"/>
<path d="M100 200H90V210H100V200Z" fill="#3D2E10"/>
<path d="M160 190H150V200H160V190Z" fill="#030E27"/>
<path d="M180 200H170V210H180V200Z" fill="#AD832D"/>
<path d="M190 200H180V210H190V200Z" fill="#AD832D"/>
<path d="M170 190H160V200H170V190Z" fill="#AD832D"/>
<path d="M180 190H170V200H180V190Z" fill="#AD832D"/>
<path d="M160 180H150V190H160V180Z" fill="#D2B863"/>
<path d="M149.8 190H139.8V200H149.8V190Z" fill="#030E27"/>
<path d="M140 190H130V200H140V190Z" fill="#D2B863"/>
<path d="M150 190H140V200H150V190Z" fill="#FFFBA4"/>
<path d="M130 190H120V200H130V190Z" fill="#3D2E10"/>
<path d="M130 180H120V190H130V180Z" fill="#D2B863"/>
<path d="M140 180H130V190H140V180Z" fill="#FFFBA4"/>
<path d="M120 190H110V200H120V190Z" fill="#AD832D"/>
<path d="M110 180H100V190H110V180Z" fill="#AD832D"/>
<path d="M100 190H90V200H100V190Z" fill="#D2B863"/>
<path d="M110 190H100V200H110V190Z" fill="#3D2E10"/>
<path d="M100 180H90V190H100V180Z" fill="#3D2E10"/>
<path d="M100 170H90V180H100V170Z" fill="#AD832D"/>
<path d="M90 170H80V180H90V170Z" fill="#3D2E10"/>
<path d="M84 140L74 140L74 150L84 150L84 140Z" fill="#FFFBA4"/>
<path d="M74 130L64 130L64 140L74 140L74 130Z" fill="#FFFBA4"/>
<path d="M160 90L150 90L150 100L160 100L160 90Z" fill="#FFFBA4"/>
<path d="M50 220L40 220L40 230L50 230L50 220Z" fill="#FFFBA4"/>
<path d="M50 260L40 260L40 270L50 270L50 260Z" fill="#FFFBA4"/>
<path d="M30 240L20 240L20 250L30 250L30 240Z" fill="#FFFBA4"/>
<path d="M150 80L140 80L140 90L150 90L150 80Z" fill="#FFFBA4"/>
<path d="M40 210L30 210L30 220L40 220L40 210Z" fill="#FFFBA4"/>
<path d="M64 120L54 120L54 130L64 130L64 120Z" fill="#FFFBA4"/>
<path d="M190 290L180 290L180 300L190 300L190 290Z" fill="#FFFBA4"/>
<path d="M120 290L110 290L110 300L120 300L120 290Z" fill="#FFFBA4"/>
<path d="M44 100L34 100L34 110L44 110L44 100Z" fill="#FFFBA4"/>
<path d="M150 40L140 40L140 50L150 50L150 40Z" fill="#FFFBA4"/>
<path d="M60 230L50 230L50 240L60 240L60 230Z" fill="#FFFBA4"/>
<path d="M170 100L160 100L160 110L170 110L170 100Z" fill="#FFFBA4"/>
<path d="M60 270L50 270L50 280L60 280L60 270Z" fill="#FFFBA4"/>
<path d="M250 50L240 50L240 60L250 60L250 50Z" fill="#FFFBA4"/>
<path d="M10 140L0 140L-1.74846e-06 150L10 150L10 140Z" fill="#FFFBA4"/>
<path d="M160 50L150 50L150 60L160 60L160 50Z" fill="#FFFBA4"/>
<path d="M210 60L200 60L200 70L210 70L210 60Z" fill="#FFFBA4"/>
<path d="M390 170L380 170L380 180L390 180L390 170Z" fill="#FFFBA4"/>
<path d="M220 70L210 70L210 80L220 80L220 70Z" fill="#FFFBA4"/>
<path d="M180 150L170 150L170 160L180 160L180 150Z" fill="#FFFBA4"/>
<path d="M94 130L84 130L84 140L94 140L94 130Z" fill="#FFFBA4"/>
<path d="M320 240L310 240L310 250L320 250L320 240Z" fill="#FFFBA4"/>
<path d="M190 160L180 160L180 170L190 170L190 160Z" fill="#FFFBA4"/>
<path d="M104 140L94 140L94 150L104 150L104 140Z" fill="#FFFBA4"/>
<path d="M200 170L190 170L190 180L200 180L200 170Z" fill="#FFFBA4"/>
<path d="M114 150L104 150L104 160L114 160L114 150Z" fill="#FFFBA4"/>
<path d="M270 70L260 70L260 80L270 80L270 70Z" fill="#FFFBA4"/>
<path d="M30 160L20 160L20 170L30 170L30 160Z" fill="#FFFBA4"/>
<path d="M280 80L270 80L270 90L280 90L280 80Z" fill="#FFFBA4"/>
<path d="M40 170L30 170L30 180L40 180L40 170Z" fill="#FFFBA4"/>
<path d="M290 90L280 90L280 100L290 100L290 90Z" fill="#FFFBA4"/>
<path d="M50 180L40 180L40 190L50 190L50 180Z" fill="#FFFBA4"/>
<path d="M250 210L240 210L240 220L250 220L250 210Z" fill="#FFFBA4"/>
<path d="M260 220L250 220L250 230L260 230L260 220Z" fill="#FFFBA4"/>
<path d="M350 120L340 120L340 130L350 130L350 120Z" fill="#FFFBA4"/>
</svg>
