<svg width="240" height="210" viewBox="0 0 240 210" fill="none" xmlns="http://www.w3.org/2000/svg" style="shape-rendering: crispEdges;">
<path d="M45 20H35V30H45V20Z" fill="#3D2E10"/>
<path d="M35 20H25V30H35V20Z" fill="#3D2E10"/>
<path d="M55 20H45V30H55V20Z" fill="#3D2E10"/>
<path d="M55 30H45V40H55V30Z" fill="#3D2E10"/>
<path d="M65 30H55V40H65V30Z" fill="#3D2E10"/>
<path d="M75 30H65V40H75V30Z" fill="#3D2E10"/>
<path d="M85 30H75V40H85V30Z" fill="#3D2E10"/>
<path d="M85 40H75V50H85V40Z" fill="#3D2E10"/>
<path d="M95 40H85V50H95V40Z" fill="#3D2E10"/>
<path d="M105 40H95V50H105V40Z" fill="#AD832D"/>
<path d="M95 50H85V60H95V50Z" fill="#3D2E10"/>
<path d="M105 50H95V60H105V50Z" fill="#3D2E10"/>
<path d="M115 50H105V60H115V50Z" fill="#D2B863"/>
<path d="M125 50H115V60H125V50Z" fill="#3D2E10"/>
<path d="M55 80H45V90H55V80Z" fill="#3D2E10"/>
<path d="M105 60H95V70H105V60Z" fill="#3D2E10"/>
<path d="M115 60H105V70H115V60Z" fill="#3D2E10"/>
<path d="M125 60H115V70H125V60Z" fill="#AD832D"/>
<path d="M135 60H125V70H135V60Z" fill="#D2B863"/>
<path d="M65 90H55V100H65V90Z" fill="#3D2E10"/>
<path d="M115 70H105V80H115V70Z" fill="#3D2E10"/>
<path d="M125 70H115V80H125V70Z" fill="#3D2E10"/>
<path d="M135 70H125V80H135V70Z" fill="#AD832D"/>
<path d="M145 70H135V80H145V70Z" fill="#D2B863"/>
<path d="M145 60H135V70H145V60Z" fill="#FFFBA4"/>
<path d="M155 70H145V80H155V70Z" fill="#FFFBA4"/>
<path d="M55 100H45V110H55V100Z" fill="#D2B863"/>
<path d="M65 100H55V110H65V100Z" fill="#AD832D"/>
<path d="M115 80H105V90H115V80Z" fill="#3D2E10"/>
<path d="M125 80H115V90H125V80Z" fill="#3D2E10"/>
<path d="M135 80H125V90H135V80Z" fill="#3D2E10"/>
<path d="M145 80H135V90H145V80Z" fill="#D2B863"/>
<path d="M155 80H145V90H155V80Z" fill="#D2B863"/>
<path d="M55 110H45V120H55V110Z" fill="#AD832D"/>
<path d="M65 110H55V120H65V110Z" fill="#D2B863"/>
<path d="M75 110H65V120H75V110Z" fill="#AD832D"/>
<path d="M115 90H105V100H115V90Z" fill="#3D2E10"/>
<path d="M125 90H115V100H125V90Z" fill="#3D2E10"/>
<path d="M135 90H125V100H135V90Z" fill="#AD832D"/>
<path d="M145 90H135V100H145V90Z" fill="#3D2E10"/>
<path d="M155 90H145V100H155V90Z" fill="#D2B863"/>
<path d="M165 90H155V100H165V90Z" fill="#FFFBA4"/>
<path d="M45 120H35V130H45V120Z" fill="#3D2E10"/>
<path d="M55 120H45V130H55V120Z" fill="#D2B863"/>
<path d="M65 120H55V130H65V120Z" fill="#AD832D"/>
<path d="M75 120H65V130H75V120Z" fill="#D2B863"/>
<path d="M115 100H105V110H115V100Z" fill="#3D2E10"/>
<path d="M125 100H115V110H125V100Z" fill="#3D2E10"/>
<path d="M135 100H125V110H135V100Z" fill="#3D2E10"/>
<path d="M145 100H135V110H145V100Z" fill="#D2B863"/>
<path d="M155 100H145V110H155V100Z" fill="#3D2E10"/>
<path d="M165 100H155V110H165V100Z" fill="#D2B863"/>
<path d="M45 130H35V140H45V130Z" fill="#3D2E10"/>
<path d="M35 130H25V140H35V130Z" fill="#3D2E10"/>
<path d="M55 130H45V140H55V130Z" fill="#AD832D"/>
<path d="M65 130H55V140H65V130Z" fill="#D2B863"/>
<path d="M125 110H115V120H125V110Z" fill="#3D2E10"/>
<path d="M135 110H125V120H135V110Z" fill="#AD832D"/>
<path d="M145 110H135V120H145V110Z" fill="#3D2E10"/>
<path d="M155 110H145V120H155V110Z" fill="#AD832D"/>
<path d="M165 110H155V120H165V110Z" fill="#D2B863"/>
<path d="M175 110H165V120H175V110Z" fill="#FFFBA4"/>
<path d="M35 140H25V150H35V140Z" fill="#3D2E10"/>
<path d="M45 140H35V150H45V140Z" fill="#AD832D"/>
<path d="M55 140H45V150H55V140Z" fill="#3D2E10"/>
<path d="M65 140H55V150H65V140Z" fill="#AD832D"/>
<path d="M125 120H115V130H125V120Z" fill="#3D2E10"/>
<path d="M135 120H125V130H135V120Z" fill="#AD832D"/>
<path d="M145 120H135V130H145V120Z" fill="#D2B863"/>
<path d="M155 120H145V130H155V120Z" fill="#3D2E10"/>
<path d="M165 120H155V130H165V120Z" fill="#AD832D"/>
<path d="M175 120H165V130H175V120Z" fill="#D2B863"/>
<path d="M35 150H25V160H35V150Z" fill="#3D2E10"/>
<path d="M45 150H35V160H45V150Z" fill="#3D2E10"/>
<path d="M55 150H45V160H55V150Z" fill="#D2B863"/>
<path d="M125 130H115V140H125V130Z" fill="#3D2E10"/>
<path d="M135 130H125V140H135V130Z" fill="#3D2E10"/>
<path d="M145 130H135V140H145V130Z" fill="#AD832D"/>
<path d="M155 130H145V140H155V130Z" fill="#D2B863"/>
<path d="M165 130H155V140H165V130Z" fill="#3D2E10"/>
<path d="M175 130H165V140H175V130Z" fill="#D2B863"/>
<path d="M185 130H175V140H185V130Z" fill="#FFFBA4"/>
<path d="M45 160H35V170H45V160Z" fill="#3D2E10"/>
<path d="M55 160H45V170H55V160Z" fill="#3D2E10"/>
<path d="M65 160H55V170H65V160Z" fill="#AD832D"/>
<path d="M135 140H125V150H135V140Z" fill="#3D2E10"/>
<path d="M145 140H135V150H145V140Z" fill="#3D2E10"/>
<path d="M155 140H145V150H155V140Z" fill="#AD832D"/>
<path d="M165 140H155V150H165V140Z" fill="#D2B863"/>
<path d="M175 140H165V150H175V140Z" fill="#3D2E10"/>
<path d="M185 140H175V150H185V140Z" fill="#D2B863"/>
<path d="M55 170H45V180H55V170Z" fill="#3D2E10"/>
<path d="M65 170H55V180H65V170Z" fill="#3D2E10"/>
<path d="M145 150H135V160H145V150Z" fill="#3D2E10"/>
<path d="M155 150H145V160H155V150Z" fill="#3D2E10"/>
<path d="M165 150H155V160H165V150Z" fill="#3D2E10"/>
<path d="M175 150H165V160H175V150Z" fill="#AD832D"/>
<path d="M185 150H175V160H185V150Z" fill="#AD832D"/>
<path d="M195 150H185V160H195V150Z" fill="#FFFBA4"/>
<path d="M75 180H65V190H75V180Z" fill="#3D2E10"/>
<path d="M175 160H165V170H175V160Z" fill="#3D2E10"/>
<path d="M185 160H175V170H185V160Z" fill="#3D2E10"/>
<path d="M195 160H185V170H195V160Z" fill="#AD832D"/>
<path d="M205 160H195V170H205V160Z" fill="#D2B863"/>
<path d="M215 170H205V180H215V170Z" fill="#D2B863"/>
</svg>
