<svg width="1786" height="864" viewBox="0 0 1786 864" fill="none" xmlns="http://www.w3.org/2000/svg">
<path d="M633.918 748.857H576.348V748.858H691.49V806.429H749.06V748.858H806.63V806.429H864.202V748.858H921.772V806.429H979.342V863.999H518.777V806.429H288.494V748.858H173.352V691.288H461.207V748.858H518.777V691.288H576.348V691.287H633.918V748.857ZM1036.91 806.429H1094.48V863.999H979.343V748.858H1036.91V806.429ZM1152.07 863.999H1094.5V748.858H1152.07V863.999ZM1209.64 691.288H1267.21V748.858H1324.78V806.429H1267.21V863.999H1152.07V748.858H1209.64V748.857H1152.07V691.287H1209.64V691.288ZM1439.92 806.429H1324.78V691.288H1439.92V806.429ZM1497.49 806.429H1439.92V691.288H1497.49V806.429ZM1612.63 748.858H1497.49V691.288H1612.63V748.858ZM749.06 748.857H691.489V633.717H749.06V748.857ZM921.772 748.857H864.202V633.717H921.772V748.857ZM1094.48 748.857H1036.91V633.717H1094.48V748.857ZM173.353 633.717H230.923V576.146H288.495V633.717H346.065V691.287H288.494V633.717H230.923V691.287H115.782V633.717H58.2114V576.146H173.353V633.717ZM518.777 691.287H461.207V633.717H518.777V691.287ZM1324.78 691.287H1267.21V633.717H1324.78V691.287ZM1497.49 691.287H1439.92V633.717H1497.49V691.287ZM1670.2 691.287H1555.06V633.717H1612.63V576.146H1670.2V691.287ZM461.207 633.717H403.635V576.146H461.207V633.717ZM1382.35 633.717H1324.78V576.146H1382.35V633.717ZM1555.06 633.717H1497.49V576.146H1555.06V633.717ZM1727.78 633.717H1670.21V576.146H1727.78V633.717ZM691.49 633.716H633.918V461.005H691.49V633.716ZM921.772 633.716H864.202V461.005H921.772V633.716ZM1151.21 403.435H1152.07L1152.07 461.005H1151.21V633.716H1093.64V461.005H1036.93V403.435H1093.64V345.864H1151.21V403.435ZM230.923 403.434L230.922 461.004H58.2241V461.005H58.2251V576.146H0.653809V403.435H58.2114V403.434H0.653809V345.863H58.2251V403.434H173.352V288.293H230.923V403.434ZM230.923 576.146H173.352V461.005H230.923V576.146ZM461.207 576.146H403.635V518.575H461.207V576.146ZM1382.35 576.146H1324.78V518.575H1382.35V576.146ZM1727.77 461.005H1612.63V576.146H1555.06V403.435H1727.78L1727.77 461.005ZM1785.35 576.146H1727.78V403.435H1785.35V576.146ZM403.635 518.575H346.065V461.005H403.635V518.575ZM1439.92 461.005V518.575H1382.35V461.005H1324.78V403.435H1439.92L1439.92 461.005ZM1324.78 461.005H1152.07V403.435H1324.78L1324.78 461.005ZM1555.06 461.005H1439.92V403.435H1555.06L1555.06 461.005ZM346.064 461.004H230.923V403.434H346.065L346.064 461.004ZM403.635 403.434H461.207L461.206 461.004H346.065V345.863H403.635V403.434ZM633.917 461.004H461.207V403.434H633.918L633.917 461.004ZM749.059 461.004H633.918V403.434H749.06L749.059 461.004ZM864.201 461.004H749.06V403.434H864.202L864.201 461.004ZM921.772 403.434H1036.91L1036.91 461.004H864.202V288.293H921.772V403.434ZM1439.92 403.434H1382.35V345.863H1439.92V403.434ZM1612.63 403.434H1555.06V345.863H1612.63V403.434ZM1785.35 403.434H1727.78V345.863H1785.35V403.434ZM749.06 230.722H691.49V403.433H633.918V230.722H691.489V173.151H749.06V230.722ZM461.207 345.863H403.635V288.293H461.207V345.863ZM1151.21 345.863H1093.64V288.293H1151.21V345.863ZM173.353 288.292H58.2251V345.862H0.653809V288.292H58.2114V230.722H173.353V288.292ZM1382.35 345.862H1324.78V230.722H1382.35V345.862ZM1612.63 345.862H1555.06V288.292H1612.63V345.862ZM1785.35 345.862H1727.78V288.292H1785.35V345.862ZM288.495 288.292H230.923V230.722H288.495V288.292ZM461.207 288.292H403.635V230.722H461.207V288.292ZM921.772 288.292H864.202V230.722H921.772V288.292ZM1094.48 230.722H1151.21V288.292H1093.64V230.722H1036.91V173.151H1094.48V230.722ZM1555.06 288.292H1497.49V230.722H1555.06V288.292ZM1670.2 288.292H1612.63V230.722H1670.2V288.292ZM1727.78 288.292H1670.21V230.722H1727.78V288.292ZM461.207 173.15H346.065V230.721H288.494V173.15H230.923V230.721H115.782V173.15H173.352V115.58H461.207V173.15ZM518.777 230.721H461.207V173.15H518.777V230.721ZM921.772 230.721H864.202V115.58H921.772V230.721ZM1324.78 230.721H1267.21V173.15H1324.78V230.721ZM1497.49 230.721H1439.92V115.58H1497.49V230.721ZM1612.63 173.15H1670.2V230.721H1555.06V173.15H1497.49V115.58H1612.63V173.15ZM633.918 173.15H518.777V115.58H633.918V173.15ZM749.06 173.15H691.489V115.58H749.06V173.15ZM1094.48 173.15H1036.91V115.58H1094.48V173.15ZM1267.21 115.58V173.15H1152.07V115.58H1267.21ZM1439.92 173.15H1324.78V115.58H1439.92V173.15ZM806.63 115.58H749.06V58.0098H806.63V115.58ZM1036.91 115.58H979.343V58.0098H1036.91V115.58ZM979.342 58.0088H921.772V115.579H864.202V58.0088H691.49V115.579H288.494V58.0088H518.777V0.438477H979.342V58.0088ZM1152.07 115.579H1094.5V0.438477H1152.07V115.579ZM1267.21 115.579H1152.07V0.438477H1267.21V115.579ZM1439.92 115.579H1267.21V58.0088H1439.92V115.579ZM1497.49 115.579H1439.92V58.0088H1497.49V115.579ZM1094.48 58.0088H979.343V0.438477H1094.48V58.0088Z" fill="url(#paint0_linear_2_1299)" fill-opacity="0.15"/>
<defs>
<linearGradient id="paint0_linear_2_1299" x1="893.001" y1="-152.672" x2="893.001" y2="1019.94" gradientUnits="userSpaceOnUse">
<stop stop-color="#1C1C3F" stop-opacity="0"/>
<stop offset="1" stop-color="#5A5AB5"/>
</linearGradient>
</defs>
</svg>
