<svg width="1787" height="865" viewBox="0 0 1787 865" fill="none" xmlns="http://www.w3.org/2000/svg">
<path d="M173.599 633.999H231.169V576.428H288.741V633.999H346.311V691.569H461.453V749.14H519.023V691.569H634.165V749.139H576.594V749.14H691.736V806.71H749.306V749.14H806.876V806.71H864.448V749.14H922.018V806.71H979.588V864.281H749.306V864.282H519.023V806.71H288.74V749.14H173.598V691.569H116.028V633.999H58.4575V576.428H173.599V633.999ZM1037.16 806.71H1094.73V864.282H1037.16V864.281H979.589V749.14H1037.16V806.71ZM1152.31 864.282H1094.74V749.14H1152.31V864.282ZM1267.46 749.14H1325.03V691.569H1440.17V806.71H1267.46V864.282H1152.31V749.14H1209.89V749.139H1152.31V691.569H1267.46V749.14ZM1670.45 691.569H1612.88V749.14H1497.74V806.71H1440.17V633.999H1497.74V691.569H1555.31V633.999H1612.88V576.428H1670.45V691.569ZM749.306 749.139H691.735V633.999H749.306V749.139ZM922.018 749.139H864.448V633.999H922.018V749.139ZM1094.73 749.139H1037.16V633.999H1094.73V749.139ZM231.169 691.569H288.74V633.999H231.169V691.569ZM519.023 691.569H461.453V633.999H519.023V691.569ZM1325.03 691.569H1267.46V633.999H1325.03V691.569ZM461.453 633.999H403.881V576.428H461.453V633.999ZM1382.6 633.999H1325.03V576.428H1382.6V633.999ZM1555.31 633.999H1497.74V576.428H1555.31V633.999ZM1728.02 633.999H1670.45V576.428H1728.02V633.999ZM691.736 633.998H634.165V461.287H691.736V633.998ZM922.018 633.998H864.448V461.287H922.018V633.998ZM1094.73 231.003H1151.46V403.715H1152.31L1152.31 461.287H1151.46V633.998H1093.89V461.287H1037.17V403.715H1093.89V231.003H1037.16V173.433H1094.73V231.003ZM173.599 288.574H231.169V403.715L231.168 461.286H231.169V576.427H173.598V461.286H58.4712V576.427H0.899902V346.145H58.4712V403.715H173.598V288.574H58.4712V346.144H0.899902V288.574H58.4575V231.003H173.599V288.574ZM461.453 576.427H403.881V518.857H461.453V576.427ZM1382.6 576.427H1325.03V518.857H1382.6V576.427ZM1612.88 403.715H1728.02L1728.02 461.287H1612.88V576.427H1555.31V346.145H1612.88V403.715ZM1785.59 576.427H1728.02V346.145H1785.59V576.427ZM403.881 403.715H461.453L461.452 461.286H403.881V518.857H346.311V346.145H403.881V403.715ZM1440.17 403.715H1440.17L1440.17 461.287V518.857H1382.6V461.287H1325.03V403.715H1382.6V346.145H1440.17V403.715ZM1325.03 461.287H1152.31V403.715H1325.03L1325.03 461.287ZM1555.31 461.287H1440.17V403.715H1555.31L1555.31 461.287ZM346.31 461.286H231.169V403.715H346.311L346.31 461.286ZM634.164 461.286H461.453V403.715H634.165L634.164 461.286ZM691.736 403.715H749.306L749.305 461.286H634.165V346.145H691.736V403.715ZM864.447 461.286H749.306V403.715H864.448L864.447 461.286ZM922.018 403.715H1037.16V461.286H864.448V231.003H922.018V403.715ZM461.453 346.145H403.881V231.003H461.453V346.145ZM749.306 231.003H691.736V346.144H634.165V231.003H691.735V173.433H749.306V231.003ZM1382.6 346.144H1325.03V231.003H1382.6V346.144ZM1612.88 346.144H1555.31V288.574H1612.88V346.144ZM1785.59 346.144H1728.02V288.574H1785.59V346.144ZM288.741 288.574H231.169V231.003H288.741V288.574ZM1555.31 288.574H1497.74V231.003H1555.31V288.574ZM1670.45 288.574H1612.88V231.003H1670.45V288.574ZM1728.02 288.574H1670.45V231.003H1728.02V288.574ZM691.736 115.862H749.306V173.432H691.735V115.862H634.165V173.432H519.023V115.862H461.453V173.432H346.311V231.002H288.74V173.432H231.169V231.002H116.028V173.432H173.598V115.862H288.74V58.2915H691.736V115.862ZM519.023 231.002H461.453V173.432H519.023V231.002ZM922.018 231.002H864.448V58.2915H922.018V231.002ZM1325.03 231.002H1267.46V173.432H1325.03V231.002ZM1497.74 231.002H1440.17V58.2915H1497.74V231.002ZM1612.88 173.432H1670.45V231.002H1555.31V173.432H1497.74V115.862H1612.88V173.432ZM1094.73 173.432H1037.16V115.862H1094.73V173.432ZM1440.17 173.432H1325.03V115.862H1267.46V173.432H1152.31V58.2915H1440.17V173.432ZM979.588 58.2915H922.018V58.2905H864.448V58.2915H806.876V115.862H749.306V58.2905H519.023V0.720215H979.588V58.2915ZM1094.73 58.2905H1037.16V115.862H979.589V0.720215H1094.73V58.2905ZM1152.31 115.862H1094.74V58.2915H1152.31V115.862ZM1152.31 58.2905H1094.74V0.720215H1152.31V58.2905ZM1267.46 58.2905H1152.31V0.720215H1267.46V58.2905Z" fill="url(#paint0_linear_2_2398)" fill-opacity="0.2"/>
<defs>
<linearGradient id="paint0_linear_2_2398" x1="893.246" y1="0.720215" x2="893.246" y2="776.532" gradientUnits="userSpaceOnUse">
<stop stop-color="#5A5AB5"/>
<stop offset="1" stop-color="#1C1C3F" stop-opacity="0"/>
</linearGradient>
</defs>
</svg>
