<svg width="1440" height="1486" viewBox="0 0 1440 1486" fill="none" xmlns="http://www.w3.org/2000/svg">
<mask id="mask0_2575_49008" style="mask-type:alpha" maskUnits="userSpaceOnUse" x="0" y="0" width="1440" height="1483">
<rect width="1440" height="1483" fill="url(#paint0_linear_2575_49008)"/>
</mask>
<g mask="url(#mask0_2575_49008)">
<path d="M969.005 132.982H941.005V104.982H969.005V132.982Z" fill="#14596B"/>
<path d="M1277 692.989L1305 692.989L1305 720.989L1277 720.989L1277 692.989Z" fill="#14596B"/>
<path d="M913.003 160.976H885.003V132.976H913.003V160.976Z" fill="#14596B"/>
<path d="M1333 664.996L1361 664.996L1361 692.996L1333 692.996L1333 664.996Z" fill="#14596B"/>
<path d="M856.999 188.997H828.999V160.997H856.999V188.997Z" fill="#14596B"/>
<path d="M1389 636.99L1417 636.99L1417 664.99L1389 664.99L1389 636.99Z" fill="#14596B"/>
<path d="M1025 105.012H997V77.0117H1025V105.012Z" fill="#14596B"/>
<path d="M1221 720.991L1249 720.991L1249 748.991L1221 748.991L1221 720.991Z" fill="#14596B"/>
<path d="M1081 76.9966H1053V48.9966H1081V76.9966Z" fill="#14596B"/>
<path d="M1165 748.998L1193 748.998L1193 776.998L1165 776.998L1165 748.998Z" fill="#14596B"/>
<path d="M1136.99 76.9966H1108.99V48.9966H1136.99V76.9966Z" fill="#14596B"/>
<path d="M1109 748.998L1137 748.998L1137 776.998L1109 776.998L1109 748.998Z" fill="#14596B"/>
<path d="M1193 76.9966H1165V48.9966H1193V76.9966Z" fill="#14596B"/>
<path d="M1053 748.998L1081 748.998L1081 776.998L1053 776.998L1053 748.998Z" fill="#14596B"/>
<path d="M1249 105.012H1221V77.0117H1249V105.012Z" fill="#14596B"/>
<path d="M997 720.995L1025 720.995L1025 748.995L997 748.995L997 720.995Z" fill="#14596B"/>
<path d="M1305.01 132.982H1277.01V104.982H1305.01V132.982Z" fill="#14596B"/>
<path d="M940.998 692.989L968.998 692.989L968.998 720.989L940.998 720.989L940.998 692.989Z" fill="#14596B"/>
<path d="M1361 160.976H1333V132.976H1361V160.976Z" fill="#14596B"/>
<path d="M885 664.996L913 664.996L913 692.996L885 692.996L885 664.996Z" fill="#14596B"/>
<path d="M1417 188.997H1389V160.997H1417V188.997Z" fill="#14596B"/>
<path d="M829.005 636.988L857.005 636.988L857.005 664.988L829.005 664.988L829.005 636.988Z" fill="#14596B"/>
<path d="M773 580.993L801 580.993L801 608.993L773 608.993L773 580.993Z" fill="#14596B"/>
<path d="M800.998 245H772.998V217.001H800.998V245Z" fill="#14596B"/>
<path d="M800.999 300.98H772.999V272.98H800.999V300.98Z" fill="#14596B"/>
<path d="M772.991 356.985H744.991V328.985H772.991V356.985Z" fill="#14596B"/>
<path d="M772.989 497.003H744.989V469.003H772.989V497.003Z" fill="#14596B"/>
<path d="M800.999 552.991H772.999V524.991H800.999V552.991Z" fill="#14596B"/>
<path d="M744.998 412.993H716.998V384.993H744.998V412.993Z" fill="#14596B"/>
<path d="M744.998 440.977H716.998V412.977H744.998V440.977Z" fill="#14596B"/>
<path d="M1417 692.989H1389V664.989H1417V692.989Z" fill="#0C3640"/>
<path d="M1361 720.991H1333V692.991H1361V720.991Z" fill="#0C3640"/>
<path d="M1305.01 748.998H1277.01V720.998H1305.01V748.998Z" fill="#0C3640"/>
<path d="M1249 776.987H1221V748.987H1249V776.987Z" fill="#0C3640"/>
<path d="M1193 804.998H1165V776.998H1193V804.998Z" fill="#0C3640"/>
<path d="M1137 804.994H1109V776.994H1137V804.994Z" fill="#0C3640"/>
<path d="M1081 804.998H1053V776.998H1081V804.998Z" fill="#0C3640"/>
<path d="M1025 776.987H997V748.987H1025V776.987Z" fill="#0C3640"/>
<path d="M969.006 748.998H941.006V720.998H969.006V748.998Z" fill="#0C3640"/>
<path d="M913.002 720.991H885.002V692.991H913.002V720.991Z" fill="#0C3640"/>
<path d="M857 692.985H829V664.985H857V692.985Z" fill="#0C3640"/>
<path d="M800.998 636.988H772.998V608.988H800.998V636.988Z" fill="#0C3640"/>
<path d="M772.997 552.991H744.997V524.991H772.997V552.991Z" fill="#0C3640"/>
<path d="M744.999 497.003H716.999V469.003H744.999V497.003Z" fill="#0C3640"/>
<path d="M745 356.985H717V328.985H745V356.985Z" fill="#0C3640"/>
<path d="M772.989 300.98H744.989V272.98H772.989V300.98Z" fill="#0C3640"/>
<path d="M800.996 216.976H772.996V188.976H800.996V216.976Z" fill="#0C3640"/>
<path d="M856.999 160.976H828.999V132.976H856.999V160.976Z" fill="#0C3640"/>
<path d="M913.003 132.982H885.003V104.982H913.003V132.982Z" fill="#0C3640"/>
<path d="M969.006 105.012H941.006V77.0117H969.006V105.012Z" fill="#0C3640"/>
<path d="M1193 48.9985H1165V20.9986L1193 20.9986V48.9985Z" fill="#0C3640"/>
<path d="M1249 76.9966H1221V48.9966H1249V76.9966Z" fill="#0C3640"/>
<path d="M1305.01 105.012H1277.01V77.0117H1305.01V105.012Z" fill="#0C3640"/>
<path d="M1361 132.982H1333V104.982H1361V132.982Z" fill="#0C3640"/>
<path d="M1416.99 160.976H1388.99V132.976H1416.99V160.976Z" fill="#0C3640"/>
<path d="M1136.99 48.9985H1108.99V20.9986L1136.99 20.9986V48.9985Z" fill="#0C3640"/>
<path d="M1081 48.9985H1053V20.9986L1081 20.9986V48.9985Z" fill="#0C3640"/>
<path d="M1025 76.9966H997V48.9966H1025V76.9966Z" fill="#0C3640"/>
<path d="M717.001 608.99H689.001V580.99H717.001V608.99Z" fill="#14596B"/>
<path d="M632.995 692.989H604.995V664.989H632.995V692.989Z" fill="#14596B"/>
<path d="M577.003 776.987H549.003V748.987H577.003V776.987Z" fill="#0C3640"/>
<path d="M688.992 748.998H660.992V720.998H688.992V748.998Z" fill="#0C3640"/>
<path d="M632.996 833.003H604.996V805.003H632.996V833.003Z" fill="#14596B"/>
<path d="M548.996 916.985H520.996V888.985H548.996V916.985Z" fill="#14596B"/>
<path d="M521.001 944.995H493.001V916.995H521.001V944.995Z" fill="#0C3640"/>
<path d="M717.003 692.985H689.003V664.985H717.003V692.985Z" fill="#0C3640"/>
<path d="M801 776.985H773V748.985H801V776.985Z" fill="#14596B"/>
<path d="M941 832.994H913V804.994H941V832.994Z" fill="#14596B"/>
<path d="M913.003 888.999H885.003V860.999H913.003V888.999Z" fill="#0C3640"/>
<path d="M996.999 916.989H968.999V888.989H996.999V916.989Z" fill="#0C3640"/>
<path d="M1053 944.993H1025V916.993H1053V944.993Z" fill="#14596B"/>
<path d="M1109 972.988H1081V944.988H1109V972.988Z" fill="#0C3640"/>
<path d="M1109 972.988H1081V944.988H1109V972.988Z" fill="#0C3640"/>
<path d="M744.999 832.994H716.999V804.994H744.999V832.994Z" fill="#14596B"/>
<path d="M772.989 916.991H744.989V888.991H772.989V916.991Z" fill="#0C3640"/>
<path d="M744.999 944.993H716.999V916.993H744.999V944.993Z" fill="#14596B"/>
<path d="M688.992 1000.99H660.992V972.99H688.992V1000.99Z" fill="#0C3640"/>
<path d="M717.002 328.98H689.002V300.98H717.002V328.98Z" fill="#0C3640"/>
<path d="M661.006 497.003H633.006V469.003H661.006V497.003Z" fill="#14596B"/>
<path d="M605 524.993H577V496.993H605V524.993Z" fill="#0C3640"/>
<path d="M688.991 468.98H660.991V440.98H688.991V468.98Z" fill="#0C3640"/>
<path d="M1305 832.994H1333V804.994H1305V832.994Z" fill="#14596B"/>
<path d="M1333 888.999H1361V860.999H1333V888.999Z" fill="#0C3640"/>
<path d="M1249 916.989H1277V888.989H1249V916.989Z" fill="#0C3640"/>
<path d="M1193 944.993H1221V916.993H1193V944.993Z" fill="#14596B"/>
<path d="M1137 972.988H1165V944.988H1137V972.988Z" fill="#0C3640"/>
<path d="M1137 972.988H1165V944.988H1137V972.988Z" fill="#0C3640"/>
<path d="M1305 -7.01221L1333 -7.01221L1333 20.9878L1305 20.9878L1305 -7.01221Z" fill="#14596B"/>
<path d="M717.002 216.978L689.002 216.978L689.002 244.978L717.002 244.978L717.002 216.978Z" fill="#14596B"/>
<path d="M632.995 132.982L604.995 132.982L604.995 160.982L632.995 160.982L632.995 132.982Z" fill="#14596B"/>
<path d="M577.002 48.9985L549.002 48.9985L549.002 76.9985L577.002 76.9985L577.002 48.9985Z" fill="#0C3640"/>
<path d="M688.991 76.9966L660.991 76.9966L660.991 104.997L688.991 104.997L688.991 76.9966Z" fill="#0C3640"/>
<path d="M632.994 -7.01025L604.994 -7.01025L604.994 20.9897L632.994 20.9897L632.994 -7.01025Z" fill="#14596B"/>
<path d="M717.001 132.982L689.001 132.982L689.001 160.982L717.001 160.982L717.001 132.982Z" fill="#0C3640"/>
<path d="M800.997 48.9985L772.997 48.9985L772.997 76.9985L800.997 76.9985L800.997 48.9985Z" fill="#14596B"/>
<path d="M940.997 -7.0122L912.997 -7.01221L912.997 20.9878L940.997 20.9878L940.997 -7.0122Z" fill="#14596B"/>
<path d="M745 -7.0122L717 -7.01221L717 20.9878L745 20.9878L745 -7.0122Z" fill="#14596B"/>
<path d="M717.003 497.003L689.003 497.003L689.003 525.003L717.003 525.003L717.003 497.003Z" fill="#0C3640"/>
<path d="M661.004 328.978L633.004 328.978L633.004 356.978L661.004 356.978L661.004 328.978Z" fill="#14596B"/>
<path d="M605 300.98L577 300.98L577 328.98L605 328.98L605 300.98Z" fill="#0C3640"/>
<path d="M688.99 356.985L660.99 356.985L660.99 384.985L688.99 384.985L688.99 356.985Z" fill="#0C3640"/>
<path d="M45.002 188.976L45.002 160.976L17.0019 160.976L17.0019 188.976L45.002 188.976Z" fill="#0C3640"/>
<path d="M100.998 160.982L100.998 132.982L72.9979 132.982L72.9979 160.982L100.998 160.982Z" fill="#14596B"/>
<path d="M296.998 160.982L296.998 132.982L268.998 132.982L268.998 160.982L296.998 160.982Z" fill="#0C3640"/>
<path d="M128.997 244.978L128.997 216.978L100.997 216.978L100.997 244.978L128.997 244.978Z" fill="#0C3640"/>
<path d="M325.005 244.978L325.005 216.978L297.005 216.978L297.005 244.978L325.005 244.978Z" fill="#14596B"/>
<path d="M156.993 300.998L156.993 272.998L128.993 272.998L128.993 300.998L156.993 300.998Z" fill="#14596B"/>
<path d="M352.996 301.002L352.996 273.002L324.996 273.002L324.996 301.002L352.996 301.002Z" fill="#0C3640"/>
<path d="M436.995 301.002L436.995 273.002L408.995 273.002L408.995 301.002L436.995 301.002Z" fill="#14596B"/>
<path d="M409.001 356.978L409.001 328.978L381.001 328.978L381.001 356.978L409.001 356.978Z" fill="#14596B"/>
<path d="M409 216.997L409 188.997L381 188.997L381 216.997L409 216.997Z" fill="#14596B"/>
<path d="M492.997 133.012L492.997 105.012L464.997 105.012L464.997 133.012L492.997 133.012Z" fill="#14596B"/>
<path d="M493.002 384.985L493.002 356.985L465.002 356.985L465.002 384.985L493.002 384.985Z" fill="#14596B"/>
<path d="M381.007 300.998L381.007 272.998L353.007 272.998L353.007 300.998L381.007 300.998Z" fill="#14596B"/>
<path d="M492.997 300.998L492.997 272.998L464.997 272.998L464.997 300.998L492.997 300.998Z" fill="#0C3640"/>
<path d="M520.996 272.999L520.996 244.999L492.996 244.999L492.996 272.999L520.996 272.999Z" fill="#14596B"/>
<path d="M185.004 356.978L185.004 328.978L157.004 328.978L157.004 356.978L185.004 356.978Z" fill="#0C3640"/>
<path d="M381.007 384.985L381.007 356.985L353.007 356.985L353.007 384.985L381.007 384.985Z" fill="#0C3640"/>
<path d="M185.004 356.978L185.004 328.978L157.004 328.978L157.004 356.978L185.004 356.978Z" fill="#0C3640"/>
<path d="M381.008 216.997L381.008 188.997L353.008 188.997L353.008 216.997L381.008 216.997Z" fill="#0C3640"/>
<path d="M464.999 160.982L464.999 132.982L436.999 132.982L436.999 160.982L464.999 160.982Z" fill="#0C3640"/>
<path d="M464.999 356.978L464.999 328.978L436.999 328.978L436.999 356.978L464.999 356.978Z" fill="#0C3640"/>
<path d="M325.005 356.978L325.005 328.978L297.005 328.978L297.005 356.978L325.005 356.978Z" fill="#0C3640"/>
<path d="M128.997 20.9878L128.997 -7.01221L100.997 -7.01221L100.997 20.9878L128.997 20.9878Z" fill="#0C3640"/>
<path d="M44.999 944.988L44.999 972.988L16.9989 972.988L16.9989 944.988L44.999 944.988Z" fill="#0C3640"/>
<path d="M128.994 1029L128.994 1057L100.994 1057L100.994 1029L128.994 1029Z" fill="#0C3640"/>
<path d="M156.997 1057L156.997 1085L128.997 1085L128.997 1057L156.997 1057Z" fill="#14596B"/>
<path d="M45.0039 636.996L45.0039 664.996L17.0038 664.996L17.0038 636.996L45.0039 636.996Z" fill="#0C3640"/>
<path d="M101.004 664.985L101.004 692.985L73.0038 692.985L73.0038 664.985L101.004 664.985Z" fill="#14596B"/>
<path d="M297 664.989L297 692.989L269 692.989L269 664.989L297 664.989Z" fill="#0C3640"/>
<path d="M128.998 580.99L128.998 608.99L100.998 608.99L100.998 580.99L128.998 580.99Z" fill="#0C3640"/>
<path d="M325.004 580.977L325.004 608.977L297.004 608.977L297.004 580.977L325.004 580.977Z" fill="#14596B"/>
<path d="M156.996 524.991L156.996 552.991L128.996 552.991L128.996 524.991L156.996 524.991Z" fill="#14596B"/>
<path d="M352.999 524.993L352.999 552.993L324.999 552.993L324.999 524.993L352.999 524.993Z" fill="#0C3640"/>
<path d="M436.998 524.993L436.998 552.993L408.998 552.993L408.998 524.993L436.998 524.993Z" fill="#14596B"/>
<path d="M409.001 469.003L409.001 497.003L381.001 497.003L381.001 469.003L409.001 469.003Z" fill="#14596B"/>
<path d="M409 608.988L409 636.988L381 636.988L381 608.988L409 608.988Z" fill="#14596B"/>
<path d="M493.002 692.995L493.002 720.995L465.002 720.995L465.002 692.995L493.002 692.995Z" fill="#14596B"/>
<path d="M493 440.98L493 468.98L465 468.98L465 440.98L493 440.98Z" fill="#0C3640"/>
<path d="M381.007 524.991L381.007 552.991L353.007 552.991L353.007 524.991L381.007 524.991Z" fill="#14596B"/>
<path d="M492.998 524.991L492.998 552.991L464.998 552.991L464.998 524.991L492.998 524.991Z" fill="#0C3640"/>
<path d="M520.997 552.989L520.997 580.989L492.997 580.989L492.997 552.989L520.997 552.989Z" fill="#14596B"/>
<path d="M185.003 469.003L185.003 497.003L157.003 497.003L157.003 469.003L185.003 469.003Z" fill="#0C3640"/>
<path d="M381.007 440.98L381.007 468.98L353.007 468.98L353.007 440.98L381.007 440.98Z" fill="#0C3640"/>
<path d="M185.003 469.003L185.003 497.003L157.003 497.003L157.003 469.003L185.003 469.003Z" fill="#0C3640"/>
<path d="M381.008 608.988L381.008 636.988L353.008 636.988L353.008 608.988L381.008 608.988Z" fill="#0C3640"/>
<path d="M464.998 664.985L464.998 692.985L436.998 692.985L436.998 664.985L464.998 664.985Z" fill="#0C3640"/>
<path d="M465.002 469.003L465.002 497.003L437.002 497.003L437.002 469.003L465.002 469.003Z" fill="#14596B"/>
<path d="M325.006 469.003L325.006 497.003L297.006 497.003L297.006 469.003L325.006 469.003Z" fill="#0C3640"/>
<path d="M44.998 832.994L44.998 860.994L16.9979 860.994L16.9979 832.994L44.998 832.994Z" fill="#14596B"/>
<path d="M128.994 804.994L128.994 832.994L100.994 832.994L100.994 804.994L128.994 804.994Z" fill="#0C3640"/>
<path d="M156.995 832.994L156.995 860.994L128.995 860.994L128.995 832.994L156.995 832.994Z" fill="#14596B"/>
<path d="M213.004 888.991L213.004 916.991L185.004 916.991L185.004 888.991L213.004 888.991Z" fill="#14596B"/>
<path d="M913.003 1112.98H885.003V1084.98H913.003V1112.98Z" fill="#0C3640"/>
<path d="M996.997 1140.99H968.997V1112.99H996.997V1140.99Z" fill="#14596B"/>
<path d="M1053 1168.99H1025V1140.99H1053V1168.99Z" fill="#14596B"/>
<path d="M1053 1253H1025V1225H1053V1253Z" fill="#14596B"/>
<path d="M1108.99 1224.99H1080.99V1196.99H1108.99V1224.99Z" fill="#0C3640"/>
<path d="M969.006 1224.99H941.006V1196.99H969.006V1224.99Z" fill="#0C3640"/>
<path d="M885.007 1309H857.007V1281H885.007V1309Z" fill="#0C3640"/>
<path d="M1108.99 1309H1080.99V1281H1108.99V1309Z" fill="#0C3640"/>
<path d="M1053 1196.99H1025V1168.99H1053V1196.99Z" fill="#0C3640"/>
<path d="M1053 1309H1025V1281H1053V1309Z" fill="#0C3640"/>
<path d="M1025 1336.99H997V1308.99H1025V1336.99Z" fill="#0C3640"/>
<path d="M1108.99 1196.99H1080.99V1168.99H1108.99V1196.99Z" fill="#14596B"/>
<path d="M969.006 1196.99H941.006V1168.99H969.006V1196.99Z" fill="#14596B"/>
<path d="M913.004 1280.99H885.004V1252.99H913.004V1280.99Z" fill="#14596B"/>
<path d="M1108.99 1280.99H1080.99V1252.99H1108.99V1280.99Z" fill="#14596B"/>
<path d="M1109 1140.99H1081V1112.99H1109V1140.99Z" fill="#14596B"/>
<path d="M1333 1112.98H1361V1084.98H1333V1112.98Z" fill="#0C3640"/>
<path d="M1249.01 1140.99H1277.01V1112.99H1249.01V1140.99Z" fill="#14596B"/>
<path d="M1193 1168.99H1221V1140.99H1193V1168.99Z" fill="#14596B"/>
<path d="M1193 1252.99H1221V1224.99H1193V1252.99Z" fill="#14596B"/>
<path d="M1137.01 1224.99H1165.01V1196.99H1137.01V1224.99Z" fill="#0C3640"/>
<path d="M1277 1224.99H1305V1196.99H1277V1224.99Z" fill="#0C3640"/>
<path d="M1361 1309H1389V1281H1361V1309Z" fill="#0C3640"/>
<path d="M1137.01 1309H1165.01V1281H1137.01V1309Z" fill="#0C3640"/>
<path d="M1193 1196.99H1221V1168.99H1193V1196.99Z" fill="#0C3640"/>
<path d="M1193 1309H1221V1281H1193V1309Z" fill="#0C3640"/>
<path d="M1221 1336.99H1249V1308.99H1221V1336.99Z" fill="#0C3640"/>
<path d="M1137.01 1196.99H1165.01V1168.99H1137.01V1196.99Z" fill="#14596B"/>
<path d="M1277 1196.99H1305V1168.99H1277V1196.99Z" fill="#14596B"/>
<path d="M1333 1280.99H1361V1252.99H1333V1280.99Z" fill="#14596B"/>
<path d="M1137.01 1280.99H1165.01V1252.99H1137.01V1280.99Z" fill="#14596B"/>
<path d="M1137 1140.99H1165V1112.99H1137V1140.99Z" fill="#14596B"/>
<path d="M1025 20.9951L997 20.9951V-7.00487L1025 -7.00487V20.9951Z" fill="#0C3640"/>
<path d="M969.005 48.9985H941.005V20.9986L969.005 20.9986V48.9985Z" fill="#0C3640"/>
<path d="M913.003 76.9966H885.003V48.9966H913.003V76.9966Z" fill="#0C3640"/>
<path d="M857 105.012H829V77.0117H857V105.012Z" fill="#0C3640"/>
<path d="M800.998 160.976H772.998V132.976H800.998V160.976Z" fill="#0C3640"/>
<path d="M1137 860.994H1109V832.994H1137V860.994Z" fill="#0C3640"/>
<path d="M1193 860.994H1165V832.994H1193V860.994Z" fill="#0C3640"/>
<path d="M1249 832.994H1221V804.994H1249V832.994Z" fill="#0C3640"/>
<path d="M1305.01 804.998H1277.01V776.998H1305.01V804.998Z" fill="#0C3640"/>
<path d="M1025 832.994H997V804.994H1025V832.994Z" fill="#0C3640"/>
<path d="M1081 860.994H1053V832.994H1081V860.994Z" fill="#0C3640"/>
<path d="M969.006 804.996H941.006V776.996H969.006V804.996Z" fill="#0C3640"/>
<path d="M1249 21.0088L1221 21.0088V-6.99119L1249 -6.99119V21.0088Z" fill="#0C3640"/>
<path d="M1305.01 48.9985H1277.01V20.9986L1305.01 20.9986V48.9985Z" fill="#0C3640"/>
<path d="M1361 76.9966H1333V48.9966H1361V76.9966Z" fill="#0C3640"/>
<path d="M1417 105.012H1389V77.0117H1417V105.012Z" fill="#0C3640"/>
<path d="M1025 20.9951L997 20.9951V-7.00487L1025 -7.00487V20.9951Z" fill="#0C3640"/>
<path d="M969.005 48.9985H941.005V20.9986L969.005 20.9986V48.9985Z" fill="#0C3640"/>
<path d="M913.003 76.9966H885.003V48.9966H913.003V76.9966Z" fill="#0C3640"/>
<path d="M857 105.012H829V77.0117H857V105.012Z" fill="#0C3640"/>
<path d="M800.998 160.976H772.998V132.976H800.998V160.976Z" fill="#0C3640"/>
<path d="M1137 860.994H1109V832.994H1137V860.994Z" fill="#0C3640"/>
<path d="M1193 860.994H1165V832.994H1193V860.994Z" fill="#0C3640"/>
<path d="M1249 832.994H1221V804.994H1249V832.994Z" fill="#0C3640"/>
<path d="M1305.01 804.998H1277.01V776.998H1305.01V804.998Z" fill="#0C3640"/>
<path d="M1361 776.987H1333V748.987H1361V776.987Z" fill="#0C3640"/>
<path d="M1417 748.998H1389V720.998H1417V748.998Z" fill="#0C3640"/>
<path d="M1025 832.994H997V804.994H1025V832.994Z" fill="#0C3640"/>
<path d="M1081 860.994H1053V832.994H1081V860.994Z" fill="#0C3640"/>
<path d="M969.006 804.996H941.006V776.996H969.006V804.996Z" fill="#0C3640"/>
<path d="M913.003 776.987H885.003V748.987H913.003V776.987Z" fill="#0C3640"/>
<path d="M857 748.998H829V720.998H857V748.998Z" fill="#0C3640"/>
<path d="M800.998 692.989H772.998V664.989H800.998V692.989Z" fill="#0C3640"/>
<path d="M744.999 608.99H716.999V580.99H744.999V608.99Z" fill="#0C3640"/>
<path d="M744.999 245H716.999V217.001H744.999V245Z" fill="#0C3640"/>
<path d="M1249 21.0088L1221 21.0088V-6.99119L1249 -6.99119V21.0088Z" fill="#0C3640"/>
<path d="M1305.01 48.9985H1277.01V20.9986L1305.01 20.9986V48.9985Z" fill="#0C3640"/>
<path d="M1361 76.9966H1333V48.9966H1361V76.9966Z" fill="#0C3640"/>
<path d="M1417 105.012H1389V77.0117H1417V105.012Z" fill="#0C3640"/>
</g>
<defs>
<linearGradient id="paint0_linear_2575_49008" x1="1440" y1="-0.000128791" x2="604.5" y2="911" gradientUnits="userSpaceOnUse">
<stop stop-color="#0F0913"/>
<stop offset="0.849442" stop-color="#0F0913" stop-opacity="0"/>
</linearGradient>
</defs>
</svg>
