<svg xmlns="http://www.w3.org/2000/svg" width="1440" height="474" viewBox="0 0 1440 474" fill="none">
  <path d="M460.922 748.14H403.352V748.141H518.492V805.711H576.062V748.141H633.633V805.711H691.203V748.141H748.773V805.711H806.344V748.141H863.914V805.711H921.484V863.281H345.781V805.711H173.07V690.57H288.211V748.141H345.781V690.57L403.352 690.569H460.922V748.14ZM1036.64 690.569L1094.21 690.57V748.141H1151.78V690.57H1382.06V748.141H1324.49V805.711H1094.21V863.281H921.5V748.141H1036.64V748.14H979.07V690.569H1036.64ZM173.066 805.711H115.496V748.141H0.355469V690.57H173.066V805.711ZM1439.64 748.141H1382.07V690.57H1439.64V748.141ZM576.062 748.14H518.492V632.999H576.062V748.14ZM748.773 748.14H691.203V632.999H748.773V748.14ZM921.484 748.14H863.914V632.999H921.484V748.14ZM0.355469 632.999H57.9258V690.569H-57.2148V575.429H0.355469V632.999ZM173.066 690.569H115.496V632.999H173.066V690.569ZM345.781 690.569H288.211V632.999H345.781V690.569ZM1151.78 690.569H1094.21V632.999H1151.78V690.569ZM1324.49 690.569H1266.92V632.999H1324.49V690.569ZM1554.78 632.999H1497.21V690.569H1382.07V632.999H1439.64V575.429H1554.78V632.999ZM-57.2188 632.999H-114.789V575.429H-57.2188V632.999ZM115.496 632.999H57.9258V575.429H115.496V632.999ZM288.211 632.999H230.641V575.429H288.211V632.999ZM1209.35 632.999H1151.78V575.429H1209.35V632.999ZM1382.07 632.999H1324.5V575.429H1382.07V632.999ZM518.492 632.998H460.922V460.287H518.492V632.998ZM748.773 632.998H691.203V460.287H748.773V632.998ZM978.219 402.716H1266.92V460.286H921.5V460.287H978.219V632.998H920.648V460.287H863.93V402.716H920.648V287.575H978.219V402.716ZM-114.773 575.428H-172.344V460.287H-114.773V575.428ZM57.9258 575.428H0.355469V460.287H57.9258V575.428ZM288.211 575.428H230.641V517.857H288.211V575.428ZM1209.35 575.428H1151.78V517.857H1209.35V575.428ZM1439.64 575.428H1382.07V460.287H1439.64V575.428ZM1612.35 575.428H1554.78V460.287H1612.35V575.428ZM230.641 517.857H173.07V460.287H230.641V517.857ZM1266.92 517.857H1209.35V460.287H1266.92V517.857ZM1439.64 402.716H1554.78V345.146H1612.35V402.716H1612.35V460.286H1554.78V402.716H1554.78V460.286H1497.21V460.287L1439.64 460.286H1266.93V402.716H1382.07V345.146H1439.64V402.716ZM-114.773 402.716H-57.2188V460.286H-172.344V345.146H-114.773V402.716ZM57.9258 402.716H173.066V460.286H-57.2148V402.716H0.355469V345.146H57.9258V402.716ZM230.641 402.716H691.203V345.146H748.773V402.716H863.914V460.286H173.07V345.146H230.641V402.716ZM518.492 402.715H460.922V230.004H518.492V402.715ZM1266.92 402.715H1209.35V345.145H1266.92V402.715ZM-57.2188 287.574H-114.773V345.145H-172.344V287.574H-114.789V230.004H-57.2188V287.574ZM57.9258 345.145H0.355469V287.574H57.9258V345.145ZM288.211 345.145H230.641V230.004H288.211V345.145ZM748.773 345.145H691.203V230.004H748.773V345.145ZM1209.35 345.145H1151.78V230.004H1209.35V345.145ZM1439.64 345.145H1382.07V287.574H1439.64V345.145ZM1612.35 345.145H1554.78V287.574H1612.35V345.145ZM0.355469 287.574H-57.2148V230.004H0.355469V287.574ZM115.496 287.574H57.9258V230.004H115.496V287.574ZM921.484 230.004H978.219V287.574H920.648V230.004H863.914V172.434H921.484V230.004ZM1382.07 287.574H1324.5V230.004H1382.07V287.574ZM1554.78 287.574H1439.64V230.004H1554.78V287.574ZM576.062 230.004H518.492V172.434H576.062V230.004ZM173.066 230.003H115.496V172.433H57.9258V230.003H-57.2148V172.433H0.355469V114.862H173.066V230.003ZM345.781 230.003H288.211V172.433H345.781V230.003ZM748.773 230.003H691.203V114.862H748.773V230.003ZM1151.78 230.003H1094.21V172.433H1151.78V230.003ZM1324.49 230.003H1266.92V172.433H1151.78V114.862H1324.49V230.003ZM1439.64 172.433H1497.21V230.003H1382.07V172.433H1324.5V114.862H1439.64V172.433ZM288.211 172.433H173.07V114.862H288.211V172.433ZM460.922 172.433H345.781V114.862H460.922V172.433ZM576.062 172.433H518.492V114.862H576.062V172.433ZM921.484 172.433H863.914V114.862H921.484V172.433ZM1094.21 114.862V172.433H979.07V114.862H1094.21ZM633.633 114.862H576.062V57.292H633.633V114.862ZM863.914 114.862H806.344V57.292H863.914V114.862ZM173.066 114.861H115.496V57.291H173.066V114.861ZM921.484 57.291H748.773V114.861H691.203V57.291H518.492V114.861H173.07V57.291H345.781V-0.279297H921.484V57.291ZM1094.21 57.291H1324.49V114.861H921.5V-0.279297H1094.21V57.291Z" fill="url(#paint0_linear_3419_30254)" fill-opacity="0.2"/>
  <defs>
    <linearGradient id="paint0_linear_3419_30254" x1="720.003" y1="-0.279297" x2="720.003" y2="775.532" gradientUnits="userSpaceOnUse">
      <stop stop-color="#5A5AB5"/>
      <stop offset="1" stop-color="#1C1C3F" stop-opacity="0"/>
    </linearGradient>
  </defs>
</svg>