<svg viewBox="0 0 1440 864" fill="none" xmlns="http://www.w3.org/2000/svg">
  <path d="M288.211 748.14H345.781V690.569H460.922V748.139H403.352V748.14H518.492V805.71H576.062V748.14H633.633V805.71H691.203V748.14H748.773V805.71H806.344V748.14H863.914V805.71H921.484V863.282H863.914V863.281H576.062V863.282H345.781V805.71H173.07V690.569H288.211V748.14ZM1324.49 805.71H1094.21V863.282H921.5V748.14H1036.64V748.139H979.07V690.569H1094.21V748.14H1151.78V690.569H1266.92V632.999H1324.49V805.71ZM0.355469 632.999H57.9258V690.569H115.496V632.999H173.066V805.71H115.496V748.14H0.355469V690.569H-57.2148V575.428H0.355469V632.999ZM1554.78 632.999H1497.21V690.569H1439.64V748.14H1324.5V690.569H1382.07V632.999H1439.64V575.428H1554.78V632.999ZM576.062 748.139H518.492V632.999H576.062V748.139ZM748.773 748.139H691.203V632.999H748.773V748.139ZM921.484 748.139H863.914V632.999H921.484V748.139ZM345.781 690.569H288.211V632.999H345.781V690.569ZM1151.78 690.569H1094.21V632.999H1151.78V690.569ZM-57.2188 632.999H-114.789V575.428H-57.2188V632.999ZM115.496 632.999H57.9258V575.428H115.496V632.999ZM288.211 632.999H230.641V575.428H288.211V632.999ZM1209.35 632.999H1151.78V575.428H1209.35V632.999ZM1382.07 632.999H1324.5V575.428H1382.07V632.999ZM518.492 632.998H460.922V460.287H518.492V632.998ZM748.773 632.998H691.203V460.287H748.773V632.998ZM921.484 230.003H978.219V402.715H1209.35V345.145H1266.92V460.286H921.5V460.287H978.219V632.998H920.648V460.287H863.93V402.715H920.648V230.003H863.914V172.433H921.484V230.003ZM-114.773 575.427H-172.344V460.287H-114.773V575.427ZM57.9258 575.427H0.355469V460.287H57.9258V575.427ZM288.211 575.427H230.641V517.857H288.211V575.427ZM1209.35 575.427H1151.78V517.857H1209.35V575.427ZM1439.64 575.427H1382.07V460.287H1439.64V575.427ZM1612.35 575.427H1554.78V460.287H1612.35V575.427ZM230.641 517.857H173.07V460.287H230.641V517.857ZM1266.92 517.857H1209.35V460.287H1266.92V517.857ZM1439.64 402.715H1554.78V345.145H1612.35V402.715H1612.35V460.286H1554.78V402.715H1554.78V460.286H1497.21V460.287L1439.64 460.286H1266.93V402.715H1382.07V345.145H1439.64V402.715ZM-114.773 402.715H-57.2188V460.286H-172.344V345.145H-114.773V402.715ZM57.9258 402.715H173.066V460.286H-57.2148V402.715H0.355469V345.145H57.9258V402.715ZM230.641 402.715H460.922V345.145H518.492V402.715H691.203V345.145H748.773V402.715H863.914V460.286H173.07V345.145H230.641V402.715ZM-57.2188 287.574H-114.773V345.144H-172.344V287.574H-114.789V230.003H-57.2188V287.574ZM57.9258 345.144H0.355469V287.574H57.9258V345.144ZM288.211 345.144H230.641V230.003H288.211V345.144ZM518.492 345.144H460.922V230.003H518.492V345.144ZM748.773 345.144H691.203V230.003H748.773V345.144ZM1209.35 345.144H1151.78V230.003H1209.35V345.144ZM1439.64 345.144H1382.07V287.574H1439.64V345.144ZM1612.35 345.144H1554.78V287.574H1612.35V345.144ZM0.355469 287.574H-57.2148V230.003H0.355469V287.574ZM115.496 287.574H57.9258V230.003H115.496V287.574ZM1382.07 287.574H1324.5V230.003H1382.07V287.574ZM1554.78 287.574H1439.64V230.003H1554.78V287.574ZM576.062 230.003H518.492V172.433H576.062V230.003ZM173.066 230.002H115.496V172.432H57.9258V230.002H-57.2148V172.432H0.355469V114.862H115.496V57.2915H173.066V230.002ZM345.781 230.002H288.211V172.432H345.781V230.002ZM748.773 230.002H691.203V57.2915H748.773V230.002ZM1151.78 230.002H1094.21V172.432H1151.78V230.002ZM1324.49 230.002H1266.92V172.432H1151.78V114.862H1094.21V172.432H979.07V114.862H921.5V57.2915H1324.49V230.002ZM1439.64 172.432H1497.21V230.002H1382.07V172.432H1324.5V114.862H1439.64V172.432ZM518.492 114.862H460.922V172.432H345.781V114.862H288.211V172.432H173.07V57.2915H518.492V114.862ZM576.062 172.432H518.492V114.862H576.062V172.432ZM921.484 172.432H863.914V114.862H921.484V172.432ZM921.484 57.2905H863.914V114.862H806.344V57.2915L748.773 57.2905H691.203V57.2915H633.633V114.862H576.062V57.2905H345.781V-0.279785H921.484V57.2905ZM1094.21 57.2905H921.5V-0.279785H1094.21V57.2905Z" fill="url(#paint0_linear_3066_39616)" fill-opacity="0.2"/>
  <defs>
    <linearGradient id="paint0_linear_3066_39616" x1="720.003" y1="-0.279785" x2="720.003" y2="775.532" gradientUnits="userSpaceOnUse">
      <stop stop-color="#5A5AB5"/>
      <stop offset="1" stop-color="#1C1C3F" stop-opacity="0"/>
    </linearGradient>
  </defs>
</svg>
