<svg width="120" height="83" viewBox="0 0 120 83" fill="none" xmlns="http://www.w3.org/2000/svg">
<path d="M45 75.2111H52.499V67.7101H59.999V75.2111H52.5V82.7111H37.5V67.7101H30V60.2101H45V75.2111ZM29.999 67.7101H14.999V60.2101H29.999V67.7101ZM74.999 67.7101H59.999V60.2101H74.999V67.7101ZM97.5 67.7101H75V60.2101H97.5V67.7101ZM105.001 67.7101H97.501V60.2101H105.001V67.7101ZM7.5 52.7101H14.999V60.2101H7.49902V52.7101H0V45.2101H7.5V52.7101ZM120 52.7101H112.501V60.2101H105.001V52.7101H112.5V45.2101H120V52.7101ZM7.5 45.2091H0V15.212H7.5V45.2091ZM38.749 45.2091H23.749V37.7091H38.749V45.2091ZM61.248 45.2091H38.75V37.7091H61.248V45.2091ZM83.749 45.2091H61.249V37.7091H83.749V45.2091ZM120 45.2091H112.5V15.212H120V45.2091ZM38.749 30.212H23.749V22.712H38.749V30.212ZM61.248 30.212H38.75V22.712H61.248V30.212ZM83.749 30.212H61.249V22.712H83.749V30.212ZM98.75 30.212H83.75V22.712H98.75V30.212ZM14.999 15.2111H7.49902V7.71106H14.999V15.2111ZM112.501 15.2111H105.001V7.71106H112.501V15.2111ZM29.999 7.71106H14.999V0.21106H29.999V7.71106ZM74.999 7.71106H30V0.21106H74.999V7.71106ZM97.5 7.71106H75V0.21106H97.5V7.71106ZM105.001 7.71106H97.501V0.21106H105.001V7.71106Z" fill="url(#paint0_linear_6475_10774)" fill-opacity="0.25"/>
<defs>
<linearGradient id="paint0_linear_6475_10774" x1="60" y1="-29.5904" x2="59.9768" y2="97.6088" gradientUnits="userSpaceOnUse">
<stop stop-color="#1C1C3F" stop-opacity="0"/>
<stop offset="0.30801" stop-color="#5A5AB5"/>
</linearGradient>
</defs>
</svg>
