<svg xmlns="http://www.w3.org/2000/svg" width="421" height="282" viewBox="0 0 421 282" fill="none">
  <path d="M116.948 281.332H140.337V257.943H116.948V281.332ZM93.5557 281.332H116.944V257.943H93.5557V281.332ZM116.948 257.941H140.337V234.553H116.948V257.941ZM70.1689 257.941H93.5576V234.553H70.1689V257.941ZM280.674 234.55H327.444V211.161H280.674V234.55ZM210.508 234.55H280.673V211.161H210.508V234.55ZM187.118 234.55H210.507V211.161H187.118V234.55ZM140.34 234.55H187.115V211.161H140.34V234.55ZM46.7773 234.55H70.166V211.161H46.7773V234.55ZM374.22 164.384H350.832V187.771H327.445V211.159H350.834V187.772H374.221V164.384H397.608V140.995H374.22V164.384ZM23.3877 164.384H0.000976562V187.772H23.3877V211.159H46.7764V187.771H23.3896V164.384H46.7764V140.995H23.3877V164.384ZM397.611 140.993H421V117.604H397.611V140.993ZM210.508 140.993H280.673V117.604H210.508V140.993ZM187.118 140.993H210.507V117.604H187.118V140.993ZM140.34 140.993H187.115V117.604H140.34V140.993ZM46.7773 140.993H70.166V117.604H46.7773V140.993ZM397.611 117.604H421V70.8359H397.611V117.604ZM304.056 94.2148H280.674V117.604H304.062V94.2246H327.444V70.8359H304.056V94.2148ZM116.948 117.604H140.337V70.8359H116.948V117.604ZM93.5557 94.2148H70.1689V117.604H93.5576V94.2246H116.944V70.8359H93.5557V94.2148ZM397.611 70.835H421V47.4463H397.611V70.835ZM304.056 70.835H327.444V47.4463H304.056V70.835ZM397.611 47.4443H421V24.0557H397.611V47.4443ZM304.056 47.4443H327.444V24.0557H304.056V47.4443ZM327.445 24.0557H397.608V0.666992H327.445V24.0557Z" fill="url(#paint0_linear_4554_71959)" fill-opacity="0.25"/>
  <defs>
    <linearGradient id="paint0_linear_4554_71959" x1="210.16" y1="-231.256" x2="210.806" y2="332.014" gradientUnits="userSpaceOnUse">
      <stop stop-color="#1C1C3F" stop-opacity="0"/>
      <stop offset="0.389423" stop-color="#5A5AB5"/>
    </linearGradient>
  </defs>
</svg>