<svg xmlns="http://www.w3.org/2000/svg" width="401" height="129" fill="none"><path fill="#FF8BFF" d="M40.795 60.89c-.95 0-1.775.33-2.436 1.033-.66.66-1.032 1.486-1.032 2.436s.33 1.775 1.032 2.436c.66.66 1.487 1.032 2.436 1.032.95 0 1.776-.33 2.436-1.032.661-.661 1.033-1.487 1.033-2.436 0-.95-.33-1.776-1.033-2.436-.66-.661-1.486-1.033-2.436-1.033M40.795 91.198c-.95 0-1.775.33-2.436 1.032-.66.66-1.032 1.486-1.032 2.436s.33 1.775 1.032 2.436c.66.66 1.487 1.032 2.436 1.032.95 0 1.776-.33 2.436-1.032.661-.66 1.033-1.487 1.033-2.436 0-.95-.33-1.775-1.033-2.436-.66-.66-1.486-1.032-2.436-1.032M40.795 121.542c-.95 0-1.775.33-2.436 1.032-.66.66-1.032 1.486-1.032 2.436 0 .949.33 1.775 1.032 2.436.66.66 1.487 1.032 2.436 1.032.95 0 1.776-.33 2.436-1.032.661-.661 1.033-1.487 1.033-2.436 0-.95-.33-1.776-1.033-2.436-.66-.661-1.486-1.032-2.436-1.032M3.468 121.542c-.95 0-1.775.33-2.436 1.032-.66.66-1.032 1.486-1.032 2.436 0 .949.33 1.775 1.032 2.436.66.661 1.487 1.032 2.436 1.032.95 0 1.776-.33 2.436-1.032.66-.661 1.033-1.487 1.033-2.436 0-.95-.33-1.776-1.033-2.436-.66-.661-1.486-1.032-2.436-1.032M100.251.236c-.95 0-1.776.33-2.436 1.032-.66.66-1.032 1.487-1.032 2.436 0 .95.33 1.776 1.032 2.436.66.66 1.486 1.032 2.436 1.032.949 0 1.775-.33 2.436-1.032.66-.66 1.032-1.486 1.032-2.436s-.33-1.775-1.032-2.436c-.661-.66-1.487-1.032-2.436-1.032M100.251 30.54c-.95 0-1.776.33-2.436 1.032-.66.66-1.032 1.486-1.032 2.436s.33 1.775 1.032 2.436c.66.66 1.486 1.032 2.436 1.032.949 0 1.775-.33 2.436-1.032.66-.66 1.032-1.486 1.032-2.436s-.33-1.776-1.032-2.436c-.661-.66-1.487-1.032-2.436-1.032M100.251 60.89c-.95 0-1.776.33-2.436 1.033-.66.66-1.032 1.486-1.032 2.436s.33 1.775 1.032 2.436c.66.66 1.486 1.032 2.436 1.032.949 0 1.775-.33 2.436-1.032.66-.661 1.032-1.487 1.032-2.436 0-.95-.33-1.776-1.032-2.436-.661-.661-1.487-1.033-2.436-1.033M100.251 91.198c-.95 0-1.776.33-2.436 1.032-.66.66-1.032 1.486-1.032 2.436s.33 1.775 1.032 2.436c.66.66 1.486 1.032 2.436 1.032.949 0 1.775-.33 2.436-1.032.66-.66 1.032-1.487 1.032-2.436 0-.95-.33-1.776-1.032-2.436-.661-.66-1.487-1.032-2.436-1.032M100.251 121.541c-.95 0-1.776.331-2.436 1.033-.66.66-1.032 1.486-1.032 2.436 0 .949.33 1.775 1.032 2.436.66.66 1.486 1.032 2.436 1.032.949 0 1.775-.33 2.436-1.032.66-.661 1.032-1.487 1.032-2.436 0-.95-.33-1.776-1.032-2.436-.661-.661-1.487-1.033-2.436-1.033M159.709 60.89c-.95 0-1.776.33-2.436 1.033-.661.66-1.033 1.486-1.033 2.436s.331 1.775 1.033 2.436c.66.66 1.486 1.032 2.436 1.032.949 0 1.775-.33 2.436-1.032.66-.661 1.032-1.487 1.032-2.436 0-.95-.33-1.776-1.032-2.436-.661-.661-1.487-1.033-2.436-1.033M159.709 91.198c-.95 0-1.776.33-2.436 1.032-.661.66-1.033 1.486-1.033 2.436s.331 1.775 1.033 2.436c.66.66 1.486 1.032 2.436 1.032.949 0 1.775-.33 2.436-1.032.66-.66 1.032-1.487 1.032-2.436 0-.95-.33-1.776-1.032-2.436-.661-.66-1.487-1.032-2.436-1.032M159.709 121.541c-.95 0-1.776.331-2.436 1.033-.661.66-1.033 1.486-1.033 2.436 0 .949.331 1.775 1.033 2.436.66.66 1.486 1.032 2.436 1.032.949 0 1.775-.33 2.436-1.032.66-.661 1.032-1.487 1.032-2.436 0-.95-.33-1.776-1.032-2.436-.661-.661-1.487-1.033-2.436-1.033M219.163.236c-.95 0-1.775.33-2.436 1.032-.661.66-1.032 1.486-1.032 2.436s.33 1.776 1.032 2.436c.661.66 1.486 1.032 2.436 1.032s1.776-.33 2.436-1.032c.661-.66 1.032-1.486 1.032-2.436s-.33-1.775-1.032-2.436c-.66-.66-1.486-1.032-2.436-1.032M219.163 30.54c-.95 0-1.775.33-2.436 1.032-.661.66-1.032 1.486-1.032 2.436s.33 1.775 1.032 2.436c.661.66 1.486 1.032 2.436 1.032s1.776-.33 2.436-1.032c.661-.66 1.032-1.486 1.032-2.436s-.33-1.776-1.032-2.436c-.66-.66-1.486-1.032-2.436-1.032M219.163 60.89c-.95 0-1.775.33-2.436 1.033-.661.66-1.032 1.486-1.032 2.436s.33 1.775 1.032 2.436c.661.66 1.486 1.032 2.436 1.032s1.776-.33 2.436-1.032c.661-.661 1.032-1.487 1.032-2.436 0-.95-.33-1.776-1.032-2.436-.66-.661-1.486-1.033-2.436-1.033M219.163 91.198c-.95 0-1.775.33-2.436 1.032-.661.66-1.032 1.486-1.032 2.436s.33 1.775 1.032 2.436c.661.66 1.486 1.032 2.436 1.032s1.776-.33 2.436-1.032c.661-.66 1.032-1.487 1.032-2.436 0-.95-.33-1.776-1.032-2.436-.66-.66-1.486-1.032-2.436-1.032M219.163 121.541c-.95 0-1.775.331-2.436 1.033-.661.66-1.032 1.486-1.032 2.436 0 .949.33 1.775 1.032 2.436.661.66 1.486 1.032 2.436 1.032s1.776-.33 2.436-1.032c.661-.661 1.032-1.487 1.032-2.436 0-.95-.33-1.776-1.032-2.436-.66-.661-1.486-1.033-2.436-1.033M278.618 30.54c-.949 0-1.775.33-2.436 1.032-.66.66-1.032 1.486-1.032 2.436s.33 1.775 1.032 2.436c.661.66 1.487 1.032 2.436 1.032.95 0 1.776-.33 2.436-1.032.661-.66 1.033-1.486 1.033-2.436s-.331-1.776-1.033-2.436c-.66-.66-1.486-1.032-2.436-1.032M278.618 60.89c-.949 0-1.775.33-2.436 1.033-.66.66-1.032 1.486-1.032 2.436s.33 1.775 1.032 2.436c.661.66 1.487 1.032 2.436 1.032.95 0 1.776-.33 2.436-1.032.661-.661 1.033-1.487 1.033-2.436 0-.95-.331-1.776-1.033-2.436-.66-.661-1.486-1.033-2.436-1.033M278.618 91.198c-.949 0-1.775.33-2.436 1.032-.66.66-1.032 1.486-1.032 2.436s.33 1.775 1.032 2.436c.661.66 1.487 1.032 2.436 1.032.95 0 1.776-.33 2.436-1.032.661-.66 1.033-1.487 1.033-2.436 0-.95-.331-1.776-1.033-2.436-.66-.66-1.486-1.032-2.436-1.032M278.618 121.541c-.949 0-1.775.331-2.436 1.033-.66.66-1.032 1.486-1.032 2.436 0 .949.33 1.775 1.032 2.436.661.66 1.487 1.032 2.436 1.032.95 0 1.776-.33 2.436-1.032.661-.661 1.033-1.487 1.033-2.436 0-.95-.331-1.776-1.033-2.436-.66-.661-1.486-1.033-2.436-1.033M338.076 60.89c-.949 0-1.775.33-2.436 1.032-.66.661-1.032 1.487-1.032 2.437s.33 1.775 1.032 2.436c.661.66 1.487 1.032 2.436 1.032.95 0 1.776-.33 2.436-1.032.661-.661 1.033-1.487 1.033-2.436 0-.95-.331-1.776-1.033-2.436-.66-.661-1.486-1.033-2.436-1.033M338.076 91.198c-.949 0-1.775.33-2.436 1.032-.66.66-1.032 1.486-1.032 2.436s.33 1.775 1.032 2.436c.661.66 1.487 1.032 2.436 1.032.95 0 1.776-.33 2.436-1.032.661-.66 1.033-1.487 1.033-2.436 0-.95-.331-1.776-1.033-2.436-.66-.66-1.486-1.032-2.436-1.032M338.076 121.541c-.949 0-1.775.331-2.436 1.033-.66.66-1.032 1.486-1.032 2.436 0 .949.33 1.775 1.032 2.436.661.66 1.487 1.032 2.436 1.032.95 0 1.776-.33 2.436-1.032.661-.661 1.033-1.487 1.033-2.436 0-.95-.331-1.776-1.033-2.436-.66-.661-1.486-1.033-2.436-1.033M397.532 121.541c-.95 0-1.776.331-2.436 1.033-.661.66-1.033 1.486-1.033 2.436 0 .949.331 1.775 1.033 2.436.66.66 1.486 1.032 2.436 1.032.949 0 1.775-.33 2.436-1.032.66-.661 1.032-1.487 1.032-2.436 0-.95-.33-1.776-1.032-2.436-.661-.661-1.487-1.033-2.436-1.033"/></svg>