<svg viewBox="0 0 140 68" fill="none" xmlns="http://www.w3.org/2000/svg">
<rect x="72.258" y="63.2251" width="4.51612" height="4.51612" fill="#F2F4F7"/>
<rect x="76.7739" y="63.2251" width="4.51612" height="4.51612" fill="#F2F4F7"/>
<rect x="76.7739" y="58.7114" width="4.51612" height="4.51612" fill="#A0A0FF"/>
<rect x="81.2899" y="54.1934" width="4.51612" height="4.51612" fill="#5A5AB5"/>
<rect x="81.2899" y="49.6792" width="4.51612" height="4.51612" fill="#A0A0FF"/>
<rect width="4.51612" height="4.51612" transform="matrix(1 0 0 -1 72.258 4.51611)" fill="#5A5AB5"/>
<rect width="4.51612" height="4.51612" transform="matrix(1 0 0 -1 76.7739 4.51611)" fill="#5A5AB5"/>
<rect width="4.51612" height="4.51612" transform="matrix(1 0 0 -1 76.7739 9.03174)" fill="#F2F4F7"/>
<rect width="4.51612" height="4.51612" transform="matrix(1 0 0 -1 81.2899 13.5479)" fill="#F2F4F7"/>
<rect width="4.51612" height="4.51612" transform="matrix(1 0 0 -1 81.2899 18.0635)" fill="#A0A0FF"/>
<rect width="4.51612" height="4.51612" transform="matrix(-1 0 0 1 67.7421 63.2251)" fill="#F2F4F7"/>
<rect width="4.51612" height="4.51612" transform="matrix(-1 0 0 1 63.2261 63.2251)" fill="#F2F4F7"/>
<rect width="4.51612" height="4.51612" transform="matrix(-1 0 0 1 63.2261 58.7114)" fill="#A0A0FF"/>
<rect width="4.51612" height="4.51612" transform="matrix(-1 0 0 1 58.7103 54.1934)" fill="#5A5AB5"/>
<rect width="4.51612" height="4.51612" transform="matrix(-1 0 0 1 58.7103 49.6792)" fill="#A0A0FF"/>
<rect x="67.7421" y="4.51611" width="4.51612" height="4.51612" transform="rotate(180 67.7421 4.51611)" fill="#5A5AB5"/>
<rect x="63.2261" y="4.51611" width="4.51612" height="4.51612" transform="rotate(180 63.2261 4.51611)" fill="#5A5AB5"/>
<rect x="63.2261" y="9.03174" width="4.51612" height="4.51612" transform="rotate(180 63.2261 9.03174)" fill="#F2F4F7"/>
<rect x="58.7103" y="13.5479" width="4.51612" height="4.51612" transform="rotate(180 58.7103 13.5479)" fill="#F2F4F7"/>
<rect x="58.7103" y="18.0635" width="4.51612" height="4.51612" transform="rotate(180 58.7103 18.0635)" fill="#A0A0FF"/>
<rect x="81.2899" y="0.000488281" width="4.51612" height="4.51612" fill="#F2F4F7"/>
<rect x="85.8068" y="4.51611" width="4.51612" height="4.51612" fill="#F2F4F7"/>
<rect x="90.3226" y="4.51611" width="4.51612" height="4.51612" fill="#A0A0FF"/>
<rect x="94.8386" y="9.03174" width="4.51612" height="4.51612" fill="#A0A0FF"/>
<rect x="99.3545" y="13.5479" width="4.51612" height="4.51612" fill="#A0A0FF"/>
<rect x="103.87" y="18.0635" width="4.51612" height="4.51612" fill="#A0A0FF"/>
<rect x="103.87" y="22.5801" width="4.51612" height="4.51612" fill="#A0A0FF"/>
<rect x="108.387" y="27.0981" width="4.51612" height="4.51612" fill="#A0A0FF"/>
<rect width="4.51612" height="4.51612" transform="matrix(1 0 0 -1 81.2899 67.7432)" fill="#F2F4F7"/>
<rect width="4.51612" height="4.51612" transform="matrix(1 0 0 -1 85.8068 63.2251)" fill="#F2F4F7"/>
<rect width="4.51612" height="4.51612" transform="matrix(1 0 0 -1 90.3226 63.2251)" fill="#F2F4F7"/>
<rect width="4.51612" height="4.51612" transform="matrix(1 0 0 -1 94.8386 58.7114)" fill="#F2F4F7"/>
<rect width="4.51612" height="4.51612" transform="matrix(1 0 0 -1 99.3545 54.1934)" fill="#F2F4F7"/>
<rect width="4.51612" height="4.51612" transform="matrix(1 0 0 -1 103.87 49.6792)" fill="#F2F4F7"/>
<rect width="4.51612" height="4.51612" transform="matrix(1 0 0 -1 103.87 45.1611)" fill="#F2F4F7"/>
<rect width="4.51612" height="4.51612" transform="matrix(1 0 0 -1 108.387 40.6436)" fill="#F2F4F7"/>
<rect width="4.51612" height="4.51612" transform="matrix(-1 0 0 1 58.7103 0.000488281)" fill="#F2F4F7"/>
<rect width="4.51612" height="4.51612" transform="matrix(-1 0 0 1 54.1934 4.51611)" fill="#F2F4F7"/>
<rect width="4.51612" height="4.51612" transform="matrix(-1 0 0 1 49.6774 4.51611)" fill="#A0A0FF"/>
<rect width="4.51612" height="4.51612" transform="matrix(-1 0 0 1 45.1615 9.03174)" fill="#A0A0FF"/>
<rect width="4.51612" height="4.51612" transform="matrix(-1 0 0 1 40.6455 13.5479)" fill="#A0A0FF"/>
<rect width="4.51612" height="4.51612" transform="matrix(-1 0 0 1 36.1297 18.0635)" fill="#A0A0FF"/>
<rect width="4.51612" height="4.51612" transform="matrix(-1 0 0 1 36.1297 22.5801)" fill="#A0A0FF"/>
<rect width="4.51612" height="4.51612" transform="matrix(-1 0 0 1 31.6127 27.0981)" fill="#A0A0FF"/>
<rect x="58.7103" y="67.7432" width="4.51612" height="4.51612" transform="rotate(180 58.7103 67.7432)" fill="#F2F4F7"/>
<rect x="54.1934" y="63.2251" width="4.51612" height="4.51612" transform="rotate(180 54.1934 63.2251)" fill="#F2F4F7"/>
<rect x="49.6774" y="63.2251" width="4.51612" height="4.51612" transform="rotate(180 49.6774 63.2251)" fill="#F2F4F7"/>
<rect x="45.1615" y="58.7114" width="4.51612" height="4.51612" transform="rotate(180 45.1615 58.7114)" fill="#F2F4F7"/>
<rect x="40.6455" y="54.1934" width="4.51612" height="4.51612" transform="rotate(180 40.6455 54.1934)" fill="#F2F4F7"/>
<rect x="36.1297" y="49.6792" width="4.51612" height="4.51612" transform="rotate(180 36.1297 49.6792)" fill="#F2F4F7"/>
<rect x="36.1297" y="45.1611" width="4.51612" height="4.51612" transform="rotate(180 36.1297 45.1611)" fill="#F2F4F7"/>
<rect x="31.6127" y="40.6436" width="4.51612" height="4.51612" transform="rotate(180 31.6127 40.6436)" fill="#F2F4F7"/>
<rect x="90.3226" y="0.000488281" width="4.51612" height="4.51612" fill="#5A5AB5"/>
<rect x="94.8386" y="4.51611" width="4.51612" height="4.51612" fill="#5A5AB5"/>
<rect x="94.8386" y="0.000488281" width="4.51612" height="4.51612" fill="#A0A0FF"/>
<rect x="99.3545" y="4.51611" width="4.51612" height="4.51612" fill="#A0A0FF"/>
<rect x="103.87" y="9.03174" width="4.51612" height="4.51612" fill="#A0A0FF"/>
<rect x="103.87" y="4.51611" width="4.51612" height="4.51612" fill="#5A5AB5"/>
<rect x="108.387" y="9.03174" width="4.51612" height="4.51612" fill="#5A5AB5"/>
<rect x="112.903" y="13.5479" width="4.51612" height="4.51612" fill="#A0A0FF"/>
<rect x="117.419" y="18.0635" width="4.51612" height="4.51612" fill="#A0A0FF"/>
<rect x="121.935" y="22.5801" width="4.51612" height="4.51612" fill="#A0A0FF"/>
<rect x="121.935" y="27.0981" width="4.51612" height="4.51612" fill="#5A5AB5"/>
<rect x="85.8068" y="0.000488281" width="4.51612" height="4.51612" fill="#5A5AB5"/>
<rect width="4.51612" height="4.51612" transform="matrix(1 0 0 -1 90.3226 67.7432)" fill="#5A5AB5"/>
<rect width="4.51612" height="4.51612" transform="matrix(1 0 0 -1 85.8068 67.7432)" fill="#F2F4F7"/>
<rect width="4.51612" height="4.51612" transform="matrix(1 0 0 -1 94.8386 63.2251)" fill="#F2F4F7"/>
<rect width="4.51612" height="4.51612" transform="matrix(1 0 0 -1 94.8386 67.7432)" fill="#A0A0FF"/>
<rect width="4.51612" height="4.51612" transform="matrix(1 0 0 -1 99.3545 63.2251)" fill="#A0A0FF"/>
<rect width="4.51612" height="4.51612" transform="matrix(1 0 0 -1 103.87 58.7114)" fill="#A0A0FF"/>
<rect width="4.51612" height="4.51612" transform="matrix(1 0 0 -1 103.87 63.2251)" fill="#5A5AB5"/>
<rect width="4.51612" height="4.51612" transform="matrix(1 0 0 -1 108.387 58.7114)" fill="#5A5AB5"/>
<rect width="4.51612" height="4.51612" transform="matrix(1 0 0 -1 112.903 54.1934)" fill="#A0A0FF"/>
<rect width="4.51612" height="4.51612" transform="matrix(1 0 0 -1 117.419 49.6792)" fill="#A0A0FF"/>
<rect width="4.51612" height="4.51612" transform="matrix(1 0 0 -1 121.935 45.1611)" fill="#A0A0FF"/>
<rect width="4.51612" height="4.51612" transform="matrix(1 0 0 -1 121.935 40.6436)" fill="#5A5AB5"/>
<rect width="4.51612" height="4.51612" transform="matrix(-1 0 0 1 49.6774 0.000488281)" fill="#5A5AB5"/>
<rect width="4.51612" height="4.51612" transform="matrix(-1 0 0 1 45.1615 4.51611)" fill="#5A5AB5"/>
<rect width="4.51612" height="4.51612" transform="matrix(-1 0 0 1 45.1615 0.000488281)" fill="#A0A0FF"/>
<rect width="4.51612" height="4.51612" transform="matrix(-1 0 0 1 40.6455 4.51611)" fill="#A0A0FF"/>
<rect width="4.51612" height="4.51612" transform="matrix(-1 0 0 1 36.1297 9.03174)" fill="#A0A0FF"/>
<rect width="4.51612" height="4.51612" transform="matrix(-1 0 0 1 36.1297 4.51611)" fill="#5A5AB5"/>
<rect width="4.51612" height="4.51612" transform="matrix(-1 0 0 1 31.6127 9.03174)" fill="#5A5AB5"/>
<rect width="4.51612" height="4.51612" transform="matrix(-1 0 0 1 27.0968 13.5479)" fill="#A0A0FF"/>
<rect width="4.51612" height="4.51612" transform="matrix(-1 0 0 1 22.5809 18.0635)" fill="#A0A0FF"/>
<rect width="4.51612" height="4.51612" transform="matrix(-1 0 0 1 18.0649 22.5801)" fill="#A0A0FF"/>
<rect width="4.51612" height="4.51612" transform="matrix(-1 0 0 1 18.0649 27.0981)" fill="#5A5AB5"/>
<rect width="4.51612" height="4.51612" transform="matrix(-1 0 0 1 54.1934 0.000488281)" fill="#5A5AB5"/>
<rect x="49.6774" y="67.7432" width="4.51612" height="4.51612" transform="rotate(180 49.6774 67.7432)" fill="#5A5AB5"/>
<rect x="54.1934" y="67.7432" width="4.51612" height="4.51612" transform="rotate(180 54.1934 67.7432)" fill="#F2F4F7"/>
<rect x="45.1615" y="63.2251" width="4.51612" height="4.51612" transform="rotate(180 45.1615 63.2251)" fill="#F2F4F7"/>
<rect x="45.1615" y="67.7432" width="4.51612" height="4.51612" transform="rotate(180 45.1615 67.7432)" fill="#A0A0FF"/>
<rect x="40.6455" y="63.2251" width="4.51612" height="4.51612" transform="rotate(180 40.6455 63.2251)" fill="#A0A0FF"/>
<rect x="36.1297" y="58.7114" width="4.51612" height="4.51612" transform="rotate(180 36.1297 58.7114)" fill="#A0A0FF"/>
<rect x="36.1297" y="63.2251" width="4.51612" height="4.51612" transform="rotate(180 36.1297 63.2251)" fill="#5A5AB5"/>
<rect x="31.6127" y="58.7114" width="4.51612" height="4.51612" transform="rotate(180 31.6127 58.7114)" fill="#5A5AB5"/>
<rect x="27.0968" y="54.1934" width="4.51612" height="4.51612" transform="rotate(180 27.0968 54.1934)" fill="#A0A0FF"/>
<rect x="22.5809" y="49.6792" width="4.51612" height="4.51612" transform="rotate(180 22.5809 49.6792)" fill="#A0A0FF"/>
<rect x="18.0649" y="45.1611" width="4.51612" height="4.51612" transform="rotate(180 18.0649 45.1611)" fill="#A0A0FF"/>
<rect x="18.0649" y="40.6436" width="4.51612" height="4.51612" transform="rotate(180 18.0649 40.6436)" fill="#5A5AB5"/>
<rect x="108.387" y="4.51611" width="4.51612" height="4.51612" fill="#A0A0FF"/>
<rect x="112.903" y="4.51611" width="4.51612" height="4.51612" fill="#A0A0FF"/>
<rect x="112.903" y="9.03174" width="4.51612" height="4.51612" fill="#5A5AB5"/>
<rect x="117.419" y="9.03174" width="4.51612" height="4.51612" fill="#A0A0FF"/>
<rect x="121.935" y="9.03174" width="4.51612" height="4.51612" fill="#A0A0FF"/>
<rect x="121.935" y="13.5479" width="4.51612" height="4.51612" fill="#5A5AB5"/>
<rect x="126.451" y="13.5479" width="4.51612" height="4.51612" fill="#A0A0FF"/>
<rect x="126.451" y="18.0635" width="4.51612" height="4.51612" fill="#5A5AB5"/>
<rect x="130.968" y="18.0635" width="4.51612" height="4.51612" fill="#A0A0FF"/>
<rect x="135.484" y="22.5801" width="4.51612" height="4.51612" fill="#A0A0FF"/>
<rect x="135.484" y="27.0981" width="4.51612" height="4.51612" fill="#A0A0FF"/>
<rect width="4.51612" height="4.51612" transform="matrix(1 0 0 -1 108.387 63.2251)" fill="#A0A0FF"/>
<rect width="4.51612" height="4.51612" transform="matrix(1 0 0 -1 112.903 63.2251)" fill="#A0A0FF"/>
<rect width="4.51612" height="4.51612" transform="matrix(1 0 0 -1 112.903 58.7114)" fill="#5A5AB5"/>
<rect width="4.51612" height="4.51612" transform="matrix(1 0 0 -1 117.419 58.7114)" fill="#A0A0FF"/>
<rect width="4.51612" height="4.51612" transform="matrix(1 0 0 -1 121.935 58.7114)" fill="#A0A0FF"/>
<rect width="4.51612" height="4.51612" transform="matrix(1 0 0 -1 121.935 54.1934)" fill="#5A5AB5"/>
<rect width="4.51612" height="4.51612" transform="matrix(1 0 0 -1 126.451 54.1934)" fill="#A0A0FF"/>
<rect width="4.51612" height="4.51612" transform="matrix(1 0 0 -1 126.451 49.6792)" fill="#5A5AB5"/>
<rect width="4.51612" height="4.51612" transform="matrix(1 0 0 -1 130.968 49.6792)" fill="#A0A0FF"/>
<rect width="4.51612" height="4.51612" transform="matrix(1 0 0 -1 135.484 45.1611)" fill="#A0A0FF"/>
<rect width="4.51612" height="4.51612" transform="matrix(1 0 0 -1 135.484 40.6436)" fill="#A0A0FF"/>
<rect width="4.51612" height="4.51612" transform="matrix(-1 0 0 1 31.6127 4.51611)" fill="#A0A0FF"/>
<rect width="4.51612" height="4.51612" transform="matrix(-1 0 0 1 27.0968 4.51611)" fill="#A0A0FF"/>
<rect width="4.51612" height="4.51612" transform="matrix(-1 0 0 1 27.0968 9.03174)" fill="#5A5AB5"/>
<rect width="4.51612" height="4.51612" transform="matrix(-1 0 0 1 22.5809 9.03174)" fill="#A0A0FF"/>
<rect width="4.51612" height="4.51612" transform="matrix(-1 0 0 1 18.0649 9.03174)" fill="#A0A0FF"/>
<rect width="4.51612" height="4.51612" transform="matrix(-1 0 0 1 18.0649 13.5479)" fill="#5A5AB5"/>
<rect width="4.51612" height="4.51612" transform="matrix(-1 0 0 1 13.549 13.5479)" fill="#A0A0FF"/>
<rect width="4.51612" height="4.51612" transform="matrix(-1 0 0 1 13.549 18.0635)" fill="#5A5AB5"/>
<rect width="4.51612" height="4.51612" transform="matrix(-1 0 0 1 9.03204 18.0635)" fill="#A0A0FF"/>
<rect width="4.51612" height="4.51612" transform="matrix(-1 0 0 1 4.51611 22.5801)" fill="#A0A0FF"/>
<rect width="4.51612" height="4.51612" transform="matrix(-1 0 0 1 4.51611 27.0981)" fill="#A0A0FF"/>
<rect x="31.6127" y="63.2251" width="4.51612" height="4.51612" transform="rotate(180 31.6127 63.2251)" fill="#A0A0FF"/>
<rect x="27.0968" y="63.2251" width="4.51612" height="4.51612" transform="rotate(180 27.0968 63.2251)" fill="#A0A0FF"/>
<rect x="27.0968" y="58.7114" width="4.51612" height="4.51612" transform="rotate(180 27.0968 58.7114)" fill="#5A5AB5"/>
<rect x="22.5809" y="58.7114" width="4.51612" height="4.51612" transform="rotate(180 22.5809 58.7114)" fill="#A0A0FF"/>
<rect x="18.0649" y="58.7114" width="4.51612" height="4.51612" transform="rotate(180 18.0649 58.7114)" fill="#A0A0FF"/>
<rect x="18.0649" y="54.1934" width="4.51612" height="4.51612" transform="rotate(180 18.0649 54.1934)" fill="#5A5AB5"/>
<rect x="13.549" y="54.1934" width="4.51612" height="4.51612" transform="rotate(180 13.549 54.1934)" fill="#A0A0FF"/>
<rect x="13.549" y="49.6792" width="4.51612" height="4.51612" transform="rotate(180 13.549 49.6792)" fill="#5A5AB5"/>
<rect x="9.03204" y="49.6792" width="4.51612" height="4.51612" transform="rotate(180 9.03204 49.6792)" fill="#A0A0FF"/>
<rect x="4.51611" y="45.1611" width="4.51612" height="4.51612" transform="rotate(180 4.51611 45.1611)" fill="#A0A0FF"/>
<rect x="4.51611" y="40.6436" width="4.51612" height="4.51612" transform="rotate(180 4.51611 40.6436)" fill="#A0A0FF"/>
<rect x="67.7421" y="58.7114" width="4.51612" height="4.51612" fill="#5A5AB5"/>
<rect x="67.7421" y="49.6792" width="4.51612" height="4.51612" fill="#5A5AB5"/>
<rect x="67.7421" y="9.03174" width="4.51612" height="4.51612" fill="#A0A0FF"/>
<rect x="67.7421" y="0.000488281" width="4.51612" height="4.51612" fill="#A0A0FF"/>
<rect x="67.7421" y="63.2251" width="4.51612" height="4.51612" fill="#F2F4F7"/>
<rect x="67.7421" y="54.1934" width="4.51612" height="4.51612" fill="#A0A0FF"/>
<rect x="67.7421" y="13.5479" width="4.51612" height="4.51612" fill="#5A5AB5"/>
<rect x="67.7421" y="4.51611" width="4.51612" height="4.51612" fill="#5A5AB5"/>
<rect x="27.0968" y="31.6113" width="4.51612" height="4.51612" transform="rotate(90 27.0968 31.6113)" fill="#A0A0FF"/>
<rect x="18.0649" y="31.6113" width="4.51612" height="4.51612" transform="rotate(90 18.0649 31.6113)" fill="#A0A0FF"/>
<rect x="112.903" y="31.6113" width="4.51612" height="4.51612" transform="rotate(90 112.903 31.6113)" fill="#5A5AB5"/>
<rect x="36.1297" y="31.6113" width="4.51612" height="4.51612" transform="rotate(90 36.1297 31.6113)" fill="#A0A0FF"/>
<rect x="121.935" y="31.6113" width="4.51612" height="4.51612" transform="rotate(90 121.935 31.6113)" fill="#5A5AB5"/>
<rect x="103.87" y="31.6113" width="4.51612" height="4.51612" transform="rotate(90 103.87 31.6113)" fill="#5A5AB5"/>
<rect x="130.968" y="31.6113" width="4.51612" height="4.51612" transform="rotate(90 130.968 31.6113)" fill="#5A5AB5"/>
<rect x="135.484" y="31.6113" width="4.51612" height="4.51612" transform="rotate(90 135.484 31.6113)" fill="#A0A0FF"/>
<rect x="140" y="31.6113" width="4.51612" height="4.51612" transform="rotate(90 140 31.6113)" fill="#A0A0FF"/>
<rect x="45.1615" y="31.6113" width="4.51612" height="4.51612" transform="rotate(90 45.1615 31.6113)" fill="#A0A0FF"/>
<rect x="22.5809" y="31.6113" width="4.51612" height="4.51612" transform="rotate(90 22.5809 31.6113)" fill="#5A5AB5"/>
<rect x="13.549" y="31.6113" width="4.51612" height="4.51612" transform="rotate(90 13.549 31.6113)" fill="#5A5AB5"/>
<rect x="9.03204" y="31.6113" width="4.51612" height="4.51612" transform="rotate(90 9.03204 31.6113)" fill="#A0A0FF"/>
<rect x="4.51611" y="31.6113" width="4.51612" height="4.51612" transform="rotate(90 4.51611 31.6113)" fill="#A0A0FF"/>
<rect x="40.6455" y="31.6113" width="4.51612" height="4.51612" transform="rotate(90 40.6455 31.6113)" fill="#5A5AB5"/>
<rect x="108.387" y="31.6113" width="4.51612" height="4.51612" transform="rotate(90 108.387 31.6113)" fill="#A0A0FF"/>
<rect x="31.6127" y="31.6113" width="4.51612" height="4.51612" transform="rotate(90 31.6127 31.6113)" fill="#5A5AB5"/>
<rect x="117.419" y="31.6113" width="4.51612" height="4.51612" transform="rotate(90 117.419 31.6113)" fill="#A0A0FF"/>
<rect x="99.3545" y="31.6113" width="4.51612" height="4.51612" transform="rotate(90 99.3545 31.6113)" fill="#A0A0FF"/>
<rect x="126.451" y="31.6113" width="4.51612" height="4.51612" transform="rotate(90 126.451 31.6113)" fill="#A0A0FF"/>
<rect x="45.1615" y="54.1934" width="4.51612" height="4.51612" fill="#5A5AB5"/>
<rect x="90.3226" y="54.1934" width="4.51612" height="4.51612" fill="#5A5AB5"/>
<rect width="4.51612" height="4.51612" transform="matrix(1 0 0 -1 45.1615 13.5479)" fill="#5A5AB5"/>
<rect width="4.51612" height="4.51612" transform="matrix(1 0 0 -1 90.3226 13.5479)" fill="#5A5AB5"/>
<rect x="90.3901" y="31.6118" width="4.51612" height="4.51612" transform="rotate(90 90.3901 31.6118)" fill="#A0A0FF"/>
<rect x="85.8069" y="45.1602" width="4.51612" height="4.51612" fill="#5A5AB5"/>
<rect x="85.8069" y="40.6436" width="4.51612" height="4.51612" fill="#A0A0FF"/>
<rect x="85.8069" y="36.1274" width="4.51612" height="4.51612" fill="#5A5AB5"/>
<rect width="4.51612" height="4.51612" transform="matrix(1 0 0 -1 85.8069 22.5791)" fill="#5A5AB5"/>
<rect width="4.51612" height="4.51612" transform="matrix(1 0 0 -1 85.8069 27.0952)" fill="#A0A0FF"/>
<rect width="4.51612" height="4.51612" transform="matrix(1 0 0 -1 85.8069 31.6118)" fill="#5A5AB5"/>
<rect width="4.51612" height="4.51612" transform="matrix(-1 0 0 1 54.2612 45.1602)" fill="#5A5AB5"/>
<rect width="4.51612" height="4.51612" transform="matrix(-1 0 0 1 54.2612 27.0952)" fill="#5A5AB5"/>
<rect width="4.51612" height="4.51612" transform="matrix(-1 0 0 1 54.2612 40.6436)" fill="#A0A0FF"/>
<rect width="4.51612" height="4.51612" transform="matrix(-1 0 0 1 54.2612 36.1274)" fill="#5A5AB5"/>
<rect width="4.51612" height="4.51612" transform="matrix(-1 0 0 1 54.2612 22.5791)" fill="#A0A0FF"/>
<rect x="54.2612" y="22.5791" width="4.51612" height="4.51612" transform="rotate(180 54.2612 22.5791)" fill="#5A5AB5"/>
<rect x="67.8095" y="45.1602" width="4.51612" height="4.51612" fill="#A0A0FF"/>
<rect x="67.8095" y="31.6118" width="4.51612" height="4.51612" fill="#5A5AB5"/>
<rect x="67.8095" y="36.1274" width="4.51612" height="4.51612" fill="#A0A0FF"/>
<rect x="67.8095" y="22.5791" width="4.51612" height="4.51612" fill="#5A5AB5"/>
<rect x="67.8095" y="40.6436" width="4.51612" height="4.51612" fill="#5A5AB5"/>
<rect x="67.8095" y="27.0952" width="4.51612" height="4.51612" fill="#A0A0FF"/>
<rect x="67.8095" y="18.0635" width="4.51612" height="4.51612" fill="#A0A0FF"/>
<rect x="54.2612" y="31.6118" width="4.51612" height="4.51612" transform="rotate(90 54.2612 31.6118)" fill="#A0A0FF"/>
<rect x="81.3579" y="31.6118" width="4.51612" height="4.51612" transform="rotate(90 81.3579 31.6118)" fill="#A0A0FF"/>
<rect x="63.2934" y="31.6118" width="4.51612" height="4.51612" transform="rotate(90 63.2934 31.6118)" fill="#A0A0FF"/>
<rect x="67.8095" y="31.6118" width="4.51612" height="4.51612" transform="rotate(90 67.8095 31.6118)" fill="#5A5AB5"/>
<rect x="58.7773" y="31.6118" width="4.51612" height="4.51612" transform="rotate(90 58.7773 31.6118)" fill="#5A5AB5"/>
<rect x="85.874" y="31.6118" width="4.51612" height="4.51612" transform="rotate(90 85.874 31.6118)" fill="#5A5AB5"/>
<rect x="49.745" y="31.6118" width="4.51612" height="4.51612" transform="rotate(90 49.745 31.6118)" fill="#5A5AB5"/>
<rect x="94.9062" y="31.6118" width="4.51612" height="4.51612" transform="rotate(90 94.9062 31.6118)" fill="#5A5AB5"/>
<rect x="76.8417" y="31.6118" width="4.51612" height="4.51612" transform="rotate(90 76.8417 31.6118)" fill="#5A5AB5"/>
</svg>
