<svg xmlns="http://www.w3.org/2000/svg" width="429" height="208" viewBox="0 0 429 208" fill="none">
  <path d="M152.22 179.903H138.381V207.581H124.543V193.742H110.707V179.904H124.543V166.065H138.381V166.064H152.22V179.903ZM166.058 207.581H138.384V179.904H166.058V207.581ZM179.898 207.581H166.06V193.742H179.898V207.581ZM193.739 193.742H207.575V179.904H221.414V207.581H179.9V179.904H193.739V193.742ZM249.091 207.581H221.416V193.742H235.252V179.904H249.091V207.581ZM262.932 207.581H249.093V193.742H262.932V207.581ZM276.772 207.581H262.934V179.904H276.772V207.581ZM290.612 166.065H304.448V207.581H276.774V179.904H290.61V179.903H276.774V166.064H290.612V166.065ZM96.8643 193.742H69.1895V166.065H96.8643V193.742ZM110.705 193.742H96.8662V166.065H110.705V193.742ZM332.125 193.742H304.451V179.904H318.287V166.065H332.125V193.742ZM359.802 193.742H332.127V166.065H359.802V193.742ZM69.1875 179.904H41.5127V166.065H69.1875V179.904ZM387.479 179.904H359.804V166.065H387.479V179.904ZM179.898 179.903H166.06V152.227H179.898V179.903ZM221.414 179.903H207.575V124.55H221.414V179.903ZM276.566 152.227H262.932V179.903H249.093V152.227H262.729V124.55H276.566V152.227ZM41.5107 166.064H27.6719V138.388H41.5107V166.064ZM69.1875 110.711H55.3516V138.388H69.1875V152.227H55.3516V166.064H41.5127V152.226H55.3486V138.388H41.5127V96.8721H69.1875V110.711ZM83.0283 166.064H69.1895V152.226H83.0283V166.064ZM124.545 166.064H110.707V152.226H124.545V166.064ZM332.125 152.227H318.289V166.064H304.451V152.226H318.287V124.55H332.125V152.227ZM359.802 166.064H345.963V152.226H359.802V166.064ZM387.48 110.711H387.479V138.388H373.643V152.226H387.479V166.064H373.64V152.227H359.804V138.388H373.64V110.711H373.642V96.8721H387.48V110.711ZM401.319 166.064H387.48V138.388H401.319V166.064ZM27.6699 110.711H13.8389V138.388H27.6699V152.227H13.8311V138.388H0V96.8721H27.6699V110.711ZM110.705 152.227H96.8662V124.55H110.705V152.227ZM166.058 152.227H152.22V124.55H166.058V152.227ZM428.998 110.711H428.996V138.388H415.16V152.227H401.321V138.388H415.157V110.711H415.159V96.8721H428.998V110.711ZM96.8643 124.55H83.0254V110.711H69.1895V96.8721H96.8643V124.55ZM345.963 110.711H345.966V124.55H332.127V110.711H318.289V96.8721H345.963V110.711ZM166.058 124.549H152.22V110.711H138.384V96.8721H166.058V124.549ZM235.252 110.711H221.414V124.549H207.575V110.711H179.9V96.8721H235.252V110.711ZM276.566 96.8721H290.61V110.711H276.566V124.549H262.729V110.711H249.095V96.8721H262.729V83.0332H276.566V96.8721ZM41.5107 110.711H27.6719V96.8721H41.5107V110.711ZM110.705 110.711H96.8662V96.8721H110.705V110.711ZM138.381 110.711H110.707V96.8721H138.381V110.711ZM179.898 110.711H166.06V96.8721H179.898V110.711ZM249.093 110.711H235.254V96.8721H249.093V110.711ZM318.287 110.711H290.612V96.8721H318.287V110.711ZM373.64 110.711H345.966V96.8721H373.64V110.711ZM415.157 110.711H387.482V96.8721H415.157V110.711ZM262.934 110.71H262.936V96.8721H262.934V110.71ZM27.6699 69.1943H13.8389V96.8711H0V69.1943H13.8311V55.3555H27.6699V69.1943ZM69.1875 69.1943H55.3516V96.8711H41.5127V69.1943H55.3486V55.3555H69.1875V69.1943ZM96.8643 96.8711H83.0254V83.0322H96.8643V96.8711ZM166.058 96.8711H152.22V55.3555H166.058V96.8711ZM221.414 96.8711H207.575V55.3555H221.414V96.8711ZM345.966 96.8711H332.127V83.0322H345.966V96.8711ZM373.643 69.1943H387.479V96.8711H373.64V69.1943H359.804V55.3555H373.643V69.1943ZM415.16 69.1943H428.996V96.8711H415.157V69.1943H401.321V55.3555H415.16V69.1943ZM110.705 83.0332H96.8662V55.3555H110.705V83.0332ZM332.125 83.0332H318.287V55.3555H332.125V83.0332ZM262.932 55.3555H276.566V83.0322H262.729V55.3555H249.093V27.6777H262.932V55.3555ZM41.5107 69.1943H27.6719V55.3555H41.5107V69.1943ZM401.319 69.1943H387.48V55.3555H401.319V69.1943ZM179.898 55.3555H166.06V27.6777H179.898V55.3555ZM41.5107 55.3545H27.6719V41.5166H41.5107V55.3545ZM69.1875 41.5166H55.3516V55.3545H41.5127V27.6777H69.1875V41.5166ZM96.8643 41.5166H83.0283V55.3545H69.1895V13.8398H96.8643V41.5166ZM138.381 27.6777H138.384V13.8398H166.058V27.6787H152.22V41.5166H124.545V55.3545H110.707V41.5166H124.543V27.6787H110.707V13.8398H138.381V27.6777ZM221.414 55.3545H207.575V13.8398H221.414V55.3545ZM332.125 41.5166H318.289V55.3545H304.451V41.5166H318.287V27.6787H304.451V13.8398H332.125V41.5166ZM359.802 55.3545H345.963V41.5166H332.127V13.8398H359.802V55.3545ZM387.479 55.3545H373.64V41.5166H359.804V27.6777H387.479V55.3545ZM401.319 55.3545H387.48V41.5166H401.319V55.3545ZM110.705 41.5166H96.8662V13.8398H110.705V41.5166ZM304.448 41.5166H276.774V13.8398H304.448V41.5166ZM276.772 27.6787H262.934V13.8398H276.772V27.6787ZM221.414 13.8389H207.575V13.8398H193.739V27.6777H179.9V0.000976562H207.575V0H221.414V13.8389ZM249.091 27.6777H235.252V13.8398H221.416V0.000976562H249.091V27.6777ZM138.381 13.8389H124.543V0H138.381V13.8389ZM166.058 13.8389H138.384V0H166.058V13.8389ZM179.898 13.8389H166.06V0H179.898V13.8389ZM262.932 13.8389H249.093V0H262.932V13.8389ZM276.772 13.8389H262.934V0H276.772V13.8389ZM304.448 13.8389H276.774V0H304.448V13.8389Z" fill="url(#paint0_linear_4552_71674)" fill-opacity="0.25"/>
  <defs>
    <linearGradient id="paint0_linear_4552_71674" x1="214.846" y1="-171.531" x2="214.499" y2="245.066" gradientUnits="userSpaceOnUse">
      <stop stop-color="#1C1C3F" stop-opacity="0"/>
      <stop offset="0.389423" stop-color="#5A5AB5"/>
    </linearGradient>
  </defs>
</svg>