<svg width="128" height="128" viewBox="0 0 128 128" fill="none" xmlns="http://www.w3.org/2000/svg">
<g clip-path="url(#clip0_1809_2536)">
<path d="M28.9627 50.3522V57.4978H29.7399H36.6097V49.9009H28.9627V50.3522Z" fill="#E5E1E6"/>
<path d="M51.9033 34.7319H44.2563V37.4021V42.3163H36.6092V44.7985V49.9007H44.2563V80.2508H36.6092V83.297V87.8477H43.5166H44.2563V88.299V92.7493V103.016H51.9033L51.9033 80.2508H59.5504V72.6664H51.9033V34.7319Z" fill="#E5E1E6"/>
<path d="M59.5501 44.6105V49.2113V49.9008H60.6031H67.1971V42.3164H59.5501V44.6105Z" fill="#E5E1E6"/>
<path d="M82.4918 27.1353L74.8447 27.1353V34.7322H67.1977V42.3165H74.7695H74.8447V49.763V49.9009V53.9752V58.2751V65.0822H59.5506L59.5506 72.6666H74.8447V95.4323H82.4918V87.8479H88.4966H90.1389V80.251H82.4918V27.1353Z" fill="#E5E1E6"/>
<path d="M90.1387 80.2509H93.21H97.5475H97.7857V72.6665H90.1387V80.2509Z" fill="#E5E1E6"/>
<g filter="url(#filter0_d_1809_2536)">
<g filter="url(#filter1_dd_1809_2536)">
<path fill-rule="evenodd" clip-rule="evenodd" d="M115.956 93.9928C99.3959 122.688 62.7025 132.516 34.0072 115.956C5.31194 99.3959 -4.51642 62.7025 12.0439 34.0072C28.6041 5.31194 65.2975 -4.51642 93.9928 12.0439C122.688 28.6041 132.516 65.2975 115.956 93.9928ZM23.1384 102.655C20.067 94.745 19.553 84.6408 21.634 73.7719C18.5752 70.9012 15.8674 68.0178 13.5733 65.2097C11.4045 62.5521 9.57423 59.9195 8.15765 57.3621C6.21454 73.797 11.6302 90.4952 23.1509 102.655H23.1384ZM9.32351 50.8308C10.5019 54.391 12.9214 58.4778 16.4691 62.8404C18.2493 65.0217 20.2927 67.2406 22.5742 69.4846C23.3766 66.2628 24.4045 62.9908 25.6456 59.7064C25.8336 59.9822 26.0468 60.2329 26.2849 60.4711C26.987 61.1731 27.8645 61.6745 28.8172 61.9253C27.5135 65.4855 26.4855 68.9957 25.7208 72.4431C27.7391 74.2734 29.9204 76.0911 32.2396 77.9089C32.1769 78.2599 32.1393 78.6234 32.1393 78.9995V82.5473C29.582 80.6292 27.175 78.6861 24.9185 76.7305C24.3168 80.5415 24.0535 84.2271 24.1413 87.6996C24.4171 98.932 28.1779 107.406 34.5588 111.857L39.7864 102.793C40.0246 103.796 40.5386 104.724 41.2782 105.463C41.554 105.739 41.8423 105.977 42.1557 106.178L37.8308 113.675C44.8009 116.683 53.8018 115.618 63.4045 110.378C66.4508 108.71 69.5097 106.654 72.5183 104.222C67.9552 102.643 63.204 100.687 58.3775 98.393V94.231C64.3949 97.202 70.2869 99.5965 75.8279 101.389C76.4547 100.825 77.069 100.236 77.6832 99.6341H82.7478C82.7478 99.6341 82.8732 99.6341 82.9359 99.6341C81.9581 100.675 80.9677 101.677 79.9773 102.643C83.0612 103.508 86.0072 104.16 88.7903 104.611C94.3438 105.514 99.0825 105.564 102.756 104.799C106.579 101.163 109.939 96.9388 112.709 92.1374C116.658 85.3052 119.002 77.9966 119.867 70.6254C116.947 70.6755 113.762 70.4123 110.378 69.8607C103.746 68.7825 96.2493 66.6013 88.3766 63.4045V59.3428C92.4007 61.0352 96.3245 62.4518 100.073 63.58C102.806 55.3689 104.059 47.3959 103.884 40.3004C103.621 29.3563 100.035 21.0323 93.9552 16.4942L88.3766 26.1596C88.2888 24.7931 87.7122 23.5019 86.7343 22.5366C86.609 22.4113 86.4836 22.2859 86.3457 22.1856L90.7334 14.5762C83.7006 11.2666 74.474 12.2444 64.608 17.635C59.7816 20.2676 54.9426 23.8905 50.3293 28.4036H45.2647C45.2647 28.4036 45.1393 28.4036 45.0767 28.4036C55.068 17.7227 66.5386 10.9156 77.0439 9.29844C62.013 5.71309 46.2174 8.54627 33.4431 16.7951C34.7469 19.1895 36.4894 21.7594 38.6581 24.4171C39.8867 25.9214 41.2531 27.4633 42.7324 29.0053C42.2059 29.2685 41.717 29.6196 41.2782 30.0583C40.7893 30.5472 40.4007 31.1114 40.1249 31.7256C38.5328 30.0709 37.066 28.4286 35.7498 26.7989C33.581 24.1413 31.7632 21.5087 30.3467 18.9638C24.4045 23.4016 19.2396 29.093 15.3033 35.9253C12.5328 40.7266 10.5521 45.7536 9.31097 50.8809L9.32351 50.8308ZM97.7035 109.049C84.4402 118.952 67.2657 122.6 50.9812 118.714C59.3679 117.423 68.3689 112.822 76.743 105.576C80.7671 106.792 84.6032 107.695 88.1885 108.284C91.5733 108.836 94.77 109.099 97.6909 109.049H97.7035ZM120.193 66.852C117.46 66.9272 114.377 66.689 110.992 66.15C108.673 65.7739 106.228 65.2599 103.696 64.5955C108.56 49.878 108.936 35.7247 104.899 25.3573C115.53 36.5897 120.971 51.6832 120.206 66.8645L120.193 66.852Z" fill="url(#paint0_linear_1809_2536)"/>
</g>
</g>
</g>
<defs>
<filter id="filter0_d_1809_2536" x="-4.78054" y="-4.78054" width="137.561" height="137.561" filterUnits="userSpaceOnUse" color-interpolation-filters="sRGB">
<feFlood flood-opacity="0" result="BackgroundImageFix"/>
<feColorMatrix in="SourceAlpha" type="matrix" values="0 0 0 0 0 0 0 0 0 0 0 0 0 0 0 0 0 0 127 0" result="hardAlpha"/>
<feOffset/>
<feGaussianBlur stdDeviation="4.39027"/>
<feComposite in2="hardAlpha" operator="out"/>
<feColorMatrix type="matrix" values="0 0 0 0 0.6645 0 0 0 0 0.2375 0 0 0 0 1 0 0 0 0.5 0"/>
<feBlend mode="normal" in2="BackgroundImageFix" result="effect1_dropShadow_1809_2536"/>
<feBlend mode="normal" in="SourceGraphic" in2="effect1_dropShadow_1809_2536" result="shape"/>
</filter>
<filter id="filter1_dd_1809_2536" x="-0.390271" y="1.07315" width="128.781" height="125.854" filterUnits="userSpaceOnUse" color-interpolation-filters="sRGB">
<feFlood flood-opacity="0" result="BackgroundImageFix"/>
<feColorMatrix in="SourceAlpha" type="matrix" values="0 0 0 0 0 0 0 0 0 0 0 0 0 0 0 0 0 0 127 0" result="hardAlpha"/>
<feOffset dx="1.46342"/>
<feGaussianBlur stdDeviation="1.46342"/>
<feComposite in2="hardAlpha" operator="out"/>
<feColorMatrix type="matrix" values="0 0 0 0 0.564706 0 0 0 0 0.580392 0 0 0 0 1 0 0 0 0.3 0"/>
<feBlend mode="normal" in2="BackgroundImageFix" result="effect1_dropShadow_1809_2536"/>
<feColorMatrix in="SourceAlpha" type="matrix" values="0 0 0 0 0 0 0 0 0 0 0 0 0 0 0 0 0 0 127 0" result="hardAlpha"/>
<feOffset dx="-1.46342"/>
<feGaussianBlur stdDeviation="1.46342"/>
<feComposite in2="hardAlpha" operator="out"/>
<feColorMatrix type="matrix" values="0 0 0 0 1 0 0 0 0 0.890196 0 0 0 0 0.494118 0 0 0 0.3 0"/>
<feBlend mode="normal" in2="effect1_dropShadow_1809_2536" result="effect2_dropShadow_1809_2536"/>
<feBlend mode="normal" in="SourceGraphic" in2="effect2_dropShadow_1809_2536" result="shape"/>
</filter>
<linearGradient id="paint0_linear_1809_2536" x1="20.9199" y1="20.0129" x2="62.7898" y2="125.731" gradientUnits="userSpaceOnUse">
<stop stop-color="#FFE27D"/>
<stop offset="0.505208" stop-color="#64E3FF"/>
<stop offset="1" stop-color="#9192FF"/>
</linearGradient>
<clipPath id="clip0_1809_2536">
<rect width="128" height="128" fill="white"/>
</clipPath>
</defs>
</svg>
