<svg xmlns="http://www.w3.org/2000/svg" viewBox="0 0 128 128" fill="none">
  <g filter="url(#filter0_d_5453_22624)">
    <path d="M67.5449 103.001H60.4551V99.4551H67.5449V103.001ZM74.6348 95.9072H67.5449V95.9082H71.0898V99.4531H67.5439V99.4521H60.4561V99.4531H56.9102V95.9082H60.4551V95.9072H53.3652V71.0928H74.6348V95.9072ZM53.3604 92.3623H46.2754V71.0928H53.3604V92.3623ZM81.7246 92.3623H74.6396V71.0928H81.7246V92.3623ZM46.2705 88.8174H42.7246V85.2725H39.1855V71.0928H46.2705V88.8174ZM88.8145 85.2725H85.2754V88.8174H81.7295V71.0928H88.8145V85.2725ZM39.1807 81.7275H35.6348V78.1826H32.0898V74.6377H28.5449V71.0928H39.1807V81.7275ZM99.4551 74.6377H95.9102V78.1826H92.3652V81.7275H88.8193V71.0928H99.4551V74.6377ZM39.1807 71.0908H25V60.4551H39.1807V71.0908ZM46.2705 71.0908H39.1855V60.4551H46.2705V71.0908ZM53.3604 71.0908H46.2754V60.4551H53.3604V71.0908ZM74.6348 71.0908H53.3652V60.4551H74.6348V71.0908ZM81.7246 71.0908H74.6396V60.4551H81.7246V71.0908ZM88.8145 71.0908H81.7295V60.4551H88.8145V71.0908ZM103 71.0908H88.8193V60.4551H103V71.0908ZM39.1807 60.4521H35.6348V60.4531H32.0898V60.4521H28.5459V60.4531H25V56.9082L28.5449 56.9072H25V49.8164H28.5449V39.1816H32.0898V32.0918H39.1807V60.4521ZM74.6348 60.4521H71.0898V60.4531H67.5439V60.4521H60.4561V60.4531H56.9102V60.4521H53.3652V49.8164H74.6348V60.4521ZM95.9102 39.1816H99.4551V49.8164H103V56.9072H99.4551V56.9082H103V60.4531H99.4541V60.4521H95.9102V60.4531H92.3652V60.4521H88.8193V32.0918H95.9102V39.1816ZM42.7314 35.6367H46.2705V60.4521H39.1855V32.0918H42.7314V35.6367ZM49.8213 49.8164H53.3604V60.4521H46.2754V42.7266H49.8213V49.8164ZM81.7246 60.4521H74.6396V49.8164H78.1787V42.7266H81.7246V60.4521ZM88.8145 60.4521H81.7295V35.6367H85.2686V32.0918H88.8145V60.4521ZM32.0908 56.9082H35.6348V56.9072H32.0908V56.9082ZM67.5449 56.9082H71.0889V56.9072H67.5449V56.9082ZM92.3652 56.9082H95.9092V56.9072H92.3652V56.9082ZM39.1807 32.0898H35.6348V25H39.1807V32.0898ZM42.7314 32.0898H39.1855V28.5449H42.7314V32.0898ZM88.8145 32.0898H85.2686V28.5449H88.8145V32.0898ZM92.3652 32.0898H88.8193V25H92.3652V32.0898Z" fill="white"/>
  </g>
  <defs>
    <filter id="filter0_d_5453_22624" x="-21" y="-21" width="170" height="170" filterUnits="userSpaceOnUse" color-interpolation-filters="sRGB">
      <feFlood flood-opacity="0" result="BackgroundImageFix"/>
      <feColorMatrix in="SourceAlpha" type="matrix" values="0 0 0 0 0 0 0 0 0 0 0 0 0 0 0 0 0 0 127 0" result="hardAlpha"/>
      <feOffset/>
      <feGaussianBlur stdDeviation="12.5"/>
      <feComposite in2="hardAlpha" operator="out"/>
      <feColorMatrix type="matrix" values="0 0 0 0 0.760784 0 0 0 0 0.760784 0 0 0 0 1 0 0 0 0.65 0"/>
      <feBlend mode="normal" in2="BackgroundImageFix" result="effect1_dropShadow_5453_22624"/>
      <feBlend mode="normal" in="SourceGraphic" in2="effect1_dropShadow_5453_22624" result="shape"/>
    </filter>
  </defs>
</svg>