<svg xmlns="http://www.w3.org/2000/svg" width="200" height="200" fill="none"><path fill="#fff" d="M.5.5h199v199H.5z"/><path fill="#E24329" d="m181.203 83.043-.236-.604-22.866-59.675a5.96 5.96 0 0 0-2.353-2.834 6.12 6.12 0 0 0-6.998.376 6.12 6.12 0 0 0-2.03 3.079l-15.439 47.237H68.762l-15.44-47.237a6 6 0 0 0-2.029-3.088 6.12 6.12 0 0 0-6.998-.376 6 6 0 0 0-2.353 2.834l-22.91 59.65-.227.603a42.46 42.46 0 0 0 14.084 49.074l.078.061.21.149 34.833 26.085 17.233 13.042 10.497 7.926a7.06 7.06 0 0 0 8.537 0l10.497-7.926 17.233-13.042 35.043-26.243.087-.07a42.476 42.476 0 0 0 14.066-49.02"/><path fill="#FC6D26" d="m181.203 83.043-.236-.604a77.2 77.2 0 0 0-30.747 13.822L100 134.234a46644 46644 0 0 0 31.99 24.178l35.042-26.243.088-.07a42.476 42.476 0 0 0 14.083-49.056"/><path fill="#FCA326" d="m68.01 158.412 17.232 13.043 10.498 7.925a7.06 7.06 0 0 0 8.537 0l10.497-7.925 17.233-13.043s-14.906-11.276-32.008-24.178a24167 24167 0 0 0-31.99 24.178"/><path fill="#FC6D26" d="M49.771 96.26a77.14 77.14 0 0 0-30.738-13.855l-.228.603a42.46 42.46 0 0 0 14.084 49.074l.078.061.21.149 34.833 26.085s14.87-11.24 31.99-24.178z"/></svg>