<svg xmlns="http://www.w3.org/2000/svg" viewBox="0 0 134 134" fill="none">
  <g filter="url(#filter0_d_5453_22599)">
    <path d="M108.25 55.75V78.25H104.5V85.75H100.75V93.25H97V97H93.25V100.75H89.5V104.5H82V108.25H78.25V89.5H74.5V85.75H78.25V82H85.75V78.25H89.5V74.5H93.25V55.75H89.5V44.5H82V48.25H78.25V52H74.5V48.25H59.5V52H55.75V48.25H52V44.5H44.5V55.75H40.75V74.5H44.5V78.25H48.25V82H55.75V89.5H48.25V85.75H44.5V82H37V85.75H40.75V93.25H44.5V97H55.75V108.25H52V104.5H44.5V100.75H40.75V97H37V93.25H33.25V85.75H29.5V78.25H25.75V55.75H29.5V48.25H33.25V40.75H37V37H40.75V33.25H48.25V29.5H55.75V25.75H78.25V29.5H85.75V33.25H93.25V37H97V40.75H100.75V48.25H104.5V55.75H108.25Z" fill="white"/>
  </g>
  <defs>
    <filter id="filter0_d_5453_22599" x="-18" y="-18" width="170" height="170" filterUnits="userSpaceOnUse" color-interpolation-filters="sRGB">
      <feFlood flood-opacity="0" result="BackgroundImageFix"/>
      <feColorMatrix in="SourceAlpha" type="matrix" values="0 0 0 0 0 0 0 0 0 0 0 0 0 0 0 0 0 0 127 0" result="hardAlpha"/>
      <feOffset/>
      <feGaussianBlur stdDeviation="12.5"/>
      <feComposite in2="hardAlpha" operator="out"/>
      <feColorMatrix type="matrix" values="0 0 0 0 0.760784 0 0 0 0 0.760784 0 0 0 0 1 0 0 0 0.65 0"/>
      <feBlend mode="normal" in2="BackgroundImageFix" result="effect1_dropShadow_5453_22599"/>
      <feBlend mode="normal" in="SourceGraphic" in2="effect1_dropShadow_5453_22599" result="shape"/>
    </filter>
  </defs>
</svg>