<svg width="281" height="36" viewBox="0 0 281 36" fill="none" xmlns="http://www.w3.org/2000/svg">
<path d="M275.574 30.159C274.79 30.159 274.063 29.9629 273.394 29.5706C272.725 29.1784 272.182 28.6477 271.767 27.9785C271.375 27.3094 271.179 26.571 271.179 25.7634V17.18H269.067V12.3345H271.49L273.567 7.66211H276.786V12.3345H280.004V15.7956L278.758 17.18H276.786V24.0329C276.786 24.3098 276.855 24.5175 276.993 24.6559C277.132 24.7943 277.328 24.8636 277.582 24.8636H280.247V30.159H275.574Z" fill="#F2F4F7"/>
<path d="M254.685 30.1604V25.3149H261.261C261.515 25.3149 261.699 25.2572 261.815 25.1419C261.953 25.0034 262.022 24.8304 262.022 24.6227V24.415C262.022 24.2074 261.953 24.0459 261.815 23.9305C261.699 23.8151 261.492 23.7113 261.192 23.619L258.111 22.6845C257.35 22.4307 256.716 22.1423 256.208 21.8192C255.723 21.4731 255.343 21.0463 255.066 20.5386C254.812 20.008 254.685 19.385 254.685 18.6697V16.7315C254.685 15.9239 254.881 15.1855 255.273 14.5164C255.689 13.8473 256.231 13.3166 256.9 12.9243C257.569 12.5321 258.296 12.3359 259.081 12.3359H267.145V15.797L265.899 17.1814H261.157C260.903 17.1814 260.707 17.2391 260.569 17.3545C260.453 17.4468 260.396 17.5967 260.396 17.8044V17.9775C260.396 18.1621 260.465 18.3236 260.603 18.462C260.742 18.6005 260.95 18.7043 261.226 18.7735L264.341 19.7426C265.103 19.9733 265.726 20.2618 266.21 20.6079C266.718 20.9309 267.099 21.3462 267.353 21.8539C267.606 22.3615 267.733 22.9729 267.733 23.6882V25.7648C267.733 26.5724 267.537 27.3108 267.145 27.9799C266.753 28.6491 266.222 29.1798 265.553 29.572C264.884 29.9643 264.145 30.1604 263.338 30.1604H254.685Z" fill="#F2F4F7"/>
<path d="M242.321 30.1559C241.513 30.1559 240.775 29.9598 240.106 29.5675C239.437 29.1753 238.906 28.6446 238.514 27.9754C238.121 27.3063 237.925 26.5679 237.925 25.7604V16.3809C237.925 15.5733 238.121 14.835 238.514 14.1658C238.906 13.4967 239.437 12.966 240.106 12.5737C240.775 12.1815 241.513 11.9854 242.321 11.9854H247.789C248.574 11.9854 249.301 12.1815 249.97 12.5737C250.639 12.966 251.17 13.4967 251.562 14.1658C251.977 14.835 252.185 15.5733 252.185 16.3809V23.2338H243.532V24.722C243.532 24.9989 243.601 25.2066 243.74 25.345C243.878 25.4835 244.074 25.5527 244.328 25.5527H251.354V30.1559H242.321ZM243.394 19.4958H246.682V17.35C246.682 17.0731 246.613 16.877 246.474 16.7616C246.359 16.6232 246.163 16.5539 245.886 16.5539H244.224C243.948 16.5539 243.74 16.6232 243.601 16.7616C243.463 16.877 243.394 17.0731 243.394 17.35V19.4958Z" fill="#F2F4F7"/>
<path d="M226.441 10.1543C226.441 9.34675 226.638 8.6084 227.03 7.93926C227.422 7.27012 227.953 6.73942 228.622 6.34717C229.291 5.95492 230.029 5.75879 230.837 5.75879H237.24V10.6043H232.844C232.591 10.6043 232.394 10.6735 232.256 10.8119C232.118 10.9273 232.048 11.1234 232.048 11.4003V14.0653H235.855V17.4572L235.198 18.9108H232.048V30.1593H226.441V10.1543Z" fill="#F2F4F7"/>
<path d="M213.525 30.1559V12.3315H217.055L217.851 14.235H218.024C218.301 13.6582 218.74 13.139 219.339 12.6776C219.939 12.2161 220.632 11.9854 221.416 11.9854H224.185V17.6269H220.101C219.87 17.6269 219.686 17.673 219.547 17.7653C219.409 17.8345 219.305 17.9384 219.236 18.0768C219.166 18.2153 219.132 18.3998 219.132 18.6306V30.1559H213.525Z" fill="#F2F4F7"/>
<path d="M200.746 30.1559C199.938 30.1559 199.2 29.9598 198.531 29.5675C197.861 29.1753 197.331 28.6446 196.938 27.9754C196.546 27.3063 196.35 26.5679 196.35 25.7604V16.3809C196.35 15.5733 196.546 14.835 196.938 14.1658C197.331 13.4967 197.861 12.966 198.531 12.5737C199.2 12.1815 199.938 11.9854 200.746 11.9854H206.214C206.999 11.9854 207.725 12.1815 208.395 12.5737C209.064 12.966 209.594 13.4967 209.987 14.1658C210.402 14.835 210.61 15.5733 210.61 16.3809V23.2338H201.957V24.722C201.957 24.9989 202.026 25.2066 202.165 25.345C202.303 25.4835 202.499 25.5527 202.753 25.5527H209.779V30.1559H200.746ZM201.819 19.4958H205.107V17.35C205.107 17.0731 205.037 16.877 204.899 16.7616C204.784 16.6232 204.587 16.5539 204.311 16.5539H202.649C202.372 16.5539 202.165 16.6232 202.026 16.7616C201.888 16.877 201.819 17.0731 201.819 17.35V19.4958Z" fill="#F2F4F7"/>
<path d="M179.157 30.1637V6.10938H184.764V14.1736H184.937C185.191 13.6199 185.606 13.1238 186.183 12.6854C186.783 12.2239 187.475 11.9932 188.259 11.9932H189.298C190.105 11.9932 190.832 12.1778 191.478 12.5469C192.124 12.9161 192.632 13.4353 193.001 14.1044C193.393 14.7505 193.589 15.4658 193.589 16.2503V25.7682C193.589 26.5758 193.382 27.3141 192.966 27.9833C192.574 28.6524 192.043 29.1831 191.374 29.5754C190.705 29.9676 189.978 30.1637 189.194 30.1637H179.157ZM187.29 24.9721C187.567 24.9721 187.763 24.9029 187.879 24.7645C188.017 24.626 188.086 24.4299 188.086 24.1761V17.9808C188.086 17.7039 188.017 17.5078 187.879 17.3924C187.763 17.254 187.567 17.1848 187.29 17.1848H185.975C185.652 17.1848 185.398 17.2309 185.214 17.3232C185.029 17.4155 184.879 17.5655 184.764 17.7731C184.671 17.9577 184.625 18.2 184.625 18.5V24.9721H187.29Z" fill="#F2F4F7"/>
<path d="M166.002 30.502C165.194 30.502 164.456 30.3059 163.787 29.9136C163.118 29.5214 162.587 28.9907 162.195 28.3215C161.803 27.6524 161.606 26.9141 161.606 26.1065V16.3809C161.606 15.5733 161.803 14.835 162.195 14.1658C162.587 13.4967 163.118 12.966 163.787 12.5737C164.456 12.1815 165.194 11.9854 166.002 11.9854H171.644C172.428 11.9854 173.155 12.1815 173.824 12.5737C174.493 12.966 175.024 13.4967 175.416 14.1658C175.831 14.835 176.039 15.5733 176.039 16.3809V26.1065C176.039 26.9141 175.831 27.6524 175.416 28.3215C175.024 28.9907 174.493 29.5214 173.824 29.9136C173.155 30.3059 172.428 30.502 171.644 30.502H166.002ZM169.74 25.3104C170.017 25.3104 170.213 25.2412 170.328 25.1028C170.467 24.9643 170.536 24.7682 170.536 24.5144V17.973C170.536 17.6961 170.467 17.5 170.328 17.3846C170.213 17.2462 170.017 17.1769 169.74 17.1769H167.906C167.629 17.1769 167.421 17.2462 167.283 17.3846C167.144 17.5 167.075 17.6961 167.075 17.973V24.5144C167.075 24.7682 167.144 24.9643 167.283 25.1028C167.421 25.2412 167.629 25.3104 167.906 25.3104H169.74Z" fill="#F2F4F7"/>
<path d="M154.843 30.159C154.058 30.159 153.331 29.9629 152.662 29.5706C151.993 29.1784 151.451 28.6477 151.036 27.9785C150.643 27.3094 150.447 26.571 150.447 25.7634V17.18H148.336V12.3345H150.759L152.835 7.66211H156.054V12.3345H159.273V15.7956L158.027 17.18H156.054V24.0329C156.054 24.3098 156.123 24.5175 156.262 24.6559C156.4 24.7943 156.596 24.8636 156.85 24.8636H159.515V30.159H154.843Z" fill="#F2F4F7"/>
<path d="M132.583 30.1637V6.10938H138.19V18.673H139.505L141.859 12.3393H146.946V14.9351L144.247 21.0611L147.189 27.5679V30.1637H141.928L139.505 23.7608H138.19V30.1637H132.583Z" fill="#F2F4F7"/>
<path d="M122.097 30.1604C121.289 30.1604 120.551 29.9643 119.882 29.572C119.212 29.1798 118.682 28.6491 118.29 27.9799C117.897 27.3108 117.701 26.5724 117.701 25.7648V16.7315C117.701 15.9239 117.897 15.1855 118.29 14.5164C118.682 13.8473 119.212 13.3166 119.882 12.9243C120.551 12.5321 121.289 12.3359 122.097 12.3359H129.815V16.3854L128.673 17.6314H124.104C123.85 17.6314 123.654 17.7006 123.516 17.839C123.377 17.9775 123.308 18.1851 123.308 18.462V24.0343C123.308 24.3112 123.377 24.5189 123.516 24.6573C123.654 24.7957 123.85 24.865 124.104 24.865H129.815V30.1604H122.097Z" fill="#F2F4F7"/>
<path d="M104.912 30.5065C104.105 30.5065 103.378 30.3219 102.732 29.9527C102.086 29.5835 101.567 29.0759 101.174 28.4299C100.805 27.7607 100.621 27.0339 100.621 26.2494V23.5152C100.621 22.7307 100.805 22.0154 101.174 21.3693C101.567 20.7002 102.086 20.181 102.732 19.8118C103.378 19.4426 104.105 19.2581 104.912 19.2581H109.169V17.7006C109.169 17.4237 109.1 17.2276 108.962 17.1122C108.846 16.9738 108.65 16.9045 108.373 16.9045H102.178V12.3359H110.485C111.292 12.3359 112.019 12.5205 112.665 12.8897C113.311 13.2589 113.819 13.778 114.188 14.4472C114.58 15.0932 114.776 15.8085 114.776 16.593V30.1604H111.246L110.45 28.2568H110.277C110 28.8337 109.55 29.3528 108.927 29.8143C108.327 30.2758 107.635 30.5065 106.851 30.5065H104.912ZM107.958 26.0071C108.235 26.0071 108.466 25.961 108.65 25.8687C108.858 25.7533 109.008 25.6033 109.1 25.4187C109.216 25.2111 109.273 24.9688 109.273 24.6919V22.996H106.816C106.539 22.996 106.331 23.0652 106.193 23.2037C106.054 23.3421 105.985 23.5498 105.985 23.8267V25.2111C105.985 25.4649 106.054 25.661 106.193 25.7995C106.331 25.9379 106.539 26.0071 106.816 26.0071H107.958Z" fill="#F2F4F7"/>
<path d="M83.0376 30.1532V5.92578H88.8176V15.2706H91.8633V5.92578H97.6433V30.1532H91.8633V20.6353H88.8176V30.1532H83.0376Z" fill="#F2F4F7"/>
<path d="M37.7974 22.8093V13.7998H45.9059V15.473L45.005 16.374H40.6289V17.5323H44.3614V20.1065H40.6289V22.8093H37.7974Z" fill="#C2C2FF"/>
<path d="M27.1157 22.8093V13.7998H29.9473V17.0175H33.8085V13.7998H36.6401V22.8093H33.8085V19.5916H29.9473V22.8093H27.1157Z" fill="#C2C2FF"/>
<rect x="37.2393" y="33.0078" width="2.46566" height="2.46566" fill="#5A5AB5"/>
<rect x="39.7036" y="33.0078" width="2.46566" height="2.46566" fill="#5A5AB5"/>
<rect x="39.7036" y="30.543" width="2.46566" height="2.46566" fill="#A0A0FF"/>
<rect x="42.1719" y="28.0781" width="2.46566" height="2.46566" fill="#5A5AB5"/>
<rect x="42.1719" y="25.6143" width="2.46566" height="2.46566" fill="#5A5AB5"/>
<rect width="2.46566" height="2.46566" transform="matrix(1 0 0 -1 37.2393 3.43164)" fill="#5A5AB5"/>
<rect width="2.46566" height="2.46566" transform="matrix(1 0 0 -1 39.7036 3.43164)" fill="#5A5AB5"/>
<rect width="2.46566" height="2.46566" transform="matrix(1 0 0 -1 39.7036 5.89648)" fill="#A0A0FF"/>
<rect width="2.46566" height="2.46566" transform="matrix(1 0 0 -1 42.1719 8.36035)" fill="#5A5AB5"/>
<rect width="2.46566" height="2.46566" transform="matrix(-1 0 0 1 34.771 33.0078)" fill="#5A5AB5"/>
<rect width="2.46566" height="2.46566" transform="matrix(-1 0 0 1 32.3066 33.0078)" fill="#5A5AB5"/>
<rect width="2.46566" height="2.46566" transform="matrix(-1 0 0 1 32.3066 30.543)" fill="#A0A0FF"/>
<rect width="2.46566" height="2.46566" transform="matrix(-1 0 0 1 29.8384 28.0781)" fill="#5A5AB5"/>
<rect width="2.46566" height="2.46566" transform="matrix(-1 0 0 1 29.8384 25.6143)" fill="#5A5AB5"/>
<rect x="34.771" y="3.43164" width="2.46566" height="2.46566" transform="rotate(180 34.771 3.43164)" fill="#5A5AB5"/>
<rect x="32.3066" y="3.43164" width="2.46566" height="2.46566" transform="rotate(180 32.3066 3.43164)" fill="#5A5AB5"/>
<rect x="32.3066" y="5.89648" width="2.46566" height="2.46566" transform="rotate(180 32.3066 5.89648)" fill="#A0A0FF"/>
<rect x="29.8384" y="8.36035" width="2.46566" height="2.46566" transform="rotate(180 29.8384 8.36035)" fill="#5A5AB5"/>
<rect x="42.1602" y="0.958008" width="2.46566" height="2.46566" fill="#A0A0FF"/>
<rect x="44.6245" y="3.42188" width="2.46566" height="2.46566" fill="#5A5AB5"/>
<rect x="47.0928" y="3.42188" width="2.46566" height="2.46566" fill="#A0A0FF"/>
<rect x="49.5571" y="5.88672" width="2.46566" height="2.46566" fill="#A0A0FF"/>
<rect x="52.0254" y="8.35156" width="2.46566" height="2.46566" fill="#5A5AB5"/>
<rect x="52.0254" y="10.8242" width="2.46566" height="2.46566" fill="#A0A0FF"/>
<rect x="54.4897" y="13.2881" width="2.46566" height="2.46566" fill="#A0A0FF"/>
<rect x="54.4897" y="15.752" width="2.46566" height="2.46566" fill="#5A5AB5"/>
<rect width="2.46566" height="2.46566" transform="matrix(1 0 0 -1 42.1602 35.4863)" fill="#A0A0FF"/>
<rect width="2.46566" height="2.46566" transform="matrix(1 0 0 -1 44.6245 33.0225)" fill="#5A5AB5"/>
<rect width="2.46566" height="2.46566" transform="matrix(1 0 0 -1 47.0928 33.0225)" fill="#A0A0FF"/>
<rect width="2.46566" height="2.46566" transform="matrix(1 0 0 -1 49.5571 30.5576)" fill="#A0A0FF"/>
<rect width="2.46566" height="2.46566" transform="matrix(1 0 0 -1 52.0254 28.0928)" fill="#5A5AB5"/>
<rect width="2.46566" height="2.46566" transform="matrix(1 0 0 -1 52.0254 25.6201)" fill="#A0A0FF"/>
<rect width="2.46566" height="2.46566" transform="matrix(1 0 0 -1 54.4897 23.1562)" fill="#A0A0FF"/>
<rect width="2.46566" height="2.46566" transform="matrix(1 0 0 -1 54.4897 20.6924)" fill="#5A5AB5"/>
<rect width="2.46566" height="2.46566" transform="matrix(-1 0 0 1 29.8438 0.958008)" fill="#A0A0FF"/>
<rect width="2.46566" height="2.46566" transform="matrix(-1 0 0 1 27.3794 3.42188)" fill="#5A5AB5"/>
<rect width="2.46566" height="2.46566" transform="matrix(-1 0 0 1 24.9111 3.42188)" fill="#A0A0FF"/>
<rect width="2.46566" height="2.46566" transform="matrix(-1 0 0 1 22.4468 5.88672)" fill="#A0A0FF"/>
<rect width="2.46566" height="2.46566" transform="matrix(-1 0 0 1 19.9785 8.35156)" fill="#5A5AB5"/>
<rect width="2.46566" height="2.46566" transform="matrix(-1 0 0 1 19.9785 10.8242)" fill="#A0A0FF"/>
<rect width="2.46566" height="2.46566" transform="matrix(-1 0 0 1 17.5142 13.2881)" fill="#A0A0FF"/>
<rect width="2.46566" height="2.46566" transform="matrix(-1 0 0 1 17.5142 15.752)" fill="#5A5AB5"/>
<rect x="29.8438" y="35.4863" width="2.46566" height="2.46566" transform="rotate(180 29.8438 35.4863)" fill="#A0A0FF"/>
<rect x="27.3794" y="33.0225" width="2.46566" height="2.46566" transform="rotate(180 27.3794 33.0225)" fill="#5A5AB5"/>
<rect x="24.9111" y="33.0225" width="2.46566" height="2.46566" transform="rotate(180 24.9111 33.0225)" fill="#A0A0FF"/>
<rect x="22.4468" y="30.5576" width="2.46566" height="2.46566" transform="rotate(180 22.4468 30.5576)" fill="#A0A0FF"/>
<rect x="19.9785" y="28.0928" width="2.46566" height="2.46566" transform="rotate(180 19.9785 28.0928)" fill="#5A5AB5"/>
<rect x="19.9785" y="25.6201" width="2.46566" height="2.46566" transform="rotate(180 19.9785 25.6201)" fill="#A0A0FF"/>
<rect x="17.5142" y="23.1562" width="2.46566" height="2.46566" transform="rotate(180 17.5142 23.1562)" fill="#A0A0FF"/>
<rect x="17.5142" y="20.6924" width="2.46566" height="2.46566" transform="rotate(180 17.5142 20.6924)" fill="#5A5AB5"/>
<rect x="47.1006" y="0.959961" width="2.46566" height="2.46566" fill="#5A5AB5"/>
<rect x="49.5688" y="3.42383" width="2.46566" height="2.46566" fill="#5A5AB5"/>
<rect x="49.5688" y="0.959961" width="2.46566" height="2.46566" fill="#A0A0FF"/>
<rect x="52.0332" y="3.42383" width="2.46566" height="2.46566" fill="#A0A0FF"/>
<rect x="54.5015" y="5.88867" width="2.46566" height="2.46566" fill="#A0A0FF"/>
<rect x="54.5015" y="3.42383" width="2.46566" height="2.46566" fill="#5A5AB5"/>
<rect x="56.9658" y="5.88867" width="2.46566" height="2.46566" fill="#5A5AB5"/>
<rect x="59.4307" y="8.35352" width="2.46566" height="2.46566" fill="#5A5AB5"/>
<rect x="61.895" y="10.8262" width="2.46566" height="2.46566" fill="#A0A0FF"/>
<rect x="61.895" y="13.29" width="2.46566" height="2.46566" fill="#5A5AB5"/>
<rect x="44.6362" y="0.959961" width="2.46566" height="2.46566" fill="#5A5AB5"/>
<rect width="2.46566" height="2.46566" transform="matrix(1 0 0 -1 47.1006 35.4883)" fill="#5A5AB5"/>
<rect width="2.46566" height="2.46566" transform="matrix(1 0 0 -1 44.6362 35.4883)" fill="#5A5AB5"/>
<rect width="2.46566" height="2.46566" transform="matrix(1 0 0 -1 49.5688 33.0244)" fill="#5A5AB5"/>
<rect width="2.46566" height="2.46566" transform="matrix(1 0 0 -1 49.5688 35.4883)" fill="#A0A0FF"/>
<rect width="2.46566" height="2.46566" transform="matrix(1 0 0 -1 52.0332 33.0244)" fill="#A0A0FF"/>
<rect width="2.46566" height="2.46566" transform="matrix(1 0 0 -1 54.5015 30.5596)" fill="#A0A0FF"/>
<rect width="2.46566" height="2.46566" transform="matrix(1 0 0 -1 54.5015 33.0244)" fill="#5A5AB5"/>
<rect width="2.46566" height="2.46566" transform="matrix(1 0 0 -1 56.9658 30.5596)" fill="#5A5AB5"/>
<rect width="2.46566" height="2.46566" transform="matrix(1 0 0 -1 59.4307 28.0947)" fill="#5A5AB5"/>
<rect width="2.46566" height="2.46566" transform="matrix(1 0 0 -1 61.895 25.6221)" fill="#A0A0FF"/>
<rect width="2.46566" height="2.46566" transform="matrix(1 0 0 -1 61.895 23.1582)" fill="#5A5AB5"/>
<rect width="2.46566" height="2.46566" transform="matrix(1 0 0 -1 61.895 21.9258)" fill="#5A5AB5"/>
<rect width="2.46566" height="2.46566" transform="matrix(-1 0 0 1 24.9097 0.959961)" fill="#5A5AB5"/>
<rect width="2.46566" height="2.46566" transform="matrix(-1 0 0 1 22.4414 3.42383)" fill="#5A5AB5"/>
<rect width="2.46566" height="2.46566" transform="matrix(-1 0 0 1 22.4414 0.959961)" fill="#A0A0FF"/>
<rect width="2.46566" height="2.46566" transform="matrix(-1 0 0 1 19.9771 3.42383)" fill="#A0A0FF"/>
<rect width="2.46566" height="2.46566" transform="matrix(-1 0 0 1 17.5088 5.88867)" fill="#A0A0FF"/>
<rect width="2.46566" height="2.46566" transform="matrix(-1 0 0 1 17.5088 3.42383)" fill="#5A5AB5"/>
<rect width="2.46566" height="2.46566" transform="matrix(-1 0 0 1 15.0444 5.88867)" fill="#5A5AB5"/>
<rect width="2.46566" height="2.46566" transform="matrix(-1 0 0 1 12.5796 8.35352)" fill="#5A5AB5"/>
<rect width="2.46566" height="2.46566" transform="matrix(-1 0 0 1 10.1152 10.8262)" fill="#A0A0FF"/>
<rect width="2.46566" height="2.46566" transform="matrix(-1 0 0 1 10.1152 13.29)" fill="#5A5AB5"/>
<rect width="2.46566" height="2.46566" transform="matrix(-1 0 0 1 10.1152 15.7539)" fill="#5A5AB5"/>
<rect width="2.46566" height="2.46566" transform="matrix(-1 0 0 1 27.374 0.959961)" fill="#5A5AB5"/>
<rect x="24.9097" y="35.4883" width="2.46566" height="2.46566" transform="rotate(180 24.9097 35.4883)" fill="#5A5AB5"/>
<rect x="27.374" y="35.4883" width="2.46566" height="2.46566" transform="rotate(180 27.374 35.4883)" fill="#5A5AB5"/>
<rect x="22.4414" y="33.0244" width="2.46566" height="2.46566" transform="rotate(180 22.4414 33.0244)" fill="#5A5AB5"/>
<rect x="22.4414" y="35.4883" width="2.46566" height="2.46566" transform="rotate(180 22.4414 35.4883)" fill="#A0A0FF"/>
<rect x="19.9771" y="33.0244" width="2.46566" height="2.46566" transform="rotate(180 19.9771 33.0244)" fill="#A0A0FF"/>
<rect x="17.5088" y="30.5596" width="2.46566" height="2.46566" transform="rotate(180 17.5088 30.5596)" fill="#A0A0FF"/>
<rect x="17.5088" y="33.0244" width="2.46566" height="2.46566" transform="rotate(180 17.5088 33.0244)" fill="#5A5AB5"/>
<rect x="15.0444" y="30.5596" width="2.46566" height="2.46566" transform="rotate(180 15.0444 30.5596)" fill="#5A5AB5"/>
<rect x="12.5796" y="28.0947" width="2.46566" height="2.46566" transform="rotate(180 12.5796 28.0947)" fill="#5A5AB5"/>
<rect x="10.1152" y="25.6221" width="2.46566" height="2.46566" transform="rotate(180 10.1152 25.6221)" fill="#A0A0FF"/>
<rect x="10.1152" y="23.1582" width="2.46566" height="2.46566" transform="rotate(180 10.1152 23.1582)" fill="#5A5AB5"/>
<rect x="10.1152" y="20.6943" width="2.46566" height="2.46566" transform="rotate(180 10.1152 20.6943)" fill="#5A5AB5"/>
<rect x="56.9683" y="3.44434" width="2.46566" height="2.46566" fill="#A0A0FF"/>
<rect x="59.4326" y="3.44434" width="2.46566" height="2.46566" fill="#5A5AB5"/>
<rect x="59.4326" y="5.9082" width="2.46566" height="2.46566" fill="#A0A0FF"/>
<rect x="61.9009" y="5.9082" width="2.46566" height="2.46566" fill="#5A5AB5"/>
<rect x="64.3652" y="5.9082" width="2.46566" height="2.46566" fill="#A0A0FF"/>
<rect x="64.3652" y="8.37402" width="2.46566" height="2.46566" fill="#5A5AB5"/>
<rect x="66.8335" y="8.37402" width="2.46566" height="2.46566" fill="#A0A0FF"/>
<rect x="66.8335" y="10.8379" width="2.46566" height="2.46566" fill="#A0A0FF"/>
<rect x="69.2979" y="13.3105" width="2.46566" height="2.46566" fill="#A0A0FF"/>
<rect x="69.2979" y="15.7744" width="2.46566" height="2.46566" fill="#A0A0FF"/>
<rect width="2.46566" height="2.46566" transform="matrix(1 0 0 -1 56.9683 33.0254)" fill="#A0A0FF"/>
<rect width="2.46566" height="2.46566" transform="matrix(1 0 0 -1 59.4326 33.0254)" fill="#5A5AB5"/>
<rect width="2.46566" height="2.46566" transform="matrix(1 0 0 -1 59.4326 30.5615)" fill="#A0A0FF"/>
<rect width="2.46566" height="2.46566" transform="matrix(1 0 0 -1 61.9009 30.5615)" fill="#5A5AB5"/>
<rect width="2.46566" height="2.46566" transform="matrix(1 0 0 -1 64.3652 30.5615)" fill="#A0A0FF"/>
<rect width="2.46566" height="2.46566" transform="matrix(1 0 0 -1 64.3652 28.0967)" fill="#5A5AB5"/>
<rect width="2.46566" height="2.46566" transform="matrix(1 0 0 -1 66.8335 28.0967)" fill="#A0A0FF"/>
<rect width="2.46566" height="2.46566" transform="matrix(1 0 0 -1 66.8335 25.6318)" fill="#A0A0FF"/>
<rect width="2.46566" height="2.46566" transform="matrix(1 0 0 -1 69.2979 23.1592)" fill="#A0A0FF"/>
<rect width="2.46566" height="2.46566" transform="matrix(1 0 0 -1 69.2979 20.6953)" fill="#A0A0FF"/>
<rect width="2.46566" height="2.46566" transform="matrix(-1 0 0 1 15.0415 3.44434)" fill="#A0A0FF"/>
<rect width="2.46566" height="2.46566" transform="matrix(-1 0 0 1 12.5767 3.44434)" fill="#5A5AB5"/>
<rect width="2.46566" height="2.46566" transform="matrix(-1 0 0 1 12.5767 5.9082)" fill="#A0A0FF"/>
<rect width="2.46566" height="2.46566" transform="matrix(-1 0 0 1 10.1089 5.9082)" fill="#5A5AB5"/>
<rect width="2.46566" height="2.46566" transform="matrix(-1 0 0 1 7.64404 5.9082)" fill="#A0A0FF"/>
<rect width="2.46566" height="2.46566" transform="matrix(-1 0 0 1 7.64404 8.37402)" fill="#5A5AB5"/>
<rect width="2.46566" height="2.46566" transform="matrix(-1 0 0 1 5.17627 8.37402)" fill="#A0A0FF"/>
<rect width="2.46566" height="2.46566" transform="matrix(-1 0 0 1 5.17627 10.8379)" fill="#A0A0FF"/>
<rect width="2.46566" height="2.46566" transform="matrix(-1 0 0 1 2.71143 13.3105)" fill="#A0A0FF"/>
<rect width="2.46566" height="2.46566" transform="matrix(-1 0 0 1 2.71143 15.7744)" fill="#A0A0FF"/>
<rect x="15.0415" y="33.0254" width="2.46566" height="2.46566" transform="rotate(180 15.0415 33.0254)" fill="#A0A0FF"/>
<rect x="12.5771" y="33.0254" width="2.46566" height="2.46566" transform="rotate(180 12.5771 33.0254)" fill="#5A5AB5"/>
<rect x="12.5771" y="30.5615" width="2.46566" height="2.46566" transform="rotate(180 12.5771 30.5615)" fill="#A0A0FF"/>
<rect x="10.1089" y="30.5615" width="2.46566" height="2.46566" transform="rotate(180 10.1089 30.5615)" fill="#5A5AB5"/>
<rect x="7.64453" y="30.5615" width="2.46566" height="2.46566" transform="rotate(180 7.64453 30.5615)" fill="#A0A0FF"/>
<rect x="7.64453" y="28.0967" width="2.46566" height="2.46566" transform="rotate(180 7.64453 28.0967)" fill="#5A5AB5"/>
<rect x="5.17627" y="28.0967" width="2.46566" height="2.46566" transform="rotate(180 5.17627 28.0967)" fill="#A0A0FF"/>
<rect x="5.17627" y="25.6318" width="2.46566" height="2.46566" transform="rotate(180 5.17627 25.6318)" fill="#A0A0FF"/>
<rect x="2.71191" y="23.1592" width="2.46566" height="2.46566" transform="rotate(180 2.71191 23.1592)" fill="#A0A0FF"/>
<rect x="2.71191" y="20.6953" width="2.46566" height="2.46566" transform="rotate(180 2.71191 20.6953)" fill="#A0A0FF"/>
<rect x="34.7798" y="30.543" width="2.46566" height="2.46566" fill="#5A5AB5"/>
<rect x="34.7798" y="25.6211" width="2.46566" height="2.46566" fill="#5A5AB5"/>
<rect x="34.7798" y="5.89062" width="2.46566" height="2.46566" fill="#A0A0FF"/>
<rect x="34.7798" y="0.961914" width="2.46566" height="2.46566" fill="#A0A0FF"/>
<rect x="34.7798" y="33.0146" width="2.46566" height="2.46566" fill="#A0A0FF"/>
<rect x="34.7798" y="28.0859" width="2.46566" height="2.46566" fill="#A0A0FF"/>
<rect x="34.7798" y="8.35547" width="2.46566" height="2.46566" fill="#5A5AB5"/>
<rect x="34.7798" y="3.42578" width="2.46566" height="2.46566" fill="#5A5AB5"/>
<rect x="22.4517" y="16.9883" width="2.46566" height="2.46566" transform="rotate(90 22.4517 16.9883)" fill="#5A5AB5"/>
<rect x="12.5898" y="16.9883" width="2.46566" height="2.46566" transform="rotate(90 12.5898 16.9883)" fill="#A0A0FF"/>
<rect x="7.65723" y="16.9883" width="2.46566" height="2.46566" transform="rotate(90 7.65723 16.9883)" fill="#A0A0FF"/>
<rect x="59.4336" y="16.9883" width="2.46566" height="2.46566" transform="rotate(90 59.4336 16.9883)" fill="#5A5AB5"/>
<rect x="15.0542" y="16.9883" width="2.46566" height="2.46566" transform="rotate(90 15.0542 16.9883)" fill="#5A5AB5"/>
<rect x="64.3662" y="14.5244" width="2.46566" height="2.46566" transform="rotate(90 64.3662 14.5244)" fill="#5A5AB5"/>
<rect x="54.5044" y="16.9883" width="2.46566" height="2.46566" transform="rotate(90 54.5044 16.9883)" fill="#A0A0FF"/>
<rect x="66.8306" y="16.9883" width="2.46566" height="2.46566" transform="rotate(90 66.8306 16.9883)" fill="#A0A0FF"/>
<rect x="69.2988" y="16.9883" width="2.46566" height="2.46576" transform="rotate(90 69.2988 16.9883)" fill="#5A5AB5"/>
<rect x="19.9868" y="16.9883" width="2.46566" height="2.46566" transform="rotate(90 19.9868 16.9883)" fill="#A0A0FF"/>
<rect x="5.19238" y="16.9883" width="2.46566" height="2.46576" transform="rotate(90 5.19238 16.9883)" fill="#5A5AB5"/>
<rect x="61.9019" y="16.9883" width="2.46566" height="2.46566" transform="rotate(90 61.9019 16.9883)" fill="#A0A0FF"/>
<rect x="52.04" y="16.9883" width="2.46566" height="2.46566" transform="rotate(90 52.04 16.9883)" fill="#5A5AB5"/>
<rect x="22.4453" y="28.0879" width="2.46566" height="2.46566" fill="#5A5AB5"/>
<rect x="47.1011" y="28.0879" width="2.46566" height="2.46566" fill="#5A5AB5"/>
<rect x="27.3779" y="25.624" width="2.46566" height="2.46566" fill="#A0A0FF"/>
<rect x="42.1685" y="25.624" width="2.46566" height="2.46566" fill="#A0A0FF"/>
<rect width="2.46566" height="2.46566" transform="matrix(1 0 0 -1 22.4453 8.36426)" fill="#5A5AB5"/>
<rect width="2.46566" height="2.46566" transform="matrix(1 0 0 -1 47.1011 8.36426)" fill="#5A5AB5"/>
<rect width="2.46566" height="2.46566" transform="matrix(1 0 0 -1 27.3779 10.8281)" fill="#A0A0FF"/>
<rect width="2.46566" height="2.46566" transform="matrix(1 0 0 -1 42.1685 10.8281)" fill="#A0A0FF"/>
</svg>
