<svg xmlns="http://www.w3.org/2000/svg" width="114" height="21" viewBox="0 0 114 21" fill="none">
  <g clip-path="url(#clip0_3663_47007)">
    <path d="M10.1225 19.7895V16.1199C14.0331 16.1199 17.0412 12.2631 15.5559 8.18161C14.9919 6.66509 13.7887 5.46686 12.2658 4.90518C8.16726 3.42611 4.29431 6.4217 4.29431 10.316L0.609375 10.3347C0.609375 4.13756 6.6256 -0.692829 13.1495 1.3292C16.0072 2.20915 18.2632 4.47457 19.1469 7.30166C21.1774 13.7983 16.3456 19.7895 10.1225 19.7895Z" fill="white"/>
    <path fill-rule="evenodd" clip-rule="evenodd" d="M10.1232 16.1387H6.45703V12.4878H10.1232V16.1387Z" fill="white"/>
    <path fill-rule="evenodd" clip-rule="evenodd" d="M6.45683 18.9475H3.63672V16.1392H6.45683V18.9475Z" fill="white"/>
    <path fill-rule="evenodd" clip-rule="evenodd" d="M3.63842 16.1388H1.26953V13.7798H3.63842V16.1388Z" fill="white"/>
    <path d="M34.4522 6.32713C33.3617 5.57823 32.0081 5.18506 30.4288 5.18506H26.9883V16.0628H30.4288C32.0081 16.0628 33.3617 15.6696 34.4522 14.8646C35.0538 14.4527 35.5238 13.8535 35.8434 13.1234C36.163 12.3932 36.3322 11.532 36.3322 10.5584C36.3322 9.60356 36.163 8.74232 35.8434 8.01215C35.5238 7.30069 35.0538 6.73902 34.4522 6.32713ZM29 7.03858H30.0904C31.2936 7.03858 32.2901 7.28197 33.0421 7.73131C33.8693 8.23682 34.3018 9.19166 34.3018 10.5584C34.3018 11.9813 33.8693 12.9736 33.0421 13.5165C32.3277 13.9846 31.3312 14.228 30.1092 14.228H29V7.03858Z" fill="white"/>
    <path d="M38.7423 5.07373C38.4039 5.07373 38.1219 5.18606 37.8963 5.41073C37.6707 5.6354 37.5391 5.91624 37.5391 6.23452C37.5391 6.57153 37.6519 6.85236 37.8963 7.07703C38.1219 7.3017 38.4039 7.43276 38.7423 7.43276C39.0807 7.43276 39.3627 7.32042 39.5883 7.07703C39.814 6.85236 39.9456 6.5528 39.9456 6.23452C39.9456 5.89752 39.8328 5.61668 39.5883 5.41073C39.3627 5.18606 39.0619 5.07373 38.7423 5.07373Z" fill="white"/>
    <path d="M39.6787 8.4248H37.7422V16.101H39.6787V8.4248Z" fill="white"/>
    <path d="M46.7308 9.06207C46.148 8.53784 45.4899 8.23828 44.7943 8.23828C43.7227 8.23828 42.839 8.61273 42.1434 9.32418C41.4478 10.0356 41.1094 10.9718 41.1094 12.0764C41.1094 13.1623 41.4478 14.0797 42.1434 14.8286C42.839 15.54 43.7227 15.9145 44.7943 15.9145C45.5463 15.9145 46.1856 15.7085 46.712 15.2966V15.4651C46.712 16.1017 46.5428 16.5885 46.2044 16.9442C45.866 17.2812 45.3959 17.4497 44.8131 17.4497C43.9107 17.4497 43.3655 17.094 42.6698 16.1766L41.3538 17.431L41.3914 17.4872C41.6734 17.8803 42.1058 18.2735 42.6886 18.648C43.2715 19.0224 43.9859 19.2096 44.8507 19.2096C45.9976 19.2096 46.9376 18.8539 47.6144 18.1612C48.31 17.4684 48.6485 16.5323 48.6485 15.3715V8.42551H46.7496V9.06207H46.7308ZM46.2232 13.5929C45.8848 13.9673 45.4523 14.1546 44.8883 14.1546C44.3243 14.1546 43.8919 13.9673 43.5723 13.5929C43.2339 13.2185 43.0647 12.7129 43.0647 12.0951C43.0647 11.4773 43.2339 10.953 43.5723 10.5786C43.9107 10.2041 44.3431 9.99819 44.8883 9.99819C45.4523 9.99819 45.8848 10.1854 46.2232 10.5786C46.5616 10.953 46.7308 11.4773 46.7308 12.0951C46.7308 12.7129 46.5428 13.2185 46.2232 13.5929Z" fill="white"/>
    <path d="M52.2177 8.4248H50.2812V16.101H52.2177V8.4248Z" fill="white"/>
    <path d="M51.2814 5.07373C50.943 5.07373 50.6609 5.18606 50.4353 5.41073C50.2097 5.6354 50.0781 5.91624 50.0781 6.23452C50.0781 6.57153 50.1909 6.85236 50.4353 7.07703C50.6609 7.3017 50.943 7.43276 51.2814 7.43276C51.6198 7.43276 51.9018 7.32042 52.1274 7.07703C52.353 6.85236 52.4846 6.5528 52.4846 6.23452C52.4846 5.89752 52.3718 5.61668 52.1274 5.41073C51.9018 5.18606 51.601 5.07373 51.2814 5.07373Z" fill="white"/>
    <path d="M56.4691 6.3457H54.5702V8.4239H53.4609V10.1838H54.5702V13.3666C54.5702 14.3589 54.777 15.0704 55.1718 15.4823C55.5666 15.8942 56.2622 16.1001 57.2587 16.1001C57.5783 16.1001 57.8979 16.0814 58.1987 16.0627H58.2927V14.3027L57.6347 14.3402C57.1647 14.3402 56.8639 14.2653 56.7135 14.0968C56.5631 13.9283 56.4879 13.5913 56.4879 13.0858V10.1838H58.2927V8.4239H56.4879V6.3457H56.4691Z" fill="white"/>
    <path d="M69.2919 5.20459H67.3555V16.0823H69.2919V5.20459Z" fill="white"/>
    <path d="M88.8629 13.3495C88.5245 13.7427 88.1673 14.0797 87.8853 14.2482C87.6221 14.4167 87.2836 14.5103 86.8888 14.5103C86.3248 14.5103 85.8548 14.3044 85.4788 13.8737C85.1028 13.4431 84.9148 12.9002 84.9148 12.2449C84.9148 11.5896 85.1028 11.0466 85.46 10.6348C85.836 10.2041 86.2872 9.99819 86.8512 9.99819C87.4717 9.99819 88.1297 10.3914 88.6937 11.0466L89.9721 9.82969C89.1449 8.74379 88.0733 8.23828 86.7948 8.23828C85.7232 8.23828 84.8019 8.63145 84.0499 9.38035C83.2979 10.1292 82.9219 11.1028 82.9219 12.2449C82.9219 13.387 83.2979 14.3418 84.0499 15.1094C84.8019 15.877 85.7232 16.2515 86.7948 16.2515C88.2049 16.2515 89.3329 15.6524 90.0849 14.5477L88.8629 13.3495Z" fill="white"/>
    <path d="M96.817 9.49268C96.535 9.11824 96.159 8.79995 95.7078 8.57529C95.2378 8.35062 94.7114 8.23828 94.1097 8.23828C93.0193 8.23828 92.1357 8.63145 91.4776 9.4178C90.8384 10.2041 90.5 11.159 90.5 12.3011C90.5 13.4618 90.8572 14.4167 91.5716 15.1656C92.2673 15.8958 93.2261 16.2702 94.3729 16.2702C95.6702 16.2702 96.7606 15.746 97.5503 14.6975L97.5879 14.6414L96.3282 13.4244C96.2154 13.5742 96.0462 13.724 95.8958 13.8737C95.7078 14.061 95.5198 14.192 95.3318 14.2856C95.0498 14.4354 94.7114 14.4916 94.3541 14.4916C93.8089 14.4916 93.3765 14.3418 93.0381 14.0235C92.7185 13.7427 92.5305 13.3495 92.4929 12.8627H97.6255L97.6443 12.1513C97.6443 11.6458 97.5691 11.1777 97.4375 10.7284C97.3059 10.2977 97.0991 9.86713 96.817 9.49268ZM92.5869 11.29C92.6809 10.9156 92.8501 10.616 93.0945 10.3726C93.3577 10.1105 93.6961 9.97947 94.1097 9.97947C94.5798 9.97947 94.937 10.1105 95.1814 10.3726C95.407 10.616 95.5386 10.9156 95.5762 11.2713H92.5869V11.29Z" fill="white"/>
    <path d="M104.255 8.98718C103.672 8.48167 102.864 8.23828 101.849 8.23828C101.209 8.23828 100.608 8.38806 100.063 8.65017C99.555 8.91229 99.0662 9.32418 98.7466 9.88586L98.7654 9.90458L100.006 11.0841C100.514 10.279 101.078 9.99819 101.83 9.99819C102.244 9.99819 102.563 10.1105 102.826 10.3165C103.09 10.5224 103.202 10.8033 103.202 11.1403V11.5147C102.714 11.3649 102.244 11.29 101.774 11.29C100.815 11.29 100.025 11.5147 99.4422 11.964C98.8594 12.4134 98.5586 13.0687 98.5586 13.8737C98.5586 14.5852 98.803 15.1843 99.3106 15.6149C99.8182 16.0268 100.439 16.2515 101.172 16.2515C101.905 16.2515 102.601 15.9519 103.221 15.4464V16.083H105.12V11.159C105.158 10.2229 104.857 9.49269 104.255 8.98718ZM100.815 13.1623C101.04 13.0125 101.341 12.9376 101.736 12.9376C102.206 12.9376 102.695 13.0312 103.202 13.2185V13.9673C102.789 14.3605 102.225 14.5477 101.529 14.5477C101.191 14.5477 100.927 14.4729 100.758 14.3231C100.589 14.1733 100.495 14.0048 100.495 13.7614C100.495 13.4993 100.608 13.3121 100.815 13.1623Z" fill="white"/>
    <path d="M112.606 9.13696C112.061 8.53784 111.309 8.23828 110.35 8.23828C109.579 8.23828 108.959 8.46295 108.489 8.89357V8.42551H106.59V16.1017H108.526V11.8517C108.526 11.2713 108.658 10.8033 108.94 10.485C109.222 10.148 109.579 9.99819 110.087 9.99819C110.519 9.99819 110.858 10.148 111.102 10.4288C111.346 10.7284 111.478 11.1215 111.478 11.627V16.0643H113.414V11.6458C113.414 10.5786 113.151 9.73608 112.606 9.13696Z" fill="white"/>
    <path d="M64.931 8.98718C64.3482 8.48167 63.5397 8.23828 62.5245 8.23828C61.8853 8.23828 61.2837 8.38806 60.7384 8.65017C60.2308 8.91229 59.742 9.32418 59.4224 9.88586L59.4412 9.90458L60.682 11.0841C61.1897 10.279 61.7537 9.99819 62.5057 9.99819C62.9193 9.99819 63.2389 10.1105 63.5021 10.3165C63.7653 10.5224 63.8782 10.8033 63.8782 11.1403V11.5147C63.3893 11.3649 62.9193 11.29 62.4493 11.29C61.4905 11.29 60.7008 11.5147 60.118 11.964C59.5352 12.4134 59.2344 13.0687 59.2344 13.8737C59.2344 14.5852 59.4788 15.1843 59.9864 15.6149C60.494 16.0268 61.1145 16.2515 61.8477 16.2515C62.5809 16.2515 63.2765 15.9519 63.897 15.4464V16.083H65.7958V11.159C65.8146 10.2229 65.5138 9.49269 64.931 8.98718ZM61.4905 13.1623C61.7161 13.0125 62.0169 12.9376 62.4117 12.9376C62.8817 12.9376 63.3705 13.0312 63.8782 13.2185V13.9673C63.4645 14.3605 62.9005 14.5477 62.2049 14.5477C61.8665 14.5477 61.6033 14.4729 61.4341 14.3231C61.2649 14.1733 61.1709 14.0048 61.1709 13.7614C61.1709 13.4993 61.2649 13.3121 61.4905 13.1623Z" fill="white"/>
    <path d="M76.316 16.2501C73.2139 16.2501 70.6758 13.7413 70.6758 10.6333C70.6758 7.52541 73.1951 5.0166 76.316 5.0166C79.4369 5.0166 81.9562 7.52541 81.9562 10.6333C81.9562 13.7413 79.4181 16.2501 76.316 16.2501ZM76.316 7.00118C74.3043 7.00118 72.6687 8.63003 72.6687 10.6333C72.6687 12.6366 74.3043 14.2655 76.316 14.2655C78.3277 14.2655 79.9633 12.6366 79.9633 10.6333C79.9633 8.63003 78.3277 7.00118 76.316 7.00118Z" fill="white"/>
  </g>
  <defs>
    <clipPath id="clip0_3663_47007">
      <rect width="112.63" height="19.7467" fill="white" transform="translate(0.609375 0.49707)"/>
    </clipPath>
  </defs>
</svg>