<svg width="141" height="69" viewBox="0 0 141 69" fill="none" xmlns="http://www.w3.org/2000/svg">
<rect x="72.5039" y="64.1826" width="4.51612" height="4.51612" fill="#F2F4F7"/>
<rect x="77.02" y="64.1826" width="4.51612" height="4.51612" fill="#F2F4F7"/>
<rect x="77.02" y="59.6699" width="4.51612" height="4.51612" fill="#A0A0FF"/>
<rect x="81.5361" y="55.1514" width="4.51612" height="4.51612" fill="#5A5AB5"/>
<rect x="81.5361" y="50.6377" width="4.51612" height="4.51612" fill="#A0A0FF"/>
<rect width="4.51612" height="4.51612" transform="matrix(1 0 0 -1 72.5039 5.47461)" fill="#5A5AB5"/>
<rect width="4.51612" height="4.51612" transform="matrix(1 0 0 -1 77.02 5.47461)" fill="#5A5AB5"/>
<rect width="4.51612" height="4.51612" transform="matrix(1 0 0 -1 77.02 9.99023)" fill="#F2F4F7"/>
<rect width="4.51612" height="4.51612" transform="matrix(1 0 0 -1 81.5361 14.5059)" fill="#F2F4F7"/>
<rect width="4.51612" height="4.51612" transform="matrix(1 0 0 -1 81.5361 19.0215)" fill="#A0A0FF"/>
<rect width="4.51612" height="4.51612" transform="matrix(-1 0 0 1 67.9883 64.1826)" fill="#F2F4F7"/>
<rect width="4.51612" height="4.51612" transform="matrix(-1 0 0 1 63.4722 64.1826)" fill="#F2F4F7"/>
<rect width="4.51612" height="4.51612" transform="matrix(-1 0 0 1 63.4722 59.6699)" fill="#A0A0FF"/>
<rect width="4.51612" height="4.51612" transform="matrix(-1 0 0 1 58.9565 55.1514)" fill="#5A5AB5"/>
<rect width="4.51612" height="4.51612" transform="matrix(-1 0 0 1 58.9565 50.6377)" fill="#A0A0FF"/>
<rect x="67.9883" y="5.47461" width="4.51612" height="4.51612" transform="rotate(180 67.9883 5.47461)" fill="#5A5AB5"/>
<rect x="63.4722" y="5.47461" width="4.51612" height="4.51612" transform="rotate(180 63.4722 5.47461)" fill="#5A5AB5"/>
<rect x="63.4722" y="9.99023" width="4.51612" height="4.51612" transform="rotate(180 63.4722 9.99023)" fill="#F2F4F7"/>
<rect x="58.9565" y="14.5059" width="4.51612" height="4.51612" transform="rotate(180 58.9565 14.5059)" fill="#F2F4F7"/>
<rect x="58.9565" y="19.0215" width="4.51612" height="4.51612" transform="rotate(180 58.9565 19.0215)" fill="#A0A0FF"/>
<rect x="81.5361" y="0.958008" width="4.51612" height="4.51612" fill="#F2F4F7"/>
<rect x="86.0527" y="5.47461" width="4.51612" height="4.51612" fill="#F2F4F7"/>
<rect x="90.5688" y="5.47461" width="4.51612" height="4.51612" fill="#A0A0FF"/>
<rect x="95.0845" y="9.99023" width="4.51612" height="4.51612" fill="#A0A0FF"/>
<rect x="99.6006" y="14.5059" width="4.51612" height="4.51612" fill="#A0A0FF"/>
<rect x="104.117" y="19.0215" width="4.51612" height="4.51612" fill="#A0A0FF"/>
<rect x="104.117" y="23.5381" width="4.51612" height="4.51612" fill="#A0A0FF"/>
<rect x="108.633" y="28.0557" width="4.51612" height="4.51612" fill="#A0A0FF"/>
<rect width="4.51612" height="4.51612" transform="matrix(1 0 0 -1 81.5361 68.7012)" fill="#F2F4F7"/>
<rect width="4.51612" height="4.51612" transform="matrix(1 0 0 -1 86.0527 64.1826)" fill="#F2F4F7"/>
<rect width="4.51612" height="4.51612" transform="matrix(1 0 0 -1 90.5688 64.1826)" fill="#F2F4F7"/>
<rect width="4.51612" height="4.51612" transform="matrix(1 0 0 -1 95.0845 59.6699)" fill="#F2F4F7"/>
<rect width="4.51612" height="4.51612" transform="matrix(1 0 0 -1 99.6006 55.1514)" fill="#F2F4F7"/>
<rect width="4.51612" height="4.51612" transform="matrix(1 0 0 -1 104.117 50.6377)" fill="#F2F4F7"/>
<rect width="4.51612" height="4.51612" transform="matrix(1 0 0 -1 104.117 46.1191)" fill="#F2F4F7"/>
<rect width="4.51612" height="4.51612" transform="matrix(1 0 0 -1 108.633 41.6016)" fill="#F2F4F7"/>
<rect width="4.51612" height="4.51612" transform="matrix(-1 0 0 1 58.9565 0.958008)" fill="#F2F4F7"/>
<rect width="4.51612" height="4.51612" transform="matrix(-1 0 0 1 54.4395 5.47461)" fill="#F2F4F7"/>
<rect width="4.51612" height="4.51612" transform="matrix(-1 0 0 1 49.9233 5.47461)" fill="#A0A0FF"/>
<rect width="4.51612" height="4.51612" transform="matrix(-1 0 0 1 45.4077 9.99023)" fill="#A0A0FF"/>
<rect width="4.51612" height="4.51612" transform="matrix(-1 0 0 1 40.8916 14.5059)" fill="#A0A0FF"/>
<rect width="4.51612" height="4.51612" transform="matrix(-1 0 0 1 36.376 19.0215)" fill="#A0A0FF"/>
<rect width="4.51612" height="4.51612" transform="matrix(-1 0 0 1 36.376 23.5381)" fill="#A0A0FF"/>
<rect width="4.51612" height="4.51612" transform="matrix(-1 0 0 1 31.8589 28.0557)" fill="#A0A0FF"/>
<rect x="58.9565" y="68.7012" width="4.51612" height="4.51612" transform="rotate(180 58.9565 68.7012)" fill="#F2F4F7"/>
<rect x="54.4395" y="64.1826" width="4.51612" height="4.51612" transform="rotate(180 54.4395 64.1826)" fill="#F2F4F7"/>
<rect x="49.9233" y="64.1826" width="4.51612" height="4.51612" transform="rotate(180 49.9233 64.1826)" fill="#F2F4F7"/>
<rect x="45.4077" y="59.6699" width="4.51612" height="4.51612" transform="rotate(180 45.4077 59.6699)" fill="#F2F4F7"/>
<rect x="40.8916" y="55.1514" width="4.51612" height="4.51612" transform="rotate(180 40.8916 55.1514)" fill="#F2F4F7"/>
<rect x="36.376" y="50.6377" width="4.51612" height="4.51612" transform="rotate(180 36.376 50.6377)" fill="#F2F4F7"/>
<rect x="36.376" y="46.1191" width="4.51612" height="4.51612" transform="rotate(180 36.376 46.1191)" fill="#F2F4F7"/>
<rect x="31.8589" y="41.6016" width="4.51612" height="4.51612" transform="rotate(180 31.8589 41.6016)" fill="#F2F4F7"/>
<rect x="90.5688" y="0.958008" width="4.51612" height="4.51612" fill="#5A5AB5"/>
<rect x="95.0845" y="5.47461" width="4.51612" height="4.51612" fill="#5A5AB5"/>
<rect x="95.0845" y="0.958008" width="4.51612" height="4.51612" fill="#A0A0FF"/>
<rect x="99.6006" y="5.47461" width="4.51612" height="4.51612" fill="#A0A0FF"/>
<rect x="104.117" y="9.99023" width="4.51612" height="4.51612" fill="#A0A0FF"/>
<rect x="104.117" y="5.47461" width="4.51612" height="4.51612" fill="#5A5AB5"/>
<rect x="108.633" y="9.99023" width="4.51612" height="4.51612" fill="#5A5AB5"/>
<rect x="113.149" y="14.5059" width="4.51612" height="4.51612" fill="#A0A0FF"/>
<rect x="117.666" y="19.0215" width="4.51612" height="4.51612" fill="#A0A0FF"/>
<rect x="122.181" y="23.5381" width="4.51612" height="4.51612" fill="#A0A0FF"/>
<rect x="122.181" y="28.0557" width="4.51612" height="4.51612" fill="#5A5AB5"/>
<rect x="86.0527" y="0.958008" width="4.51612" height="4.51612" fill="#5A5AB5"/>
<rect width="4.51612" height="4.51612" transform="matrix(1 0 0 -1 90.5688 68.7012)" fill="#5A5AB5"/>
<rect width="4.51612" height="4.51612" transform="matrix(1 0 0 -1 86.0527 68.7012)" fill="#F2F4F7"/>
<rect width="4.51612" height="4.51612" transform="matrix(1 0 0 -1 95.0845 64.1826)" fill="#F2F4F7"/>
<rect width="4.51612" height="4.51612" transform="matrix(1 0 0 -1 95.0845 68.7012)" fill="#A0A0FF"/>
<rect width="4.51612" height="4.51612" transform="matrix(1 0 0 -1 99.6006 64.1826)" fill="#A0A0FF"/>
<rect width="4.51612" height="4.51612" transform="matrix(1 0 0 -1 104.117 59.6699)" fill="#A0A0FF"/>
<rect width="4.51612" height="4.51612" transform="matrix(1 0 0 -1 104.117 64.1826)" fill="#5A5AB5"/>
<rect width="4.51612" height="4.51612" transform="matrix(1 0 0 -1 108.633 59.6699)" fill="#5A5AB5"/>
<rect width="4.51612" height="4.51612" transform="matrix(1 0 0 -1 113.149 55.1514)" fill="#A0A0FF"/>
<rect width="4.51612" height="4.51612" transform="matrix(1 0 0 -1 117.666 50.6377)" fill="#A0A0FF"/>
<rect width="4.51612" height="4.51612" transform="matrix(1 0 0 -1 122.181 46.1191)" fill="#A0A0FF"/>
<rect width="4.51612" height="4.51612" transform="matrix(1 0 0 -1 122.181 41.6016)" fill="#5A5AB5"/>
<rect width="4.51612" height="4.51612" transform="matrix(-1 0 0 1 49.9233 0.958008)" fill="#5A5AB5"/>
<rect width="4.51612" height="4.51612" transform="matrix(-1 0 0 1 45.4077 5.47461)" fill="#5A5AB5"/>
<rect width="4.51612" height="4.51612" transform="matrix(-1 0 0 1 45.4077 0.958008)" fill="#A0A0FF"/>
<rect width="4.51612" height="4.51612" transform="matrix(-1 0 0 1 40.8916 5.47461)" fill="#A0A0FF"/>
<rect width="4.51612" height="4.51612" transform="matrix(-1 0 0 1 36.376 9.99023)" fill="#A0A0FF"/>
<rect width="4.51612" height="4.51612" transform="matrix(-1 0 0 1 36.376 5.47461)" fill="#5A5AB5"/>
<rect width="4.51612" height="4.51612" transform="matrix(-1 0 0 1 31.8589 9.99023)" fill="#5A5AB5"/>
<rect width="4.51612" height="4.51612" transform="matrix(-1 0 0 1 27.3428 14.5059)" fill="#A0A0FF"/>
<rect width="4.51612" height="4.51612" transform="matrix(-1 0 0 1 22.8271 19.0215)" fill="#A0A0FF"/>
<rect width="4.51612" height="4.51612" transform="matrix(-1 0 0 1 18.311 23.5381)" fill="#A0A0FF"/>
<rect width="4.51612" height="4.51612" transform="matrix(-1 0 0 1 18.311 28.0557)" fill="#5A5AB5"/>
<rect width="4.51612" height="4.51612" transform="matrix(-1 0 0 1 54.4395 0.958008)" fill="#5A5AB5"/>
<rect x="49.9233" y="68.7012" width="4.51612" height="4.51612" transform="rotate(180 49.9233 68.7012)" fill="#5A5AB5"/>
<rect x="54.4395" y="68.7012" width="4.51612" height="4.51612" transform="rotate(180 54.4395 68.7012)" fill="#F2F4F7"/>
<rect x="45.4077" y="64.1826" width="4.51612" height="4.51612" transform="rotate(180 45.4077 64.1826)" fill="#F2F4F7"/>
<rect x="45.4077" y="68.7012" width="4.51612" height="4.51612" transform="rotate(180 45.4077 68.7012)" fill="#A0A0FF"/>
<rect x="40.8916" y="64.1826" width="4.51612" height="4.51612" transform="rotate(180 40.8916 64.1826)" fill="#A0A0FF"/>
<rect x="36.376" y="59.6699" width="4.51612" height="4.51612" transform="rotate(180 36.376 59.6699)" fill="#A0A0FF"/>
<rect x="36.376" y="64.1826" width="4.51612" height="4.51612" transform="rotate(180 36.376 64.1826)" fill="#5A5AB5"/>
<rect x="31.8589" y="59.6699" width="4.51612" height="4.51612" transform="rotate(180 31.8589 59.6699)" fill="#5A5AB5"/>
<rect x="27.3428" y="55.1514" width="4.51612" height="4.51612" transform="rotate(180 27.3428 55.1514)" fill="#A0A0FF"/>
<rect x="22.8271" y="50.6377" width="4.51612" height="4.51612" transform="rotate(180 22.8271 50.6377)" fill="#A0A0FF"/>
<rect x="18.311" y="46.1191" width="4.51612" height="4.51612" transform="rotate(180 18.311 46.1191)" fill="#A0A0FF"/>
<rect x="18.311" y="41.6016" width="4.51612" height="4.51612" transform="rotate(180 18.311 41.6016)" fill="#5A5AB5"/>
<rect x="108.633" y="5.47461" width="4.51612" height="4.51612" fill="#A0A0FF"/>
<rect x="113.149" y="5.47461" width="4.51612" height="4.51612" fill="#A0A0FF"/>
<rect x="113.149" y="9.99023" width="4.51612" height="4.51612" fill="#5A5AB5"/>
<rect x="117.666" y="9.99023" width="4.51612" height="4.51612" fill="#A0A0FF"/>
<rect x="122.181" y="9.99023" width="4.51612" height="4.51612" fill="#A0A0FF"/>
<rect x="122.181" y="14.5059" width="4.51612" height="4.51612" fill="#5A5AB5"/>
<rect x="126.697" y="14.5059" width="4.51612" height="4.51612" fill="#A0A0FF"/>
<rect x="126.697" y="19.0215" width="4.51612" height="4.51612" fill="#5A5AB5"/>
<rect x="131.214" y="19.0215" width="4.51612" height="4.51612" fill="#A0A0FF"/>
<rect x="135.73" y="23.5381" width="4.51612" height="4.51612" fill="#A0A0FF"/>
<rect x="135.73" y="28.0557" width="4.51612" height="4.51612" fill="#A0A0FF"/>
<rect width="4.51612" height="4.51612" transform="matrix(1 0 0 -1 108.633 64.1826)" fill="#A0A0FF"/>
<rect width="4.51612" height="4.51612" transform="matrix(1 0 0 -1 113.149 64.1826)" fill="#A0A0FF"/>
<rect width="4.51612" height="4.51612" transform="matrix(1 0 0 -1 113.149 59.6699)" fill="#5A5AB5"/>
<rect width="4.51612" height="4.51612" transform="matrix(1 0 0 -1 117.666 59.6699)" fill="#A0A0FF"/>
<rect width="4.51612" height="4.51612" transform="matrix(1 0 0 -1 122.181 59.6699)" fill="#A0A0FF"/>
<rect width="4.51612" height="4.51612" transform="matrix(1 0 0 -1 122.181 55.1514)" fill="#5A5AB5"/>
<rect width="4.51612" height="4.51612" transform="matrix(1 0 0 -1 126.697 55.1514)" fill="#A0A0FF"/>
<rect width="4.51612" height="4.51612" transform="matrix(1 0 0 -1 126.697 50.6377)" fill="#5A5AB5"/>
<rect width="4.51612" height="4.51612" transform="matrix(1 0 0 -1 131.214 50.6377)" fill="#A0A0FF"/>
<rect width="4.51612" height="4.51612" transform="matrix(1 0 0 -1 135.73 46.1191)" fill="#A0A0FF"/>
<rect width="4.51612" height="4.51612" transform="matrix(1 0 0 -1 135.73 41.6016)" fill="#A0A0FF"/>
<rect width="4.51612" height="4.51612" transform="matrix(-1 0 0 1 31.8589 5.47461)" fill="#A0A0FF"/>
<rect width="4.51612" height="4.51612" transform="matrix(-1 0 0 1 27.3428 5.47461)" fill="#A0A0FF"/>
<rect width="4.51612" height="4.51612" transform="matrix(-1 0 0 1 27.3428 9.99023)" fill="#5A5AB5"/>
<rect width="4.51612" height="4.51612" transform="matrix(-1 0 0 1 22.8271 9.99023)" fill="#A0A0FF"/>
<rect width="4.51612" height="4.51612" transform="matrix(-1 0 0 1 18.311 9.99023)" fill="#A0A0FF"/>
<rect width="4.51612" height="4.51612" transform="matrix(-1 0 0 1 18.311 14.5059)" fill="#5A5AB5"/>
<rect width="4.51612" height="4.51612" transform="matrix(-1 0 0 1 13.7949 14.5059)" fill="#A0A0FF"/>
<rect width="4.51612" height="4.51612" transform="matrix(-1 0 0 1 13.7949 19.0215)" fill="#5A5AB5"/>
<rect width="4.51612" height="4.51612" transform="matrix(-1 0 0 1 9.27832 19.0215)" fill="#A0A0FF"/>
<rect width="4.51612" height="4.51612" transform="matrix(-1 0 0 1 4.76221 23.5381)" fill="#A0A0FF"/>
<rect width="4.51612" height="4.51612" transform="matrix(-1 0 0 1 4.76221 28.0557)" fill="#A0A0FF"/>
<rect x="31.8589" y="64.1826" width="4.51612" height="4.51612" transform="rotate(180 31.8589 64.1826)" fill="#A0A0FF"/>
<rect x="27.3428" y="64.1826" width="4.51612" height="4.51612" transform="rotate(180 27.3428 64.1826)" fill="#A0A0FF"/>
<rect x="27.3428" y="59.6699" width="4.51612" height="4.51612" transform="rotate(180 27.3428 59.6699)" fill="#5A5AB5"/>
<rect x="22.8271" y="59.6699" width="4.51612" height="4.51612" transform="rotate(180 22.8271 59.6699)" fill="#A0A0FF"/>
<rect x="18.311" y="59.6699" width="4.51612" height="4.51612" transform="rotate(180 18.311 59.6699)" fill="#A0A0FF"/>
<rect x="18.311" y="55.1514" width="4.51612" height="4.51612" transform="rotate(180 18.311 55.1514)" fill="#5A5AB5"/>
<rect x="13.7949" y="55.1514" width="4.51612" height="4.51612" transform="rotate(180 13.7949 55.1514)" fill="#A0A0FF"/>
<rect x="13.7949" y="50.6377" width="4.51612" height="4.51612" transform="rotate(180 13.7949 50.6377)" fill="#5A5AB5"/>
<rect x="9.27832" y="50.6377" width="4.51612" height="4.51612" transform="rotate(180 9.27832 50.6377)" fill="#A0A0FF"/>
<rect x="4.76221" y="46.1191" width="4.51612" height="4.51612" transform="rotate(180 4.76221 46.1191)" fill="#A0A0FF"/>
<rect x="4.76221" y="41.6016" width="4.51612" height="4.51612" transform="rotate(180 4.76221 41.6016)" fill="#A0A0FF"/>
<rect x="67.9883" y="59.6699" width="4.51612" height="4.51612" fill="#5A5AB5"/>
<rect x="67.9883" y="50.6377" width="4.51612" height="4.51612" fill="#5A5AB5"/>
<rect x="67.9883" y="9.99023" width="4.51612" height="4.51612" fill="#A0A0FF"/>
<rect x="67.9883" y="0.958008" width="4.51612" height="4.51612" fill="#A0A0FF"/>
<rect x="67.9883" y="64.1826" width="4.51612" height="4.51612" fill="#F2F4F7"/>
<rect x="67.9883" y="55.1514" width="4.51612" height="4.51612" fill="#A0A0FF"/>
<rect x="67.9883" y="14.5059" width="4.51612" height="4.51612" fill="#5A5AB5"/>
<rect x="67.9883" y="5.47461" width="4.51612" height="4.51612" fill="#5A5AB5"/>
<rect x="27.3428" y="32.5693" width="4.51612" height="4.51612" transform="rotate(90 27.3428 32.5693)" fill="#A0A0FF"/>
<rect x="18.311" y="32.5693" width="4.51612" height="4.51612" transform="rotate(90 18.311 32.5693)" fill="#A0A0FF"/>
<rect x="113.149" y="32.5693" width="4.51612" height="4.51612" transform="rotate(90 113.149 32.5693)" fill="#5A5AB5"/>
<rect x="36.376" y="32.5693" width="4.51612" height="4.51612" transform="rotate(90 36.376 32.5693)" fill="#A0A0FF"/>
<rect x="122.181" y="32.5693" width="4.51612" height="4.51612" transform="rotate(90 122.181 32.5693)" fill="#5A5AB5"/>
<rect x="104.117" y="32.5693" width="4.51612" height="4.51612" transform="rotate(90 104.117 32.5693)" fill="#5A5AB5"/>
<rect x="131.214" y="32.5693" width="4.51612" height="4.51612" transform="rotate(90 131.214 32.5693)" fill="#5A5AB5"/>
<rect x="135.73" y="32.5693" width="4.51612" height="4.51612" transform="rotate(90 135.73 32.5693)" fill="#A0A0FF"/>
<rect x="140.246" y="32.5693" width="4.51612" height="4.51612" transform="rotate(90 140.246 32.5693)" fill="#A0A0FF"/>
<rect x="45.4077" y="32.5693" width="4.51612" height="4.51612" transform="rotate(90 45.4077 32.5693)" fill="#A0A0FF"/>
<rect x="22.8271" y="32.5693" width="4.51612" height="4.51612" transform="rotate(90 22.8271 32.5693)" fill="#5A5AB5"/>
<rect x="13.7949" y="32.5693" width="4.51612" height="4.51612" transform="rotate(90 13.7949 32.5693)" fill="#5A5AB5"/>
<rect x="9.27832" y="32.5693" width="4.51612" height="4.51612" transform="rotate(90 9.27832 32.5693)" fill="#A0A0FF"/>
<rect x="4.76221" y="32.5693" width="4.51612" height="4.51612" transform="rotate(90 4.76221 32.5693)" fill="#A0A0FF"/>
<rect x="40.8916" y="32.5693" width="4.51612" height="4.51612" transform="rotate(90 40.8916 32.5693)" fill="#5A5AB5"/>
<rect x="108.633" y="32.5693" width="4.51612" height="4.51612" transform="rotate(90 108.633 32.5693)" fill="#A0A0FF"/>
<rect x="31.8589" y="32.5693" width="4.51612" height="4.51612" transform="rotate(90 31.8589 32.5693)" fill="#5A5AB5"/>
<rect x="117.666" y="32.5693" width="4.51612" height="4.51612" transform="rotate(90 117.666 32.5693)" fill="#A0A0FF"/>
<rect x="99.6006" y="32.5693" width="4.51612" height="4.51612" transform="rotate(90 99.6006 32.5693)" fill="#A0A0FF"/>
<rect x="126.697" y="32.5693" width="4.51612" height="4.51612" transform="rotate(90 126.697 32.5693)" fill="#A0A0FF"/>
<rect x="45.4077" y="55.1514" width="4.51612" height="4.51612" fill="#5A5AB5"/>
<rect x="90.5688" y="55.1514" width="4.51612" height="4.51612" fill="#5A5AB5"/>
<rect width="4.51612" height="4.51612" transform="matrix(1 0 0 -1 45.4077 14.5059)" fill="#5A5AB5"/>
<rect width="4.51612" height="4.51612" transform="matrix(1 0 0 -1 90.5688 14.5059)" fill="#5A5AB5"/>
<rect x="90.6362" y="32.5703" width="4.51612" height="4.51612" transform="rotate(90 90.6362 32.5703)" fill="#A0A0FF"/>
<rect x="86.0532" y="46.1182" width="4.51612" height="4.51612" fill="#5A5AB5"/>
<rect x="86.0532" y="41.6025" width="4.51612" height="4.51612" fill="#A0A0FF"/>
<rect x="86.0532" y="37.0859" width="4.51612" height="4.51612" fill="#5A5AB5"/>
<rect width="4.51612" height="4.51612" transform="matrix(1 0 0 -1 86.0532 23.5381)" fill="#5A5AB5"/>
<rect width="4.51612" height="4.51612" transform="matrix(1 0 0 -1 86.0532 28.0537)" fill="#A0A0FF"/>
<rect width="4.51612" height="4.51612" transform="matrix(1 0 0 -1 86.0532 32.5703)" fill="#5A5AB5"/>
<rect width="4.51612" height="4.51612" transform="matrix(-1 0 0 1 54.5073 46.1182)" fill="#5A5AB5"/>
<rect width="4.51612" height="4.51612" transform="matrix(-1 0 0 1 54.5073 28.0537)" fill="#5A5AB5"/>
<rect width="4.51612" height="4.51612" transform="matrix(-1 0 0 1 54.5073 41.6025)" fill="#A0A0FF"/>
<rect width="4.51612" height="4.51612" transform="matrix(-1 0 0 1 54.5073 37.0859)" fill="#5A5AB5"/>
<rect width="4.51612" height="4.51612" transform="matrix(-1 0 0 1 54.5073 23.5381)" fill="#A0A0FF"/>
<rect x="54.5073" y="23.5381" width="4.51612" height="4.51612" transform="rotate(180 54.5073 23.5381)" fill="#5A5AB5"/>
<rect x="68.0557" y="46.1182" width="4.51612" height="4.51612" fill="#A0A0FF"/>
<rect x="68.0557" y="32.5703" width="4.51612" height="4.51612" fill="#5A5AB5"/>
<rect x="68.0557" y="37.0859" width="4.51612" height="4.51612" fill="#A0A0FF"/>
<rect x="68.0557" y="23.5381" width="4.51612" height="4.51612" fill="#5A5AB5"/>
<rect x="68.0557" y="41.6025" width="4.51612" height="4.51612" fill="#5A5AB5"/>
<rect x="68.0557" y="28.0537" width="4.51612" height="4.51612" fill="#A0A0FF"/>
<rect x="68.0557" y="19.0215" width="4.51612" height="4.51612" fill="#A0A0FF"/>
<rect x="54.5073" y="32.5703" width="4.51612" height="4.51612" transform="rotate(90 54.5073 32.5703)" fill="#A0A0FF"/>
<rect x="81.604" y="32.5703" width="4.51612" height="4.51612" transform="rotate(90 81.604 32.5703)" fill="#A0A0FF"/>
<rect x="63.5396" y="32.5703" width="4.51612" height="4.51612" transform="rotate(90 63.5396 32.5703)" fill="#A0A0FF"/>
<rect x="68.0557" y="32.5703" width="4.51612" height="4.51612" transform="rotate(90 68.0557 32.5703)" fill="#5A5AB5"/>
<rect x="59.0234" y="32.5703" width="4.51612" height="4.51612" transform="rotate(90 59.0234 32.5703)" fill="#5A5AB5"/>
<rect x="86.1201" y="32.5703" width="4.51612" height="4.51612" transform="rotate(90 86.1201 32.5703)" fill="#5A5AB5"/>
<rect x="49.9912" y="32.5703" width="4.51612" height="4.51612" transform="rotate(90 49.9912 32.5703)" fill="#5A5AB5"/>
<rect x="95.1523" y="32.5703" width="4.51612" height="4.51612" transform="rotate(90 95.1523 32.5703)" fill="#5A5AB5"/>
<rect x="77.0879" y="32.5703" width="4.51612" height="4.51612" transform="rotate(90 77.0879 32.5703)" fill="#5A5AB5"/>
</svg>
