<svg width="161" height="29" viewBox="0 0 161 29" fill="none" xmlns="http://www.w3.org/2000/svg">
<path d="M13.8817 28.0767V22.8255C19.4849 22.8255 23.7926 17.3167 21.655 11.4533C20.8776 9.29492 19.1286 7.55528 16.9586 6.7821C11.0639 4.65586 5.52544 8.97276 5.52544 14.5139H0.246094C0.246094 5.65455 8.86148 -1.27181 18.1894 1.62759C22.2703 2.88401 25.5092 6.13779 26.8048 10.197C29.7197 19.5072 22.7885 28.0767 13.8817 28.0767Z" fill="white"/>
<path d="M13.8806 22.8579H8.63371V17.639H13.8806V22.8579Z" fill="white"/>
<path d="M8.63309 26.8865H4.58452V22.8598L8.63309 22.8595V26.8865Z" fill="white"/>
<path d="M4.55533 22.8598H1.18692V19.5094H4.55533V22.8598Z" fill="white"/>
<path fill-rule="evenodd" clip-rule="evenodd" d="M48.2716 8.81794C46.7329 7.77068 44.8095 7.23118 42.5655 7.23118H37.6928V22.591H42.5655C44.8095 22.591 46.7329 22.0198 48.2716 20.909C49.1051 20.3061 49.7782 19.481 50.2271 18.4337C50.6759 17.3864 50.9323 16.1805 50.9323 14.8159C50.9323 13.4512 50.7079 12.2453 50.2271 11.2298C49.7782 10.1826 49.1371 9.35744 48.2716 8.81794ZM40.5806 9.80335H42.0873C43.7863 9.80335 45.1968 10.1207 46.2547 10.7872C47.4408 11.4853 48.0498 12.85 48.0498 14.7857C48.0498 16.785 47.4408 18.1814 46.2547 18.9431C45.2288 19.6095 43.8504 19.9586 42.1193 19.9586H40.5806V9.80335Z" fill="white"/>
<path d="M54.3619 7.00939C53.8811 7.00939 53.4964 7.16806 53.1758 7.48542C52.8552 7.80277 52.6629 8.18359 52.6629 8.65961C52.6629 9.13564 52.8232 9.51649 53.1437 9.86555C53.4643 10.1829 53.8811 10.3416 54.3619 10.3416C54.8428 10.3416 55.2275 10.1829 55.5801 9.86555C55.9007 9.54818 56.0609 9.13564 56.0609 8.65961C56.0609 8.18359 55.9007 7.80277 55.5801 7.48542C55.2275 7.1998 54.8107 7.00939 54.3619 7.00939Z" fill="white"/>
<path d="M52.9521 11.7366H55.709V22.5582H52.9521V11.7366Z" fill="white"/>
<path fill-rule="evenodd" clip-rule="evenodd" d="M65.675 12.6572C64.8414 11.9273 63.9118 11.5148 62.9181 11.5148C61.4114 11.5148 60.1291 12.0226 59.1674 13.0699C58.1736 14.0854 57.6928 15.3865 57.6928 16.9415C57.6928 18.4648 58.1736 19.766 59.1353 20.8132C60.097 21.8288 61.3793 22.3365 62.886 22.3365C63.9438 22.3365 64.8415 22.0509 65.6108 21.4796V21.7335C65.6108 22.6221 65.3544 23.3203 64.9056 23.7963C64.4247 24.2723 63.7515 24.5262 62.9501 24.5262C61.6678 24.5262 60.8985 24.0184 59.9047 22.749L58.0454 24.5262L58.1095 24.5897C58.5262 25.1609 59.1353 25.7004 59.9368 26.2082C60.7382 26.716 61.7961 27.0016 62.9821 27.0016C64.6171 27.0016 65.9314 26.4938 66.8931 25.51C67.8548 24.5262 68.3677 23.1933 68.3677 21.5749V11.737H65.675V12.6572ZM64.9379 19.0368C64.457 19.5764 63.848 19.8302 63.0466 19.8302C62.2451 19.8302 61.6361 19.5764 61.1873 19.0368C60.7064 18.4973 60.482 17.7992 60.482 16.9106C60.482 16.022 60.7064 15.3238 61.1873 14.7843C61.6681 14.2449 62.2772 13.991 63.0466 13.991C63.848 13.991 64.457 14.2449 64.9379 14.7843C65.4187 15.3238 65.6432 16.0538 65.6432 16.9106C65.6752 17.7992 65.4187 18.4973 64.9379 19.0368Z" fill="white"/>
<path d="M70.7114 11.7367H73.4682V22.5583H70.7114V11.7367Z" fill="white"/>
<path d="M72.1212 7.00939C71.6404 7.00939 71.2557 7.16806 70.9351 7.48542C70.6145 7.80277 70.4221 8.18359 70.4221 8.65961C70.4221 9.13564 70.5825 9.51649 70.903 9.86555C71.2236 10.1829 71.6404 10.3416 72.1212 10.3416C72.6021 10.3416 72.9867 10.1829 73.3393 9.86555C73.6599 9.54818 73.8202 9.13564 73.8202 8.65961C73.8202 8.18359 73.6599 7.80277 73.3393 7.48542C72.9867 7.1998 72.6021 7.00939 72.1212 7.00939Z" fill="white"/>
<path d="M79.4929 8.81681H76.8V11.7364H75.2293V14.2118H76.8V18.6864C76.8 20.0828 77.0886 21.0983 77.6336 21.6696C78.2106 22.2408 79.2044 22.5581 80.5827 22.5581C81.0316 22.5581 81.4804 22.5581 81.9292 22.5264H82.0574V20.051L81.1278 20.1145C80.4866 20.1145 80.0378 19.9875 79.8134 19.7654C79.5891 19.5433 79.4929 19.0673 79.4929 18.3374V14.2436H82.0574V11.7682H79.4929V8.81681Z" fill="white"/>
<path d="M94.946 7.19808H97.7035V22.5578H94.946V7.19808Z" fill="white"/>
<path d="M125.431 18.687C124.95 19.2265 124.438 19.7025 124.053 19.9564C123.668 20.2102 123.188 20.3055 122.642 20.3055C121.841 20.3055 121.167 20.0198 120.655 19.4168C120.142 18.8138 119.853 18.0522 119.853 17.1319C119.853 16.2116 120.109 15.4499 120.623 14.847C121.136 14.244 121.809 13.9584 122.611 13.9584C123.508 13.9584 124.438 14.4979 125.239 15.4499L127.066 13.7363C125.88 12.213 124.373 11.5148 122.578 11.5148C121.072 11.5148 119.757 12.0543 118.699 13.1333C117.641 14.2123 117.097 15.5452 117.097 17.1637C117.097 18.7821 117.641 20.1467 118.699 21.194C119.757 22.273 121.072 22.8125 122.578 22.8125C124.565 22.8125 126.169 21.9556 127.258 20.4006L125.431 18.687Z" fill="white"/>
<path fill-rule="evenodd" clip-rule="evenodd" d="M136.716 13.2621C136.332 12.7226 135.786 12.2784 135.145 11.961C134.504 11.6437 133.735 11.485 132.869 11.485C131.331 11.485 130.081 12.0562 129.15 13.1352C128.221 14.246 127.772 15.6105 127.772 17.1973C127.772 18.8476 128.285 20.1804 129.279 21.2276C130.273 22.2432 131.619 22.7827 133.254 22.7827C135.113 22.7827 136.62 22.0528 137.774 20.593L137.838 20.5295L136.043 18.8158C135.963 18.9109 135.858 19.0145 135.75 19.1215L135.744 19.1279C135.638 19.233 135.528 19.3418 135.434 19.4505C135.178 19.7044 134.921 19.8948 134.632 20.0217C134.216 20.2121 133.766 20.3391 133.254 20.3391C132.485 20.3391 131.875 20.117 131.395 19.6726C130.946 19.2601 130.689 18.7206 130.625 18.0224H137.902L137.934 17.0387C137.934 16.3404 137.838 15.674 137.646 15.0393C137.389 14.3729 137.101 13.8016 136.716 13.2621ZM130.721 15.7999C130.849 15.2921 131.106 14.8478 131.426 14.5304C131.811 14.1814 132.292 13.991 132.869 13.991C133.542 13.991 134.055 14.1814 134.407 14.5622C134.728 14.9113 134.921 15.3238 134.953 15.8316H130.721V15.7999Z" fill="white"/>
<path fill-rule="evenodd" clip-rule="evenodd" d="M147.264 12.5621C146.431 11.8639 145.277 11.5148 143.834 11.5148C142.905 11.5148 142.071 11.7052 141.302 12.086C140.597 12.4351 139.891 13.0381 139.443 13.8315L139.474 13.8632L141.238 15.5452C141.975 14.4027 142.777 13.9901 143.834 13.9901C144.411 13.9901 144.892 14.1488 145.245 14.4344C145.598 14.72 145.79 15.1009 145.79 15.6087V16.1482C145.117 15.9577 144.444 15.8308 143.771 15.8308C142.392 15.8308 141.302 16.1482 140.468 16.7828C139.635 17.4176 139.218 18.3378 139.218 19.4803C139.218 20.4959 139.571 21.321 140.276 21.9239C140.982 22.5269 141.879 22.8125 142.937 22.8125C143.994 22.8125 144.956 22.3999 145.854 21.67V22.5586H148.547V15.6087C148.514 14.2758 148.098 13.2602 147.264 12.5621ZM142.39 18.4331C142.71 18.2109 143.127 18.1157 143.704 18.1157C144.377 18.1157 145.083 18.2427 145.788 18.4966V19.5438C145.179 20.0832 144.377 20.3689 143.416 20.3689C142.935 20.3689 142.582 20.2737 142.325 20.0516C142.069 19.8611 141.941 19.6072 141.941 19.2582C141.941 18.9091 142.069 18.6235 142.39 18.4331Z" fill="white"/>
<path d="M159.092 12.7511C158.323 11.8943 157.265 11.4817 155.887 11.4817C154.797 11.4817 153.899 11.799 153.258 12.402V11.7355H150.565V22.5572H153.322V16.591C153.322 15.7659 153.514 15.1312 153.899 14.6552C154.284 14.1792 154.829 13.9571 155.534 13.9571C156.143 13.9571 156.624 14.1475 156.976 14.56C157.33 14.9726 157.49 15.5437 157.49 16.2737V22.5255H160.246V16.2737C160.246 14.7821 159.861 13.6079 159.092 12.7511Z" fill="white"/>
<path fill-rule="evenodd" clip-rule="evenodd" d="M91.4868 12.5621C90.6536 11.8639 89.4995 11.5148 88.057 11.5148C87.1276 11.5148 86.2936 11.7052 85.5242 12.086C84.8192 12.4351 84.1139 13.0381 83.6652 13.8315L83.6972 13.8632L85.4604 15.5452C86.1974 14.4027 86.9991 13.9901 88.057 13.9901C88.634 13.9901 89.1149 14.1488 89.4672 14.4344C89.8204 14.72 90.0127 15.1009 90.0127 15.6087V16.1482C89.3395 15.9577 88.6663 15.8308 87.9931 15.8308C86.6144 15.8308 85.5242 16.1482 84.6909 16.7828C83.8575 17.4176 83.4407 18.3378 83.4407 19.4803C83.4407 20.4959 83.7933 21.321 84.4986 21.9239C85.2039 22.5269 86.1012 22.8125 87.1591 22.8125C88.217 22.8125 89.1787 22.3999 90.0766 21.67V22.5586H92.7693V15.6087C92.737 14.2758 92.3208 13.2602 91.4868 12.5621ZM86.6119 18.4331C86.9327 18.2109 87.3498 18.1157 87.9268 18.1157C88.6 18.1157 89.3046 18.2427 90.0102 18.4966V19.5438C89.4008 20.0832 88.6 20.3689 87.6383 20.3689C87.1574 20.3689 86.8042 20.2737 86.548 20.0516C86.2919 19.8611 86.1634 19.6072 86.1634 19.2582C86.1634 18.9091 86.2919 18.6235 86.6119 18.4331Z" fill="white"/>
<path fill-rule="evenodd" clip-rule="evenodd" d="M107.641 22.7804C103.249 22.7804 99.6588 19.2261 99.6588 14.8783C99.6588 10.5306 103.249 6.97628 107.641 6.97628C112.032 6.97628 115.623 10.5306 115.623 14.8783C115.623 19.2261 112.065 22.7804 107.641 22.7804ZM107.638 9.73716C104.786 9.73716 102.478 12.0221 102.478 14.8465C102.478 17.6709 104.786 19.9559 107.638 19.9559C110.492 19.9559 112.8 17.6709 112.8 14.8465C112.8 12.0221 110.492 9.73716 107.638 9.73716Z" fill="white"/>
</svg>
