<svg width="1440" height="456" viewBox="0 0 1440 456" fill="none" xmlns="http://www.w3.org/2000/svg">
<g clip-path="url(#clip0_1814_3157)">
<mask id="mask0_1814_3157" style="mask-type:alpha" maskUnits="userSpaceOnUse" x="120" y="-8" width="1200" height="464">
<ellipse cx="720" cy="224" rx="600" ry="232" fill="url(#paint0_radial_1814_3157)"/>
</mask>
<g mask="url(#mask0_1814_3157)">
<g opacity="0.4" filter="url(#filter0_f_1814_3157)">
<ellipse cx="720" cy="276.5" rx="375" ry="160.5" fill="#9092FF"/>
</g>
<rect x="104" y="-56" width="56" height="56" stroke="#8586E9" stroke-opacity="0.1"/>
<rect x="160" y="-56" width="56" height="56" stroke="#8586E9" stroke-opacity="0.1"/>
<rect x="216" y="-56" width="56" height="56" stroke="#8586E9" stroke-opacity="0.1"/>
<rect x="272" y="-56" width="56" height="56" stroke="#8586E9" stroke-opacity="0.1"/>
<rect x="328" y="-56" width="56" height="56" stroke="#8586E9" stroke-opacity="0.1"/>
<rect x="384" y="-56" width="56" height="56" stroke="#8586E9" stroke-opacity="0.1"/>
<rect x="440" y="-56" width="56" height="56" stroke="#8586E9" stroke-opacity="0.1"/>
<rect x="496" y="-56" width="56" height="56" stroke="#8586E9" stroke-opacity="0.1"/>
<rect x="552" y="-56" width="56" height="56" stroke="#8586E9" stroke-opacity="0.1"/>
<rect x="608" y="-56" width="56" height="56" stroke="#8586E9" stroke-opacity="0.1"/>
<rect x="664" y="-56" width="56" height="56" stroke="#8586E9" stroke-opacity="0.1"/>
<rect x="720" y="-56" width="56" height="56" stroke="#8586E9" stroke-opacity="0.1"/>
<rect x="776" y="-56" width="56" height="56" stroke="#8586E9" stroke-opacity="0.1"/>
<rect x="832" y="-56" width="56" height="56" stroke="#8586E9" stroke-opacity="0.1"/>
<rect x="888" y="-56" width="56" height="56" stroke="#8586E9" stroke-opacity="0.1"/>
<rect x="944" y="-56" width="56" height="56" stroke="#8586E9" stroke-opacity="0.1"/>
<rect x="1000" y="-56" width="56" height="56" stroke="#8586E9" stroke-opacity="0.1"/>
<rect x="1056" y="-56" width="56" height="56" stroke="#8586E9" stroke-opacity="0.1"/>
<rect x="1112" y="-56" width="56" height="56" stroke="#8586E9" stroke-opacity="0.1"/>
<rect x="1168" y="-56" width="56" height="56" stroke="#8586E9" stroke-opacity="0.1"/>
<rect x="1224" y="-56" width="56" height="56" stroke="#8586E9" stroke-opacity="0.1"/>
<rect x="1280" y="-56" width="56" height="56" stroke="#8586E9" stroke-opacity="0.1"/>
<rect x="104" width="56" height="56" stroke="#8586E9" stroke-opacity="0.1"/>
<rect x="160" width="56" height="56" stroke="#8586E9" stroke-opacity="0.1"/>
<rect x="216" width="56" height="56" stroke="#8586E9" stroke-opacity="0.1"/>
<rect x="272" width="56" height="56" stroke="#8586E9" stroke-opacity="0.1"/>
<rect x="328" width="56" height="56" stroke="#8586E9" stroke-opacity="0.1"/>
<rect x="384" width="56" height="56" stroke="#8586E9" stroke-opacity="0.1"/>
<rect x="440" width="56" height="56" stroke="#8586E9" stroke-opacity="0.1"/>
<rect x="496" width="56" height="56" stroke="#8586E9" stroke-opacity="0.1"/>
<rect x="552" width="56" height="56" stroke="#8586E9" stroke-opacity="0.1"/>
<rect x="608" width="56" height="56" stroke="#8586E9" stroke-opacity="0.1"/>
<rect x="664" width="56" height="56" stroke="#8586E9" stroke-opacity="0.1"/>
<rect x="720" width="56" height="56" stroke="#8586E9" stroke-opacity="0.1"/>
<rect x="776" width="56" height="56" stroke="#8586E9" stroke-opacity="0.1"/>
<rect x="832" width="56" height="56" stroke="#8586E9" stroke-opacity="0.1"/>
<rect x="888" width="56" height="56" stroke="#8586E9" stroke-opacity="0.1"/>
<rect x="944" width="56" height="56" stroke="#8586E9" stroke-opacity="0.1"/>
<rect x="1000" width="56" height="56" stroke="#8586E9" stroke-opacity="0.1"/>
<rect x="1056" width="56" height="56" stroke="#8586E9" stroke-opacity="0.1"/>
<rect x="1112" width="56" height="56" stroke="#8586E9" stroke-opacity="0.1"/>
<rect x="1168" width="56" height="56" stroke="#8586E9" stroke-opacity="0.1"/>
<rect x="1224" width="56" height="56" stroke="#8586E9" stroke-opacity="0.1"/>
<rect x="1280" width="56" height="56" stroke="#8586E9" stroke-opacity="0.1"/>
<rect x="104" y="56" width="56" height="56" stroke="#8586E9" stroke-opacity="0.1"/>
<rect x="160" y="56" width="56" height="56" stroke="#8586E9" stroke-opacity="0.1"/>
<rect x="216" y="56" width="56" height="56" stroke="#8586E9" stroke-opacity="0.1"/>
<rect x="272" y="56" width="56" height="56" stroke="#8586E9" stroke-opacity="0.1"/>
<rect x="328" y="56" width="56" height="56" stroke="#8586E9" stroke-opacity="0.1"/>
<rect x="384" y="56" width="56" height="56" stroke="#8586E9" stroke-opacity="0.1"/>
<rect x="440" y="56" width="56" height="56" stroke="#8586E9" stroke-opacity="0.1"/>
<rect x="496" y="56" width="56" height="56" stroke="#8586E9" stroke-opacity="0.1"/>
<rect x="552" y="56" width="56" height="56" stroke="#8586E9" stroke-opacity="0.1"/>
<rect x="608" y="56" width="56" height="56" stroke="#8586E9" stroke-opacity="0.1"/>
<rect x="664" y="56" width="56" height="56" stroke="#8586E9" stroke-opacity="0.1"/>
<rect x="720" y="56" width="56" height="56" stroke="#8586E9" stroke-opacity="0.1"/>
<rect x="776" y="56" width="56" height="56" stroke="#8586E9" stroke-opacity="0.1"/>
<rect x="832" y="56" width="56" height="56" stroke="#8586E9" stroke-opacity="0.1"/>
<rect x="888" y="56" width="56" height="56" stroke="#8586E9" stroke-opacity="0.1"/>
<rect x="944" y="56" width="56" height="56" stroke="#8586E9" stroke-opacity="0.1"/>
<rect x="1000" y="56" width="56" height="56" stroke="#8586E9" stroke-opacity="0.1"/>
<rect x="1056" y="56" width="56" height="56" stroke="#8586E9" stroke-opacity="0.1"/>
<rect x="1112" y="56" width="56" height="56" stroke="#8586E9" stroke-opacity="0.1"/>
<rect x="1168" y="56" width="56" height="56" stroke="#8586E9" stroke-opacity="0.1"/>
<rect x="1224" y="56" width="56" height="56" stroke="#8586E9" stroke-opacity="0.1"/>
<rect x="1280" y="56" width="56" height="56" stroke="#8586E9" stroke-opacity="0.1"/>
<rect x="104" y="112" width="56" height="56" stroke="#8586E9" stroke-opacity="0.1"/>
<rect x="160" y="112" width="56" height="56" stroke="#8586E9" stroke-opacity="0.1"/>
<rect x="216" y="112" width="56" height="56" stroke="#8586E9" stroke-opacity="0.1"/>
<rect x="272" y="112" width="56" height="56" stroke="#8586E9" stroke-opacity="0.1"/>
<rect x="328" y="112" width="56" height="56" stroke="#8586E9" stroke-opacity="0.1"/>
<rect x="384" y="112" width="56" height="56" stroke="#8586E9" stroke-opacity="0.1"/>
<rect x="440" y="112" width="56" height="56" stroke="#8586E9" stroke-opacity="0.1"/>
<rect x="496" y="112" width="56" height="56" stroke="#8586E9" stroke-opacity="0.1"/>
<rect x="552" y="112" width="56" height="56" stroke="#8586E9" stroke-opacity="0.1"/>
<rect x="608" y="112" width="56" height="56" stroke="#8586E9" stroke-opacity="0.1"/>
<rect x="664" y="112" width="56" height="56" stroke="#8586E9" stroke-opacity="0.1"/>
<rect x="720" y="112" width="56" height="56" stroke="#8586E9" stroke-opacity="0.1"/>
<rect x="776" y="112" width="56" height="56" stroke="#8586E9" stroke-opacity="0.1"/>
<rect x="832" y="112" width="56" height="56" stroke="#8586E9" stroke-opacity="0.1"/>
<rect x="888" y="112" width="56" height="56" stroke="#8586E9" stroke-opacity="0.1"/>
<rect x="944" y="112" width="56" height="56" stroke="#8586E9" stroke-opacity="0.1"/>
<rect x="1000" y="112" width="56" height="56" stroke="#8586E9" stroke-opacity="0.1"/>
<rect x="1056" y="112" width="56" height="56" stroke="#8586E9" stroke-opacity="0.1"/>
<rect x="1112" y="112" width="56" height="56" stroke="#8586E9" stroke-opacity="0.1"/>
<rect x="1168" y="112" width="56" height="56" stroke="#8586E9" stroke-opacity="0.1"/>
<rect x="1224" y="112" width="56" height="56" stroke="#8586E9" stroke-opacity="0.1"/>
<rect x="1280" y="112" width="56" height="56" stroke="#8586E9" stroke-opacity="0.1"/>
<rect x="104" y="168" width="56" height="56" stroke="#8586E9" stroke-opacity="0.1"/>
<rect x="160" y="168" width="56" height="56" stroke="#8586E9" stroke-opacity="0.1"/>
<rect x="216" y="168" width="56" height="56" stroke="#8586E9" stroke-opacity="0.1"/>
<rect x="272" y="168" width="56" height="56" stroke="#8586E9" stroke-opacity="0.1"/>
<rect x="328" y="168" width="56" height="56" stroke="#8586E9" stroke-opacity="0.1"/>
<rect x="384" y="168" width="56" height="56" stroke="#8586E9" stroke-opacity="0.1"/>
<rect x="440" y="168" width="56" height="56" stroke="#8586E9" stroke-opacity="0.1"/>
<rect x="496" y="168" width="56" height="56" stroke="#8586E9" stroke-opacity="0.1"/>
<rect x="552" y="168" width="56" height="56" stroke="#8586E9" stroke-opacity="0.1"/>
<rect x="608" y="168" width="56" height="56" stroke="#8586E9" stroke-opacity="0.1"/>
<rect x="664" y="168" width="56" height="56" stroke="#8586E9" stroke-opacity="0.1"/>
<rect x="720" y="168" width="56" height="56" stroke="#8586E9" stroke-opacity="0.1"/>
<rect x="776" y="168" width="56" height="56" stroke="#8586E9" stroke-opacity="0.1"/>
<rect x="832" y="168" width="56" height="56" stroke="#8586E9" stroke-opacity="0.1"/>
<rect x="888" y="168" width="56" height="56" stroke="#8586E9" stroke-opacity="0.1"/>
<rect x="944" y="168" width="56" height="56" stroke="#8586E9" stroke-opacity="0.1"/>
<rect x="1000" y="168" width="56" height="56" stroke="#8586E9" stroke-opacity="0.1"/>
<rect x="1056" y="168" width="56" height="56" stroke="#8586E9" stroke-opacity="0.1"/>
<rect x="1112" y="168" width="56" height="56" stroke="#8586E9" stroke-opacity="0.1"/>
<rect x="1168" y="168" width="56" height="56" stroke="#8586E9" stroke-opacity="0.1"/>
<rect x="1224" y="168" width="56" height="56" stroke="#8586E9" stroke-opacity="0.1"/>
<rect x="1280" y="168" width="56" height="56" stroke="#8586E9" stroke-opacity="0.1"/>
<rect x="104" y="224" width="56" height="56" stroke="#8586E9" stroke-opacity="0.1"/>
<rect x="160" y="224" width="56" height="56" stroke="#8586E9" stroke-opacity="0.1"/>
<rect x="216" y="224" width="56" height="56" stroke="#8586E9" stroke-opacity="0.1"/>
<rect x="272" y="224" width="56" height="56" stroke="#8586E9" stroke-opacity="0.1"/>
<rect x="328" y="224" width="56" height="56" stroke="#8586E9" stroke-opacity="0.1"/>
<rect x="384" y="224" width="56" height="56" stroke="#8586E9" stroke-opacity="0.1"/>
<rect x="440" y="224" width="56" height="56" stroke="#8586E9" stroke-opacity="0.1"/>
<rect x="496" y="224" width="56" height="56" stroke="#8586E9" stroke-opacity="0.1"/>
<rect x="552" y="224" width="56" height="56" stroke="#8586E9" stroke-opacity="0.1"/>
<rect x="608" y="224" width="56" height="56" stroke="#8586E9" stroke-opacity="0.1"/>
<rect x="664" y="224" width="56" height="56" stroke="#8586E9" stroke-opacity="0.1"/>
<rect x="720" y="224" width="56" height="56" stroke="#8586E9" stroke-opacity="0.1"/>
<rect x="776" y="224" width="56" height="56" stroke="#8586E9" stroke-opacity="0.1"/>
<rect x="832" y="224" width="56" height="56" stroke="#8586E9" stroke-opacity="0.1"/>
<rect x="888" y="224" width="56" height="56" stroke="#8586E9" stroke-opacity="0.1"/>
<rect x="944" y="224" width="56" height="56" stroke="#8586E9" stroke-opacity="0.1"/>
<rect x="1000" y="224" width="56" height="56" stroke="#8586E9" stroke-opacity="0.1"/>
<rect x="1056" y="224" width="56" height="56" stroke="#8586E9" stroke-opacity="0.1"/>
<rect x="1112" y="224" width="56" height="56" stroke="#8586E9" stroke-opacity="0.1"/>
<rect x="1168" y="224" width="56" height="56" stroke="#8586E9" stroke-opacity="0.1"/>
<rect x="1224" y="224" width="56" height="56" stroke="#8586E9" stroke-opacity="0.1"/>
<rect x="1280" y="224" width="56" height="56" stroke="#8586E9" stroke-opacity="0.1"/>
<rect x="104" y="280" width="56" height="56" stroke="#8586E9" stroke-opacity="0.1"/>
<rect x="160" y="280" width="56" height="56" stroke="#8586E9" stroke-opacity="0.1"/>
<rect x="216" y="280" width="56" height="56" stroke="#8586E9" stroke-opacity="0.1"/>
<rect x="272" y="280" width="56" height="56" stroke="#8586E9" stroke-opacity="0.1"/>
<rect x="328" y="280" width="56" height="56" stroke="#8586E9" stroke-opacity="0.1"/>
<rect x="384" y="280" width="56" height="56" stroke="#8586E9" stroke-opacity="0.1"/>
<rect x="440" y="280" width="56" height="56" stroke="#8586E9" stroke-opacity="0.1"/>
<rect x="496" y="280" width="56" height="56" stroke="#8586E9" stroke-opacity="0.1"/>
<rect x="552" y="280" width="56" height="56" stroke="#8586E9" stroke-opacity="0.1"/>
<rect x="608" y="280" width="56" height="56" stroke="#8586E9" stroke-opacity="0.1"/>
<rect x="664" y="280" width="56" height="56" stroke="#8586E9" stroke-opacity="0.1"/>
<rect x="720" y="280" width="56" height="56" stroke="#8586E9" stroke-opacity="0.1"/>
<rect x="776" y="280" width="56" height="56" stroke="#8586E9" stroke-opacity="0.1"/>
<rect x="832" y="280" width="56" height="56" stroke="#8586E9" stroke-opacity="0.1"/>
<rect x="888" y="280" width="56" height="56" stroke="#8586E9" stroke-opacity="0.1"/>
<rect x="944" y="280" width="56" height="56" stroke="#8586E9" stroke-opacity="0.1"/>
<rect x="1000" y="280" width="56" height="56" stroke="#8586E9" stroke-opacity="0.1"/>
<rect x="1056" y="280" width="56" height="56" stroke="#8586E9" stroke-opacity="0.1"/>
<rect x="1112" y="280" width="56" height="56" stroke="#8586E9" stroke-opacity="0.1"/>
<rect x="1168" y="280" width="56" height="56" stroke="#8586E9" stroke-opacity="0.1"/>
<rect x="1224" y="280" width="56" height="56" stroke="#8586E9" stroke-opacity="0.1"/>
<rect x="1280" y="280" width="56" height="56" stroke="#8586E9" stroke-opacity="0.1"/>
<rect x="104" y="336" width="56" height="56" stroke="#8586E9" stroke-opacity="0.1"/>
<rect x="160" y="336" width="56" height="56" stroke="#8586E9" stroke-opacity="0.1"/>
<rect x="216" y="336" width="56" height="56" stroke="#8586E9" stroke-opacity="0.1"/>
<rect x="272" y="336" width="56" height="56" stroke="#8586E9" stroke-opacity="0.1"/>
<rect x="328" y="336" width="56" height="56" stroke="#8586E9" stroke-opacity="0.1"/>
<rect x="384" y="336" width="56" height="56" stroke="#8586E9" stroke-opacity="0.1"/>
<rect x="440" y="336" width="56" height="56" stroke="#8586E9" stroke-opacity="0.1"/>
<rect x="496" y="336" width="56" height="56" stroke="#8586E9" stroke-opacity="0.1"/>
<rect x="552" y="336" width="56" height="56" stroke="#8586E9" stroke-opacity="0.1"/>
<rect x="608" y="336" width="56" height="56" stroke="#8586E9" stroke-opacity="0.1"/>
<rect x="664" y="336" width="56" height="56" stroke="#8586E9" stroke-opacity="0.1"/>
<rect x="720" y="336" width="56" height="56" stroke="#8586E9" stroke-opacity="0.1"/>
<rect x="776" y="336" width="56" height="56" stroke="#8586E9" stroke-opacity="0.1"/>
<rect x="832" y="336" width="56" height="56" stroke="#8586E9" stroke-opacity="0.1"/>
<rect x="888" y="336" width="56" height="56" stroke="#8586E9" stroke-opacity="0.1"/>
<rect x="944" y="336" width="56" height="56" stroke="#8586E9" stroke-opacity="0.1"/>
<rect x="1000" y="336" width="56" height="56" stroke="#8586E9" stroke-opacity="0.1"/>
<rect x="1056" y="336" width="56" height="56" stroke="#8586E9" stroke-opacity="0.1"/>
<rect x="1112" y="336" width="56" height="56" stroke="#8586E9" stroke-opacity="0.1"/>
<rect x="1168" y="336" width="56" height="56" stroke="#8586E9" stroke-opacity="0.1"/>
<rect x="1224" y="336" width="56" height="56" stroke="#8586E9" stroke-opacity="0.1"/>
<rect x="1280" y="336" width="56" height="56" stroke="#8586E9" stroke-opacity="0.1"/>
<rect x="104" y="392" width="56" height="56" stroke="#8586E9" stroke-opacity="0.1"/>
<rect x="160" y="392" width="56" height="56" stroke="#8586E9" stroke-opacity="0.1"/>
<rect x="216" y="392" width="56" height="56" stroke="#8586E9" stroke-opacity="0.1"/>
<rect x="272" y="392" width="56" height="56" stroke="#8586E9" stroke-opacity="0.1"/>
<rect x="328" y="392" width="56" height="56" stroke="#8586E9" stroke-opacity="0.1"/>
<rect x="384" y="392" width="56" height="56" stroke="#8586E9" stroke-opacity="0.1"/>
<rect x="440" y="392" width="56" height="56" stroke="#8586E9" stroke-opacity="0.1"/>
<rect x="496" y="392" width="56" height="56" stroke="#8586E9" stroke-opacity="0.1"/>
<rect x="552" y="392" width="56" height="56" stroke="#8586E9" stroke-opacity="0.1"/>
<rect x="608" y="392" width="56" height="56" stroke="#8586E9" stroke-opacity="0.1"/>
<rect x="664" y="392" width="56" height="56" stroke="#8586E9" stroke-opacity="0.1"/>
<rect x="720" y="392" width="56" height="56" stroke="#8586E9" stroke-opacity="0.1"/>
<rect x="776" y="392" width="56" height="56" stroke="#8586E9" stroke-opacity="0.1"/>
<rect x="832" y="392" width="56" height="56" stroke="#8586E9" stroke-opacity="0.1"/>
<rect x="888" y="392" width="56" height="56" stroke="#8586E9" stroke-opacity="0.1"/>
<rect x="944" y="392" width="56" height="56" stroke="#8586E9" stroke-opacity="0.1"/>
<rect x="1000" y="392" width="56" height="56" stroke="#8586E9" stroke-opacity="0.1"/>
<rect x="1056" y="392" width="56" height="56" stroke="#8586E9" stroke-opacity="0.1"/>
<rect x="1112" y="392" width="56" height="56" stroke="#8586E9" stroke-opacity="0.1"/>
<rect x="1168" y="392" width="56" height="56" stroke="#8586E9" stroke-opacity="0.1"/>
<rect x="1224" y="392" width="56" height="56" stroke="#8586E9" stroke-opacity="0.1"/>
<rect x="1280" y="392" width="56" height="56" stroke="#8586E9" stroke-opacity="0.1"/>
<rect x="104" y="448" width="56" height="56" stroke="#8586E9" stroke-opacity="0.1"/>
<rect x="160" y="448" width="56" height="56" stroke="#8586E9" stroke-opacity="0.1"/>
<rect x="216" y="448" width="56" height="56" stroke="#8586E9" stroke-opacity="0.1"/>
<rect x="272" y="448" width="56" height="56" stroke="#8586E9" stroke-opacity="0.1"/>
<rect x="328" y="448" width="56" height="56" stroke="#8586E9" stroke-opacity="0.1"/>
<rect x="384" y="448" width="56" height="56" stroke="#8586E9" stroke-opacity="0.1"/>
<rect x="440" y="448" width="56" height="56" stroke="#8586E9" stroke-opacity="0.1"/>
<rect x="496" y="448" width="56" height="56" stroke="#8586E9" stroke-opacity="0.1"/>
<rect x="552" y="448" width="56" height="56" stroke="#8586E9" stroke-opacity="0.1"/>
<rect x="608" y="448" width="56" height="56" stroke="#8586E9" stroke-opacity="0.1"/>
<rect x="664" y="448" width="56" height="56" stroke="#8586E9" stroke-opacity="0.1"/>
<rect x="720" y="448" width="56" height="56" stroke="#8586E9" stroke-opacity="0.1"/>
<rect x="776" y="448" width="56" height="56" stroke="#8586E9" stroke-opacity="0.1"/>
<rect x="832" y="448" width="56" height="56" stroke="#8586E9" stroke-opacity="0.1"/>
<rect x="888" y="448" width="56" height="56" stroke="#8586E9" stroke-opacity="0.1"/>
<rect x="944" y="448" width="56" height="56" stroke="#8586E9" stroke-opacity="0.1"/>
<rect x="1000" y="448" width="56" height="56" stroke="#8586E9" stroke-opacity="0.1"/>
<rect x="1056" y="448" width="56" height="56" stroke="#8586E9" stroke-opacity="0.1"/>
<rect x="1112" y="448" width="56" height="56" stroke="#8586E9" stroke-opacity="0.1"/>
<rect x="1168" y="448" width="56" height="56" stroke="#8586E9" stroke-opacity="0.1"/>
<rect x="1224" y="448" width="56" height="56" stroke="#8586E9" stroke-opacity="0.1"/>
<rect x="1280" y="448" width="56" height="56" stroke="#8586E9" stroke-opacity="0.1"/>
</g>
</g>
<defs>
<filter id="filter0_f_1814_3157" x="45" y="-184" width="1350" height="921" filterUnits="userSpaceOnUse" color-interpolation-filters="sRGB">
<feFlood flood-opacity="0" result="BackgroundImageFix"/>
<feBlend mode="normal" in="SourceGraphic" in2="BackgroundImageFix" result="shape"/>
<feGaussianBlur stdDeviation="150" result="effect1_foregroundBlur_1814_3157"/>
</filter>
<radialGradient id="paint0_radial_1814_3157" cx="0" cy="0" r="1" gradientUnits="userSpaceOnUse" gradientTransform="translate(720 224) rotate(90) scale(232 600)">
<stop/>
<stop offset="1" stop-opacity="0"/>
</radialGradient>
<clipPath id="clip0_1814_3157">
<rect width="1440" height="456" fill="white"/>
</clipPath>
</defs>
</svg>
