<svg xmlns="http://www.w3.org/2000/svg" viewBox="0 0 195 103" fill="none">
  <path d="M20.4707 92.1113H61.4082V102.347H20.4697V92.1123H10.2354V81.877H20.4707V92.1113ZM112.583 102.347H102.349V92.1113H112.583V102.347ZM163.757 102.347H112.584V92.1113H163.757V102.347ZM173.992 102.347H163.758V92.1113H173.992V102.347ZM184.228 81.877H194.462V92.1123H184.228V102.347H173.993V92.1113H184.227V81.877H173.993V71.6416H184.228V81.877ZM71.6436 92.1123H61.4092V81.877H71.6436V92.1123ZM102.349 92.1123H92.1133V81.877H102.349V92.1123ZM10.2344 81.877H0V71.6416H10.2344V81.877ZM81.8789 81.877H71.6445V71.6416H81.8789V81.877ZM112.583 81.877H102.349V71.6416H112.583V81.877ZM10.2344 71.6406H0V61.4062H10.2344V71.6406ZM81.8789 71.6406H71.6445V61.4062H81.8789V71.6406ZM173.992 71.6406H163.758V61.4062H173.992V71.6406ZM133.053 61.4062H122.818V69.9355H112.584V59.7002H122.818V51.1719H133.053V61.4062ZM20.4707 61.4062H10.2354V51.1719H20.4707V61.4062ZM71.6436 61.4062H61.4092V51.1719H71.6436V61.4062ZM163.757 61.4062H153.522V51.1719H163.757V61.4062ZM20.4707 30.7051H30.7041V51.1709H20.4697V30.7051H10.2354V20.4707H20.4707V30.7051ZM61.4082 51.1709H51.1738V30.7051H61.4082V51.1709ZM133.053 51.1709H122.818V30.7051H133.053V51.1709ZM163.757 51.1709H153.522V30.7051H163.757V51.1709ZM71.6436 30.7051H61.4092V20.4707H71.6436V30.7051ZM122.818 30.7051H112.584V20.4707H122.818V30.7051ZM173.992 30.7051H163.758V20.4707H173.992V30.7051ZM61.4082 20.4697H20.4697V10.2354H61.4082V20.4697ZM163.757 20.4697H122.818V10.2354H163.757V20.4697ZM61.4082 10.2344H20.4697V0H61.4082V10.2344ZM163.757 10.2344H122.818V0H163.757V10.2344Z" fill="url(#paint0_linear_3575_92436)" fill-opacity="0.25"/>
  <defs>
    <linearGradient id="paint0_linear_3575_92436" x1="97.231" y1="-36.9707" x2="97.2089" y2="120.828" gradientUnits="userSpaceOnUse">
      <stop stop-color="#1C1C3F" stop-opacity="0"/>
      <stop offset="0.30801" stop-color="#5A5AB5"/>
    </linearGradient>
  </defs>
</svg>