<svg xmlns="http://www.w3.org/2000/svg" width="304" height="218" viewBox="0 0 304 218" fill="none">
  <path d="M65.1406 217.148H21.7119V195.435H65.1406V217.148ZM108.571 217.148H65.1416V195.435H108.571V217.148ZM151.999 217.148H108.572V195.435H151.999V217.148ZM217.141 217.148H152V195.435H217.141V217.148ZM238.856 217.148H217.142V195.435H238.856V217.148ZM21.7139 195.434H0V173.72H21.7139V195.434ZM260.571 195.434H238.856V173.72H260.571V195.434ZM21.7139 173.719H0V130.289H21.7139V173.719ZM260.571 173.719H238.856V130.289H260.571V173.719ZM303.999 173.719H282.284V130.289H303.999V173.719ZM21.7139 130.288H0V86.8604H21.7139V130.288ZM260.571 130.288H238.856V86.8604H260.571V130.288ZM303.999 130.288H282.284V86.8604H303.999V130.288ZM21.7139 86.8594H0V65.1455H21.7139V86.8594ZM260.571 86.8594H238.856V65.1455H260.571V86.8594ZM303.999 86.8594H282.284V65.1455H303.999V86.8594ZM21.7139 65.1445H0V43.4307H21.7139V65.1445ZM151.999 65.1445H130.284V43.4307H151.999V65.1445ZM217.141 65.1445H152V43.4307H217.141V65.1445ZM238.856 65.1445H217.142V43.4307H238.856V65.1445ZM303.999 65.1445H282.284V43.4307H303.999V65.1445ZM21.7139 43.4297H0V21.7148H21.7139V43.4297ZM130.286 43.4297H108.572V21.7148H130.286V43.4297ZM282.284 43.4297H260.569V21.7148H282.284V43.4297ZM65.1406 21.7139H21.7119V0H65.1406V21.7139ZM108.571 21.7139H65.1416V0H108.571V21.7139Z" fill="url(#paint0_linear_4552_71916)" fill-opacity="0.25"/>
  <defs>
    <linearGradient id="paint0_linear_4552_71916" x1="152.245" y1="-179.437" x2="151.71" y2="256.36" gradientUnits="userSpaceOnUse">
      <stop stop-color="#1C1C3F" stop-opacity="0"/>
      <stop offset="0.389423" stop-color="#5A5AB5"/>
    </linearGradient>
  </defs>
</svg>