<svg xmlns="http://www.w3.org/2000/svg" width="520" height="235" fill="none"><style>@keyframes blink{0%{opacity:0}}</style><path fill="#CC8F6B" d="m254.919 156.412-5.979 26.881-32.085 24.287-18.847 14.261v6.196c0 1.729.7 3.292 1.833 4.42a6.23 6.23 0 0 0 4.419 1.833h1.929s-74.819.188-82.463.146q-.5.001-.608-.006a203 203 0 0 1-25.537-2.614c-18.24-3.056-34.79-8.504-48.613-15.732-25.959-13.573-42.326-33.429-42.326-55.551 0-19.856 13.845-37.885 35.293-51.19 8.25-5.123 17.629-9.536 27.775-13.087 17.812-6.232 38.008-9.8 58.649-9.8 22.844 0 43.676 4.068 61.794 11.313 7.613 3.044 14.748 6.654 21.349 10.753 19.6 12.175 34.525 28.708 43.412 47.884z"/><path fill="#DBAB83" d="M101.72 232.462a249 249 0 0 1-1.577-.233q.786.121 1.577.233M123.122 234.433q.104.008.608.006c1.911.011 8.02.005 16.108-.006zM97.584 231.818q.566.092 1.133.18-.567-.09-1.133-.182zM120.206 234.295q-.68-.039-1.358-.078.68.044 1.358.078M199.841 232.459a6.22 6.22 0 0 1-1.833-4.419v-6.196l18.846-14.261a104 104 0 0 0-3.081-8.167c-17.281-40.643-56.163-63.012-86.851-49.968-8.811 3.745-15.988 10.006-21.335 17.99 9.404 3.072 19.547 5.453 30.233 7.016 9.637 1.412 41.263 5.769 41.963 31.765 0 0-.452 24.098-29.63 27.756a63 63 0 0 1-7.715.464c24.355-.037 65.753-.141 65.753-.141h-1.928c-1.729 0-3.287-.7-4.42-1.833zM114.47 233.908a148 148 0 0 1-1.689-.144c.562.051 1.127.096 1.689.144"/><path fill="#BA7D60" d="m240.222 178.031-.034.146-30.427 34.769 7.09-5.363 32.086-24.287 5.979-26.881a104 104 0 0 0-7.051-12.749z"/><path fill="#DDBB8E" d="M41.938 116.39c8.25-5.122 17.63-9.535 27.775-13.086 17.812-6.233 38.009-9.8 58.649-9.8 22.844 0 43.676 4.068 61.795 11.312 7.612 3.045 14.747 6.655 21.348 10.754 18.836 11.7 33.35 27.426 42.344 45.655l1.071-4.813c-8.889-19.179-23.815-35.709-43.412-47.885-6.601-4.099-13.736-7.708-21.349-10.753-18.118-7.244-38.95-11.312-61.794-11.312-20.643 0-40.837 3.567-58.649 9.8-10.146 3.55-19.524 7.967-27.775 13.086-21.447 13.303-35.293 31.332-35.293 51.191 0 1.18.056 2.356.149 3.525 1.526-18.464 14.97-35.158 35.144-47.671z"/><path fill="#1C1C1C" d="M211.508 108.527c-15.377 12.418-40.963 19.842-69.517 18.439-32.228-1.579-59.588-13.983-72.275-30.704 17.812-6.233 38.008-9.8 58.649-9.8 22.844 0 43.676 4.068 61.794 11.312 7.613 3.045 14.748 6.654 21.349 10.753"/><path fill="#CC8F6B" d="m222.008 74.227-2.386-.615a26.2 26.2 0 0 0-7.636-.813c-2.555.104-5.094.58-7.54 1.428 0 27.033-36.847 48.95-82.305 48.95-22.73 0-43.302-5.479-58.202-14.335a77 77 0 0 1-4.574-2.949c-12.181-8.54-19.53-19.594-19.53-31.663-.022-.006-.036-.017-.059-.02a26.4 26.4 0 0 0-7.486-1.405 26.2 26.2 0 0 0-7.63.812l-2.392.616c3.283-10.82 8.43-17.765 12.76-22.001 4.335-4.237 7.843-5.769 7.843-5.769a39.4 39.4 0 0 0-12.2-.188l-1.375.188c9.83-19.667 45.483-21.186 45.483-21.186a10.5 10.5 0 0 0-1.5-3.803 10.5 10.5 0 0 0-3.695-3.467l-1.827-1.017c13.744-3.02 25.61-1.982 34.725.21-2.778-4.03-6.553-8.324-11.026-10.426 0 0 18.74-4.8 26.805 5.248 0 0 13.362-13.91 32.327-11.801 0 0-10.826 7.618-19.156 20.3 9.378-3.815 25.285-7.878 45.079-3.531h.005l-1.821 1.017a10.46 10.46 0 0 0-5.196 7.27s35.647 1.518 45.484 21.186l-1.375-.188a39 39 0 0 0-5.648-.385c-2.195.01-4.388.2-6.558.573 0 0 14.051 6.129 20.606 27.77z"/><path fill="#1C1C1C" d="m385.427 105.407-34.826 69.984h-12.449l34.824-69.984z"/><path fill="#DDBB8E" d="M122.396 105.491c19.702.166 29.429-3.657 33.89-10.612 6.635-10.346-6.64-16.291-6.64-16.291s10.576-1.251 18.577.396c7.298 1.501 11.951 6.373 16.572 6.165 11.186-.503 12.761-12.47 5.446-22.2-8.904-11.842-28.67-20.472-46.437-19.348-10.998.697-21.408 5.285-21.408 5.285s-10.41-4.588-21.408-5.285c-17.767-1.124-37.533 7.506-46.436 19.347-7.315 9.73-5.74 21.698 5.445 22.201 4.622.208 9.275-4.664 16.573-6.165 7.998-1.647 18.577-.396 18.577-.396s-13.275 5.945-6.64 16.29c4.458 6.956 14.188 10.779 33.889 10.613"/><path fill="#1C1C1C" d="M133.347 69.589c-1.069-3.174-5.1-4.678-9.005-3.363a9.2 9.2 0 0 0-1.945.925 9 9 0 0 0-1.946-.925c-3.902-1.315-7.933.191-9.004 3.362-1.068 3.174 1.228 6.812 5.13 8.128 2.056.694 4.001 1.11 5.82 1.11s3.761-.419 5.819-1.11c3.902-1.316 6.199-4.954 5.131-8.127"/><path fill="#EFDCB6" d="M130.847 72.096c.614-.811.162-2.188-1.01-3.076-1.173-.888-2.621-.95-3.235-.14-.614.811-.161 2.188 1.011 3.076s2.62.95 3.234.14"/><path fill="#1C1C1C" d="M143.407 80.567a1.055 1.055 0 0 0-1.442.376c-2.687 4.591-10.744 7.796-19.591 7.796s-16.289-2.966-19.261-7.279l1.257-.82c.486-.318.624-.97.307-1.46a1.056 1.056 0 0 0-1.46-.306l-3.888 2.539a1.055 1.055 0 0 0 .577 1.937c.197 0 .396-.056.576-.172l.866-.565c3.379 4.95 11.681 8.234 21.023 8.234s18.315-3.553 21.41-8.838a1.054 1.054 0 0 0-.376-1.442zM175.357 188.008c-8.577-9.37-21.711-14.507-33.701-16.39-30.606-4.813-56.211-12.375-56.211-12.375 14.388 7.171 31.536 12.454 50.372 15.209 9.637 1.411 41.264 5.768 41.964 31.764 0 0-.453 24.098-29.631 27.756a62 62 0 0 1-7.776.464h-5.535l.008.011 32.051-.062c3.126-2.35 5.46-5.074 7.72-7.534 1.912-2.08 16.311-6.061 22.249-19.659 0 0-9.778-6.362-21.51-19.182z"/><path fill="#BA7D60" d="M134.841 234.433h5.597c2.775 0 5.342-.166 7.717-.464 28.352-3.553 29.58-26.403 29.628-27.694C18.665 231.304 2.689 150.264 24.257 123.112 13.194 134.096 6.65 146.884 6.65 160.539c0 22.122 16.37 41.981 42.326 55.551 13.826 7.227 30.373 12.676 48.613 15.731a203 203 0 0 0 25.537 2.615c.068.006.273.005.608.005 1.493.009 5.555.009 11.115 0l-.005-.005z"/><path fill="#DDBB8E" d="M198.008 205.339c0-3.415-22.712-22.948-54.148-22.012-5.785.171-10.477 3.697-10.477 8.254 0 2.308 1.206 4.394 3.145 5.889-4.672.833-8.163 4.113-8.163 8.046s3.322 7.048 7.82 7.976c-1.734 1.473-2.802 3.438-2.802 5.606 0 4.559 4.703 7.88 10.477 8.254 26.986 1.751 54.148-18.808 54.148-22.013"/><path fill="#1C1C1C" d="M136.174 213.36c15.189-3.801 30.601-5.938 46.155-7.399a251 251 0 0 1 7.79-.563c2.612-.112 5.221-.253 7.866-.188l.045.259c-15.313 2.701-30.859 5.009-46.304 6.704-5.167.577-10.343 1.091-15.532 1.451l-.02-.261z"/><path fill="#EFDCB6" d="M181.122 202.567c-26.432 2.651-37.547 5.859-40.73 6.104-3.179.241-5.892-1.308-6.055-3.464-.163-2.153 2.28-4.115 5.462-4.34 28.942-2.03 43.117 1.521 41.323 1.7M180.415 195.438c-15.864-4.805-30.972-1.76-34.823-1.737-3.191.016-5.929-1.136-6.154-3.287-.228-2.148 2.148-4.321 5.333-4.498 23.558-1.31 37.37 10.042 35.644 9.519zM180.542 212.292c-6.837 8.237-31.908 11.602-35.087 11.849-3.18.25-5.895-1.296-6.064-3.449-.169-2.154 2.263-4.394 5.451-4.352 21.298.272 36.853-5.437 35.7-4.048"/><path fill="#1C1C1C" d="M191.089 200.976c-14.897-6.904-34.244-7.489-50.428-3.191-1.136-.795-2.845-1.987-2.845-1.987-2.345-1.549-3.497-4.532-2.106-7.11 1.513-2.893 4.911-4.563 8.153-5.232l-.009-.264c-1.813.062-3.637.408-5.305 1.164-5.698 2.398-7.337 8.914-2.544 12.985-1.869.41-3.671 1.22-5.13 2.494-3.517 2.929-3.706 8.026-.265 11.115 1.426 1.339 3.222 2.207 5.097 2.663-1.209 1.13-2.133 2.606-2.431 4.259-1.029 5.951 5.451 9.44 10.576 9.609l.016-.262c-2.516-.641-4.843-1.622-6.685-3.354-2.819-2.6-2.775-6.443.36-8.776l3.289-2.598-4.222-1.057c-8.01-2.252-7.678-9.907.286-11.889l1.653-.371c4.175-.627 8.389-1.032 12.598-1.299 13.255-.722 26.842.042 39.462 4.434a63 63 0 0 1 7.34 3.143l.124-.234c-2.154-1.664-4.529-3.028-6.981-4.245z"/><path fill="#DDBB8E" d="M107.365 25.274s-1.766-5.406-4.878-8.076c-9.114-2.193-20.98-3.23-34.724-.211 0 0 26.344-2.215 39.602 8.287M117.813 21.465S125.066 2.59 150.592.218c-18.967-2.109-32.326 11.801-32.326 11.801C110.2 1.972 91.46 6.771 91.46 6.771s19.331-3.306 26.356 14.694zM44.668 70.848c-4.729-4.723-14.284-3.165-14.284-3.165C33.457 54.247 42.877 46.46 42.877 46.46s-3.508 1.532-7.846 5.769c-4.33 4.236-9.477 11.18-12.76 22.001l2.392-.616a26.1 26.1 0 0 1 7.63-.812c2.538.104 5.057.573 7.486 1.405.02.006.037.017.06.02 0 5.727 1.658 11.226 4.697 16.334-2.713-9.12.132-19.716.132-19.716zM74.782 25.275S39.129 26.793 29.298 46.46c0 0 18.004-18.582 48.23-12.794zM176.514 16.987c-.585.006-14.74-4.653-48.956 10.362 0 0 1.476-3.739 3.877-6.831 9.378-3.815 25.284-7.877 45.079-3.531M199.61 70.848c4.728-4.723 14.284-3.165 14.284-3.165-3.073-13.436-12.493-21.223-12.493-21.223s3.508 1.532 7.846 5.769c4.329 4.236 9.477 11.18 12.76 22.001l-2.392-.616a26.1 26.1 0 0 0-7.63-.812 26.4 26.4 0 0 0-7.486 1.405c-.02.006-.037.017-.059.02 0 5.727-1.659 11.226-4.698 16.334 2.713-9.12-.132-19.716-.132-19.716zM169.495 25.275s35.653 1.518 45.484 21.185c0 0-18.003-18.582-48.23-12.794z"/><path fill="#EFDCB6" d="M184.601 85.157c2.131-1.006 3.961-2.822 4.484-6.137.368-2.384.138-8.158-3.295-12.72-7.503-9.98-23.834-17.225-38.832-17.225-.947 0-1.886.03-2.803.087-2.91.185-5.8.68-8.428 1.285a17.67 17.67 0 0 0-8.08 4.295 17.86 17.86 0 0 0-5.246 9.123v.017h-.002a17.86 17.86 0 0 0-5.266-9.151 17.7 17.7 0 0 0-8.068-4.282c-2.629-.607-5.519-1.102-8.428-1.284a46 46 0 0 0-2.798-.087c-14.998 0-31.334 7.247-38.837 17.224-3.43 4.566-3.118 9.452-2.96 11.86.137 2.112 1.062 5.511 4.154 6.998-11.36-.368-12.996-12.426-5.642-22.206 8.9-11.841 28.672-20.475 46.44-19.344 10.995.694 21.405 5.282 21.405 5.282s10.41-4.59 21.41-5.282c17.768-1.128 37.534 7.503 46.434 19.344 7.36 9.78 5.727 21.835-5.637 22.206z"/><path fill="#1C1C1C" d="M82.754 53.97c.756 1.52-.993.491-7.374 3.66-6.382 3.168-6.618 5.18-7.374 3.66-.756-1.521.568-7.144 4.638-9.165s9.35.323 10.107 1.844z" class="eyebrow-1"/><path fill="#1C1C1C" d="M161.937 53.97c-.756 1.52.992.491 7.374 3.66s6.617 5.18 7.374 3.66c.756-1.521-.568-7.144-4.639-9.165s-9.35.323-10.106 1.844z" class="eyebrow-2"/><path fill="#1C1C1C" d="M60.801 99.652c-9.541-28.86 21.981-46.158 36.997-38.61 10.916 5.488 4.458 14.543-2.488 17.478-6.005 2.539-13.852-.593-21.748 2.898-12.423 5.494-12.76 18.234-12.76 18.234"/><path fill="#DDBB8E" d="M96.463 67.601c.765 2.825-3.044 6.061-8.504 7.228s-10.506-.177-11.27-3c-.765-2.825 3.044-6.06 8.504-7.228 5.46-1.166 10.505.177 11.27 3"/><path fill="#1C1C1C" d="M92.63 67.952c-.702-.306-1.872-.61-3.559-.61-.39 0-.787.023-1.189.056.009.074.023.147.023.223a1.882 1.882 0 0 1-3.691.523c-1.932.635-3.228 1.5-3.903 2.167-.357.354-.253.967.208 1.17.703.306 1.873.61 3.56.61 1.045 0 2.128-.118 3.219-.352 2.864-.613 4.692-1.774 5.543-2.617.357-.354.253-.967-.208-1.17z" class="wink"/><path fill="#1C1C1C" d="M183.446 99.464c9.542-28.86-21.981-46.158-36.996-38.61-10.916 5.487-4.459 14.543 2.488 17.478 6.005 2.538 13.851-.594 21.748 2.898 12.423 5.493 12.76 18.234 12.76 18.234"/><path fill="#DDBB8E" d="M147.784 67.413c-.764 2.825 3.045 6.06 8.504 7.227 5.46 1.167 10.506-.177 11.271-3 .764-2.822-3.045-6.06-8.504-7.227-5.46-1.167-10.506.177-11.271 3"/><path fill="#1C1C1C" d="M151.616 67.761c.702-.306 1.872-.61 3.559-.61.39 0 .787.023 1.189.056-.009.073-.023.147-.023.222a1.883 1.883 0 0 0 3.692.523c1.931.636 3.227 1.502 3.902 2.168.357.354.253.967-.208 1.17-.703.306-1.873.61-3.56.61-1.045 0-2.128-.119-3.218-.352-2.865-.613-4.692-1.774-5.544-2.617-.357-.355-.253-.967.208-1.17z"/><path fill="#BA7D60" d="M206.191 234.293h-1.928c-1.729 0-3.287-.7-4.42-1.833a6.22 6.22 0 0 1-1.833-4.42v-1.658l-6.955 7.947z"/><path fill="#50DA4B" d="M255.375 156.312v.006l-6.004 26.953-20.275 15.329-11.938 9.03-7.093 5.363-6.464 4.883-5.365 4.057v6.212c0 1.732.704 3.303 1.841 4.434a6.26 6.26 0 0 0 4.438 1.838h.968l.969.18h-39.447s2.02-1.723 2.924-2.578c1.779-1.681 3.315-3.429 4.818-5.063.619-.677 2.561-1.554 5.106-2.895 4.1-2.162 9.76-5.527 13.976-11.211a.4.4 0 0 0 .127-.174 28.664 28.664 0 0 0 3.132-5.437c.746-.829 1.148-1.47 1.148-1.855 0-2.019-7.919-9.648-20.88-15.386a80 80 0 0 0-8.407-3.165q-.483-.432-.985-.846c-.337-.276-.678-.54-1.021-.804a43 43 0 0 0-1.047-.768 42.243 42.243 0 0 0-5.514-3.244q-.055-.032-.121-.065a45 45 0 0 0-2.279-1.045c-.386-.169-.771-.329-1.16-.492-.006 0-.017 0-.02-.006a72 72 0 0 0-1.179-.461 60 60 0 0 0-2.364-.846 74 74 0 0 0-2.339-.739c-.197-.059-.385-.116-.577-.169a83 83 0 0 0-4.486-1.153c-.18-.042-.36-.078-.54-.121-1.962-.432-3.797-.77-5.424-1.045q-.428-.07-.835-.132c-.836-.138-1.608-.253-2.297-.355a83 83 0 0 0-.974-.143 196 196 0 0 1-10.157-1.76l-.006.011c-6.039 6.303-20.005 25.326-12.023 60.446.011.064.025.126.042.197.068.348.127.565.15.649.005.017.005.025.011.042a202 202 0 0 1-16.403-2.049c-.638-.107-14.086-1.352-14.722-1.47-5.418-.962-12.22-2.938-19.487-5.606a203 203 0 0 1-16.827-7.053c-11.103-5.232-21.725-11.439-28.85-17.536-16.707-14.314-9.342-23.729-9.342-23.729C6.797 174.18 0 170.908 0 165.325c0-3.112.433-6.41 1.244-9.806 2.085-8.709 6.665-18.075 12.84-26.739 6.813-9.575 15.577-18.281 25.062-24.275 4.016-2.53 15.251-2.389 15.293-2.389a63 63 0 0 0 4.59 3.534 79 79 0 0 0 4.59 2.96c14.96 8.88 35.617 14.376 58.437 14.376 30.378 0 56.918-9.744 71.28-24.246 2.184.511 4.444 1.2 6.744 2.018 14.007 4.998 29.194 14.868 34.361 19.074q.37.297.673.559c4.57 3.97 3.681 10.604 3.681 10.604 2.809 3.196 5.93 2.732 10.585 7.745 1.137 1.22 2.37 2.774 3.709 4.787 2.713 4.079 2.28 12.782 2.28 12.782z"/><path fill="#183717" d="M224.747 113.143c-6.935-4.357-16.139-9.387-24.885-12.51a79 79 0 0 0-2.19-.74c-16.469 14.257-44.075 23.607-75.359 23.607-25.234 0-48.076-6.084-64.617-15.917a87 87 0 0 1-5.077-3.275 76 76 0 0 1-2.94-2.179c-3.58.222-8.266.793-10.574 2.249-9.623 6.086-18.501 14.973-25.352 24.722v.006c4.785 3.739 10.97 7.32 17.88 10.626 1.11.532 2.24 1.06 3.382 1.575 28.09 12.684 77.183 14.911 100.224 15.225a67.8 67.8 0 0 0 14.276-1.318 67 67 0 0 0 13.671-4.31c9.432-4.132 22.923-11.04 39.645-22.251 6.918-4.638 13.494-8.839 18.711-12.887a74 74 0 0 0 3.208-2.625z" opacity=".5"/><path fill="#FF8BFF" d="M211.559 115.879c-4.714 3.657-10.652 7.45-16.904 11.641-30.958 20.756-49.658 25.178-49.658 25.178s-67.969 1.591-101.937-13.75c-1.032-.464-2.05-.942-3.053-1.422-15.8-7.563-27.46-16.713-24.781-25.754.93-3.143 3.393-5.629 6.915-7.355 1.417-.691 3.003-1.262 4.729-1.706.149-6.297 5.501-12.429 14.635-17.818a35 35 0 0 0 2.615 5.31c.078.138.163.282.247.416 3.376 5.49 8.355 10.526 14.593 14.906a79 79 0 0 0 4.586 2.96c14.941 8.881 35.576 14.377 58.37 14.377 36.533 0 67.518-14.113 78.387-33.673q.719-1.29 1.321-2.615a32.5 32.5 0 0 0 1.94-5.544c4.793 3.388 7.725 7.234 8.349 11.408 1.653.228 3.166.655 4.476 1.285 2.462 1.178 4.228 3.04 4.967 5.544 1.718 5.808-2.62 11.048-9.803 16.612z"/><path fill="#C401C4" d="M202.032 99.916c-7.61 23.488-54.777 42.251-56.782 43.038l-.728.287-.9.011c-1.591 0-39.487-.259-84.551-22.572-3.694-1.827-15.91-8.549-18.215-18.377-.913-3.905-.084-7.694 2.398-10.958l.866-1.136c.08.138.163.281.248.416 3.376 5.49 8.355 10.525 14.593 14.905a78 78 0 0 0 4.585 2.961c14.942 8.88 35.577 14.376 58.371 14.376 36.532 0 67.518-14.112 78.386-33.673l1.119 2.198c1.347 2.643 1.555 5.592.602 8.53z" opacity=".3"/><path fill="#1C1C1C" d="M121.924 122.862c-22.794 0-43.429-5.496-58.37-14.377a75 75 0 0 1-4.586-2.96c-4.976-3.489-9.15-7.397-12.347-11.622-6.112 8.029 3.587 17.669 14.326 22.988 45.315 22.436 82.761 22.133 82.761 22.133s47.224-18.552 54.308-40.407c.627-1.931.475-3.697-.345-5.305-12.702 17.388-41.829 29.553-75.742 29.553z"/><path fill="#C401C4" d="M88.303 143.997c-1.864-.11-64.462-7.911-66.16-39.58 1.417-.691 3.002-1.262 4.728-1.706 0 0-2.327 27.857 61.432 41.286M216.395 93.723c.838 21.697-39.729 37.893-40.612 38.253 39.923-21.487 36.137-39.538 36.137-39.538 1.653.228 3.165.655 4.475 1.285"/><path fill="#1C1C1C" d="M136.831 148.678c.173-2.068-2.195-3.955-5.289-4.215-3.095-.259-5.744 1.208-5.917 3.276-.173 2.069 2.195 3.956 5.289 4.215 3.094.26 5.743-1.207 5.917-3.276M159.111 146.6c2.789-1.365 4.31-3.984 3.397-5.848-.913-1.865-3.914-2.269-6.703-.903-2.789 1.365-4.309 3.984-3.396 5.848.913 1.865 3.913 2.269 6.702.903"/><path fill="#183717" d="M80.354 227.272c-.39-6.536-.724-9.5-.558-15.654.634-23.708 7.328-38.384 14.339-49.92 1.904-3.132 13.345-3.289 24.332 2.011 7.984 3.853 6.795 8.545 6.795 8.545-4.514 4.621-12.047 16.077-12.695 40.212-.185 6.83-.068 11.539.895 19.162.611 4.841-17.052 2.32-22.153 1.392-4.415-.803-10.81-3.274-10.958-5.751zM25.45 165.16c-2.722 0-5.067.512-7.077 1.322-7.36 2.954-10.176 9.853-10.207 9.938-.355-.613-1.077-1.285-1.951-2.044 5.647-13.458 19.234-9.216 19.234-9.216"/><path fill="#FF8BFF" d="M133.372 165.225c-.823 0-1.625-.43-2.066-1.195-4.45-7.765-2.207-14.751-2.108-15.043a2.377 2.377 0 0 1 4.517 1.49c-.076.244-1.627 5.355 1.718 11.189a2.382 2.382 0 0 1-2.061 3.562zM162.06 159.496q-.104 0-.208-.009a2.38 2.38 0 0 1-2.162-2.575c.585-6.719-2.991-10.711-3.145-10.877a2.385 2.385 0 0 1 .129-3.354 2.37 2.37 0 0 1 3.342.107c.211.225 5.184 5.623 4.409 14.537a2.38 2.38 0 0 1-2.368 2.171z"/><path fill="#1C1C1C" d="M113.071 210.555s-24.077-1.61-33.007-3.581a114 114 0 0 0-.268 5.287c-.168 5.98.17 8.857.566 15.212.15 2.407 6.627 4.808 11.105 5.589 5.166.901 23.066 3.351 22.449-1.353-.975-7.408-1.095-11.984-.907-18.622q.03-1.019.077-2.006a3 3 0 0 1-.009-.526z" opacity=".3"/><path fill="#D7FFD8" d="m66.116 175.728 5.867 3.806 6.913-1.051-1.808 6.755 3.138 6.25-6.984.368-4.976 4.914-2.507-6.528-6.213-3.21 5.434-4.405zM229.761 165.602l2.902 9.564 8.523 5.22-8.197 5.715-2.331 9.719-7.97-6.03-9.963.787 3.272-9.443-3.826-9.232 9.991.194zM221.528 120.95l3.689 6.092 6.803 2.106-4.656 5.389.099 7.121-6.564-2.761-6.742 2.294.599-7.095-4.265-5.704 6.933-1.622zM53.643 183.999l-.754 3.286 1.623 2.957-3.36.298-2.31 2.455-1.325-3.101-3.047-1.439 2.541-2.219.427-3.342 2.893 1.732zM24.039 142.386l.2 3.09 2.2 2.175-2.878 1.145-1.389 2.766-1.976-2.384-3.062-.467 1.656-2.617-.5-3.053 3 .765zM174.988 171.854l-.624 2.718 1.341 2.446-2.777.248-1.912 2.029-1.094-2.564-2.521-1.192 2.102-1.832.352-2.767 2.392 1.434zM189.303 224.956l-.622 2.716 1.339 2.446-2.778.247-1.912 2.03-1.093-2.564-2.522-1.192 2.103-1.833.354-2.764 2.393 1.431zM208.048 180.417l-.984 4.296 2.117 3.862-4.389.391-3.022 3.208-1.726-4.051-3.986-1.884 3.323-2.896.556-4.371 3.782 2.266zM75.274 156.78l-.177 3.278 2.044 2.567-3.172.846-1.81 2.738-1.782-2.755-3.166-.877 2.072-2.547-.146-3.281 3.061 1.184zM236.381 142.69l-.717 3.135 1.543 2.819-3.202.284-2.204 2.342-1.259-2.957-2.907-1.375 2.423-2.111.408-3.191 2.758 1.653zM54.218 172.99l-.37 1.616.798 1.453-1.653.147-1.136 1.209-.65-1.527-1.498-.708 1.248-1.088.211-1.645 1.422.852zM39.324 149.56l-.371 1.617.798 1.453-1.653.149-1.136 1.206-.649-1.526-1.501-.706 1.25-1.091.212-1.644 1.422.852zM14.23 151.472l-.371 1.617.798 1.453-1.653.146-1.135 1.209-.65-1.526-1.501-.709 1.251-1.088.21-1.644 1.423.852zM173.835 159.65l-.371 1.617.796 1.453-1.65.149-1.136 1.206-.652-1.526-1.499-.706 1.251-1.091.208-1.644 1.423.851zM126.094 160.348l-.368 1.616.795 1.453-1.65.149-1.138 1.206-.65-1.526-1.498-.706 1.248-1.09.211-1.645 1.422.852zM209.757 198.567l-.368 1.616.796 1.454-1.651.146-1.138 1.206-.65-1.524-1.498-.708 1.248-1.091.211-1.645 1.423.852zM209.006 165.916l-.472 2.061 1.015 1.856-2.106.188-1.451 1.54-.829-1.945-1.912-.905 1.594-1.389.268-2.097 1.816 1.085zM229.248 154.12l-1.009 1.316.12 1.653-1.563-.551-1.537.624.045-1.659-1.069-1.265 1.589-.472.874-1.408.939 1.366zM208.015 136.643l-1.009 1.316.118 1.653-1.563-.554-1.535.627.042-1.659-1.068-1.268 1.591-.469.874-1.409.939 1.367z"/><path fill="#183717" d="M19.974 173.87c-3.165-5.328-1.4-9.21-1.526-9.213-12.232-.436-13.236-15.192-12.522-22.226-2.077 4.374-3.671 8.752-4.68 12.966-.81 3.399-1.243 6.693-1.243 9.805 0 4.139 3.725 7.001 6.213 9.174.871.761 1.597 1.431 1.95 2.043 0 0-7.353 9.415 9.331 23.73 7.119 6.098 17.728 12.305 28.819 17.537a202 202 0 0 0 16.808 7.054c6.624 2.434 12.856 4.29 18.007 5.327-.38-.441-.61-.894-.636-1.347-.39-6.676-.725-9.704-.56-15.99.051-1.912.144-3.759.265-5.558-40.322-7.129-54.215-23.193-60.226-33.305z" opacity=".5"/><path fill="#D7FFD8" d="m157.883 174.496 1.752-5.841-6.056.736-5.015-3.472-1.173 5.985-4.663 3.551q1.172.227 2.42.5c.18.043.36.079.54.121 1.436.329 2.943.709 4.481 1.153.191.053.38.11.576.169.771.233 1.555.475 2.336.739q1.182.395 2.362.846c.391.149.787.301 1.178.458.005.006.017.006.02.006.385.163.77.323 1.158.492.107.045.211.096.317.141l2.331-.054-2.57-5.53z"/><path fill="#1C1C1C" d="M253.134 143.389c-1.313-2.007-2.524-3.557-3.644-4.774-.016 4.614-8.607 39.138-8.607 39.138l-9.86 11.605c-5.006-17.715-20.251-29.664-20.251-29.664.111.182 10.551 17.361 15.267 35.317l-15.17 17.637-.022.022 6.988-5.362 31.639-24.288v-.005l5.896-26.876v-.005s.426-8.678-2.239-12.745z"/><path fill="#D7FFD8" d="m13.81 134.079-.251-4.692c-2.66 3.809-5.01 7.748-6.975 11.698l3.32 4.093 2.6-5.035 5.289-2.035z"/><path fill="#50DA4B" d="m31.84 210.087-2.43-6.469 2.511-6.527-6.986.314L19.504 193l-1.861 6.742-.354.23c.07.059.134.118.205.18 3.896 3.34 8.844 6.711 14.343 9.938z"/><path fill="#183717" d="m98.352 161.902-10.283-1.509c-.776-2.598-4.734-6.483-10.866-6.868 0 0 4.29 1.641 6.559 6.423-2.336-.151-6.337-.23-10.441.506-7.155 1.288-13.267 6.424-13.522 6.643 0 0 7.02-3.418 15.827-3.654 10.022-.267 20.143 3.292 20.143 3.292l2.586-4.836z"/><path fill="#50DA4B" d="m41.902 202.244-.563 2.454 1.21 2.21-2.508.222-1.727 1.833-.986-2.317-2.278-1.074 1.898-1.656.318-2.496 2.162 1.293zM81.131 230.07c-.38-.442-.61-.894-.635-1.347-.2-3.418-.385-5.881-.495-8.313l-.708.107-5.867-3.807-1.136 6.902-3.73 3.025c4.579 1.51 8.858 2.688 12.571 3.435z"/><path fill="#1C1C1C" d="M275.328 163.987h160.448c1.878 0 3.255 1.111 3.871 2.545.703 1.644.402 3.71-1.31 5.018l-67.78 51.839a4.2 4.2 0 0 1-2.561.866H208.973c-4.031 0-5.763-5.113-2.561-7.562l68.913-52.706z"/><path fill="#D1E2E8" d="M406.8 183.579H247.457l-50.929 38.551h159.343z"/><path fill="#A9BDC4" d="M415.924 97.793H272.951a7.99 7.99 0 0 0-7.801 6.252l-17.692 79.531h159.343l16.921-76.062a7.96 7.96 0 0 0-1.565-6.733 7.95 7.95 0 0 0-6.233-2.99z"/><path fill="#1C1C1C" d="m416.033 105.693-15.569 69.984H257.311l15.569-69.984z"/><path fill="#A9BDC4" d="M241.048 198.344h133.156l-6.986 5.291H234.062zM383.264 191.479l-6.975 5.285H243.134l6.98-5.285zM273.307 205.504 259.31 216.1h43.951l13.998-10.596zM355.871 231.793v-9.628H196.528v6.193c0 1.726.7 3.292 1.833 4.422a6.23 6.23 0 0 0 4.422 1.833h150.268a2.82 2.82 0 0 0 2.82-2.82"/><path fill="#8DAEB5" d="M355.871 222.13v9.629a2.82 2.82 0 0 1-2.819 2.819h.056a8.22 8.22 0 0 0 4.967-1.67l45.481-34.426a8.19 8.19 0 0 0 3.244-6.528v-8.381l-50.929 38.551z"/><path fill="#1C1C1C" d="m362.683 105.693-34.821 69.984h-35.793l34.818-69.984z"/><path fill="#50DA4B" d="m282.202 117.981.525-2.544 17.645 10.439-.472 2.284-21.935 10.33.526-2.544 19.411-8.934-15.702-9.031z"/><path fill="#50DA4B" d="m283.284 144.74 28.417.078-.385 1.869-28.417-.078z" style="animation:blink 500ms linear infinite;animation-direction:alternate"/><path fill="#000" d="M489.5 234c16.845 0 30.5-4.253 30.5-9.5s-13.655-9.5-30.5-9.5-30.5 4.253-30.5 9.5 13.655 9.5 30.5 9.5"/><path fill="#FF8BFF" d="M519.431 203.3c-1.062-2.268-3.991-4.815-11.909-4.057-.966.092-1.978.245-3.009.429-.004-1.513-.053-2.693-.053-3.394 0-5.125-13.299-9.278-29.703-9.278-16.403 0-29.702 4.153-29.702 9.278S442.364 232 474.757 232c1.573 0 3.059-.073 4.473-.211.409-.023.83-.05 1.269-.092 5.435-.517 12-2.513 18.484-5.616s12.17-6.972 16.01-10.894c5.594-5.712 5.503-9.615 4.438-11.883zm-7.573 8.749c-3.096 3.161-7.576 6.313-12.761 9.003 3.661-5.386 4.882-11.788 5.257-16.829a35 35 0 0 1 3.578-.548c4.802-.456 7.049.54 7.512 1.533.466.992-.198 3.378-3.59 6.845z"/><path fill="#50DA4B" d="M478.941 159s-2.327 2.877-.765 5.751c1.725 3.168 6.126 4.341 6.766 9.27C485.931 181.656 474 182 474 182s6.969-3.58 2.011-11.001c-3-4.49-1.965-7.731-.532-9.771 1.363-1.938 3.466-2.228 3.466-2.228zM467.004 180s6.966-.742 5.881-5.339c-.619-2.631-4.194-3.797-3.444-8.661 0 0-2.804 2.028-1.565 6.227 1.162 3.937 1.814 5.718-.876 7.769z"/><path fill="#B500A4" d="M519.431 203.304c-1.062-2.264-3.99-4.816-11.917-4.057a38 38 0 0 0-3.011.429c0-1.509-.057-2.697-.057-3.394 0-5.126-13.306-9.282-29.725-9.282h-.114c-.8 0-1.589.015-2.374.034q-.183.001-.361.008a94 94 0 0 0-2.355.1q-.165.009-.33.019a88 88 0 0 0-4.923.429c-11.253 1.322-19.264 4.716-19.264 8.688 0 1.073.58 2.096 1.65 3.065 4.047 3.612 15.088 6.209 28.075 6.209 3 0 5.89-.141 8.621-.398-.835 8.956-4.46 21.529-19.082 25.555 2.996.827 6.463 1.291 10.461 1.291 1.574 0 3.061-.077 4.479-.211.406-.023.823-.05 1.267-.092 5.443-.521 12.012-2.513 18.498-5.619 6.486-3.107 12.182-6.972 16.017-10.899 5.606-5.712 5.507-9.615 4.445-11.879zm-7.578 8.753c-3.095 3.16-7.582 6.309-12.767 8.999 3.664-5.387 4.886-11.788 5.265-16.829a34 34 0 0 1 3.577-.552c4.809-.452 7.058.537 7.521 1.533.466.996-.197 3.382-3.592 6.845z" opacity=".3"/><path fill="#1C1C1C" d="M500 196.004c0 .693-.503 1.356-1.416 1.975a10 10 0 0 1-.898.523C493.657 200.567 484.788 202 474.5 202s-19.157-1.433-23.186-3.498a8 8 0 0 1-.898-.523c-.921-.619-1.416-1.286-1.416-1.975 0-3.312 11.413-6.004 25.496-6.004 14.084 0 25.496 2.692 25.496 6.004z"/><path fill="#D7FFD8" d="M498 198.504c-3.997 2.063-12.794 3.496-23 3.496s-19.003-1.433-23-3.496c3.989-2.068 12.787-3.504 23-3.504s19.007 1.432 23 3.504"/></svg>