<svg width="520" height="235" viewBox="0 0 520 235" fill="none" xmlns="http://www.w3.org/2000/svg">
<style>
@keyframes blink {
  from {
  	opacity: 0;
  }
}

.blink {
	animation: blink 500ms linear infinite;
	animation-direction: alternate;
}
</style>
<g>
<path d="M254.919 156.412L248.94 183.293L216.855 207.58L198.008 221.841V228.037C198.008 229.766 198.708 231.329 199.841 232.457C200.974 233.59 202.534 234.29 204.26 234.29H206.189C206.189 234.29 131.37 234.478 123.726 234.436C123.394 234.436 123.189 234.436 123.118 234.43C114.325 234.082 105.779 233.193 97.5809 231.816C79.3413 228.76 62.7914 223.312 48.9684 216.084C23.0091 202.511 6.64185 182.655 6.64185 160.533C6.64185 140.677 20.4874 122.648 41.9345 109.343C50.1856 104.22 59.564 99.8068 69.7099 96.2562C87.5221 90.0236 107.718 86.4561 128.359 86.4561C151.203 86.4561 172.035 90.524 190.153 97.7686C197.766 100.813 204.901 104.423 211.502 108.522C231.102 120.697 246.027 137.23 254.914 156.406L254.919 156.412Z" fill="#CC8F6B"/>
<path d="M101.72 232.462C101.194 232.386 100.666 232.308 100.143 232.229C100.666 232.311 101.194 232.386 101.72 232.462Z" fill="#DBAB83"/>
<path d="M104.572 232.859C104.01 232.785 103.451 232.71 102.894 232.631C103.453 232.71 104.013 232.785 104.572 232.859Z" fill="#DBAB83"/>
<path d="M107.421 233.213C106.822 233.143 106.229 233.07 105.636 232.994C106.229 233.07 106.825 233.143 107.421 233.213Z" fill="#DBAB83"/>
<path d="M123.122 234.433C123.19 234.439 123.395 234.439 123.73 234.439C125.641 234.45 131.75 234.444 139.838 234.433H123.122Z" fill="#DBAB83"/>
<path d="M97.584 231.818C97.9607 231.88 98.3402 231.939 98.7169 231.998C98.3402 231.937 97.9607 231.878 97.584 231.816V231.818Z" fill="#DBAB83"/>
<path d="M111.792 233.671C110.522 233.55 109.254 233.421 107.994 233.278C109.254 233.421 110.519 233.55 111.792 233.671Z" fill="#DBAB83"/>
<path d="M120.206 234.295C119.751 234.27 119.301 234.242 118.848 234.217C119.301 234.245 119.754 234.273 120.206 234.295Z" fill="#DBAB83"/>
<path d="M199.841 232.459C198.708 231.332 198.008 229.766 198.008 228.04V221.844L216.854 207.583C215.955 204.853 214.926 202.129 213.773 199.416C196.492 158.773 157.61 136.404 126.922 149.448C118.111 153.193 110.934 159.454 105.587 167.438C114.991 170.51 125.134 172.891 135.82 174.454C145.457 175.866 177.083 180.223 177.783 206.219C177.783 206.219 177.331 230.317 148.153 233.975C145.78 234.273 143.21 234.436 140.438 234.439C164.793 234.402 206.191 234.298 206.191 234.298H204.263C202.534 234.298 200.976 233.598 199.843 232.465L199.841 232.459Z" fill="#DBAB83"/>
<path d="M114.47 233.908C113.905 233.863 113.34 233.815 112.781 233.764C113.343 233.815 113.908 233.86 114.47 233.908Z" fill="#DBAB83"/>
<path d="M240.222 178.031L240.188 178.177L209.761 212.946L216.851 207.583L248.937 183.296L254.916 156.415C252.878 152.018 250.519 147.764 247.865 143.666L240.222 178.031Z" fill="#BA7D60"/>
<path d="M41.9378 116.39C50.1889 111.268 59.5673 106.855 69.7132 103.304C87.5254 97.0714 107.722 93.5039 128.362 93.5039C151.206 93.5039 172.038 97.5718 190.157 104.816C197.769 107.861 204.904 111.471 211.505 115.57C230.341 127.27 244.855 142.996 253.849 161.225L254.92 156.412C246.031 137.233 231.105 120.703 211.508 108.527C204.907 104.428 197.772 100.819 190.159 97.7742C172.041 90.5296 151.209 86.4617 128.365 86.4617C107.722 86.4617 87.5282 90.0292 69.716 96.2618C59.5701 99.8124 50.1917 104.229 41.9407 109.348C20.4935 122.651 6.64795 140.68 6.64795 160.539C6.64795 161.719 6.70417 162.895 6.79695 164.064C8.32347 145.6 21.767 128.906 41.9407 116.393L41.9378 116.39Z" fill="#DDBB8E"/>
<path d="M211.508 108.527C196.131 120.945 170.545 128.369 141.991 126.966C109.763 125.387 82.4033 112.983 69.7161 96.2618C87.5283 90.0292 107.724 86.4617 128.365 86.4617C151.209 86.4617 172.041 90.5296 190.159 97.7742C197.772 100.819 204.907 104.428 211.508 108.527Z" fill="#1C1C1C"/>
<path d="M222.008 74.2272L219.622 73.6115C217.12 72.9621 214.547 72.6951 211.986 72.7991C209.431 72.9031 206.892 73.3782 204.446 74.2272C204.446 101.26 167.599 123.177 122.141 123.177C99.4117 123.177 78.8388 117.698 63.9391 108.842C62.3479 107.895 60.8242 106.908 59.3651 105.893C47.1839 97.3527 39.8352 86.2988 39.8352 74.23C39.8127 74.2244 39.7987 74.2132 39.7762 74.2103C37.3472 73.3782 34.8283 72.9087 32.2898 72.8047C29.7343 72.7007 27.1648 72.9678 24.66 73.6172L22.2676 74.2328C25.5511 63.4123 30.6986 56.4684 35.0279 52.2318C39.3629 47.9953 42.8714 46.4631 42.8714 46.4631C40.7067 46.0892 38.5139 45.898 36.3183 45.8896C34.432 45.8784 32.54 46.0105 30.6705 46.2748L29.2958 46.4631C39.1268 26.7955 74.7793 25.2774 74.7793 25.2774C74.5319 23.9083 74.0147 22.6179 73.2781 21.4737C72.3616 20.0512 71.0966 18.8564 69.5841 18.0074L67.7568 16.9897C81.5011 13.9704 93.3675 15.0078 102.482 17.2006C99.7041 13.1692 95.9285 8.87641 91.4558 6.77358C91.4558 6.77358 110.196 1.97473 118.261 12.0222C118.261 12.0222 131.623 -1.88795 150.588 0.220505C150.588 0.220505 139.762 7.83906 131.432 20.5207C140.81 16.7058 156.717 12.6435 176.511 16.9897H176.516L174.695 18.0074C173.177 18.8564 171.917 20.0512 171.001 21.4737C170.264 22.6179 169.747 23.9083 169.499 25.2774C169.499 25.2774 205.146 26.7955 214.983 46.4631L213.608 46.2748C211.733 46.0105 209.847 45.8784 207.96 45.8896C205.765 45.9009 203.572 46.0892 201.402 46.4631C201.402 46.4631 215.453 52.5917 222.008 74.2328V74.2272Z" fill="#CC8F6B"/>
<path d="M385.427 105.407L350.601 175.391H338.152L372.976 105.407H385.427Z" fill="#1C1C1C"/>
<path d="M122.396 105.491C142.098 105.657 151.825 101.834 156.286 94.8788C162.921 84.5333 149.646 78.5875 149.646 78.5875C149.646 78.5875 160.222 77.3365 168.223 78.9839C175.521 80.4851 180.174 85.357 184.795 85.149C195.981 84.6458 197.556 72.6782 190.241 62.9484C181.337 51.1073 161.571 42.4767 143.804 43.6012C132.806 44.2984 122.396 48.8864 122.396 48.8864C122.396 48.8864 111.986 44.2984 100.988 43.6012C83.2212 42.4767 63.4552 51.1073 54.5519 62.9484C47.237 72.6782 48.8113 84.6458 59.9973 85.149C64.6191 85.357 69.2717 80.4851 76.5698 78.9839C84.5678 77.3365 95.1467 78.5875 95.1467 78.5875C95.1467 78.5875 81.8718 84.5333 88.5064 94.8788C92.9651 101.834 102.695 105.657 122.396 105.491Z" fill="#DDBB8E"/>
<path d="M133.347 69.5885C132.278 66.4145 128.247 64.9105 124.342 66.2262C123.637 66.4651 122.987 66.78 122.397 67.1511C121.806 66.7772 121.157 66.4623 120.451 66.2262C116.549 64.9105 112.518 66.4173 111.447 69.5885C110.379 72.7624 112.675 76.4002 116.577 77.7159C118.633 78.4102 120.578 78.8263 122.397 78.8263C124.216 78.8263 126.158 78.4074 128.216 77.7159C132.118 76.4002 134.415 72.7624 133.347 69.5885Z" fill="#1C1C1C"/>
<path d="M130.847 72.0955C131.461 71.2848 131.009 69.908 129.837 69.0203C128.664 68.1325 127.216 68.0701 126.602 68.8808C125.988 69.6914 126.441 71.0683 127.613 71.956C128.785 72.8438 130.233 72.9062 130.847 72.0955Z" fill="#EFDCB6"/>
<path d="M143.407 80.5665C142.907 80.2713 142.26 80.4428 141.965 80.9432C139.278 85.5341 131.221 88.7389 122.374 88.7389C113.526 88.7389 106.085 85.773 103.113 81.4605L104.37 80.6396C104.856 80.3219 104.994 79.6697 104.677 79.1806C104.359 78.6942 103.707 78.5565 103.217 78.8742L99.3295 81.4127C98.8432 81.7304 98.7054 82.3826 99.0231 82.8718C99.2255 83.181 99.5628 83.3497 99.9058 83.3497C100.103 83.3497 100.302 83.2935 100.482 83.1782L101.348 82.6131C104.727 87.5638 113.029 90.8474 122.371 90.8474C131.713 90.8474 140.686 87.2939 143.781 82.0087C144.077 81.5055 143.905 80.8617 143.405 80.5665H143.407Z" fill="#1C1C1C"/>
<path d="M175.357 188.008C166.78 178.638 153.646 173.501 141.656 171.618C111.05 166.805 85.4446 159.243 85.4446 159.243C99.8327 166.414 116.981 171.697 135.817 174.452C145.454 175.863 177.081 180.22 177.781 206.216C177.781 206.216 177.328 230.314 148.15 233.972C145.758 234.273 143.171 234.436 140.374 234.436H134.839L134.847 234.447L166.898 234.385C170.024 232.035 172.358 229.311 174.618 226.851C176.53 224.771 190.929 220.79 196.867 207.192C196.867 207.192 187.089 200.83 175.357 188.01V188.008Z" fill="#1C1C1C"/>
<path d="M134.841 234.433H139.842C140.039 234.433 140.239 234.433 140.438 234.433C143.213 234.433 145.78 234.267 148.155 233.969C176.507 230.416 177.735 207.566 177.783 206.275C18.6653 231.304 2.68882 150.264 24.2569 123.112C13.1945 134.096 6.6499 146.884 6.6499 160.539C6.6499 182.661 23.0199 202.52 48.9764 216.09C62.8022 223.317 79.3494 228.766 97.5889 231.821C105.787 233.196 114.333 234.087 123.126 234.436C123.194 234.442 123.399 234.441 123.734 234.441C125.227 234.45 129.289 234.45 134.849 234.441L134.844 234.436L134.841 234.433Z" fill="#BA7D60"/>
<path d="M198.008 205.339C198.008 201.924 175.296 182.391 143.86 183.327C138.075 183.498 133.383 187.024 133.383 191.581C133.383 193.889 134.589 195.975 136.528 197.47C131.856 198.303 128.365 201.583 128.365 205.516C128.365 209.449 131.687 212.564 136.185 213.492C134.451 214.965 133.383 216.93 133.383 219.098C133.383 223.657 138.086 226.978 143.86 227.352C170.846 229.103 198.008 208.544 198.008 205.339Z" fill="#DDBB8E"/>
<path d="M136.174 213.36C151.363 209.559 166.775 207.422 182.329 205.961C184.601 205.75 187.817 205.53 190.119 205.398C192.731 205.286 195.34 205.145 197.985 205.21L198.03 205.469C182.717 208.17 167.171 210.478 151.726 212.173C146.559 212.75 141.383 213.264 136.194 213.624L136.174 213.363V213.36Z" fill="#1C1C1C"/>
<path d="M181.122 202.567C154.69 205.218 143.575 208.426 140.392 208.671C137.213 208.912 134.5 207.363 134.337 205.207C134.174 203.054 136.617 201.092 139.799 200.867C168.741 198.837 182.916 202.388 181.122 202.567Z" fill="#EFDCB6"/>
<path d="M180.415 195.438C164.551 190.633 149.443 193.678 145.592 193.701C142.401 193.717 139.663 192.565 139.438 190.414C139.21 188.266 141.586 186.093 144.771 185.916C168.329 184.606 182.141 195.958 180.415 195.435V195.438Z" fill="#EFDCB6"/>
<path d="M180.542 212.292C173.705 220.529 148.634 223.894 145.455 224.141C142.275 224.391 139.56 222.845 139.391 220.692C139.222 218.538 141.654 216.298 144.842 216.34C166.14 216.612 181.695 210.903 180.542 212.292Z" fill="#EFDCB6"/>
<path d="M191.089 200.976C176.192 194.072 156.845 193.487 140.661 197.785C139.525 196.99 137.816 195.798 137.816 195.798C135.471 194.249 134.319 191.266 135.71 188.688C137.223 185.795 140.621 184.125 143.863 183.456L143.854 183.192C142.041 183.254 140.217 183.6 138.549 184.356C132.851 186.754 131.212 193.27 136.005 197.341C134.136 197.751 132.334 198.561 130.875 199.835C127.358 202.764 127.169 207.861 130.61 210.95C132.036 212.289 133.832 213.157 135.707 213.613C134.498 214.743 133.574 216.219 133.276 217.872C132.247 223.823 138.727 227.312 143.852 227.481L143.868 227.219C141.352 226.578 139.025 225.597 137.183 223.865C134.364 221.265 134.408 217.422 137.543 215.089L140.832 212.491L136.61 211.434C128.6 209.182 128.932 201.527 136.896 199.545L138.549 199.174C142.724 198.547 146.938 198.142 151.147 197.875C164.402 197.153 177.989 197.917 190.609 202.309C193.119 203.2 195.568 204.251 197.949 205.452L198.073 205.218C195.919 203.554 193.544 202.19 191.092 200.973L191.089 200.976Z" fill="#1C1C1C"/>
<path d="M107.365 25.2744C107.365 25.2744 105.599 19.8683 102.487 17.1976C93.3731 15.0048 81.5068 13.9675 67.7625 16.9868C67.7625 16.9868 94.1069 14.7715 107.365 25.2744Z" fill="#DDBB8E"/>
<path d="M117.813 21.4652C117.813 21.4652 125.066 2.59029 150.592 0.217575C131.625 -1.89088 118.266 12.0193 118.266 12.0193C110.2 1.97182 91.4602 6.77065 91.4602 6.77065C91.4602 6.77065 110.791 3.4646 117.816 21.4652H117.813Z" fill="#DDBB8E"/>
<path d="M44.6679 70.848C39.9393 66.125 30.3838 67.6825 30.3838 67.6825C33.4566 54.2474 42.8771 46.4602 42.8771 46.4602C42.8771 46.4602 39.3687 47.9924 35.0309 52.2289C30.7015 56.4655 25.5541 63.4094 22.2705 74.23L24.6629 73.6143C27.1649 72.9649 29.7372 72.6978 32.2927 72.8018C34.8313 72.9058 37.3502 73.3753 39.7791 74.2075C39.7988 74.2131 39.8157 74.2243 39.8381 74.2271C39.8381 79.9537 41.4968 85.4526 44.5358 90.5606C41.8229 81.4409 44.6679 70.8452 44.6679 70.8452V70.848Z" fill="#DDBB8E"/>
<path d="M74.7819 25.2745C74.7819 25.2745 39.1294 26.7926 29.2983 46.4603C29.2983 46.4603 47.3017 27.8778 77.5285 33.6662L74.7819 25.2745Z" fill="#DDBB8E"/>
<path d="M176.514 16.9869C175.929 16.9926 161.774 12.3343 127.558 27.3493C127.558 27.3493 129.034 23.6103 131.435 20.5179C140.813 16.703 156.719 12.6407 176.514 16.9869Z" fill="#DDBB8E"/>
<path d="M199.61 70.848C204.338 66.125 213.894 67.6825 213.894 67.6825C210.821 54.2474 201.401 46.4602 201.401 46.4602C201.401 46.4602 204.909 47.9924 209.247 52.2289C213.576 56.4655 218.724 63.4094 222.007 74.23L219.615 73.6143C217.113 72.9649 214.541 72.6978 211.985 72.8018C209.446 72.9058 206.928 73.3753 204.499 74.2075C204.479 74.2131 204.462 74.2243 204.44 74.2271C204.44 79.9537 202.781 85.4526 199.742 90.5606C202.455 81.4409 199.61 70.8452 199.61 70.8452V70.848Z" fill="#DDBB8E"/>
<path d="M169.495 25.2745C169.495 25.2745 205.148 26.7926 214.979 46.4603C214.979 46.4603 196.976 27.8778 166.749 33.6662L169.495 25.2745Z" fill="#DDBB8E"/>
<path d="M184.601 85.1573C186.732 84.1509 188.562 82.3348 189.085 79.0203C189.453 76.6364 189.223 70.862 185.79 66.2993C178.287 56.3193 161.956 49.0747 146.958 49.0747C146.011 49.0747 145.072 49.1056 144.155 49.1618C141.245 49.3474 138.355 49.8421 135.727 50.4466C132.643 51.1578 129.877 52.6646 127.647 54.7422C125.072 57.1402 123.211 60.2973 122.401 63.8648V63.8816H122.399C121.589 60.3029 119.722 57.1346 117.133 54.7309C114.907 52.6618 112.146 51.1606 109.065 50.4494C106.436 49.8421 103.546 49.3474 100.637 49.1646C99.7201 49.1084 98.7783 49.0775 97.8394 49.0775C82.8413 49.0775 66.5049 56.3249 59.0017 66.3021C55.5719 70.8676 55.884 75.7536 56.0414 78.1629C56.1791 80.2741 57.1041 83.673 60.1965 85.1601C48.8361 84.7919 47.2 72.7343 54.5542 62.9539C63.4547 51.1128 83.2264 42.4794 100.994 43.6096C111.989 44.3039 122.399 48.8919 122.399 48.8919C122.399 48.8919 132.809 44.3011 143.809 43.6096C161.577 42.4822 181.343 51.1128 190.243 62.9539C197.603 72.7343 195.97 84.7891 184.606 85.1601L184.601 85.1573Z" fill="#EFDCB6"/>
<path class="eyebrow-1" d="M82.7537 53.9691C83.51 55.49 81.7614 54.461 75.3798 57.6293C68.9982 60.7976 68.762 62.8105 68.0058 61.2896C67.2496 59.7687 68.5737 54.1462 72.6444 52.1249C76.7151 50.1036 81.9947 52.4482 82.7509 53.9691H82.7537Z" fill="#1C1C1C"/>
<path class="eyebrow-2" d="M161.937 53.9691C161.181 55.49 162.929 54.461 169.311 57.6293C175.692 60.7976 175.928 62.8105 176.685 61.2896C177.441 59.7687 176.117 54.1462 172.046 52.1249C167.975 50.1036 162.696 52.4482 161.94 53.9691H161.937Z" fill="#1C1C1C"/>
<path d="M60.8012 99.6523C51.2597 70.7918 82.7825 53.4941 97.7975 61.0424C108.714 66.53 102.256 75.5851 95.3096 78.52C89.3047 81.0586 81.4584 77.9268 73.5616 81.4184C61.1385 86.9117 60.8012 99.6523 60.8012 99.6523Z" fill="#1C1C1C"/>
<path d="M96.4632 67.601C97.2279 70.4263 93.4186 73.6621 87.9591 74.8288C82.4996 75.9955 77.4534 74.6517 76.6887 71.8292C75.9241 69.0039 79.7333 65.7681 85.1928 64.6014C90.6523 63.4347 95.6985 64.7785 96.4632 67.601Z" fill="#DDBB8E"/>
<path class="wink" d="M92.6305 67.9523C91.9277 67.6459 90.7582 67.3423 89.0714 67.3423C88.6806 67.3423 88.2843 67.3648 87.8822 67.3985C87.8907 67.4716 87.9047 67.5447 87.9047 67.6206C87.9047 68.6636 87.0585 69.507 86.0184 69.507C85.1581 69.507 84.4412 68.9278 84.2135 68.1435C82.2822 68.7788 80.9862 69.6447 80.3115 70.311C79.9545 70.6652 80.0585 71.2781 80.5195 71.4805C81.2223 71.7869 82.3918 72.0905 84.0786 72.0905C85.1244 72.0905 86.2067 71.9725 87.2975 71.7391C90.1622 71.1263 91.9895 69.9652 92.8413 69.1218C93.1984 68.7676 93.0943 68.1547 92.6333 67.9523H92.6305Z" fill="#1C1C1C"/>
<path d="M183.446 99.4639C192.988 70.6034 161.465 53.3056 146.45 60.8539C135.534 66.3415 141.991 75.3966 148.938 78.3316C154.943 80.8701 162.789 77.7384 170.686 81.23C183.109 86.7232 183.446 99.4639 183.446 99.4639Z" fill="#1C1C1C"/>
<path d="M147.784 67.4125C147.02 70.2379 150.829 73.4736 156.288 74.6403C161.748 75.807 166.794 74.4632 167.559 71.6407C168.323 68.8182 164.514 65.5796 159.055 64.4129C153.595 63.2462 148.549 64.59 147.784 67.4125Z" fill="#DDBB8E"/>
<path d="M151.616 67.7612C152.318 67.4547 153.488 67.1511 155.175 67.1511C155.565 67.1511 155.962 67.1736 156.364 67.2074C156.355 67.2804 156.341 67.3535 156.341 67.4294C156.341 68.4724 157.188 69.3158 158.228 69.3158C159.088 69.3158 159.805 68.7367 160.033 67.9523C161.964 68.5877 163.26 69.4536 163.935 70.1198C164.292 70.474 164.188 71.0869 163.727 71.2893C163.024 71.5957 161.854 71.8994 160.167 71.8994C159.122 71.8994 158.039 71.7813 156.949 71.548C154.084 70.9351 152.257 69.774 151.405 68.9307C151.048 68.5764 151.152 67.9636 151.613 67.7612H151.616Z" fill="#1C1C1C"/>
<path d="M206.191 234.293H204.263C202.534 234.293 200.976 233.593 199.843 232.46C198.71 231.332 198.01 229.766 198.01 228.04V226.382L191.055 234.329C200.023 234.307 206.191 234.293 206.191 234.293Z" fill="#BA7D60"/>
<path d="M255.375 156.312V156.318L249.371 183.271L229.096 198.6L217.158 207.63L210.065 212.993L203.601 217.876L198.236 221.933V228.145C198.236 229.877 198.94 231.448 200.077 232.579C201.214 233.714 202.779 234.417 204.515 234.417H205.483L206.452 234.597H167.005C167.005 234.597 169.025 232.874 169.929 232.019C171.708 230.338 173.244 228.59 174.747 226.956C175.366 226.279 177.308 225.402 179.853 224.061C183.953 221.899 189.613 218.534 193.829 212.85C193.888 212.802 193.93 212.743 193.956 212.676C194.316 212.184 194.67 211.678 195.002 211.149C195.771 209.943 196.472 208.644 197.088 207.239C197.834 206.41 198.236 205.769 198.236 205.384C198.236 203.365 190.317 195.736 177.356 189.998C174.753 188.846 171.938 187.769 168.949 186.833C168.626 186.546 168.299 186.262 167.964 185.987C167.627 185.711 167.286 185.447 166.943 185.183C166.599 184.924 166.25 184.665 165.896 184.415C165.541 184.168 165.181 183.923 164.821 183.69C164.095 183.215 163.354 182.771 162.603 182.343C161.874 181.93 161.134 181.539 160.382 181.171C160.346 181.149 160.304 181.129 160.261 181.106C159.51 180.735 158.747 180.387 157.982 180.061C157.596 179.892 157.211 179.732 156.822 179.569C156.816 179.569 156.805 179.569 156.802 179.563C156.411 179.406 156.014 179.251 155.623 179.102C154.835 178.801 154.047 178.52 153.259 178.256C152.477 177.992 151.694 177.75 150.92 177.517C150.723 177.458 150.535 177.401 150.343 177.348C148.804 176.904 147.295 176.524 145.857 176.195C145.677 176.153 145.497 176.117 145.317 176.074C143.355 175.642 141.52 175.304 139.893 175.029C139.609 174.981 139.328 174.939 139.058 174.897C138.222 174.759 137.45 174.644 136.761 174.542C136.412 174.489 136.088 174.441 135.787 174.399C132.342 173.896 128.959 173.305 125.63 172.639C125.63 172.639 125.628 172.643 125.624 172.65C119.585 178.953 105.619 197.976 113.601 233.096C113.612 233.16 113.626 233.222 113.643 233.293C113.711 233.641 113.77 233.858 113.793 233.942C113.798 233.959 113.798 233.967 113.804 233.984C108.206 233.515 102.732 232.826 97.4013 231.935C96.7625 231.828 83.3152 230.583 82.6791 230.465C77.2614 229.503 70.4589 227.527 63.1921 224.859C57.7181 222.858 51.9767 220.457 46.3647 217.806C35.2618 212.574 24.6402 206.367 17.5141 200.27C0.80774 185.956 8.17307 176.541 8.17307 176.541C6.79682 174.18 0 170.908 0 165.325C0 162.213 0.43342 158.915 1.24397 155.519C3.32945 146.81 7.90851 137.444 14.0833 128.78C20.897 119.205 29.6611 110.499 39.1457 104.505C43.1619 101.975 54.397 102.116 54.4393 102.116C55.8774 103.336 57.4113 104.514 59.0296 105.65C60.4959 106.67 62.0241 107.657 63.6199 108.61C78.5785 117.49 99.2363 122.986 122.056 122.986C152.434 122.986 178.974 113.242 193.336 98.7397C195.52 99.2514 197.78 99.9401 200.08 100.758C214.087 105.756 229.274 115.626 234.441 119.832C234.689 120.029 234.911 120.217 235.114 120.391C239.684 124.361 238.795 130.995 238.795 130.995C241.604 134.191 244.725 133.727 249.38 138.74C250.517 139.96 251.75 141.514 253.089 143.527C255.802 147.606 255.369 156.309 255.369 156.309L255.375 156.312Z" fill="#50DA4B"/>
<path opacity="0.5" d="M224.747 113.143C217.812 108.786 208.608 103.756 199.862 100.633C199.125 100.372 198.397 100.127 197.672 99.8938C181.203 114.15 153.597 123.5 122.313 123.5C97.079 123.5 74.2374 117.416 57.6959 107.583C55.9304 106.528 54.2381 105.435 52.6188 104.308C51.6067 103.596 50.6284 102.868 49.6782 102.129C46.0994 102.351 41.413 102.922 39.105 104.378C29.482 110.464 20.604 119.351 13.7529 129.1V129.106C18.5377 132.845 24.7225 136.426 31.6326 139.732C32.7431 140.264 33.8732 140.792 35.0146 141.307C63.1048 153.991 112.198 156.218 135.239 156.532C140.046 156.597 144.831 156.156 149.515 155.214C154.198 154.272 158.784 152.833 163.186 150.904C172.618 146.772 186.109 139.864 202.831 128.653C209.749 124.015 216.325 119.814 221.542 115.766C222.681 114.883 223.752 114.009 224.75 113.141L224.747 113.143Z" fill="#183717"/>
<path d="M211.559 115.879C206.845 119.536 200.907 123.329 194.655 127.52C163.697 148.276 144.997 152.698 144.997 152.698C144.997 152.698 77.0285 154.289 43.0599 138.948C42.0281 138.484 41.0105 138.006 40.0068 137.526C24.2075 129.963 12.5463 120.813 15.2255 111.772C16.156 108.629 18.6187 106.143 22.1412 104.417C23.5581 103.726 25.1436 103.155 26.8698 102.711C27.0188 96.4136 32.3714 90.2822 41.5052 84.893C42.2081 86.7006 43.0852 88.4745 44.1197 90.2035C44.1984 90.3412 44.2828 90.4846 44.3671 90.6195C47.7434 96.1099 52.7222 101.145 58.9604 105.525C60.4251 106.545 61.9516 107.532 63.5456 108.485C78.4875 117.366 99.1223 122.862 121.916 122.862C158.449 122.862 189.434 108.749 200.303 89.1886C200.783 88.3283 201.222 87.4568 201.624 86.5741C202.442 84.7664 203.094 82.9166 203.564 81.0303C208.357 84.4179 211.289 88.2637 211.913 92.4384C213.566 92.6661 215.079 93.0934 216.389 93.7232C218.851 94.9011 220.617 96.7621 221.356 99.267C223.074 105.075 218.736 110.315 211.553 115.879H211.559Z" fill="#FF8BFF"/>
<path opacity="0.3" d="M202.032 99.9163C194.422 123.404 147.255 142.167 145.25 142.954L144.522 143.241L143.622 143.252C142.031 143.252 104.135 142.993 59.0707 120.68C55.3767 118.853 43.1617 112.131 40.8564 102.303C39.9428 98.3982 40.7721 94.6086 43.2545 91.3447L44.1203 90.209C44.1991 90.3467 44.2834 90.4901 44.3677 90.625C47.7441 96.1154 52.7228 101.15 58.961 105.53C60.4257 106.551 61.9522 107.538 63.5462 108.491C78.4881 117.371 99.1229 122.867 121.917 122.867C158.449 122.867 189.435 108.755 200.303 89.1941L201.422 91.3925C202.769 94.0351 202.977 96.9841 202.024 99.9219L202.032 99.9163Z" fill="#C401C4"/>
<path d="M121.924 122.862C99.1298 122.862 78.4951 117.366 63.5532 108.485C61.9564 107.535 60.4299 106.545 58.968 105.525C53.9921 102.036 49.8173 98.1282 46.6209 93.9029C40.5092 101.932 50.2081 111.572 60.9472 116.891C106.262 139.327 143.708 139.024 143.708 139.024C143.708 139.024 190.932 120.472 198.016 98.6174C198.643 96.686 198.491 94.9205 197.671 93.3125C184.969 110.7 155.842 122.865 121.929 122.865L121.924 122.862Z" fill="#1C1C1C"/>
<path d="M88.3033 143.997C86.4394 143.887 23.8408 136.086 22.1428 104.417C23.5597 103.726 25.1453 103.155 26.8714 102.711C26.8714 102.711 24.5436 130.568 88.3033 143.997Z" fill="#C401C4"/>
<path d="M216.395 93.723C217.233 115.42 176.666 131.616 175.783 131.976C215.706 110.489 211.92 92.4382 211.92 92.4382C213.573 92.6659 215.085 93.0933 216.395 93.723Z" fill="#C401C4"/>
<path d="M136.831 148.678C137.004 146.61 134.636 144.723 131.542 144.463C128.447 144.204 125.798 145.671 125.625 147.739C125.452 149.808 127.82 151.695 130.914 151.954C134.008 152.214 136.657 150.747 136.831 148.678Z" fill="#1C1C1C"/>
<path d="M159.111 146.6C161.9 145.235 163.421 142.616 162.508 140.752C161.595 138.887 158.594 138.483 155.805 139.849C153.016 141.214 151.496 143.833 152.409 145.697C153.322 147.562 156.322 147.966 159.111 146.6Z" fill="#1C1C1C"/>
<path d="M80.3539 227.272C79.964 220.736 79.6301 217.772 79.7956 211.618C80.4297 187.91 87.1236 173.234 94.1346 161.698C96.0395 158.566 107.48 158.409 118.467 163.709C126.451 167.562 125.262 172.254 125.262 172.254C120.748 176.875 113.215 188.331 112.567 212.466C112.382 219.296 112.499 224.005 113.462 231.628C114.073 236.469 96.4099 233.948 91.3094 233.02C86.8936 232.217 80.4998 229.746 80.3511 227.269L80.3539 227.272Z" fill="#183717"/>
<path d="M25.4493 165.16C22.728 165.16 20.3834 165.672 18.3733 166.482C11.0134 169.436 8.19655 176.335 8.16562 176.42C7.8114 175.807 7.0889 175.135 6.2146 174.376C11.8624 160.918 25.4493 165.16 25.4493 165.16Z" fill="#183717"/>
<path d="M133.372 165.225C132.549 165.225 131.747 164.795 131.306 164.03C126.856 156.265 129.099 149.279 129.198 148.987C129.614 147.741 130.957 147.067 132.206 147.483C133.448 147.896 134.12 149.234 133.715 150.477C133.639 150.721 132.088 155.832 135.433 161.666C136.085 162.804 135.692 164.258 134.553 164.913C134.179 165.126 133.774 165.228 133.372 165.228V165.225Z" fill="#FF8BFF"/>
<path d="M162.06 159.496C161.99 159.496 161.922 159.493 161.852 159.487C160.545 159.372 159.575 158.219 159.69 156.912C160.275 150.193 156.699 146.201 156.545 146.035C155.662 145.071 155.718 143.57 156.674 142.681C157.632 141.793 159.122 141.838 160.016 142.788C160.227 143.013 165.2 148.411 164.425 157.325C164.318 158.562 163.278 159.496 162.057 159.496H162.06Z" fill="#FF8BFF"/>
<path opacity="0.3" d="M113.071 210.555C113.071 210.555 88.9935 208.945 80.0635 206.974C79.9384 208.685 79.8445 210.442 79.7962 212.261C79.6285 218.241 79.9668 221.118 80.362 227.473C80.5127 229.88 86.9892 232.281 91.467 233.062C96.6328 233.963 114.533 236.413 113.916 231.709C112.941 224.301 112.821 219.725 113.009 213.087C113.029 212.408 113.054 211.739 113.086 211.081C113.069 210.921 113.066 210.747 113.077 210.555H113.071Z" fill="#1C1C1C"/>
<path d="M66.1158 175.728L71.983 179.534L78.8959 178.483L77.0882 185.238L80.2256 191.488L73.2424 191.856L68.2665 196.77L65.7588 190.242L59.5459 187.032L64.9801 182.627L66.1158 175.728Z" fill="#D7FFD8"/>
<path d="M229.761 165.602L232.663 175.166L241.186 180.386L232.989 186.101L230.658 195.82L222.688 189.79L212.725 190.577L215.997 181.134L212.171 171.902L222.162 172.096L229.761 165.602Z" fill="#D7FFD8"/>
<path d="M221.528 120.95L225.217 127.042L232.02 129.148L227.364 134.537L227.463 141.658L220.899 138.897L214.157 141.191L214.756 134.096L210.491 128.392L217.424 126.77L221.528 120.95Z" fill="#D7FFD8"/>
<path d="M53.6429 183.999L52.8895 187.285L54.5116 190.242L51.1521 190.54L48.8413 192.995L47.5171 189.894L44.4697 188.455L47.0111 186.236L47.4384 182.894L50.3312 184.626L53.6429 183.999Z" fill="#D7FFD8"/>
<path d="M24.039 142.386L24.2386 145.476L26.4398 147.651L23.5611 148.796L22.1723 151.562L20.196 149.178L17.1345 148.711L18.7904 146.094L18.29 143.041L21.2896 143.806L24.039 142.386Z" fill="#D7FFD8"/>
<path d="M174.988 171.854L174.364 174.572L175.705 177.018L172.928 177.266L171.016 179.295L169.922 176.731L167.401 175.539L169.503 173.707L169.855 170.94L172.247 172.374L174.988 171.854Z" fill="#D7FFD8"/>
<path d="M189.303 224.956L188.681 227.672L190.02 230.118L187.242 230.365L185.33 232.395L184.237 229.831L181.715 228.639L183.818 226.806L184.172 224.042L186.565 225.473L189.303 224.956Z" fill="#D7FFD8"/>
<path d="M208.048 180.417L207.064 184.713L209.181 188.575L204.792 188.966L201.77 192.174L200.044 188.123L196.058 186.239L199.381 183.343L199.937 178.972L203.719 181.238L208.048 180.417Z" fill="#D7FFD8"/>
<path d="M75.2739 156.78L75.0968 160.058L77.1406 162.625L73.9695 163.471L72.159 166.209L70.3767 163.454L67.2112 162.577L69.2831 160.03L69.1369 156.749L72.1984 157.933L75.2739 156.78Z" fill="#D7FFD8"/>
<path d="M236.381 142.69L235.664 145.825L237.207 148.644L234.005 148.928L231.801 151.27L230.542 148.313L227.635 146.938L230.058 144.827L230.466 141.636L233.224 143.289L236.381 142.69Z" fill="#D7FFD8"/>
<path d="M54.2183 172.99L53.8472 174.606L54.6456 176.059L52.9926 176.206L51.8568 177.415L51.2074 175.888L49.709 175.18L50.9572 174.092L51.168 172.447L52.5905 173.299L54.2183 172.99Z" fill="#D7FFD8"/>
<path d="M39.3239 149.56L38.9528 151.177L39.7512 152.63L38.0981 152.779L36.9624 153.985L36.313 152.459L34.8118 151.753L36.0628 150.662L36.2736 149.018L37.6961 149.87L39.3239 149.56Z" fill="#D7FFD8"/>
<path d="M14.2301 151.472L13.859 153.089L14.6574 154.542L13.0044 154.688L11.8686 155.897L11.2192 154.371L9.71802 153.662L10.969 152.574L11.1799 150.93L12.6024 151.782L14.2301 151.472Z" fill="#D7FFD8"/>
<path d="M173.835 159.65L173.464 161.267L174.26 162.72L172.61 162.869L171.474 164.075L170.822 162.549L169.323 161.843L170.574 160.752L170.782 159.108L172.205 159.959L173.835 159.65Z" fill="#D7FFD8"/>
<path d="M126.094 160.348L125.726 161.964L126.521 163.417L124.871 163.566L123.733 164.772L123.083 163.246L121.585 162.54L122.833 161.45L123.044 159.805L124.466 160.657L126.094 160.348Z" fill="#D7FFD8"/>
<path d="M209.757 198.567L209.389 200.183L210.185 201.637L208.534 201.783L207.396 202.989L206.746 201.465L205.248 200.757L206.496 199.666L206.707 198.021L208.13 198.873L209.757 198.567Z" fill="#D7FFD8"/>
<path d="M209.006 165.916L208.534 167.977L209.549 169.833L207.443 170.021L205.992 171.561L205.163 169.616L203.251 168.711L204.845 167.322L205.113 165.225L206.929 166.31L209.006 165.916Z" fill="#D7FFD8"/>
<path d="M229.248 154.12L228.239 155.436L228.359 157.089L226.796 156.538L225.259 157.162L225.304 155.503L224.235 154.238L225.824 153.766L226.698 152.358L227.637 153.724L229.248 154.12Z" fill="#D7FFD8"/>
<path d="M208.015 136.643L207.006 137.959L207.124 139.612L205.561 139.058L204.026 139.685L204.068 138.026L203 136.758L204.591 136.289L205.465 134.88L206.404 136.247L208.015 136.643Z" fill="#D7FFD8"/>
<path opacity="0.5" d="M19.9742 173.87C16.8087 168.542 18.5742 164.66 18.4477 164.657C6.21584 164.221 5.21221 149.465 5.92628 142.431C3.84875 146.805 2.25476 151.183 1.24551 155.397C0.435865 158.796 0.00292969 162.09 0.00292969 165.202C0.00292969 169.341 3.72786 172.203 6.21584 174.376C7.08733 175.137 7.81264 175.807 8.16686 176.419C8.16686 176.419 0.812575 185.834 17.4975 200.149C24.6156 206.247 35.2253 212.454 46.3158 217.686C51.9215 220.34 57.6537 222.738 63.1244 224.74C69.7478 227.174 75.9804 229.03 81.1306 230.067C80.7511 229.626 80.5206 229.173 80.4953 228.72C80.1045 222.044 79.7699 219.016 79.9358 212.73C79.9864 210.818 80.0792 208.971 80.2001 207.172C39.878 200.043 25.9847 183.979 19.9742 173.867V173.87Z" fill="#183717"/>
<path d="M157.883 174.496L159.635 168.655L153.579 169.391L148.564 165.919L147.391 171.904L142.728 175.455C143.509 175.607 144.316 175.773 145.148 175.955C145.328 175.998 145.508 176.034 145.688 176.076C147.124 176.405 148.631 176.785 150.169 177.229C150.36 177.282 150.549 177.339 150.745 177.398C151.516 177.631 152.3 177.873 153.081 178.137C153.869 178.401 154.656 178.682 155.443 178.983C155.834 179.132 156.23 179.284 156.621 179.441C156.626 179.447 156.638 179.447 156.641 179.447C157.026 179.61 157.411 179.77 157.799 179.939C157.906 179.984 158.01 180.035 158.116 180.08L160.447 180.026L157.877 174.496H157.883Z" fill="#D7FFD8"/>
<path d="M253.134 143.389C251.821 141.382 250.61 139.832 249.49 138.615C249.474 143.229 240.883 177.753 240.883 177.753L231.023 189.358C226.017 171.643 210.772 159.694 210.772 159.694C210.883 159.876 221.323 177.055 226.039 195.011L210.869 212.648L210.847 212.67L217.835 207.308L249.474 183.02V183.015L255.37 156.139V156.134C255.37 156.134 255.796 147.456 253.131 143.389H253.134Z" fill="#1C1C1C"/>
<path d="M13.8092 134.079L13.559 129.387C10.8995 133.196 8.54931 137.135 6.58423 141.085L9.90434 145.178L12.5048 140.143L17.7928 138.108L13.8092 134.079Z" fill="#D7FFD8"/>
<path d="M31.8397 210.087L29.4108 203.618L31.9212 197.091L24.9352 197.405L19.5039 193L17.6428 199.742L17.2886 199.972C17.3589 200.031 17.4235 200.09 17.4938 200.152C21.3902 203.492 26.3381 206.863 31.8369 210.09L31.8397 210.087Z" fill="#50DA4B"/>
<path d="M98.3524 161.902L88.0687 160.393C87.2928 157.795 83.3346 153.91 77.2032 153.525C77.2032 153.525 81.4932 155.166 83.7619 159.948C81.4257 159.797 77.4253 159.718 73.3208 160.454C66.1661 161.742 60.0544 166.878 59.7986 167.097C59.7986 167.097 66.8183 163.679 75.626 163.443C85.6482 163.176 95.7688 166.735 95.7688 166.735L98.3552 161.899L98.3524 161.902Z" fill="#183717"/>
<path d="M41.9016 202.244L41.3394 204.698L42.5482 206.908L40.0405 207.13L38.3144 208.963L37.3277 206.646L35.0505 205.572L36.9481 203.916L37.2658 201.42L39.4277 202.713L41.9016 202.244Z" fill="#50DA4B"/>
<path d="M81.1313 230.07C80.7518 229.628 80.5213 229.176 80.496 228.723C80.2964 225.305 80.1108 222.842 80.0012 220.41L79.2928 220.517L73.4256 216.71L72.2899 223.612L68.5593 226.637C73.1389 228.147 77.4176 229.325 81.1313 230.072V230.07Z" fill="#50DA4B"/>
<path d="M275.328 163.987H435.776C437.654 163.987 439.031 165.098 439.647 166.532C440.35 168.176 440.049 170.242 438.337 171.55L370.557 223.389C369.82 223.952 368.921 224.255 367.996 224.255H208.973C204.942 224.255 203.21 219.142 206.412 216.693L275.325 163.987H275.328Z" fill="#1C1C1C"/>
<path d="M406.8 183.579H247.457L196.528 222.13H355.871L406.8 183.579Z" fill="#D1E2E8"/>
<path d="M415.924 97.7931H272.951C271.211 97.7931 269.58 98.3554 268.251 99.3196C266.719 100.436 265.586 102.089 265.15 104.045L247.458 183.576H406.801L423.722 107.514C424.276 105.018 423.604 102.589 422.157 100.781C420.706 98.9738 418.479 97.7903 415.924 97.7903V97.7931Z" fill="#A9BDC4"/>
<path d="M416.033 105.693L400.464 175.677H257.311L272.88 105.693H416.033Z" fill="#1C1C1C"/>
<path d="M241.048 198.344H374.204L367.218 203.635H234.062L241.048 198.344Z" fill="#A9BDC4"/>
<path d="M383.264 191.479L376.289 196.764H243.134L250.114 191.479H383.264Z" fill="#A9BDC4"/>
<path d="M273.307 205.504L259.31 216.1H303.261L317.259 205.504H273.307Z" fill="#A9BDC4"/>
<path d="M355.871 231.793V222.165H196.528V228.358C196.528 230.084 197.228 231.65 198.361 232.78C199.494 233.913 201.057 234.613 202.783 234.613H353.051C354.609 234.613 355.871 233.351 355.871 231.793Z" fill="#A9BDC4"/>
<path d="M355.871 222.13V231.759C355.871 233.316 354.609 234.578 353.052 234.578H353.108C354.193 234.578 355.259 234.365 356.248 233.954C356.895 233.687 357.51 233.336 358.075 232.908L403.556 198.482C404.554 197.725 405.35 196.764 405.904 195.679C406.486 194.54 406.8 193.267 406.8 191.954V183.573L355.871 222.124V222.13Z" fill="#8DAEB5"/>
<path d="M362.683 105.693L327.862 175.677H292.069L326.887 105.693H362.683Z" fill="#1C1C1C"/>
<path d="M282.202 117.981L282.727 115.437L300.372 125.876L299.9 128.16L277.965 138.49L278.491 135.946L297.902 127.012L282.2 117.981H282.202Z" fill="#50DA4B"/>
<path class="blink" d="M283.284 144.74L311.701 144.818L311.316 146.687L282.899 146.609L283.284 144.74Z" fill="#50DA4B"/>
<path d="M489.5 234C506.345 234 520 229.747 520 224.5C520 219.253 506.345 215 489.5 215C472.655 215 459 219.253 459 224.5C459 229.747 472.655 234 489.5 234Z" fill="black"/>
<path d="M519.431 203.3C518.369 201.032 515.44 198.485 507.522 199.243C506.556 199.335 505.544 199.488 504.513 199.672C504.509 198.159 504.46 196.979 504.46 196.278C504.46 191.153 491.161 187 474.757 187C458.354 187 445.055 191.153 445.055 196.278C445.055 201.404 442.364 232 474.757 232C476.33 232 477.816 231.927 479.23 231.789C479.639 231.766 480.06 231.739 480.499 231.697C485.934 231.18 492.499 229.184 498.983 226.081C505.468 222.979 511.153 219.109 514.993 215.187C520.587 209.475 520.496 205.572 519.431 203.304V203.3ZM511.858 212.049C508.762 215.21 504.282 218.362 499.097 221.052C502.758 215.666 503.979 209.264 504.354 204.223C505.593 203.974 506.795 203.783 507.932 203.675C512.734 203.219 514.981 204.215 515.444 205.208C515.91 206.2 515.246 208.586 511.854 212.053L511.858 212.049Z" fill="#FF8BFF"/>
<path d="M478.941 159C478.941 159 476.614 161.877 478.176 164.751C479.901 167.919 484.302 169.092 484.942 174.021C485.931 181.656 474 182 474 182C474 182 480.969 178.42 476.011 170.999C473.011 166.509 474.046 163.268 475.479 161.228C476.842 159.29 478.945 159 478.945 159H478.941Z" fill="#50DA4B"/>
<path d="M467.004 180C467.004 180 473.97 179.258 472.885 174.661C472.266 172.03 468.691 170.864 469.441 166C469.441 166 466.637 168.028 467.876 172.227C469.038 176.164 469.69 177.945 467 179.996L467.004 180Z" fill="#50DA4B"/>
<path opacity="0.3" d="M519.431 203.304C518.369 201.04 515.441 198.488 507.514 199.247C506.551 199.339 505.538 199.492 504.503 199.676C504.503 198.167 504.446 196.979 504.446 196.282C504.446 191.156 491.14 187 474.721 187C474.683 187 474.645 187 474.607 187C473.807 187 473.018 187.015 472.233 187.034C472.111 187.034 471.99 187.038 471.872 187.042C471.076 187.065 470.295 187.1 469.517 187.142C469.407 187.149 469.297 187.153 469.187 187.161C468.398 187.207 467.621 187.264 466.855 187.329C466.779 187.337 466.699 187.345 466.623 187.349C465.838 187.418 465.064 187.494 464.306 187.586C464.291 187.586 464.275 187.586 464.264 187.59C453.011 188.912 445 192.306 445 196.278C445 197.351 445.58 198.374 446.65 199.343C450.697 202.955 461.738 205.552 474.725 205.552C477.725 205.552 480.615 205.411 483.346 205.154C482.511 214.11 478.886 226.683 464.264 230.709C467.26 231.536 470.727 232 474.725 232C476.299 232 477.786 231.923 479.204 231.789C479.61 231.766 480.027 231.739 480.471 231.697C485.914 231.176 492.483 229.184 498.969 226.078C505.455 222.971 511.151 219.106 514.986 215.179C520.592 209.467 520.493 205.564 519.431 203.3V203.304ZM511.853 212.057C508.758 215.217 504.271 218.366 499.086 221.056C502.75 215.669 503.972 209.268 504.351 204.227C505.587 203.974 506.79 203.783 507.928 203.675C512.737 203.223 514.986 204.212 515.449 205.208C515.915 206.204 515.252 208.59 511.857 212.053L511.853 212.057Z" fill="#B500A4"/>
<path d="M500 196.004C500 196.697 499.497 197.36 498.584 197.979C498.315 198.158 498.02 198.328 497.686 198.502C493.657 200.567 484.788 202 474.5 202C464.212 202 455.343 200.567 451.314 198.502C450.98 198.332 450.685 198.161 450.416 197.979C449.495 197.36 449 196.693 449 196.004C449 192.692 460.413 190 474.496 190C488.58 190 499.992 192.692 499.992 196.004H500Z" fill="#1C1C1C"/>
<path d="M498 198.504C494.003 200.567 485.206 202 475 202C464.794 202 455.997 200.567 452 198.504C455.989 196.436 464.787 195 475 195C485.213 195 494.007 196.432 498 198.504Z" fill="#D7FFD8"/>
</g>
</svg>
