<svg viewBox="0 0 302 202" fill="none" xmlns="http://www.w3.org/2000/svg">
<path d="M40.2627 201.998H0V181.864H40.2627V201.998ZM80.5293 201.998H40.2637V181.864H80.5293V201.998ZM140.928 201.998H100.665V181.864H140.928V201.998ZM161.062 201.998H140.929V181.864H161.062V201.998ZM181.197 201.998H161.063V181.864H181.197V201.998ZM201.331 201.998H181.198V181.864H201.331V201.998ZM261.731 201.998H221.466V181.864H261.731V201.998ZM281.865 201.998H261.732V181.864H281.865V201.998ZM302 201.998H281.866V181.864H302V201.998ZM40.2627 181.863H20.1289V161.729H40.2627V181.863ZM80.5293 181.863H60.3955V161.729H40.2637V141.596H80.5293V181.863ZM100.665 181.863H80.5312V161.729H100.665V181.863ZM140.928 181.863H120.795V161.729H100.665V141.596H140.928V181.863ZM181.197 181.863H161.063V141.596H181.197V181.863ZM261.731 161.729H241.6V181.863H201.332V161.729H221.466V141.596H261.731V161.729ZM281.865 181.863H261.732V161.729H281.865V181.863ZM161.062 161.729H140.929V141.596H161.062V161.729ZM201.331 161.729H181.198V141.596H201.331V161.729ZM80.5293 141.594H60.3955V121.461H40.2627V61.0679H80.5293V141.594ZM100.665 141.594H80.5312V121.461H100.665V141.594ZM261.731 61.0679V121.461H241.6V141.594H201.332V121.461H221.466V81.2017H221.465V61.0679H261.731ZM201.331 101.335H181.198V61.0679H201.331V101.335ZM181.197 81.2017H161.063V61.0679H181.197V81.2017ZM80.5293 61.0669H60.3955V40.9331H80.5293V61.0669ZM161.062 61.0669H140.929V40.9331H161.062V61.0669ZM261.731 40.9331H241.6V61.0669H221.466V40.9331H241.599V20.8003H261.731V40.9331ZM120.798 40.9331H80.5312V20.8003H120.798V40.9331ZM221.465 40.9331H181.198V20.8003H221.465V40.9331ZM140.928 20.7983H120.795V0.665527H140.928V20.7983ZM161.062 20.7983H140.929V0.665527H161.062V20.7983ZM181.197 20.7983H161.063V0.665527H181.197V20.7983ZM281.865 20.7983H261.732V0.665527H281.865V20.7983Z" fill="url(#paint0_linear_3667_49113)" fill-opacity="0.35"/>
<defs>
<linearGradient id="paint0_linear_3667_49113" x1="151.244" y1="-165.702" x2="150.781" y2="238.354" gradientUnits="userSpaceOnUse">
<stop stop-color="#1C1C3F" stop-opacity="0"/>
<stop offset="0.389423" stop-color="#5A5AB5"/>
</linearGradient>
</defs>
</svg>
