<svg width="1030" height="211" viewBox="0 0 1030 211" fill="none" xmlns="http://www.w3.org/2000/svg">
<path d="M1027.1 128.927C1026.3 128.927 1025.61 128.65 1025.06 128.061C1024.5 127.507 1024.19 126.814 1024.19 126.018C1024.19 125.221 1024.47 124.529 1025.06 123.975C1025.61 123.421 1026.3 123.109 1027.1 123.109C1027.89 123.109 1028.58 123.386 1029.14 123.975C1029.69 124.529 1030 125.221 1030 126.018C1030 126.814 1029.72 127.507 1029.14 128.061C1028.58 128.615 1027.89 128.927 1027.1 128.927Z" fill="url(#paint0_linear_5745_13910)"/>
<path d="M1027.1 87.8909C1026.3 87.8909 1025.61 87.6138 1025.06 87.0251C1024.5 86.471 1024.19 85.7782 1024.19 84.9817C1024.19 84.1852 1024.47 83.4926 1025.06 82.9383C1025.61 82.3842 1026.3 82.0726 1027.1 82.0726C1027.89 82.0726 1028.58 82.3496 1029.14 82.9383C1029.69 83.4926 1030 84.1852 1030 84.9817C1030 85.7782 1029.72 86.471 1029.14 87.0251C1028.58 87.5792 1027.89 87.8909 1027.1 87.8909Z" fill="url(#paint1_linear_5745_13910)"/>
<path d="M1027.1 46.8546C1026.3 46.8546 1025.61 46.5775 1025.06 45.9888C1024.5 45.4347 1024.19 44.742 1024.19 43.9454C1024.19 43.1489 1024.47 42.4563 1025.06 41.9021C1025.61 41.348 1026.3 41.0363 1027.1 41.0363C1027.89 41.0363 1028.58 41.3133 1029.14 41.9021C1029.69 42.4563 1030 43.1489 1030 43.9454C1030 44.742 1029.72 45.4347 1029.14 45.9888C1028.58 46.5429 1027.89 46.8546 1027.1 46.8546Z" fill="url(#paint2_linear_5745_13910)"/>
<path d="M1027.1 5.81838C1026.3 5.81838 1025.61 5.54103 1025.06 4.9526C1024.5 4.39791 1024.19 3.7053 1024.19 2.90996C1024.19 2.11315 1024.47 1.42053 1025.06 0.86585C1025.61 0.311167 1026.3 6.88646e-05 1027.1 6.87949e-05C1027.89 6.87253e-05 1028.58 0.277416 1029.14 0.86585C1029.69 1.42053 1030 2.11315 1030 2.90996C1030 3.7053 1029.72 4.39791 1029.14 4.9526C1028.58 5.50728 1027.89 5.81838 1027.1 5.81838Z" fill="url(#paint3_linear_5745_13910)"/>
<path d="M986.129 169.963C985.334 169.963 984.642 169.686 984.089 169.098C983.536 168.544 983.224 167.851 983.224 167.054C983.224 166.258 983.501 165.565 984.089 165.011C984.642 164.457 985.334 164.145 986.129 164.145C986.925 164.145 987.616 164.422 988.168 165.011C988.722 165.565 989.033 166.258 989.033 167.054C989.033 167.851 988.757 168.544 988.168 169.098C987.616 169.652 986.925 169.963 986.129 169.963Z" fill="url(#paint4_linear_5745_13910)"/>
<path d="M986.129 128.927C985.334 128.927 984.643 128.65 984.089 128.061C983.536 127.507 983.224 126.815 983.224 126.018C983.224 125.221 983.501 124.529 984.089 123.975C984.643 123.421 985.334 123.109 986.129 123.109C986.925 123.109 987.616 123.386 988.169 123.975C988.722 124.529 989.033 125.221 989.033 126.018C989.033 126.815 988.758 127.507 988.169 128.061C987.616 128.615 986.925 128.927 986.129 128.927Z" fill="url(#paint5_linear_5745_13910)"/>
<path d="M986.129 87.8908C985.334 87.8908 984.643 87.6138 984.089 87.0251C983.536 86.471 983.224 85.7782 983.224 84.9817C983.224 84.1852 983.501 83.4926 984.089 82.9383C984.643 82.3842 985.334 82.0725 986.129 82.0725C986.925 82.0725 987.616 82.3496 988.169 82.9383C988.722 83.4926 989.033 84.1852 989.033 84.9817C989.033 85.7782 988.758 86.471 988.169 87.0251C987.616 87.5792 986.925 87.8908 986.129 87.8908Z" fill="url(#paint6_linear_5745_13910)"/>
<path d="M986.129 46.8545C985.334 46.8545 984.643 46.5775 984.089 45.9888C983.536 45.4347 983.224 44.7419 983.224 43.9454C983.224 43.1489 983.501 42.4563 984.089 41.902C984.643 41.3479 985.334 41.0362 986.129 41.0362C986.925 41.0362 987.616 41.3133 988.169 41.902C988.722 42.4563 989.033 43.1489 989.033 43.9454C989.033 44.7419 988.758 45.4347 988.169 45.9888C987.616 46.5429 986.925 46.8545 986.129 46.8545Z" fill="url(#paint7_linear_5745_13910)"/>
<path d="M945.162 211C944.366 211 943.675 210.723 943.121 210.134C942.569 209.58 942.257 208.887 942.257 208.091C942.257 207.294 942.534 206.601 943.121 206.047C943.675 205.493 944.366 205.181 945.162 205.181C945.957 205.181 946.649 205.458 947.201 206.047C947.755 206.601 948.065 207.294 948.065 208.091C948.065 208.887 947.79 209.58 947.201 210.134C946.649 210.688 945.957 211 945.162 211Z" fill="url(#paint8_linear_5745_13910)"/>
<path d="M945.162 169.964C944.366 169.964 943.675 169.686 943.121 169.098C942.569 168.544 942.257 167.851 942.257 167.054C942.257 166.258 942.534 165.565 943.121 165.011C943.675 164.457 944.366 164.145 945.162 164.145C945.957 164.145 946.649 164.422 947.201 165.011C947.755 165.565 948.065 166.258 948.065 167.054C948.065 167.851 947.79 168.544 947.201 169.098C946.649 169.652 945.957 169.964 945.162 169.964Z" fill="url(#paint9_linear_5745_13910)"/>
<path d="M945.162 128.927C944.366 128.927 943.675 128.65 943.121 128.061C942.569 127.507 942.257 126.814 942.257 126.018C942.257 125.221 942.534 124.529 943.121 123.975C943.675 123.42 944.366 123.109 945.162 123.109C945.957 123.109 946.649 123.386 947.201 123.975C947.755 124.529 948.065 125.221 948.065 126.018C948.065 126.814 947.79 127.507 947.201 128.061C946.649 128.615 945.957 128.927 945.162 128.927Z" fill="url(#paint10_linear_5745_13910)"/>
<path d="M945.162 87.8909C944.366 87.8909 943.675 87.6139 943.121 87.0251C942.569 86.471 942.257 85.7783 942.257 84.9818C942.257 84.1852 942.534 83.4926 943.121 82.9384C943.675 82.3843 944.366 82.0726 945.162 82.0726C945.957 82.0726 946.648 82.3496 947.201 82.9384C947.755 83.4926 948.065 84.1852 948.065 84.9818C948.065 85.7783 947.79 86.471 947.201 87.0251C946.648 87.5792 945.957 87.8909 945.162 87.8909Z" fill="url(#paint11_linear_5745_13910)"/>
<path d="M904.195 211C903.399 211 902.708 210.723 902.154 210.134C901.602 209.58 901.289 208.887 901.289 208.091C901.289 207.294 901.566 206.601 902.154 206.047C902.708 205.493 903.399 205.181 904.195 205.181C904.99 205.181 905.681 205.458 906.234 206.047C906.787 206.601 907.098 207.294 907.098 208.091C907.098 208.887 906.823 209.58 906.234 210.134C905.681 210.688 904.99 211 904.195 211Z" fill="url(#paint12_linear_5745_13910)"/>
<path d="M904.194 169.963C903.399 169.963 902.708 169.686 902.154 169.098C901.602 168.544 901.289 167.851 901.289 167.054C901.289 166.258 901.566 165.565 902.154 165.011C902.708 164.457 903.399 164.145 904.194 164.145C904.99 164.145 905.681 164.422 906.234 165.011C906.787 165.565 907.098 166.258 907.098 167.054C907.098 167.851 906.823 168.544 906.234 169.098C905.681 169.652 904.99 169.963 904.194 169.963Z" fill="url(#paint13_linear_5745_13910)"/>
<path d="M904.194 128.927C903.399 128.927 902.708 128.65 902.154 128.061C901.602 127.507 901.289 126.814 901.289 126.018C901.289 125.221 901.566 124.529 902.154 123.975C902.708 123.42 903.399 123.109 904.194 123.109C904.99 123.109 905.681 123.386 906.234 123.975C906.787 124.529 907.098 125.221 907.098 126.018C907.098 126.814 906.823 127.507 906.234 128.061C905.681 128.615 904.99 128.927 904.194 128.927Z" fill="url(#paint14_linear_5745_13910)"/>
<path d="M904.194 87.8908C903.399 87.8908 902.708 87.6138 902.154 87.0251C901.602 86.471 901.289 85.7782 901.289 84.9817C901.289 84.1852 901.566 83.4925 902.154 82.9383C902.708 82.3842 903.399 82.0725 904.194 82.0725C904.99 82.0725 905.681 82.3496 906.234 82.9383C906.787 83.4925 907.098 84.1852 907.098 84.9817C907.098 85.7782 906.823 86.471 906.234 87.0251C905.681 87.5792 904.99 87.8908 904.194 87.8908Z" fill="url(#paint15_linear_5745_13910)"/>
<path d="M904.194 46.8545C903.399 46.8545 902.708 46.5775 902.154 45.9888C901.602 45.4347 901.289 44.7419 901.289 43.9454C901.289 43.1489 901.566 42.4563 902.154 41.902C902.708 41.3479 903.399 41.0362 904.194 41.0362C904.99 41.0362 905.681 41.3133 906.234 41.902C906.787 42.4563 907.098 43.1489 907.098 43.9454C907.098 44.7419 906.823 45.4347 906.234 45.9888C905.681 46.5429 904.99 46.8545 904.194 46.8545Z" fill="url(#paint16_linear_5745_13910)"/>
<path d="M863.227 211C862.431 211 861.74 210.723 861.186 210.134C860.634 209.58 860.322 208.887 860.322 208.091C860.322 207.294 860.599 206.602 861.186 206.047C861.74 205.493 862.431 205.182 863.227 205.182C864.022 205.182 864.714 205.459 865.266 206.047C865.82 206.602 866.13 207.294 866.13 208.091C866.13 208.887 865.855 209.58 865.266 210.134C864.714 210.688 864.022 211 863.227 211Z" fill="url(#paint17_linear_5745_13910)"/>
<path d="M863.227 169.964C862.431 169.964 861.74 169.687 861.186 169.098C860.634 168.544 860.322 167.851 860.322 167.055C860.322 166.258 860.599 165.565 861.186 165.011C861.74 164.457 862.431 164.145 863.227 164.145C864.022 164.145 864.714 164.422 865.266 165.011C865.82 165.565 866.13 166.258 866.13 167.055C866.13 167.851 865.855 168.544 865.266 169.098C864.714 169.652 864.022 169.964 863.227 169.964Z" fill="url(#paint18_linear_5745_13910)"/>
<path d="M863.227 128.927C862.431 128.927 861.74 128.65 861.186 128.062C860.634 127.508 860.322 126.815 860.322 126.018C860.322 125.222 860.599 124.529 861.186 123.975C861.74 123.421 862.431 123.109 863.227 123.109C864.022 123.109 864.714 123.386 865.266 123.975C865.82 124.529 866.13 125.222 866.13 126.018C866.13 126.815 865.855 127.508 865.266 128.062C864.714 128.616 864.022 128.927 863.227 128.927Z" fill="url(#paint19_linear_5745_13910)"/>
<path d="M863.227 87.8911C862.431 87.8911 861.74 87.6141 861.186 87.0254C860.634 86.4713 860.322 85.7785 860.322 84.982C860.322 84.1855 860.599 83.4928 861.186 82.9386C861.74 82.3845 862.431 82.0728 863.227 82.0728C864.022 82.0728 864.714 82.3499 865.266 82.9386C865.82 83.4928 866.13 84.1855 866.13 84.982C866.13 85.7785 865.855 86.4713 865.266 87.0254C864.714 87.5795 864.022 87.8911 863.227 87.8911Z" fill="url(#paint20_linear_5745_13910)"/>
<path d="M863.227 46.8549C862.431 46.8549 861.74 46.5778 861.186 45.9891C860.634 45.435 860.322 44.7422 860.322 43.9457C860.322 43.1492 860.599 42.4566 861.186 41.9023C861.74 41.3482 862.431 41.0365 863.227 41.0365C864.022 41.0365 864.714 41.3136 865.266 41.9023C865.82 42.4566 866.13 43.1492 866.13 43.9457C866.13 44.7422 865.855 45.435 865.266 45.9891C864.714 46.5432 864.022 46.8549 863.227 46.8549Z" fill="url(#paint21_linear_5745_13910)"/>
<path d="M863.227 5.81855C862.431 5.81855 861.74 5.54121 861.186 4.95277C860.634 4.39809 860.322 3.70547 860.322 2.91013C860.322 2.11332 860.599 1.42071 861.186 0.866024C861.74 0.311341 862.431 0.000242601 863.227 0.000242531C864.022 0.000242461 864.714 0.27759 865.266 0.866024C865.82 1.42071 866.13 2.11332 866.13 2.91013C866.13 3.70547 865.855 4.39809 865.266 4.95277C864.714 5.50745 864.022 5.81855 863.227 5.81855Z" fill="url(#paint22_linear_5745_13910)"/>
<path d="M822.259 128.927C821.464 128.927 820.773 128.65 820.219 128.062C819.667 127.508 819.354 126.815 819.354 126.018C819.354 125.222 819.631 124.529 820.219 123.975C820.773 123.421 821.464 123.109 822.259 123.109C823.055 123.109 823.746 123.386 824.299 123.975C824.852 124.529 825.163 125.222 825.163 126.018C825.163 126.815 824.888 127.508 824.299 128.062C823.746 128.616 823.055 128.927 822.259 128.927Z" fill="url(#paint23_linear_5745_13910)"/>
<path d="M822.259 87.8913C821.464 87.8913 820.772 87.6143 820.219 87.0255C819.666 86.4714 819.354 85.7787 819.354 84.9822C819.354 84.1856 819.631 83.493 820.219 82.9388C820.772 82.3847 821.464 82.073 822.259 82.073C823.055 82.073 823.746 82.3501 824.299 82.9388C824.852 83.493 825.163 84.1856 825.163 84.9822C825.163 85.7787 824.887 86.4714 824.299 87.0255C823.746 87.5796 823.055 87.8913 822.259 87.8913Z" fill="url(#paint24_linear_5745_13910)"/>
<path d="M822.259 46.855C821.464 46.855 820.772 46.578 820.219 45.9892C819.666 45.4351 819.354 44.7424 819.354 43.9459C819.354 43.1493 819.631 42.4567 820.219 41.9025C820.772 41.3484 821.464 41.0367 822.259 41.0367C823.055 41.0367 823.746 41.3138 824.299 41.9025C824.852 42.4567 825.163 43.1493 825.163 43.9459C825.163 44.7424 824.887 45.4351 824.299 45.9892C823.746 46.5433 823.055 46.855 822.259 46.855Z" fill="url(#paint25_linear_5745_13910)"/>
<path d="M822.259 5.81872C821.464 5.81872 820.772 5.54137 820.219 4.95293C819.666 4.39825 819.354 3.70563 819.354 2.91029C819.354 2.11349 819.631 1.42087 820.219 0.866187C820.772 0.311504 821.464 0.000405636 822.259 0.000405566C823.055 0.000405496 823.746 0.277753 824.298 0.866187C824.852 1.42087 825.163 2.11349 825.163 2.91029C825.163 3.70563 824.887 4.39825 824.298 4.95293C823.746 5.50762 823.055 5.81872 822.259 5.81872Z" fill="url(#paint26_linear_5745_13910)"/>
<path d="M781.292 87.8909C780.497 87.8909 779.805 87.6139 779.251 87.0252C778.699 86.4711 778.387 85.7783 778.387 84.9818C778.387 84.1853 778.664 83.4927 779.251 82.9384C779.805 82.3843 780.497 82.0727 781.292 82.0727C782.087 82.0727 782.779 82.3497 783.331 82.9384C783.885 83.4927 784.196 84.1853 784.196 84.9818C784.196 85.7783 783.92 86.4711 783.331 87.0252C782.779 87.5793 782.087 87.8909 781.292 87.8909Z" fill="url(#paint27_linear_5745_13910)"/>
<path d="M781.292 46.8547C780.497 46.8547 779.805 46.5777 779.252 45.9889C778.699 45.4349 778.387 44.7421 778.387 43.9456C778.387 43.1491 778.664 42.4564 779.252 41.9022C779.805 41.3481 780.497 41.0364 781.292 41.0364C782.088 41.0364 782.779 41.3135 783.331 41.9022C783.885 42.4564 784.196 43.1491 784.196 43.9456C784.196 44.7421 783.92 45.4349 783.331 45.9889C782.779 46.543 782.088 46.8547 781.292 46.8547Z" fill="url(#paint28_linear_5745_13910)"/>
<path d="M740.325 87.8911C739.53 87.8911 738.838 87.6141 738.284 87.0254C737.732 86.4713 737.42 85.7785 737.42 84.982C737.42 84.1855 737.697 83.4928 738.284 82.9386C738.838 82.3845 739.53 82.0728 740.325 82.0728C741.121 82.0728 741.812 82.3499 742.364 82.9386C742.918 83.4928 743.229 84.1855 743.229 84.982C743.229 85.7785 742.953 86.4713 742.364 87.0254C741.812 87.5795 741.121 87.8911 740.325 87.8911Z" fill="url(#paint29_linear_5745_13910)"/>
<path d="M740.325 46.8548C739.53 46.8548 738.838 46.5778 738.284 45.9891C737.732 45.435 737.42 44.7422 737.42 43.9457C737.42 43.1492 737.697 42.4565 738.284 41.9023C738.838 41.3482 739.53 41.0365 740.325 41.0365C741.121 41.0365 741.812 41.3136 742.364 41.9023C742.918 42.4565 743.229 43.1492 743.229 43.9457C743.229 44.7422 742.953 45.435 742.364 45.9891C741.812 46.5432 741.121 46.8548 740.325 46.8548Z" fill="url(#paint30_linear_5745_13910)"/>
<path d="M740.325 5.81853C739.53 5.81853 738.838 5.54118 738.284 4.95274C737.732 4.39806 737.42 3.70544 737.42 2.9101C737.42 2.1133 737.697 1.42068 738.284 0.865997C738.838 0.311314 739.53 0.000215884 740.325 0.000215814C741.121 0.000215745 741.812 0.277563 742.364 0.865997C742.918 1.42068 743.229 2.1133 743.229 2.9101C743.229 3.70544 742.953 4.39806 742.364 4.95274C741.812 5.50743 741.121 5.81853 740.325 5.81853Z" fill="url(#paint31_linear_5745_13910)"/>
<path d="M699.358 87.891C698.562 87.891 697.871 87.614 697.317 87.0252C696.765 86.4711 696.453 85.7784 696.453 84.9818C696.453 84.1853 696.73 83.4927 697.317 82.9385C697.871 82.3844 698.562 82.0727 699.358 82.0727C700.153 82.0727 700.845 82.3497 701.397 82.9385C701.951 83.4927 702.261 84.1853 702.261 84.9818C702.261 85.7784 701.986 86.4711 701.397 87.0252C700.845 87.5793 700.153 87.891 699.358 87.891Z" fill="url(#paint32_linear_5745_13910)"/>
<path d="M699.358 46.8547C698.562 46.8547 697.871 46.5777 697.317 45.9889C696.765 45.4349 696.453 44.7421 696.453 43.9456C696.453 43.1491 696.73 42.4564 697.317 41.9022C697.871 41.3481 698.562 41.0364 699.358 41.0364C700.153 41.0364 700.845 41.3135 701.397 41.9022C701.951 42.4564 702.261 43.1491 702.261 43.9456C702.261 44.7421 701.986 45.4349 701.397 45.9889C700.845 46.543 700.153 46.8547 699.358 46.8547Z" fill="url(#paint33_linear_5745_13910)"/>
<path d="M699.358 5.81844C698.562 5.81844 697.871 5.54109 697.317 4.95265C696.765 4.39797 696.453 3.70535 696.453 2.91001C696.453 2.11321 696.73 1.42059 697.317 0.865907C697.871 0.311224 698.562 0.000125697 699.358 0.000125627C700.153 0.000125558 700.845 0.277473 701.397 0.865907C701.951 1.42059 702.261 2.11321 702.261 2.91001C702.261 3.70535 701.986 4.39797 701.397 4.95265C700.845 5.50734 700.153 5.81844 699.358 5.81844Z" fill="url(#paint34_linear_5745_13910)"/>
<path d="M658.39 87.891C657.595 87.891 656.903 87.614 656.35 87.0252C655.797 86.4711 655.485 85.7784 655.485 84.9819C655.485 84.1854 655.762 83.4927 656.35 82.9385C656.903 82.3844 657.595 82.0727 658.39 82.0727C659.186 82.0727 659.877 82.3497 660.429 82.9385C660.983 83.4927 661.294 84.1854 661.294 84.9819C661.294 85.7784 661.018 86.4711 660.429 87.0252C659.877 87.5793 659.186 87.891 658.39 87.891Z" fill="url(#paint35_linear_5745_13910)"/>
<path d="M658.39 46.8547C657.595 46.8547 656.903 46.5777 656.349 45.989C655.797 45.4349 655.485 44.7421 655.485 43.9456C655.485 43.1491 655.762 42.4565 656.349 41.9022C656.903 41.3481 657.595 41.0364 658.39 41.0364C659.186 41.0364 659.877 41.3135 660.429 41.9022C660.983 42.4565 661.294 43.1491 661.294 43.9456C661.294 44.7421 661.018 45.4349 660.429 45.989C659.877 46.5431 659.186 46.8547 658.39 46.8547Z" fill="url(#paint36_linear_5745_13910)"/>
<path d="M658.39 5.81847C657.595 5.81847 656.903 5.54112 656.349 4.95269C655.797 4.398 655.485 3.70539 655.485 2.91005C655.485 2.11324 655.762 1.42062 656.349 0.865939C656.903 0.311256 657.595 0.000157417 658.39 0.000157347C659.186 0.000157278 659.877 0.277505 660.429 0.865938C660.983 1.42062 661.294 2.11324 661.294 2.91005C661.294 3.70538 661.018 4.398 660.429 4.95269C659.877 5.50737 659.186 5.81847 658.39 5.81847Z" fill="url(#paint37_linear_5745_13910)"/>
<path d="M617.423 87.891C616.627 87.891 615.936 87.614 615.382 87.0252C614.83 86.4711 614.518 85.7784 614.518 84.9819C614.518 84.1854 614.795 83.4927 615.382 82.9385C615.936 82.3844 616.627 82.0727 617.423 82.0727C618.218 82.0727 618.91 82.3498 619.462 82.9385C620.016 83.4927 620.326 84.1854 620.326 84.9819C620.326 85.7784 620.051 86.4711 619.462 87.0252C618.91 87.5793 618.218 87.891 617.423 87.891Z" fill="url(#paint38_linear_5745_13910)"/>
<path d="M617.423 46.8547C616.627 46.8547 615.936 46.5777 615.382 45.989C614.83 45.4349 614.518 44.7421 614.518 43.9456C614.518 43.1491 614.795 42.4565 615.382 41.9022C615.936 41.3481 616.627 41.0364 617.423 41.0364C618.218 41.0364 618.91 41.3135 619.462 41.9022C620.016 42.4565 620.326 43.1491 620.326 43.9456C620.326 44.7421 620.051 45.4349 619.462 45.989C618.91 46.5431 618.218 46.8547 617.423 46.8547Z" fill="url(#paint39_linear_5745_13910)"/>
<path d="M576.456 87.891C575.66 87.891 574.969 87.614 574.415 87.0253C573.863 86.4712 573.551 85.7784 573.551 84.9819C573.551 84.1854 573.827 83.4927 574.415 82.9385C574.969 82.3844 575.66 82.0727 576.456 82.0727C577.251 82.0727 577.943 82.3498 578.495 82.9385C579.049 83.4927 579.359 84.1854 579.359 84.9819C579.359 85.7784 579.084 86.4712 578.495 87.0253C577.943 87.5793 577.251 87.891 576.456 87.891Z" fill="url(#paint40_linear_5745_13910)"/>
<path d="M576.455 46.8547C575.66 46.8547 574.969 46.5777 574.415 45.989C573.862 45.4349 573.55 44.7421 573.55 43.9456C573.55 43.1491 573.827 42.4565 574.415 41.9022C574.969 41.3481 575.66 41.0364 576.455 41.0364C577.251 41.0364 577.942 41.3135 578.495 41.9022C579.048 42.4565 579.359 43.1491 579.359 43.9456C579.359 44.7421 579.083 45.4349 578.495 45.989C577.942 46.5431 577.251 46.8547 576.455 46.8547Z" fill="url(#paint41_linear_5745_13910)"/>
<path d="M576.455 5.81848C575.66 5.81848 574.969 5.54114 574.415 4.9527C573.862 4.39802 573.55 3.7054 573.55 2.91006C573.55 2.11326 573.827 1.42064 574.415 0.865955C574.969 0.311272 575.66 0.000173969 576.455 0.0001739C577.251 0.00017383 577.942 0.277521 578.495 0.865955C579.048 1.42064 579.359 2.11326 579.359 2.91006C579.359 3.7054 579.083 4.39802 578.495 4.9527C577.942 5.50739 577.251 5.81848 576.455 5.81848Z" fill="url(#paint42_linear_5745_13910)"/>
<path d="M535.488 169.964C534.693 169.964 534.001 169.687 533.447 169.098C532.895 168.544 532.583 167.851 532.583 167.054C532.583 166.258 532.86 165.565 533.447 165.011C534.001 164.457 534.693 164.145 535.488 164.145C536.284 164.145 536.975 164.422 537.527 165.011C538.081 165.565 538.392 166.258 538.392 167.054C538.392 167.851 538.116 168.544 537.527 169.098C536.975 169.652 536.284 169.964 535.488 169.964Z" fill="url(#paint43_linear_5745_13910)"/>
<path d="M535.488 128.927C534.693 128.927 534.001 128.65 533.447 128.062C532.895 127.507 532.583 126.815 532.583 126.018C532.583 125.222 532.86 124.529 533.447 123.975C534.001 123.421 534.693 123.109 535.488 123.109C536.284 123.109 536.975 123.386 537.527 123.975C538.081 124.529 538.392 125.222 538.392 126.018C538.392 126.815 538.116 127.507 537.527 128.062C536.975 128.616 536.284 128.927 535.488 128.927Z" fill="url(#paint44_linear_5745_13910)"/>
<path d="M535.488 87.891C534.693 87.891 534.001 87.614 533.447 87.0253C532.895 86.4712 532.583 85.7784 532.583 84.9819C532.583 84.1854 532.86 83.4928 533.447 82.9385C534.001 82.3844 534.693 82.0727 535.488 82.0727C536.284 82.0727 536.975 82.3498 537.527 82.9385C538.081 83.4928 538.392 84.1854 538.392 84.9819C538.392 85.7784 538.116 86.4712 537.527 87.0253C536.975 87.5794 536.284 87.891 535.488 87.891Z" fill="url(#paint45_linear_5745_13910)"/>
<path d="M535.488 46.8548C534.693 46.8548 534.001 46.5777 533.447 45.989C532.895 45.4349 532.583 44.7421 532.583 43.9456C532.583 43.1491 532.86 42.4565 533.447 41.9022C534.001 41.3481 534.693 41.0365 535.488 41.0365C536.284 41.0365 536.975 41.3135 537.527 41.9022C538.081 42.4565 538.392 43.1491 538.392 43.9456C538.392 44.7421 538.116 45.4349 537.527 45.989C536.975 46.5431 536.284 46.8548 535.488 46.8548Z" fill="url(#paint46_linear_5745_13910)"/>
<path d="M494.521 169.964C493.725 169.964 493.034 169.687 492.48 169.098C491.928 168.544 491.616 167.851 491.616 167.054C491.616 166.258 491.892 165.565 492.48 165.011C493.034 164.457 493.725 164.145 494.521 164.145C495.316 164.145 496.007 164.422 496.56 165.011C497.113 165.565 497.424 166.258 497.424 167.054C497.424 167.851 497.149 168.544 496.56 169.098C496.007 169.652 495.316 169.964 494.521 169.964Z" fill="url(#paint47_linear_5745_13910)"/>
<path d="M494.521 128.928C493.725 128.928 493.034 128.65 492.48 128.062C491.928 127.508 491.616 126.815 491.616 126.018C491.616 125.222 491.893 124.529 492.48 123.975C493.034 123.421 493.725 123.109 494.521 123.109C495.316 123.109 496.008 123.386 496.56 123.975C497.114 124.529 497.424 125.222 497.424 126.018C497.424 126.815 497.149 127.508 496.56 128.062C496.008 128.616 495.316 128.928 494.521 128.928Z" fill="url(#paint48_linear_5745_13910)"/>
<path d="M494.521 87.8911C493.725 87.8911 493.034 87.6141 492.48 87.0253C491.928 86.4712 491.616 85.7785 491.616 84.982C491.616 84.1854 491.892 83.4928 492.48 82.9386C493.034 82.3845 493.725 82.0728 494.521 82.0728C495.316 82.0728 496.007 82.3498 496.56 82.9386C497.113 83.4928 497.424 84.1854 497.424 84.982C497.424 85.7785 497.149 86.4712 496.56 87.0253C496.007 87.5794 495.316 87.8911 494.521 87.8911Z" fill="url(#paint49_linear_5745_13910)"/>
<path d="M494.521 46.8547C493.725 46.8547 493.034 46.5777 492.48 45.9889C491.928 45.4348 491.616 44.7421 491.616 43.9456C491.616 43.1491 491.892 42.4564 492.48 41.9022C493.034 41.3481 493.725 41.0364 494.521 41.0364C495.316 41.0364 496.007 41.3135 496.56 41.9022C497.113 42.4564 497.424 43.149 497.424 43.9456C497.424 44.7421 497.149 45.4348 496.56 45.9889C496.007 46.543 495.316 46.8547 494.521 46.8547Z" fill="url(#paint50_linear_5745_13910)"/>
<path d="M494.521 5.81833C493.725 5.81833 493.034 5.54098 492.48 4.95255C491.928 4.39786 491.616 3.70525 491.616 2.90991C491.616 2.1131 491.892 1.42048 492.48 0.865798C493.034 0.311115 493.725 1.7039e-05 494.521 1.69693e-05C495.316 1.68996e-05 496.007 0.277364 496.56 0.865798C497.113 1.42048 497.424 2.1131 497.424 2.90991C497.424 3.70524 497.149 4.39786 496.56 4.95255C496.007 5.50723 495.316 5.81833 494.521 5.81833Z" fill="url(#paint51_linear_5745_13910)"/>
<path d="M453.553 169.964C452.758 169.964 452.067 169.687 451.513 169.098C450.961 168.544 450.648 167.851 450.648 167.054C450.648 166.258 450.925 165.565 451.513 165.011C452.067 164.457 452.758 164.145 453.553 164.145C454.349 164.145 455.04 164.422 455.593 165.011C456.146 165.565 456.457 166.258 456.457 167.054C456.457 167.851 456.182 168.544 455.593 169.098C455.04 169.652 454.349 169.964 453.553 169.964Z" fill="url(#paint52_linear_5745_13910)"/>
<path d="M453.554 128.927C452.758 128.927 452.067 128.65 451.513 128.062C450.961 127.507 450.649 126.815 450.649 126.018C450.649 125.222 450.926 124.529 451.513 123.975C452.067 123.421 452.758 123.109 453.554 123.109C454.349 123.109 455.04 123.386 455.593 123.975C456.147 124.529 456.457 125.222 456.457 126.018C456.457 126.815 456.182 127.507 455.593 128.062C455.04 128.616 454.349 128.927 453.554 128.927Z" fill="url(#paint53_linear_5745_13910)"/>
<path d="M453.554 87.891C452.758 87.891 452.067 87.6139 451.513 87.0252C450.961 86.4711 450.649 85.7784 450.649 84.9818C450.649 84.1853 450.925 83.4927 451.513 82.9384C452.067 82.3844 452.758 82.0727 453.554 82.0727C454.349 82.0727 455.04 82.3497 455.593 82.9384C456.147 83.4927 456.457 84.1853 456.457 84.9818C456.457 85.7784 456.182 86.4711 455.593 87.0252C455.04 87.5793 454.349 87.891 453.554 87.891Z" fill="url(#paint54_linear_5745_13910)"/>
<path d="M453.554 46.8548C452.758 46.8548 452.067 46.5778 451.513 45.989C450.961 45.435 450.649 44.7422 450.649 43.9457C450.649 43.1492 450.925 42.4565 451.513 41.9023C452.067 41.3482 452.758 41.0365 453.554 41.0365C454.349 41.0365 455.04 41.3136 455.593 41.9023C456.147 42.4565 456.457 43.1492 456.457 43.9457C456.457 44.7422 456.182 45.435 455.593 45.989C455.04 46.5431 454.349 46.8548 453.554 46.8548Z" fill="url(#paint55_linear_5745_13910)"/>
<path d="M453.554 5.81849C452.758 5.81849 452.067 5.54115 451.513 4.95271C450.961 4.39803 450.649 3.70541 450.649 2.91007C450.649 2.11327 450.925 1.42065 451.513 0.865966C452.067 0.311283 452.758 0.000184732 453.554 0.000184662C454.349 0.000184593 455.04 0.277532 455.593 0.865966C456.147 1.42065 456.457 2.11327 456.457 2.91007C456.457 3.70541 456.182 4.39803 455.593 4.95271C455.04 5.5074 454.349 5.81849 453.554 5.81849Z" fill="url(#paint56_linear_5745_13910)"/>
<path d="M412.586 46.8546C411.79 46.8546 411.099 46.5775 410.545 45.9888C409.993 45.4347 409.681 44.742 409.681 43.9454C409.681 43.1489 409.958 42.4563 410.545 41.9021C411.099 41.348 411.79 41.0363 412.586 41.0363C413.381 41.0363 414.073 41.3133 414.625 41.9021C415.179 42.4563 415.489 43.1489 415.489 43.9454C415.489 44.742 415.214 45.4347 414.625 45.9888C414.073 46.5429 413.381 46.8546 412.586 46.8546Z" fill="url(#paint57_linear_5745_13910)"/>
<path d="M412.586 5.8183C411.79 5.8183 411.099 5.54126 410.545 4.95253C409.993 4.39844 409.681 3.70567 409.681 2.90915C409.681 2.11264 409.958 1.42002 410.545 0.865773C411.099 0.311677 411.79 3.16932e-06 412.586 3.09966e-06C413.381 3.03e-06 414.073 0.277046 414.625 0.865773C415.179 1.42002 415.489 2.11264 415.489 2.90915C415.489 3.70567 415.214 4.39844 414.625 4.95253C414.073 5.50663 413.381 5.8183 412.586 5.8183Z" fill="url(#paint58_linear_5745_13910)"/>
<path d="M371.607 5.81833C370.816 5.81833 370.127 5.54099 369.571 4.95255C369.014 4.39787 368.706 3.70525 368.706 2.90991C368.706 2.1131 368.985 1.42049 369.571 0.865804C370.127 0.311121 370.816 2.31134e-05 371.607 2.30441e-05C372.413 2.29735e-05 373.101 0.27737 373.658 0.865804C374.2 1.42049 374.522 2.1131 374.522 2.90991C374.522 3.70525 374.244 4.39787 373.658 4.95255C373.101 5.50724 372.413 5.81833 371.607 5.81833Z" fill="url(#paint59_linear_5745_13910)"/>
<path d="M330.644 211C329.849 211 329.157 210.723 328.603 210.134C328.051 209.58 327.739 208.887 327.739 208.091C327.739 207.294 328.016 206.601 328.603 206.047C329.157 205.493 329.849 205.181 330.644 205.181C331.439 205.181 332.131 205.458 332.683 206.047C333.237 206.601 333.548 207.294 333.548 208.091C333.548 208.887 333.272 209.58 332.683 210.134C332.131 210.688 331.439 211 330.644 211Z" fill="url(#paint60_linear_5745_13910)"/>
<path d="M330.644 169.963C329.849 169.963 329.157 169.686 328.603 169.098C328.051 168.544 327.739 167.851 327.739 167.054C327.739 166.258 328.016 165.565 328.603 165.011C329.157 164.457 329.849 164.145 330.644 164.145C331.439 164.145 332.131 164.422 332.683 165.011C333.237 165.565 333.548 166.258 333.548 167.054C333.548 167.851 333.272 168.544 332.683 169.098C332.131 169.652 331.439 169.963 330.644 169.963Z" fill="url(#paint61_linear_5745_13910)"/>
<path d="M330.644 128.927C329.849 128.927 329.157 128.65 328.603 128.061C328.051 127.507 327.739 126.815 327.739 126.018C327.739 125.222 328.016 124.529 328.603 123.975C329.157 123.421 329.849 123.109 330.644 123.109C331.439 123.109 332.131 123.386 332.683 123.975C333.237 124.529 333.548 125.222 333.548 126.018C333.548 126.815 333.272 127.507 332.683 128.061C332.131 128.615 331.439 128.927 330.644 128.927Z" fill="url(#paint62_linear_5745_13910)"/>
<path d="M330.644 87.8909C329.849 87.8909 329.157 87.6138 328.603 87.0251C328.051 86.471 327.739 85.7782 327.739 84.9817C327.739 84.1852 328.016 83.4926 328.603 82.9383C329.157 82.3843 329.849 82.0726 330.644 82.0726C331.439 82.0726 332.131 82.3496 332.683 82.9383C333.237 83.4926 333.548 84.1852 333.548 84.9817C333.548 85.7782 333.272 86.471 332.683 87.0251C332.131 87.5792 331.439 87.8909 330.644 87.8909Z" fill="url(#paint63_linear_5745_13910)"/>
<path d="M330.644 46.8546C329.849 46.8546 329.157 46.5775 328.603 45.9888C328.051 45.4347 327.739 44.742 327.739 43.9454C327.739 43.1489 328.016 42.4563 328.603 41.9021C329.157 41.348 329.849 41.0363 330.644 41.0363C331.439 41.0363 332.131 41.3133 332.683 41.9021C333.237 42.4563 333.548 43.1489 333.548 43.9454C333.548 44.742 333.272 45.4347 332.683 45.9888C332.131 46.5429 331.439 46.8546 330.644 46.8546Z" fill="url(#paint64_linear_5745_13910)"/>
<path d="M330.644 5.81832C329.849 5.81832 329.157 5.54097 328.603 4.95254C328.051 4.39785 327.739 3.70524 327.739 2.9099C327.739 2.11309 328.016 1.42047 328.603 0.865789C329.157 0.311106 329.849 7.94596e-06 330.644 7.8763e-06C331.439 7.80664e-06 332.131 0.277355 332.683 0.865789C333.237 1.42047 333.548 2.11309 333.548 2.9099C333.548 3.70524 333.272 4.39785 332.683 4.95254C332.131 5.50722 331.439 5.81832 330.644 5.81832Z" fill="url(#paint65_linear_5745_13910)"/>
<path d="M289.677 128.927C288.881 128.927 288.19 128.65 287.636 128.061C287.084 127.507 286.772 126.815 286.772 126.018C286.772 125.222 287.049 124.529 287.636 123.975C288.19 123.421 288.881 123.109 289.677 123.109C290.472 123.109 291.164 123.386 291.716 123.975C292.27 124.529 292.58 125.222 292.58 126.018C292.58 126.815 292.305 127.507 291.716 128.061C291.164 128.616 290.472 128.927 289.677 128.927Z" fill="url(#paint66_linear_5745_13910)"/>
<path d="M289.677 87.8909C288.881 87.8909 288.19 87.6139 287.636 87.0251C287.084 86.471 286.772 85.7783 286.772 84.9818C286.772 84.1852 287.049 83.4926 287.636 82.9384C288.19 82.3843 288.881 82.0726 289.677 82.0726C290.472 82.0726 291.164 82.3497 291.716 82.9384C292.27 83.4926 292.58 84.1852 292.58 84.9818C292.58 85.7783 292.305 86.471 291.716 87.0251C291.164 87.5792 290.472 87.8909 289.677 87.8909Z" fill="url(#paint67_linear_5745_13910)"/>
<path d="M289.677 46.8546C288.881 46.8546 288.19 46.5776 287.636 45.9889C287.084 45.4348 286.772 44.742 286.772 43.9455C286.772 43.149 287.048 42.4563 287.636 41.9021C288.19 41.348 288.881 41.0363 289.677 41.0363C290.472 41.0363 291.164 41.3134 291.716 41.9021C292.27 42.4563 292.58 43.149 292.58 43.9455C292.58 44.742 292.305 45.4348 291.716 45.9889C291.164 46.5429 290.472 46.8546 289.677 46.8546Z" fill="url(#paint68_linear_5745_13910)"/>
<path d="M289.677 5.81834C288.881 5.81834 288.19 5.54099 287.636 4.95256C287.084 4.39788 286.772 3.70526 286.772 2.90992C286.772 2.11311 287.048 1.42049 287.636 0.865812C288.19 0.311128 288.881 3.02884e-05 289.677 3.02187e-05C290.472 3.01491e-05 291.164 0.277378 291.716 0.865811C292.27 1.42049 292.58 2.11311 292.58 2.90992C292.58 3.70526 292.305 4.39788 291.716 4.95256C291.164 5.50724 290.472 5.81834 289.677 5.81834Z" fill="url(#paint69_linear_5745_13910)"/>
<path d="M248.709 169.963C247.914 169.963 247.222 169.686 246.669 169.098C246.116 168.544 245.804 167.851 245.804 167.054C245.804 166.258 246.081 165.565 246.669 165.011C247.222 164.457 247.914 164.145 248.709 164.145C249.505 164.145 250.196 164.422 250.748 165.011C251.302 165.565 251.613 166.258 251.613 167.054C251.613 167.851 251.337 168.544 250.748 169.098C250.196 169.652 249.505 169.963 248.709 169.963Z" fill="url(#paint70_linear_5745_13910)"/>
<path d="M248.709 128.927C247.914 128.927 247.222 128.65 246.669 128.061C246.116 127.507 245.804 126.815 245.804 126.018C245.804 125.222 246.081 124.529 246.669 123.975C247.222 123.421 247.914 123.109 248.709 123.109C249.505 123.109 250.196 123.386 250.749 123.975C251.302 124.529 251.613 125.222 251.613 126.018C251.613 126.815 251.337 127.507 250.749 128.061C250.196 128.616 249.505 128.927 248.709 128.927Z" fill="url(#paint71_linear_5745_13910)"/>
<path d="M248.709 87.891C247.914 87.891 247.222 87.614 246.669 87.0253C246.116 86.4712 245.804 85.7784 245.804 84.9819C245.804 84.1854 246.081 83.4927 246.669 82.9385C247.222 82.3844 247.914 82.0727 248.709 82.0727C249.505 82.0727 250.196 82.3498 250.749 82.9385C251.302 83.4927 251.613 84.1854 251.613 84.9819C251.613 85.7784 251.337 86.4712 250.749 87.0253C250.196 87.5794 249.505 87.891 248.709 87.891Z" fill="url(#paint72_linear_5745_13910)"/>
<path d="M248.709 46.8547C247.914 46.8547 247.222 46.5777 246.669 45.9889C246.116 45.4348 245.804 44.7421 245.804 43.9455C245.804 43.149 246.081 42.4564 246.669 41.9022C247.222 41.3481 247.914 41.0364 248.709 41.0364C249.505 41.0364 250.196 41.3134 250.749 41.9022C251.302 42.4564 251.613 43.149 251.613 43.9455C251.613 44.7421 251.337 45.4348 250.749 45.9889C250.196 46.543 249.505 46.8547 248.709 46.8547Z" fill="url(#paint73_linear_5745_13910)"/>
<path d="M248.709 5.81834C247.914 5.81834 247.222 5.541 246.669 4.95256C246.116 4.39788 245.804 3.70526 245.804 2.90992C245.804 2.11312 246.081 1.4205 246.669 0.865815C247.222 0.311132 247.914 3.38759e-05 248.709 3.38062e-05C249.505 3.37366e-05 250.196 0.277381 250.749 0.865815C251.302 1.4205 251.613 2.11312 251.613 2.90992C251.613 3.70526 251.337 4.39788 250.749 4.95256C250.196 5.50725 249.505 5.81834 248.709 5.81834Z" fill="url(#paint74_linear_5745_13910)"/>
<path d="M207.742 169.963C206.946 169.963 206.255 169.686 205.701 169.098C205.149 168.544 204.837 167.851 204.837 167.054C204.837 166.258 205.114 165.565 205.701 165.011C206.255 164.457 206.946 164.145 207.742 164.145C208.537 164.145 209.229 164.422 209.781 165.011C210.335 165.565 210.645 166.258 210.645 167.054C210.645 167.851 210.37 168.544 209.781 169.098C209.229 169.652 208.537 169.963 207.742 169.963Z" fill="url(#paint75_linear_5745_13910)"/>
<path d="M207.742 128.927C206.946 128.927 206.255 128.65 205.701 128.061C205.149 127.507 204.837 126.815 204.837 126.018C204.837 125.222 205.114 124.529 205.701 123.975C206.255 123.421 206.946 123.109 207.742 123.109C208.537 123.109 209.229 123.386 209.781 123.975C210.335 124.529 210.645 125.222 210.645 126.018C210.645 126.815 210.37 127.507 209.781 128.061C209.229 128.616 208.537 128.927 207.742 128.927Z" fill="url(#paint76_linear_5745_13910)"/>
<path d="M207.742 87.8909C206.946 87.8909 206.255 87.6139 205.701 87.0251C205.149 86.471 204.837 85.7783 204.837 84.9818C204.837 84.1852 205.114 83.4926 205.701 82.9384C206.255 82.3843 206.946 82.0726 207.742 82.0726C208.537 82.0726 209.229 82.3496 209.781 82.9384C210.335 83.4926 210.645 84.1852 210.645 84.9818C210.645 85.7783 210.37 86.471 209.781 87.0251C209.229 87.5792 208.537 87.8909 207.742 87.8909Z" fill="url(#paint77_linear_5745_13910)"/>
<path d="M166.775 87.8909C165.979 87.8909 165.288 87.6138 164.734 87.0251C164.182 86.471 163.869 85.7782 163.869 84.9817C163.869 84.1852 164.146 83.4926 164.734 82.9384C165.288 82.3843 165.979 82.0726 166.775 82.0726C167.57 82.0726 168.261 82.3496 168.814 82.9384C169.367 83.4926 169.678 84.1852 169.678 84.9817C169.678 85.7782 169.403 86.471 168.814 87.0251C168.261 87.5792 167.57 87.8909 166.775 87.8909Z" fill="url(#paint78_linear_5745_13910)"/>
<path d="M166.774 46.8546C165.979 46.8546 165.288 46.5776 164.734 45.9888C164.182 45.4347 163.869 44.742 163.869 43.9454C163.869 43.1489 164.146 42.4563 164.734 41.9021C165.288 41.348 165.979 41.0363 166.774 41.0363C167.57 41.0363 168.261 41.3133 168.814 41.9021C169.367 42.4563 169.678 43.1489 169.678 43.9454C169.678 44.742 169.403 45.4347 168.814 45.9888C168.261 46.5429 167.57 46.8546 166.774 46.8546Z" fill="url(#paint79_linear_5745_13910)"/>
<path d="M166.774 5.81831C165.979 5.81831 165.288 5.54097 164.734 4.95253C164.182 4.39785 163.869 3.70523 163.869 2.90989C163.869 2.11309 164.146 1.42047 164.734 0.865785C165.288 0.311102 165.979 3.5411e-06 166.774 3.47144e-06C167.57 3.40178e-06 168.261 0.277351 168.814 0.865785C169.367 1.42047 169.678 2.11308 169.678 2.90989C169.678 3.70523 169.403 4.39785 168.814 4.95253C168.261 5.50722 167.57 5.81831 166.774 5.81831Z" fill="url(#paint80_linear_5745_13910)"/>
<path d="M125.807 87.8909C125.012 87.8909 124.32 87.6138 123.766 87.0251C123.214 86.471 122.902 85.7783 122.902 84.9817C122.902 84.1852 123.179 83.4926 123.766 82.9384C124.32 82.3843 125.012 82.0726 125.807 82.0726C126.603 82.0726 127.294 82.3496 127.846 82.9384C128.4 83.4926 128.711 84.1852 128.711 84.9817C128.711 85.7783 128.435 86.471 127.846 87.0251C127.294 87.5792 126.603 87.8909 125.807 87.8909Z" fill="url(#paint81_linear_5745_13910)"/>
<path d="M125.807 46.8546C125.012 46.8546 124.32 46.5776 123.766 45.9889C123.214 45.4348 122.902 44.742 122.902 43.9455C122.902 43.149 123.179 42.4563 123.766 41.9021C124.32 41.348 125.012 41.0363 125.807 41.0363C126.603 41.0363 127.294 41.3134 127.846 41.9021C128.4 42.4563 128.711 43.149 128.711 43.9455C128.711 44.742 128.435 45.4348 127.846 45.9889C127.294 46.5429 126.603 46.8546 125.807 46.8546Z" fill="url(#paint82_linear_5745_13910)"/>
<path d="M84.8398 128.927C84.0443 128.927 83.3528 128.65 82.7991 128.061C82.2468 127.507 81.9348 126.815 81.9348 126.018C81.9348 125.222 82.2116 124.529 82.7991 123.975C83.3528 123.421 84.0443 123.109 84.8398 123.109C85.6352 123.109 86.3267 123.386 86.879 123.975C87.4327 124.529 87.7433 125.222 87.7433 126.018C87.7433 126.815 87.4679 127.507 86.879 128.061C86.3267 128.616 85.6352 128.927 84.8398 128.927Z" fill="url(#paint83_linear_5745_13910)"/>
<path d="M84.8397 87.8909C84.0443 87.8909 83.3528 87.6139 82.7991 87.0252C82.2468 86.4711 81.9347 85.7783 81.9347 84.9818C81.9347 84.1853 82.2116 83.4927 82.7991 82.9384C83.3528 82.3843 84.0443 82.0727 84.8397 82.0727C85.6352 82.0727 86.3267 82.3497 86.879 82.9384C87.4327 83.4927 87.7433 84.1853 87.7433 84.9818C87.7433 85.7783 87.4679 86.4711 86.879 87.0252C86.3267 87.5793 85.6352 87.8909 84.8397 87.8909Z" fill="url(#paint84_linear_5745_13910)"/>
<path d="M84.8397 46.8547C84.0443 46.8547 83.3528 46.5776 82.799 45.9889C82.2468 45.4348 81.9347 44.742 81.9347 43.9455C81.9347 43.149 82.2116 42.4564 82.799 41.9021C83.3528 41.348 84.0443 41.0364 84.8397 41.0364C85.6352 41.0364 86.3266 41.3134 86.8789 41.9021C87.4327 42.4564 87.7433 43.149 87.7433 43.9455C87.7433 44.742 87.4678 45.4348 86.8789 45.9889C86.3266 46.543 85.6352 46.8547 84.8397 46.8547Z" fill="url(#paint85_linear_5745_13910)"/>
<path d="M84.8397 5.81838C84.0443 5.81838 83.3528 5.54103 82.799 4.9526C82.2468 4.39791 81.9347 3.7053 81.9347 2.90996C81.9347 2.11315 82.2116 1.42053 82.799 0.865848C83.3528 0.311165 84.0443 6.69809e-05 84.8397 6.69112e-05C85.6352 6.68415e-05 86.3266 0.277414 86.8789 0.865848C87.4327 1.42053 87.7432 2.11315 87.7432 2.90996C87.7432 3.70529 87.4678 4.39791 86.8789 4.9526C86.3266 5.50728 85.6352 5.81838 84.8397 5.81838Z" fill="url(#paint86_linear_5745_13910)"/>
<path d="M43.8724 211C43.0769 211 42.3855 210.723 41.8317 210.134C41.2794 209.58 40.9674 208.887 40.9674 208.091C40.9674 207.294 41.2443 206.601 41.8317 206.047C42.3855 205.493 43.0769 205.181 43.8724 205.181C44.6679 205.181 45.3593 205.459 45.9116 206.047C46.4653 206.601 46.7759 207.294 46.7759 208.091C46.7759 208.887 46.5005 209.58 45.9116 210.134C45.3593 210.688 44.6679 211 43.8724 211Z" fill="url(#paint87_linear_5745_13910)"/>
<path d="M43.8725 169.963C43.077 169.963 42.3856 169.686 41.8318 169.098C41.2795 168.544 40.9675 167.851 40.9675 167.054C40.9675 166.258 41.2444 165.565 41.8318 165.011C42.3856 164.457 43.077 164.145 43.8725 164.145C44.668 164.145 45.3594 164.422 45.9117 165.011C46.4655 165.565 46.776 166.258 46.776 167.054C46.776 167.851 46.5006 168.544 45.9117 169.098C45.3594 169.652 44.668 169.963 43.8725 169.963Z" fill="url(#paint88_linear_5745_13910)"/>
<path d="M43.8725 128.927C43.077 128.927 42.3856 128.65 41.8318 128.061C41.2795 127.507 40.9675 126.815 40.9675 126.018C40.9675 125.222 41.2444 124.529 41.8318 123.975C42.3856 123.421 43.077 123.109 43.8725 123.109C44.668 123.109 45.3594 123.386 45.9117 123.975C46.4654 124.529 46.776 125.222 46.776 126.018C46.776 126.815 46.5006 127.507 45.9117 128.061C45.3594 128.616 44.668 128.927 43.8725 128.927Z" fill="url(#paint89_linear_5745_13910)"/>
<path d="M43.8725 87.8909C43.077 87.8909 42.3856 87.6139 41.8318 87.0251C41.2795 86.471 40.9675 85.7783 40.9675 84.9818C40.9675 84.1852 41.2444 83.4926 41.8318 82.9384C42.3856 82.3843 43.077 82.0726 43.8725 82.0726C44.668 82.0726 45.3594 82.3496 45.9117 82.9384C46.4654 83.4926 46.776 84.1852 46.776 84.9818C46.776 85.7783 46.5006 86.471 45.9117 87.0251C45.3594 87.5792 44.668 87.8909 43.8725 87.8909Z" fill="url(#paint90_linear_5745_13910)"/>
<path d="M43.8725 46.8546C43.077 46.8546 42.3855 46.5776 41.8318 45.9888C41.2795 45.4348 40.9675 44.742 40.9675 43.9455C40.9675 43.149 41.2444 42.4563 41.8318 41.9021C42.3855 41.348 43.077 41.0363 43.8725 41.0363C44.6679 41.0363 45.3594 41.3134 45.9117 41.9021C46.4654 42.4563 46.776 43.149 46.776 43.9455C46.776 44.742 46.5006 45.4348 45.9117 45.9888C45.3594 46.5429 44.6679 46.8546 43.8725 46.8546Z" fill="url(#paint91_linear_5745_13910)"/>
<path d="M43.8725 5.81834C43.077 5.81834 42.3855 5.541 41.8318 4.95256C41.2795 4.39788 40.9675 3.70526 40.9675 2.90992C40.9675 2.11311 41.2443 1.4205 41.8318 0.865814C42.3855 0.311131 43.077 3.30585e-05 43.8725 3.29889e-05C44.6679 3.29192e-05 45.3594 0.27738 45.9117 0.865814C46.4654 1.4205 46.776 2.11311 46.776 2.90992C46.776 3.70526 46.5006 4.39788 45.9117 4.95256C45.3594 5.50725 44.6679 5.81834 43.8725 5.81834Z" fill="url(#paint92_linear_5745_13910)"/>
<path d="M0.864332 210.134C1.41808 210.723 2.10955 211 2.90501 211C3.70048 211 4.39193 210.688 4.94422 210.134C5.53313 209.58 5.80853 208.887 5.80853 208.091C5.80853 207.294 5.49797 206.601 4.94422 206.047C4.39193 205.458 3.70048 205.181 2.90501 205.181C2.10954 205.181 1.41808 205.493 0.864331 206.047C0.276887 206.601 1.78379e-05 207.294 1.79074e-05 208.091C1.79769e-05 208.887 0.312046 209.58 0.864332 210.134Z" fill="url(#paint93_linear_5745_13910)"/>
<path d="M0.864328 169.098C1.41808 169.686 2.10954 169.963 2.90501 169.963C3.70048 169.963 4.39193 169.652 4.94421 169.098C5.53312 168.544 5.80853 167.851 5.80853 167.054C5.80853 166.258 5.49796 165.565 4.94421 165.011C4.39193 164.422 3.70047 164.145 2.90501 164.145C2.10954 164.145 1.41808 164.457 0.864328 165.011C0.276884 165.565 1.42564e-05 166.258 1.43259e-05 167.054C1.43954e-05 167.851 0.312043 168.544 0.864328 169.098Z" fill="url(#paint94_linear_5745_13910)"/>
<path d="M2.905 128.927C2.10954 128.927 1.41807 128.65 0.864325 128.061C0.312039 127.507 1.08139e-05 126.815 1.07444e-05 126.018C1.06749e-05 125.222 0.27688 124.529 0.864324 123.975C1.41807 123.421 2.10954 123.109 2.905 123.109C3.70047 123.109 4.39192 123.386 4.94421 123.975C5.49796 124.529 5.80852 125.222 5.80852 126.018C5.80852 126.815 5.53312 127.507 4.94421 128.061C4.39192 128.615 3.70047 128.927 2.905 128.927Z" fill="url(#paint95_linear_5745_13910)"/>
<path d="M0.864321 87.0251C1.41807 87.6138 2.10953 87.8909 2.905 87.8909C3.70047 87.8909 4.39192 87.5792 4.94421 87.0251C5.53312 86.471 5.80852 85.7782 5.80852 84.9817C5.80852 84.1852 5.49796 83.4926 4.94421 82.9384C4.39192 82.3496 3.70047 82.0726 2.905 82.0726C2.10953 82.0726 1.41807 82.3843 0.864321 82.9384C0.276877 83.4926 7.09339e-06 84.1852 7.16291e-06 84.9817C7.23242e-06 85.7782 0.312036 86.471 0.864321 87.0251Z" fill="url(#paint96_linear_5745_13910)"/>
<path d="M2.905 46.8546C2.10953 46.8546 1.41807 46.5775 0.864317 45.9888C0.312032 45.4347 3.65094e-06 44.742 3.58142e-06 43.9454C3.5119e-06 43.1489 0.276873 42.4563 0.864317 41.9021C1.41807 41.348 2.10953 41.0363 2.905 41.0363C3.70046 41.0363 4.39192 41.3133 4.9442 41.9021C5.49795 42.4563 5.80852 43.1489 5.80852 43.9454C5.80852 44.742 5.53311 45.4347 4.9442 45.9888C4.39192 46.5429 3.70046 46.8546 2.905 46.8546Z" fill="url(#paint97_linear_5745_13910)"/>
<path d="M0.864314 4.95254C1.41806 5.54097 2.10953 5.81832 2.90499 5.81832C3.70046 5.81832 4.39191 5.50721 4.9442 4.95254C5.53311 4.39786 5.80851 3.70524 5.80851 2.9099C5.80851 2.1131 5.49795 1.42048 4.9442 0.865783C4.39191 0.277348 3.70046 -6.9659e-08 2.90499 0C2.10953 6.9659e-08 1.41806 0.311107 0.864314 0.865783C0.27687 1.42048 -6.95418e-08 2.1131 0 2.9099C6.94141e-08 3.70524 0.312028 4.39786 0.864314 4.95254Z" fill="url(#paint98_linear_5745_13910)"/>
<defs>
<linearGradient id="paint0_linear_5745_13910" x1="681.5" y1="95" x2="282.779" y2="152.466" gradientUnits="userSpaceOnUse">
<stop stop-color="#FF8BFF"/>
<stop offset="1" stop-color="#FF8BFF" stop-opacity="0"/>
</linearGradient>
<linearGradient id="paint1_linear_5745_13910" x1="681.5" y1="95" x2="282.779" y2="152.466" gradientUnits="userSpaceOnUse">
<stop stop-color="#FF8BFF"/>
<stop offset="1" stop-color="#FF8BFF" stop-opacity="0"/>
</linearGradient>
<linearGradient id="paint2_linear_5745_13910" x1="681.5" y1="95" x2="282.779" y2="152.466" gradientUnits="userSpaceOnUse">
<stop stop-color="#FF8BFF"/>
<stop offset="1" stop-color="#FF8BFF" stop-opacity="0"/>
</linearGradient>
<linearGradient id="paint3_linear_5745_13910" x1="681.5" y1="95" x2="282.779" y2="152.466" gradientUnits="userSpaceOnUse">
<stop stop-color="#FF8BFF"/>
<stop offset="1" stop-color="#FF8BFF" stop-opacity="0"/>
</linearGradient>
<linearGradient id="paint4_linear_5745_13910" x1="681.5" y1="95" x2="282.779" y2="152.466" gradientUnits="userSpaceOnUse">
<stop stop-color="#FF8BFF"/>
<stop offset="1" stop-color="#FF8BFF" stop-opacity="0"/>
</linearGradient>
<linearGradient id="paint5_linear_5745_13910" x1="681.5" y1="95" x2="282.779" y2="152.466" gradientUnits="userSpaceOnUse">
<stop stop-color="#FF8BFF"/>
<stop offset="1" stop-color="#FF8BFF" stop-opacity="0"/>
</linearGradient>
<linearGradient id="paint6_linear_5745_13910" x1="681.5" y1="95" x2="282.779" y2="152.466" gradientUnits="userSpaceOnUse">
<stop stop-color="#FF8BFF"/>
<stop offset="1" stop-color="#FF8BFF" stop-opacity="0"/>
</linearGradient>
<linearGradient id="paint7_linear_5745_13910" x1="681.5" y1="95" x2="282.779" y2="152.466" gradientUnits="userSpaceOnUse">
<stop stop-color="#FF8BFF"/>
<stop offset="1" stop-color="#FF8BFF" stop-opacity="0"/>
</linearGradient>
<linearGradient id="paint8_linear_5745_13910" x1="681.5" y1="95" x2="282.779" y2="152.466" gradientUnits="userSpaceOnUse">
<stop stop-color="#FF8BFF"/>
<stop offset="1" stop-color="#FF8BFF" stop-opacity="0"/>
</linearGradient>
<linearGradient id="paint9_linear_5745_13910" x1="681.5" y1="95" x2="282.779" y2="152.466" gradientUnits="userSpaceOnUse">
<stop stop-color="#FF8BFF"/>
<stop offset="1" stop-color="#FF8BFF" stop-opacity="0"/>
</linearGradient>
<linearGradient id="paint10_linear_5745_13910" x1="681.5" y1="95" x2="282.779" y2="152.466" gradientUnits="userSpaceOnUse">
<stop stop-color="#FF8BFF"/>
<stop offset="1" stop-color="#FF8BFF" stop-opacity="0"/>
</linearGradient>
<linearGradient id="paint11_linear_5745_13910" x1="681.5" y1="95" x2="282.779" y2="152.466" gradientUnits="userSpaceOnUse">
<stop stop-color="#FF8BFF"/>
<stop offset="1" stop-color="#FF8BFF" stop-opacity="0"/>
</linearGradient>
<linearGradient id="paint12_linear_5745_13910" x1="681.5" y1="95" x2="282.779" y2="152.466" gradientUnits="userSpaceOnUse">
<stop stop-color="#FF8BFF"/>
<stop offset="1" stop-color="#FF8BFF" stop-opacity="0"/>
</linearGradient>
<linearGradient id="paint13_linear_5745_13910" x1="681.5" y1="95" x2="282.779" y2="152.466" gradientUnits="userSpaceOnUse">
<stop stop-color="#FF8BFF"/>
<stop offset="1" stop-color="#FF8BFF" stop-opacity="0"/>
</linearGradient>
<linearGradient id="paint14_linear_5745_13910" x1="681.5" y1="95" x2="282.779" y2="152.466" gradientUnits="userSpaceOnUse">
<stop stop-color="#FF8BFF"/>
<stop offset="1" stop-color="#FF8BFF" stop-opacity="0"/>
</linearGradient>
<linearGradient id="paint15_linear_5745_13910" x1="681.5" y1="95" x2="282.779" y2="152.466" gradientUnits="userSpaceOnUse">
<stop stop-color="#FF8BFF"/>
<stop offset="1" stop-color="#FF8BFF" stop-opacity="0"/>
</linearGradient>
<linearGradient id="paint16_linear_5745_13910" x1="681.5" y1="95" x2="282.779" y2="152.466" gradientUnits="userSpaceOnUse">
<stop stop-color="#FF8BFF"/>
<stop offset="1" stop-color="#FF8BFF" stop-opacity="0"/>
</linearGradient>
<linearGradient id="paint17_linear_5745_13910" x1="681.5" y1="95" x2="282.779" y2="152.466" gradientUnits="userSpaceOnUse">
<stop stop-color="#FF8BFF"/>
<stop offset="1" stop-color="#FF8BFF" stop-opacity="0"/>
</linearGradient>
<linearGradient id="paint18_linear_5745_13910" x1="681.5" y1="95" x2="282.779" y2="152.466" gradientUnits="userSpaceOnUse">
<stop stop-color="#FF8BFF"/>
<stop offset="1" stop-color="#FF8BFF" stop-opacity="0"/>
</linearGradient>
<linearGradient id="paint19_linear_5745_13910" x1="681.5" y1="95" x2="282.779" y2="152.466" gradientUnits="userSpaceOnUse">
<stop stop-color="#FF8BFF"/>
<stop offset="1" stop-color="#FF8BFF" stop-opacity="0"/>
</linearGradient>
<linearGradient id="paint20_linear_5745_13910" x1="681.5" y1="95" x2="282.779" y2="152.466" gradientUnits="userSpaceOnUse">
<stop stop-color="#FF8BFF"/>
<stop offset="1" stop-color="#FF8BFF" stop-opacity="0"/>
</linearGradient>
<linearGradient id="paint21_linear_5745_13910" x1="681.5" y1="95" x2="282.779" y2="152.466" gradientUnits="userSpaceOnUse">
<stop stop-color="#FF8BFF"/>
<stop offset="1" stop-color="#FF8BFF" stop-opacity="0"/>
</linearGradient>
<linearGradient id="paint22_linear_5745_13910" x1="681.5" y1="95" x2="282.779" y2="152.466" gradientUnits="userSpaceOnUse">
<stop stop-color="#FF8BFF"/>
<stop offset="1" stop-color="#FF8BFF" stop-opacity="0"/>
</linearGradient>
<linearGradient id="paint23_linear_5745_13910" x1="681.5" y1="95" x2="282.779" y2="152.466" gradientUnits="userSpaceOnUse">
<stop stop-color="#FF8BFF"/>
<stop offset="1" stop-color="#FF8BFF" stop-opacity="0"/>
</linearGradient>
<linearGradient id="paint24_linear_5745_13910" x1="681.5" y1="95" x2="282.779" y2="152.466" gradientUnits="userSpaceOnUse">
<stop stop-color="#FF8BFF"/>
<stop offset="1" stop-color="#FF8BFF" stop-opacity="0"/>
</linearGradient>
<linearGradient id="paint25_linear_5745_13910" x1="681.5" y1="95" x2="282.779" y2="152.466" gradientUnits="userSpaceOnUse">
<stop stop-color="#FF8BFF"/>
<stop offset="1" stop-color="#FF8BFF" stop-opacity="0"/>
</linearGradient>
<linearGradient id="paint26_linear_5745_13910" x1="681.5" y1="95" x2="282.779" y2="152.466" gradientUnits="userSpaceOnUse">
<stop stop-color="#FF8BFF"/>
<stop offset="1" stop-color="#FF8BFF" stop-opacity="0"/>
</linearGradient>
<linearGradient id="paint27_linear_5745_13910" x1="681.5" y1="95" x2="282.779" y2="152.466" gradientUnits="userSpaceOnUse">
<stop stop-color="#FF8BFF"/>
<stop offset="1" stop-color="#FF8BFF" stop-opacity="0"/>
</linearGradient>
<linearGradient id="paint28_linear_5745_13910" x1="681.5" y1="95" x2="282.779" y2="152.466" gradientUnits="userSpaceOnUse">
<stop stop-color="#FF8BFF"/>
<stop offset="1" stop-color="#FF8BFF" stop-opacity="0"/>
</linearGradient>
<linearGradient id="paint29_linear_5745_13910" x1="681.5" y1="95" x2="282.779" y2="152.466" gradientUnits="userSpaceOnUse">
<stop stop-color="#FF8BFF"/>
<stop offset="1" stop-color="#FF8BFF" stop-opacity="0"/>
</linearGradient>
<linearGradient id="paint30_linear_5745_13910" x1="681.5" y1="95" x2="282.779" y2="152.466" gradientUnits="userSpaceOnUse">
<stop stop-color="#FF8BFF"/>
<stop offset="1" stop-color="#FF8BFF" stop-opacity="0"/>
</linearGradient>
<linearGradient id="paint31_linear_5745_13910" x1="681.5" y1="95" x2="282.779" y2="152.466" gradientUnits="userSpaceOnUse">
<stop stop-color="#FF8BFF"/>
<stop offset="1" stop-color="#FF8BFF" stop-opacity="0"/>
</linearGradient>
<linearGradient id="paint32_linear_5745_13910" x1="681.5" y1="95" x2="282.779" y2="152.466" gradientUnits="userSpaceOnUse">
<stop stop-color="#FF8BFF"/>
<stop offset="1" stop-color="#FF8BFF" stop-opacity="0"/>
</linearGradient>
<linearGradient id="paint33_linear_5745_13910" x1="681.5" y1="95" x2="282.779" y2="152.466" gradientUnits="userSpaceOnUse">
<stop stop-color="#FF8BFF"/>
<stop offset="1" stop-color="#FF8BFF" stop-opacity="0"/>
</linearGradient>
<linearGradient id="paint34_linear_5745_13910" x1="681.5" y1="95" x2="282.779" y2="152.466" gradientUnits="userSpaceOnUse">
<stop stop-color="#FF8BFF"/>
<stop offset="1" stop-color="#FF8BFF" stop-opacity="0"/>
</linearGradient>
<linearGradient id="paint35_linear_5745_13910" x1="681.5" y1="95" x2="282.779" y2="152.466" gradientUnits="userSpaceOnUse">
<stop stop-color="#FF8BFF"/>
<stop offset="1" stop-color="#FF8BFF" stop-opacity="0"/>
</linearGradient>
<linearGradient id="paint36_linear_5745_13910" x1="681.5" y1="95" x2="282.779" y2="152.466" gradientUnits="userSpaceOnUse">
<stop stop-color="#FF8BFF"/>
<stop offset="1" stop-color="#FF8BFF" stop-opacity="0"/>
</linearGradient>
<linearGradient id="paint37_linear_5745_13910" x1="681.5" y1="95" x2="282.779" y2="152.466" gradientUnits="userSpaceOnUse">
<stop stop-color="#FF8BFF"/>
<stop offset="1" stop-color="#FF8BFF" stop-opacity="0"/>
</linearGradient>
<linearGradient id="paint38_linear_5745_13910" x1="681.5" y1="95" x2="282.779" y2="152.466" gradientUnits="userSpaceOnUse">
<stop stop-color="#FF8BFF"/>
<stop offset="1" stop-color="#FF8BFF" stop-opacity="0"/>
</linearGradient>
<linearGradient id="paint39_linear_5745_13910" x1="681.5" y1="95" x2="282.779" y2="152.466" gradientUnits="userSpaceOnUse">
<stop stop-color="#FF8BFF"/>
<stop offset="1" stop-color="#FF8BFF" stop-opacity="0"/>
</linearGradient>
<linearGradient id="paint40_linear_5745_13910" x1="681.5" y1="95" x2="282.779" y2="152.466" gradientUnits="userSpaceOnUse">
<stop stop-color="#FF8BFF"/>
<stop offset="1" stop-color="#FF8BFF" stop-opacity="0"/>
</linearGradient>
<linearGradient id="paint41_linear_5745_13910" x1="681.5" y1="95" x2="282.779" y2="152.466" gradientUnits="userSpaceOnUse">
<stop stop-color="#FF8BFF"/>
<stop offset="1" stop-color="#FF8BFF" stop-opacity="0"/>
</linearGradient>
<linearGradient id="paint42_linear_5745_13910" x1="681.5" y1="95" x2="282.779" y2="152.466" gradientUnits="userSpaceOnUse">
<stop stop-color="#FF8BFF"/>
<stop offset="1" stop-color="#FF8BFF" stop-opacity="0"/>
</linearGradient>
<linearGradient id="paint43_linear_5745_13910" x1="681.5" y1="95" x2="282.779" y2="152.466" gradientUnits="userSpaceOnUse">
<stop stop-color="#FF8BFF"/>
<stop offset="1" stop-color="#FF8BFF" stop-opacity="0"/>
</linearGradient>
<linearGradient id="paint44_linear_5745_13910" x1="681.5" y1="95" x2="282.779" y2="152.466" gradientUnits="userSpaceOnUse">
<stop stop-color="#FF8BFF"/>
<stop offset="1" stop-color="#FF8BFF" stop-opacity="0"/>
</linearGradient>
<linearGradient id="paint45_linear_5745_13910" x1="681.5" y1="95" x2="282.779" y2="152.466" gradientUnits="userSpaceOnUse">
<stop stop-color="#FF8BFF"/>
<stop offset="1" stop-color="#FF8BFF" stop-opacity="0"/>
</linearGradient>
<linearGradient id="paint46_linear_5745_13910" x1="681.5" y1="95" x2="282.779" y2="152.466" gradientUnits="userSpaceOnUse">
<stop stop-color="#FF8BFF"/>
<stop offset="1" stop-color="#FF8BFF" stop-opacity="0"/>
</linearGradient>
<linearGradient id="paint47_linear_5745_13910" x1="681.5" y1="95" x2="282.779" y2="152.466" gradientUnits="userSpaceOnUse">
<stop stop-color="#FF8BFF"/>
<stop offset="1" stop-color="#FF8BFF" stop-opacity="0"/>
</linearGradient>
<linearGradient id="paint48_linear_5745_13910" x1="681.5" y1="95" x2="282.779" y2="152.466" gradientUnits="userSpaceOnUse">
<stop stop-color="#FF8BFF"/>
<stop offset="1" stop-color="#FF8BFF" stop-opacity="0"/>
</linearGradient>
<linearGradient id="paint49_linear_5745_13910" x1="681.5" y1="95" x2="282.779" y2="152.466" gradientUnits="userSpaceOnUse">
<stop stop-color="#FF8BFF"/>
<stop offset="1" stop-color="#FF8BFF" stop-opacity="0"/>
</linearGradient>
<linearGradient id="paint50_linear_5745_13910" x1="681.5" y1="95" x2="282.779" y2="152.466" gradientUnits="userSpaceOnUse">
<stop stop-color="#FF8BFF"/>
<stop offset="1" stop-color="#FF8BFF" stop-opacity="0"/>
</linearGradient>
<linearGradient id="paint51_linear_5745_13910" x1="681.5" y1="95" x2="282.779" y2="152.466" gradientUnits="userSpaceOnUse">
<stop stop-color="#FF8BFF"/>
<stop offset="1" stop-color="#FF8BFF" stop-opacity="0"/>
</linearGradient>
<linearGradient id="paint52_linear_5745_13910" x1="681.5" y1="95" x2="282.779" y2="152.466" gradientUnits="userSpaceOnUse">
<stop stop-color="#FF8BFF"/>
<stop offset="1" stop-color="#FF8BFF" stop-opacity="0"/>
</linearGradient>
<linearGradient id="paint53_linear_5745_13910" x1="681.5" y1="95" x2="282.779" y2="152.466" gradientUnits="userSpaceOnUse">
<stop stop-color="#FF8BFF"/>
<stop offset="1" stop-color="#FF8BFF" stop-opacity="0"/>
</linearGradient>
<linearGradient id="paint54_linear_5745_13910" x1="681.5" y1="95" x2="282.779" y2="152.466" gradientUnits="userSpaceOnUse">
<stop stop-color="#FF8BFF"/>
<stop offset="1" stop-color="#FF8BFF" stop-opacity="0"/>
</linearGradient>
<linearGradient id="paint55_linear_5745_13910" x1="681.5" y1="95" x2="282.779" y2="152.466" gradientUnits="userSpaceOnUse">
<stop stop-color="#FF8BFF"/>
<stop offset="1" stop-color="#FF8BFF" stop-opacity="0"/>
</linearGradient>
<linearGradient id="paint56_linear_5745_13910" x1="681.5" y1="95" x2="282.779" y2="152.466" gradientUnits="userSpaceOnUse">
<stop stop-color="#FF8BFF"/>
<stop offset="1" stop-color="#FF8BFF" stop-opacity="0"/>
</linearGradient>
<linearGradient id="paint57_linear_5745_13910" x1="681.5" y1="95" x2="282.779" y2="152.466" gradientUnits="userSpaceOnUse">
<stop stop-color="#FF8BFF"/>
<stop offset="1" stop-color="#FF8BFF" stop-opacity="0"/>
</linearGradient>
<linearGradient id="paint58_linear_5745_13910" x1="681.5" y1="95" x2="282.779" y2="152.466" gradientUnits="userSpaceOnUse">
<stop stop-color="#FF8BFF"/>
<stop offset="1" stop-color="#FF8BFF" stop-opacity="0"/>
</linearGradient>
<linearGradient id="paint59_linear_5745_13910" x1="681.5" y1="95" x2="282.779" y2="152.466" gradientUnits="userSpaceOnUse">
<stop stop-color="#FF8BFF"/>
<stop offset="1" stop-color="#FF8BFF" stop-opacity="0"/>
</linearGradient>
<linearGradient id="paint60_linear_5745_13910" x1="681.5" y1="95" x2="282.779" y2="152.466" gradientUnits="userSpaceOnUse">
<stop stop-color="#FF8BFF"/>
<stop offset="1" stop-color="#FF8BFF" stop-opacity="0"/>
</linearGradient>
<linearGradient id="paint61_linear_5745_13910" x1="681.5" y1="95" x2="282.779" y2="152.466" gradientUnits="userSpaceOnUse">
<stop stop-color="#FF8BFF"/>
<stop offset="1" stop-color="#FF8BFF" stop-opacity="0"/>
</linearGradient>
<linearGradient id="paint62_linear_5745_13910" x1="681.5" y1="95" x2="282.779" y2="152.466" gradientUnits="userSpaceOnUse">
<stop stop-color="#FF8BFF"/>
<stop offset="1" stop-color="#FF8BFF" stop-opacity="0"/>
</linearGradient>
<linearGradient id="paint63_linear_5745_13910" x1="681.5" y1="95" x2="282.779" y2="152.466" gradientUnits="userSpaceOnUse">
<stop stop-color="#FF8BFF"/>
<stop offset="1" stop-color="#FF8BFF" stop-opacity="0"/>
</linearGradient>
<linearGradient id="paint64_linear_5745_13910" x1="681.5" y1="95" x2="282.779" y2="152.466" gradientUnits="userSpaceOnUse">
<stop stop-color="#FF8BFF"/>
<stop offset="1" stop-color="#FF8BFF" stop-opacity="0"/>
</linearGradient>
<linearGradient id="paint65_linear_5745_13910" x1="681.5" y1="95" x2="282.779" y2="152.466" gradientUnits="userSpaceOnUse">
<stop stop-color="#FF8BFF"/>
<stop offset="1" stop-color="#FF8BFF" stop-opacity="0"/>
</linearGradient>
<linearGradient id="paint66_linear_5745_13910" x1="681.5" y1="95" x2="282.779" y2="152.466" gradientUnits="userSpaceOnUse">
<stop stop-color="#FF8BFF"/>
<stop offset="1" stop-color="#FF8BFF" stop-opacity="0"/>
</linearGradient>
<linearGradient id="paint67_linear_5745_13910" x1="681.5" y1="95" x2="282.779" y2="152.466" gradientUnits="userSpaceOnUse">
<stop stop-color="#FF8BFF"/>
<stop offset="1" stop-color="#FF8BFF" stop-opacity="0"/>
</linearGradient>
<linearGradient id="paint68_linear_5745_13910" x1="681.5" y1="95" x2="282.779" y2="152.466" gradientUnits="userSpaceOnUse">
<stop stop-color="#FF8BFF"/>
<stop offset="1" stop-color="#FF8BFF" stop-opacity="0"/>
</linearGradient>
<linearGradient id="paint69_linear_5745_13910" x1="681.5" y1="95" x2="282.779" y2="152.466" gradientUnits="userSpaceOnUse">
<stop stop-color="#FF8BFF"/>
<stop offset="1" stop-color="#FF8BFF" stop-opacity="0"/>
</linearGradient>
<linearGradient id="paint70_linear_5745_13910" x1="681.5" y1="95" x2="282.779" y2="152.466" gradientUnits="userSpaceOnUse">
<stop stop-color="#FF8BFF"/>
<stop offset="1" stop-color="#FF8BFF" stop-opacity="0"/>
</linearGradient>
<linearGradient id="paint71_linear_5745_13910" x1="681.5" y1="95" x2="282.779" y2="152.466" gradientUnits="userSpaceOnUse">
<stop stop-color="#FF8BFF"/>
<stop offset="1" stop-color="#FF8BFF" stop-opacity="0"/>
</linearGradient>
<linearGradient id="paint72_linear_5745_13910" x1="681.5" y1="95" x2="282.779" y2="152.466" gradientUnits="userSpaceOnUse">
<stop stop-color="#FF8BFF"/>
<stop offset="1" stop-color="#FF8BFF" stop-opacity="0"/>
</linearGradient>
<linearGradient id="paint73_linear_5745_13910" x1="681.5" y1="95" x2="282.779" y2="152.466" gradientUnits="userSpaceOnUse">
<stop stop-color="#FF8BFF"/>
<stop offset="1" stop-color="#FF8BFF" stop-opacity="0"/>
</linearGradient>
<linearGradient id="paint74_linear_5745_13910" x1="681.5" y1="95" x2="282.779" y2="152.466" gradientUnits="userSpaceOnUse">
<stop stop-color="#FF8BFF"/>
<stop offset="1" stop-color="#FF8BFF" stop-opacity="0"/>
</linearGradient>
<linearGradient id="paint75_linear_5745_13910" x1="681.5" y1="95" x2="282.779" y2="152.466" gradientUnits="userSpaceOnUse">
<stop stop-color="#FF8BFF"/>
<stop offset="1" stop-color="#FF8BFF" stop-opacity="0"/>
</linearGradient>
<linearGradient id="paint76_linear_5745_13910" x1="681.5" y1="95" x2="282.779" y2="152.466" gradientUnits="userSpaceOnUse">
<stop stop-color="#FF8BFF"/>
<stop offset="1" stop-color="#FF8BFF" stop-opacity="0"/>
</linearGradient>
<linearGradient id="paint77_linear_5745_13910" x1="681.5" y1="95" x2="282.779" y2="152.466" gradientUnits="userSpaceOnUse">
<stop stop-color="#FF8BFF"/>
<stop offset="1" stop-color="#FF8BFF" stop-opacity="0"/>
</linearGradient>
<linearGradient id="paint78_linear_5745_13910" x1="681.5" y1="95" x2="282.779" y2="152.466" gradientUnits="userSpaceOnUse">
<stop stop-color="#FF8BFF"/>
<stop offset="1" stop-color="#FF8BFF" stop-opacity="0"/>
</linearGradient>
<linearGradient id="paint79_linear_5745_13910" x1="681.5" y1="95" x2="282.779" y2="152.466" gradientUnits="userSpaceOnUse">
<stop stop-color="#FF8BFF"/>
<stop offset="1" stop-color="#FF8BFF" stop-opacity="0"/>
</linearGradient>
<linearGradient id="paint80_linear_5745_13910" x1="681.5" y1="95" x2="282.779" y2="152.466" gradientUnits="userSpaceOnUse">
<stop stop-color="#FF8BFF"/>
<stop offset="1" stop-color="#FF8BFF" stop-opacity="0"/>
</linearGradient>
<linearGradient id="paint81_linear_5745_13910" x1="681.5" y1="95" x2="282.779" y2="152.466" gradientUnits="userSpaceOnUse">
<stop stop-color="#FF8BFF"/>
<stop offset="1" stop-color="#FF8BFF" stop-opacity="0"/>
</linearGradient>
<linearGradient id="paint82_linear_5745_13910" x1="681.5" y1="95" x2="282.779" y2="152.466" gradientUnits="userSpaceOnUse">
<stop stop-color="#FF8BFF"/>
<stop offset="1" stop-color="#FF8BFF" stop-opacity="0"/>
</linearGradient>
<linearGradient id="paint83_linear_5745_13910" x1="681.5" y1="95" x2="282.779" y2="152.466" gradientUnits="userSpaceOnUse">
<stop stop-color="#FF8BFF"/>
<stop offset="1" stop-color="#FF8BFF" stop-opacity="0"/>
</linearGradient>
<linearGradient id="paint84_linear_5745_13910" x1="681.5" y1="95" x2="282.779" y2="152.466" gradientUnits="userSpaceOnUse">
<stop stop-color="#FF8BFF"/>
<stop offset="1" stop-color="#FF8BFF" stop-opacity="0"/>
</linearGradient>
<linearGradient id="paint85_linear_5745_13910" x1="681.5" y1="95" x2="282.779" y2="152.466" gradientUnits="userSpaceOnUse">
<stop stop-color="#FF8BFF"/>
<stop offset="1" stop-color="#FF8BFF" stop-opacity="0"/>
</linearGradient>
<linearGradient id="paint86_linear_5745_13910" x1="681.5" y1="95" x2="282.779" y2="152.466" gradientUnits="userSpaceOnUse">
<stop stop-color="#FF8BFF"/>
<stop offset="1" stop-color="#FF8BFF" stop-opacity="0"/>
</linearGradient>
<linearGradient id="paint87_linear_5745_13910" x1="681.5" y1="95" x2="282.779" y2="152.466" gradientUnits="userSpaceOnUse">
<stop stop-color="#FF8BFF"/>
<stop offset="1" stop-color="#FF8BFF" stop-opacity="0"/>
</linearGradient>
<linearGradient id="paint88_linear_5745_13910" x1="681.5" y1="95" x2="282.779" y2="152.466" gradientUnits="userSpaceOnUse">
<stop stop-color="#FF8BFF"/>
<stop offset="1" stop-color="#FF8BFF" stop-opacity="0"/>
</linearGradient>
<linearGradient id="paint89_linear_5745_13910" x1="681.5" y1="95" x2="282.779" y2="152.466" gradientUnits="userSpaceOnUse">
<stop stop-color="#FF8BFF"/>
<stop offset="1" stop-color="#FF8BFF" stop-opacity="0"/>
</linearGradient>
<linearGradient id="paint90_linear_5745_13910" x1="681.5" y1="95" x2="282.779" y2="152.466" gradientUnits="userSpaceOnUse">
<stop stop-color="#FF8BFF"/>
<stop offset="1" stop-color="#FF8BFF" stop-opacity="0"/>
</linearGradient>
<linearGradient id="paint91_linear_5745_13910" x1="681.5" y1="95" x2="282.779" y2="152.466" gradientUnits="userSpaceOnUse">
<stop stop-color="#FF8BFF"/>
<stop offset="1" stop-color="#FF8BFF" stop-opacity="0"/>
</linearGradient>
<linearGradient id="paint92_linear_5745_13910" x1="681.5" y1="95" x2="282.779" y2="152.466" gradientUnits="userSpaceOnUse">
<stop stop-color="#FF8BFF"/>
<stop offset="1" stop-color="#FF8BFF" stop-opacity="0"/>
</linearGradient>
<linearGradient id="paint93_linear_5745_13910" x1="681.5" y1="95" x2="282.779" y2="152.466" gradientUnits="userSpaceOnUse">
<stop stop-color="#FF8BFF"/>
<stop offset="1" stop-color="#FF8BFF" stop-opacity="0"/>
</linearGradient>
<linearGradient id="paint94_linear_5745_13910" x1="681.5" y1="95" x2="282.779" y2="152.466" gradientUnits="userSpaceOnUse">
<stop stop-color="#FF8BFF"/>
<stop offset="1" stop-color="#FF8BFF" stop-opacity="0"/>
</linearGradient>
<linearGradient id="paint95_linear_5745_13910" x1="681.5" y1="95" x2="282.779" y2="152.466" gradientUnits="userSpaceOnUse">
<stop stop-color="#FF8BFF"/>
<stop offset="1" stop-color="#FF8BFF" stop-opacity="0"/>
</linearGradient>
<linearGradient id="paint96_linear_5745_13910" x1="681.5" y1="95" x2="282.779" y2="152.466" gradientUnits="userSpaceOnUse">
<stop stop-color="#FF8BFF"/>
<stop offset="1" stop-color="#FF8BFF" stop-opacity="0"/>
</linearGradient>
<linearGradient id="paint97_linear_5745_13910" x1="681.5" y1="95" x2="282.779" y2="152.466" gradientUnits="userSpaceOnUse">
<stop stop-color="#FF8BFF"/>
<stop offset="1" stop-color="#FF8BFF" stop-opacity="0"/>
</linearGradient>
<linearGradient id="paint98_linear_5745_13910" x1="681.5" y1="95" x2="282.779" y2="152.466" gradientUnits="userSpaceOnUse">
<stop stop-color="#FF8BFF"/>
<stop offset="1" stop-color="#FF8BFF" stop-opacity="0"/>
</linearGradient>
</defs>
</svg>
