<svg width="48" height="48" viewBox="0 0 48 48" fill="none" xmlns="http://www.w3.org/2000/svg">
<path d="M21.84 13.198V23.278H20.16V24.958H16.8V26.638H15.12V29.998H6.72V24.958H8.4V23.278H10.08V21.598H13.44V19.918H15.12V16.558H13.44V14.878H10.08V16.558H8.4V18.238H6.72V19.918H5.04V18.238H3.36V16.558H1.68V14.878H0V13.198H1.68V11.518H3.36V9.83801H6.72V8.15801H16.8V9.83801H18.48V11.518H20.16V13.198H21.84Z" fill="white"/>
<path d="M13.44 35.038H15.12V40.078H13.44V41.758H8.4V40.078H6.72V35.038H8.4V33.358H13.44V35.038Z" fill="white"/>
</svg>
