<svg xmlns="http://www.w3.org/2000/svg" viewBox="0 0 24 25" fill="none">
  <path d="M8 20.2858H9V21.2858H8V22.2858H7V23.2858H1V17.2858H2V16.2858H3V15.2858H4V16.2858H5V17.2858H6V18.2858H7V19.2858H8V20.2858Z" fill="white"/>
  <path d="M17 10.2858H18V12.2858H17V13.2858H16V14.2858H15V15.2858H14V16.2858H13V17.2858H12V18.2858H11V19.2858H10V18.2858H9V17.2858H8V16.2858H7V15.2858H6V14.2858H5V13.2858H6V12.2858H7V11.2858H8V10.2858H9V9.28577H10V8.28577H11V7.28577H12V6.28577H14V7.28577H15V8.28577H16V9.28577H17V10.2858Z" fill="white"/>
  <path d="M23 4.28577V7.28577H22V8.28577H21V9.28577H19V8.28577H18V7.28577H17V6.28577H16V5.28577H15V3.28577H16V2.28577H17V1.28577H20V2.28577H21V3.28577H22V4.28577H23Z" fill="white"/>
</svg>
