<svg viewBox="0 0 36 34" fill="none" xmlns="http://www.w3.org/2000/svg">
  <g filter="url(#filter0_d_3334_24574)">
    <path d="M19.0186 27.229H16.9824V25.1665H19.0186V27.229ZM23.0908 8.6626H23.0918V6.6001H25.1279V8.31885H25.1289V8.6626H27.165V10.7251H29.2002V12.7876H29.2012V16.9126H27.1641V18.9761H25.1289V21.0396H23.0918V23.1021H21.0566V25.1646H19.0195V10.7251H19.0186V25.1646H14.9473V8.6626H16.9834V10.7251H19.0176V8.6626H21.0537V10.7251H21.0547V6.6001H23.0908V8.6626ZM14.9463 23.104H12.9102V6.6001H14.9463V23.104ZM12.9092 21.0396H10.873V18.9761H8.83789V8.6626H10.873V6.6001H12.9092V21.0396ZM8.83691 16.9126H6.80078V10.7251H8.83691V16.9126Z" fill="white"/>
  </g>
  <defs>
    <filter id="filter0_d_3334_24574" x="-4" y="-5" width="44" height="44" filterUnits="userSpaceOnUse" color-interpolation-filters="sRGB">
      <feFlood flood-opacity="0" result="BackgroundImageFix"/>
      <feColorMatrix in="SourceAlpha" type="matrix" values="0 0 0 0 0 0 0 0 0 0 0 0 0 0 0 0 0 0 127 0" result="hardAlpha"/>
      <feOffset/>
      <feGaussianBlur stdDeviation="3"/>
      <feComposite in2="hardAlpha" operator="out"/>
      <feColorMatrix type="matrix" values="0 0 0 0 0.760784 0 0 0 0 0.760784 0 0 0 0 1 0 0 0 0.65 0"/>
      <feBlend mode="normal" in2="BackgroundImageFix" result="effect1_dropShadow_3334_24574"/>
      <feBlend mode="normal" in="SourceGraphic" in2="effect1_dropShadow_3334_24574" result="shape"/>
    </filter>
  </defs>
</svg>
