<svg viewBox="0 0 24 22" fill="none" xmlns="http://www.w3.org/2000/svg">
  <path d="M13.0186 21.5147H10.9824V19.4512H13.0186V21.5147ZM8.94629 2.94827H10.9814V19.4502H8.94531V17.3897H6.91016V0.885773H8.94629V2.94827ZM17.0908 2.94827H17.0918V0.885773H19.1279V2.60452H19.1289V2.94827H21.165V5.01077H23.2002V7.07327H23.2012V11.1983H21.1641V13.2617H19.1289V15.3252H17.0918V17.3877H15.0547V19.4502H10.9824V5.01077H13.0176V2.94827H15.0537V5.01077H15.0547V0.885773H17.0908V2.94827ZM6.90918 15.3252H4.87305V0.885773H6.90918V15.3252ZM4.87207 13.2617H2.83594V11.1983H0.800781V5.01077H2.83594V2.94827H4.87207V13.2617Z" fill="white"/>
</svg>
