<svg viewBox="0 0 36 36" fill="none" xmlns="http://www.w3.org/2000/svg">
  <g filter="url(#filter0_d_3334_24579)">
    <path d="M14 26H15V27H14V28H13V29H7V23H8V22H9V21H10V22H11V23H12V24H13V25H14V26Z" fill="white"/>
    <path d="M23 16H24V18H23V19H22V20H21V21H20V22H19V23H18V24H17V25H16V24H15V23H14V22H13V21H12V20H11V19H12V18H13V17H14V16H15V15H16V14H17V13H18V12H20V13H21V14H22V15H23V16Z" fill="white"/>
    <path d="M29 10V13H28V14H27V15H25V14H24V13H23V12H22V11H21V9H22V8H23V7H26V8H27V9H28V10H29Z" fill="white"/>
  </g>
  <defs>
    <filter id="filter0_d_3334_24579" x="-4" y="-4" width="44" height="44" filterUnits="userSpaceOnUse" color-interpolation-filters="sRGB">
      <feFlood flood-opacity="0" result="BackgroundImageFix"/>
      <feColorMatrix in="SourceAlpha" type="matrix" values="0 0 0 0 0 0 0 0 0 0 0 0 0 0 0 0 0 0 127 0" result="hardAlpha"/>
      <feOffset/>
      <feGaussianBlur stdDeviation="3"/>
      <feComposite in2="hardAlpha" operator="out"/>
      <feColorMatrix type="matrix" values="0 0 0 0 0.760784 0 0 0 0 0.760784 0 0 0 0 1 0 0 0 0.65 0"/>
      <feBlend mode="normal" in2="BackgroundImageFix" result="effect1_dropShadow_3334_24579"/>
      <feBlend mode="normal" in="SourceGraphic" in2="effect1_dropShadow_3334_24579" result="shape"/>
    </filter>
  </defs>
</svg>
