<svg xmlns="http://www.w3.org/2000/svg" width="144" height="131" viewBox="0 0 144 131" fill="none">
  <path d="M39.2744 130.906H26.1836L26.1836 104.725H39.2744L39.2744 130.906ZM117.817 130.906H104.727V104.725H117.817V130.906ZM26.1816 117.815H13.0908L13.0908 91.6338H26.1816L26.1816 117.815ZM130.909 117.815H117.818V91.6338H130.909V117.815ZM65.4541 91.6338H52.3652V104.725L39.2744 104.725V91.6338L52.3633 91.6338V78.543H65.4541V91.6338ZM104.727 104.725H91.6357V91.6338H104.727V104.725ZM91.6348 91.6338H78.5439V78.543H91.6348V91.6338ZM13.0908 91.6318H0L0 52.3594H13.0908L13.0908 91.6318ZM130.909 52.3594H144L144 91.6318L130.909 91.6318L130.909 52.3652H117.818L117.818 39.2744H130.909V52.3594ZM65.4541 65.4502H52.3652L52.3652 78.541L39.2744 78.541L39.2744 65.4502L52.3633 65.4502V52.3594H65.4541V65.4502ZM104.727 78.541H91.6357V65.4502H104.727V78.541ZM78.5459 52.3594H91.6348V65.4502H78.5439V52.3652L65.4551 52.3652L65.4551 39.2744L78.5459 39.2744L78.5459 52.3594ZM26.1836 52.3652L13.0928 52.3652L13.0928 39.2744L26.1836 39.2744V52.3652ZM39.2734 26.1816L26.1836 26.1816L26.1836 39.2725L13.0928 39.2725L13.0928 26.1816H26.1826V13.0908L39.2734 13.0908L39.2734 26.1816ZM130.909 39.2725H117.818V26.1816L130.909 26.1816V39.2725ZM65.4541 13.0908L52.3652 13.0908L52.3652 26.1816H39.2744L39.2744 13.0908L52.3633 13.0908V0L65.4541 0V13.0908ZM104.727 26.1816L91.6357 26.1816V13.0908L104.727 13.0908V26.1816ZM117.818 26.1816H104.728V13.0908L117.818 13.0908V26.1816ZM91.6348 0V13.0908L65.4551 13.0908V0L91.6348 0Z" fill="url(#paint0_linear_4552_71880)" fill-opacity="0.25"/>
  <defs>
    <linearGradient id="paint0_linear_4552_71880" x1="72.1163" y1="-108.172" x2="71.7059" y2="154.545" gradientUnits="userSpaceOnUse">
      <stop stop-color="#1C1C3F" stop-opacity="0"/>
      <stop offset="0.389423" stop-color="#5A5AB5"/>
    </linearGradient>
  </defs>
</svg>