<svg viewBox="0 0 144 84" fill="none" xmlns="http://www.w3.org/2000/svg">
  <rect x="20.5723" y="48.8579" width="6.85714" height="6.85714" fill="#A0A0FF"/>
  <rect x="20.5723" y="55.7158" width="6.85714" height="6.85714" fill="#A0A0FF"/>
  <rect x="116.572" y="48.8579" width="6.85714" height="6.85714" fill="#A0A0FF"/>
  <rect x="116.572" y="55.7158" width="6.85714" height="6.85714" fill="#A0A0FF"/>
  <rect x="137.143" y="48.8579" width="6.85714" height="6.85714" fill="#5A5AB5"/>
  <rect width="6.85714" height="6.85714" transform="matrix(-1 0 0 1 6.85742 48.8579)" fill="#5A5AB5"/>
  <rect x="130.285" y="55.7158" width="6.85714" height="6.85714" fill="#5A5AB5"/>
  <rect width="6.85714" height="6.85714" transform="matrix(-1 0 0 1 13.7148 55.7158)" fill="#5A5AB5"/>
  <rect x="20.5723" y="62.5723" width="6.85714" height="6.85714" fill="#A0A0FF"/>
  <rect x="116.572" y="62.5723" width="6.85714" height="6.85714" fill="#A0A0FF"/>
  <rect x="130.285" y="62.5723" width="6.85714" height="6.85714" fill="#A0A0FF"/>
  <rect width="6.85714" height="6.85714" transform="matrix(-1 0 0 1 13.7148 62.5723)" fill="#A0A0FF"/>
  <rect x="61.7148" y="69.4307" width="6.85714" height="6.85714" fill="#A0A0FF"/>
  <rect x="54.8574" y="69.4307" width="6.85714" height="6.85714" fill="#A0A0FF"/>
  <rect x="109.715" y="69.4307" width="6.85714" height="6.85714" fill="#A0A0FF"/>
  <rect x="123.428" y="69.4307" width="6.85714" height="6.85714" fill="#5A5AB5"/>
  <rect width="6.85714" height="6.85714" transform="matrix(-1 0 0 1 20.5723 69.4307)" fill="#5A5AB5"/>
  <rect x="48" y="69.4307" width="6.85714" height="6.85714" fill="#A0A0FF"/>
  <rect x="41.1426" y="69.4307" width="6.85714" height="6.85714" fill="#A0A0FF"/>
  <rect x="96" y="69.4307" width="6.85714" height="6.85714" fill="#A0A0FF"/>
  <rect x="102.857" y="69.4307" width="6.85714" height="6.85714" fill="#A0A0FF"/>
  <rect x="89.1426" y="69.4307" width="6.85714" height="6.85714" fill="#A0A0FF"/>
  <rect x="27.4277" y="69.4307" width="6.85714" height="6.85714" fill="#A0A0FF"/>
  <rect x="34.2852" y="69.4307" width="6.85714" height="6.85714" fill="#A0A0FF"/>
  <rect x="82.2852" y="69.4307" width="6.85714" height="6.85714" fill="#A0A0FF"/>
  <rect x="68.5723" y="69.4307" width="6.85714" height="6.85714" fill="#A0A0FF"/>
  <rect x="75.4277" y="69.4307" width="6.85714" height="6.85714" fill="#A0A0FF"/>
  <rect x="20.5723" y="42.0015" width="6.85714" height="6.85714" fill="#A0A0FF"/>
  <rect x="116.572" y="42.0015" width="6.85714" height="6.85714" fill="#A0A0FF"/>
  <rect x="130.285" y="42.0015" width="6.85714" height="6.85714" fill="#A0A0FF"/>
  <rect width="6.85714" height="6.85714" transform="matrix(-1 0 0 1 13.7148 42.0015)" fill="#A0A0FF"/>
  <rect x="20.5723" y="35.145" width="6.85714" height="6.85714" fill="#A0A0FF"/>
  <rect x="116.572" y="35.145" width="6.85714" height="6.85714" fill="#A0A0FF"/>
  <rect x="137.143" y="35.145" width="6.85714" height="6.85714" fill="#5A5AB5"/>
  <rect width="6.85714" height="6.85714" transform="matrix(-1 0 0 1 6.85742 35.145)" fill="#5A5AB5"/>
  <rect x="20.5723" y="28.2866" width="6.85714" height="6.85714" fill="#A0A0FF"/>
  <rect x="116.572" y="28.2866" width="6.85714" height="6.85714" fill="#A0A0FF"/>
  <rect x="130.285" y="28.2866" width="6.85714" height="6.85714" fill="#A0A0FF"/>
  <rect width="6.85714" height="6.85714" transform="matrix(-1 0 0 1 13.7148 28.2866)" fill="#A0A0FF"/>
  <rect x="20.5723" y="14.5723" width="6.85714" height="6.85714" fill="#A0A0FF"/>
  <rect x="20.5723" y="21.4307" width="6.85714" height="6.85714" fill="#A0A0FF"/>
  <rect x="34.2852" y="21.4307" width="6.85714" height="6.85714" fill="#5A5AB5"/>
  <rect x="34.2852" y="55.7158" width="6.85714" height="6.85714" fill="#5A5AB5"/>
  <rect x="82.2852" y="21.4307" width="6.85714" height="6.85714" fill="#5A5AB5"/>
  <rect x="75.4277" y="21.4307" width="6.85714" height="6.85714" fill="#5A5AB5"/>
  <rect x="75.4277" y="35.145" width="6.85714" height="6.85714" fill="#A0A0FF"/>
  <rect x="75.4277" y="48.8579" width="6.85714" height="6.85714" fill="#A0A0FF"/>
  <rect x="89.1426" y="48.8579" width="6.85714" height="6.85714" fill="#A0A0FF"/>
  <rect x="82.2852" y="42.0015" width="6.85714" height="6.85714" fill="#A0A0FF"/>
  <rect x="41.1426" y="21.4307" width="6.85714" height="6.85714" fill="#5A5AB5"/>
  <rect x="41.1426" y="55.7158" width="6.85714" height="6.85714" fill="#5A5AB5"/>
  <rect x="89.1426" y="21.4307" width="6.85714" height="6.85714" fill="#5A5AB5"/>
  <rect x="89.1426" y="35.145" width="6.85714" height="6.85714" fill="#A0A0FF"/>
  <rect x="48" y="21.4307" width="6.85714" height="6.85714" fill="#5A5AB5"/>
  <rect x="48" y="55.7158" width="6.85714" height="6.85714" fill="#5A5AB5"/>
  <rect x="96" y="21.4307" width="6.85714" height="6.85714" fill="#5A5AB5"/>
  <rect x="96" y="42.0015" width="6.85714" height="6.85714" fill="#A0A0FF"/>
  <rect x="54.8574" y="21.4307" width="6.85714" height="6.85714" fill="#5A5AB5"/>
  <rect x="54.8574" y="55.7158" width="6.85714" height="6.85714" fill="#5A5AB5"/>
  <rect x="102.857" y="21.4307" width="6.85714" height="6.85714" fill="#5A5AB5"/>
  <rect x="102.857" y="35.145" width="6.85714" height="6.85714" fill="#A0A0FF"/>
  <rect x="116.572" y="14.5723" width="6.85714" height="6.85714" fill="#A0A0FF"/>
  <rect x="116.572" y="21.4307" width="6.85714" height="6.85714" fill="#A0A0FF"/>
  <rect x="130.285" y="14.5723" width="6.85714" height="6.85714" fill="#A0A0FF"/>
  <rect width="6.85714" height="6.85714" transform="matrix(-1 0 0 1 13.7148 14.5723)" fill="#A0A0FF"/>
  <rect x="137.143" y="21.4307" width="6.85714" height="6.85714" fill="#5A5AB5"/>
  <rect width="6.85714" height="6.85714" transform="matrix(-1 0 0 1 6.85742 21.4307)" fill="#5A5AB5"/>
  <rect x="61.7148" y="7.71582" width="6.85714" height="6.85714" fill="#A0A0FF"/>
  <rect x="54.8574" y="7.71582" width="6.85714" height="6.85714" fill="#A0A0FF"/>
  <rect x="109.715" y="7.71582" width="6.85714" height="6.85714" fill="#A0A0FF"/>
  <rect x="123.428" y="7.71582" width="6.85714" height="6.85714" fill="#5A5AB5"/>
  <rect width="6.85714" height="6.85714" transform="matrix(-1 0 0 1 20.5723 7.71582)" fill="#5A5AB5"/>
  <rect x="41.1426" y="7.71582" width="6.85714" height="6.85714" fill="#A0A0FF"/>
  <rect x="96" y="7.71582" width="6.85714" height="6.85714" fill="#A0A0FF"/>
  <rect x="102.857" y="7.71582" width="6.85714" height="6.85714" fill="#A0A0FF"/>
  <rect x="48" y="7.71582" width="6.85714" height="6.85714" fill="#A0A0FF"/>
  <rect x="89.1426" y="7.71582" width="6.85714" height="6.85714" fill="#A0A0FF"/>
  <rect x="27.4277" y="7.71582" width="6.85714" height="6.85714" fill="#A0A0FF"/>
  <rect x="34.2852" y="7.71582" width="6.85714" height="6.85714" fill="#A0A0FF"/>
  <rect x="82.2852" y="7.71582" width="6.85714" height="6.85714" fill="#A0A0FF"/>
  <rect x="68.5723" y="7.71582" width="6.85714" height="6.85714" fill="#A0A0FF"/>
  <rect x="75.4277" y="7.71582" width="6.85714" height="6.85714" fill="#A0A0FF"/>
  <path d="M49.6367 48.8583V35.144H61.7135V37.691L60.3717 39.0624H53.854V40.8257H59.4132V44.744H53.854V48.8583H49.6367Z" fill="#A0A0FF"/>
  <path d="M34.2852 48.8583V35.144H38.5025V40.042H44.2533V35.144H48.4706V48.8583H44.2533V43.9604H38.5025V48.8583H34.2852Z" fill="#A0A0FF"/>
</svg>
