<svg width="144" height="84" viewBox="0 0 144 84" fill="none" xmlns="http://www.w3.org/2000/svg">
<rect x="27.4277" y="48.8579" width="6.85714" height="6.85714" fill="#A0A0FF"/>
<rect x="27.4277" y="62.5723" width="6.85714" height="6.85714" fill="#A0A0FF"/>
<rect x="109.715" y="48.8579" width="6.85714" height="6.85714" fill="#A0A0FF"/>
<rect x="109.715" y="55.7158" width="6.85714" height="6.85714" fill="#A0A0FF"/>
<rect x="109.715" y="62.5723" width="6.85714" height="6.85714" fill="#A0A0FF"/>
<rect x="68.5723" y="69.4307" width="6.85714" height="6.85714" fill="#A0A0FF"/>
<rect x="61.7148" y="69.4307" width="6.85714" height="6.85714" fill="#A0A0FF"/>
<rect x="54.8574" y="69.4307" width="6.85714" height="6.85714" fill="#A0A0FF"/>
<rect x="48" y="69.4307" width="6.85714" height="6.85714" fill="#A0A0FF"/>
<rect x="41.1426" y="69.4307" width="6.85714" height="6.85714" fill="#A0A0FF"/>
<rect x="34.2852" y="69.4307" width="6.85714" height="6.85714" fill="#A0A0FF"/>
<rect x="75.4277" y="69.4307" width="6.85714" height="6.85714" fill="#A0A0FF"/>
<rect x="82.2852" y="69.4307" width="6.85714" height="6.85714" fill="#A0A0FF"/>
<rect x="89.1426" y="69.4307" width="6.85714" height="6.85714" fill="#A0A0FF"/>
<rect x="96" y="69.4307" width="6.85714" height="6.85714" fill="#A0A0FF"/>
<rect x="102.857" y="69.4307" width="6.85714" height="6.85714" fill="#A0A0FF"/>
<rect x="27.4277" y="42.0015" width="6.85714" height="6.85714" fill="#A0A0FF"/>
<rect x="27.4277" y="35.145" width="6.85714" height="6.85714" fill="#A0A0FF"/>
<rect x="109.715" y="42.0015" width="6.85714" height="6.85714" fill="#A0A0FF"/>
<rect x="27.4277" y="55.7158" width="6.85714" height="6.85714" fill="#A0A0FF"/>
<rect x="109.715" y="35.145" width="6.85714" height="6.85714" fill="#A0A0FF"/>
<rect x="27.4277" y="28.2866" width="6.85714" height="6.85714" fill="#A0A0FF"/>
<rect x="68.5723" y="28.2866" width="6.85714" height="6.85714" fill="#A0A0FF"/>
<rect x="61.7148" y="28.2866" width="6.85714" height="6.85714" fill="#A0A0FF"/>
<rect x="54.8574" y="28.2866" width="6.85714" height="6.85714" fill="#A0A0FF"/>
<rect x="48" y="28.2866" width="6.85714" height="6.85714" fill="#A0A0FF"/>
<rect x="41.1426" y="28.2866" width="6.85714" height="6.85714" fill="#A0A0FF"/>
<rect x="20.5723" y="14.5723" width="6.85714" height="6.85714" fill="#5A5AB5"/>
<rect x="13.7148" y="21.4307" width="6.85714" height="6.85714" fill="#A0A0FF"/>
<rect x="6.85742" y="28.2866" width="6.85714" height="6.85714" fill="#5A5AB5"/>
<rect x="13.7148" y="35.145" width="6.85714" height="6.85714" fill="#5A5AB5"/>
<rect y="35.145" width="6.85714" height="6.85714" fill="#5A5AB5"/>
<rect x="6.85742" y="42.0015" width="6.85714" height="6.85714" fill="#A0A0FF"/>
<rect x="13.7148" y="48.8579" width="6.85714" height="6.85714" fill="#5A5AB5"/>
<rect y="48.8579" width="6.85714" height="6.85714" fill="#5A5AB5"/>
<rect x="6.85742" y="55.7158" width="6.85714" height="6.85714" fill="#5A5AB5"/>
<rect x="13.7148" y="62.5723" width="6.85714" height="6.85714" fill="#A0A0FF"/>
<rect x="20.5723" y="69.4307" width="6.85714" height="6.85714" fill="#5A5AB5"/>
<rect x="34.2852" y="28.2866" width="6.85714" height="6.85714" fill="#A0A0FF"/>
<rect x="27.4277" y="21.4307" width="6.85714" height="6.85714" fill="#A0A0FF"/>
<rect x="68.5723" y="14.5723" width="6.85714" height="6.85714" fill="#A0A0FF"/>
<rect x="61.7148" y="14.5723" width="6.85714" height="6.85714" fill="#A0A0FF"/>
<rect x="48" y="14.5723" width="6.85714" height="6.85714" fill="#A0A0FF"/>
<rect x="41.1426" y="14.5723" width="6.85714" height="6.85714" fill="#A0A0FF"/>
<rect x="34.2852" y="14.5723" width="6.85714" height="6.85714" fill="#A0A0FF"/>
<rect x="48" y="7.71582" width="6.85714" height="6.85714" fill="#A0A0FF"/>
<rect x="75.4277" y="14.5723" width="6.85714" height="6.85714" fill="#A0A0FF"/>
<rect x="82.2852" y="14.5723" width="6.85714" height="6.85714" fill="#A0A0FF"/>
<rect x="89.1426" y="14.5723" width="6.85714" height="6.85714" fill="#A0A0FF"/>
<rect x="89.1426" y="7.71582" width="6.85714" height="6.85714" fill="#A0A0FF"/>
<rect x="102.857" y="14.5723" width="6.85714" height="6.85714" fill="#A0A0FF"/>
<rect x="116.572" y="14.5723" width="6.85714" height="6.85714" fill="#5A5AB5"/>
<rect x="123.428" y="21.4307" width="6.85714" height="6.85714" fill="#A0A0FF"/>
<rect x="130.285" y="28.2866" width="6.85714" height="6.85714" fill="#5A5AB5"/>
<rect x="123.428" y="35.145" width="6.85714" height="6.85714" fill="#5A5AB5"/>
<rect x="137.143" y="35.145" width="6.85714" height="6.85714" fill="#5A5AB5"/>
<rect x="130.285" y="42.0015" width="6.85714" height="6.85714" fill="#A0A0FF"/>
<rect x="123.428" y="48.8579" width="6.85714" height="6.85714" fill="#5A5AB5"/>
<rect x="137.143" y="48.8579" width="6.85714" height="6.85714" fill="#5A5AB5"/>
<rect x="130.285" y="55.7158" width="6.85714" height="6.85714" fill="#5A5AB5"/>
<rect x="123.428" y="62.5723" width="6.85714" height="6.85714" fill="#A0A0FF"/>
<rect x="116.572" y="69.4307" width="6.85714" height="6.85714" fill="#5A5AB5"/>
<rect x="109.715" y="21.4307" width="6.85714" height="6.85714" fill="#A0A0FF"/>
<rect x="75.4277" y="28.2866" width="6.85714" height="6.85714" fill="#A0A0FF"/>
<rect x="82.2852" y="28.2866" width="6.85714" height="6.85714" fill="#A0A0FF"/>
<rect x="89.1426" y="28.2866" width="6.85714" height="6.85714" fill="#A0A0FF"/>
<rect x="96" y="28.2866" width="6.85714" height="6.85714" fill="#A0A0FF"/>
<rect x="102.857" y="28.2866" width="6.85714" height="6.85714" fill="#A0A0FF"/>
<rect x="109.715" y="28.2866" width="6.85714" height="6.85714" fill="#A0A0FF"/>
<path d="M74.9707 62.5729V42.0015H93.7127V45.8219L91.6303 47.879H81.5155V50.5239H90.1428V56.4015H81.5155V62.5729H74.9707Z" fill="#A0A0FF"/>
<path d="M50.2852 62.5729V42.0015H56.83V49.3484H65.7548V42.0015H72.2996V62.5729H65.7548V55.226H56.83V62.5729H50.2852Z" fill="#A0A0FF"/>
</svg>
