<svg xmlns="http://www.w3.org/2000/svg" viewBox="0 0 84 48" fill="none">
  <path d="M16 40.0015H8V36.0015H16V40.0015ZM76 36.0015V40.0015H16.001V36.0015H76ZM8 36.0015H4V32.0015H8V36.0015ZM80 36.0015H76V32.0015H80V36.0015ZM4 32.0005H0V16.0005H4V32.0005ZM16 32.0005H12V28.0005H8V20.0005H12V16.0005H16V32.0005ZM52 20.0005H56V24.0005H60V28.0005H64V32.0005H16.001V16.0005H52V20.0005ZM84 32.0005H80V16.0005H84V32.0005ZM8 16.0005H4V12.0005H8V16.0005ZM80 16.0005H76V12.0005H80V16.0005ZM16 12.0005H8V8.00049H16V12.0005ZM76 12.0005H16.001V8.00049H76V12.0005Z" fill="url(#paint0_linear_3644_45836)" fill-opacity="0.35"/>
  <defs>
    <linearGradient id="paint0_linear_3644_45836" x1="42.0679" y1="-18.4431" x2="42.0259" y2="45.7802" gradientUnits="userSpaceOnUse">
      <stop stop-color="#1C1C3F" stop-opacity="0"/>
      <stop offset="0.389423" stop-color="#5A5AB5"/>
    </linearGradient>
  </defs>
</svg>