<svg width="144" height="84" viewBox="0 0 144 84" fill="none" xmlns="http://www.w3.org/2000/svg">
<rect x="27.4297" y="7.71582" width="6.85714" height="6.85714" fill="#A0A0FF"/>
<rect x="13.7148" y="14.5723" width="6.85714" height="6.85714" fill="#5A5AB5"/>
<rect x="13.7148" y="21.4302" width="6.85714" height="6.85714" fill="#A0A0FF"/>
<rect x="20.5703" y="28.2866" width="6.85714" height="6.85714" fill="#A0A0FF"/>
<rect x="27.4297" y="28.2866" width="6.85714" height="6.85714" fill="#A0A0FF"/>
<rect x="27.4297" y="42.001" width="6.85714" height="6.85714" fill="#A0A0FF"/>
<rect x="20.5703" y="42.001" width="6.85714" height="6.85714" fill="#5A5AB5"/>
<rect x="13.7148" y="42.001" width="6.85714" height="6.85714" fill="#A0A0FF"/>
<rect x="6.85547" y="48.8574" width="6.85714" height="6.85714" fill="#5A5AB5"/>
<rect y="55.7158" width="6.85714" height="6.85714" fill="#A0A0FF"/>
<rect x="6.85547" y="62.5723" width="6.85714" height="6.85714" fill="#5A5AB5"/>
<rect x="13.7148" y="62.5723" width="6.85714" height="6.85714" fill="#A0A0FF"/>
<rect x="20.5703" y="62.5723" width="6.85714" height="6.85714" fill="#5A5AB5"/>
<rect x="27.4297" y="62.5723" width="6.85714" height="6.85714" fill="#5A5AB5"/>
<rect x="34.2852" y="42.001" width="6.85714" height="6.85714" fill="#5A5AB5"/>
<rect x="41.1445" y="42.001" width="6.85714" height="6.85714" fill="#5A5AB5"/>
<rect x="48" y="55.7158" width="6.85714" height="6.85714" fill="#A0A0FF"/>
<rect x="41.1445" y="62.5723" width="6.85714" height="6.85714" fill="#A0A0FF"/>
<rect x="34.2852" y="28.2866" width="6.85714" height="6.85714" fill="#A0A0FF"/>
<rect x="20.5703" y="7.71582" width="6.85714" height="6.85714" fill="#5A5AB5"/>
<rect x="34.2852" y="7.71582" width="6.85714" height="6.85714" fill="#5A5AB5"/>
<rect x="41.1445" y="14.5723" width="6.85714" height="6.85714" fill="#5A5AB5"/>
<rect x="41.1445" y="21.4302" width="6.85714" height="6.85714" fill="#A0A0FF"/>
<rect x="109.715" y="7.71582" width="6.85714" height="6.85714" fill="#A0A0FF"/>
<rect x="96" y="14.5723" width="6.85714" height="6.85714" fill="#5A5AB5"/>
<rect x="96" y="21.4302" width="6.85714" height="6.85714" fill="#A0A0FF"/>
<rect x="102.859" y="28.2866" width="6.85714" height="6.85714" fill="#A0A0FF"/>
<rect x="109.715" y="28.2866" width="6.85714" height="6.85714" fill="#A0A0FF"/>
<rect x="109.715" y="42.001" width="6.85714" height="6.85714" fill="#A0A0FF"/>
<rect x="102.859" y="42.001" width="6.85714" height="6.85714" fill="#5A5AB5"/>
<rect x="96" y="42.001" width="6.85714" height="6.85714" fill="#5A5AB5"/>
<rect x="89.1445" y="55.7158" width="6.85714" height="6.85714" fill="#A0A0FF"/>
<rect x="96" y="62.5723" width="6.85714" height="6.85714" fill="#A0A0FF"/>
<rect x="109.715" y="62.5723" width="6.85714" height="6.85714" fill="#5A5AB5"/>
<rect x="116.574" y="62.5723" width="6.85714" height="6.85714" fill="#5A5AB5"/>
<rect x="123.43" y="62.5723" width="6.85714" height="6.85714" fill="#A0A0FF"/>
<rect x="130.289" y="62.5723" width="6.85714" height="6.85714" fill="#5A5AB5"/>
<rect x="116.574" y="42.001" width="6.85714" height="6.85714" fill="#5A5AB5"/>
<rect x="123.43" y="42.001" width="6.85714" height="6.85714" fill="#A0A0FF"/>
<rect x="130.289" y="48.8574" width="6.85714" height="6.85714" fill="#5A5AB5"/>
<rect x="137.145" y="55.7158" width="6.85714" height="6.85714" fill="#A0A0FF"/>
<rect x="116.574" y="28.2866" width="6.85714" height="6.85714" fill="#A0A0FF"/>
<rect x="102.859" y="7.71582" width="6.85714" height="6.85714" fill="#5A5AB5"/>
<rect x="116.574" y="7.71582" width="6.85714" height="6.85714" fill="#5A5AB5"/>
<rect x="123.43" y="14.5723" width="6.85714" height="6.85714" fill="#5A5AB5"/>
<rect x="123.43" y="21.4302" width="6.85714" height="6.85714" fill="#A0A0FF"/>
<rect x="68.5703" y="14.5728" width="6.85714" height="6.85714" fill="#A0A0FF"/>
<rect x="54.8555" y="21.4312" width="6.85714" height="6.85714" fill="#A0A0FF"/>
<rect x="54.8555" y="28.2871" width="6.85714" height="6.85714" fill="#A0A0FF"/>
<rect x="61.7148" y="35.1455" width="6.85714" height="6.85714" fill="#A0A0FF"/>
<rect x="68.5703" y="35.1455" width="6.85714" height="6.85714" fill="#A0A0FF"/>
<rect x="68.5703" y="48.8584" width="6.85714" height="6.85714" fill="#A0A0FF"/>
<rect x="61.7148" y="48.8584" width="6.85714" height="6.85714" fill="#A0A0FF"/>
<rect x="54.8555" y="48.8584" width="6.85714" height="6.85714" fill="#A0A0FF"/>
<rect x="48" y="69.4312" width="6.85714" height="6.85714" fill="#A0A0FF"/>
<rect x="54.8555" y="69.4312" width="6.85714" height="6.85714" fill="#A0A0FF"/>
<rect x="61.7148" y="69.4312" width="6.85714" height="6.85714" fill="#A0A0FF"/>
<rect x="68.5703" y="69.4312" width="6.85714" height="6.85714" fill="#A0A0FF"/>
<rect x="75.4297" y="69.4312" width="6.85714" height="6.85714" fill="#A0A0FF"/>
<rect x="82.2852" y="69.4312" width="6.85714" height="6.85714" fill="#A0A0FF"/>
<rect x="89.1445" y="69.4312" width="6.85714" height="6.85714" fill="#A0A0FF"/>
<rect x="75.4297" y="48.8584" width="6.85714" height="6.85714" fill="#A0A0FF"/>
<rect x="82.2852" y="48.8584" width="6.85714" height="6.85714" fill="#A0A0FF"/>
<rect x="75.4297" y="35.1455" width="6.85714" height="6.85714" fill="#A0A0FF"/>
<rect x="61.7148" y="14.5728" width="6.85714" height="6.85714" fill="#A0A0FF"/>
<rect x="75.4297" y="14.5728" width="6.85714" height="6.85714" fill="#A0A0FF"/>
<rect x="82.2852" y="21.4312" width="6.85714" height="6.85714" fill="#A0A0FF"/>
<rect x="82.2852" y="28.2871" width="6.85714" height="6.85714" fill="#A0A0FF"/>
</svg>
