<svg viewBox="0 0 144 84" fill="none" xmlns="http://www.w3.org/2000/svg">
<rect width="6.85714" height="6.85714" transform="matrix(-1 0 0 1 96 14.5713)" fill="#A0A0FF"/>
<rect width="6.85714" height="6.85714" transform="matrix(-1 0 0 1 89.1426 21.4287)" fill="#5A5AB5"/>
<rect width="6.85714" height="6.85714" transform="matrix(-1 0 0 1 89.1426 55.7144)" fill="#5A5AB5"/>
<rect width="6.85714" height="6.85714" transform="matrix(-1 0 0 1 82.2852 48.8569)" fill="#A0A0FF"/>
<rect width="6.85714" height="6.85714" transform="matrix(-1 0 0 1 82.2852 42)" fill="#A0A0FF"/>
<rect width="6.85714" height="6.85714" transform="matrix(-1 0 0 1 82.2852 35.1431)" fill="#A0A0FF"/>
<rect width="6.85714" height="6.85714" transform="matrix(-1 0 0 1 82.2852 28.2856)" fill="#A0A0FF"/>
<rect width="6.85714" height="6.85714" transform="matrix(-1 0 0 1 96 62.5713)" fill="#A0A0FF"/>
<rect width="6.85714" height="6.85714" transform="matrix(-1 0 0 1 102.857 62.5713)" fill="#A0A0FF"/>
<rect width="6.85714" height="6.85714" transform="matrix(-1 0 0 1 109.715 62.5713)" fill="#5A5AB5"/>
<rect width="6.85714" height="6.85714" transform="matrix(-1 0 0 1 116.572 62.5713)" fill="#A0A0FF"/>
<rect width="6.85714" height="6.85714" transform="matrix(-1 0 0 1 123.428 55.7144)" fill="#A0A0FF"/>
<rect width="6.85714" height="6.85714" transform="matrix(-1 0 0 1 130.285 48.8569)" fill="#5A5AB5"/>
<rect width="6.85714" height="6.85714" transform="matrix(-1 0 0 1 109.715 14.5713)" fill="#5A5AB5"/>
<rect width="6.85714" height="6.85714" transform="matrix(-1 0 0 1 116.572 14.5713)" fill="#A0A0FF"/>
<rect width="6.85714" height="6.85714" transform="matrix(-1 0 0 1 123.428 21.4287)" fill="#5A5AB5"/>
<rect width="6.85714" height="6.85714" transform="matrix(-1 0 0 1 130.285 35.1431)" fill="#5A5AB5"/>
<rect width="6.85714" height="6.85714" transform="matrix(-1 0 0 1 130.285 28.2856)" fill="#5A5AB5"/>
<rect width="6.85714" height="6.85714" transform="matrix(-1 0 0 1 130.285 42)" fill="#A0A0FF"/>
<rect width="6.85714" height="6.85714" transform="matrix(-1 0 0 1 102.857 14.5713)" fill="#A0A0FF"/>
<rect width="6.85714" height="6.85714" transform="matrix(-1 0 0 1 96 42)" fill="#A0A0FF"/>
<rect width="6.85714" height="6.85714" transform="matrix(-1 0 0 1 109.715 42)" fill="#A0A0FF"/>
<rect width="6.85714" height="6.85714" transform="matrix(-1 0 0 1 116.572 35.1431)" fill="#A0A0FF"/>
<rect width="6.85714" height="6.85714" transform="matrix(-1 0 0 1 123.428 28.2856)" fill="#A0A0FF"/>
<rect width="6.85714" height="6.85714" transform="matrix(-1 0 0 1 102.857 48.8569)" fill="#A0A0FF"/>
<rect x="48" y="7.71436" width="6.85714" height="6.85714" fill="#A0A0FF"/>
<rect x="34.2871" y="14.5713" width="6.85714" height="6.85714" fill="#5A5AB5"/>
<rect x="34.2871" y="21.4287" width="6.85714" height="6.85714" fill="#A0A0FF"/>
<rect x="41.1426" y="28.2856" width="6.85714" height="6.85714" fill="#A0A0FF"/>
<rect x="48" y="28.2856" width="6.85714" height="6.85714" fill="#A0A0FF"/>
<rect x="48" y="42" width="6.85714" height="6.85714" fill="#A0A0FF"/>
<rect x="34.2871" y="42" width="6.85714" height="6.85714" fill="#A0A0FF"/>
<rect x="41.1426" y="42" width="6.85714" height="6.85714" fill="#5A5AB5"/>
<rect x="27.4297" y="42" width="6.85714" height="6.85714" fill="#A0A0FF"/>
<rect x="20.5723" y="48.8569" width="6.85714" height="6.85714" fill="#5A5AB5"/>
<rect x="13.7148" y="55.7144" width="6.85714" height="6.85714" fill="#A0A0FF"/>
<rect x="20.5723" y="62.5713" width="6.85714" height="6.85714" fill="#5A5AB5"/>
<rect x="27.4297" y="69.4287" width="6.85714" height="6.85714" fill="#A0A0FF"/>
<rect x="41.1426" y="69.4287" width="6.85714" height="6.85714" fill="#5A5AB5"/>
<rect x="48" y="69.4287" width="6.85714" height="6.85714" fill="#A0A0FF"/>
<rect x="34.2871" y="69.4287" width="6.85714" height="6.85714" fill="#A0A0FF"/>
<rect x="54.8574" y="42" width="6.85714" height="6.85714" fill="#5A5AB5"/>
<rect x="61.7148" y="42" width="6.85714" height="6.85714" fill="#5A5AB5"/>
<rect x="54.8574" y="69.4287" width="6.85714" height="6.85714" fill="#5A5AB5"/>
<rect x="61.7148" y="69.4287" width="6.85714" height="6.85714" fill="#5A5AB5"/>
<rect x="68.5723" y="69.4287" width="6.85714" height="6.85714" fill="#A0A0FF"/>
<rect x="54.8574" y="28.2856" width="6.85714" height="6.85714" fill="#A0A0FF"/>
<rect x="41.1426" y="7.71436" width="6.85714" height="6.85714" fill="#5A5AB5"/>
<rect x="54.8574" y="7.71436" width="6.85714" height="6.85714" fill="#5A5AB5"/>
<rect x="61.7148" y="14.5713" width="6.85714" height="6.85714" fill="#5A5AB5"/>
<rect x="61.7148" y="21.4287" width="6.85714" height="6.85714" fill="#A0A0FF"/>
</svg>
