<svg viewBox="0 0 144 84" fill="none" xmlns="http://www.w3.org/2000/svg">
<rect x="68.5713" y="21.4312" width="6.85714" height="6.85714" fill="#A0A0FF"/>
<rect x="68.5713" y="28.2871" width="6.85714" height="6.85714" fill="#A0A0FF"/>
<rect x="68.5713" y="35.1455" width="6.85714" height="6.85714" fill="#A0A0FF"/>
<rect x="68.5713" y="48.8584" width="6.85714" height="6.85714" fill="#A0A0FF"/>
<rect x="75.4287" y="7.71631" width="6.85714" height="6.85714" fill="#A0A0FF"/>
<rect x="75.4287" y="62.5728" width="6.85714" height="6.85714" fill="#A0A0FF"/>
<rect x="27.4287" y="14.5728" width="6.85714" height="6.85714" fill="#A0A0FF"/>
<rect x="41.1431" y="14.5728" width="6.85714" height="6.85714" fill="#A0A0FF"/>
<rect x="13.7144" y="14.5728" width="6.85714" height="6.85714" fill="#A0A0FF"/>
<rect x="20.5713" y="21.4312" width="6.85714" height="6.85714" fill="#5A5AB5"/>
<rect x="34.2856" y="21.4312" width="6.85714" height="6.85714" fill="#A0A0FF"/>
<rect x="6.85693" y="21.4312" width="6.85714" height="6.85714" fill="#5A5AB5"/>
<rect x="13.7144" y="28.2871" width="6.85714" height="6.85714" fill="#A0A0FF"/>
<rect x="34.2856" y="28.2871" width="6.85714" height="6.85714" fill="#A0A0FF"/>
<rect x="34.2856" y="35.1455" width="6.85714" height="6.85714" fill="#A0A0FF"/>
<rect y="28.2871" width="6.85714" height="6.85714" fill="#A0A0FF"/>
<rect x="20.5713" y="35.1455" width="6.85714" height="6.85714" fill="#5A5AB5"/>
<rect x="6.85693" y="35.1455" width="6.85714" height="6.85714" fill="#5A5AB5"/>
<rect x="13.7144" y="42.002" width="6.85714" height="6.85714" fill="#A0A0FF"/>
<rect x="34.2856" y="42.002" width="6.85714" height="6.85714" fill="#A0A0FF"/>
<rect y="42.002" width="6.85714" height="6.85714" fill="#A0A0FF"/>
<rect x="20.5713" y="48.8584" width="6.85714" height="6.85714" fill="#5A5AB5"/>
<rect x="34.2856" y="48.8584" width="6.85714" height="6.85714" fill="#A0A0FF"/>
<rect x="6.85693" y="48.8584" width="6.85714" height="6.85714" fill="#5A5AB5"/>
<rect x="27.4287" y="55.7163" width="6.85714" height="6.85714" fill="#A0A0FF"/>
<rect x="41.1431" y="55.7163" width="6.85714" height="6.85714" fill="#A0A0FF"/>
<rect x="13.7144" y="55.7163" width="6.85714" height="6.85714" fill="#A0A0FF"/>
<rect x="109.714" y="55.7163" width="6.85714" height="6.85714" fill="#A0A0FF"/>
<rect x="96" y="55.7163" width="6.85714" height="6.85714" fill="#A0A0FF"/>
<rect x="109.714" y="14.5728" width="6.85714" height="6.85714" fill="#A0A0FF"/>
<rect x="96" y="14.5728" width="6.85714" height="6.85714" fill="#A0A0FF"/>
<rect x="116.571" y="21.4312" width="6.85714" height="6.85714" fill="#5A5AB5"/>
<rect x="102.857" y="21.4312" width="6.85714" height="6.85714" fill="#A0A0FF"/>
<rect x="123.429" y="28.2871" width="6.85714" height="6.85714" fill="#A0A0FF"/>
<rect x="102.857" y="28.2871" width="6.85714" height="6.85714" fill="#A0A0FF"/>
<rect x="116.571" y="35.1455" width="6.85714" height="6.85714" fill="#5A5AB5"/>
<rect x="102.857" y="35.1455" width="6.85714" height="6.85714" fill="#A0A0FF"/>
<rect x="123.429" y="42.002" width="6.85714" height="6.85714" fill="#A0A0FF"/>
<rect x="102.857" y="42.002" width="6.85714" height="6.85714" fill="#A0A0FF"/>
<rect x="116.571" y="48.8584" width="6.85714" height="6.85714" fill="#5A5AB5"/>
<rect x="102.857" y="48.8584" width="6.85714" height="6.85714" fill="#A0A0FF"/>
<rect x="54.8569" y="7.71631" width="6.85714" height="6.85714" fill="#A0A0FF"/>
<rect x="48" y="7.71631" width="6.85714" height="6.85714" fill="#A0A0FF"/>
<rect x="34.2856" y="7.71631" width="6.85714" height="6.85714" fill="#5A5AB5"/>
<rect x="20.5713" y="7.71631" width="6.85714" height="6.85714" fill="#5A5AB5"/>
<rect x="20.5713" y="62.5728" width="6.85714" height="6.85714" fill="#5A5AB5"/>
<rect x="82.2856" y="7.71631" width="6.85714" height="6.85714" fill="#A0A0FF"/>
<rect x="89.1431" y="7.71631" width="6.85714" height="6.85714" fill="#A0A0FF"/>
<rect x="102.857" y="7.71631" width="6.85714" height="6.85714" fill="#5A5AB5"/>
<rect x="82.2856" y="62.5728" width="6.85714" height="6.85714" fill="#A0A0FF"/>
<rect x="89.1431" y="62.5728" width="6.85714" height="6.85714" fill="#A0A0FF"/>
<rect x="102.857" y="62.5728" width="6.85714" height="6.85714" fill="#5A5AB5"/>
<rect x="123.428" y="55.7163" width="6.85714" height="6.85714" fill="#A0A0FF"/>
<rect x="123.428" y="14.5728" width="6.85714" height="6.85714" fill="#A0A0FF"/>
<rect x="130.286" y="21.4307" width="6.85714" height="6.85714" fill="#5A5AB5"/>
<rect x="137.143" y="28.2871" width="6.85714" height="6.85714" fill="#A0A0FF"/>
<rect x="130.286" y="35.1455" width="6.85714" height="6.85714" fill="#5A5AB5"/>
<rect x="137.143" y="42.0015" width="6.85714" height="6.85714" fill="#A0A0FF"/>
<rect x="130.286" y="48.8579" width="6.85714" height="6.85714" fill="#5A5AB5"/>
<rect x="116.571" y="7.71631" width="6.85714" height="6.85714" fill="#5A5AB5"/>
<rect x="116.571" y="62.5728" width="6.85714" height="6.85714" fill="#5A5AB5"/>
<rect x="61.7144" y="7.71631" width="6.85714" height="6.85714" fill="#A0A0FF"/>
<rect x="68.5713" y="69.4312" width="6.85714" height="6.85714" fill="#A0A0FF"/>
<rect x="61.7144" y="76.2871" width="6.85714" height="6.85714" fill="#A0A0FF"/>
<rect x="68.5713" y="7.71631" width="6.85714" height="6.85714" fill="#A0A0FF"/>
<rect x="48" y="62.5728" width="6.85714" height="6.85714" fill="#A0A0FF"/>
<rect x="54.8569" y="69.4312" width="6.85714" height="6.85714" fill="#A0A0FF"/>
<rect x="54.8569" y="76.2871" width="6.85714" height="6.85714" fill="#A0A0FF"/>
<rect x="48" y="76.2871" width="6.85714" height="6.85714" fill="#A0A0FF"/>
<rect x="54.8569" y="62.5728" width="6.85714" height="6.85714" fill="#A0A0FF"/>
<rect x="34.2856" y="62.5728" width="6.85714" height="6.85714" fill="#5A5AB5"/>
</svg>
