<svg width="32" height="32" viewBox="0 0 32 32" fill="none" xmlns="http://www.w3.org/2000/svg">
<path d="M13.8185 19.6841L6.02813 25.018C5.09271 25.5995 4.36556 25.9874 3.43103 25.9874C1.5602 25.9874 0.00176464 24.4357 0.00176464 22.6929C0.00176464 21.2383 1.24869 20.1717 2.39148 19.6866L11.5347 16.0016L2.38972 12.2179C1.14368 11.7327 0 10.6661 0 9.21157C0 7.46628 1.66257 6.01174 3.52987 6.01174C4.46528 6.01174 5.0883 6.30248 6.02372 6.98116L13.8185 12.315L12.779 3.68496C12.4675 1.6481 13.9262 0 16 0C18.0738 0 19.5299 1.55091 19.221 3.58777L18.1815 12.315L25.9719 6.98116C26.9073 6.30248 27.6344 6.01174 28.5699 6.01174C29.4766 6.01926 30.344 6.3588 30.9852 6.95726C31.6264 7.55572 31.9902 8.36525 31.9982 9.21157C31.9982 10.7633 30.8554 11.7327 29.6085 12.2179L20.467 15.9992L29.6103 19.6841C30.8572 20.1693 32 21.2359 32 22.7876C32 24.5329 30.3374 25.9874 28.4701 25.9874C27.6389 25.9874 26.9117 25.5995 25.9763 25.018L18.1841 19.6841L19.221 28.3142C19.5299 30.3527 18.0782 32 16 32C13.9218 32 12.4701 30.4483 12.779 28.4122L13.8185 19.6841Z" fill="url(#paint0_linear_828_199)"/>
<defs>
<linearGradient id="paint0_linear_828_199" x1="6.03199e-08" y1="6.8" x2="32" y2="22.88" gradientUnits="userSpaceOnUse">
<stop stop-color="#FF720E"/>
<stop offset="0.505208" stop-color="#FF4C6C"/>
<stop offset="1" stop-color="#01D0C0"/>
</linearGradient>
</defs>
</svg>
