<svg width="70" height="70" viewBox="0 0 70 70" fill="none" xmlns="http://www.w3.org/2000/svg">
<rect width="69.33" height="69.33" rx="2" fill="white"/>
<path d="M19.7489 40.4816H16.629L15.6746 38.1795H10.4751L9.60554 40.4816H6.53711L11.2249 28.8549H14.5834L19.7489 40.4816ZM12.9469 31.6331L11.2422 36.1506H14.8222L12.9469 31.6331ZM31.0818 28.8549H33.6047V40.4816H30.7063V33.2192L27.5696 36.8671H27.1266L23.9901 33.2192V40.4814H21.0916V28.8549H23.6146L27.3479 33.1679L31.0818 28.8549ZM40.9486 28.8549C45.1932 28.8549 47.375 31.4969 47.375 34.6848C47.375 38.0261 45.2614 40.4816 40.6245 40.4816H35.817V28.8549H40.9486ZM38.7152 38.3506H40.6071C43.5223 38.3506 44.3918 36.3727 44.3918 34.6676C44.3918 32.6729 43.3177 30.9856 40.573 30.9856H38.7151L38.7152 38.3506ZM53.1412 31.6117L49.4867 27.9565H62.7909V41.2613L59.1364 37.6065V31.6117H53.1412ZM53.1369 32.3441L49.3744 36.1065V41.3732H54.6403L58.4027 37.6108H53.1369V32.3441Z" fill="black"/>
</svg>
