<svg xmlns="http://www.w3.org/2000/svg" width="194" height="47" viewBox="0 0 194 47" fill="none">
  <path d="M45.8639 42.9625H35.1673L31.895 35.0698H14.068L11.0867 42.9625H0.566406L16.639 3.09967H28.1536L45.8639 42.9625ZM22.5427 12.625L16.6981 28.1135H28.9726L22.5427 12.625ZM84.7195 3.09967H93.3697V42.9625H83.4323V18.063L72.6779 30.5699H71.1588L60.4051 18.063V42.9621H50.4677V3.09967H59.1179L71.9177 17.887L84.7195 3.09967ZM118.549 3.09967C133.102 3.09967 140.582 12.1581 140.582 23.088C140.582 34.5438 133.335 42.9625 117.437 42.9625H100.955V3.09967H118.549ZM110.891 35.6564H117.378C127.373 35.6564 130.354 28.8748 130.354 23.0289C130.354 16.1898 126.671 10.4049 117.261 10.4049H110.891L110.891 35.6564ZM160.352 12.5515L147.822 0.0195312H193.437V45.6357L180.907 33.1052V12.5515H160.352ZM160.337 15.0627L147.437 27.9623V46.0195H165.492L178.391 33.1199H160.337V15.0627Z" fill="white"/>
</svg>