<svg width="70" height="70" viewBox="0 0 70 70" fill="none" xmlns="http://www.w3.org/2000/svg">
<rect width="69.33" height="69.33" rx="2" fill="white"/>
<g clip-path="url(#clip0_5637_80354)">
<path d="M7.5574 33.3337C10.3284 32.8787 12.5011 30.706 12.956 27.935L13.1794 26.5868C13.2207 26.3248 13.0084 26.096 12.7437 26.1153C10.6345 26.2779 8.64651 26.9783 7.54637 27.4277C7.01423 27.6455 6.66406 28.1639 6.66406 28.7429V33.0028C6.66406 33.2537 6.8874 33.444 7.13555 33.4026L7.5574 33.3337Z" fill="black"/>
<path d="M14.2896 27.935C14.7446 30.7061 16.9173 32.8788 19.6883 33.3337L20.1101 33.4026C20.3583 33.444 20.5816 33.2537 20.5816 33.0028V28.7429C20.5816 28.1666 20.2314 27.6483 19.6993 27.4277C18.6019 26.9755 16.6112 26.2779 14.502 26.1153C14.2373 26.096 14.0222 26.3248 14.0663 26.5868L14.2896 27.935Z" fill="black"/>
<path d="M19.6897 34.6715C16.9187 35.1264 14.746 37.2991 14.291 40.0701L14.0153 42.7005C13.9905 42.9376 14.2525 43.1058 14.451 42.9735C14.451 42.9735 14.4537 42.9735 14.4565 42.9707C16.1935 41.7989 20.1584 38.7301 20.5499 34.8976C20.5693 34.7101 20.4011 34.5557 20.2163 34.586L19.6924 34.6715H19.6897Z" fill="black"/>
<path d="M12.9523 40.0689C12.4974 37.2979 10.3247 35.1252 7.55373 34.6702L6.9885 34.5765C6.82306 34.549 6.67417 34.6868 6.69071 34.855C7.06294 38.7096 11.083 41.7977 12.8338 42.9695C13.0158 43.0908 13.2556 42.9447 13.2336 42.7269L12.9551 40.0662L12.9523 40.0689Z" fill="black"/>
<path d="M39.8386 31.4714H38.5194C38.4394 31.4714 38.3766 31.5343 38.3766 31.6142V35.4208C38.3766 35.8862 38.2994 36.2946 38.1453 36.6458C37.9911 36.9971 37.774 37.2655 37.4914 37.4482C37.2086 37.631 36.8745 37.7224 36.489 37.7224C35.935 37.7224 35.5181 37.5396 35.2411 37.1741C34.9641 36.8086 34.8242 36.2832 34.8242 35.6006V31.6142C34.8242 31.5343 34.7614 31.4714 34.6814 31.4714H33.3479C33.2679 31.4714 33.2051 31.5343 33.2051 31.6142V35.7634C33.2051 36.4059 33.285 36.9428 33.4421 37.374C33.5991 37.8052 33.8162 38.1536 34.0874 38.422C34.3587 38.6904 34.67 38.8789 35.0241 38.9931C35.3753 39.1074 35.7437 39.1645 36.1292 39.1645C36.6832 39.1645 37.1429 39.0588 37.5113 38.8446C37.7826 38.6876 38.011 38.5134 38.2024 38.3192C38.2823 38.2364 38.4194 38.282 38.4422 38.3935L38.545 38.956C38.5565 39.0245 38.6164 39.0731 38.685 39.0731H39.8329C39.9129 39.0731 39.9757 39.0103 39.9757 38.9303V31.6142C39.9757 31.5343 39.9129 31.4714 39.8329 31.4714H39.8386Z" fill="black"/>
<path d="M45.5699 37.6636H43.8479C43.5424 37.6636 43.3254 37.6008 43.2026 37.478C43.0798 37.3552 43.017 37.1439 43.017 36.8469V33.0261C43.017 32.9461 43.0798 32.8833 43.1597 32.8833H45.4956C45.5756 32.8833 45.6384 32.8205 45.6384 32.7405V31.6154C45.6384 31.5355 45.5756 31.4726 45.4956 31.4726H43.3025C43.1455 31.4726 43.017 31.3442 43.017 31.1871V29.3053C43.017 29.2253 42.9542 29.1625 42.8742 29.1625H41.5549C41.4749 29.1625 41.4121 29.2253 41.4121 29.3053V37.0125C41.4121 37.7064 41.5749 38.2233 41.9033 38.5631C42.2288 38.9058 42.7543 39.0743 43.4767 39.0743H45.5699C45.6498 39.0743 45.7126 39.0115 45.7126 38.9315V37.8063C45.7126 37.7264 45.6498 37.6636 45.5699 37.6636Z" fill="black"/>
<path d="M52.2762 31.7689C51.825 31.5118 51.2996 31.3833 50.6942 31.3833C50.2202 31.3833 49.7833 31.4775 49.3863 31.666C49.1008 31.8031 48.8466 31.9716 48.6296 32.1743C48.5382 32.26 48.3926 32.1943 48.3926 32.0715V28.8219C48.3926 28.7419 48.3298 28.6791 48.2498 28.6791H46.9162C46.8363 28.6791 46.7734 28.7419 46.7734 28.8219V38.9307C46.7734 39.0107 46.8363 39.0735 46.9162 39.0735H48.2498C48.3298 39.0735 48.3926 39.0107 48.3926 38.9307V35.227C48.3926 34.7329 48.4726 34.3046 48.6296 33.942C48.7866 33.5821 49.0123 33.3023 49.3064 33.1024C49.5976 32.9054 49.9432 32.8054 50.3373 32.8054C50.7313 32.8054 51.0454 32.8939 51.3025 33.0739C51.5594 33.2509 51.7536 33.5022 51.8821 33.8248C52.0107 34.1475 52.0763 34.5302 52.0763 34.9757V38.9307C52.0763 39.0107 52.1391 39.0735 52.2191 39.0735H53.5384C53.6183 39.0735 53.6811 39.0107 53.6811 38.9307V34.8415C53.6811 34.0704 53.5612 33.4279 53.3185 32.9197C53.0758 32.4085 52.7303 32.0258 52.279 31.7689H52.2762Z" fill="black"/>
<path d="M61.8527 30.9386C61.5473 30.1875 61.1104 29.6079 60.5451 29.2024C59.9793 28.7969 59.3027 28.5941 58.5118 28.5941C57.7207 28.5941 57.0554 28.7969 56.4842 29.2024C55.916 29.6079 55.4762 30.1875 55.1707 30.9386C54.8651 31.6924 54.7109 32.592 54.7109 33.64V34.114C54.7109 35.1734 54.8651 36.0815 55.1707 36.8383C55.4762 37.5949 55.916 38.1718 56.4842 38.5687C57.0525 38.9657 57.7293 39.1627 58.5118 39.1627C59.2942 39.1627 59.9825 38.9657 60.5451 38.5687C61.1072 38.1718 61.5442 37.5949 61.8527 36.8383C62.1586 36.0815 62.3123 35.1734 62.3123 34.114V33.64C62.3123 32.592 62.1586 31.6896 61.8527 30.9386ZM56.3301 34.2968C56.3301 34.2168 56.3301 34.1368 56.3301 34.0569V33.6999C56.3301 32.492 56.5185 31.5668 56.8955 30.9243C57.2724 30.2818 57.8121 29.9591 58.5146 29.9591C59.1685 29.9591 59.6798 30.2361 60.0506 30.793C60.1938 30.9928 60.0707 31.247 60.011 31.3155L57.0839 34.5795C56.8241 34.8707 56.3443 34.6908 56.3358 34.3025L56.3301 34.2968ZM60.6936 34.0569C60.6936 35.2562 60.505 36.1757 60.1278 36.8182C59.7511 37.4608 59.2113 37.7834 58.5089 37.7834C57.8635 37.7834 57.3552 37.5122 56.9869 36.9696C56.8441 36.7725 56.9668 36.5213 57.0268 36.4499L59.9423 33.1802C60.2023 32.8889 60.682 33.066 60.6904 33.4572C60.6904 33.5372 60.6904 33.62 60.6904 33.7028V34.0597L60.6936 34.0569Z" fill="black"/>
<path d="M32.2893 37.6787H32.2493C32.0894 37.6787 31.978 37.6445 31.9066 37.5759C31.838 37.5074 31.8038 37.3789 31.8038 37.1904V34.1463C31.8038 33.2469 31.5268 32.5615 30.9728 32.0903C30.4188 31.6192 29.6421 31.385 28.6427 31.385C28.0087 31.385 27.4519 31.485 26.9721 31.682C26.4924 31.879 26.1097 32.1589 25.8213 32.5215C25.5672 32.8413 25.4072 33.2097 25.3387 33.6266C25.3244 33.7123 25.3958 33.7923 25.4815 33.7923H26.7779C26.8436 33.7923 26.8979 33.7466 26.915 33.6809C26.9921 33.3954 27.1606 33.1612 27.4261 32.9813C27.7231 32.7785 28.1029 32.6757 28.5684 32.6757C29.0824 32.6757 29.485 32.7957 29.7706 33.0384C30.0562 33.2811 30.2018 33.6152 30.2018 34.0407V34.3577C30.2018 34.4376 30.139 34.5005 30.059 34.5005H28.3314C27.2834 34.5005 26.4838 34.7118 25.9327 35.1316C25.3844 35.5513 25.1074 36.1538 25.1074 36.9363C25.1074 37.4017 25.2273 37.8016 25.4643 38.1385C25.7014 38.4755 26.0298 38.7296 26.4524 38.9038C26.8722 39.078 27.3548 39.1637 27.9002 39.1637C28.6141 39.1637 29.1938 38.9981 29.645 38.6668C29.842 38.5212 30.019 38.3555 30.1733 38.1756C30.2475 38.0871 30.3931 38.1185 30.4188 38.2298C30.4588 38.4183 30.5359 38.584 30.6473 38.7182C30.8443 38.9552 31.2127 39.0751 31.7467 39.0751H32.4349C32.5148 39.0751 32.5777 39.0123 32.5777 38.9323V37.9158C32.5777 37.7216 32.5148 37.6787 32.2921 37.6787H32.2893ZM30.1989 36.0025C30.1989 36.368 30.1161 36.6993 29.9477 36.9906C29.7792 37.2818 29.5421 37.5102 29.2338 37.673C28.9282 37.8358 28.5541 37.9186 28.1201 37.9186C27.686 37.9186 27.3548 37.8158 27.1035 37.6131C26.8522 37.4103 26.7237 37.1505 26.7237 36.8335C26.7237 36.448 26.855 36.1595 27.1178 35.9711C27.3805 35.7826 27.7574 35.6884 28.2543 35.6884H30.1989V35.9996V36.0025Z" fill="black"/>
</g>
<defs>
<clipPath id="clip0_5637_80354">
<rect width="56" height="21.1321" fill="white" transform="translate(6.66406 24.099)"/>
</clipPath>
</defs>
</svg>
