<svg xmlns="http://www.w3.org/2000/svg" width="212" height="80" viewBox="0 0 212 80" fill="none">
  <g clip-path="url(#clip0_5146_120809)">
    <path d="M4.2149 34.9425C14.6233 33.2337 22.7843 25.0727 24.4931 14.6643L25.3321 9.59997C25.4873 8.61609 24.6899 7.75649 23.6956 7.82898C15.7729 8.44002 8.30578 11.0706 4.17349 12.7587C2.17468 13.5769 0.859375 15.5239 0.859375 17.6988V33.6997C0.859375 34.6422 1.69828 35.3568 2.63037 35.2014L4.2149 34.9425Z" fill="white"/>
    <path d="M29.505 14.6643C31.214 25.0728 39.375 33.2338 49.7833 34.9425L51.3678 35.2015C52.2999 35.3569 53.1387 34.6423 53.1387 33.6997V17.6988C53.1387 15.5343 51.8234 13.5872 49.8246 12.7587C45.7028 11.0602 38.2252 8.44002 30.3025 7.82898C29.3083 7.75649 28.5005 8.61609 28.6662 9.59997L29.505 14.6643Z" fill="white"/>
    <path d="M49.7888 39.9673C39.3805 41.676 31.2195 49.837 29.5105 60.2454L28.4749 70.1257C28.3818 71.0162 29.3657 71.6481 30.1114 71.151C30.1114 71.151 30.1217 71.151 30.1321 71.1407C36.6567 66.7391 51.5494 55.2122 53.02 40.8166C53.0927 40.1123 52.4608 39.5323 51.7669 39.6462L49.7992 39.9673H49.7888Z" fill="white"/>
    <path d="M24.4815 60.2408C22.7728 49.8324 14.6118 41.6714 4.20339 39.9625L2.08029 39.6104C1.4589 39.5068 0.899625 40.0246 0.961764 40.6564C2.3599 55.1349 17.4598 66.7343 24.0362 71.1359C24.7199 71.5915 25.6208 71.0426 25.538 70.2244L24.492 60.2304L24.4815 60.2408Z" fill="white"/>
    <path d="M125.468 27.9473H120.512C120.212 27.9473 119.976 28.1834 119.976 28.4836V42.7816C119.976 44.5298 119.686 46.0638 119.107 47.383C118.528 48.7024 117.713 49.7107 116.651 50.3971C115.589 51.0837 114.334 51.4268 112.886 51.4268C110.805 51.4268 109.239 50.7404 108.198 49.3674C107.158 47.9944 106.633 46.0209 106.633 43.4573V28.4836C106.633 28.1834 106.397 27.9473 106.096 27.9473H101.087C100.787 27.9473 100.551 28.1834 100.551 28.4836V44.0687C100.551 46.4821 100.851 48.4986 101.441 50.1183C102.031 51.7379 102.846 53.0464 103.865 54.0547C104.884 55.063 106.053 55.7708 107.383 56.2C108.703 56.6291 110.086 56.8436 111.534 56.8436C113.615 56.8436 115.342 56.4467 116.726 55.6422C117.745 55.0523 118.603 54.398 119.322 53.6686C119.622 53.3576 120.137 53.5291 120.222 53.9476L120.609 56.0605C120.651 56.3179 120.877 56.5003 121.134 56.5003H125.446C125.746 56.5003 125.982 56.2643 125.982 55.9639V28.4836C125.982 28.1834 125.746 27.9473 125.446 27.9473H125.468Z" fill="white"/>
    <path d="M147 51.2061H140.532C139.384 51.2061 138.569 50.9701 138.108 50.5088C137.647 50.0476 137.411 49.2538 137.411 48.1384V33.7869C137.411 33.4865 137.647 33.2505 137.947 33.2505H146.721C147.022 33.2505 147.258 33.0146 147.258 32.7141V28.4882C147.258 28.1877 147.022 27.9518 146.721 27.9518H138.484C137.894 27.9518 137.411 27.4692 137.411 26.8792V19.8107C137.411 19.5104 137.175 19.2744 136.875 19.2744H131.919C131.619 19.2744 131.383 19.5104 131.383 19.8107V48.7605C131.383 51.367 131.994 53.3084 133.228 54.5847C134.45 55.872 136.424 56.5048 139.138 56.5048H147C147.3 56.5048 147.536 56.2689 147.536 55.9684V51.7423C147.536 51.442 147.3 51.2061 147 51.2061Z" fill="white"/>
    <path d="M172.193 29.0642C170.498 28.0988 168.525 27.6162 166.25 27.6162C164.47 27.6162 162.829 27.97 161.338 28.678C160.265 29.1928 159.311 29.8256 158.495 30.5872C158.152 30.9091 157.605 30.6624 157.605 30.2011V17.9948C157.605 17.6945 157.369 17.4585 157.069 17.4585H152.06C151.76 17.4585 151.523 17.6945 151.523 17.9948V55.9652C151.523 56.2657 151.76 56.5016 152.06 56.5016H157.069C157.369 56.5016 157.605 56.2657 157.605 55.9652V42.0534C157.605 40.1978 157.906 38.5889 158.495 37.2268C159.085 35.8752 159.933 34.8241 161.038 34.0732C162.132 33.3332 163.43 32.9578 164.91 32.9578C166.39 32.9578 167.57 33.2902 168.535 33.9661C169.5 34.631 170.23 35.575 170.713 36.7869C171.195 37.9989 171.442 39.4362 171.442 41.1097V55.9652C171.442 56.2657 171.678 56.5016 171.978 56.5016H176.934C177.234 56.5016 177.47 56.2657 177.47 55.9652V40.6054C177.47 37.7094 177.019 35.296 176.108 33.3868C175.196 31.4667 173.898 30.0294 172.203 29.0642H172.193Z" fill="white"/>
    <path d="M208.162 25.9458C207.015 23.1248 205.373 20.9475 203.25 19.4243C201.125 17.9012 198.583 17.1396 195.612 17.1396C192.641 17.1396 190.142 17.9012 187.997 19.4243C185.862 20.9475 184.211 23.1248 183.063 25.9458C181.915 28.7775 181.336 32.1563 181.336 36.0928V37.8731C181.336 41.8526 181.915 45.2636 183.063 48.1061C184.211 50.9483 185.862 53.1151 187.997 54.6059C190.131 56.097 192.673 56.837 195.612 56.837C198.551 56.837 201.137 56.097 203.25 54.6059C205.362 53.1151 207.003 50.9483 208.162 48.1061C209.311 45.2636 209.888 41.8526 209.888 37.8731V36.0928C209.888 32.1563 209.311 28.7668 208.162 25.9458ZM187.418 38.5597C187.418 38.2593 187.418 37.9591 187.418 37.6586V36.318C187.418 31.7809 188.126 28.3056 189.541 25.8922C190.957 23.4788 192.985 22.2667 195.623 22.2667C198.079 22.2667 200 23.3071 201.393 25.3989C201.931 26.1496 201.468 27.1043 201.244 27.3616L190.249 39.6216C189.273 40.7156 187.471 40.0399 187.439 38.5812L187.418 38.5597ZM203.808 37.6586C203.808 42.1636 203.099 45.6174 201.683 48.0309C200.268 50.4443 198.24 51.6563 195.602 51.6563C193.178 51.6563 191.268 50.6374 189.885 48.5994C189.348 47.8592 189.809 46.9154 190.035 46.6471L200.986 34.3657C201.962 33.2717 203.764 33.9367 203.796 35.4062C203.796 35.7066 203.796 36.0175 203.796 36.3287V37.6693L203.808 37.6586Z" fill="white"/>
    <path d="M97.109 51.2638H96.9588C96.3581 51.2638 95.9398 51.1352 95.6717 50.8776C95.4142 50.6203 95.2856 50.1376 95.2856 49.4296V37.9956C95.2856 34.6169 94.2452 32.0426 92.1641 30.2729C90.0833 28.503 87.1658 27.6235 83.4118 27.6235C81.0305 27.6235 78.9389 27.999 77.1369 28.739C75.3349 29.4791 73.8976 30.5303 72.8143 31.8926C71.8596 33.0937 71.259 34.4774 71.0016 36.0435C70.948 36.3652 71.2161 36.6656 71.538 36.6656H76.4075C76.6543 36.6656 76.8581 36.494 76.9224 36.2473C77.2119 35.1747 77.8448 34.2951 78.8423 33.6194C79.9579 32.8578 81.3845 32.4716 83.1328 32.4716C85.0636 32.4716 86.5759 32.9223 87.6484 33.8339C88.7212 34.7457 89.2681 36.0006 89.2681 37.5987V38.7893C89.2681 39.0897 89.0322 39.3257 88.7319 39.3257H82.2426C78.3061 39.3257 75.3027 40.1194 73.2326 41.6962C71.1732 43.2728 70.1328 45.536 70.1328 48.4751C70.1328 50.2234 70.5833 51.7252 71.4735 52.9908C72.3639 54.2565 73.5974 55.2111 75.1847 55.8654C76.7615 56.5197 78.5742 56.8415 80.6229 56.8415C83.3044 56.8415 85.4819 56.2194 87.1766 54.975C87.9167 54.4281 88.5817 53.806 89.1609 53.1301C89.4398 52.7977 89.9868 52.9156 90.0833 53.3339C90.2335 54.0419 90.523 54.664 90.9415 55.1681C91.6815 56.0585 93.0652 56.5089 95.0711 56.5089H97.6559C97.9564 56.5089 98.1923 56.273 98.1923 55.9726V52.1542C98.1923 51.4247 97.9564 51.2638 97.1197 51.2638H97.109ZM89.2574 44.9677C89.2574 46.3405 88.9464 47.5847 88.3136 48.6789C87.6808 49.7729 86.7904 50.631 85.6321 51.2424C84.4843 51.8538 83.0792 52.1649 81.4488 52.1649C79.8184 52.1649 78.5742 51.7787 77.6302 51.0171C76.6865 50.2555 76.2037 49.2796 76.2037 48.089C76.2037 46.641 76.6972 45.5575 77.684 44.8496C78.6709 44.1416 80.0865 43.7878 81.953 43.7878H89.2574V44.9568V44.9677Z" fill="white"/>
  </g>
  <defs>
    <clipPath id="clip0_5146_120809">
      <rect width="210.346" height="79.3757" fill="white" transform="translate(0.859375 0.256836)"/>
    </clipPath>
  </defs>
</svg>