<svg width="437" height="101" viewBox="0 0 437 101" fill="none" xmlns="http://www.w3.org/2000/svg">
<path fill-rule="evenodd" clip-rule="evenodd" d="M168.366 70.7244C170.569 70.7244 172.342 70.2778 173.681 69.3845C175.021 68.4912 176.063 67.3745 176.808 66.0346C177.552 64.6943 178.044 63.2509 178.282 61.7014C178.52 60.1536 178.64 58.724 178.64 57.413C178.64 56.1041 178.52 54.6745 178.282 53.125C178.044 51.5772 177.552 50.1323 176.808 48.7924C176.063 47.4521 175.021 46.3355 173.681 45.4422C172.342 44.5486 170.569 44.1022 168.366 44.1022C166.162 44.1022 164.391 44.5486 163.051 45.4422C161.71 46.3355 160.683 47.4521 159.969 48.7924C159.254 50.1323 158.776 51.5772 158.539 53.125C158.3 54.6745 158.181 56.1041 158.181 57.413C158.181 58.724 158.3 60.1536 158.539 61.7014C158.776 63.2509 159.254 64.6943 159.969 66.0346C160.683 67.3745 161.71 68.4912 163.051 69.3845C164.391 70.2778 166.162 70.7244 168.366 70.7244ZM178.64 39.9806V19.7131H189.271V57.3242C189.271 60.4215 188.972 63.131 188.377 65.4537C187.781 67.7763 186.993 69.7863 186.01 71.4838C185.027 73.1813 183.911 74.5817 182.66 75.683C181.409 76.7856 180.128 77.693 178.818 78.4078C175.721 80.0156 172.237 80.8492 168.366 80.909C164.375 80.8492 160.83 80.0156 157.735 78.4078C156.424 77.693 155.129 76.7856 153.849 75.683C152.567 74.5817 151.436 73.1966 150.454 71.5289C149.471 69.8619 148.681 67.866 148.086 65.5431C147.49 63.2204 147.193 60.5109 147.193 57.413C147.193 54.3169 147.475 51.6065 148.042 49.2836C148.607 46.9609 149.351 44.951 150.275 43.2534C151.198 41.5559 152.24 40.1421 153.402 39.0096C154.563 37.8789 155.769 36.9549 157.02 36.2406C159.879 34.5736 163.153 33.6803 166.847 33.5604C168.693 33.7389 170.479 34.1858 172.207 34.9004C173.695 35.5563 175.214 36.553 176.764 37.893C177.796 38.7863 178.421 39.4824 178.64 39.9806ZM225.899 51.6065C225.6 50.654 225.229 49.7012 224.783 48.7478C224.336 47.7956 223.724 46.9316 222.951 46.157C222.176 45.3833 221.254 44.7719 220.181 44.3255C219.109 43.8789 217.859 43.6553 216.43 43.6553C215 43.6553 213.749 43.8789 212.677 44.3255C211.605 44.7719 210.681 45.3833 209.908 46.157C209.133 46.9316 208.508 47.7956 208.032 48.7478C207.554 49.7012 207.197 50.654 206.96 51.6065H225.899ZM237.156 51.6065C237.275 52.4995 237.379 53.4239 237.468 54.3761C237.558 55.3295 237.602 56.3415 237.602 57.413V59.0211H206.334C206.453 60.0349 206.602 61.0619 206.781 62.1038C206.96 63.146 207.257 64.1738 207.674 65.1858C208.329 66.7353 209.341 68.1046 210.712 69.2951C212.081 70.487 213.986 71.082 216.43 71.082C218.871 71.082 220.776 70.487 222.147 69.2951C223.516 68.1046 224.528 66.7353 225.184 65.1858H236.798C236.321 67.2711 235.651 69.0873 234.788 70.635C233.924 72.1846 232.97 73.5248 231.929 74.6552C230.887 75.7877 229.77 76.7255 228.579 77.4694C227.387 78.2147 226.225 78.8249 225.095 79.3008C222.355 80.3732 219.467 80.909 216.43 80.909C212.439 80.8492 208.894 80.0156 205.798 78.4078C204.487 77.693 203.192 76.7856 201.912 75.683C200.63 74.5817 199.5 73.1966 198.517 71.5289C197.534 69.8619 196.745 67.866 196.15 65.5431C195.554 63.2204 195.257 60.5109 195.257 57.413C195.257 54.3169 195.554 51.6065 196.15 49.2836C196.745 46.9609 197.534 44.951 198.517 43.2534C199.5 41.5559 200.63 40.1421 201.912 39.0096C203.192 37.8789 204.487 36.9549 205.798 36.2406C208.894 34.5736 212.439 33.6803 216.43 33.5604C219.704 33.6803 222.772 34.364 225.631 35.6146C226.822 36.1512 228.028 36.852 229.249 37.7145C230.469 38.5785 231.601 39.6503 232.644 40.9308C233.685 42.2121 234.61 43.7309 235.414 45.4867C236.217 47.2446 236.798 49.2836 237.156 51.6065ZM256.898 80.0156H264.224H271.549L286.29 34.7216H275.301L264.224 68.5805L253.146 34.7216H242.157L256.898 80.0156ZM302.013 45.3528V65.2752C302.192 65.9894 302.517 66.6456 302.995 67.2406C303.411 67.718 303.992 68.165 304.736 68.5808C305.48 68.9979 306.448 69.206 307.64 69.206H314.431V80.0156H303.531C301.207 79.7783 299.124 79.1226 297.277 78.0502C295.727 77.1572 294.314 75.8322 293.034 74.0752C291.753 72.3185 291.114 69.8909 291.114 66.7936V28.5751H302.013V34.7216H312.286V45.3528H302.013ZM321.488 40.6629C320.178 42.4199 319.522 44.8475 319.522 47.9436V80.0159H330.512V49.462C330.688 48.7478 331.017 48.0928 331.494 47.4967C331.91 47.021 332.491 46.5743 333.235 46.1567C333.98 45.7408 334.947 45.5313 336.14 45.5313H344.536V34.7216H332.031C329.706 34.9602 327.623 35.6149 325.776 36.687C324.226 37.5803 322.796 38.9062 321.488 40.6629ZM370.445 44.1019C368.241 44.1019 366.467 44.5489 365.128 45.4422C363.789 46.3352 362.76 47.4521 362.045 48.7921C361.333 50.132 360.855 51.5769 360.618 53.1253C360.377 54.6748 360.26 56.1038 360.26 57.4136C360.26 58.7243 360.377 60.1533 360.618 61.7017C360.855 63.2512 361.333 64.6943 362.045 66.0343C362.76 67.3745 363.789 68.4912 365.128 69.3842C366.467 70.2781 368.241 70.7244 370.445 70.7244C372.646 70.7244 374.419 70.2781 375.758 69.3842C377.1 68.4912 378.126 67.3745 378.841 66.0343C379.556 64.6943 380.031 63.2512 380.272 61.7017C380.509 60.1533 380.629 58.7243 380.629 57.4136C380.629 56.1038 380.509 54.6748 380.272 53.1253C380.031 51.5769 379.556 50.132 378.841 48.7921C378.126 47.4521 377.1 46.3352 375.758 45.4422C374.419 44.5489 372.646 44.1019 370.445 44.1019ZM349.27 57.4136C349.27 54.3175 349.568 51.6062 350.163 49.2833C350.758 46.9606 351.55 44.9507 352.532 43.2531C353.513 41.5556 354.645 40.1421 355.925 39.0096C357.206 37.8789 358.502 36.9552 359.812 36.2403C362.909 34.5733 366.453 33.6803 370.445 33.5601C374.375 33.6803 377.889 34.5733 380.987 36.2403C382.294 36.9552 383.589 37.8789 384.873 39.0096C386.151 40.1421 387.285 41.5556 388.267 43.2531C389.249 44.9507 390.055 46.9606 390.679 49.2833C391.303 51.6062 391.617 54.3175 391.617 57.4136C391.617 60.5109 391.303 63.2201 390.679 65.5431C390.055 67.8657 389.249 69.8622 388.267 71.5286C387.285 73.1968 386.151 74.5814 384.873 75.683C383.589 76.7856 382.294 77.6927 380.987 78.4075C377.889 80.0157 374.375 80.8492 370.445 80.9087C366.453 80.8492 362.909 80.0157 359.812 78.4075C358.502 77.6927 357.206 76.7856 355.925 75.683C354.645 74.5814 353.513 73.1968 352.532 71.5286C351.55 69.8622 350.758 67.8657 350.163 65.5431C349.568 63.2201 349.27 60.5109 349.27 57.4136ZM418.82 33.6498C417.718 33.5906 417.077 33.5601 416.901 33.5601C416.66 33.5601 416.007 33.5906 414.934 33.6498C413.861 33.7093 412.581 33.9622 411.092 34.4089C409.603 34.8558 408.023 35.5566 406.359 36.5082C404.688 37.4619 403.141 38.8312 401.713 40.6181C400.283 42.4044 399.105 44.6535 398.182 47.363C397.258 50.0737 396.798 53.4236 396.798 57.4136V80.0156H407.698V57.4136C407.698 56.1038 407.815 54.7636 408.056 53.3931C408.293 52.0239 408.738 50.7733 409.395 49.6408C410.048 48.5101 410.972 47.5726 412.165 46.8267C413.354 46.0825 414.934 45.71 416.901 45.71C418.864 45.71 420.441 46.0825 421.634 46.8267C422.824 47.5726 423.747 48.5101 424.404 49.6408C425.057 50.7733 425.506 52.0239 425.743 53.3931C425.98 54.7636 426.1 56.1038 426.1 57.4136V80.0156H437V57.4136C437 53.4236 436.537 50.0737 435.617 47.363C434.691 44.6535 433.515 42.4044 432.088 40.6181C430.658 38.8312 429.107 37.4619 427.44 36.5082C425.772 35.5566 424.195 34.8558 422.707 34.4089C421.218 33.9622 419.922 33.7093 418.82 33.6498Z" fill="white"/>
<path fill-rule="evenodd" clip-rule="evenodd" d="M22.035 89.6522L1.35724 57.098C-0.428594 54.2994 -0.453608 50.725 1.29113 47.9L27.9526 4.7453C29.6697 1.96605 32.7072 0.279376 35.9732 0.290953L74.4637 0.428583C74.5505 0.428583 74.6361 0.43125 74.7211 0.435734C78.4739 0.628698 80.5322 4.92399 78.4625 8.06147L51.75 48.5406C50.7459 50.606 48.4116 51.9023 45.8664 51.3199C43.9822 50.8894 42.4582 49.351 42.0374 47.465C41.749 46.1705 41.948 44.9369 42.4805 43.905L42.4822 43.9006L42.484 43.8959L42.4905 43.8862C42.6493 43.5823 42.8369 43.2957 43.0497 43.0304L47.117 36.8125C48.3222 35.0197 47.1994 32.5877 45.0526 32.3412L35.2763 31.5989C33.4621 31.4605 31.6699 32.076 30.3226 33.2999C28.553 35.3699 20.6941 48.0474 17.1063 53.9902C15.9485 55.9081 16.0879 58.3031 17.3859 60.1293L17.3413 60.1507L29.7904 79.7012L32.1257 83.4104C32.3686 83.7231 32.5811 84.0599 32.759 84.4172L32.8464 84.5555L32.8402 84.5868C33.2986 85.5839 33.4914 86.7284 33.3226 87.9297C32.968 90.4473 30.956 92.5334 28.4476 92.9522C25.6487 93.4206 23.1338 91.9402 22.035 89.6522ZM91.0187 11.3604L111.841 43.8226C113.639 46.6133 113.68 50.1877 111.948 53.0198L85.4797 96.2933C83.7752 99.0797 80.745 100.781 77.4786 100.783L38.9881 100.818C38.9017 100.818 38.8158 100.816 38.7311 100.812C34.9771 100.636 32.9 96.3496 34.9557 93.2031L61.4867 52.6042C62.482 50.5353 64.81 49.2282 67.358 49.7991C69.2437 50.2217 70.775 51.7528 71.2038 53.637C71.4986 54.9307 71.3046 56.1642 70.7768 57.1997L70.7741 57.2079L70.7668 57.2176C70.6097 57.5232 70.4239 57.8099 70.2111 58.076L66.1725 64.3127C64.9753 66.1111 66.1089 68.5375 68.2566 68.774L78.0352 69.4736C79.8514 69.6031 81.6401 68.9797 82.9827 67.7503C84.7426 65.6723 92.5444 52.9597 96.1054 47.0011C97.2551 45.0776 97.1059 42.6834 95.7991 40.8637L95.8436 40.8414L83.3071 21.3464L80.9557 17.6479C80.711 17.3361 80.4965 17.0002 80.3171 16.6437L80.2295 16.5062L80.2356 16.4749C79.7729 15.4797 79.5756 14.3362 79.7389 13.1337C80.0812 10.6144 82.0841 8.52041 84.5908 8.08981C87.388 7.60916 89.9091 9.07787 91.0187 11.3604Z" fill="white"/>
</svg>
