<svg width="355" height="102" viewBox="0 0 355 102" fill="none" xmlns="http://www.w3.org/2000/svg">
<path fill-rule="evenodd" clip-rule="evenodd" d="M78.1745 40.6917C78.1745 43.4214 74.8607 44.773 72.9517 42.822L33.8702 2.8784C39.1546 1.0142 44.8403 0 50.7626 0C60.8597 0 70.2684 2.94796 78.1745 8.03014V40.6917ZM92.388 21.7003V40.6917C92.388 56.1591 73.6092 63.8178 62.792 52.762L20.7647 9.80758C8.17394 19.0454 0 33.9494 0 50.7626C0 61.572 3.37856 71.5923 9.13728 79.8249V60.9351C9.13728 45.4678 27.916 37.809 38.7333 48.8648L80.7028 91.7602C93.3264 82.5255 101.525 67.6016 101.525 50.7626C101.525 39.9533 98.1469 29.933 92.388 21.7003ZM28.5736 58.8048L67.581 98.6728C62.3176 100.521 56.6575 101.525 50.7626 101.525C40.6656 101.525 31.2571 98.5773 23.3508 93.4953V60.9351C23.3508 58.2055 26.6647 56.8538 28.5736 58.8048ZM164.912 75.5775V47.6979C164.912 42.8867 163.758 39.2287 161.449 36.7241C159.14 34.2194 155.512 32.9672 150.565 32.9672C147.2 32.9672 144.529 33.2967 142.55 33.9558C140.571 34.5491 139.318 34.9775 138.79 35.2411V75.5775H128.599V28.7161C128.863 28.5842 129.588 28.2877 130.775 27.8263C131.963 27.3649 133.546 26.8706 135.525 26.3433C137.504 25.8161 139.812 25.3547 142.451 24.9592C145.09 24.5638 147.992 24.3661 151.158 24.3661C154.786 24.3661 158.085 24.8604 161.053 25.849C164.021 26.7717 166.528 28.1229 168.573 29.9024C170.684 31.682 172.3 33.824 173.421 36.3285C174.543 38.8331 175.103 41.6673 175.103 44.8309V75.5775H164.912ZM239.4 61.2421C240.719 58.0126 241.379 54.5194 241.379 50.7626C241.379 47.0059 240.719 43.5127 239.4 40.2832C238.146 37.0537 236.366 34.2854 234.057 31.9786C231.748 29.6058 228.978 27.7604 225.745 26.4422C222.513 25.0581 218.951 24.3661 215.059 24.3661C211.167 24.3661 207.572 25.0581 204.274 26.4422C201.042 27.7604 198.271 29.6058 195.962 31.9786C193.654 34.2854 191.84 37.0537 190.521 40.2832C189.267 43.5127 188.64 47.0059 188.64 50.7626C188.64 54.5194 189.267 58.0126 190.521 61.2421C191.84 64.4716 193.654 67.273 195.962 69.6457C198.271 71.9523 201.042 73.7977 204.274 75.1818C207.572 76.5 211.167 77.1592 215.059 77.1592C218.951 77.1592 222.513 76.5 225.745 75.1818C228.978 73.7977 231.748 71.9523 234.057 69.6457C236.366 67.273 238.146 64.4716 239.4 61.2421ZM229.703 43.5456C230.429 45.7206 230.792 48.1264 230.792 50.7626C230.792 53.3989 230.429 55.8376 229.703 58.0786C228.978 60.2536 227.922 62.165 226.537 63.8127C225.217 65.3945 223.568 66.6466 221.59 67.5695C219.677 68.4264 217.5 68.8548 215.059 68.8548C212.553 68.8548 210.309 68.4264 208.331 67.5695C206.418 66.6466 204.769 65.3945 203.383 63.8127C202.064 62.165 201.042 60.2536 200.316 58.0786C199.59 55.8376 199.228 53.3989 199.228 50.7626C199.228 48.1264 199.59 45.7206 200.316 43.5456C201.042 41.3046 202.064 39.3932 203.383 37.8114C204.769 36.1637 206.418 34.9115 208.331 34.0546C210.309 33.132 212.553 32.6706 215.059 32.6706C217.5 32.6706 219.677 33.132 221.59 34.0546C223.568 34.9115 225.217 36.1637 226.537 37.8114C227.922 39.3932 228.978 41.3046 229.703 43.5456ZM300.601 28.1229C300.206 29.5729 299.513 31.5172 298.523 33.9558C297.6 36.3285 296.511 38.9979 295.258 41.9638C294.005 44.9297 292.62 48.0604 291.102 51.3559C289.651 54.5854 288.167 57.7489 286.65 60.8468C285.199 63.8787 283.78 66.7454 282.395 69.4477C281.076 72.0843 279.922 74.2921 278.932 76.0719H268.345C267.157 73.9625 265.904 71.6559 264.585 69.1512C263.332 66.581 262.045 64.0103 260.726 61.4401C259.473 58.8034 258.252 56.2 257.065 53.6297C255.878 51.0591 254.756 48.6865 253.701 46.5114C252.711 44.2704 251.821 42.2934 251.029 40.5797C250.304 38.8659 249.743 37.5478 249.347 36.6252C248.952 35.7024 248.556 34.7139 248.16 33.6593C247.764 32.6047 247.566 31.6161 247.566 30.6933C247.566 29.507 247.962 28.4195 248.754 27.4308C249.545 26.4422 250.897 25.9479 252.81 25.9479C254.13 25.9479 255.152 26.0797 255.878 26.3433C256.603 26.607 256.999 26.7717 257.065 26.8377C258.186 29.9354 259.473 33.3297 260.924 37.0205C262.441 40.7116 263.958 44.3696 265.475 47.9944C267.059 51.5535 268.576 54.9807 270.027 58.2762C271.478 61.5057 272.764 64.2411 273.886 66.4818C274.677 64.966 275.7 62.8239 276.953 60.0559C278.272 57.2217 279.625 54.1241 281.01 50.7626C282.461 47.4011 283.912 43.9412 285.364 40.382C286.815 36.8229 288.101 33.5604 289.223 30.5945C289.75 29.1445 290.41 28.024 291.201 27.2331C291.993 26.3763 293.312 25.9479 295.159 25.9479C296.743 25.9479 297.996 26.2445 298.919 26.8377C299.909 27.4308 300.47 27.8593 300.601 28.1229ZM346.194 27.1343C345.27 27.8593 344.807 29.0126 344.807 30.5945V67.7671C344.282 67.8991 343.291 68.0639 341.839 68.2615C340.455 68.3932 338.607 68.4592 336.299 68.4592C330.231 68.4592 325.91 67.207 323.337 64.7024C320.831 62.1978 319.577 58.441 319.577 53.4321V26.9365C319.248 26.8047 318.621 26.607 317.697 26.3433C316.84 26.0797 315.85 25.9479 314.729 25.9479C313.014 25.9479 311.694 26.3433 310.771 27.1343C309.848 27.8593 309.386 29.0126 309.386 30.5945V54.5194C309.386 60.3196 310.738 64.966 313.443 68.4592C315.619 71.2274 318.555 73.3364 322.249 74.7866C326.009 76.2364 330.89 76.9616 336.893 76.9616C338.939 76.9616 340.949 76.8956 342.929 76.7636C344.908 76.698 346.722 76.566 348.37 76.3683C350.018 76.2364 351.406 76.1047 352.526 75.9727C353.714 75.8411 354.54 75.7091 355 75.5775V26.9365C354.672 26.8047 354.042 26.607 353.118 26.3433C352.262 26.0797 351.274 25.9479 350.15 25.9479C348.438 25.9479 347.118 26.3433 346.194 27.1343Z" fill="white"/>
</svg>
