<svg width="407" height="115" viewBox="0 0 407 115" fill="none" xmlns="http://www.w3.org/2000/svg">
<path d="M65.004 36.9495C68.1017 38.8166 71.1403 40.78 74.1153 42.837C75.5064 43.7951 75.4252 45.8196 73.98 46.7269C71.0153 48.5753 68.0113 50.3599 64.9702 52.0795C63.7991 52.7498 62.4114 52.2792 61.7515 51.1755C61.0475 49.9974 61.3182 48.6093 62.5367 47.8306C63.7172 47.0712 64.9278 46.3569 66.2015 45.6055C66.7389 45.2884 67.2881 44.9644 67.8505 44.6279C67.3523 44.3027 66.8672 43.9849 66.3909 43.6728C65.182 42.8808 64.0286 42.1251 62.8684 41.3846C62.0493 40.8632 61.5281 40.2064 61.5145 39.1907C61.4875 37.2915 63.3794 35.9745 65.004 36.9495Z" fill="white"/>
<path d="M47.4583 45.6658C48.558 46.3181 49.5874 46.9286 50.6094 47.5496C52.1359 48.4739 52.6029 49.8958 51.8245 51.1789C51.0562 52.4485 49.6076 52.6889 48.054 51.7782C45.4282 50.2347 42.8006 48.6902 40.1917 47.1264C37.9646 45.7925 37.924 43.7815 40.0901 42.3664C42.6759 40.677 45.2685 39.0011 47.8645 37.3321C49.4113 36.3333 50.8226 36.4959 51.6688 37.7383C52.5488 39.0384 52.1426 40.44 50.5519 41.4827C49.4706 42.1951 48.3826 42.899 47.2219 43.65L47.2161 43.6537C46.7292 43.9688 46.2294 44.2922 45.7119 44.6279C46.3179 44.9893 46.8973 45.333 47.4583 45.6658Z" fill="white"/>
<path fill-rule="evenodd" clip-rule="evenodd" d="M35.223 5.13692C42.1498 2.26674 49.5769 0.799201 57.0744 0.819211C64.5726 0.798753 72.0003 2.26608 78.9277 5.13627C85.8551 8.00646 92.1446 12.2225 97.4322 17.5404C108.212 28.3233 114.152 42.6611 114.152 57.9095C114.172 65.4094 112.704 72.8388 109.834 79.7676C106.964 86.6964 102.749 92.987 97.4322 98.2752C86.6557 109.062 72.3186 115 57.0744 115C49.5769 115.02 42.1498 113.552 35.223 110.682C28.2962 107.812 22.0072 103.596 16.72 98.2786C5.93676 87.4957 0.000205873 73.158 0.000205873 57.9095C-0.0200001 50.409 1.44737 42.979 4.31735 36.0496C7.18732 29.1202 11.4029 22.829 16.72 17.5404C22.0072 12.2229 28.2962 8.00709 35.223 5.13692ZM83.6402 84.1437L94.8567 83.2364L98.5967 82.9046C99.1019 82.9143 99.604 82.8218 100.073 82.6329C100.541 82.4439 100.967 82.1622 101.325 81.8048C101.682 81.4474 101.964 81.0215 102.153 80.5527C102.342 80.0838 102.434 79.5817 102.424 79.0762C102.415 78.5708 102.303 78.0725 102.097 77.6112C101.89 77.1498 101.593 76.7349 101.222 76.3913C100.851 76.0476 100.415 75.7823 99.9398 75.6112C99.4642 75.4401 98.9591 75.3668 98.4545 75.3955L94.7078 75.233L86.3039 74.5017C85.2178 74.3209 84.2292 73.7655 83.5096 72.9319C82.7901 72.0984 82.3848 71.0392 82.3642 69.938L81.8802 43.9947C81.7568 37.3475 78.9986 31.0217 74.2124 26.4087C69.4262 21.7958 63.004 19.2736 56.3588 19.3971C49.7135 19.5205 43.3894 22.2795 38.7778 27.0671C34.1661 31.8546 31.6446 38.2786 31.7681 44.9257L32.2521 70.8724C32.2721 71.9734 31.9064 73.0466 31.2184 73.9061C30.5304 74.7656 29.5634 75.3572 28.485 75.5783L20.115 76.6211L16.375 76.9258C15.405 76.9809 14.4941 77.4097 13.8334 78.1222C13.1727 78.8347 12.8137 79.7755 12.8317 80.7471C12.8496 81.7188 13.2432 82.6457 13.9297 83.3333C14.6163 84.0209 15.5424 84.4157 16.5138 84.4349L20.2673 84.6279L31.5041 85.1154C32.7767 85.0917 33.9207 84.5703 34.7533 83.7375L38.6692 79.6647L42.5581 75.7375C42.7895 75.5262 43.0609 75.3634 43.3562 75.2587C43.6515 75.1541 43.9647 75.1096 44.2775 75.1281C44.8365 75.1548 45.3672 75.3819 45.7724 75.768C46.1777 76.1541 46.4304 76.6733 46.4842 77.2305C46.5372 77.7993 46.3913 78.3688 46.0713 78.842L39.3123 87.5361L36.8822 90.3968C36.5194 90.7477 36.2309 91.1681 36.0341 91.6329C35.8373 92.0977 35.7361 92.5974 35.7366 93.1022C35.7371 93.607 35.8392 94.1065 36.0369 94.5709C36.2347 95.0354 36.5239 95.4552 36.8874 95.8054C37.2509 96.1555 37.6811 96.4288 38.1526 96.609C38.624 96.7892 39.1268 96.8725 39.6311 96.854C40.1354 96.8355 40.6308 96.7156 41.0878 96.5013C41.5447 96.2871 41.9539 95.983 42.2907 95.6072L45.0763 93.0917L55.9644 83.0875C56.3829 82.6748 56.9437 82.4385 57.5312 82.4271C58.1187 82.4158 58.6882 82.6303 59.1223 83.0265L59.6367 83.4666L70.3726 92.6211L73.2495 95.0316C73.6016 95.3887 74.0216 95.6718 74.4847 95.864C74.9478 96.0562 75.4447 96.1538 75.9461 96.1509C76.4475 96.148 76.9433 96.0447 77.4042 95.8472C77.8651 95.6497 78.2817 95.3618 78.6297 95.0007C78.9776 94.6396 79.2498 94.2124 79.4301 93.7444C79.6104 93.2764 79.6952 92.777 79.6796 92.2757C79.6639 91.7744 79.5481 91.2813 79.339 90.8255C79.1298 90.3696 78.8316 89.9603 78.4618 89.6215L75.9267 86.8556L68.8056 78.3376C68.4929 77.8963 68.3422 77.3605 68.3791 76.8208C68.412 76.2621 68.6449 75.734 69.0353 75.333C69.4256 74.932 69.9472 74.685 70.5046 74.6372C70.8171 74.6073 71.1323 74.6404 71.4317 74.7346C71.7311 74.8288 72.0086 74.9822 72.2477 75.1856L76.2753 78.9673L80.3436 82.8877C81.2376 83.7188 82.4199 84.1693 83.6402 84.1437Z" fill="white"/>
<path fill-rule="evenodd" clip-rule="evenodd" d="M165.947 33.3234C161.824 30.466 155.874 29.0373 148.096 29.0373C145.683 29.0487 143.271 29.1401 140.864 29.3116C138.302 29.4748 135.755 29.8256 133.245 30.3611V83.6325H143.043V63.1974H149.264C149.888 63.1936 150.511 63.1676 151.132 63.1195C153.483 66.1278 155.701 69.2376 157.78 72.4399C158.966 74.2656 160.121 76.1121 161.242 77.9787C162.357 79.8332 163.42 81.7186 164.43 83.6325H175.396C174.462 81.6046 173.4 79.5394 172.208 77.4302C169.907 73.3846 167.388 69.4663 164.664 65.6925C163.418 63.9761 162.301 62.5237 161.32 61.3252C168.526 58.7251 172.13 53.7585 172.13 46.4255C172.13 40.5549 170.069 36.1842 165.947 33.3234ZM143.043 37.772C144.803 37.6163 146.722 37.5384 148.797 37.5384C150.568 37.5262 152.337 37.669 154.084 37.965C155.545 38.2007 156.954 38.6899 158.247 39.4106C159.379 40.0511 160.309 40.9965 160.931 42.1394C161.553 43.2837 161.865 44.6887 161.865 46.351C161.865 48.1182 161.553 49.574 160.931 50.7183C160.308 51.8626 159.387 52.7733 158.169 53.4471C156.95 54.1242 155.434 54.5914 153.62 54.8521C151.802 55.1127 149.704 55.2414 147.321 55.2414H143.043V37.772Z" fill="white"/>
<path d="M269.806 35.1212C270.943 34.0784 271.512 32.6768 271.512 30.9062C271.512 29.0881 270.943 27.6594 269.806 26.6167C268.662 25.5773 267.318 25.0593 265.761 25.0593C264.154 25.0593 262.78 25.5773 261.639 26.6167C260.495 27.656 259.926 29.0881 259.926 30.9062C259.926 32.6768 260.495 34.0784 261.639 35.1212C262.78 36.1605 264.154 36.6785 265.761 36.6785C267.315 36.6785 268.662 36.1605 269.806 35.1212Z" fill="white"/>
<path fill-rule="evenodd" clip-rule="evenodd" d="M201.522 42.9959C199.396 42.2172 196.784 41.8245 193.67 41.8245C191.219 41.8122 188.772 42.024 186.359 42.4508C184.074 42.8673 182.338 43.2837 181.147 43.7001L182.311 51.3413C183.452 50.9282 184.931 50.5626 186.745 50.2511C188.562 49.9396 190.559 49.7839 192.736 49.7839C194.343 49.7839 195.677 49.9904 196.74 50.4068C197.727 50.7705 198.61 51.373 199.308 52.1606C199.957 52.9158 200.422 53.8101 200.669 54.7742C200.926 55.7628 201.055 56.8021 201.055 57.8956V59.453C199.759 59.1415 198.54 58.9215 197.4 58.7894C194.169 58.4277 190.9 58.5866 187.72 59.26C185.672 59.7001 183.871 60.428 182.314 61.4437C180.779 62.4357 179.51 63.7887 178.619 65.3845C177.711 66.9926 177.258 68.9697 177.258 71.3091C177.258 73.7535 177.661 75.8085 178.463 77.4708C179.221 79.0811 180.371 80.4756 181.807 81.5267C183.235 82.5694 184.958 83.321 186.978 83.7882C189.002 84.2554 191.233 84.489 193.67 84.489C196.987 84.5144 200.302 84.2938 203.587 83.8289C205.787 83.5142 207.977 83.1372 210.156 82.6981V57.9735C210.156 55.5799 209.882 53.3827 209.34 51.3819C208.795 49.381 207.888 47.6781 206.619 46.2731C205.347 44.8681 203.651 43.7746 201.522 42.9959ZM201.058 76.533C199.556 76.8479 197.352 77.0036 194.445 77.0036C192.062 77.0036 190.17 76.5736 188.769 75.7137C187.368 74.8572 186.667 73.31 186.667 71.0755C186.667 69.9312 186.928 68.9833 187.446 68.2283C187.968 67.4724 188.68 66.8675 189.51 66.4746C190.363 66.0582 191.324 65.7704 192.387 65.6181C193.43 65.4625 194.483 65.3833 195.538 65.3811C197.401 65.3685 199.257 65.6042 201.058 66.0819V76.533Z" fill="white"/>
<path fill-rule="evenodd" clip-rule="evenodd" d="M254.112 71.8542C254.914 69.2575 255.32 66.3967 255.32 63.2753C255.32 60.0015 254.839 57.0493 253.881 54.4221C252.997 51.9203 251.592 49.6345 249.759 47.7153C247.969 45.8702 245.802 44.4551 243.261 43.4665C240.722 42.4779 237.845 41.9836 234.63 41.9836C231.66 41.972 228.694 42.2064 225.762 42.6844C222.963 43.1516 220.604 43.6493 218.689 44.1673V98.0616H228.098V82.2309C229.36 82.8924 230.69 83.4146 232.064 83.7882C233.672 84.2554 235.435 84.4924 237.351 84.4924C240.204 84.4924 242.756 83.971 245.014 82.9283C247.268 81.8923 249.15 80.4332 250.653 78.561C252.155 76.6921 253.309 74.4577 254.112 71.8542ZM242.838 53.6028C244.726 55.9456 245.674 59.2194 245.674 63.431C245.674 67.3853 244.882 70.5305 243.301 72.8699C241.721 75.2093 239.216 76.3807 235.798 76.3807C234.241 76.3807 232.775 76.1335 231.404 75.6392C230.027 75.145 228.927 74.6134 228.098 74.0379V50.7183C229.025 50.459 229.975 50.289 230.934 50.2105C231.895 50.1326 232.816 50.0954 233.699 50.0954C237.896 50.0954 240.942 51.2668 242.838 53.6028Z" fill="white"/>
<path d="M270.429 83.6325H261.02V42.8402H270.429V83.6325Z" fill="white"/>
<path fill-rule="evenodd" clip-rule="evenodd" d="M354.752 77.3659C355.337 79.0629 355.946 80.7513 356.58 82.4306H362.632C361.222 78.5409 359.795 74.6577 358.35 70.781C357.017 67.2126 355.713 63.8271 354.437 60.621C353.165 57.4149 351.899 54.351 350.643 51.4327C349.388 48.5143 348.074 45.6231 346.704 42.7589H341.623C340.256 45.6231 338.939 48.5143 337.684 51.4327C336.428 54.351 335.162 57.4149 333.89 60.621C332.614 63.8271 331.311 67.2126 329.977 70.7844C328.647 74.3494 327.222 78.2326 325.699 82.4306H331.463L335.061 72.2977H352.982C353.591 74.0142 354.18 75.707 354.752 77.3659ZM347.76 58.0717C348.958 61.183 350.166 64.3993 351.388 67.7171L351.385 67.7205H336.658C337.836 64.3993 339.027 61.1864 340.226 58.0717C341.389 55.0436 342.654 52.0558 344.02 49.1136C345.351 52.0635 346.598 55.0508 347.76 58.0717Z" fill="white"/>
<path fill-rule="evenodd" clip-rule="evenodd" d="M391.028 45.5351C388.04 43.4191 383.765 42.3594 378.214 42.3594C376.617 42.3594 374.853 42.4238 372.934 42.5592C371.012 42.6946 369.269 42.9519 367.708 43.3311V82.4306H373.246V67.7205H377.642C380.418 67.7205 382.912 67.4903 385.119 67.0298C387.325 66.5762 389.2 65.8415 390.744 64.8292C392.284 63.817 393.462 62.5034 394.281 60.8783C395.1 59.2566 395.509 57.2998 395.509 55.0112C395.509 50.8131 394.017 47.6544 391.028 45.5351ZM373.246 47.3937C374.505 47.282 376.309 47.2244 378.668 47.2244C380.083 47.2195 381.496 47.335 382.892 47.5698C384.127 47.7639 385.318 48.1802 386.405 48.7987C387.394 49.3725 388.219 50.1909 388.801 51.1754C389.39 52.1673 389.688 53.4301 389.688 54.9536C389.688 56.555 389.4 57.872 388.832 58.9045C388.26 59.9337 387.451 60.7463 386.405 61.3354C385.359 61.9278 384.073 62.3476 382.55 62.5948C380.851 62.8561 379.134 62.9807 377.415 62.9672H373.246V47.3937Z" fill="white"/>
<path d="M407 82.4306H401.463V42.7589H407V82.4306Z" fill="white"/>
<path fill-rule="evenodd" clip-rule="evenodd" d="M308.424 83.944C311.254 83.4768 313.599 82.9588 315.464 82.3832V26.593H306.055V44.2452C304.965 43.673 303.669 43.1516 302.166 42.6844C300.66 42.2172 298.924 41.9803 296.954 41.9803C294.05 41.9803 291.484 42.4881 289.257 43.5037C287.058 44.494 285.115 45.9753 283.578 47.8338C282.024 49.7027 280.843 51.954 280.041 54.5778C279.235 57.205 278.833 60.1301 278.833 63.3531C278.833 66.6303 279.313 69.5825 280.271 72.2063C281.155 74.7087 282.56 76.9948 284.393 78.9131C286.224 80.7875 288.442 82.2388 290.892 83.1653C293.43 84.1539 296.307 84.6482 299.523 84.6482C302.633 84.6482 305.601 84.4112 308.424 83.944ZM291.433 72.9071C289.46 70.544 288.479 67.2804 288.479 63.1195C288.479 59.1178 289.267 55.9456 290.851 53.6028C292.432 51.2634 294.936 50.092 298.355 50.092C299.851 50.0834 301.338 50.3354 302.748 50.8368C304.126 51.3311 305.226 51.8626 306.055 52.4348V75.8322C305.378 75.9913 304.511 76.1335 303.449 76.2622C302.386 76.3908 301.103 76.4552 299.6 76.4552C296.124 76.4552 293.403 75.277 291.433 72.9071Z" fill="white"/>
</svg>
