<svg width="68" height="68" viewBox="0 0 68 68" fill="none" xmlns="http://www.w3.org/2000/svg">
<rect width="68" height="68" fill="#FD366E"/>
<path d="M54.9999 43.2352V52.6469H31.4749C24.6211 52.6469 18.6367 48.8617 15.435 43.2352C14.9695 42.4173 14.5622 41.5591 14.2204 40.6684C13.5496 38.9229 13.1279 37.05 13 35.0958V32.5512C13.0278 32.1157 13.0715 31.6836 13.1288 31.2567C13.2458 30.3805 13.4225 29.5232 13.6548 28.6898C15.8525 20.7891 22.9983 15 31.4749 15C39.9515 15 47.0965 20.7891 49.2941 28.6898H39.2352C37.5838 26.1144 34.7254 24.4117 31.4749 24.4117C28.2244 24.4117 25.366 26.1144 23.7146 28.6898C23.2112 29.4727 22.8207 30.336 22.5649 31.2567C22.3376 32.0729 22.2164 32.9336 22.2164 33.8234C22.2164 36.5212 23.3325 38.9529 25.1219 40.6684C26.78 42.2607 29.0155 43.2352 31.4749 43.2352H54.9999Z" fill="white"/>
<path d="M55.0001 31.2566V40.6683H37.8281C39.6175 38.9528 40.7336 36.5212 40.7336 33.8234C40.7336 32.9336 40.6124 32.0728 40.3851 31.2566H55.0001Z" fill="white"/>
</svg>
