<svg width="104" height="104" viewBox="0 0 104 104" fill="none" xmlns="http://www.w3.org/2000/svg">
<rect width="104" height="104" rx="3.00014" fill="white"/>
<path d="M52.0021 62.8625V54.4189C60.9394 54.4189 67.877 45.5556 64.4452 36.1492C63.1861 32.6928 60.3963 29.9029 56.9152 28.6438C47.5087 25.2368 38.6454 32.1496 38.6454 41.087H30.2266C30.2266 26.8415 44.0029 15.7316 58.9396 20.3978C65.4575 22.4469 70.6668 27.6316 72.6913 34.1494C77.3575 49.0861 66.2475 62.8625 52.0021 62.8625Z" fill="#0080FF"/>
<path fill-rule="evenodd" clip-rule="evenodd" d="M52.0263 54.468H43.6074V46.0491H52.0263V54.468Z" fill="#0080FF"/>
<path fill-rule="evenodd" clip-rule="evenodd" d="M43.6078 60.9102H37.1641V54.4664H43.6078V60.9102Z" fill="#0080FF"/>
<path fill-rule="evenodd" clip-rule="evenodd" d="M37.1647 54.4663H31.7578V49.0594H37.1647V54.4663Z" fill="#0080FF"/>
<path d="M16.0034 71.6983C14.9171 70.933 13.5346 70.5626 11.9545 70.5626H8.49805V81.5491H11.9792C13.5593 81.5491 14.9418 81.1541 16.0281 80.3394C16.6207 79.9197 17.0897 79.3271 17.4354 78.5865C17.7563 77.8458 17.9292 76.957 17.9292 75.9942C17.9292 75.0313 17.7563 74.1672 17.4354 73.4265C17.0897 72.6859 16.6207 72.0933 16.0034 71.6983ZM10.5225 72.4143H11.6088C12.8186 72.4143 13.8061 72.6612 14.5715 73.1303C15.4109 73.6487 15.8306 74.6116 15.8306 75.9942C15.8306 77.4261 15.4109 78.4384 14.5715 78.9815C13.8555 79.4506 12.868 79.6975 11.6335 79.6975H10.5225V72.4143Z" fill="#0080FF"/>
<path d="M20.323 70.4132C19.9774 70.4132 19.7058 70.5367 19.4589 70.7589C19.2367 70.9811 19.1133 71.2526 19.1133 71.5983C19.1133 71.9439 19.2367 72.2155 19.4589 72.4624C19.6811 72.6846 19.9774 72.808 20.323 72.808C20.644 72.808 20.9403 72.6846 21.1871 72.4624C21.4093 72.2402 21.5328 71.9439 21.5328 71.5983C21.5328 71.2526 21.4093 70.9811 21.1871 70.7589C20.9403 70.5367 20.644 70.4132 20.323 70.4132Z" fill="#0080FF"/>
<path d="M21.2864 73.7958H19.3359V81.5481H21.2864V73.7958Z" fill="#0080FF"/>
<path d="M28.3757 74.436C27.7832 73.9175 27.1413 73.5966 26.4253 73.5966C25.339 73.5966 24.4502 73.9669 23.7589 74.7076C23.0676 75.4235 22.6973 76.3617 22.6973 77.4974C22.6973 78.5837 23.0429 79.5219 23.7342 80.2625C24.4255 80.9785 25.339 81.3488 26.4006 81.3488C27.1413 81.3488 27.8078 81.1513 28.3263 80.7316V80.9044C28.3263 81.5464 28.1535 82.0401 27.8078 82.3858C27.4622 82.7314 26.9931 82.9042 26.4006 82.9042C25.5118 82.9042 24.9439 82.5586 24.2527 81.6204L22.9195 82.9042L22.9442 82.9536C23.2404 83.3486 23.6601 83.7437 24.2527 84.114C24.8205 84.4843 25.5612 84.6818 26.4253 84.6818C27.5856 84.6818 28.5238 84.3362 29.2151 83.6202C29.9064 82.9042 30.252 81.9661 30.252 80.8057V73.7694H28.3263V74.436H28.3757ZM27.8572 79.0281C27.5116 79.4231 27.0672 79.5959 26.524 79.5959C25.9562 79.5959 25.5365 79.3984 25.1908 79.0281C24.8452 78.6331 24.6971 78.1393 24.6971 77.5221C24.6971 76.8802 24.8699 76.3864 25.1908 75.9914C25.5118 75.5964 25.9809 75.4235 26.524 75.4235C27.0919 75.4235 27.5116 75.621 27.8572 75.9914C28.2029 76.3864 28.3757 76.9049 28.3757 77.5221C28.3757 78.1393 28.2029 78.6331 27.8572 79.0281Z" fill="#0080FF"/>
<path d="M33.9055 73.7958H31.9551V81.5481H33.9055V73.7958Z" fill="#0080FF"/>
<path d="M32.9422 70.4132C32.5965 70.4132 32.325 70.5367 32.0781 70.7589C31.8559 70.9811 31.7324 71.2526 31.7324 71.5983C31.7324 71.9439 31.8559 72.2155 32.0781 72.4624C32.3003 72.6846 32.5965 72.808 32.9422 72.808C33.2631 72.808 33.5594 72.6846 33.8063 72.4624C34.0285 72.2402 34.1519 71.9439 34.1519 71.5983C34.1519 71.2526 34.0285 70.9811 33.8063 70.7589C33.5594 70.5367 33.2878 70.4132 32.9422 70.4132Z" fill="#0080FF"/>
<path d="M38.1734 71.6965H36.2477V73.7951H35.1367V75.5727H36.2477V78.7822C36.2477 79.7945 36.4452 80.5104 36.8402 80.9301C37.2353 81.3499 37.9512 81.5474 38.9388 81.5474C39.2597 81.5474 39.5807 81.5474 39.877 81.5227H39.9757V79.7451L39.3091 79.7698C38.84 79.7698 38.5438 79.6957 38.3956 79.5229C38.2475 79.3501 38.1734 79.0044 38.1734 78.486V75.548H40.0004V73.7704H38.1734V71.6965Z" fill="#0080FF"/>
<path d="M51.0852 70.5348H49.1348V81.546H51.0852V70.5348Z" fill="#0080FF"/>
<path d="M70.7898 78.7831C70.4442 79.1781 70.0739 79.5238 69.8023 79.6966C69.5307 79.8694 69.1851 79.9682 68.7901 79.9682C68.2222 79.9682 67.7531 79.7706 67.3828 79.3263C67.0125 78.9065 66.8149 78.3387 66.8149 77.6968C66.8149 77.0302 67.0125 76.487 67.3828 76.0673C67.7531 75.6476 68.2222 75.4254 68.7901 75.4254C69.4073 75.4254 70.0739 75.8204 70.6417 76.487L71.9255 75.2526C71.0861 74.1663 70.0245 73.6478 68.7407 73.6478C67.6791 73.6478 66.7409 74.0429 65.9755 74.8082C65.2102 75.5736 64.8398 76.5364 64.8398 77.6968C64.8398 78.8572 65.2349 79.82 65.9755 80.5854C66.7409 81.3507 67.6544 81.7458 68.7407 81.7458C70.1479 81.7458 71.2836 81.1285 72.0737 80.0175L70.7898 78.7831Z" fill="#0080FF"/>
<path d="M78.8099 74.8806C78.5383 74.4856 78.168 74.1893 77.6989 73.9671C77.2298 73.7449 76.6866 73.6215 76.0941 73.6215C75.0078 73.6215 74.119 74.0165 73.4524 74.8065C72.8105 75.5966 72.4648 76.5594 72.4648 77.7198C72.4648 78.9049 72.8352 79.8677 73.5265 80.6084C74.2424 81.3491 75.1806 81.7194 76.341 81.7194C77.6495 81.7194 78.7358 81.1762 79.5505 80.1393L79.5999 80.0899L78.3161 78.8555C78.1926 79.0036 78.0198 79.1518 77.8717 79.2999C77.6742 79.4727 77.5014 79.6208 77.3039 79.7196C77.0076 79.8677 76.6866 79.9418 76.3163 79.9418C75.7731 79.9418 75.3287 79.7937 74.9831 79.4727C74.6621 79.1764 74.4646 78.7814 74.4153 78.2876H79.5752L79.5999 77.5717C79.5999 77.0779 79.5258 76.5841 79.4024 76.1397C79.279 75.6953 79.0814 75.2756 78.8099 74.8806ZM74.5387 76.7076C74.6375 76.3372 74.8103 76.0163 75.0572 75.7941C75.3287 75.5225 75.6744 75.3991 76.0694 75.3991C76.5385 75.3991 76.9088 75.5225 77.1557 75.7941C77.3779 76.041 77.526 76.3372 77.5507 76.7076H74.5387Z" fill="#0080FF"/>
<path d="M86.2937 74.3868C85.7011 73.893 84.8864 73.6215 83.8742 73.6215C83.2323 73.6215 82.615 73.7696 82.0719 74.0412C81.5534 74.2881 81.0596 74.7325 80.7387 75.2756L80.7634 75.3003L82.0225 76.4854C82.541 75.6706 83.1088 75.3744 83.8742 75.3744C84.2939 75.3744 84.6148 75.4731 84.8864 75.6953C85.1333 75.9175 85.2814 76.1891 85.2814 76.5347V76.9051C84.7876 76.7569 84.3186 76.6829 83.8495 76.6829C82.8866 76.6829 82.0966 76.9051 81.504 77.3495C80.9115 77.7939 80.6152 78.4605 80.6152 79.2999C80.6152 80.0405 80.8621 80.6084 81.3806 81.0528C81.8991 81.4725 82.5163 81.6947 83.2569 81.6947C83.9976 81.6947 84.6889 81.3984 85.3308 80.88V81.5219H87.2565V76.5347C87.1825 75.6213 86.8862 74.8806 86.2937 74.3868ZM82.8372 78.5839C83.0594 78.4358 83.3804 78.3617 83.7754 78.3617C84.2445 78.3617 84.7383 78.4605 85.2567 78.6333V79.3986C84.837 79.7937 84.2692 79.9912 83.5779 79.9912C83.2322 79.9912 82.9854 79.9171 82.7879 79.769C82.615 79.6208 82.5163 79.448 82.5163 79.2011C82.5163 78.9296 82.615 78.732 82.8372 78.5839Z" fill="#0080FF"/>
<path d="M94.6874 74.5349C94.1443 73.9177 93.3789 73.6215 92.4161 73.6215C91.6507 73.6215 91.0088 73.8437 90.5397 74.2881V73.819H88.6387V81.5466H90.5891V77.2754C90.5891 76.6829 90.7372 76.2138 91.0088 75.8928C91.2804 75.5719 91.6507 75.3991 92.1692 75.3991C92.6136 75.3991 92.9345 75.5472 93.1814 75.8435C93.4283 76.1397 93.5517 76.5594 93.5517 77.0532V81.5466H95.5022V77.0532C95.5022 75.9916 95.2306 75.1275 94.6874 74.5349Z" fill="#0080FF"/>
<path d="M46.6921 74.3868C46.0996 73.893 45.2848 73.6215 44.2726 73.6215C43.6307 73.6215 43.0135 73.7696 42.4703 74.0412C41.9518 74.2881 41.4581 74.7325 41.1371 75.2756L41.1618 75.3003L42.4209 76.4854C42.9394 75.6706 43.5072 75.3744 44.2726 75.3744C44.6923 75.3744 45.0133 75.4731 45.2848 75.6953C45.5317 75.9175 45.6799 76.1891 45.6799 76.5347V76.9051C45.1861 76.7569 44.717 76.6829 44.2479 76.6829C43.285 76.6829 42.495 76.9051 41.9025 77.3495C41.3099 77.7939 41.0137 78.4605 41.0137 79.2999C41.0137 80.0405 41.2606 80.6084 41.779 81.0528C42.2975 81.4725 42.9147 81.6947 43.6554 81.6947C44.396 81.6947 45.0873 81.3984 45.7292 80.88V81.5219H47.655V76.5347C47.5809 75.6213 47.2846 74.8806 46.6921 74.3868ZM43.2357 78.5839C43.4579 78.4358 43.7788 78.3617 44.1738 78.3617C44.6429 78.3617 45.1367 78.4605 45.6552 78.6333V79.3986C45.2355 79.7937 44.6676 79.9912 43.9763 79.9912C43.6307 79.9912 43.3838 79.9171 43.1863 79.769C43.0135 79.6208 42.9147 79.448 42.9147 79.2011C42.9147 78.9296 43.0135 78.732 43.2357 78.5839Z" fill="#0080FF"/>
<path d="M58.1745 81.7203C55.039 81.7203 52.4961 79.1773 52.4961 76.0418C52.4961 72.9064 55.039 70.3634 58.1745 70.3634C61.31 70.3634 63.8529 72.9064 63.8529 76.0418C63.8529 79.1773 61.31 81.7203 58.1745 81.7203ZM58.1745 72.3632C56.15 72.3632 54.4959 74.0173 54.4959 76.0418C54.4959 78.0663 56.15 79.7205 58.1745 79.7205C60.199 79.7205 61.8531 78.0663 61.8531 76.0418C61.8531 74.0173 60.199 72.3632 58.1745 72.3632Z" fill="#0080FF"/>
</svg>
