<svg width="68" height="68" viewBox="0 0 68 68" fill="none" xmlns="http://www.w3.org/2000/svg">
<rect width="68" height="68" fill="#0069FF"/>
<g clip-path="url(#clip0_3394_21969)">
<path d="M34 55.0238V46.881C42.619 46.881 49.3095 38.3334 46 29.2619C44.7857 25.9048 42.0952 23.2143 38.7381 22C29.6667 18.7143 21.119 25.381 21.119 34H13C13 20.2619 26.2857 9.54764 40.6905 14.0476C46.9762 16.0238 52 21.0238 53.9524 27.3095C58.4524 41.7381 47.7619 55.0238 34 55.0238Z" fill="white"/>
<path d="M34.0239 46.9048H25.9287V38.8096H34.0239V46.9048Z" fill="white"/>
<path d="M25.9285 53.1429H19.6904V46.9048H25.9285V53.1429Z" fill="white"/>
<path d="M19.6904 46.9048H14.4761V41.6906H19.6904V46.9048Z" fill="white"/>
</g>
<defs>
<clipPath id="clip0_3394_21969">
<rect width="42" height="42.0238" fill="white" transform="translate(13 13)"/>
</clipPath>
</defs>
</svg>
