<svg xmlns="http://www.w3.org/2000/svg" width="188" height="32" fill="none"><path fill="#fff" d="M16.022 25.804V32c10.465 0 18.61-10.112 15.185-21.098-1.523-4.79-5.329-8.63-10.124-10.112C10.123-2.63 0 5.542 0 15.996h6.203c0-6.539 6.508-11.633 13.434-9.124a9.2 9.2 0 0 1 5.518 5.512c2.512 6.92-2.55 13.42-9.133 13.42"/><path fill="#fff" d="M9.855 25.842h6.166v-6.158H9.855zM9.855 30.596H5.098v-4.752h4.757zM1.105 25.844h3.958v-3.953H1.105z"/><path fill="#fff" fill-rule="evenodd" d="M56.43 9.275c-1.808-1.236-4.068-1.873-6.705-1.873H44v18.125h5.725c2.637 0 4.897-.674 6.705-1.985.98-.711 1.77-1.685 2.298-2.92.527-1.236.828-2.66.828-4.27s-.263-3.033-.828-4.231c-.528-1.236-1.28-2.21-2.298-2.846m-9.037 1.162h1.77c1.997 0 3.654.375 4.897 1.161 1.394.824 2.11 2.435 2.11 4.719 0 2.359-.716 4.007-2.11 4.905-1.205.787-2.825 1.199-4.859 1.199h-1.808z" clip-rule="evenodd"/><path fill="#fff" d="M62.193 7.702c.376-.374.828-.561 1.393-.561.528 0 1.017.224 1.431.561.377.375.566.824.566 1.386s-.189 1.048-.566 1.423c-.414.374-.866.562-1.43.562-.566 0-1.056-.188-1.432-.562-.377-.412-.565-.861-.565-1.423s.226-1.011.602-1.386M61.93 12.719h3.239v12.77h-3.24z"/><path fill="#fff" fill-rule="evenodd" d="M73.64 12.457c1.167 0 2.26.487 3.24 1.348V12.72h3.163v11.609c0 1.91-.603 3.483-1.733 4.643-1.13 1.161-2.674 1.76-4.595 1.76-1.394 0-2.637-.337-3.578-.936q-1.413-.899-2.147-1.91l-.076-.075 2.185-2.097c1.168 1.498 2.072 2.098 3.578 2.098.942 0 1.733-.3 2.298-.862.527-.562.829-1.385.829-2.434v-.3c-.904.675-1.959 1.012-3.202 1.012-1.77 0-3.277-.6-4.407-1.798-1.13-1.236-1.695-2.771-1.695-4.568 0-1.835.565-3.37 1.733-4.569 1.13-1.236 2.636-1.835 4.407-1.835m.15 9.812c.942 0 1.658-.3 2.223-.936s.866-1.46.829-2.509c0-1.011-.264-1.872-.829-2.509s-1.28-.936-2.222-.936c-.904 0-1.62.3-2.185.936s-.829 1.46-.829 2.51c0 1.048.264 1.871.829 2.508.527.637 1.243.936 2.185.936" clip-rule="evenodd"/><path fill="#fff" d="M82.797 12.719h3.24v12.77h-3.24zM83.06 7.702c.376-.374.828-.561 1.393-.561s1.017.224 1.432.561c.376.375.565.824.565 1.386s-.189 1.048-.565 1.423c-.415.374-.867.562-1.432.562s-1.054-.188-1.431-.562c-.377-.412-.565-.861-.565-1.423s.226-1.011.603-1.386M93.115 9.273h-3.164v3.446h-1.845v2.92h1.845v5.28c0 1.648.34 2.847.98 3.52.678.675 1.845 1.05 3.465 1.05.527 0 1.055 0 1.582-.038h.15V22.53l-1.092.075c-.753 0-1.28-.15-1.544-.412s-.377-.824-.377-1.685v-4.831h3.014v-2.92h-3.014zM114.513 7.363h-3.24v18.125h3.24zM147.093 20.92c-.565.637-1.167 1.198-1.619 1.498s-1.017.412-1.658.412c-.941 0-1.733-.337-2.335-1.049-.603-.711-.942-1.61-.942-2.696q0-1.63.904-2.696c.603-.711 1.394-1.048 2.336-1.048 1.054 0 2.147.636 3.088 1.76l2.147-2.023c-1.393-1.797-3.164-2.621-5.273-2.621-1.77 0-3.315.637-4.558 1.91s-1.883 2.846-1.883 4.756.64 3.52 1.883 4.755c1.243 1.274 2.788 1.91 4.558 1.91 2.335 0 4.219-1.01 5.499-2.846z"/><path fill="#fff" fill-rule="evenodd" d="M158.507 12.984c.753.374 1.394.898 1.846 1.535s.791 1.31 1.092 2.097q.339 1.123.339 2.36l-.038 1.16h-8.55c.075.824.377 1.46.904 1.947.565.525 1.281.787 2.185.787.602 0 1.13-.15 1.619-.375.339-.15.641-.374.942-.674.113-.13.245-.262.372-.388s.25-.248.344-.36l2.109 2.021-.075.075q-2.035 2.584-5.311 2.584c-1.921 0-3.503-.636-4.671-1.835-1.168-1.235-1.77-2.808-1.77-4.756 0-1.872.527-3.482 1.619-4.793 1.093-1.273 2.562-1.947 4.37-1.947 1.017 0 1.921.187 2.674.562m-4.37 3.031a3.24 3.24 0 0 0-.828 1.498v.038h4.972a2.37 2.37 0 0 0-.641-1.498q-.621-.675-1.808-.674c-.678 0-1.243.225-1.695.636M172.747 13.693c-.979-.824-2.335-1.236-4.03-1.236-1.092 0-2.072.225-2.976.674a5.2 5.2 0 0 0-2.184 2.06l.037.037 2.072 1.985c.866-1.348 1.808-1.835 3.051-1.835.678 0 1.243.187 1.657.524.415.337.641.787.641 1.386v.636c-.791-.224-1.582-.374-2.373-.374-1.62 0-2.901.374-3.88 1.123-.979.75-1.469 1.835-1.469 3.183 0 1.199.414 2.172 1.243 2.884s1.883 1.048 3.126 1.048 2.373-.486 3.428-1.348v1.049h3.164v-8.201c-.038-1.573-.527-2.771-1.507-3.595m-5.727 6.928c.376-.263.866-.375 1.544-.375.791 0 1.62.15 2.448.45v1.235c-.715.637-1.657.974-2.787.974-.565 0-.979-.113-1.281-.375-.301-.224-.452-.524-.452-.936s.151-.749.528-.973" clip-rule="evenodd"/><path fill="#fff" d="M182.878 12.418c1.619 0 2.862.487 3.766 1.498Q188 15.43 188 18.073v7.377h-3.239v-7.377c0-.862-.188-1.536-.603-2.023-.414-.486-.979-.711-1.695-.711-.828 0-1.469.262-1.921.824s-.678 1.31-.678 2.284v7.04h-3.239v-12.77h3.164v.787c.753-.712 1.808-1.086 3.089-1.086"/><path fill="#fff" fill-rule="evenodd" d="M107.208 13.693c-.979-.824-2.335-1.236-4.03-1.236-1.092 0-2.072.225-2.976.674a5.2 5.2 0 0 0-2.184 2.06l.037.037 2.072 1.985c.866-1.348 1.808-1.835 3.051-1.835.678 0 1.243.187 1.657.524.415.337.641.787.641 1.386v.636c-.791-.224-1.582-.374-2.373-.374-1.62 0-2.901.374-3.88 1.123-.98.75-1.47 1.835-1.47 3.183 0 1.199.415 2.172 1.244 2.884s1.883 1.048 3.126 1.048 2.373-.486 3.428-1.348v1.049h3.164v-8.201c-.038-1.573-.527-2.771-1.507-3.595m-5.728 6.928c.377-.263.867-.375 1.545-.375.791 0 1.619.15 2.448.45v1.235c-.716.637-1.657.974-2.787.974-.565 0-.98-.113-1.281-.375-.301-.224-.452-.524-.452-.936s.151-.749.527-.973M116.81 16.426c0 5.13 4.218 9.324 9.379 9.324 5.198 0 9.379-4.194 9.379-9.324s-4.219-9.324-9.379-9.324c-5.161 0-9.379 4.194-9.379 9.324m3.312-.038c0-3.332 2.712-6.029 6.064-6.029 3.353 0 6.065 2.697 6.065 6.03 0 3.332-2.712 6.029-6.065 6.029-3.352 0-6.064-2.697-6.064-6.03" clip-rule="evenodd"/></svg>