<svg xmlns="http://www.w3.org/2000/svg" width="68" height="68" fill="none"><path fill="#0069FF" d="M0 0h68v68H0z"/><g fill="#fff" clip-path="url(#a)"><path d="M34 55.024V46.88c8.619 0 15.31-8.548 12-17.62A12.17 12.17 0 0 0 38.738 22c-9.071-3.286-17.619 3.381-17.619 12H13c0-13.738 13.286-24.452 27.69-19.952C46.977 16.024 52 21.024 53.953 27.31c4.5 14.428-6.19 27.714-19.952 27.714"/><path d="M34.024 46.905h-8.095V38.81h8.095zM25.929 53.143H19.69v-6.238h6.238zM19.69 46.905h-5.214V41.69h5.214z"/></g><defs><clipPath id="a"><path fill="#fff" d="M13 13h42v42.024H13z"/></clipPath></defs></svg>