<svg width="104" height="104" viewBox="0 0 104 104" fill="none" xmlns="http://www.w3.org/2000/svg">
<rect width="104" height="104" rx="3.00014" fill="white"/>
<g clip-path="url(#clip0_5637_80396)">
<path d="M14.2319 65.2911C14.3648 65.3487 14.4783 65.4433 14.5589 65.5637C14.6394 65.6841 14.6837 65.8251 14.6862 65.9699V69.5455C14.6855 69.5773 14.6724 69.6076 14.6497 69.6298C14.6269 69.6521 14.5963 69.6645 14.5645 69.6645H13.6828C13.6678 69.6652 13.6527 69.6627 13.6387 69.6571C13.6247 69.6515 13.6121 69.643 13.6017 69.6321C13.5804 69.6083 13.5688 69.5774 13.5692 69.5455V66.2999H12.8579V69.5455C12.8582 69.5766 12.8466 69.6066 12.8254 69.6294C12.816 69.6416 12.8036 69.6512 12.7894 69.6573C12.7752 69.6635 12.7597 69.6659 12.7443 69.6645H11.9329C11.9013 69.6645 11.8711 69.652 11.8487 69.6297C11.8264 69.6073 11.8139 69.5771 11.8139 69.5455V66.2999H11.1161V69.5455C11.12 69.5731 11.1127 69.6011 11.096 69.6234C11.0793 69.6457 11.0544 69.6605 11.0268 69.6645H10.1208C10.0936 69.6686 10.066 69.6622 10.0434 69.6466C10.0208 69.631 10.0049 69.6075 9.99907 69.5807V65.3506C9.9952 65.323 10.0024 65.295 10.0191 65.2727C10.0359 65.2504 10.0607 65.2356 10.0883 65.2316H13.9398C14.0403 65.2296 14.1401 65.2499 14.2319 65.2911Z" fill="#242425"/>
<path d="M18.6548 65.232C18.8018 65.2311 18.9458 65.2738 19.0685 65.3547C19.1913 65.4356 19.2873 65.551 19.3445 65.6864C19.3855 65.7764 19.4067 65.8742 19.4067 65.9731V69.5487C19.4074 69.564 19.405 69.5794 19.3997 69.5938C19.3943 69.6082 19.386 69.6214 19.3754 69.6325C19.3648 69.6436 19.352 69.6525 19.3379 69.6585C19.3237 69.6646 19.3085 69.6677 19.2931 69.6677H18.406C18.3742 69.6677 18.3436 69.6552 18.3209 69.633C18.2981 69.6107 18.285 69.5805 18.2843 69.5487V68.4127C18.2856 68.382 18.2749 68.3519 18.2545 68.3289C18.2442 68.317 18.2312 68.3076 18.2167 68.3015C18.2022 68.2954 18.1864 68.2927 18.1707 68.2937H16.9157C16.8839 68.2937 16.8533 68.3061 16.8306 68.3284C16.8079 68.3506 16.7947 68.3809 16.794 68.4127V69.5487C16.7963 69.5622 16.7959 69.576 16.7928 69.5894C16.7896 69.6027 16.7839 69.6153 16.7758 69.6264C16.7678 69.6375 16.7575 69.6469 16.7458 69.6539C16.7341 69.661 16.721 69.6657 16.7075 69.6677H15.8014C15.7877 69.6704 15.7736 69.6703 15.7599 69.6673C15.7462 69.6644 15.7333 69.6587 15.7219 69.6506C15.7105 69.6425 15.7009 69.6322 15.6936 69.6202C15.6864 69.6083 15.6816 69.595 15.6797 69.5811V65.9731C15.6795 65.8747 15.6988 65.7773 15.7365 65.6864C15.7718 65.5941 15.8262 65.5102 15.8961 65.4403C15.9674 65.3721 16.0509 65.318 16.1422 65.2807C16.2325 65.2408 16.3302 65.2205 16.4289 65.2212L18.6548 65.232ZM18.2735 67.3444V66.2273H16.7859V67.3417L18.2735 67.3444Z" fill="#242425"/>
<path d="M23.39 65.2669C23.402 65.2771 23.4115 65.29 23.4176 65.3046C23.4237 65.3192 23.4263 65.335 23.4251 65.3507V68.9317C23.4258 69.0304 23.4055 69.1281 23.3656 69.2184C23.3278 69.3094 23.2738 69.3929 23.2061 69.4645C23.1376 69.535 23.0545 69.5894 22.9626 69.6241C22.8708 69.6618 22.7725 69.6811 22.6732 69.6809H20.78C20.6807 69.6811 20.5824 69.6618 20.4906 69.6241C20.3545 69.567 20.2386 69.4706 20.1577 69.3473C20.0767 69.2239 20.0344 69.0792 20.0362 68.9317V67.5794C20.0323 67.5515 20.0394 67.5231 20.0561 67.5004C20.0728 67.4776 20.0977 67.4623 20.1255 67.4577H21.0315C21.0593 67.4544 21.0873 67.4618 21.1099 67.4784C21.1325 67.4949 21.148 67.5194 21.1532 67.5469V68.4854C21.1525 68.5009 21.155 68.5163 21.1606 68.5308C21.1662 68.5452 21.1747 68.5583 21.1857 68.5693C21.2097 68.5898 21.2407 68.6005 21.2722 68.599H22.1918C22.2226 68.6003 22.2526 68.5897 22.2757 68.5693C22.2876 68.5589 22.2969 68.546 22.303 68.5315C22.3091 68.5169 22.3118 68.5012 22.3108 68.4854V65.3507C22.3105 65.3197 22.3222 65.2897 22.3433 65.2669C22.3535 65.2548 22.3664 65.2453 22.381 65.2392C22.3956 65.2331 22.4114 65.2305 22.4271 65.2317H23.3088C23.3241 65.2314 23.3393 65.2343 23.3533 65.2404C23.3673 65.2465 23.3798 65.2555 23.39 65.2669Z" fill="#242425"/>
<path d="M27.4032 65.2315C27.5019 65.2308 27.5996 65.2511 27.6899 65.291C27.7783 65.3272 27.8586 65.3808 27.926 65.4486C27.9934 65.5165 28.0464 65.5971 28.082 65.6858C28.123 65.7759 28.1442 65.8736 28.1442 65.9725V68.9179C28.1439 69.0177 28.1228 69.1163 28.082 69.2073C28.046 69.2979 27.9927 69.3805 27.9252 69.4507C27.8557 69.5212 27.7717 69.5757 27.679 69.6103C27.5887 69.6496 27.4909 69.669 27.3923 69.6671H25.1583C25.0605 69.6671 24.9638 69.6469 24.8743 69.6076C24.7402 69.5525 24.6254 69.4588 24.5445 69.3385C24.4636 69.2181 24.4203 69.0764 24.4199 68.9314V65.9861C24.4197 65.8868 24.439 65.7885 24.4767 65.6967C24.5104 65.6049 24.564 65.5218 24.6336 65.4532C24.7049 65.3851 24.7884 65.331 24.8797 65.2937C24.9699 65.2535 25.0677 65.2333 25.1664 65.2342L27.4032 65.2315ZM27.0218 66.3133H25.5342V68.5961H27.038L27.0218 66.3133Z" fill="#242425"/>
<path d="M33.0057 69.567C33.0138 69.5775 33.0182 69.5903 33.0182 69.6035C33.0182 69.6168 33.0138 69.6296 33.0057 69.64C32.9981 69.6506 32.9878 69.6589 32.9759 69.6641C32.964 69.6693 32.951 69.6713 32.9381 69.6698H31.9319C31.8965 69.6695 31.8618 69.6591 31.8319 69.64C31.7997 69.6232 31.7726 69.598 31.7534 69.567L31.0962 68.3634C31.0919 68.3552 31.0852 68.3485 31.077 68.3441C31.0688 68.3398 31.0595 68.338 31.0502 68.3391H30.2848C30.2812 68.3383 30.2776 68.3383 30.274 68.3389C30.2704 68.3396 30.267 68.341 30.264 68.343C30.2609 68.345 30.2583 68.3476 30.2563 68.3507C30.2544 68.3537 30.253 68.3572 30.2523 68.3607V69.54C30.2542 69.5537 30.2533 69.5676 30.2497 69.581C30.246 69.5944 30.2397 69.6069 30.2312 69.6177C30.2226 69.6286 30.2119 69.6376 30.1997 69.6442C30.1875 69.6508 30.1742 69.6549 30.1604 69.6563H29.2597C29.2325 69.6602 29.2049 69.6533 29.1827 69.6372C29.1604 69.621 29.1454 69.5968 29.1407 69.5697C29.138 69.5591 29.138 69.5479 29.1407 69.5373V65.3505C29.1384 65.3369 29.1388 65.3231 29.142 65.3097C29.1451 65.2964 29.1509 65.2838 29.1589 65.2727C29.167 65.2616 29.1772 65.2523 29.1889 65.2452C29.2007 65.2381 29.2137 65.2334 29.2273 65.2314H32.1267C32.2253 65.2311 32.323 65.2514 32.4134 65.291C32.5898 65.3676 32.7301 65.5089 32.8055 65.6858C32.8454 65.7761 32.8657 65.8738 32.8651 65.9725V67.6386C32.866 67.7955 32.8157 67.9484 32.7217 68.074C32.6336 68.2024 32.5051 68.2976 32.3566 68.3445H32.3376C32.3079 68.3445 32.2998 68.3662 32.316 68.3824L33.0057 69.567ZM31.7453 66.2646H30.2172V67.3465H31.7453V66.2646Z" fill="#242425"/>
<path d="M38.9712 68.5902C38.9867 68.5891 39.0022 68.5914 39.0167 68.597C39.0312 68.6026 39.0443 68.6114 39.055 68.6226C39.0763 68.6464 39.0879 68.6773 39.0875 68.7092V69.5476C39.0878 69.5787 39.0761 69.6087 39.055 69.6315C39.0448 69.6435 39.0319 69.653 39.0173 69.6591C39.0027 69.6652 38.9869 69.6678 38.9712 69.6666H36.2341C36.2065 69.6706 36.1785 69.6639 36.1559 69.6477C36.1332 69.6316 36.1176 69.6074 36.1123 69.5801V65.35C36.1085 65.3224 36.1157 65.2944 36.1324 65.2721C36.1491 65.2498 36.174 65.235 36.2016 65.231H37.1077C37.1353 65.2271 37.1633 65.2344 37.1856 65.2511C37.2079 65.2678 37.2226 65.2927 37.2267 65.3203C37.2294 65.33 37.2294 65.3403 37.2267 65.35V68.4766C37.2261 68.4923 37.2289 68.5079 37.235 68.5224C37.2411 68.5369 37.2502 68.5498 37.2618 68.5604C37.2856 68.5817 37.3165 68.5933 37.3484 68.5929L38.9712 68.5902Z" fill="#242425"/>
<path d="M43.0713 65.2666C43.0829 65.2772 43.0921 65.2902 43.0981 65.3047C43.1042 65.3191 43.1071 65.3348 43.1065 65.3505V66.1483C43.1077 66.1641 43.1051 66.1799 43.099 66.1945C43.0929 66.209 43.0834 66.222 43.0713 66.2322C43.0485 66.2533 43.0185 66.2649 42.9875 66.2646H40.8616C40.8582 66.2638 40.8547 66.2638 40.8513 66.2645C40.8479 66.2652 40.8446 66.2666 40.8418 66.2687C40.839 66.2707 40.8366 66.2733 40.8349 66.2764C40.8332 66.2794 40.8322 66.2828 40.8319 66.2863V66.976C40.8319 66.9922 40.8319 67.0003 40.8616 67.0003H42.6737C42.6891 66.9995 42.7043 67.0023 42.7184 67.0084C42.7325 67.0145 42.745 67.0238 42.7549 67.0355C42.776 67.0582 42.7876 67.0882 42.7873 67.1193V67.7549C42.7876 67.786 42.776 67.816 42.7549 67.8387C42.745 67.8504 42.7325 67.8597 42.7184 67.8658C42.7043 67.8719 42.6891 67.8746 42.6737 67.8739H40.8616C40.8548 67.8731 40.848 67.8749 40.8425 67.8789C40.837 67.8829 40.8332 67.8888 40.8319 67.8955V68.5798C40.8306 68.5832 40.8301 68.5868 40.8305 68.5904C40.8308 68.5939 40.8319 68.5974 40.8337 68.6005C40.8355 68.6036 40.838 68.6063 40.8409 68.6083C40.8439 68.6103 40.8473 68.6117 40.8508 68.6123H42.9956C43.0267 68.6123 43.0566 68.6244 43.0788 68.6462C43.101 68.6679 43.1139 68.6975 43.1146 68.7286V69.54C43.115 69.5555 43.1122 69.5709 43.1065 69.5853C43.1009 69.5997 43.0923 69.6129 43.0815 69.624C43.0707 69.635 43.0577 69.6439 43.0434 69.6499C43.0292 69.6559 43.0138 69.659 42.9983 69.659H39.8366C39.809 69.663 39.781 69.6562 39.7584 69.6401C39.7357 69.624 39.7201 69.5997 39.7148 69.5724V65.3505C39.7156 65.3186 39.7287 65.2884 39.7514 65.2661C39.7742 65.2439 39.8047 65.2314 39.8366 65.2314H42.9956C43.0244 65.2331 43.0515 65.2457 43.0713 65.2666Z" fill="#242425"/>
<path d="M47.0936 65.232C47.1932 65.2312 47.2919 65.2514 47.383 65.2915C47.5614 65.3648 47.7034 65.5058 47.7779 65.6837C47.818 65.7739 47.8383 65.8717 47.8374 65.9704V69.546C47.8381 69.5613 47.8357 69.5767 47.8304 69.5911C47.825 69.6055 47.8167 69.6187 47.8061 69.6298C47.7955 69.6409 47.7827 69.6498 47.7686 69.6558C47.7544 69.6619 47.7392 69.665 47.7238 69.665H46.8286C46.797 69.665 46.7667 69.6524 46.7444 69.6301C46.7221 69.6078 46.7096 69.5775 46.7096 69.546V68.41C46.7098 68.3789 46.6982 68.349 46.6771 68.3262C46.6669 68.3141 46.654 68.3046 46.6394 68.2985C46.6248 68.2924 46.609 68.2898 46.5933 68.291H45.3572C45.3254 68.291 45.2949 68.3035 45.2721 68.3257C45.2494 68.3479 45.2362 68.3782 45.2355 68.41V69.546C45.2394 69.5736 45.2322 69.6016 45.2154 69.6239C45.1987 69.6462 45.1738 69.661 45.1463 69.665H44.2402C44.2267 69.6673 44.2128 69.6669 44.1995 69.6637C44.1861 69.6606 44.1736 69.6548 44.1625 69.6468C44.1514 69.6387 44.142 69.6285 44.1349 69.6168C44.1278 69.605 44.1232 69.592 44.1212 69.5784C44.1185 69.5678 44.1185 69.5566 44.1212 69.546V65.9731C44.121 65.8747 44.1403 65.7773 44.178 65.6864C44.2133 65.5941 44.2677 65.5102 44.3376 65.4403C44.4089 65.3722 44.4924 65.318 44.5837 65.2807C44.6739 65.2406 44.7717 65.2203 44.8704 65.2212L47.0936 65.232ZM46.715 67.3444V66.2274H45.2247V67.3417L46.715 67.3444Z" fill="#242425"/>
<path d="M52.5152 67.2823C52.5265 67.2935 52.5353 67.307 52.5409 67.322C52.5465 67.3369 52.5488 67.3529 52.5476 67.3688V68.9321C52.5483 69.0308 52.528 69.1285 52.4881 69.2188C52.4501 69.3091 52.3971 69.3923 52.3313 69.4649C52.2614 69.5348 52.1775 69.5892 52.0851 69.6245C51.9942 69.662 51.8968 69.6813 51.7985 69.6813H49.5536C49.4562 69.6816 49.3596 69.6627 49.2696 69.6256C49.1795 69.5885 49.0977 69.5339 49.0288 69.465C48.9599 69.3961 48.9053 69.3143 48.8682 69.2242C48.8311 69.1342 48.8121 69.0376 48.8125 68.9402V65.9921C48.8125 65.8938 48.8318 65.7964 48.8693 65.7054C48.9026 65.6127 48.9562 65.5286 49.0262 65.4593C49.097 65.3919 49.1795 65.3378 49.2696 65.2997C49.3612 65.2612 49.4596 65.2409 49.559 65.2402H52.1906C52.2229 65.2402 52.2539 65.2531 52.2767 65.2759C52.2995 65.2987 52.3123 65.3297 52.3123 65.3619V66.1977C52.3123 66.23 52.2995 66.2609 52.2767 66.2837C52.2539 66.3066 52.2229 66.3194 52.1906 66.3194H50.0675C50.0356 66.319 50.0047 66.3306 49.9809 66.3518C49.9586 66.374 49.9459 66.4042 49.9458 66.4357V68.4885C49.9459 68.5037 49.9491 68.5187 49.9551 68.5327C49.9612 68.5466 49.9699 68.5592 49.9809 68.5697C49.9924 68.5807 50.0059 68.5893 50.0208 68.5949C50.0357 68.6005 50.0516 68.6029 50.0675 68.6021H51.3224C51.3366 68.6029 51.3509 68.6008 51.3643 68.596C51.3777 68.5912 51.39 68.5839 51.4006 68.5743C51.4111 68.5648 51.4197 68.5532 51.4258 68.5404C51.4318 68.5275 51.4353 68.5136 51.436 68.4994V67.3796C51.4353 67.3643 51.4377 67.3489 51.4431 67.3345C51.4484 67.3201 51.4567 67.3069 51.4673 67.2958C51.4779 67.2846 51.4907 67.2758 51.5049 67.2698C51.519 67.2637 51.5342 67.2606 51.5496 67.2606H52.4368C52.4646 67.2581 52.4925 67.2658 52.5152 67.2823Z" fill="#242425"/>
<path d="M57.1927 65.2666C57.2151 65.2888 57.2277 65.3189 57.2279 65.3504V68.9314C57.2276 69.0303 57.2064 69.128 57.1657 69.2181C57.1287 69.309 57.0756 69.3923 57.0088 69.4642C56.9389 69.5341 56.855 69.5885 56.7627 69.6238C56.6709 69.6615 56.5726 69.6808 56.4733 69.6806H54.2284C54.1301 69.6806 54.0327 69.6613 53.9417 69.6238C53.7628 69.549 53.6201 69.4074 53.5441 69.2289C53.5064 69.1371 53.4871 69.0388 53.4873 68.9395V65.3504C53.4835 65.3228 53.4907 65.2948 53.5074 65.2725C53.5241 65.2502 53.549 65.2355 53.5766 65.2314H54.4827C54.5103 65.2276 54.5383 65.2348 54.5606 65.2515C54.5829 65.2682 54.5977 65.2931 54.6017 65.3207C54.6045 65.3304 54.6045 65.3407 54.6017 65.3504V68.477C54.6011 68.4927 54.6039 68.5083 54.61 68.5228C54.6161 68.5373 54.6252 68.5503 54.6368 68.5609C54.6606 68.5822 54.6915 68.5938 54.7234 68.5933H55.9783C55.9933 68.5935 56.0082 68.5908 56.0222 68.5852C56.0361 68.5796 56.0488 68.5714 56.0595 68.5609C56.0711 68.5504 56.08 68.5374 56.0857 68.5228C56.0913 68.5082 56.0934 68.4926 56.0919 68.477V65.3504C56.0926 65.3186 56.1058 65.2884 56.1285 65.2661C56.1513 65.2439 56.1818 65.2314 56.2136 65.2314H57.0954C57.1133 65.2284 57.1316 65.2301 57.1487 65.2363C57.1657 65.2424 57.1809 65.2529 57.1927 65.2666Z" fill="#242425"/>
<path d="M61.5851 65.2667C61.6075 65.2889 61.6201 65.319 61.6203 65.3505V66.1484C61.6208 66.1641 61.618 66.1797 61.6119 66.1942C61.6058 66.2087 61.5967 66.2217 61.5851 66.2323C61.5613 66.2535 61.5305 66.2651 61.4986 66.2647H59.3754C59.3718 66.2639 59.3682 66.2639 59.3646 66.2645C59.361 66.2652 59.3576 66.2666 59.3546 66.2686C59.3515 66.2706 59.3489 66.2732 59.3469 66.2763C59.3449 66.2793 59.3436 66.2828 59.3429 66.2863V66.9869C59.3429 67.0031 59.3429 67.0112 59.3754 67.0112H61.1875C61.2028 67.0108 61.2179 67.0138 61.232 67.0199C61.246 67.0259 61.2585 67.035 61.2687 67.0464C61.2898 67.0691 61.3014 67.0991 61.3011 67.1302V67.7658C61.3014 67.7969 61.2898 67.8269 61.2687 67.8496C61.2585 67.861 61.246 67.8701 61.232 67.8761C61.2179 67.8822 61.2028 67.8852 61.1875 67.8848H59.3754C59.3683 67.8839 59.3611 67.8856 59.3551 67.8896C59.3492 67.8935 59.3448 67.8995 59.3429 67.9064V68.6015C59.3422 68.6051 59.3421 68.6088 59.3428 68.6123C59.3434 68.6159 59.3448 68.6193 59.3468 68.6224C59.3489 68.6254 59.3515 68.628 59.3545 68.63C59.3576 68.632 59.361 68.6333 59.3646 68.634H61.4986C61.5299 68.634 61.5601 68.646 61.5828 68.6677C61.6054 68.6894 61.6189 68.719 61.6203 68.7503V69.5617C61.6203 69.5928 61.6081 69.6227 61.5864 69.6449C61.5646 69.6671 61.5351 69.68 61.504 69.6807H58.3503C58.3367 69.683 58.3227 69.6826 58.3091 69.6795C58.2956 69.6764 58.2828 69.6707 58.2715 69.6627C58.2602 69.6546 58.2506 69.6444 58.2432 69.6327C58.2359 69.6209 58.2309 69.6078 58.2286 69.5941C58.2259 69.5835 58.2259 69.5723 58.2286 69.5617V65.3505C58.2293 65.3187 58.2425 65.2885 58.2652 65.2662C58.288 65.244 58.3185 65.2315 58.3503 65.2315H61.4986C61.5147 65.2309 61.5307 65.2337 61.5456 65.2398C61.5605 65.2459 61.574 65.255 61.5851 65.2667Z" fill="#242425"/>
<path d="M68.3859 65.2312C68.4013 65.2305 68.4167 65.2329 68.4311 65.2383C68.4455 65.2436 68.4587 65.2519 68.4698 65.2625C68.4809 65.2731 68.4898 65.2859 68.4958 65.3001C68.5019 65.3142 68.505 65.3294 68.505 65.3448V69.5479C68.5053 69.5634 68.5026 69.5788 68.4969 69.5932C68.4912 69.6076 68.4827 69.6208 68.4719 69.6319C68.461 69.6429 68.4481 69.6517 68.4338 69.6578C68.4195 69.6638 68.4042 69.6669 68.3886 69.6669H67.5042C67.4724 69.6669 67.4419 69.6544 67.4191 69.6322C67.3964 69.6099 67.3832 69.5797 67.3825 69.5479V68.0738C67.3832 68.0596 67.3812 68.0454 67.3764 68.032C67.3716 68.0186 67.3642 68.0062 67.3547 67.9957C67.3451 67.9851 67.3336 67.9766 67.3207 67.9705C67.3079 67.9644 67.2939 67.9609 67.2797 67.9602H66.0167C65.9847 67.9592 65.9536 67.9709 65.9301 67.9927C65.918 68.0029 65.9086 68.0158 65.9025 68.0304C65.8964 68.045 65.8938 68.0608 65.895 68.0765V69.5506C65.8988 69.5782 65.8916 69.6062 65.8749 69.6285C65.8581 69.6508 65.8333 69.6655 65.8057 69.6696C65.796 69.6722 65.7857 69.6722 65.7759 69.6696H64.9023C64.8747 69.6734 64.8467 69.6662 64.8244 69.6495C64.8021 69.6328 64.7874 69.6079 64.7833 69.5803C64.7806 69.5706 64.7806 69.5603 64.7833 69.5506V65.3502C64.7795 65.3226 64.7867 65.2946 64.8034 65.2723C64.8201 65.25 64.845 65.2352 64.8726 65.2312H65.7787C65.8063 65.2274 65.8343 65.2346 65.8566 65.2513C65.8789 65.268 65.8936 65.2929 65.8977 65.3205C65.9004 65.3302 65.9004 65.3405 65.8977 65.3502V66.7675C65.8938 66.7951 65.901 66.8231 65.9177 66.8454C65.9345 66.8677 65.9593 66.8825 65.9869 66.8865H67.2716C67.2871 66.8876 67.3027 66.8852 67.3172 66.8796C67.3317 66.874 67.3447 66.8653 67.3555 66.854C67.3768 66.8303 67.3883 66.7994 67.3879 66.7675V65.3475C67.3886 65.3157 67.4018 65.2854 67.4245 65.2632C67.4473 65.241 67.4778 65.2285 67.5096 65.2285H68.3886L68.3859 65.2312Z" fill="#242425"/>
<path d="M72.4957 65.232C72.5953 65.2311 72.6939 65.2514 72.7851 65.2915C72.9635 65.3647 73.1055 65.5058 73.18 65.6837C73.2201 65.7739 73.2404 65.8717 73.2395 65.9704V69.5459C73.2402 69.5613 73.2378 69.5767 73.2324 69.5911C73.2271 69.6055 73.2188 69.6187 73.2082 69.6298C73.1976 69.6409 73.1848 69.6498 73.1707 69.6558C73.1565 69.6619 73.1413 69.665 73.1259 69.665H72.2388C72.2072 69.665 72.1769 69.6524 72.1546 69.6301C72.1323 69.6078 72.1198 69.5775 72.1198 69.5459V68.41C72.12 68.3789 72.1084 68.3489 72.0873 68.3261C72.0771 68.3141 72.0642 68.3046 72.0496 68.2985C72.035 68.2924 72.0192 68.2898 72.0035 68.291H70.7458C70.7142 68.291 70.684 68.3035 70.6616 68.3258C70.6393 68.3482 70.6268 68.3784 70.6268 68.41V69.5459C70.6307 69.5736 70.6234 69.6016 70.6067 69.6239C70.59 69.6462 70.5651 69.6609 70.5375 69.665H69.6315C69.6178 69.6673 69.6038 69.6669 69.5903 69.6638C69.5768 69.6607 69.564 69.655 69.5527 69.6469C69.5414 69.6389 69.5318 69.6287 69.5244 69.6169C69.517 69.6052 69.5121 69.5921 69.5098 69.5784V65.9731C69.5096 65.8747 69.5289 65.7773 69.5666 65.6864C69.6019 65.5941 69.6562 65.5102 69.7261 65.4403C69.7978 65.3726 69.8812 65.3185 69.9723 65.2807C70.0626 65.2411 70.1603 65.2209 70.259 65.2212L72.4957 65.232ZM72.1171 67.3444V66.2273H70.6268V67.3417L72.1171 67.3444Z" fill="#242425"/>
<path d="M75.3631 66.3412C75.3519 66.3519 75.3431 66.365 75.3375 66.3795C75.3319 66.394 75.3296 66.4095 75.3307 66.425V68.4779C75.3296 68.4934 75.3319 68.5089 75.3375 68.5234C75.3431 68.5379 75.3519 68.551 75.3631 68.5617C75.3869 68.583 75.4178 68.5946 75.4497 68.5942H77.4863C77.5017 68.5934 77.517 68.5958 77.5314 68.6012C77.5458 68.6066 77.559 68.6148 77.5701 68.6255C77.5813 68.6361 77.5901 68.6488 77.5962 68.663C77.6022 68.6771 77.6053 68.6924 77.6053 68.7078V69.5516C77.606 69.567 77.6036 69.5823 77.5983 69.5967C77.5929 69.6112 77.5846 69.6243 77.574 69.6355C77.5634 69.6466 77.5506 69.6554 77.5365 69.6615C77.5223 69.6675 77.5071 69.6706 77.4917 69.6706H74.9574C74.859 69.6711 74.7615 69.6518 74.6707 69.6138C74.5784 69.5785 74.4945 69.5241 74.4246 69.4542C74.2872 69.3077 74.2108 69.1142 74.2109 68.9133V65.976C74.2104 65.8776 74.2298 65.7801 74.2677 65.6894C74.301 65.5966 74.3546 65.5125 74.4246 65.4432C74.4959 65.3751 74.5794 65.321 74.6707 65.2837C74.7609 65.2435 74.8587 65.2232 74.9574 65.2242H77.4863C77.5174 65.2241 77.5473 65.2363 77.5695 65.258C77.5917 65.2798 77.6046 65.3094 77.6053 65.3405V66.1816C77.606 66.2127 77.5946 66.2429 77.5733 66.2656C77.5521 66.2884 77.5228 66.3019 77.4917 66.3033H75.4497C75.4335 66.3035 75.4174 66.307 75.4026 66.3135C75.3877 66.32 75.3743 66.3294 75.3631 66.3412Z" fill="#242425"/>
<path d="M81.1296 67.0999C81.1243 67.1059 81.1214 67.1136 81.1214 67.1216C81.1214 67.1295 81.1243 67.1372 81.1296 67.1432L82.601 69.5774C82.6091 69.5878 82.6135 69.6007 82.6135 69.6139C82.6135 69.6271 82.6091 69.64 82.601 69.6504C82.5933 69.6609 82.5831 69.6692 82.5712 69.6745C82.5593 69.6797 82.5462 69.6817 82.5333 69.6802H81.4785C81.443 69.6798 81.4084 69.6695 81.3785 69.6504C81.3464 69.6342 81.3201 69.6088 81.3027 69.5774L80.3534 67.8491C80.3534 67.8248 80.329 67.8248 80.3209 67.8491L79.7962 68.4252C79.7716 68.4515 79.7531 68.4829 79.7421 68.5172C79.7282 68.5516 79.7209 68.5883 79.7205 68.6253V69.5639C79.7237 69.5917 79.7163 69.6197 79.6998 69.6422C79.6832 69.6648 79.6587 69.6803 79.6312 69.6856H78.7441C78.7165 69.6894 78.6885 69.6822 78.6662 69.6655C78.6439 69.6488 78.6291 69.6239 78.6251 69.5963C78.6224 69.5857 78.6224 69.5745 78.6251 69.5639V65.35C78.6212 65.3224 78.6285 65.2944 78.6452 65.2721C78.6619 65.2498 78.6868 65.235 78.7144 65.231H79.6204C79.648 65.2271 79.676 65.2344 79.6983 65.2511C79.7206 65.2678 79.7354 65.2927 79.7394 65.3203C79.7422 65.33 79.7422 65.3403 79.7394 65.35V67.2433L81.3757 65.3284C81.3944 65.2998 81.4182 65.275 81.4461 65.2553C81.4799 65.2393 81.5168 65.231 81.5543 65.231H82.6064C82.6415 65.231 82.6605 65.231 82.6686 65.2553C82.6767 65.2797 82.6686 65.2959 82.6469 65.3203L81.1296 67.0999Z" fill="#242425"/>
<path d="M84.5533 69.5476C84.5556 69.5612 84.5552 69.575 84.5521 69.5883C84.5489 69.6017 84.5432 69.6143 84.5351 69.6254C84.527 69.6365 84.5168 69.6458 84.5051 69.6529C84.4934 69.66 84.4803 69.6647 84.4667 69.6666H83.5661C83.5524 69.669 83.5384 69.6686 83.5249 69.6655C83.5114 69.6624 83.4986 69.6567 83.4873 69.6486C83.476 69.6406 83.4664 69.6304 83.459 69.6186C83.4516 69.6069 83.4467 69.5938 83.4444 69.5801V65.35C83.4405 65.3224 83.4477 65.2944 83.4645 65.2721C83.4812 65.2498 83.5061 65.235 83.5336 65.231H84.4397C84.4673 65.2271 84.4953 65.2344 84.5176 65.2511C84.5399 65.2678 84.5547 65.2927 84.5587 65.3203C84.5615 65.33 84.5615 65.3403 84.5587 65.35L84.5533 69.5476Z" fill="#242425"/>
<path d="M88.8135 65.291C88.9907 65.3659 89.1322 65.5064 89.2083 65.6831C89.2474 65.7736 89.2667 65.8713 89.2651 65.9698V69.5454C89.2659 69.5608 89.2635 69.5761 89.2581 69.5905C89.2527 69.6049 89.2445 69.6181 89.2338 69.6292C89.2232 69.6404 89.2105 69.6492 89.1963 69.6553C89.1822 69.6613 89.1669 69.6644 89.1515 69.6644H88.2752C88.2597 69.6655 88.2442 69.6632 88.2297 69.6575C88.2152 69.6519 88.2021 69.6432 88.1914 69.6319C88.1701 69.6082 88.1585 69.5773 88.1589 69.5454V66.4215C88.1601 66.4058 88.1575 66.3899 88.1514 66.3754C88.1453 66.3608 88.1358 66.3479 88.1238 66.3377C88.101 66.3165 88.071 66.3049 88.0399 66.3052H86.785C86.7531 66.3048 86.7222 66.3164 86.6984 66.3377C86.6868 66.3483 86.6777 66.3612 86.6716 66.3757C86.6655 66.3902 86.6627 66.4058 86.6633 66.4215V69.5481C86.6671 69.5757 86.6599 69.6037 86.6432 69.626C86.6265 69.6483 86.6016 69.6631 86.574 69.6671H85.6679C85.6407 69.671 85.6131 69.6642 85.5909 69.648C85.5686 69.6318 85.5536 69.6076 85.5489 69.5806C85.5462 69.5699 85.5462 69.5587 85.5489 69.5481V65.3505C85.5451 65.3229 85.5523 65.2948 85.569 65.2725C85.5857 65.2502 85.6106 65.2355 85.6382 65.2315H88.5349C88.631 65.2309 88.726 65.2512 88.8135 65.291Z" fill="#242425"/>
<path d="M93.9537 67.2824C93.9654 67.2935 93.9745 67.307 93.9806 67.3219C93.9867 67.3368 93.9895 67.3529 93.9889 67.3689V68.9322C93.9886 69.0311 93.9674 69.1288 93.9267 69.2189C93.8907 69.3103 93.8374 69.3939 93.7698 69.4651C93.7004 69.5356 93.6164 69.59 93.5237 69.6246C93.4329 69.6626 93.3354 69.6819 93.237 69.6814H90.9921C90.8937 69.6814 90.7963 69.6621 90.7054 69.6246C90.5714 69.5659 90.4577 69.4688 90.3788 69.3456C90.2998 69.2224 90.2592 69.0785 90.2618 68.9322V65.9869C90.2627 65.8834 90.2848 65.7812 90.3268 65.6866C90.3605 65.5949 90.414 65.5118 90.4836 65.4432C90.5549 65.3751 90.6384 65.321 90.7297 65.2837C90.8199 65.2435 90.9177 65.2232 91.0164 65.2242H93.6346C93.6661 65.2242 93.6964 65.2367 93.7187 65.259C93.741 65.2813 93.7536 65.3116 93.7536 65.3432V66.1816C93.7536 66.2132 93.741 66.2434 93.7187 66.2657C93.6964 66.2881 93.6661 66.3006 93.6346 66.3006H91.5087C91.4776 66.3003 91.4476 66.3119 91.4248 66.3331C91.4128 66.3433 91.4033 66.3562 91.3972 66.3708C91.3911 66.3853 91.3885 66.4011 91.3897 66.4169V68.4697C91.3885 68.4855 91.3911 68.5013 91.3972 68.5159C91.4033 68.5305 91.4128 68.5434 91.4248 68.5536C91.4359 68.5642 91.4491 68.5724 91.4636 68.5775C91.478 68.5826 91.4934 68.5846 91.5087 68.5833H92.7501C92.7643 68.5841 92.7786 68.582 92.792 68.5772C92.8054 68.5724 92.8177 68.5651 92.8282 68.5555C92.8388 68.546 92.8474 68.5344 92.8535 68.5216C92.8595 68.5087 92.863 68.4948 92.8637 68.4806V67.3608C92.863 67.3455 92.8654 67.3301 92.8708 67.3157C92.8761 67.3013 92.8844 67.2881 92.895 67.277C92.9056 67.2659 92.9184 67.257 92.9326 67.251C92.9467 67.2449 92.9619 67.2418 92.9773 67.2418H93.8644C93.8814 67.2417 93.8981 67.2452 93.9136 67.2522C93.929 67.2593 93.9427 67.2695 93.9537 67.2824Z" fill="#242425"/>
<path d="M36.7343 34.6924C37.8484 35.1673 38.7354 36.0552 39.209 37.1699C39.4606 37.739 39.5905 38.3544 39.5904 38.9766V62.2529C39.5918 62.4518 39.5144 62.6433 39.3749 62.7852C39.2355 62.9271 39.0455 63.0081 38.8466 63.0102H33.2588C33.1612 63.0141 33.0639 62.9963 32.9741 62.9579C32.8843 62.9195 32.8041 62.8616 32.7395 62.7884C32.6045 62.6412 32.5327 62.447 32.5393 62.2475V41.1051H28.0631V62.261C28.0684 62.4603 27.9967 62.654 27.863 62.8019C27.797 62.8742 27.7162 62.9314 27.6261 62.9697C27.5361 63.008 27.4388 63.0264 27.341 63.0237H22.2968C22.198 63.0251 22.1 63.0071 22.0082 62.9706C21.9164 62.9342 21.8327 62.88 21.7619 62.8112C21.6911 62.7423 21.6345 62.6602 21.5954 62.5696C21.5563 62.4789 21.5355 62.3814 21.5341 62.2826V41.1051H17.0497V62.261C17.0642 62.3644 17.0545 62.4698 17.0212 62.5688C16.988 62.6678 16.9321 62.7577 16.8582 62.8314C16.7842 62.9052 16.6941 62.9607 16.5949 62.9936C16.4958 63.0265 16.3904 63.0359 16.287 63.021H10.7614C10.658 63.0359 10.5526 63.0265 10.4535 62.9936C10.3544 62.9607 10.2643 62.9052 10.1903 62.8314C10.1163 62.7577 10.0605 62.6678 10.0272 62.5688C9.99398 62.4698 9.98421 62.3644 9.99869 62.261V35.0711C9.98421 34.9676 9.99398 34.8622 10.0272 34.7632C10.0605 34.6642 10.1163 34.5743 10.1903 34.5006C10.2643 34.4269 10.3544 34.3714 10.4535 34.3385C10.5526 34.3056 10.658 34.2962 10.7614 34.311H34.9113C35.5391 34.3082 36.1603 34.4382 36.7343 34.6924Z" fill="#E73427"/>
<path d="M63.8734 56.053C63.9742 56.0509 64.0743 56.0698 64.1674 56.1085C64.2606 56.1471 64.3446 56.2047 64.4143 56.2775C64.5548 56.4274 64.6306 56.6266 64.6253 56.832V62.2413C64.6287 62.4423 64.553 62.6366 64.4143 62.7822C64.3451 62.8559 64.2611 62.9141 64.168 62.9532C64.0748 62.9924 63.9744 63.0115 63.8734 63.0094H44.8055C44.2646 63.0094 43.9941 62.739 43.9941 62.2305V35.0919C43.9941 34.5726 44.2646 34.313 44.8055 34.313H50.6584C51.1994 34.313 51.4698 34.5835 51.4698 35.0919V55.3147C51.4667 55.4177 51.4873 55.52 51.53 55.6138C51.5727 55.7075 51.6363 55.7903 51.7159 55.8556C51.8733 55.9942 52.077 56.0685 52.2866 56.0639L63.8734 56.053Z" fill="#1D539F"/>
<path d="M93.181 34.3123C93.2878 34.3094 93.3941 34.328 93.4935 34.367C93.593 34.406 93.6835 34.4647 93.7598 34.5395C93.8374 34.6096 93.8993 34.6951 93.9417 34.7906C93.9841 34.8861 94.006 34.9895 94.0059 35.094V62.3245C94.006 62.429 93.9841 62.5323 93.9417 62.6278C93.8993 62.7233 93.8374 62.8089 93.7598 62.8789C93.6835 62.9537 93.593 63.0124 93.4935 63.0514C93.3941 63.0905 93.2878 63.1091 93.181 63.1061H87.2524C87.146 63.1089 87.0402 63.0902 86.9412 63.0511C86.8423 63.0121 86.7522 62.9535 86.6763 62.8789C86.5978 62.8097 86.5352 62.7243 86.4927 62.6286C86.4502 62.5329 86.4289 62.4292 86.4302 62.3245V52.823C86.4347 52.7229 86.418 52.6229 86.3812 52.5297C86.3443 52.4365 86.2882 52.3521 86.2165 52.2821C86.1424 52.2126 86.0552 52.1587 85.96 52.1234C85.8648 52.0881 85.7635 52.0722 85.6621 52.0765H77.3479C77.1368 52.0698 76.931 52.1432 76.7718 52.2821C76.6923 52.3475 76.6288 52.4303 76.5862 52.5241C76.5435 52.6178 76.5228 52.7201 76.5257 52.823V62.3245C76.5257 62.8438 76.2553 63.1061 75.7143 63.1061H69.829C69.288 63.1061 69.0176 62.8357 69.0176 62.3245V35.094C69.0176 34.572 69.288 34.3123 69.829 34.3123H75.7251C76.2661 34.3123 76.5365 34.5828 76.5365 35.094V44.3196C76.5365 44.8389 76.807 45.0985 77.3479 45.0985H85.681C85.7844 45.102 85.8874 45.0839 85.9833 45.0452C86.0793 45.0066 86.1661 44.9482 86.2381 44.874C86.3754 44.7273 86.4517 44.534 86.4518 44.3331V35.094C86.4506 34.9895 86.4716 34.886 86.5136 34.7904C86.5556 34.6948 86.6175 34.6093 86.6952 34.5395C86.8437 34.3932 87.044 34.3116 87.2524 34.3123H93.181Z" fill="#F8B92A"/>
</g>
<defs>
<clipPath id="clip0_5637_80396">
<rect width="84.004" height="35.3715" fill="white" transform="translate(9.99805 34.3142)"/>
</clipPath>
</defs>
</svg>
