<svg viewBox="0 0 143 24" fill="none" xmlns="http://www.w3.org/2000/svg">
  <path d="M3.22546 15.8872H0V23.4724H7.54971V20.2115H3.22546V15.8872Z" fill="white"/>
  <path d="M19.461 15.9227V20.2115H15.1367V20.176V23.4724H22.6864V15.8872H19.4255L19.461 15.9227Z" fill="white"/>
  <path d="M0 8.3371H3.26091L3.22546 8.30166V4.01286H7.54971V0.751953H0V8.3371Z" fill="white"/>
  <path d="M15.1367 0.751953V4.01286H19.461V8.3371H22.6864V0.751953H15.1367Z" fill="white"/>
  <g opacity="0.8">
    <path d="M14.7106 8.3371L10.3864 4.01286H15.1359V0.751953H7.55078V4.01286L11.875 8.3371H14.7106Z" fill="white"/>
    <path d="M10.8117 15.8872H7.97612L11.556 19.4671L12.2649 20.2115H7.55078V23.4724H15.1359V20.176L12.9738 18.0493L10.8117 15.8872Z" fill="white"/>
    <path d="M19.461 8.33789V13.052L18.7166 12.3077L15.1367 8.72778V11.5988L17.2634 13.7255L19.4255 15.8876H22.6864V8.33789H19.461Z" fill="white"/>
    <path d="M7.54971 12.6267L3.26091 8.33789H0V15.8876H3.22546V11.1735L7.54971 15.4977V12.6267Z" fill="white"/>
  </g>
  <path d="M33.9543 10.3043C35.1239 10.3043 36.0455 9.84347 36.7898 8.92191L38.314 10.4815C37.1088 11.8284 35.7265 12.5018 34.0961 12.5018C32.4656 12.5018 31.1542 12.0056 30.0908 10.9777C29.0275 9.94981 28.5312 8.6738 28.5312 7.11424C28.5312 5.55467 29.0629 4.24322 30.1263 3.21533C31.1896 2.18743 32.501 1.65576 34.0606 1.65576C35.7974 1.65576 37.2506 2.32921 38.3849 3.64066L36.9316 5.30656C36.1873 4.385 35.2657 3.92422 34.1669 3.92422C33.2808 3.92422 32.5365 4.20778 31.8985 4.77489C31.2605 5.342 30.9415 6.12179 30.9415 7.11424C30.9415 8.10669 31.225 8.88647 31.8276 9.48903C32.3947 9.98525 33.1036 10.3043 33.9543 10.3043Z" fill="white"/>
  <path d="M40.1562 12.3601V1.83301H42.4956V10.2688H46.9971V12.3601H40.1562Z" fill="white"/>
  <path d="M57.2723 10.9071C56.209 11.935 54.8975 12.4667 53.338 12.4667C51.7784 12.4667 50.4669 11.935 49.4036 10.9071C48.3403 9.87921 47.8086 8.56775 47.8086 7.04363C47.8086 5.48407 48.3403 4.20806 49.4036 3.18017C50.4669 2.15227 51.7784 1.62061 53.338 1.62061C54.8975 1.62061 56.209 2.15227 57.2723 3.18017C58.3356 4.20806 58.8673 5.51952 58.8673 7.04363C58.8673 8.6032 58.3356 9.87921 57.2723 10.9071ZM56.4571 7.04363C56.4571 6.12207 56.1381 5.30685 55.5355 4.6334C54.933 3.95995 54.1886 3.64095 53.3025 3.64095C52.4164 3.64095 51.6721 3.95995 51.0695 4.6334C50.4669 5.30685 50.1479 6.08663 50.1479 7.04363C50.1479 7.9652 50.4669 8.78042 51.0695 9.45387C51.6721 10.1273 52.4164 10.4463 53.3025 10.4463C54.1886 10.4463 54.933 10.1273 55.5355 9.45387C56.1735 8.78042 56.4571 8.00064 56.4571 7.04363Z" fill="white"/>
  <path d="M63.657 9.66598C64.0469 10.1622 64.5786 10.4103 65.252 10.4103C65.9255 10.4103 66.4572 10.1622 66.8116 9.66598C67.2015 9.16976 67.3787 8.49631 67.3787 7.68109V1.86816H69.7181V7.75197C69.7181 9.27609 69.2927 10.4458 68.4421 11.261C67.5914 12.0762 66.528 12.5016 65.2166 12.5016C63.9051 12.5016 62.8064 12.0762 61.9557 11.261C61.105 10.4458 60.6797 9.27609 60.6797 7.75197V1.86816H63.019V7.68109C63.0545 8.49631 63.2671 9.16976 63.657 9.66598Z" fill="white"/>
  <path d="M80.2061 3.21535C81.1985 4.13691 81.7302 5.41292 81.7302 7.04337C81.7302 8.67382 81.234 9.98527 80.277 10.9423C79.2845 11.8993 77.7959 12.3601 75.811 12.3601H72.1602V1.83301H75.8818C77.7604 1.83301 79.2136 2.29379 80.2061 3.21535ZM78.5047 9.48905C79.0719 8.95738 79.3554 8.14215 79.3554 7.11426C79.3554 6.08636 79.0719 5.27114 78.5047 4.73947C77.9376 4.17235 77.0515 3.8888 75.8464 3.8888H74.5349V10.3043H76.0236C77.087 10.3043 77.9022 10.0207 78.5047 9.48905Z" fill="white"/>
  <path d="M95.0951 1.83301H97.4345V12.3601H95.0951L90.062 5.76736V12.3601H87.7227V1.83301H89.9202L95.0951 8.60293V1.83301Z" fill="white"/>
  <path d="M107.534 12.3601L106.541 10.0916H102.111L101.118 12.3601H98.6016L103.138 1.83301H105.407L109.944 12.3601H107.534ZM104.379 4.98758L103.068 8.03582H105.69L104.379 4.98758Z" fill="white"/>
  <path d="M114.977 3.88851V12.3952H112.638V3.88851H109.66V1.86816H117.99V3.88851H114.977Z" fill="white"/>
  <path d="M119.66 1.83301H122V12.3601H119.66V1.83301Z" fill="white"/>
  <path d="M128.484 8.53204L131.177 1.83301H133.729L129.511 12.3601H127.527L123.309 1.83301H125.861L128.484 8.53204Z" fill="white"/>
  <path d="M142.558 1.83301V3.92424H137.312V6.08636H142.026V8.10671H137.312V10.3043H142.735V12.3955H134.973V1.86845H142.558V1.83301Z" fill="white"/>
  <path d="M31.2592 21.3271C31.8972 21.3271 32.4288 21.079 32.8542 20.5473L33.7049 21.4334C33.0314 22.1778 32.2516 22.5677 31.3301 22.5677C30.4085 22.5677 29.6642 22.2841 29.0971 21.717C28.4945 21.1499 28.2109 20.4055 28.2109 19.5549C28.2109 18.6688 28.4945 17.9599 29.0971 17.3573C29.6996 16.7547 30.4439 16.4712 31.2946 16.4712C32.2516 16.4712 33.0669 16.8256 33.7403 17.57L32.9251 18.4915C32.4997 17.9599 32.0035 17.7118 31.3655 17.7118C30.8693 17.7118 30.444 17.889 30.0895 18.208C29.7351 18.527 29.5578 18.9523 29.5578 19.5194C29.5578 20.0865 29.7351 20.5119 30.0541 20.8309C30.3731 21.1853 30.7984 21.3271 31.2592 21.3271Z" fill="white"/>
  <path d="M39.5508 21.6816C38.9482 22.2487 38.2039 22.5677 37.3532 22.5677C36.4671 22.5677 35.7582 22.2841 35.1556 21.6816C34.5531 21.1144 34.2695 20.3701 34.2695 19.5194C34.2695 18.6688 34.5531 17.9244 35.1556 17.3573C35.7582 16.7902 36.5025 16.4712 37.3532 16.4712C38.2393 16.4712 38.9482 16.7547 39.5508 17.3573C40.1533 17.9244 40.4369 18.6688 40.4369 19.5194C40.4369 20.3701 40.1533 21.1144 39.5508 21.6816ZM39.1254 19.5194C39.1254 18.9878 38.9482 18.527 38.6292 18.1725C38.2748 17.8181 37.8849 17.6054 37.3887 17.6054C36.8924 17.6054 36.4671 17.7826 36.1481 18.1725C35.7937 18.527 35.6519 18.9878 35.6519 19.5194C35.6519 20.0511 35.8291 20.4764 36.1481 20.8663C36.5025 21.2208 36.8924 21.4334 37.3887 21.4334C37.8849 21.4334 38.3102 21.2562 38.6292 20.8663C38.9482 20.5119 39.1254 20.0511 39.1254 19.5194Z" fill="white"/>
  <path d="M46.8555 18.7757L45.2605 22.0012H44.4807L42.8857 18.7757V22.4974H41.5742V16.5781H43.3465L44.8706 19.8036L46.3947 16.5781H48.1669V22.4974H46.8555V18.7757Z" fill="white"/>
  <path d="M53.6969 17.1452C54.1223 17.4997 54.3349 18.0314 54.3349 18.7757C54.3349 19.52 54.1223 20.0517 53.6969 20.3707C53.2716 20.7251 52.6336 20.8669 51.7475 20.8669H50.9677V22.4974H49.6562V16.5781H51.7475C52.6336 16.6136 53.2716 16.7908 53.6969 17.1452ZM52.7399 19.4491C52.8817 19.2719 52.988 19.0238 52.988 18.6694C52.988 18.3149 52.8817 18.1022 52.669 17.9605C52.4564 17.8187 52.1374 17.7478 51.712 17.7478H50.9677V19.7327H51.8538C52.2792 19.7327 52.5627 19.6264 52.7399 19.4491Z" fill="white"/>
  <path d="M56.9195 20.9731C57.1322 21.2566 57.4512 21.3984 57.8056 21.3984C58.1601 21.3984 58.4791 21.2566 58.6917 20.9731C58.9044 20.6895 59.0107 20.3351 59.0107 19.8388V16.5779H60.3222V19.8743C60.3222 20.7249 60.0741 21.3984 59.6133 21.8592C59.1525 22.32 58.55 22.5326 57.8056 22.5326C57.0613 22.5326 56.4587 22.2845 55.998 21.8237C55.5372 21.363 55.2891 20.6895 55.2891 19.8388V16.5425H56.6005V19.8034C56.6005 20.3351 56.7069 20.7249 56.9195 20.9731Z" fill="white"/>
  <path d="M64.1883 17.7475V22.4971H62.8768V17.7475H61.2109V16.6133H65.8896V17.7475H64.1883Z" fill="white"/>
  <path d="M66.8477 16.6133H68.1591V22.5325H66.8477V16.6133Z" fill="white"/>
  <path d="M73.7209 16.6133H75.0324V22.5325H73.7209L70.9208 18.8463V22.5325H69.6094V16.6133H70.8499L73.7564 20.4059V16.6133H73.7209Z" fill="white"/>
  <path d="M80.3468 19.5201H81.6583V21.6114C81.0557 22.2494 80.2759 22.6038 79.2126 22.6038C78.3619 22.6038 77.6176 22.3202 77.015 21.7531C76.4125 21.186 76.1289 20.4417 76.1289 19.591C76.1289 18.7049 76.4125 17.996 77.015 17.3934C77.6176 16.7909 78.3265 16.5073 79.1771 16.5073C80.0278 16.5073 80.7722 16.7909 81.3747 17.358L80.7013 18.3504C80.4532 18.1023 80.205 17.9606 79.9569 17.8897C79.7443 17.8188 79.4961 17.7479 79.248 17.7479C78.7518 17.7479 78.3265 17.9251 77.972 18.2441C77.6176 18.5986 77.4404 19.0239 77.4404 19.591C77.4404 20.1581 77.6176 20.5835 77.9366 20.9379C78.2556 21.2569 78.6455 21.4341 79.1063 21.4341C79.567 21.4341 79.9569 21.3632 80.2405 21.186V19.5201H80.3468Z" fill="white"/>
  <path d="M89.1032 16.6133V17.783H86.374V19.059H88.9614V20.2286H86.374V22.5325H85.0625V16.6133H89.1032Z" fill="white"/>
  <path d="M95.1992 21.6816C94.5967 22.2487 93.8523 22.5677 93.0016 22.5677C92.1155 22.5677 91.4066 22.2841 90.8041 21.6816C90.2015 21.1144 89.918 20.3701 89.918 19.5194C89.918 18.6688 90.2015 17.9244 90.8041 17.3573C91.4066 16.7902 92.151 16.4712 93.0016 16.4712C93.8878 16.4712 94.5967 16.7547 95.1992 17.3573C95.8018 17.9244 96.0853 18.6688 96.0853 19.5194C96.0853 20.3701 95.8018 21.1144 95.1992 21.6816ZM94.7384 19.5194C94.7384 18.9878 94.5612 18.527 94.2422 18.1725C93.8878 17.8181 93.4979 17.6054 93.0016 17.6054C92.5054 17.6054 92.0801 17.7826 91.7611 18.1725C91.4066 18.527 91.2649 18.9878 91.2649 19.5194C91.2649 20.0511 91.4421 20.4764 91.7611 20.8663C92.1155 21.2208 92.5054 21.4334 93.0016 21.4334C93.4979 21.4334 93.9232 21.2562 94.2422 20.8663C94.5967 20.5119 94.7384 20.0511 94.7384 19.5194Z" fill="white"/>
  <path d="M98.7828 20.9731C98.9955 21.2566 99.3145 21.3984 99.6689 21.3984C100.023 21.3984 100.342 21.2566 100.555 20.9731C100.768 20.6895 100.874 20.3351 100.874 19.8388V16.5779H102.185V19.8743C102.185 20.7249 101.937 21.3984 101.477 21.8592C101.016 22.32 100.413 22.5326 99.6689 22.5326C98.9246 22.5326 98.322 22.2845 97.8612 21.8237C97.4005 21.363 97.1523 20.6895 97.1523 19.8388V16.5425H98.4638V19.8034C98.4284 20.3351 98.5701 20.7249 98.7828 20.9731Z" fill="white"/>
  <path d="M107.678 16.6133H108.989V22.5325H107.678L104.878 18.8463V22.5325H103.566V16.6133H104.807L107.713 20.4059V16.6133H107.678Z" fill="white"/>
  <path d="M114.943 17.3931C115.51 17.9247 115.794 18.6336 115.794 19.5552C115.794 20.4767 115.51 21.1856 114.978 21.7173C114.447 22.249 113.596 22.5325 112.462 22.5325H110.441V16.6133H112.533C113.596 16.6133 114.411 16.8614 114.943 17.3931ZM113.986 20.9021C114.305 20.5831 114.482 20.1577 114.482 19.5906C114.482 19.0235 114.305 18.5627 113.986 18.2437C113.667 17.9247 113.171 17.783 112.497 17.783H111.753V21.3629H112.604C113.206 21.3274 113.667 21.1856 113.986 20.9021Z" fill="white"/>
  <path d="M120.97 22.4974L120.438 21.2214H117.957L117.426 22.4974H116.008L118.56 16.5781H119.836L122.388 22.4974H120.97ZM119.198 18.3504L118.453 20.0517H119.942L119.198 18.3504Z" fill="white"/>
  <path d="M125.15 17.7475V22.4971H123.838V17.7475H122.137V16.6133H126.815V17.7475H125.15Z" fill="white"/>
  <path d="M127.773 16.6133H129.085V22.5325H127.773V16.6133Z" fill="white"/>
  <path d="M135.504 21.6816C134.901 22.2487 134.157 22.5677 133.306 22.5677C132.42 22.5677 131.711 22.2841 131.109 21.6816C130.506 21.1144 130.223 20.3701 130.223 19.5194C130.223 18.6688 130.506 17.9244 131.109 17.3573C131.711 16.7902 132.456 16.4712 133.306 16.4712C134.192 16.4712 134.901 16.7547 135.504 17.3573C136.106 17.9244 136.39 18.6688 136.39 19.5194C136.39 20.3701 136.106 21.1144 135.504 21.6816ZM135.079 19.5194C135.079 18.9878 134.901 18.527 134.582 18.1725C134.228 17.8181 133.838 17.6054 133.342 17.6054C132.846 17.6054 132.42 17.7826 132.101 18.1725C131.747 18.527 131.605 18.9878 131.605 19.5194C131.605 20.0511 131.782 20.4764 132.101 20.8663C132.456 21.2208 132.846 21.4334 133.342 21.4334C133.838 21.4334 134.263 21.2562 134.582 20.8663C134.901 20.5119 135.079 20.0511 135.079 19.5194Z" fill="white"/>
  <path d="M141.635 16.6133H142.946V22.5325H141.635L138.835 18.8463V22.5325H137.523V16.6133H138.764L141.67 20.4059L141.635 16.6133Z" fill="white"/>
</svg>
