<svg width="116" height="22" viewBox="0 0 116 22" fill="none" xmlns="http://www.w3.org/2000/svg">
<path d="M6.27459 8.91558C7.44426 8.91558 8.36582 8.4548 9.11016 7.53324L10.6343 9.0928C9.42916 10.4397 8.04682 11.1131 6.41637 11.1131C4.78592 11.1131 3.47447 10.6169 2.41113 9.58903C1.34779 8.56114 0.851562 7.28513 0.851562 5.72556C0.851562 4.166 1.38323 2.85455 2.44657 1.82665C3.50991 0.798759 4.82136 0.26709 6.38092 0.26709C8.11771 0.26709 9.57094 0.940538 10.7052 2.25199L9.25194 3.91789C8.5076 2.99633 7.58604 2.53555 6.48726 2.53555C5.60114 2.53555 4.85681 2.8191 4.2188 3.38622C3.5808 3.95333 3.2618 4.73311 3.2618 5.72556C3.2618 6.71801 3.54535 7.4978 4.14791 8.10035C4.71503 8.59658 5.42392 8.91558 6.27459 8.91558Z" fill="white"/>
<path d="M12.4766 10.9714V0.444336H14.8159V8.88016H19.3174V10.9714H12.4766Z" fill="white"/>
<path d="M29.5926 9.51843C28.5293 10.5463 27.2178 11.078 25.6583 11.078C24.0987 11.078 22.7873 10.5463 21.7239 9.51843C20.6606 8.49053 20.1289 7.17908 20.1289 5.65496C20.1289 4.0954 20.6606 2.81939 21.7239 1.7915C22.7873 0.763603 24.0987 0.231934 25.6583 0.231934C27.2178 0.231934 28.5293 0.763603 29.5926 1.7915C30.656 2.81939 31.1876 4.13084 31.1876 5.65496C31.1876 7.21453 30.656 8.49053 29.5926 9.51843ZM28.7774 5.65496C28.7774 4.7334 28.4584 3.91818 27.8558 3.24473C27.2533 2.57128 26.5089 2.25228 25.6228 2.25228C24.7367 2.25228 23.9924 2.57128 23.3898 3.24473C22.7873 3.91818 22.4682 4.69796 22.4682 5.65496C22.4682 6.57652 22.7873 7.39175 23.3898 8.0652C23.9924 8.73865 24.7367 9.05765 25.6228 9.05765C26.5089 9.05765 27.2533 8.73865 27.8558 8.0652C28.4938 7.39175 28.7774 6.61197 28.7774 5.65496Z" fill="white"/>
<path d="M35.9773 8.27731C36.3672 8.77354 36.8989 9.02165 37.5724 9.02165C38.2458 9.02165 38.7775 8.77354 39.1319 8.27731C39.5218 7.78109 39.699 7.10764 39.699 6.29241V0.479492H42.0384V6.3633C42.0384 7.88742 41.613 9.05709 40.7624 9.87232C39.9117 10.6875 38.8484 11.1129 37.5369 11.1129C36.2255 11.1129 35.1267 10.6875 34.276 9.87232C33.4253 9.05709 33 7.88742 33 6.3633V0.479492H35.3393V6.29241C35.3748 7.10764 35.5875 7.78109 35.9773 8.27731Z" fill="white"/>
<path d="M52.5264 1.82668C53.5189 2.74824 54.0505 4.02424 54.0505 5.6547C54.0505 7.28515 53.5543 8.5966 52.5973 9.55361C51.6048 10.5106 50.1162 10.9714 48.1313 10.9714H44.4805V0.444336H48.2022C50.0807 0.444336 51.534 0.905116 52.5264 1.82668ZM50.8251 8.10038C51.3922 7.56871 51.6757 6.75348 51.6757 5.72559C51.6757 4.69769 51.3922 3.88247 50.8251 3.3508C50.2579 2.78368 49.3718 2.50012 48.1667 2.50012H46.8553V8.9156H48.3439C49.4073 8.9156 50.2225 8.63205 50.8251 8.10038Z" fill="white"/>
<path d="M67.4155 0.444336H69.7548V10.9714H67.4155L62.3823 4.37869V10.9714H60.043V0.444336H62.2405L67.4155 7.21426V0.444336Z" fill="white"/>
<path d="M79.8539 10.9714L78.8615 8.70294H74.4309L73.4384 10.9714H70.9219L75.4588 0.444336H77.7272L82.2642 10.9714H79.8539ZM76.6993 3.59891L75.3879 6.64715H78.0108L76.6993 3.59891Z" fill="white"/>
<path d="M87.2972 2.49984V11.0065H84.9578V2.49984H81.9805V0.479492H90.31V2.49984H87.2972Z" fill="white"/>
<path d="M91.9805 0.444336H94.3198V10.9714H91.9805V0.444336Z" fill="white"/>
<path d="M100.804 7.14337L103.498 0.444336H106.05L101.832 10.9714H99.8468L95.6289 0.444336H98.1809L100.804 7.14337Z" fill="white"/>
<path d="M114.878 0.444336V2.53557H109.632V4.69769H114.346V6.71804H109.632V8.9156H115.055V11.0068H107.293V0.47978H114.878V0.444336Z" fill="white"/>
<path d="M3.57949 19.9384C4.21749 19.9384 4.74916 19.6903 5.1745 19.1587L6.02517 20.0448C5.35172 20.7891 4.57194 21.179 3.65038 21.179C2.72882 21.179 1.98448 20.8954 1.41737 20.3283C0.814807 19.7612 0.53125 19.0169 0.53125 18.1662C0.53125 17.2801 0.814807 16.5712 1.41737 15.9686C2.01992 15.3661 2.76426 15.0825 3.61493 15.0825C4.57194 15.0825 5.38716 15.437 6.06061 16.1813L5.24539 17.1029C4.82005 16.5712 4.32383 16.3231 3.68582 16.3231C3.1896 16.3231 2.76426 16.5003 2.40982 16.8193C2.05537 17.1383 1.87815 17.5636 1.87815 18.1308C1.87815 18.6979 2.05537 19.1232 2.37437 19.4422C2.69337 19.7967 3.11871 19.9384 3.57949 19.9384Z" fill="white"/>
<path d="M11.8711 20.2929C11.2685 20.86 10.5242 21.179 9.67353 21.179C8.78741 21.179 8.07852 20.8954 7.47596 20.2929C6.8734 19.7258 6.58984 18.9814 6.58984 18.1308C6.58984 17.2801 6.8734 16.5357 7.47596 15.9686C8.07852 15.4015 8.82286 15.0825 9.67353 15.0825C10.5596 15.0825 11.2685 15.3661 11.8711 15.9686C12.4737 16.5357 12.7572 17.2801 12.7572 18.1308C12.7572 18.9814 12.4737 19.7258 11.8711 20.2929ZM11.4458 18.1308C11.4458 17.5991 11.2685 17.1383 10.9495 16.7839C10.5951 16.4294 10.2052 16.2167 9.70897 16.2167C9.21275 16.2167 8.78741 16.394 8.46841 16.7839C8.11396 17.1383 7.97219 17.5991 7.97219 18.1308C7.97219 18.6624 8.14941 19.0878 8.46841 19.4777C8.82286 19.8321 9.21275 20.0448 9.70897 20.0448C10.2052 20.0448 10.6305 19.8675 10.9495 19.4777C11.2685 19.1232 11.4458 18.6624 11.4458 18.1308Z" fill="white"/>
<path d="M19.1758 17.387L17.5808 20.6125H16.801L15.206 17.387V21.1087H13.8945V15.1895H15.6668L17.1909 18.4149L18.715 15.1895H20.4872V21.1087H19.1758V17.387Z" fill="white"/>
<path d="M26.0172 15.7566C26.4426 16.111 26.6553 16.6427 26.6553 17.387C26.6553 18.1314 26.4426 18.663 26.0172 18.982C25.5919 19.3365 24.9539 19.4783 24.0678 19.4783H23.288V21.1087H21.9766V15.1895H24.0678C24.9539 15.2249 25.5919 15.4021 26.0172 15.7566ZM25.0602 18.0605C25.202 17.8832 25.3084 17.6351 25.3084 17.2807C25.3084 16.9262 25.202 16.7136 24.9894 16.5718C24.7767 16.43 24.4577 16.3591 24.0324 16.3591H23.288V18.344H24.1741C24.5995 18.344 24.883 18.2377 25.0602 18.0605Z" fill="white"/>
<path d="M29.2398 19.5844C29.4525 19.8679 29.7715 20.0097 30.1259 20.0097C30.4804 20.0097 30.7994 19.8679 31.0121 19.5844C31.2247 19.3008 31.3311 18.9464 31.3311 18.4502V15.1893H32.6425V18.4856C32.6425 19.3363 32.3944 20.0097 31.9336 20.4705C31.4728 20.9313 30.8703 21.144 30.1259 21.144C29.3816 21.144 28.779 20.8958 28.3183 20.4351C27.8575 19.9743 27.6094 19.3008 27.6094 18.4502V15.1538H28.9208V18.4147C28.9208 18.9464 29.0272 19.3363 29.2398 19.5844Z" fill="white"/>
<path d="M36.5086 16.3588V21.1084H35.1971V16.3588H33.5312V15.2246H38.2099V16.3588H36.5086Z" fill="white"/>
<path d="M39.168 15.2246H40.4794V21.1439H39.168V15.2246Z" fill="white"/>
<path d="M46.0413 15.2246H47.3527V21.1439H46.0413L43.2411 17.4576V21.1439H41.9297V15.2246H43.1702L46.0767 19.0172V15.2246H46.0413Z" fill="white"/>
<path d="M52.6671 18.1314H53.9786V20.2227C53.376 20.8607 52.5962 21.2151 51.5329 21.2151C50.6822 21.2151 49.9379 20.9316 49.3353 20.3645C48.7328 19.7973 48.4492 19.053 48.4492 18.2023C48.4492 17.3162 48.7328 16.6073 49.3353 16.0048C49.9379 15.4022 50.6468 15.1187 51.4975 15.1187C52.3481 15.1187 53.0925 15.4022 53.695 15.9693L53.0216 16.9618C52.7735 16.7137 52.5254 16.5719 52.2772 16.501C52.0646 16.4301 51.8165 16.3592 51.5683 16.3592C51.0721 16.3592 50.6468 16.5364 50.2923 16.8554C49.9379 17.2099 49.7607 17.6352 49.7607 18.2023C49.7607 18.7694 49.9379 19.1948 50.2569 19.5492C50.5759 19.8682 50.9658 20.0455 51.4266 20.0455C51.8874 20.0455 52.2772 19.9746 52.5608 19.7973V18.1314H52.6671Z" fill="white"/>
<path d="M61.4235 15.2246V16.3943H58.6943V17.6703H61.2817V18.84H58.6943V21.1439H57.3828V15.2246H61.4235Z" fill="white"/>
<path d="M67.5195 20.2929C66.917 20.86 66.1726 21.179 65.322 21.179C64.4358 21.179 63.727 20.8954 63.1244 20.2929C62.5218 19.7258 62.2383 18.9814 62.2383 18.1308C62.2383 17.2801 62.5218 16.5357 63.1244 15.9686C63.727 15.4015 64.4713 15.0825 65.322 15.0825C66.2081 15.0825 66.917 15.3661 67.5195 15.9686C68.1221 16.5357 68.4056 17.2801 68.4056 18.1308C68.4056 18.9814 68.1221 19.7258 67.5195 20.2929ZM67.0588 18.1308C67.0588 17.5991 66.8815 17.1383 66.5625 16.7839C66.2081 16.4294 65.8182 16.2167 65.322 16.2167C64.8257 16.2167 64.4004 16.394 64.0814 16.7839C63.7269 17.1383 63.5852 17.5991 63.5852 18.1308C63.5852 18.6624 63.7624 19.0878 64.0814 19.4777C64.4358 19.8321 64.8257 20.0448 65.322 20.0448C65.8182 20.0448 66.2435 19.8675 66.5625 19.4777C66.917 19.1232 67.0588 18.6624 67.0588 18.1308Z" fill="white"/>
<path d="M71.1031 19.5844C71.3158 19.8679 71.6348 20.0097 71.9892 20.0097C72.3437 20.0097 72.6627 19.8679 72.8753 19.5844C73.088 19.3008 73.1943 18.9464 73.1943 18.4502V15.1893H74.5058V18.4856C74.5058 19.3363 74.2577 20.0097 73.7969 20.4705C73.3361 20.9313 72.7336 21.144 71.9892 21.144C71.2449 21.144 70.6423 20.8958 70.1815 20.4351C69.7208 19.9743 69.4727 19.3008 69.4727 18.4502V15.1538H70.7841V18.4147C70.7487 18.9464 70.8904 19.3363 71.1031 19.5844Z" fill="white"/>
<path d="M79.9983 15.2246H81.3097V21.1439H79.9983L77.1982 17.4576V21.1439H75.8867V15.2246H77.1273L80.0337 19.0172V15.2246H79.9983Z" fill="white"/>
<path d="M87.2632 16.0044C87.8303 16.5361 88.1139 17.245 88.1139 18.1665C88.1139 19.0881 87.8303 19.797 87.2986 20.3286C86.767 20.8603 85.9163 21.1439 84.7821 21.1439H82.7617V15.2246H84.853C85.9163 15.2246 86.7315 15.4727 87.2632 16.0044ZM86.3062 19.5134C86.6252 19.1944 86.8024 18.7691 86.8024 18.202C86.8024 17.6348 86.6252 17.1741 86.3062 16.8551C85.9872 16.5361 85.491 16.3943 84.8175 16.3943H84.0732V19.9742H84.9238C85.5264 19.9387 85.9872 19.797 86.3062 19.5134Z" fill="white"/>
<path d="M93.2904 21.1087L92.7587 19.8327H90.2776L89.7459 21.1087H88.3281L90.8801 15.1895H92.1561L94.7082 21.1087H93.2904ZM91.5181 16.9617L90.7738 18.663H92.2625L91.5181 16.9617Z" fill="white"/>
<path d="M97.4698 16.3588V21.1084H96.1584V16.3588H94.457V15.2246H99.1357V16.3588H97.4698Z" fill="white"/>
<path d="M100.094 15.2246H101.405V21.1439H100.094V15.2246Z" fill="white"/>
<path d="M107.824 20.2929C107.222 20.86 106.477 21.179 105.627 21.179C104.741 21.179 104.032 20.8954 103.429 20.2929C102.827 19.7258 102.543 18.9814 102.543 18.1308C102.543 17.2801 102.827 16.5357 103.429 15.9686C104.032 15.4015 104.776 15.0825 105.627 15.0825C106.513 15.0825 107.222 15.3661 107.824 15.9686C108.427 16.5357 108.71 17.2801 108.71 18.1308C108.71 18.9814 108.427 19.7258 107.824 20.2929ZM107.399 18.1308C107.399 17.5991 107.222 17.1383 106.903 16.7839C106.548 16.4294 106.158 16.2167 105.662 16.2167C105.166 16.2167 104.741 16.394 104.422 16.7839C104.067 17.1383 103.925 17.5991 103.925 18.1308C103.925 18.6624 104.103 19.0878 104.422 19.4777C104.776 19.8321 105.166 20.0448 105.662 20.0448C106.158 20.0448 106.584 19.8675 106.903 19.4777C107.222 19.1232 107.399 18.6624 107.399 18.1308Z" fill="white"/>
<path d="M113.955 15.2246H115.267V21.1439H113.955L111.155 17.4576V21.1439H109.844V15.2246H111.084L113.991 19.0172L113.955 15.2246Z" fill="white"/>
</svg>
