<svg width="70" height="70" viewBox="0 0 70 70" fill="none" xmlns="http://www.w3.org/2000/svg">
<rect width="69.33" height="69.33" rx="2" fill="white"/>
<path d="M9.42028 49.9465C9.56912 49.9465 9.69669 49.9252 9.84552 49.8615C9.9731 49.7977 10.0794 49.7126 10.1645 49.6063L10.5684 50.0103C10.4409 50.1591 10.2708 50.308 10.0794 50.393C9.88805 50.4781 9.67543 50.5206 9.46281 50.5206C9.27145 50.5206 9.08009 50.4993 8.90999 50.4355C8.7399 50.3717 8.5698 50.2654 8.42097 50.1379C8.29339 50.0103 8.18708 49.8615 8.10203 49.6914C8.03825 49.5213 7.99572 49.3512 7.99572 49.1598C7.99572 48.9685 8.01699 48.7984 8.10203 48.6283C8.16582 48.4582 8.27213 48.3093 8.42097 48.1818C8.54854 48.0542 8.71863 47.9479 8.88873 47.8841C9.05883 47.8203 9.25019 47.7778 9.44154 47.7778C9.65416 47.7778 9.86679 47.8203 10.0581 47.9053C10.2495 47.9904 10.4196 48.118 10.5684 48.2881L10.1857 48.7133C10.1007 48.607 9.99436 48.5007 9.86679 48.4582C9.73921 48.3944 9.59038 48.3731 9.46281 48.3731C9.25019 48.3731 9.03756 48.4582 8.86747 48.607C8.78242 48.692 8.71863 48.7771 8.67611 48.8834C8.63359 48.9897 8.61232 49.096 8.61232 49.2023C8.61232 49.3086 8.63359 49.415 8.65485 49.5213C8.69737 49.6276 8.76116 49.7126 8.82494 49.7977C8.88873 49.8827 8.97378 49.9252 9.08009 49.9678C9.20766 49.9465 9.31397 49.9465 9.42028 49.9465ZM13.2687 50.1166C12.9923 50.3717 12.6309 50.5206 12.2481 50.5206C12.0568 50.5206 11.8654 50.4993 11.6953 50.4143C11.5252 50.3505 11.3551 50.2442 11.2276 50.1166C10.9724 49.8615 10.8236 49.5 10.8236 49.1385C10.8236 48.7771 10.9724 48.4156 11.2276 48.1605C11.504 47.9054 11.8654 47.7565 12.2481 47.7565C12.4395 47.7565 12.6309 47.7778 12.8009 47.8628C12.971 47.9266 13.1411 48.0329 13.2687 48.1605C13.5239 48.4156 13.6727 48.7771 13.6727 49.1385C13.6727 49.5 13.5239 49.8402 13.2687 50.1166ZM13.0774 49.1385C13.0774 48.9047 12.9923 48.692 12.8435 48.522C12.7797 48.4369 12.6734 48.3731 12.5883 48.3306C12.482 48.2881 12.3757 48.2668 12.2694 48.2668C12.1631 48.2668 12.0568 48.2881 11.9505 48.3306C11.8442 48.3731 11.7591 48.4369 11.6953 48.522C11.6103 48.607 11.5465 48.692 11.5252 48.7984C11.504 48.9047 11.4614 49.011 11.4827 49.1173C11.4827 49.3512 11.5677 49.5638 11.7166 49.7339C11.7804 49.8189 11.8867 49.8827 11.9717 49.9252C12.078 49.9678 12.1843 49.989 12.2907 49.989C12.397 49.989 12.5033 49.9678 12.6096 49.9252C12.7159 49.8827 12.8009 49.8189 12.8647 49.7339C12.9923 49.5638 13.0774 49.3512 13.0774 49.1385ZM16.6706 48.7984L15.9265 50.2654H15.565L14.8208 48.7984V50.4781H14.2042V47.7778H15.0335L15.7351 49.2449L16.4368 47.7778H17.266V50.4781H16.6706V48.7984ZM19.8387 48.0542C19.945 48.1392 20.03 48.2668 20.0726 48.3944C20.1151 48.522 20.1364 48.6708 20.1364 48.7984C20.1364 49.1386 20.03 49.3724 19.8387 49.5213C19.6473 49.6914 19.3497 49.7552 18.9244 49.7552H18.5842V50.4993H17.9676V47.8203H18.9457C19.3497 47.8203 19.6473 47.8841 19.8387 48.0542ZM19.3922 49.096C19.4772 48.9897 19.5198 48.8621 19.4985 48.7346C19.4985 48.6708 19.4985 48.607 19.4772 48.5432C19.456 48.4794 19.4134 48.4369 19.3497 48.3944C19.2221 48.3306 19.052 48.2881 18.9032 48.2881H18.5842V49.1811H18.9882C19.052 49.1811 19.137 49.1811 19.2008 49.1598C19.2859 49.1811 19.3497 49.1386 19.3922 49.096ZM21.3483 49.7977C21.3908 49.8615 21.4546 49.904 21.5397 49.9465C21.6034 49.989 21.6885 49.989 21.7735 49.989C21.8586 49.989 21.9224 49.9678 22.0074 49.9465C22.0712 49.904 22.135 49.8615 22.1988 49.7977C22.3051 49.6488 22.3689 49.4575 22.3476 49.2874V47.799H22.9642V49.2874C22.9642 49.4575 22.9429 49.6063 22.9004 49.7764C22.8366 49.9252 22.7516 50.0741 22.6453 50.2017C22.4114 50.393 22.1137 50.4993 21.7948 50.4993C21.4759 50.4993 21.1782 50.3718 20.9656 50.1804C20.8593 50.0528 20.7742 49.9252 20.7104 49.7552C20.6466 49.6063 20.6254 49.4362 20.6466 49.2661V47.7778H21.2632V49.2661C21.1782 49.4575 21.242 49.6276 21.3483 49.7977ZM24.729 48.3306V50.4781H24.1124V48.3306H23.3469V47.8203H25.5157V48.3306H24.729ZM25.9622 47.8203H26.5788V50.4993H25.9622V47.8203ZM29.1515 47.8203H29.7681V50.4993H29.1515L27.8545 48.8196V50.4993H27.2379V47.8203H27.812L29.1727 49.5425L29.1515 47.8203ZM32.2345 49.1385H32.8511V50.0953C32.7022 50.2442 32.5321 50.3717 32.3408 50.4355C32.1494 50.5206 31.9368 50.5418 31.7242 50.5418C31.3415 50.5418 30.98 50.4143 30.7036 50.1591C30.576 50.0316 30.4697 49.8827 30.3847 49.7126C30.2996 49.5425 30.2784 49.3724 30.2784 49.1811C30.2784 48.9897 30.2996 48.8196 30.3847 48.6495C30.4485 48.4794 30.5548 48.3306 30.6823 48.203C30.8099 48.0754 30.98 47.9691 31.1501 47.9053C31.3202 47.8416 31.5116 47.799 31.7029 47.799C32.0856 47.799 32.4471 47.9266 32.7235 48.1818L32.4046 48.6283C32.3195 48.522 32.1919 48.4582 32.0644 48.4156C31.9581 48.3731 31.8517 48.3519 31.7242 48.3519C31.5116 48.3519 31.2989 48.4369 31.1288 48.5857C31.0438 48.6708 30.98 48.7558 30.9375 48.8621C30.895 48.9685 30.8737 49.0748 30.8737 49.2023C30.8737 49.4362 30.9587 49.6488 31.1076 49.8189C31.1714 49.8827 31.2564 49.9465 31.3627 49.989C31.4478 50.0316 31.5541 50.0528 31.6604 50.0528C31.8517 50.0528 32.0218 50.0316 32.1919 49.9465V49.1811C32.1919 49.1385 32.2345 49.1385 32.2345 49.1385ZM36.3168 47.8203V48.3519H35.0411V48.9259H36.253V49.4575H35.0411V50.4993H34.4245V47.8203H36.3168ZM39.1446 50.1166C38.8682 50.3717 38.5068 50.5206 38.1241 50.5206C37.9327 50.5206 37.7413 50.4993 37.5712 50.4143C37.4011 50.3505 37.231 50.2442 37.1035 50.1166C36.8483 49.8615 36.6995 49.5 36.6995 49.1385C36.6995 48.7771 36.8483 48.4156 37.1035 48.1605C37.3799 47.9054 37.7413 47.7565 38.1241 47.7565C38.3154 47.7565 38.5068 47.7778 38.6769 47.8628C38.847 47.9266 39.0171 48.0329 39.1446 48.1605C39.3998 48.4156 39.5486 48.7771 39.5486 49.1385C39.5486 49.5 39.421 49.8402 39.1446 50.1166ZM38.932 49.1385C38.932 48.9047 38.847 48.692 38.6981 48.522C38.6343 48.4369 38.528 48.3731 38.443 48.3306C38.3367 48.2881 38.2304 48.2668 38.1241 48.2668C38.0177 48.2668 37.9114 48.2881 37.8051 48.3306C37.6988 48.3731 37.6138 48.4369 37.55 48.522C37.4649 48.607 37.4011 48.692 37.3799 48.7984C37.3374 48.9047 37.3161 49.011 37.3374 49.1173C37.3374 49.3512 37.4224 49.5638 37.5712 49.7339C37.635 49.8189 37.7413 49.8827 37.8264 49.9252C37.9327 49.9678 38.039 49.989 38.1453 49.989C38.2516 49.989 38.3579 49.9678 38.4642 49.9252C38.5706 49.8827 38.6556 49.8189 38.7194 49.7339C38.8044 49.6488 38.8682 49.5638 38.8895 49.4575C38.932 49.3512 38.9533 49.2449 38.932 49.1385ZM40.8243 49.7977C40.8669 49.8615 40.9306 49.904 41.0157 49.9465C41.0795 49.989 41.1645 49.989 41.2496 49.989C41.3346 49.989 41.3984 49.9678 41.4835 49.9465C41.5472 49.904 41.611 49.8615 41.6748 49.7977C41.7811 49.6488 41.8449 49.4575 41.8237 49.2874V47.799H42.4403V49.2874C42.4403 49.4575 42.419 49.6063 42.3765 49.7764C42.3127 49.9252 42.2276 50.0741 42.1213 50.2017C41.8874 50.393 41.5898 50.4993 41.2708 50.4993C40.9519 50.4993 40.6542 50.3718 40.4416 50.1804C40.3353 50.0528 40.2503 49.9252 40.1865 49.7552C40.1227 49.6063 40.1014 49.4362 40.1227 49.2661V47.7778H40.7393V49.2661C40.633 49.4575 40.6968 49.6488 40.8243 49.7977ZM44.9492 47.8203H45.5658V50.4993H44.9492L43.6522 48.8196V50.4993H43.0356V47.8203H43.6097L44.9704 49.5425L44.9492 47.8203ZM48.3298 48.1605C48.4574 48.2881 48.5637 48.4369 48.6275 48.607C48.6913 48.7771 48.7338 48.9472 48.7126 49.1385C48.7126 49.3086 48.6913 49.5 48.6275 49.6701C48.5637 49.8402 48.4574 49.989 48.3298 50.1166C48.0747 50.3505 47.692 50.4781 47.1604 50.4781H46.2249V47.799H47.203C47.7132 47.8203 48.096 47.9266 48.3298 48.1605ZM47.8833 49.7552C47.9684 49.6701 48.0322 49.5851 48.0534 49.4787C48.096 49.3724 48.1172 49.2661 48.096 49.1598C48.096 49.0535 48.0747 48.9259 48.0534 48.8409C48.0109 48.7346 47.9471 48.6495 47.8833 48.5645C47.7983 48.4794 47.6707 48.4369 47.5644 48.3944C47.4368 48.3519 47.3305 48.3519 47.203 48.3519H46.8628V49.9678H47.2667C47.4794 49.9678 47.7132 49.904 47.8833 49.7552ZM51.1364 50.4781L50.8813 49.904H49.7331L49.478 50.4781H48.8189L50.0095 47.799H50.6049L51.7956 50.4781H51.1364ZM50.3072 48.607L49.967 49.3724H50.6687L50.3072 48.607ZM53.0925 48.3306V50.4781H52.4759V48.3306H51.6892V47.8203H53.858V48.3306H53.0925ZM54.3045 47.8203H54.9211V50.4993H54.3045V47.8203ZM57.8978 50.1166C57.6214 50.3717 57.2599 50.5206 56.8772 50.5206C56.6858 50.5206 56.4945 50.4993 56.3244 50.4143C56.1543 50.3505 55.9842 50.2442 55.8566 50.1166C55.6015 49.8615 55.4526 49.5 55.4526 49.1385C55.4526 48.7771 55.6015 48.4156 55.8566 48.1605C56.133 47.9054 56.4945 47.7565 56.8772 47.7565C57.0685 47.7565 57.2599 47.7778 57.43 47.8628C57.6001 47.9266 57.7702 48.0329 57.8978 48.1605C58.1529 48.4156 58.3017 48.7771 58.3017 49.1385C58.3017 49.5 58.1529 49.8402 57.8978 50.1166ZM57.7064 49.1385C57.7064 48.9047 57.6214 48.692 57.4725 48.522C57.4087 48.4369 57.3024 48.3731 57.2174 48.3306C57.1111 48.2881 57.0048 48.2668 56.8984 48.2668C56.7921 48.2668 56.6858 48.2881 56.5795 48.3306C56.4732 48.3731 56.3882 48.4369 56.3244 48.522C56.2393 48.607 56.1755 48.692 56.1543 48.7984C56.1118 48.9047 56.0905 49.011 56.1118 49.1173C56.1118 49.3512 56.1968 49.5638 56.3456 49.7339C56.4094 49.8189 56.5157 49.8827 56.6008 49.9252C56.7071 49.9678 56.8134 49.989 56.9197 49.989C57.026 49.989 57.1323 49.9678 57.2386 49.9252C57.345 49.8827 57.43 49.8189 57.4938 49.7339C57.6214 49.5638 57.7064 49.3512 57.7064 49.1385ZM60.7469 47.8203H61.3635V50.4993H60.7469L59.4499 48.8196V50.4993H58.8333V47.8203H59.4074L60.7681 49.5425L60.7469 47.8203ZM10.3133 44.9074C10.5684 44.9074 10.8236 44.8649 11.0575 44.7373C11.2913 44.6097 11.4827 44.4609 11.6528 44.2695L12.3757 44.9924C11.8016 45.609 11.1638 45.928 10.3771 45.928C10.0369 45.9492 9.67543 45.8855 9.3565 45.7579C9.03756 45.6303 8.7399 45.4602 8.48475 45.2263C8.25087 44.9925 8.05951 44.716 7.93194 44.4184C7.80437 44.1207 7.74058 43.7805 7.76184 43.4616C7.76184 43.1214 7.80437 42.8025 7.9532 42.4835C8.08077 42.1646 8.27213 41.8882 8.52728 41.6543C8.78242 41.4204 9.10135 41.2291 9.44154 41.1015C9.78174 40.9739 10.1432 40.9314 10.5046 40.9527C10.8661 40.9739 11.2276 41.059 11.5465 41.2078C11.8654 41.3566 12.1631 41.5905 12.397 41.8457L11.7166 42.6111C11.5677 42.4197 11.3764 42.2496 11.1425 42.1433C10.9086 42.037 10.6747 41.9732 10.4196 41.9732C10.0156 41.9732 9.6329 42.1008 9.3565 42.356C9.20766 42.4835 9.08009 42.6536 9.0163 42.845C8.93125 43.0363 8.90999 43.2277 8.90999 43.4403C8.90999 43.6317 8.93125 43.8443 8.99504 44.0357C9.05883 44.227 9.1864 44.3971 9.31397 44.5459C9.59038 44.7798 9.93057 44.9074 10.3133 44.9074ZM13.2475 45.8429V40.9952H14.3318V44.8861H16.458V45.8429H13.2475ZM21.3058 45.1838C20.7955 45.6516 20.1364 45.9067 19.456 45.9067C18.7756 45.9067 18.0952 45.6516 17.6062 45.1838C17.351 44.9499 17.1597 44.6735 17.0321 44.3759C16.9045 44.0782 16.8407 43.738 16.8407 43.4191C16.8407 43.0789 16.8833 42.7599 17.0321 42.4623C17.1597 42.1646 17.351 41.8882 17.6062 41.6543C18.1165 41.1865 18.7756 40.9314 19.456 40.9314C20.1364 40.9314 20.8167 41.1865 21.3058 41.6543C21.5609 41.8882 21.7523 42.1646 21.8798 42.4623C22.0074 42.7599 22.0712 43.1001 22.0712 43.4191C22.0712 43.7593 22.0287 44.0782 21.8798 44.3759C21.7523 44.6735 21.5609 44.9499 21.3058 45.1838ZM20.9231 43.3978C20.9231 42.9938 20.7742 42.5898 20.4978 42.2922C20.3702 42.1433 20.2001 42.037 20.03 41.952C19.8387 41.8669 19.6473 41.8244 19.456 41.8244C19.2646 41.8244 19.052 41.8669 18.8819 41.952C18.6905 42.037 18.5417 42.1433 18.4141 42.2922C18.1377 42.5898 17.9676 42.9938 17.9889 43.3978C17.9889 43.8018 18.1377 44.2058 18.4141 44.5034C18.5417 44.6523 18.7118 44.7586 18.8819 44.8436C19.0733 44.9287 19.2646 44.9712 19.456 44.9712C19.6473 44.9712 19.86 44.9287 20.03 44.8436C20.2214 44.7586 20.3702 44.6523 20.4978 44.5034C20.6466 44.3546 20.753 44.1845 20.838 43.9931C20.9018 43.8018 20.9231 43.6104 20.9231 43.3978ZM24.325 44.6097C24.41 44.716 24.5376 44.8011 24.6652 44.8649C24.7927 44.9287 24.9416 44.9499 25.0904 44.9499C25.2393 44.9499 25.3668 44.9287 25.4944 44.8649C25.622 44.8011 25.7283 44.716 25.8133 44.6097C26.0047 44.3333 26.0897 44.0144 26.0897 43.6955V41.0164H27.1954V43.7167C27.1954 44.4184 27.004 44.9499 26.6 45.3326C26.4087 45.524 26.1535 45.6728 25.8984 45.7579C25.6432 45.8642 25.3668 45.9067 25.0692 45.8855C24.7927 45.8855 24.5163 45.8429 24.2399 45.7579C23.9635 45.6728 23.7296 45.5027 23.5383 45.3326C23.1343 44.9499 22.9429 44.4184 22.9429 43.7167V41.0164H24.0486V43.6955C24.0061 44.0357 24.1124 44.3546 24.325 44.6097ZM32.1282 41.6543C32.5959 42.0795 32.8511 42.6749 32.8511 43.4191C32.8511 44.1632 32.6172 44.7798 32.1707 45.2051C31.7242 45.6516 31.0013 45.8642 30.0657 45.8642H28.3435V41.0164H30.1083C30.9587 41.0164 31.6604 41.2291 32.1282 41.6543ZM31.3202 44.5247C31.5966 44.2695 31.7242 43.9081 31.7242 43.4403C31.7242 42.9726 31.5966 42.5898 31.3202 42.356C31.0438 42.1008 30.6398 41.9732 30.0657 41.9732H29.4491V44.9287H30.1508C30.576 44.9287 30.98 44.8011 31.3202 44.5247ZM39.1446 41.0164H40.2503V45.8642H39.1446L36.7633 42.8237V45.8642H35.6577V41.0164H36.6995L39.1446 44.1207V41.0164ZM45.013 45.8429L44.5452 44.8011H42.4615L41.9937 45.8429H40.8031L42.9505 40.9952H44.0136L46.1611 45.8429H45.013ZM43.5246 42.4623L42.908 43.8656H44.1412L43.5246 42.4623ZM48.5212 41.952V45.8642H47.4156V41.952H46.0123V41.0164H49.9458V41.952H48.5212ZM50.7112 41.0164H51.8168V45.8642H50.7112V41.0164ZM54.8786 44.0782L56.1543 40.9952H57.3662L55.3676 45.8429H54.4321L52.4334 40.9952H53.6454L54.8786 44.0782ZM61.5123 41.0164V41.9732H59.0459V42.9726H61.2784V43.9081H59.0459V44.9287H61.5974V45.9067H57.9403V41.059L61.5123 41.0164Z" fill="black"/>
<path d="M27.6622 30.2575H25.2383V35.9982H30.9578V33.5106H27.6622V30.2575ZM39.9516 30.2788V33.5106H36.6773V35.977H42.3968V30.2362H39.9304L39.9516 30.2788ZM25.2383 24.538H27.7047L27.6834 24.5167V21.2849H30.9578V18.8185H25.2383V24.538ZM36.6773 18.8185V21.2849H39.9516V24.538H42.3968V18.7972C42.3968 18.8185 36.6773 18.8185 36.6773 18.8185Z" fill="#0086FF"/>
<path d="M36.3583 24.5383L33.084 21.264H36.6773V18.8188H30.9365V21.2852L34.2109 24.5383H36.3583ZM33.4029 30.2578H31.2554L33.9557 32.9581L34.4873 33.5109H30.9152V35.9773H36.656V33.4897L35.0188 31.8737L33.4029 30.2578ZM39.9516 24.5383V28.1104L39.3775 27.5576L36.6773 24.8573V27.026L38.2932 28.6419L39.9304 30.2791H42.3968V24.5383H39.9516ZM30.9365 27.7914L27.7047 24.5383H25.2383V30.2366H27.6834V26.6858L30.9578 29.9602V27.7914H30.9365Z" fill="#93EAFF"/>
</svg>
