<svg xmlns="http://www.w3.org/2000/svg" viewBox="0 0 389 389"><g fill="#0086ff"><path d="M72.8 250.7h-48v112.6H137v-48.4H72.8zM314.1 251.2v63.7h-64.3v48.4H362V250.7h-48.5zM24.9 138.6h48.5l-.5-.5V74.5h64.3V26H24.9zM249.9 26v48.4h64.3v64.2h48V26z"/></g><path fill="#93eaff" d="m243.5 138.6-64.3-64.2h70.6V26H137.1v48.4l64.3 64.2zM185.6 250.7h-42.2l53.2 53.2 10.5 11H137v48.4h112.8v-49l-32.1-31.6zM314.1 138.6v70L303 197.5l-53.2-53.2V187l31.6 31.6 32.1 32.1H362V138.6zM137.1 202.3l-63.8-63.7H24.9v112h48v-70l64.3 64.2v-42.5z"/></svg>