<svg xmlns="http://www.w3.org/2000/svg" width="493" height="120" fill="none"><g fill="#fff"><path d="M157.922 91q-1.734 0-2.531-.797t-.797-2.531V35.969q0-1.734.797-2.485.797-.795 2.531-.796h18.656q8.579 0 14.531 3.375 6 3.328 9.047 9.843 3.094 6.516 3.094 15.89 0 9.423-3.094 15.938-3.047 6.516-9.047 9.891Q185.157 91 176.578 91zm18.656-10.922q6.657 0 10.078-4.64 3.423-4.688 3.422-13.641 0-8.906-3.422-13.547-3.421-4.687-10.078-4.687h-9.047v36.515zm46.031 11.625q-6.375 0-9.375-3.328-2.953-3.375-2.953-8.906 0-4.172 1.735-7.5 1.734-3.375 7.031-5.672T234.188 64v-2.766q0-2.437-1.547-3.609-1.548-1.172-4.922-1.172-2.813 0-4.828.61-2.016.562-4.36 1.546-1.218.563-1.5.563-.843 0-1.875-1.266A14.6 14.6 0 0 1 213.422 55q-.75-1.641-.75-2.484 0-1.454 2.062-2.766 2.11-1.36 5.766-2.156 3.657-.844 8.109-.844 9.375 0 13.641 3.75 4.266 3.704 4.266 10.172v15.61q0 3.89.187 6.046.234 2.157.609 4.266.235 1.265.235 1.781 0 .937-1.781 1.547-1.735.61-3.985.89c-2.25.28-2.703.282-3.609.282q-1.453 0-2.11-1.219-.609-1.266-.984-3.422l-.094-.562a4 4 0 0 0-.14-.563q-.47.89-2.016 2.39-1.5 1.5-4.125 2.766-2.625 1.22-6.094 1.22m4.079-9.797q2.343 0 4.406-1.453a9.4 9.4 0 0 0 3.094-3.797v-4.593q-11.672 0-11.672 6.14 0 1.641 1.078 2.672 1.125 1.032 3.094 1.031m47.39 26.766q-19.828 0-19.828-11.531 0-3.235 1.922-5.72 1.968-2.483 5.672-3.937l.047-.328a6.4 6.4 0 0 1-2.625-2.531q-.938-1.64-.938-3.703 0-2.11 1.266-3.89 1.313-1.782 3.75-3.048-3.187-1.78-5.016-4.875-1.78-3.093-1.781-7.546 0-7.594 4.922-11.204 4.968-3.609 13.031-3.609 3.375 0 6.422.656h13.406q1.313 0 1.922 1.032.609.984.609 3.14v1.406q0 3.938-2.015 3.938-.704 0-1.922-.094-1.172-.093-1.688-.234l-.14.328q.562.75.937 2.11.375 1.311.375 2.53 0 7.454-4.687 11.11-4.688 3.61-12.281 3.61-5.11 0-5.11 2.296 0 1.031 1.031 1.64 1.032.564 2.625.891 1.641.33 4.641.704a63 63 0 0 1 4.031.562q5.906 1.172 9.422 3.844 3.516 2.624 3.516 8.297 0 4.265-2.672 7.453-2.672 3.187-7.547 4.922-4.875 1.78-11.297 1.781m.422-41.25q2.766 0 4.5-1.453 1.781-1.454 1.781-4.406 0-2.954-1.781-4.407-1.734-1.5-4.5-1.5c-2.766 0-3.359.5-4.547 1.5q-1.734 1.454-1.734 4.407 0 2.952 1.734 4.406 1.781 1.453 4.547 1.453m.516 31.5q4.218 0 6.375-1.078 2.202-1.078 2.203-3 0-1.312-1.266-2.11-1.218-.75-3.984-1.265-2.72-.469-7.641-.797-2.11.75-3.281 1.969c-1.171 1.219-1.172 1.656-1.172 2.53q0 1.782 2.156 2.767t6.61.984m39.187-7.219q-3.234 0-6.422-.703t-5.297-2.016q-2.062-1.312-2.062-3 0-1.03.75-2.578t1.781-2.672q1.079-1.17 1.875-1.171.422 0 1.828.656 1.641.75 3.141 1.219c1.5.469 2.141.468 3.422.468q2.39 0 3.609-.89 1.22-.892 1.219-2.625 0-1.312-.75-2.157-.703-.89-1.828-1.453c-1.125-.563-1.813-.828-3.188-1.36l-1.359-.515q-2.672-1.031-4.688-2.344-2.015-1.311-3.422-3.796-1.406-2.532-1.406-6.375 0-4.266 1.828-7.313 1.875-3.093 5.297-4.687 3.422-1.641 8.063-1.641 2.671 0 5.578.516 2.906.515 4.875 1.593 2.015 1.079 2.015 2.72 0 .937-.609 2.53-.563 1.594-1.406 2.813-.844 1.218-1.594 1.219-.234 0-1.312-.422a18.6 18.6 0 0 0-2.813-.938q-1.312-.375-3.047-.375-4.406 0-4.406 2.907 0 1.313.797 2.25a6.9 6.9 0 0 0 2.062 1.546q1.22.61 3.422 1.454 2.532 1.03 3.141 1.312 3.28 1.64 5.25 4.36 2.015 2.67 2.015 7.171 0 4.266-1.921 7.5-1.923 3.234-5.625 5.016-3.704 1.78-8.813 1.781m30-.562q-4.969 0-4.969-2.625V35.172q0-1.359 1.172-2.016 1.219-.703 3.797-.703h2.953q2.579 0 3.75.703 1.22.657 1.219 2.016V55.75h22.5V35.172q0-1.359 1.219-2.016 1.218-.703 3.797-.703h2.906q5.015 0 5.015 2.719v53.344q0 2.625-5.015 2.625h-2.906q-5.016 0-5.016-2.625v-21.75h-22.5v21.75q0 2.625-4.969 2.625zm66.328.562q-6.28 0-9.281-3.281-3-3.328-3-10.266V49.891q0-1.313 1.219-1.97 1.218-.655 3.797-.655h2.296q2.579 0 3.797.656 1.22.656 1.219 1.969v26.39q0 2.579 1.172 3.89c1.172 1.312 2.062 1.313 3.844 1.313q2.297 0 3.984-1.453 1.734-1.5 2.672-3.375V49.891q0-1.313 1.219-1.97 1.218-.655 3.797-.655h2.296q2.579 0 3.797.656 1.22.656 1.219 1.969v26.39q0 3.938.188 6.188.234 2.203.562 4.125.234 1.265.234 1.781 0 .937-1.734 1.547t-3.984.89q-2.203.282-3.563.282-1.5 0-2.156-1.172-.609-1.219-.984-3.422l-.235-1.172q-1.968 2.672-5.297 4.547-3.281 1.828-7.078 1.828m57.516 0q-3.704 0-6.656-1.734-2.953-1.782-4.453-4.547l-.235.984q-.422 1.828-.656 2.578-.328 1.313-1.453 1.735t-3.328.422h-.985q-5.015 0-5.015-2.625V30.859q0-1.36 1.218-2.015 1.219-.703 3.797-.703h2.297q5.016 0 5.016 2.718v18.47q3.516-2.58 8.484-2.579 5.532 0 9.469 2.766 3.984 2.718 6.047 7.78c2.063 5.063 2.062 7.329 2.062 11.86q0 7.079-2.015 12.188-1.97 5.063-5.532 7.734-3.515 2.625-8.062 2.625m-3.609-10.125q6.702 0 6.703-12.422 0-12.702-7.735-12.703-2.86 0-5.812 1.594v18.61q2.859 4.92 6.844 4.921M26.047 57.93s.026-.025.076-.1l-.126.075zM79.147 101.839a24 24 0 0 1-1.393-1.596c-.076-.101-.152-.177-.228-.253-.076-.05-.126-.127-.202-.177-.127-.102-.279-.152-.456-.203a1.46 1.46 0 0 0-.81.025q-.304.114-.532.304c-.076.051-.101.102-.152.178l-.177.202-.152.177-.583.659c-.38.43-.962 1.038-1.721 1.798a37.4 37.4 0 0 1-7.141 5.469c-.684.405-1.418.785-2.178 1.165.71.304 1.367.532 2.026.81 1.038.405 2.076.836 3.444 1.368.227.101.531.202.987.354.228.076.481.152.785.253s.658.178 1.064.279c.303.076.76.152 1.215.253.228.051.481.076.71.101l.354.051.354.025.658.051c.203.025.38.025.532.025l.507.026h.43c.253 0 .633 0 1.038-.026.861-.05 1.697-.177 2.532-.329l.76-.152c.253-.05.481-.126.684-.177l.608-.177.531-.178c.33-.126.633-.202.887-.303l.607-.254c.33-.126.659-.253.962-.405.304-.152.583-.253.861-.38a37 37 0 0 1 1.57-.683c.507-.203 1.013-.431 1.545-.659l.43-.202a37 37 0 0 1-6.583-3.95c-1.317-1.064-2.608-2.203-3.773-3.469M51.496 76.643a6.68 6.68 0 0 0 6.685-6.685 6.68 6.68 0 0 0-6.685-6.684 6.68 6.68 0 0 0-6.685 6.684 6.68 6.68 0 0 0 6.685 6.685M98.797 75.681c3.165 0 5.748-2.557 5.748-5.723s-2.558-5.748-5.723-5.748-5.748 2.558-5.748 5.723 2.557 5.723 5.723 5.748M34.378 44.738c.177-.278.355-.557.557-.836l.608-.835c.101-.127.228-.279.33-.405l.354-.405c.227-.279.48-.532.734-.785a15 15 0 0 1 1.671-1.444c.608-.43 1.241-.81 1.9-1.165.328-.177.632-.329.962-.48l.126-.051h.025l-.202-.405a4 4 0 0 0-.253-.456c-.33-.608-.684-1.165-1.039-1.747a54 54 0 0 0-4.71-6.28 93 93 0 0 0-4.557-4.887 70 70 0 0 0-3.393-3.165c-.836-.735-1.317-1.14-1.317-1.14s-.481-.405-1.317-1.114-2.127-1.697-3.697-2.836a64 64 0 0 0-5.545-3.697 35 35 0 0 0-3.343-1.773c-.582-.253-1.165-.506-1.772-.683-.279-.102-.583-.152-.886-.203a2.6 2.6 0 0 0-.76-.05c-.05 0-.076 0-.127.025-.025 0-.05.025-.076.025s-.025.025-.05.025c0 0 0-.025-.026.026-.076.101-.152.202-.202.304l-.102.152-.025.151a5.8 5.8 0 0 0-.329 1.722 21 21 0 0 0 .304 3.976c.202 1.342.456 2.659.709 3.95s.506 2.532.734 3.722c.38 1.975.684 3.596.81 4.432.051.303.076.582.127.86l.203.937c.202.76.329 1.545.48 2.33l.102.582c.025.203.05.406.076.583l.177 1.19.177 1.14c.051.354.102.734.178 1.063.076.33.126.709.228 1.063s.177.71.278 1.039a23.3 23.3 0 0 0 1.595 3.975c.33.633.659 1.24 1.013 1.798.178.304.355.582.532.86l.279.406.253.355a34 34 0 0 0 2.05 2.658c.609.735 1.14 1.292 1.495 1.672 1.317 1.392 2.355 2.481 3.317 3.545l1.443 1.646c.456.531.937 1.088 1.469 1.645l.101.076c.583-1.164 1.064-2.127 1.62-3.089a29 29 0 0 1 2.128-3.165c.253-.33.608-.81 1.038-1.443l.71-1.013.202-.279.228-.354c.151-.228.329-.456.48-.71.305-.48.634-.987.938-1.493.152-.254.329-.532.506-.81.177-.28.304-.456.481-.735M127.841 11.693c0-.076 0-.177-.026-.253a.66.66 0 0 0-.329-.152c-.152 0-.304.05-.43.101-.507.228-1.013.507-1.444.861a20.5 20.5 0 0 0-3.114 2.988c-1.165 1.292-2.71 3.216-3.925 4.862-1.216 1.646-2.153 2.937-2.153 2.937s-1.088 1.545-2.405 3.47a192 192 0 0 0-3.646 5.57l-1.646 2.583A27.3 27.3 0 0 1 105 39.446l.051.05.582.456c.406.355.887.71 1.393 1.165l1.621 1.494c.557.583 1.139 1.19 1.747 1.874l.886 1.063.456.557c.152.203.278.406.43.583l.861 1.215c.279.43.557.887.836 1.317a33.5 33.5 0 0 1 2.76 5.672c.127-.228.228-.43.355-.658.329-.659.607-1.292.886-1.925a205 205 0 0 1 1.924-4.431c.38-.861 1.114-2.557 2.077-5.368.911-2.634 1.873-5.85 2.709-9.192s1.57-6.837 2.127-10.027c.532-3.19.886-6.002 1.038-8.027.076-1.013.102-1.823.102-2.38v-.836z"/><path d="m133.589 11.845-.026-.456c0-.202-.025-.531-.076-1.012-.025-.304-.076-.608-.126-.937v-.026a8.4 8.4 0 0 0-.38-1.519l-.279-.658a7 7 0 0 0-.405-.735 5 5 0 0 0-1.139-1.266 5.1 5.1 0 0 0-2.127-1.038 5.6 5.6 0 0 0-.912-.127l-.354-.025h-.608c-.38 0-.76.05-1.14.101s-.785.152-1.164.254l-.355.1a10 10 0 0 0-1.291.533c-1.773.886-3.216 2.228-4.28 3.291-.506.507-1.013 1.064-1.494 1.57-.557.608-1.164 1.216-1.747 1.824a24 24 0 0 1-3.266 2.734 15.9 15.9 0 0 1-3.571 1.823l-2.456.937-.177.076c-.279.127-.557.254-.81.38l-.406.203-.278.126c-.329.152-.659.33-.962.507a35 35 0 0 0-3.875 2.481l-.025.026-.43.329c-.304.228-.608.456-.887.709l-1.24 1.063-.861.81a22 22 0 0 0-3.773 4.61c-.127.202-.254.43-.38.632l-.304-.126a69 69 0 0 0-8.66-2.533c-6.001-1.316-12.154-1.823-18.308-1.443-.48.025-.937.05-1.392.101a5 5 0 0 1-.608.051l-.76.076-.278.025-.886.102c-.406.05-.81.1-1.165.152l-.583.076c-1.14.177-1.924.303-2.481.43-1.773.33-3.52.86-5.191 1.57a17 17 0 0 0-2.203-3.621 22 22 0 0 0-1.9-2.152 28 28 0 0 0-1.493-1.393l-.355-.279c-.202-.152-.38-.304-.557-.43l-.202-.152c-.203-.152-.456-.355-.76-.532l-.152-.101a18 18 0 0 0-.86-.557l-.026-.025c-.304-.178-.659-.406-1.064-.608l-.506-.253c-.152-.076-.304-.152-.456-.203l-.684-.304-1.24-.481-1.773-.582-.456-.152a22 22 0 0 1-1.367-.456h-.025l-.406-.152-.531-.203-.912-.43a19 19 0 0 1-3.266-1.849l-.026-.025a35 35 0 0 1-3.165-2.608l-.962-.861c-.81-.734-1.646-1.52-2.507-2.254a44 44 0 0 0-3.722-2.886 27 27 0 0 0-3.925-2.406c-.71-.354-1.418-.684-2.153-.937L13.944.73a13 13 0 0 0-2.431-.608 10 10 0 0 0-2.735-.05 8.8 8.8 0 0 0-2.684.76l-.05.025c-.735.354-1.419.835-2.052 1.392l-.05.05c-.228.229-.456.457-.684.71l-.076.101-.076.101a7 7 0 0 0-.405.532c-.43.608-.81 1.266-1.114 1.95l-.228.506c-.051.127-.076.228-.102.279-.025.05-.1.279-.202.557l-.026.076a14.5 14.5 0 0 0-.48 1.798c-.178.886-.33 1.798-.431 2.71l-.025.252c-.026.178-.026.38-.051.583l-.025.81a14 14 0 0 0 .025 1.798l.025.355a21 21 0 0 0 .962 4.482c.431 1.24.963 2.456 1.47 3.62l.151.38c.557 1.241 1.013 2.456 1.443 3.672l.152.43c.152.507.33.963.43 1.418v.051l.127.405c.051.177.102.38.152.557l.254 1.064.025.076c.101.405.202.886.278 1.392l.102.608.101.507c0 .076.025.152.025.227l.355 2.507v.076c.025.102.025.228.05.33.051.303.102.658.178 1.038l.076.354q.075.456.228.988c.025.126.05.253.1.354.077.304.153.583.229.861a28.5 28.5 0 0 0 1.975 4.913c.405.81.81 1.494 1.19 2.152.177.304.38.608.532.86l.734 1.115a32 32 0 0 0 2.406 3.115 29 29 0 0 0 1.747 1.924l.025.025c1.114 1.165 2.355 2.203 3.672 3.14-.178.532-.355 1.039-.507 1.57a28 28 0 0 0-.962 5.571l-.025.177c-.05.684-.152 1.849-.253 4.001s-.102 5.57.05 8.407a72 72 0 0 0 .304 3.773c.025.354.076.658.101.911l.254 2v.026c.1.734.303 1.9.582 3.292.278 1.393.633 2.81 1.038 4.153a49 49 0 0 0 1.317 3.849 37 37 0 0 0 1.747 3.798c.177.354.355.633.507.886.05.101.126.203.177.304l.557.937.025.051a18.7 18.7 0 0 0 4.153 4.659c.658.531 1.367.987 2.102 1.418.076.101.126.202.202.304a16 16 0 0 0 1.747 2.101c.633.608 1.292 1.19 2 1.697l.051.025c.684.481 1.418.912 2.178 1.292 2.532 1.266 5.419 2.076 8.787 2.43 1.367.152 2.76.228 4.152.228h.051c1.342 0 2.71-.101 4.052-.253h.025a32 32 0 0 0 3.798-.684c.481-.101.912-.227 1.292-.329l.455-.126.152-.051.43-.127c.406-.126.811-.253 1.267-.405.33-.126.658-.253 1.013-.38.202.178.38.33.607.507l.026.025a16.3 16.3 0 0 0 4.228 2.406c.304.126.659.253 1.216.43.278.102.557.177.836.279l.126.05c.405.127.836.228 1.292.355.354.101.683.152 1.063.228l.43.076.102.025c.202.025.405.051.608.101l.658.102 1.291.126h.076c.203 0 .38.026.532.026l.912.025h.76c.252 0 .607 0 1.012-.025a23 23 0 0 0 3.216-.431l.861-.177.076-.025c.228-.051.43-.102.633-.178l.203-.05.557-.152.962-.304.33-.101c.252-.102.505-.178.784-.304l.658-.279c.456-.177.887-.405 1.317-.633.33-.177.658-.354.962-.532l.102-.05c.607-.38 1.19-.811 1.747-1.266l.152-.127c.152-.152.329-.279.48-.43q1.368.531 2.736.911a36.8 36.8 0 0 0 8.103 1.443 26.6 26.6 0 0 0 9.039-.962 18 18 0 0 0 4.584-2.101 14.6 14.6 0 0 0 3.95-3.723l.025-.025c.532-.76.988-1.545 1.393-2.38a15.6 15.6 0 0 0 1.317-5.09c.076-.684.101-1.342.076-2.026v-.531a52 52 0 0 0-.076-.912c0-.101-.026-.203-.026-.279l-.076-.709-.152-.709c-.025-.1-.025-.177-.05-.278a13 13 0 0 0-.228-.937l-.304-.988a4 4 0 0 0-.304-.784l-.405-.963a11 11 0 0 0-.253-.531l-.228-.406c-.127-.228-.228-.455-.355-.658l-.607-.988-.051-.075c-.481-.735-.988-1.393-1.494-2.052l.684-.987a22 22 0 0 0 2.431-5.52l.101-.38a44 44 0 0 0 1.19-6.001v-.051l.051-.43c.05-.33.101-.684.126-1.064l.127-1.443.025-.43c.051-.938.101-1.9.076-2.963a47 47 0 0 0-.608-7.04 39 39 0 0 0-1.038-4.456q.683-.646 1.292-1.368a21 21 0 0 0 3.139-5.14c.507-1.114 1.267-2.937 2.279-5.824s2.001-6.255 2.862-9.673 1.646-7.065 2.203-10.458c.532-3.114.911-6.178 1.089-8.584.076-1.291.101-2.557.076-3.849m-3.267 3.596c-.152 2.127-.506 5.039-1.063 8.28-.558 3.241-1.292 6.786-2.153 10.205s-1.823 6.71-2.785 9.394c-1.013 2.887-1.773 4.66-2.178 5.57a17.9 17.9 0 0 1-2.684 4.407c-.506.582-1.038 1.14-1.646 1.62-.304.254-.608.456-.937.684.709 2 1.241 4.052 1.621 6.128.354 2.178.557 4.355.557 6.558.025 1.064-.025 2.077-.076 3.064-.051.507-.076.988-.127 1.444-.05.455-.101.936-.152 1.392q-.38 3-1.215 5.926a17.4 17.4 0 0 1-2.051 4.71 16.5 16.5 0 0 1-2.203 2.76c.253.227.481.455.709.708.886.912 1.671 1.925 2.38 2.988l.532.836c.152.279.304.582.456.886.076.152.152.279.228.456l.202.456.203.456c.076.152.152.303.202.455l.304.988c.101.329.152.658.228 1.013l.101.506.051.507c.025.354.076.683.101 1.038.026.683 0 1.393-.05 2.076a12.1 12.1 0 0 1-1.039 4.102 10.6 10.6 0 0 1-1.088 1.874 11.5 11.5 0 0 1-3.115 2.937 15.2 15.2 0 0 1-3.798 1.748 23.3 23.3 0 0 1-7.926.835 33.3 33.3 0 0 1-7.394-1.316 38 38 0 0 1-4.406-1.621l-.531.608c-.406.405-.81.81-1.267 1.19-.48.405-.962.759-1.494 1.063-.278.152-.582.329-.886.507-.329.177-.658.329-1.013.481l-.658.278c-.253.102-.582.203-.962.355l-.583.202-.683.178c-.228.05-.481.152-.76.202l-.861.178c-.912.177-1.848.303-2.785.354-.456.025-.861.025-1.165.025h-.481l-.557-.025c-.203 0-.405 0-.608-.025l-.734-.076-.38-.026-.405-.05a9 9 0 0 1-.785-.127c-.507-.101-.988-.177-1.342-.278-.43-.102-.836-.203-1.165-.304s-.608-.177-.861-.279c-.481-.177-.81-.278-1.064-.38a12.9 12.9 0 0 1-5.292-3.773c-.886.406-1.823.811-2.836 1.14-.506.203-1.038.354-1.595.506s-1.089.304-1.671.431q-1.747.417-3.495.608a33.8 33.8 0 0 1-7.495 0c-2.557-.254-5.216-.861-7.698-2.102a21 21 0 0 1-1.798-1.064 12.03 12.03 0 0 1-2.988-3.013c-.202-.278-.354-.582-.531-.886a15 15 0 0 1-2.431-1.545 15.5 15.5 0 0 1-3.47-3.9l-.506-.81c-.177-.329-.405-.709-.633-1.14a36 36 0 0 1-1.62-3.468 48 48 0 0 1-1.241-3.57c-.405-1.317-.608-2.583-.861-3.824s-.43-2.33-.557-3.115-.177-1.266-.177-1.266l-.051-.405c-.025-.253-.076-.633-.127-1.114-.101-.937-.202-2.228-.303-3.621a79 79 0 0 1-.051-8.078c.101-2.279.202-3.393.253-4.051a25.5 25.5 0 0 1 .861-4.963c.38-1.292.836-2.558 1.393-3.773a14 14 0 0 1-1.368-.76 20.4 20.4 0 0 1-3.975-3.241c-.38-.405-.962-.987-1.62-1.772a34 34 0 0 1-2.204-2.862l-.278-.405-.304-.506a12 12 0 0 1-.583-.937 36 36 0 0 1-1.088-1.975 26.3 26.3 0 0 1-1.748-4.381c-.126-.38-.202-.785-.303-1.165-.102-.38-.178-.785-.254-1.19s-.126-.81-.202-1.215l-.178-1.165-.151-1.114c-.026-.178-.051-.38-.076-.557l-.102-.557c-.152-.735-.253-1.494-.455-2.203l-.254-1.09-.304-1.063c-.177-.709-.43-1.393-.658-2.076-.481-1.368-.987-2.659-1.545-3.925S4.423 20.1 3.992 18.834a15.8 15.8 0 0 1-.81-3.722c-.05-.557-.076-1.14-.05-1.697 0-.253.025-.532.025-.785s.05-.481.05-.709q.114-1.178.38-2.355c.101-.506.253-1.013.405-1.52.127-.354.203-.53.203-.53s.025-.051.05-.127l.178-.38a7.6 7.6 0 0 1 .835-1.469c.102-.152.253-.304.38-.481.152-.177.304-.33.481-.481.38-.355.836-.659 1.317-.886a6 6 0 0 1 1.747-.507 6.8 6.8 0 0 1 1.9.05 9.7 9.7 0 0 1 1.873.482c.633.228 1.24.481 1.823.785 1.24.633 2.431 1.367 3.545 2.178a48 48 0 0 1 3.495 2.709c1.14.962 2.279 2.051 3.393 3.064a34 34 0 0 0 3.469 2.836c1.19.836 2.456 1.57 3.798 2.152l.988.43c.329.127.683.254 1.013.38.658.28 1.367.482 2.025.684l1.064.33.557.177.532.202.531.203.507.228c.177.076.329.152.506.228l.481.253c.33.152.633.354.937.532.304.177.608.38.886.582l.836.608c.127.101.279.202.405.304l.33.278c.43.38.86.76 1.266 1.19a15 15 0 0 1 1.67 1.9 14.5 14.5 0 0 1 2.457 4.608c.152.532.304 1.063.405 1.595l.203-.05a20 20 0 0 1 2.608-1.418c1.57-.684 3.19-1.19 4.862-1.494a59 59 0 0 1 2.354-.406 88 88 0 0 1 1.646-.227l.836-.102c.304-.025.608-.076.937-.101.633-.05 1.266-.127 1.924-.152a63.1 63.1 0 0 1 17.447 1.367c2.81.633 5.57 1.418 8.28 2.406l1.849.709c.38.152.76.304 1.114.456.152-.355.278-.684.43-1.013a17 17 0 0 1 1.064-2c.911-1.47 2-2.811 3.266-3.976l.456-.43.279-.254.354-.304.886-.76c.355-.278.76-.582 1.216-.936a32 32 0 0 1 3.545-2.28c.329-.202.709-.354 1.063-.556.355-.203.735-.355 1.115-.532l1.215-.456.608-.228.557-.202a19 19 0 0 0 4.279-2.203 26 26 0 0 0 3.722-3.14c1.14-1.114 2.203-2.33 3.267-3.393 1.063-1.064 2.178-2.077 3.444-2.684a5.856 5.856 0 0 1 1.848-.582q.418-.077.836-.077h.405c.177 0 .38.026.557.051.304.05.582.203.81.405.178.152.355.33.481.557.102.152.178.304.254.456l.076.177.025.076c.101.33.202.684.253 1.038.051.279.076.532.101.735.051.405.051.683.051.886l.025.43c.026 1.19 0 2.355-.101 3.495"/><path d="M111.305 88.443c-.202-.202-.43-.38-.633-.557-.202-.177-.43-.38-.633-.532a26 26 0 0 0-1.316-1.012c-.456-.33-.887-.633-1.317-.937-.431-.304-.886-.583-1.317-.861l-.658-.405-.329-.203-.203-.101c-.38-.203-.734-.43-1.063-.608a35 35 0 0 0-1.57-.81 74 74 0 0 1-3.039-1.62 3.4 3.4 0 0 0-.608-.305c-7.064-3.24-11.394-4.532-12.483-5.216-4.558-19.067-1.317-37.324-.279-42.211a80 80 0 0 0-3.722-.962c-2.81-.633-5.672-1.039-8.559-1.266a61 61 0 0 0-4.76-.178c.785 6.002 3.62 31.323-3.368 44.592a49 49 0 0 1-6.381 3.038c-1.165.608-5.875 2.533-9.192 3.976a111 111 0 0 1-3.368 1.646 34 34 0 0 0-3.773 2.127l-.076.05-.177.127-.354.228c-.228.152-.456.33-.684.506-.456.33-.912.684-1.342 1.064a25.5 25.5 0 0 0-2.507 2.456 17.5 17.5 0 0 0-3.596 6.179 12 12 0 0 0-.557 3.545c0 1.19.228 2.355.659 3.443a9 9 0 0 0 .835 1.545q.495.722 1.14 1.367.645.646 1.367 1.14c.507.354 1.013.658 1.545.937 2.177 1.089 4.608 1.646 7.014 1.899q3.532.417 7.065 0a29 29 0 0 0 3.291-.583c.532-.101 1.039-.278 1.545-.405.507-.126.988-.304 1.494-.481a29.6 29.6 0 0 0 5.216-2.405 34.5 34.5 0 0 0 6.761-5.166c.735-.709 1.266-1.291 1.646-1.697l.532-.633s.05-.05.127-.151l.177-.203c.101-.101.202-.228.354-.355a3.45 3.45 0 0 1 1.975-.886 9.2 9.2 0 0 0 .405-2.203c.051-.532.051-1.089.026-1.62 0-.279-.026-.583-.05-.887 0-.076 0-.152-.026-.228l-.025-.253c-.026-.177-.051-.354-.076-.557l-.026-.127a7.5 7.5 0 0 1-1.671-.506 6.9 6.9 0 0 1-2.988-.937c-.253-.152-.506-.354-.785-.532-.253-.228-.506-.455-.734-.683a8.7 8.7 0 0 1-1.317-1.849 4.3 4.3 0 0 1-.33-.683c-.075-.127-.126-.279-.202-.456-.025-.076-.076-.152-.101-.254l-.127-.354c-.05-.177-.101-.355-.152-.557-.025-.101-.05-.203-.076-.279l-.025-.152-.025-.075c0-.026.025-.026.05-.051.152-.152.279-.304.456-.456l.456-.43c.177-.178.405-.355.608-.532l.329-.279.38-.253a11.7 11.7 0 0 1 3.545-1.671 11.5 11.5 0 0 1 4.153-.304c1.088.127 2.152.355 3.19.709.38.127.71.253.912.33.202.075.329.126.329.126l.177.076c.127.05.33.152.608.278s.658.33 1.14.583c.227.126.506.278.784.48.152.102.304.178.456.28l.127.075.202.127.203.152.228.177c.101.076.253.177.38.304l.126.101.05.05v.077l-.075.33c-.05.227-.127.505-.228.784l-.076.203-.05.126c-.026.076-.051.152-.102.253-.33.81-.709 1.57-1.19 2.28a10.5 10.5 0 0 1-1.925 2.177 9.8 9.8 0 0 1-2.152 1.393c-.684.304-1.367.557-2.102.709l-.354.076h-.025v.025c0 .355 0 .71-.051 1.064a8 8 0 0 1-.456 1.873 6.1 6.1 0 0 1-1.114 1.874c.152.025.33.05.481.076.38.101.734.253 1.064.481.177.127.329.253.48.38.153.152.305.33.38.43.38.482.81.988 1.317 1.495a28.7 28.7 0 0 0 3.57 3.215 33.6 33.6 0 0 0 10.914 5.495 30.7 30.7 0 0 0 6.938 1.241 20.6 20.6 0 0 0 7.242-.76 13.8 13.8 0 0 0 3.292-1.494 9.34 9.34 0 0 0 3.469-3.95c.254-.532.431-1.114.583-1.671.152-.582.228-1.165.278-1.773s.076-1.19.051-1.797c0-.304-.051-.583-.101-.887l-.051-.455-.101-.431c-.076-.278-.102-.582-.203-.86-.101-.28-.177-.558-.278-.836-.051-.152-.076-.28-.152-.431l-.178-.405-.177-.405c-.05-.127-.126-.253-.202-.38-.127-.253-.279-.532-.406-.785l-.455-.734a18.6 18.6 0 0 0-2.178-2.71c-.304-.304-.734-.683-1.14-1.089M82.743 74.111c-.38 0-.76-.101-1.114-.253a15.4 15.4 0 0 0-3.014-.937 13 13 0 0 0-1.671-.253c-.228-.025-.405-.025-.532-.025h-.937c-.557.025-1.114.1-1.67.202-.609.127-1.191.279-1.773.481-.254.076-.507.203-.71.279a5 5 0 0 0-.455.202c-.76.355-1.342.304-2.33.203.279-.937.608-1.545 1.469-2 .126-.051.304-.152.532-.254s.506-.228.81-.329c.684-.253 1.367-.43 2.076-.557.633-.127 1.292-.177 1.95-.228h1.089c.202 0 .405 0 .608.025.658.051 1.291.127 1.924.279 1.165.253 2.304.608 3.393 1.114.886.405 1.24.988 1.545 1.925a6 6 0 0 1-1.19.126"/></g></svg>