<svg width="493" height="120" viewBox="0 0 493 120" fill="none" xmlns="http://www.w3.org/2000/svg">
<path d="M157.922 91C156.766 91 155.922 90.7343 155.391 90.2031C154.859 89.6718 154.594 88.8281 154.594 87.6718V35.9687C154.594 34.8125 154.859 33.9843 155.391 33.4843C155.922 32.9531 156.766 32.6875 157.922 32.6875H176.578C182.297 32.6875 187.141 33.8125 191.109 36.0625C195.109 38.2812 198.125 41.5625 200.156 45.9062C202.219 50.25 203.25 55.5468 203.25 61.7968C203.25 68.0781 202.219 73.3906 200.156 77.7343C198.125 82.0781 195.109 85.375 191.109 87.625C187.141 89.875 182.297 91 176.578 91H157.922ZM176.578 80.0781C181.016 80.0781 184.375 78.5312 186.656 75.4375C188.938 72.3125 190.078 67.7656 190.078 61.7968C190.078 55.8593 188.938 51.3437 186.656 48.25C184.375 45.125 181.016 43.5625 176.578 43.5625H167.531V80.0781H176.578ZM222.609 91.7031C218.359 91.7031 215.234 90.5937 213.234 88.375C211.266 86.125 210.281 83.1562 210.281 79.4687C210.281 76.6875 210.859 74.1875 212.016 71.9687C213.172 69.7187 215.516 67.8281 219.047 66.2968C222.578 64.7656 227.625 64 234.188 64V61.2343C234.188 59.6093 233.672 58.4062 232.641 57.625C231.609 56.8437 229.969 56.4531 227.719 56.4531C225.844 56.4531 224.234 56.6562 222.891 57.0625C221.547 57.4375 220.094 57.9531 218.531 58.6093C217.719 58.9843 217.219 59.1718 217.031 59.1718C216.469 59.1718 215.844 58.75 215.156 57.9062C214.5 57.0625 213.922 56.0937 213.422 55C212.922 53.9062 212.672 53.0781 212.672 52.5156C212.672 51.5468 213.359 50.625 214.734 49.75C216.141 48.8437 218.062 48.125 220.5 47.5937C222.938 47.0312 225.641 46.75 228.609 46.75C234.859 46.75 239.406 48 242.25 50.5C245.094 52.9687 246.516 56.3593 246.516 60.6718V76.2812C246.516 78.875 246.578 80.8906 246.703 82.3281C246.859 83.7656 247.062 85.1875 247.312 86.5937C247.469 87.4375 247.547 88.0312 247.547 88.375C247.547 89 246.953 89.5156 245.766 89.9218C244.609 90.3281 243.281 90.625 241.781 90.8125C240.281 91 239.078 91.0937 238.172 91.0937C237.203 91.0937 236.5 90.6875 236.062 89.875C235.656 89.0312 235.328 87.8906 235.078 86.4531C235.047 86.2656 235.016 86.0781 234.984 85.8906C234.953 85.7031 234.906 85.5156 234.844 85.3281C234.531 85.9218 233.859 86.7187 232.828 87.7187C231.828 88.7187 230.453 89.6406 228.703 90.4843C226.953 91.2968 224.922 91.7031 222.609 91.7031ZM226.688 81.9062C228.25 81.9062 229.719 81.4218 231.094 80.4531C232.469 79.4531 233.5 78.1875 234.188 76.6562V72.0625C226.406 72.0625 222.516 74.1093 222.516 78.2031C222.516 79.2968 222.875 80.1875 223.594 80.875C224.344 81.5625 225.375 81.9062 226.688 81.9062ZM274.078 108.672C260.859 108.672 254.25 104.828 254.25 97.1406C254.25 94.9843 254.891 93.0781 256.172 91.4218C257.484 89.7656 259.375 88.4531 261.844 87.4843L261.891 87.1562C260.766 86.5625 259.891 85.7187 259.266 84.625C258.641 83.5312 258.328 82.2968 258.328 80.9218C258.328 79.5156 258.75 78.2187 259.594 77.0312C260.469 75.8437 261.719 74.8281 263.344 73.9843C261.219 72.7968 259.547 71.1718 258.328 69.1093C257.141 67.0468 256.547 64.5312 256.547 61.5625C256.547 56.5 258.188 52.7656 261.469 50.3593C264.781 47.9531 269.125 46.75 274.5 46.75C276.75 46.75 278.891 46.9687 280.922 47.4062H294.328C295.203 47.4062 295.844 47.75 296.25 48.4375C296.656 49.0937 296.859 50.1406 296.859 51.5781V52.9843C296.859 55.6093 296.188 56.9218 294.844 56.9218C294.375 56.9218 293.734 56.8906 292.922 56.8281C292.141 56.7656 291.578 56.6875 291.234 56.5937L291.094 56.9218C291.469 57.4218 291.781 58.125 292.031 59.0312C292.281 59.9062 292.406 60.75 292.406 61.5625C292.406 66.5312 290.844 70.2343 287.719 72.6718C284.594 75.0781 280.5 76.2812 275.438 76.2812C272.031 76.2812 270.328 77.0468 270.328 78.5781C270.328 79.2656 270.672 79.8125 271.359 80.2187C272.047 80.5937 272.922 80.8906 273.984 81.1093C275.078 81.3281 276.625 81.5625 278.625 81.8125C280.062 81.9687 281.406 82.1562 282.656 82.375C286.594 83.1562 289.734 84.4375 292.078 86.2187C294.422 87.9687 295.594 90.7343 295.594 94.5156C295.594 97.3593 294.703 99.8437 292.922 101.969C291.141 104.094 288.625 105.734 285.375 106.891C282.125 108.078 278.359 108.672 274.078 108.672ZM274.5 67.4218C276.344 67.4218 277.844 66.9375 279 65.9687C280.188 65 280.781 63.5312 280.781 61.5625C280.781 59.5937 280.188 58.125 279 57.1562C277.844 56.1562 276.344 55.6562 274.5 55.6562C272.656 55.6562 271.141 56.1562 269.953 57.1562C268.797 58.125 268.219 59.5937 268.219 61.5625C268.219 63.5312 268.797 65 269.953 65.9687C271.141 66.9375 272.656 67.4218 274.5 67.4218ZM275.016 98.9218C277.828 98.9218 279.953 98.5625 281.391 97.8437C282.859 97.125 283.594 96.125 283.594 94.8437C283.594 93.9687 283.172 93.2656 282.328 92.7343C281.516 92.2343 280.188 91.8125 278.344 91.4687C276.531 91.1562 273.984 90.8906 270.703 90.6718C269.297 91.1718 268.203 91.8281 267.422 92.6406C266.641 93.4531 266.25 94.2968 266.25 95.1718C266.25 96.3593 266.969 97.2812 268.406 97.9375C269.844 98.5937 272.047 98.9218 275.016 98.9218ZM314.203 91.7031C312.047 91.7031 309.906 91.4687 307.781 91C305.656 90.5312 303.891 89.8593 302.484 88.9843C301.109 88.1093 300.422 87.1093 300.422 85.9843C300.422 85.2968 300.672 84.4375 301.172 83.4062C301.672 82.375 302.266 81.4843 302.953 80.7343C303.672 79.9531 304.297 79.5625 304.828 79.5625C305.109 79.5625 305.719 79.7812 306.656 80.2187C307.75 80.7187 308.797 81.125 309.797 81.4375C310.797 81.75 311.938 81.9062 313.219 81.9062C314.812 81.9062 316.016 81.6093 316.828 81.0156C317.641 80.4218 318.047 79.5468 318.047 78.3906C318.047 77.5156 317.797 76.7968 317.297 76.2343C316.828 75.6406 316.219 75.1562 315.469 74.7812C314.719 74.4062 313.656 73.9531 312.281 73.4218L310.922 72.9062C309.141 72.2187 307.578 71.4375 306.234 70.5625C304.891 69.6875 303.75 68.4218 302.812 66.7656C301.875 65.0781 301.406 62.9531 301.406 60.3906C301.406 57.5468 302.016 55.1093 303.234 53.0781C304.484 51.0156 306.25 49.4531 308.531 48.3906C310.812 47.2968 313.5 46.75 316.594 46.75C318.375 46.75 320.234 46.9218 322.172 47.2656C324.109 47.6093 325.734 48.1406 327.047 48.8593C328.391 49.5781 329.062 50.4843 329.062 51.5781C329.062 52.2031 328.859 53.0468 328.453 54.1093C328.078 55.1718 327.609 56.1093 327.047 56.9218C326.484 57.7343 325.953 58.1406 325.453 58.1406C325.297 58.1406 324.859 58 324.141 57.7187C323.172 57.3125 322.234 57 321.328 56.7812C320.453 56.5312 319.438 56.4062 318.281 56.4062C315.344 56.4062 313.875 57.375 313.875 59.3125C313.875 60.1875 314.141 60.9375 314.672 61.5625C315.234 62.1875 315.922 62.7031 316.734 63.1093C317.547 63.5156 318.688 64 320.156 64.5625C321.844 65.25 322.891 65.6875 323.297 65.875C325.484 66.9687 327.234 68.4218 328.547 70.2343C329.891 72.0156 330.562 74.4062 330.562 77.4062C330.562 80.25 329.922 82.75 328.641 84.9062C327.359 87.0625 325.484 88.7343 323.016 89.9218C320.547 91.1093 317.609 91.7031 314.203 91.7031ZM344.203 91.1406C340.891 91.1406 339.234 90.2656 339.234 88.5156V35.1718C339.234 34.2656 339.625 33.5937 340.406 33.1562C341.219 32.6875 342.484 32.4531 344.203 32.4531H347.156C348.875 32.4531 350.125 32.6875 350.906 33.1562C351.719 33.5937 352.125 34.2656 352.125 35.1718V55.75H374.625V35.1718C374.625 34.2656 375.031 33.5937 375.844 33.1562C376.656 32.6875 377.922 32.4531 379.641 32.4531H382.547C385.891 32.4531 387.562 33.3593 387.562 35.1718V88.5156C387.562 90.2656 385.891 91.1406 382.547 91.1406H379.641C376.297 91.1406 374.625 90.2656 374.625 88.5156V66.7656H352.125V88.5156C352.125 90.2656 350.469 91.1406 347.156 91.1406H344.203ZM410.531 91.7031C406.344 91.7031 403.25 90.6093 401.25 88.4218C399.25 86.2031 398.25 82.7812 398.25 78.1562V49.8906C398.25 49.0156 398.656 48.3593 399.469 47.9218C400.281 47.4843 401.547 47.2656 403.266 47.2656H405.562C407.281 47.2656 408.547 47.4843 409.359 47.9218C410.172 48.3593 410.578 49.0156 410.578 49.8906V76.2812C410.578 78 410.969 79.2968 411.75 80.1718C412.531 81.0468 413.812 81.4843 415.594 81.4843C417.125 81.4843 418.453 81 419.578 80.0312C420.734 79.0312 421.625 77.9062 422.25 76.6562V49.8906C422.25 49.0156 422.656 48.3593 423.469 47.9218C424.281 47.4843 425.547 47.2656 427.266 47.2656H429.562C431.281 47.2656 432.547 47.4843 433.359 47.9218C434.172 48.3593 434.578 49.0156 434.578 49.8906V76.2812C434.578 78.9062 434.641 80.9687 434.766 82.4687C434.922 83.9375 435.109 85.3125 435.328 86.5937C435.484 87.4375 435.562 88.0312 435.562 88.375C435.562 89 434.984 89.5156 433.828 89.9218C432.672 90.3281 431.344 90.625 429.844 90.8125C428.375 91 427.188 91.0937 426.281 91.0937C425.281 91.0937 424.562 90.7031 424.125 89.9218C423.719 89.1093 423.391 87.9687 423.141 86.5L422.906 85.3281C421.594 87.1093 419.828 88.625 417.609 89.875C415.422 91.0937 413.062 91.7031 410.531 91.7031ZM468.047 91.7031C465.578 91.7031 463.359 91.125 461.391 89.9687C459.422 88.7812 457.938 87.2656 456.938 85.4218L456.703 86.4062C456.422 87.625 456.203 88.4843 456.047 88.9843C455.828 89.8593 455.344 90.4375 454.594 90.7187C453.844 91 452.734 91.1406 451.266 91.1406H450.281C446.938 91.1406 445.266 90.2656 445.266 88.5156V30.8593C445.266 29.9531 445.672 29.2812 446.484 28.8437C447.297 28.375 448.562 28.1406 450.281 28.1406H452.578C455.922 28.1406 457.594 29.0468 457.594 30.8593V49.3281C459.938 47.6093 462.766 46.75 466.078 46.75C469.766 46.75 472.922 47.6718 475.547 49.5156C478.203 51.3281 480.219 53.9218 481.594 57.2968C482.969 60.6718 483.656 64.625 483.656 69.1562C483.656 73.875 482.984 77.9375 481.641 81.3437C480.328 84.7187 478.484 87.2968 476.109 89.0781C473.766 90.8281 471.078 91.7031 468.047 91.7031ZM464.438 81.5781C468.906 81.5781 471.141 77.4375 471.141 69.1562C471.141 60.6875 468.562 56.4531 463.406 56.4531C461.5 56.4531 459.562 56.9843 457.594 58.0468V76.6562C459.5 79.9375 461.781 81.5781 464.438 81.5781Z" fill="white"/>
<path d="M26.0474 57.9307C26.0474 57.9307 26.0727 57.9054 26.1234 57.8293L25.9967 57.9054L26.0474 57.9307Z" fill="white"/>
<path d="M79.1469 101.839C78.6152 101.281 78.1594 100.75 77.7542 100.243C77.6783 100.142 77.6023 100.066 77.5264 99.99C77.4504 99.9394 77.3997 99.8634 77.3238 99.8128C77.1972 99.7115 77.0452 99.6608 76.868 99.6102C76.5894 99.5342 76.3109 99.5596 76.0577 99.6355C75.8551 99.7115 75.6779 99.8128 75.5259 99.9394C75.45 99.99 75.4247 100.041 75.374 100.117L75.1968 100.319L75.0448 100.496L74.4624 101.155C74.0826 101.585 73.5002 102.193 72.7406 102.953C70.5882 105.054 68.1826 106.903 65.5998 108.422C64.9161 108.827 64.1818 109.207 63.4222 109.587C64.1312 109.891 64.7895 110.119 65.4479 110.397C66.4861 110.802 67.5243 111.233 68.8917 111.765C69.1195 111.866 69.4234 111.967 69.8792 112.119C70.1071 112.195 70.3603 112.271 70.6642 112.372C70.968 112.474 71.3225 112.55 71.7277 112.651C72.0315 112.727 72.4873 112.803 72.9431 112.904C73.171 112.955 73.4242 112.98 73.6521 113.005L74.0066 113.056L74.3611 113.081L75.0195 113.132C75.2221 113.157 75.3993 113.157 75.5513 113.157L76.0577 113.183H76.4882C76.7414 113.183 77.1212 113.183 77.5264 113.157C78.3873 113.107 79.2229 112.98 80.0585 112.828L80.8182 112.676C81.0714 112.626 81.2993 112.55 81.5019 112.499L82.1096 112.322L82.6413 112.144C82.9705 112.018 83.2744 111.942 83.5276 111.841L84.1353 111.587C84.4645 111.461 84.7937 111.334 85.0975 111.182C85.4014 111.03 85.6799 110.929 85.9585 110.802C86.5156 110.549 87.022 110.321 87.5284 110.119C88.0349 109.916 88.5413 109.688 89.073 109.46L89.5035 109.258C87.1739 108.169 84.9709 106.852 82.9199 105.308C81.6031 104.244 80.3117 103.105 79.1469 101.839Z" fill="white"/>
<path d="M51.4956 76.6434C55.1926 76.6434 58.1806 73.6554 58.1806 69.9585C58.1806 66.2615 55.1926 63.2735 51.4956 63.2735C47.7987 63.2735 44.8107 66.2615 44.8107 69.9585C44.8107 73.6554 47.7987 76.6434 51.4956 76.6434Z" fill="white"/>
<path d="M98.7966 75.6811C101.962 75.6811 104.545 73.1237 104.545 69.9584C104.545 66.7932 101.987 64.2104 98.8219 64.2104C95.6567 64.2104 93.0739 66.7679 93.0739 69.9331C93.0739 73.0983 95.6314 75.6558 98.7966 75.6811Z" fill="white"/>
<path d="M34.3782 44.7381C34.5554 44.4595 34.7327 44.181 34.9352 43.9024C35.1378 43.6239 35.3404 43.3454 35.543 43.0668C35.6443 42.9402 35.7709 42.7883 35.8721 42.6617L36.2267 42.2565C36.4545 41.978 36.7078 41.7248 36.961 41.4716C37.4927 40.9398 38.0498 40.4587 38.6322 40.0282C39.2399 39.5978 39.873 39.2179 40.5313 38.8634C40.8605 38.6862 41.1644 38.5342 41.4936 38.3823L41.6202 38.3317H41.6455L41.4429 37.9265C41.367 37.7746 41.291 37.6227 41.1897 37.4707C40.8605 36.863 40.506 36.3059 40.1515 35.7235C38.7335 33.5205 37.1636 31.4188 35.4417 29.4438C33.8211 27.5699 32.2511 25.924 30.8838 24.5567C29.5164 23.1893 28.3263 22.1258 27.4907 21.3915C26.655 20.6571 26.1739 20.252 26.1739 20.252C26.1739 20.252 25.6928 19.8468 24.8572 19.1378C24.0216 18.4288 22.7302 17.4413 21.1602 16.3018C19.3877 14.9851 17.5392 13.7443 15.6148 12.6048C14.526 11.9465 13.4118 11.3641 12.2723 10.8323C11.6899 10.5791 11.1075 10.3259 10.4998 10.1486C10.2213 10.0473 9.91741 9.99669 9.61354 9.94604C9.36033 9.8954 9.10711 9.87008 8.85389 9.8954C8.80325 9.8954 8.77793 9.8954 8.72729 9.92072C8.70196 9.92072 8.67664 9.94604 8.65132 9.94604C8.626 9.94604 8.626 9.97137 8.60068 9.97137C8.60068 9.97137 8.60068 9.94605 8.57535 9.99669C8.49939 10.098 8.42342 10.1993 8.37278 10.3005L8.27149 10.4525L8.24617 10.6044C8.0436 11.1615 7.94231 11.7439 7.91699 12.3263C7.89167 13.6683 7.99296 14.9851 8.22085 16.3018C8.42343 17.6438 8.67664 18.9606 8.92986 20.252C9.18308 21.5434 9.43629 22.7841 9.66419 23.9743C10.044 25.9494 10.3479 27.5699 10.4745 28.4056C10.5251 28.7094 10.5504 28.988 10.6011 29.2665L10.8037 30.2034C11.0062 30.9631 11.1328 31.748 11.2848 32.533L11.3861 33.1154C11.4114 33.318 11.4367 33.5205 11.462 33.6978L11.6393 34.8879L11.8165 36.0274C11.8672 36.3819 11.9178 36.7617 11.9938 37.0909C12.0697 37.4201 12.1204 37.7999 12.2217 38.1544C12.323 38.5089 12.3989 38.8634 12.5002 39.1926C12.9054 40.56 13.4371 41.8767 14.0955 43.1681C14.4247 43.8012 14.7538 44.4089 15.1084 44.966C15.2856 45.2698 15.4629 45.5484 15.6401 45.8269L15.9186 46.232L16.1719 46.5865C16.8049 47.4981 17.4886 48.3844 18.2229 49.2453C18.8306 49.9796 19.3624 50.5367 19.7169 50.9166C21.0336 52.3092 22.0718 53.3981 23.034 54.4616L24.4774 56.1075C24.9332 56.6393 25.4143 57.1963 25.946 57.7534L26.0473 57.8294C26.6297 56.6646 27.1108 55.7024 27.6679 54.7401C28.301 53.6513 29.01 52.5878 29.7949 51.5749C30.0482 51.2457 30.4027 50.7646 30.8331 50.1316L31.5421 49.1187L31.7447 48.8402L31.9726 48.4857C32.1245 48.2578 32.3018 48.0299 32.4537 47.7767C32.7576 47.2956 33.0868 46.7891 33.3906 46.2827C33.5426 46.0295 33.7198 45.7509 33.8971 45.4724C34.0743 45.1938 34.2009 45.0166 34.3782 44.7381Z" fill="white"/>
<path d="M127.841 11.6933C127.841 11.6173 127.841 11.516 127.815 11.44C127.739 11.3641 127.613 11.3134 127.486 11.2881C127.334 11.2881 127.182 11.3388 127.056 11.3894C126.549 11.6173 126.043 11.8958 125.612 12.2503C124.473 13.1366 123.435 14.1241 122.498 15.2383C121.333 16.5297 119.788 18.4542 118.573 20.1001C117.357 21.746 116.42 23.0374 116.42 23.0374C116.42 23.0374 115.332 24.582 114.015 26.5065C112.698 28.4309 111.23 30.7099 110.369 32.0772L108.723 34.66C107.659 36.3819 106.418 38.0025 105 39.4458L105.051 39.4965L105.633 39.9523C106.039 40.3068 106.52 40.6613 107.026 41.1171L108.647 42.6111C109.204 43.1935 109.786 43.8012 110.394 44.4849L111.28 45.5484L111.736 46.1054C111.888 46.308 112.014 46.5106 112.166 46.6879L113.027 47.9033C113.306 48.3338 113.584 48.7896 113.863 49.22C114.952 51.0179 115.889 52.917 116.623 54.8921C116.75 54.6642 116.851 54.4616 116.978 54.2337C117.307 53.5754 117.585 52.9423 117.864 52.3093C118.421 50.9925 119.003 49.6252 119.788 47.878C120.168 47.017 120.902 45.3205 121.865 42.5098C122.776 39.8763 123.738 36.6605 124.574 33.318C125.41 29.9755 126.144 26.4811 126.701 23.2906C127.233 20.1001 127.587 17.2894 127.739 15.2636C127.815 14.2508 127.841 13.4405 127.841 12.8834C127.841 12.3263 127.841 12.0478 127.841 12.0478V11.6933Z" fill="white"/>
<path d="M133.589 11.8452L133.563 11.3894C133.563 11.1868 133.538 10.8576 133.487 10.3765C133.462 10.0727 133.411 9.7688 133.361 9.43962V9.4143C133.285 8.90786 133.158 8.40143 132.981 7.89499L132.702 7.23663C132.576 6.98341 132.449 6.7302 132.297 6.5023C131.993 6.02119 131.613 5.59072 131.158 5.23622C130.55 4.72978 129.816 4.37528 129.031 4.19803C128.727 4.12206 128.423 4.09674 128.119 4.07142L127.765 4.0461C127.613 4.0461 127.435 4.0461 127.258 4.0461H127.157C126.777 4.0461 126.397 4.09674 126.017 4.14738C125.638 4.19803 125.232 4.29931 124.853 4.4006L124.498 4.50189C124.042 4.65382 123.612 4.83107 123.207 5.03364C121.434 5.9199 119.991 7.26195 118.927 8.32546C118.421 8.8319 117.914 9.38898 117.433 9.89541C116.876 10.5031 116.269 11.1109 115.686 11.7186C114.673 12.7314 113.584 13.643 112.42 14.4533C111.305 15.213 110.115 15.8207 108.849 16.2765L106.393 17.2134L106.216 17.2893C105.937 17.416 105.659 17.5426 105.406 17.6692L105 17.8717L104.722 17.9984C104.393 18.1503 104.063 18.3275 103.76 18.5048C102.418 19.2391 101.126 20.0747 99.8854 20.9863L99.8601 21.0116L99.4296 21.3408C99.1257 21.5687 98.8219 21.7966 98.5434 22.0498L97.3026 23.1133L96.4416 23.9236C94.973 25.291 93.7069 26.8356 92.6687 28.5322C92.5421 28.7347 92.4155 28.9626 92.2889 29.1652L91.985 29.0386C89.149 28.0004 86.2623 27.1648 83.325 26.5064C77.3238 25.1897 71.1706 24.6833 65.0174 25.0631C64.5363 25.0884 64.0805 25.1137 63.6247 25.1644C63.4222 25.1897 63.2196 25.215 63.017 25.215C62.7638 25.2404 62.5106 25.2657 62.2574 25.291L61.9788 25.3163L61.0926 25.4176C60.6874 25.4683 60.2823 25.5189 59.9278 25.5695L59.3454 25.6455C58.2059 25.8228 57.4209 25.9494 56.8638 26.076C55.0913 26.4052 53.3441 26.9369 51.6729 27.6459C51.0905 26.3545 50.3562 25.1391 49.4699 24.0249C48.8875 23.2653 48.2545 22.5563 47.5708 21.8726C47.115 21.4168 46.6339 20.961 46.0768 20.4799L45.7223 20.2013C45.5197 20.0494 45.3425 19.8975 45.1652 19.7709L44.9626 19.6189C44.7601 19.467 44.5069 19.2644 44.203 19.0872L44.0511 18.9859C43.7978 18.8086 43.5193 18.6314 43.1901 18.4288L43.1648 18.4035C42.8609 18.2262 42.5064 17.9984 42.1013 17.7958L41.5949 17.5426C41.4429 17.4666 41.291 17.3906 41.1391 17.34L40.4554 17.0361L39.2146 16.555L37.4421 15.9726L36.9863 15.8207C36.4799 15.6688 36.0241 15.5168 35.6189 15.3649H35.5936L35.1885 15.213L34.6567 15.0104L33.7451 14.5799C32.6057 14.0735 31.5168 13.4658 30.4786 12.7314L30.4533 12.7061C29.3392 11.8958 28.301 11.0349 27.2881 10.098L26.3259 9.23705C25.5156 8.50272 24.68 7.71774 23.819 6.98341C22.5023 5.84394 21.2615 4.90703 20.0967 4.09674C18.856 3.18516 17.5392 2.37487 16.1719 1.69118C15.4629 1.33668 14.7539 1.00749 14.0195 0.754276L13.9436 0.728955C13.1586 0.450416 12.3483 0.247843 11.5127 0.121234C10.6011 -0.0306961 9.68952 -0.0306962 8.77794 0.0705906C7.84104 0.171877 6.92946 0.450416 6.09384 0.830241L6.0432 0.855563C5.30887 1.21007 4.62518 1.69118 3.99214 2.24826L3.9415 2.2989C3.7136 2.5268 3.4857 2.75469 3.25781 3.00791L3.18184 3.10919L3.10588 3.21048C2.95395 3.38773 2.82734 3.56498 2.70073 3.74224C2.27026 4.34996 1.89044 5.00832 1.58658 5.69201L1.35868 6.19844C1.30804 6.32505 1.28272 6.42634 1.2574 6.47698C1.23207 6.52762 1.15611 6.75552 1.05482 7.03406L1.0295 7.11002C0.826927 7.69242 0.674997 8.30014 0.548388 8.90786C0.371136 9.79412 0.219206 10.7057 0.117919 11.6173L0.0925978 11.8705C0.0672761 12.0478 0.0672761 12.2503 0.0419544 12.4529L0.0166326 13.2632C-0.00868907 13.8709 -0.00868897 14.4533 0.0419544 15.061L0.067276 15.4155C0.219206 16.9348 0.548388 18.4288 1.0295 19.8975C1.45997 21.1382 1.99172 22.3537 2.49816 23.5185L2.65009 23.8983C3.20717 25.1391 3.66296 26.3545 4.09343 27.57L4.24536 28.0004C4.39729 28.5069 4.57454 28.9626 4.67582 29.4184V29.4691L4.80243 29.8742C4.85308 30.0515 4.90372 30.2541 4.95436 30.4313L5.20758 31.4948L5.2329 31.5708C5.33419 31.9759 5.43548 32.457 5.51144 32.9635L5.61273 33.5712L5.71401 34.0776C5.71401 34.1536 5.73934 34.2296 5.73934 34.3055L6.09384 36.8124V36.8883C6.11916 36.9896 6.11916 37.1162 6.14448 37.2175C6.19513 37.5214 6.24577 37.8759 6.32173 38.2557L6.3977 38.6102C6.44834 38.9141 6.52431 39.2433 6.62559 39.5978C6.65092 39.7244 6.67624 39.851 6.72688 39.9523C6.80285 40.2561 6.87881 40.5347 6.95478 40.8132C7.46121 42.5098 8.11958 44.1557 8.92987 45.7256C9.33502 46.5359 9.74016 47.2196 10.12 47.878C10.2972 48.1818 10.4998 48.4857 10.6517 48.7389L11.3861 49.853C12.1204 50.9419 12.9307 51.9801 13.7916 52.9676C14.45 53.7526 15.0071 54.3603 15.5388 54.8921L15.5642 54.9174C16.6783 56.0822 17.9191 57.1204 19.2358 58.0573C19.0585 58.589 18.8813 59.0955 18.7294 59.6272C18.2229 61.4504 17.8937 63.3242 17.7671 65.198L17.7418 65.3752C17.6912 66.0589 17.5899 67.2237 17.4886 69.3761C17.3873 71.5284 17.3873 74.9468 17.5392 77.7829C17.6152 79.0996 17.7165 80.4417 17.8431 81.5558C17.8684 81.9103 17.9191 82.2142 17.9444 82.4674L18.1976 84.4678V84.4931C18.2989 85.2274 18.5015 86.3923 18.78 87.7849C19.0585 89.1776 19.4131 90.5956 19.8182 91.9377C20.2993 93.5836 20.8057 94.9257 21.1349 95.7866C21.6414 97.078 22.2238 98.3441 22.8821 99.5849C23.0594 99.9394 23.2366 100.218 23.3886 100.471C23.4392 100.572 23.5152 100.674 23.5658 100.775L24.1229 101.712L24.1482 101.763C25.2624 103.535 26.6551 105.105 28.301 106.422C28.9593 106.953 29.6683 107.409 30.4027 107.84C30.4786 107.941 30.5293 108.042 30.6052 108.144C31.137 108.903 31.7194 109.612 32.3524 110.245C32.9855 110.853 33.6438 111.435 34.3529 111.942L34.4035 111.967C35.0872 112.448 35.8215 112.879 36.5812 113.259C39.1133 114.525 42 115.335 45.3678 115.689C46.7352 115.841 48.1279 115.917 49.5205 115.917H49.5712C50.9132 115.917 52.2806 115.816 53.6227 115.664H53.648C54.9141 115.512 56.2055 115.284 57.4462 114.98C57.9274 114.879 58.3578 114.753 58.7376 114.651L59.1934 114.525L59.3454 114.474L59.7758 114.347C60.181 114.221 60.5861 114.094 61.0419 113.942C61.3711 113.816 61.7003 113.689 62.0548 113.562C62.2574 113.74 62.4346 113.892 62.6625 114.069L62.6878 114.094C63.9792 115.107 65.3972 115.917 66.9165 116.5C67.2204 116.626 67.5749 116.753 68.132 116.93C68.4105 117.032 68.6891 117.107 68.9676 117.209L69.0942 117.259C69.4994 117.386 69.9298 117.487 70.3856 117.614C70.7401 117.715 71.0693 117.766 71.4491 117.842L71.8796 117.918L71.9809 117.943C72.1835 117.968 72.386 117.994 72.5886 118.044L73.247 118.146L74.5384 118.272H74.6143C74.8169 118.272 74.9942 118.298 75.1461 118.298L76.0577 118.323H76.8173C77.0705 118.323 77.425 118.323 77.8302 118.298C78.919 118.222 79.9825 118.095 81.0461 117.867L81.907 117.69L81.983 117.665C82.2109 117.614 82.4134 117.563 82.616 117.487L82.8186 117.437L83.3757 117.285L84.3379 116.981L84.6671 116.88C84.9203 116.778 85.1735 116.702 85.452 116.576L86.1104 116.297C86.5662 116.12 86.9967 115.892 87.4271 115.664C87.7563 115.487 88.0855 115.31 88.3893 115.132L88.4906 115.082C89.0984 114.702 89.6807 114.271 90.2378 113.816L90.3898 113.689C90.5417 113.537 90.7189 113.41 90.8709 113.259C91.7824 113.613 92.694 113.917 93.6056 114.17C96.2391 114.955 98.9738 115.436 101.709 115.613C104.747 115.816 107.811 115.487 110.748 114.651C112.369 114.17 113.914 113.461 115.332 112.55C116.876 111.562 118.218 110.296 119.282 108.827L119.307 108.802C119.839 108.042 120.295 107.257 120.7 106.422C121.434 104.801 121.865 103.079 122.017 101.332C122.093 100.648 122.118 99.99 122.093 99.3063V98.7746C122.067 98.4201 122.042 98.1415 122.017 97.863C122.017 97.7617 121.991 97.6604 121.991 97.5844L121.915 96.8754L121.763 96.1664C121.738 96.0651 121.738 95.9892 121.713 95.8879C121.662 95.6347 121.586 95.3055 121.485 94.951L121.181 93.9634C121.105 93.6849 121.004 93.4317 120.877 93.1785L120.472 92.2162C120.371 91.9883 120.295 91.8364 120.219 91.6845L119.991 91.2793C119.864 91.0514 119.763 90.8235 119.636 90.621L119.029 89.6334L118.978 89.5575C118.497 88.8231 117.99 88.1648 117.484 87.5064C117.712 87.1772 117.94 86.848 118.168 86.5189C119.231 84.797 120.041 82.9485 120.599 80.9987L120.7 80.6189C121.232 78.6438 121.637 76.6434 121.89 74.6177V74.567L121.941 74.1366C121.991 73.8074 122.042 73.4529 122.067 73.073L122.194 71.6297L122.219 71.1992C122.27 70.2623 122.32 69.3001 122.295 68.2366C122.27 65.8817 122.067 63.5268 121.687 61.1972C121.434 59.7032 121.08 58.2092 120.649 56.7405C121.105 56.3101 121.535 55.8543 121.941 55.3732C123.232 53.8032 124.296 52.0814 125.08 50.2329C125.587 49.1187 126.347 47.2956 127.359 44.4089C128.372 41.5222 129.36 38.1544 130.221 34.736C131.082 31.3176 131.867 27.6712 132.424 24.2781C132.956 21.1636 133.335 18.0996 133.513 15.6941C133.589 14.4027 133.614 13.1366 133.589 11.8452ZM130.322 15.4409C130.17 17.5679 129.816 20.4799 129.259 23.7211C128.701 26.9622 127.967 30.5073 127.106 33.9257C126.245 37.3441 125.283 40.6359 124.321 43.32C123.308 46.2067 122.548 47.9792 122.143 48.8908C121.459 50.4861 120.573 51.9547 119.459 53.2968C118.953 53.8792 118.421 54.4363 117.813 54.9174C117.509 55.1706 117.205 55.3732 116.876 55.6011C117.585 57.6015 118.117 59.6525 118.497 61.7289C118.851 63.9066 119.054 66.0843 119.054 68.2872C119.079 69.3507 119.029 70.3636 118.978 71.3512C118.927 71.8576 118.902 72.3387 118.851 72.7945C118.801 73.2503 118.75 73.7314 118.699 74.1872C118.446 76.1876 118.041 78.1627 117.484 80.1125C117.028 81.7837 116.344 83.379 115.433 84.8223C114.8 85.8098 114.066 86.7467 113.23 87.5824C113.483 87.8103 113.711 88.0382 113.939 88.2914C114.825 89.203 115.61 90.2158 116.319 91.2793L116.851 92.115C117.003 92.3935 117.155 92.6973 117.307 93.0012C117.383 93.1531 117.459 93.2797 117.535 93.457L117.737 93.9128L117.94 94.3686C118.016 94.5205 118.092 94.6724 118.142 94.8244C118.244 95.1535 118.345 95.4827 118.446 95.8119C118.547 96.1411 118.598 96.4703 118.674 96.8248L118.775 97.3312L118.826 97.8377C118.851 98.1922 118.902 98.5213 118.927 98.8758C118.953 99.5595 118.927 100.269 118.877 100.952C118.775 102.37 118.421 103.763 117.838 105.054C117.535 105.713 117.18 106.346 116.75 106.928C115.914 108.093 114.851 109.08 113.635 109.865C112.445 110.625 111.179 111.208 109.837 111.613C107.254 112.347 104.57 112.626 101.911 112.448C99.4043 112.296 96.9228 111.841 94.5172 111.132C93.0232 110.676 91.5292 110.144 90.1112 109.511C89.934 109.714 89.7567 109.916 89.5795 110.119C89.1743 110.524 88.7692 110.929 88.3134 111.309C87.8323 111.714 87.3512 112.068 86.8194 112.372C86.5409 112.524 86.237 112.701 85.9331 112.879C85.604 113.056 85.2748 113.208 84.9203 113.36L84.2619 113.638C84.0087 113.74 83.6795 113.841 83.2997 113.993L82.7173 114.195L82.0336 114.373C81.8057 114.423 81.5525 114.525 81.2739 114.575L80.413 114.753C79.5014 114.93 78.5645 115.056 77.6276 115.107C77.1718 115.132 76.7667 115.132 76.4628 115.132H75.9817L75.4246 115.107C75.2221 115.107 75.0195 115.107 74.8169 115.082L74.0826 115.006L73.7028 114.98L73.2976 114.93C73.0444 114.904 72.7659 114.854 72.5126 114.803C72.0062 114.702 71.5251 114.626 71.1706 114.525C70.7401 114.423 70.335 114.322 70.0058 114.221C69.6766 114.12 69.3981 114.044 69.1449 113.942C68.6637 113.765 68.3346 113.664 68.0813 113.562C66.0303 112.777 64.2071 111.486 62.7891 109.789C61.9029 110.195 60.966 110.6 59.9531 110.929C59.4467 111.132 58.9149 111.283 58.3578 111.435C57.8007 111.587 57.269 111.739 56.6866 111.866C55.5218 112.144 54.357 112.347 53.1922 112.474C50.7107 112.752 48.1785 112.752 45.697 112.474C43.1395 112.22 40.4807 111.613 37.9992 110.372C37.3661 110.043 36.7837 109.688 36.2013 109.308C35.6189 108.903 35.0872 108.447 34.5807 107.941C34.0743 107.435 33.6185 106.878 33.2134 106.295C33.0108 106.017 32.8589 105.713 32.6816 105.409C31.8207 104.978 31.0104 104.447 30.2507 103.864C28.8834 102.775 27.7186 101.459 26.7817 99.9647L26.2752 99.1544C26.098 98.8252 25.8701 98.4454 25.6422 98.0149C25.0345 96.8754 24.5027 95.7359 24.0216 94.5458C23.6165 93.533 23.186 92.2922 22.7808 90.9755C22.3757 89.6588 22.1731 88.3927 21.9199 87.1519C21.6667 85.9111 21.4894 84.8223 21.3628 84.0373C21.2362 83.2524 21.1856 82.7712 21.1856 82.7712L21.1349 82.3661C21.1096 82.1129 21.059 81.7331 21.0083 81.2519C20.907 80.315 20.8057 79.0236 20.7045 77.6309C20.5272 74.8202 20.5525 71.5031 20.6538 69.5533C20.7551 67.2744 20.8564 66.1602 20.907 65.5019C21.0336 63.8306 21.3122 62.1594 21.768 60.5388C22.1478 59.2474 22.6036 57.9813 23.1607 56.7659C22.7049 56.538 22.2238 56.2848 21.7933 56.0062C20.3246 55.0946 19.0079 54.0058 17.8178 52.765C17.438 52.3599 16.8556 51.7775 16.1972 50.9925C15.4122 50.0809 14.6779 49.1187 13.9942 48.1312L13.7157 47.726L13.4118 47.2196C13.2092 46.9157 13.0067 46.6119 12.8294 46.2827C12.4496 45.6496 12.0951 44.9913 11.7406 44.3076C11.0316 42.9149 10.4492 41.4462 9.99338 39.9269C9.86677 39.5471 9.79081 39.142 9.68952 38.7621C9.58823 38.3823 9.51227 37.9772 9.4363 37.572C9.36034 37.1669 9.3097 36.7617 9.23373 36.3566L9.05648 35.1918L8.90455 34.0776C8.87923 33.9004 8.8539 33.6978 8.82858 33.5206L8.7273 32.9635C8.57537 32.2291 8.47408 31.4695 8.2715 30.7605L8.01829 29.6717C7.917 29.3171 7.81572 28.9626 7.71443 28.6081C7.53718 27.8991 7.28396 27.2154 7.05606 26.5318C6.57495 25.1644 6.06852 23.873 5.51144 22.6069C4.95436 21.3408 4.42261 20.1001 3.99214 18.834C3.56167 17.6185 3.30845 16.3778 3.18184 15.1117C3.1312 14.5546 3.10588 13.9722 3.1312 13.4151C3.1312 13.1619 3.15652 12.8834 3.15652 12.6302C3.15652 12.3769 3.20717 12.149 3.20717 11.9211C3.28313 11.1362 3.40974 10.3512 3.58699 9.56623C3.68828 9.05979 3.84021 8.55336 3.99214 8.04692C4.11875 7.69242 4.19471 7.51517 4.19471 7.51517C4.19471 7.51517 4.22003 7.46453 4.24536 7.38856L4.42261 7.00873C4.6505 6.47698 4.92904 5.99587 5.25822 5.54008C5.35951 5.38815 5.51144 5.23622 5.63805 5.05896C5.78998 4.88171 5.94191 4.72978 6.11916 4.57785C6.49899 4.22335 6.95478 3.91949 7.43589 3.69159C7.99297 3.43838 8.57537 3.26112 9.18309 3.18516C9.81613 3.10919 10.4492 3.13452 11.0822 3.2358C11.7153 3.33709 12.3483 3.48902 12.956 3.71691C13.5891 3.94481 14.1968 4.19803 14.7792 4.50189C16.0199 5.13493 17.2101 5.86926 18.3242 6.67955C19.489 7.48985 20.6791 8.42675 21.8186 9.38898C22.9581 10.3512 24.0976 11.44 25.2117 12.4529C26.3006 13.4658 27.4654 14.428 28.6808 15.2889C29.8709 16.1245 31.137 16.8589 32.479 17.4413L33.4666 17.8717C33.7958 17.9984 34.1503 18.125 34.4795 18.2516C35.1378 18.5301 35.8468 18.7327 36.5052 18.9353L37.5687 19.2644L38.1258 19.4417L38.6575 19.6443L39.1893 19.8468L39.6957 20.0747C39.873 20.1507 40.0249 20.2267 40.2022 20.3026L40.6833 20.5558C41.0125 20.7078 41.3163 20.9103 41.6202 21.0876C41.924 21.2648 42.2279 21.4674 42.5064 21.67C42.785 21.8726 43.0635 22.0751 43.3421 22.2777C43.4687 22.379 43.6206 22.4803 43.7472 22.5816L44.0764 22.8601C44.5069 23.2399 44.9373 23.6198 45.3425 24.0502C45.9502 24.6326 46.5073 25.2657 47.0137 25.9494C48.1025 27.3167 48.9381 28.8867 49.4699 30.5579C49.6218 31.0897 49.7738 31.6214 49.875 32.1532L50.0776 32.1025C50.9132 31.5708 51.7742 31.0897 52.6858 30.6845C54.2557 30.0008 55.8763 29.4944 57.5475 29.1905C58.0793 29.0893 58.8896 28.9373 59.9024 28.7854C60.4089 28.7094 60.966 28.6335 61.5484 28.5575L62.384 28.4562C62.6878 28.4309 62.9917 28.3802 63.3209 28.3549C63.9539 28.3043 64.587 28.2283 65.2453 28.203C71.0946 27.8485 76.9693 28.3043 82.692 29.5704C85.5027 30.2034 88.2627 30.9884 90.9722 31.9759L92.8206 32.6849C93.2005 32.8369 93.5803 32.9888 93.9348 33.1407C94.0867 32.7862 94.2133 32.457 94.3653 32.1279C94.6691 31.4442 95.0236 30.7858 95.4288 30.1274C96.3404 28.6588 97.4292 27.3167 98.6953 26.1519L99.1511 25.7215L99.4296 25.4683L99.7841 25.1644L100.67 24.4047C101.025 24.1262 101.43 23.8223 101.886 23.4678C103.025 22.6322 104.19 21.8726 105.431 21.1889C105.76 20.9863 106.14 20.8344 106.494 20.6318C106.849 20.4292 107.229 20.2773 107.609 20.1001L108.824 19.6443L109.432 19.4164L109.989 19.2138C111.508 18.6567 112.951 17.9224 114.268 17.0108C115.61 16.0739 116.851 15.0357 117.99 13.8709C119.13 12.7568 120.193 11.5413 121.257 10.4778C122.32 9.4143 123.435 8.40143 124.701 7.79371C125.005 7.64178 125.308 7.51517 125.638 7.41388C125.941 7.3126 126.245 7.26195 126.549 7.21131C126.828 7.16067 127.106 7.13534 127.385 7.13534C127.461 7.13534 127.511 7.13534 127.587 7.13534H127.79C127.967 7.13534 128.17 7.16067 128.347 7.18599C128.651 7.23663 128.929 7.38856 129.157 7.59113C129.335 7.74306 129.512 7.92032 129.638 8.14821C129.74 8.30014 129.816 8.45207 129.892 8.604L129.968 8.78125L129.993 8.85722C130.094 9.1864 130.195 9.5409 130.246 9.89541C130.297 10.1739 130.322 10.4272 130.347 10.6297C130.398 11.0349 130.398 11.3134 130.398 11.516L130.423 11.9465C130.449 13.1366 130.423 14.3014 130.322 15.4409Z" fill="white"/>
<path d="M111.305 88.4433C111.103 88.2408 110.875 88.0635 110.672 87.8862C110.47 87.709 110.242 87.5064 110.039 87.3545C109.609 87 109.178 86.6708 108.723 86.3416C108.267 86.0124 107.836 85.7086 107.406 85.4047C106.975 85.1009 106.52 84.8223 106.089 84.5438L105.431 84.1386L105.102 83.9361L104.899 83.8348C104.519 83.6322 104.165 83.4043 103.836 83.2271C103.177 82.8726 102.645 82.594 102.266 82.4168C101.076 81.809 100.113 81.3026 99.227 80.7962C99.0245 80.6696 98.8219 80.5683 98.6193 80.4923C91.5546 77.2511 87.2246 75.9597 86.1357 75.276C81.5778 56.2088 84.819 37.9519 85.8572 33.0648C84.6418 32.7103 83.401 32.4064 82.1349 32.1025C79.3242 31.4695 76.4628 31.0644 73.5762 30.8365C71.9556 30.7099 70.3603 30.6592 68.8157 30.6592C69.6007 36.6605 72.4367 61.9822 65.4479 75.2507C63.3968 76.4155 61.2698 77.4284 59.0668 78.2893C57.902 78.897 53.1922 80.8215 49.8751 82.2648C48.8875 82.7713 47.8493 83.2777 46.5073 83.9107C45.1905 84.5438 43.9498 85.2528 42.7343 86.0378L42.6584 86.0884L42.4811 86.215L42.1266 86.4429C41.8987 86.5948 41.6708 86.7721 41.4429 86.9493C40.9871 87.2785 40.5313 87.633 40.1009 88.0129C39.2146 88.7725 38.379 89.5828 37.594 90.4691C35.9734 92.2669 34.758 94.3686 33.9983 96.6476C33.6438 97.787 33.4413 98.9771 33.4413 100.193C33.4413 101.383 33.6692 102.548 34.0996 103.636C34.3275 104.168 34.6061 104.7 34.9352 105.181C35.2644 105.662 35.6443 106.118 36.0747 106.548C36.5052 106.979 36.961 107.359 37.4421 107.688C37.9485 108.042 38.455 108.346 38.9867 108.625C41.1644 109.714 43.5953 110.271 46.0008 110.524C48.3558 110.802 50.7107 110.802 53.0656 110.524C54.1797 110.397 55.2686 110.195 56.3574 109.941C56.8892 109.84 57.3956 109.663 57.902 109.536C58.4085 109.41 58.8896 109.232 59.396 109.055C61.2192 108.422 62.9664 107.612 64.6123 106.65C67.0685 105.206 69.3474 103.484 71.3732 101.484C72.1075 100.775 72.6393 100.193 73.0191 99.7874L73.5508 99.1544C73.5508 99.1544 73.6015 99.1038 73.6775 99.0025L73.8547 98.7999C73.956 98.6986 74.0573 98.572 74.2092 98.4454C74.7663 97.939 75.45 97.6351 76.1843 97.5591C76.4122 96.8501 76.5388 96.1158 76.5894 95.3561C76.6401 94.8244 76.6401 94.2673 76.6148 93.7356C76.6148 93.457 76.5894 93.1532 76.5641 92.8493C76.5641 92.7733 76.5641 92.6974 76.5388 92.6214L76.5135 92.3682C76.4882 92.1909 76.4628 92.0137 76.4375 91.8111L76.4122 91.6845C75.8298 91.5832 75.2727 91.406 74.741 91.1781C73.6775 91.1021 72.6646 90.7729 71.753 90.2412C71.4998 90.0892 71.2466 89.8867 70.968 89.7094C70.7148 89.4815 70.4616 89.2536 70.2337 89.0257C69.7273 88.4686 69.2715 87.8609 68.917 87.1772C68.8157 87 68.6891 86.7721 68.5878 86.4936C68.5118 86.3669 68.4612 86.215 68.3852 86.0378C68.3599 85.9618 68.3093 85.8858 68.2839 85.7845L68.1573 85.43C68.1067 85.2528 68.056 85.0755 68.0054 84.873C67.9801 84.7717 67.9548 84.6704 67.9294 84.5944L67.9041 84.4425L67.8788 84.3665C67.8788 84.3412 67.9041 84.3412 67.9294 84.3159C68.0814 84.164 68.208 84.012 68.3852 83.8601L68.841 83.4296C69.0183 83.2524 69.2462 83.0751 69.4487 82.8979L69.7779 82.6193L70.1577 82.3661C71.2466 81.6065 72.4367 81.0494 73.7028 80.6949C75.0448 80.3404 76.4628 80.2391 77.8555 80.391C78.9444 80.5176 80.0079 80.7455 81.0461 81.1C81.4259 81.2266 81.7551 81.3532 81.9576 81.4292C82.1602 81.5052 82.2868 81.5558 82.2868 81.5558L82.4641 81.6318C82.5907 81.6824 82.7933 81.7837 83.0718 81.9103C83.3503 82.0369 83.7302 82.2395 84.2113 82.4927C84.4392 82.6193 84.7177 82.7713 84.9963 82.9738C85.1482 83.0751 85.3001 83.1511 85.452 83.2524L85.5787 83.3283L85.7812 83.455L85.9838 83.6069L86.2117 83.7841C86.313 83.8601 86.4649 83.9614 86.5915 84.088L86.7181 84.1893L86.7688 84.2399V84.3159L86.6928 84.6451C86.6422 84.873 86.5662 85.1515 86.4649 85.43L86.3889 85.6326L86.3383 85.7592C86.313 85.8352 86.2877 85.9112 86.237 86.0124C85.9078 86.8227 85.528 87.5824 85.0469 88.2914C84.5151 89.1017 83.8568 89.836 83.1224 90.4691C82.4641 91.0261 81.7298 91.5073 80.9701 91.8618C80.2864 92.1656 79.6027 92.4188 78.8684 92.5708L78.5139 92.6467H78.4886V92.672C78.4886 93.0266 78.4886 93.3811 78.4379 93.7356C78.362 94.3686 78.21 95.0016 77.9821 95.6094C77.7289 96.2931 77.3491 96.9261 76.868 97.4832C77.0199 97.5085 77.1972 97.5338 77.3491 97.5591C77.7289 97.6604 78.0834 97.8124 78.4126 98.0403C78.5899 98.1669 78.7418 98.2935 78.8937 98.4201C79.0457 98.572 79.1976 98.7493 79.2735 98.8505C79.6534 99.3316 80.0838 99.8381 80.5903 100.345C81.6791 101.509 82.8945 102.598 84.1606 103.56C87.4271 106.042 91.1494 107.916 95.0743 109.055C97.3279 109.739 99.6575 110.144 102.012 110.296C104.443 110.473 106.9 110.22 109.254 109.536C110.419 109.182 111.533 108.675 112.546 108.042C114.066 107.08 115.256 105.713 116.015 104.092C116.269 103.56 116.446 102.978 116.598 102.421C116.75 101.839 116.826 101.256 116.876 100.648C116.927 100.041 116.952 99.4583 116.927 98.8505C116.927 98.5467 116.876 98.2681 116.826 97.9643L116.775 97.5085L116.674 97.078C116.598 96.7995 116.572 96.4956 116.471 96.2171C116.37 95.9385 116.294 95.66 116.193 95.3815C116.142 95.2295 116.117 95.1029 116.041 94.951L115.863 94.5459L115.686 94.1407C115.636 94.0141 115.56 93.8875 115.484 93.7609C115.357 93.5077 115.205 93.2291 115.078 92.9759L114.623 92.2416C113.99 91.2794 113.255 90.3678 112.445 89.5322C112.141 89.2283 111.711 88.8485 111.305 88.4433ZM82.7426 74.1112C82.3628 74.1112 81.983 74.01 81.6285 73.858C80.6662 73.4529 79.6534 73.1237 78.6152 72.9211C78.0581 72.7945 77.501 72.7185 76.9439 72.6679C76.7161 72.6426 76.5388 72.6426 76.4122 72.6426H75.4753C74.9182 72.6679 74.3611 72.7439 73.8041 72.8452C73.1963 72.9718 72.6139 73.1237 72.0315 73.3263C71.7783 73.4022 71.5251 73.5288 71.3225 73.6048C71.12 73.6808 70.968 73.7567 70.8667 73.8074C70.1071 74.1619 69.5247 74.1112 68.5371 74.01C68.8157 73.0731 69.1449 72.4653 70.0058 72.0095C70.1324 71.9589 70.3097 71.8576 70.5376 71.7563C70.7655 71.655 71.044 71.5284 71.3479 71.4271C72.0315 71.1739 72.7152 70.9967 73.4242 70.8701C74.0573 70.7435 74.7156 70.6928 75.374 70.6422C75.6272 70.6422 75.8551 70.6422 76.007 70.6422H76.4628C76.6654 70.6422 76.868 70.6422 77.0706 70.6675C77.7289 70.7181 78.362 70.7941 78.995 70.946C80.1598 71.1992 81.2993 71.5538 82.3881 72.0602C83.2744 72.4653 83.6289 73.0477 83.9327 73.9846C83.5782 74.0606 83.1478 74.1112 82.7426 74.1112Z" fill="white"/>
</svg>