<?xml version="1.0" encoding="UTF-8"?>
<svg version="1.1" xmlns="http://www.w3.org/2000/svg" width="136" height="136">
<path d="M0 0 C44.88 0 89.76 0 136 0 C136 44.88 136 89.76 136 136 C91.12 136 46.24 136 0 136 C0 91.12 0 46.24 0 0 Z " fill="#EBE9EB" transform="translate(0,0)"/>
<path d="M0 0 C8.71891976 5.43171482 16.00543294 13.15382229 18.58984375 23.3203125 C20.47869379 35.66079945 18.84567463 45.7763738 11.6640625 55.9296875 C7.21531595 61.46451302 1.68500036 65.52945639 -5 68 C-5.99 68 -6.98 68 -8 68 C-8.06058594 66.96359375 -8.12117188 65.9271875 -8.18359375 64.859375 C-8.26803371 63.48957127 -8.35267997 62.11978025 -8.4375 60.75 C-8.47681641 60.06808594 -8.51613281 59.38617188 -8.55664062 58.68359375 C-8.76666472 55.35551959 -9.01934002 52.19744598 -10 49 C-8.98679687 48.65388672 -8.98679687 48.65388672 -7.953125 48.30078125 C-0.81014868 45.71442594 -0.81014868 45.71442594 4 40 C4.94024746 36.98097415 5.1922767 34.15554049 5.25 31 C5.28867188 29.7315625 5.28867188 29.7315625 5.328125 28.4375 C5.1952751 25.91761951 5.1952751 25.91761951 3.49609375 24.046875 C1.5101936 21.32987322 1.69386223 19.57185758 1.8125 16.25 C1.85310547 14.77273437 1.85310547 14.77273437 1.89453125 13.265625 C1.92933594 12.51796875 1.96414062 11.7703125 2 11 C0.1746875 11.7115625 0.1746875 11.7115625 -1.6875 12.4375 C-11.23285233 16.15856955 -23.40350839 16.88527486 -33 13 C-34.34721283 12.36184656 -35.68747118 11.70674629 -37 11 C-36.94779297 12.10408203 -36.94779297 12.10408203 -36.89453125 13.23046875 C-36.73595389 18.9468049 -36.84761076 22.14006659 -40 27 C-40.56240244 32.71775809 -40.18581787 38.06303721 -37 43 C-33.21436235 46.31038444 -29.06277225 48.5253651 -24 49 C-24.99 51.475 -24.99 51.475 -26 54 C-29.1875 54.8125 -29.1875 54.8125 -33 55 C-35.5625 52.75 -35.5625 52.75 -38 50 C-41.16645474 48.20679176 -41.16645474 48.20679176 -44 47 C-38.58996912 55.38367042 -38.58996912 55.38367042 -30.25 59.75 C-29.1775 59.8325 -28.105 59.915 -27 60 C-27 62.64 -27 65.28 -27 68 C-35.50776843 67.01216041 -41.60191528 62.08502623 -46.9375 55.5625 C-53.10992675 47.02276605 -54.82811785 37.38214412 -54 27 C-52.21089573 17.09927893 -47.10970342 8.9006385 -39.30859375 2.57421875 C-27.47446831 -5.49541332 -12.68959256 -7.25440424 0 0 Z " fill="#272C32" transform="translate(86,36)"/>
</svg>
