<svg viewBox="0 0 172 34" fill="none" xmlns="http://www.w3.org/2000/svg">
<path fill-rule="evenodd" clip-rule="evenodd" d="M15.4692 0.714774C14.2903 0.852623 13.4278 0.999985 12.6635 1.19414C7.27566 2.5627 2.82529 6.63951 0.982765 11.8944C-0.0249814 14.7683 -0.259681 17.745 0.287787 20.7067C1.34919 26.4485 5.32308 31.2466 10.779 33.3737C11.6112 33.6982 11.9498 33.7445 12.2725 33.5781C12.6468 33.3851 12.6887 33.1311 12.6459 31.3173C12.6117 29.8699 12.5951 29.6947 12.4952 29.7245C12.1494 29.8274 11.0391 29.9165 10.5201 29.8832C9.2854 29.8037 8.44235 29.4546 7.71819 28.7227C7.46638 28.4683 7.20748 28.1499 7.14288 28.0153C7.07828 27.8807 6.89899 27.5006 6.74446 27.1705C6.40834 26.4529 5.93564 25.8058 5.52692 25.5038C5.36271 25.3825 5.0787 25.1728 4.89577 25.0379C4.51889 24.7599 4.3979 24.48 4.59317 24.3377C4.8123 24.1779 5.23162 24.1524 5.69512 24.2708C6.53579 24.4856 7.19808 25.0086 7.81997 25.9488C8.30115 26.6763 8.85753 27.1957 9.45381 27.4741C9.85328 27.6606 10.0306 27.6999 10.5799 27.7239C11.2888 27.755 11.9224 27.6598 12.4199 27.4475C12.7329 27.314 12.7387 27.3054 12.8252 26.851C12.9324 26.2873 13.1744 25.7619 13.5032 25.3789C13.6393 25.2203 13.7507 25.076 13.7507 25.0583C13.7507 25.0405 13.5535 25.0044 13.3123 24.978C13.0712 24.9516 12.5741 24.8685 12.2076 24.7934C8.42334 24.0175 6.48914 21.7643 6.16186 17.7506C5.98643 15.5986 6.46516 13.8143 7.57152 12.4967C7.83526 12.1826 7.85371 12.1354 7.7835 11.9536C7.40655 10.9771 7.43776 9.37888 7.85841 8.11844L8.01041 7.66307H8.4528C9.32279 7.66307 10.6852 8.18118 12.0194 9.01947L12.638 9.40805L13.2119 9.27474C14.4546 8.98617 15.3518 8.8912 16.837 8.8912C18.3301 8.8912 19.2447 8.98785 20.4761 9.27579L21.064 9.41329L21.6262 9.05359C22.9602 8.20041 24.4708 7.63363 25.2952 7.67692L25.6974 7.69804L25.8275 8.08074C26.096 8.87021 26.1839 9.52191 26.1474 10.4514C26.128 10.9438 26.062 11.5157 25.9983 11.7434L25.8839 12.152L26.2385 12.6176C26.6891 13.2094 27.1676 14.1824 27.3618 14.9018C27.5759 15.6951 27.6252 17.3351 27.4687 18.4522C27.1251 20.9038 26.167 22.5466 24.4299 23.6631C23.5332 24.2394 21.9869 24.7542 20.5787 24.9451C20.2376 24.9913 19.946 25.0393 19.931 25.0516C19.9159 25.064 20.0172 25.1995 20.1559 25.3527C20.471 25.7003 20.6462 26.0398 20.8497 26.6968C21.0043 27.196 21.009 27.2958 21.0106 30.1135C21.0124 33.2765 21.0246 33.3838 21.4027 33.5787C21.5111 33.6346 21.7102 33.6804 21.8451 33.6804C22.4111 33.6804 24.6394 32.6758 25.8855 31.8589C27.767 30.6253 29.3649 29.0957 30.5947 27.3509C33.3587 23.4296 34.3318 18.322 33.2131 13.6079C32.787 11.8128 31.8789 9.71857 30.8777 8.22258C28.0214 3.95463 23.509 1.23561 18.4604 0.740442C17.7855 0.674209 15.9503 0.658473 15.4692 0.714774ZM136.899 7.61999C136.432 7.74993 136.018 8.0585 135.766 8.46436C135.579 8.76768 135.555 8.86714 135.556 9.33643C135.559 10.1197 135.876 10.5909 136.631 10.9356C137.141 11.1684 137.871 11.1347 138.347 10.8563C139.439 10.2184 139.599 8.88756 138.682 8.06207C138.178 7.6081 137.525 7.44605 136.899 7.61999ZM44.3331 18.5386V28.7147H50.7863H57.2395V27.3859V26.057H52.3295H47.4194V22.9447V19.8324H51.9437H56.4679V18.5036V17.1748H51.9437H47.4194V14.0975V11.0201H52.2593H57.0992V9.6913V8.36246H50.7162H44.3331V18.5386ZM71.0577 12.1392C71.0577 16.3289 71.0643 16.2763 70.6293 15.5181C70.5038 15.2994 70.1807 14.8891 69.9113 14.6063C69.5154 14.1907 69.2995 14.0321 68.7842 13.7783C67.934 13.3595 67.2324 13.2271 66.1477 13.2808C64.9072 13.3422 63.9652 13.6461 63.0177 14.2906C62.5481 14.61 61.7951 15.37 61.4544 15.8684C61.1096 16.3731 60.6381 17.4101 60.4348 18.1111C59.9019 19.949 59.9347 22.5756 60.5133 24.4046C61.154 26.4296 62.5093 27.9708 64.2115 28.6096C65.7213 29.1762 67.5278 29.1282 68.8125 28.4873C69.3924 28.1979 70.1582 27.477 70.5667 26.8358C70.7587 26.5345 70.9304 26.3396 71.0051 26.3386C71.1172 26.3369 71.1278 26.4393 71.1278 27.5257V28.7147H72.5658H74.0037V18.5386V8.36246H72.5307H71.0577V12.1392ZM126.751 11.6132V13.468H125.629H124.507V14.657V15.8459H125.629H126.751L126.753 20.5843C126.754 25.7615 126.761 25.8731 127.162 26.7153C127.867 28.2001 129.509 29.0253 131.514 28.9035C132.317 28.8547 133.134 28.6694 133.134 28.5363C133.134 28.4454 132.646 26.1758 132.621 26.1519C132.614 26.1449 132.435 26.1714 132.223 26.2107C132.01 26.2499 131.607 26.2652 131.326 26.2447C130.646 26.1949 130.29 25.9895 130.009 25.4853L129.803 25.1128L129.783 20.4794L129.764 15.8459H131.309H132.854V14.657V13.468H131.312H129.77L129.751 11.6321L129.732 9.79621L128.242 9.77732L126.751 9.75844V11.6132ZM99.4474 13.3644C96.5643 13.9078 94.5909 15.9421 93.9147 19.0677C93.6853 20.1278 93.6857 22.196 93.9152 23.2576C94.4383 25.6758 95.6674 27.3578 97.5973 28.2965C98.7828 28.873 99.1838 28.9535 100.869 28.9524C102.235 28.9515 102.338 28.9419 102.938 28.7594C104.647 28.2392 105.852 27.2787 106.546 25.8822C106.834 25.3025 107.111 24.42 107.111 24.0826V23.8889H105.683H104.254L104.107 24.2911C103.586 25.7161 102.459 26.4766 100.869 26.4766C98.4585 26.4766 96.9082 24.6191 96.7534 21.546C96.6841 20.1687 96.8833 19.0382 97.3759 18.014C97.7242 17.2898 98.5005 16.4687 99.115 16.1747C101.188 15.1828 103.5 16.0657 104.161 18.1015L104.246 18.3637H105.689H107.131L107.089 18.0135C107.032 17.5339 106.686 16.5579 106.4 16.0725C106.271 15.8517 105.877 15.3827 105.526 15.0303C104.954 14.4555 104.806 14.3495 104.088 14.0004C103.005 13.4735 102.365 13.3239 101.044 13.2893C100.308 13.2701 99.8281 13.2927 99.4474 13.3644ZM114.793 13.3362C112.936 13.6058 111.391 14.473 110.537 15.7242C110.288 16.0876 109.755 17.1097 109.796 17.1449C109.804 17.1527 110.396 17.2904 111.109 17.451C111.823 17.6115 112.445 17.7548 112.49 17.7696C112.536 17.7844 112.669 17.6279 112.785 17.4219C113.236 16.625 114.11 16.004 115.108 15.7712C115.656 15.6431 116.737 15.6602 117.247 15.8049C117.765 15.9519 118.328 16.3237 118.578 16.6832C118.849 17.073 119.036 17.7339 119.036 18.3046C119.036 19.3109 118.812 19.4146 115.887 19.761C112.579 20.1529 111.273 20.5994 110.29 21.6737C109.576 22.4549 109.325 23.2601 109.372 24.62C109.411 25.7335 109.571 26.2679 110.093 27.0356C110.685 27.9068 111.637 28.5397 112.849 28.8688C113.624 29.0794 115.327 29.0799 116.1 28.8699C117.14 28.5873 118.092 27.9724 118.62 27.2431C118.791 27.0068 118.969 26.7613 119.016 26.6975C119.084 26.6045 119.102 26.7925 119.104 27.6481L119.106 28.7147H120.581H122.057L122.035 23.0671C122.014 17.4942 122.011 17.4123 121.859 16.874C121.307 14.9218 119.804 13.712 117.492 13.3604C116.77 13.2505 115.464 13.2387 114.793 13.3362ZM148.005 13.3025C146.949 13.4374 145.611 13.9713 144.77 14.5933C143.464 15.558 142.515 17.1513 142.105 19.0631C141.894 20.0525 141.877 22.0445 142.073 23.0496C142.397 24.7177 142.998 25.9439 144.002 26.9915C144.823 27.8471 145.706 28.3706 146.988 28.762C147.59 28.9458 147.685 28.9546 149.057 28.953C150.421 28.9515 150.527 28.9416 151.126 28.7599C153.456 28.0529 154.962 26.5495 155.749 24.1471C156.168 22.8665 156.297 20.7647 156.042 19.3532C155.48 16.2381 153.694 14.1928 150.893 13.4583C150.361 13.3188 148.614 13.2245 148.005 13.3025ZM165.697 13.3316C165.165 13.4262 164.512 13.6566 164.068 13.9064C163.549 14.1981 162.742 15.0178 162.486 15.5136C162.147 16.1718 162.104 16.0792 162.104 14.6919V13.468H160.666H159.228V21.0913V28.7147H160.736H162.244V23.7987C162.244 19.6271 162.26 18.8196 162.351 18.4658C162.764 16.8526 164.061 15.8459 165.727 15.8459C167.378 15.8459 168.432 16.6283 168.885 18.1889C168.994 18.5661 169.009 19.1199 169.031 23.6616L169.055 28.7147H170.528H172L171.977 23.172C171.954 17.6441 171.954 17.6278 171.793 17.0349C171.384 15.5254 170.547 14.4263 169.369 13.8501C169.019 13.6789 168.543 13.4883 168.311 13.4265C167.812 13.2935 166.234 13.2362 165.697 13.3316ZM78.0021 18.6959C78.0024 24.3536 78.0174 24.6253 78.3864 25.7048C78.7959 26.9026 79.6069 27.8688 80.6172 28.3625C81.4744 28.7813 81.9485 28.8845 83.0171 28.8845C84.079 28.8845 84.541 28.7844 85.4306 28.3614C85.9074 28.1348 86.1296 27.9709 86.5905 27.5061C86.9393 27.1544 87.2497 26.7616 87.3902 26.4941C87.5164 26.2538 87.6494 26.057 87.6857 26.057C87.7247 26.057 87.7517 26.6018 87.7517 27.3859V28.7147H89.2248H90.6978V21.0913V13.468H89.1897H87.6816V18.2127C87.6816 22.7109 87.6744 22.9854 87.5429 23.4983C87.3632 24.1985 87.1076 24.6582 86.6288 25.1419C85.7546 26.0249 84.415 26.3974 83.2247 26.0883C82.1893 25.8195 81.464 25.0632 81.1068 23.8797C81.0082 23.5531 80.9899 22.8516 80.9661 18.4861L80.9387 13.468H79.4703H78.0019L78.0021 18.6959ZM135.87 21.0913V28.7147H137.378H138.886V21.0913V13.468H137.378H135.87V21.0913ZM66.2219 15.88C64.9709 16.1637 63.9908 17.0774 63.5045 18.4132C63.185 19.2909 63.1091 19.7922 63.1043 21.0564C63.0997 22.2741 63.1521 22.6798 63.4253 23.5392C63.7648 24.6075 64.4695 25.56 65.2546 26.0118C65.7992 26.3252 66.6343 26.5025 67.3395 26.4545C69.7165 26.2928 71.0679 24.3489 71.0679 21.0913C71.0679 18.3324 70.0684 16.4999 68.2603 15.9439C67.7652 15.7917 66.7516 15.7599 66.2219 15.88ZM147.794 15.9545C146.223 16.4681 145.247 17.9395 144.984 20.1897C144.738 22.3014 145.277 24.3122 146.39 25.4356C147.141 26.1928 147.94 26.5092 149.092 26.506C150.215 26.5028 151.185 26.0772 151.883 25.2818C153.526 23.4102 153.599 19.29 152.028 17.1766C151.737 16.786 151.069 16.2417 150.67 16.0714C149.848 15.72 148.659 15.6717 147.794 15.9545ZM118.895 21.3725C118.611 21.5523 117.572 21.7683 115.879 21.9995C114.108 22.2414 113.467 22.4581 112.868 23.0163C112.427 23.4279 112.266 23.8243 112.27 24.4875C112.274 25.3774 112.788 26.0847 113.677 26.4265C114.106 26.5916 115.063 26.7022 115.59 26.6476C117.222 26.4791 118.436 25.5972 118.892 24.2499C119.023 23.8607 119.037 23.6797 119.02 22.5601C119.003 21.4655 118.987 21.3145 118.895 21.3725ZM5.98629 24.7733C5.94441 24.8821 6.12096 25.0779 6.26104 25.0779C6.36752 25.0779 6.40315 24.8685 6.31477 24.7622C6.20029 24.6247 6.04142 24.63 5.98629 24.7733ZM6.64086 25.3227C6.58517 25.4674 6.65721 25.6277 6.81622 25.7125C7.08326 25.855 7.19815 25.5495 6.95882 25.3335C6.79953 25.1898 6.6934 25.1861 6.64086 25.3227ZM7.34433 26.1736C7.23687 26.2807 7.3068 26.5494 7.46981 26.6559C7.67358 26.7891 7.78855 26.7394 7.78855 26.5183C7.78855 26.276 7.48097 26.0373 7.34433 26.1736ZM8.10173 27.18C8.01904 27.3135 8.13975 27.5989 8.31209 27.6771C8.54041 27.7809 8.70041 27.7067 8.70041 27.4969C8.70041 27.2228 8.22968 26.9736 8.10173 27.18ZM9.27558 27.8894C9.14554 28.0191 9.17493 28.1412 9.36628 28.2662C9.74035 28.5105 10.1007 28.1685 9.73691 27.9144C9.55026 27.784 9.38999 27.7753 9.27558 27.8894ZM11.9298 27.977C11.8833 28.0329 11.8562 28.1351 11.8695 28.2043C11.9025 28.3749 12.4048 28.3821 12.5115 28.2135C12.6761 27.9534 12.1331 27.7327 11.9298 27.977ZM10.6547 28.1552L10.4891 28.2951L10.6547 28.4349C10.7457 28.5119 10.8606 28.5748 10.9099 28.5748C10.9592 28.5748 11.0741 28.5119 11.1652 28.4349L11.3308 28.2951L11.1652 28.1552C11.0741 28.0782 10.9592 28.0153 10.9099 28.0153C10.8606 28.0153 10.7457 28.0782 10.6547 28.1552Z" fill="white"/>
</svg>
