<?xml version="1.0" encoding="UTF-8"?>
<svg version="1.1" xmlns="http://www.w3.org/2000/svg" width="136" height="136">
<path d="M0 0 C44.88 0 89.76 0 136 0 C136 44.88 136 89.76 136 136 C91.12 136 46.24 136 0 136 C0 91.12 0 46.24 0 0 Z " fill="#110B15" transform="translate(0,0)"/>
<path d="M0 0 C8.31162449 5.2555041 15.1637022 13.06749396 17.578125 22.7578125 C19.40867253 34.38517923 18.03625569 44.91089702 11.3125 54.6875 C6.72652628 60.34431022 0.95263367 65.11619929 -6 67.4375 C-6.99 67.4375 -7.98 67.4375 -9 67.4375 C-9.06058594 66.40109375 -9.12117188 65.3646875 -9.18359375 64.296875 C-9.26803371 62.92707127 -9.35267997 61.55728025 -9.4375 60.1875 C-9.47681641 59.50558594 -9.51613281 58.82367188 -9.55664062 58.12109375 C-9.76666472 54.79301959 -10.01934002 51.63494598 -11 48.4375 C-9.98679687 48.09138672 -9.98679687 48.09138672 -8.953125 47.73828125 C-1.81014868 45.15192594 -1.81014868 45.15192594 3 39.4375 C3.94024746 36.41847415 4.1922767 33.59304049 4.25 30.4375 C4.28867188 29.1690625 4.28867188 29.1690625 4.328125 27.875 C4.1952751 25.35511951 4.1952751 25.35511951 2.49609375 23.484375 C0.5101936 20.76737322 0.69386223 19.00935758 0.8125 15.6875 C0.85310547 14.21023437 0.85310547 14.21023437 0.89453125 12.703125 C0.92933594 11.95546875 0.96414062 11.2078125 1 10.4375 C-0.8253125 11.1490625 -0.8253125 11.1490625 -2.6875 11.875 C-12.23285233 15.59606955 -24.40350839 16.32277486 -34 12.4375 C-35.34721283 11.79934656 -36.68747118 11.14424629 -38 10.4375 C-37.94779297 11.54158203 -37.94779297 11.54158203 -37.89453125 12.66796875 C-37.73595389 18.3843049 -37.84761076 21.57756659 -41 26.4375 C-41.56240244 32.15525809 -41.18581787 37.50053721 -38 42.4375 C-34.21436235 45.74788444 -30.06277225 47.9628651 -25 48.4375 C-25.99 50.9125 -25.99 50.9125 -27 53.4375 C-30.1875 54.25 -30.1875 54.25 -34 54.4375 C-36.5625 52.1875 -36.5625 52.1875 -39 49.4375 C-42.16645474 47.64429176 -42.16645474 47.64429176 -45 46.4375 C-39.58996912 54.82117042 -39.58996912 54.82117042 -31.25 59.1875 C-30.1775 59.27 -29.105 59.3525 -28 59.4375 C-28 62.0775 -28 64.7175 -28 67.4375 C-36.50776843 66.44966041 -42.60191528 61.52252623 -47.9375 55 C-54.10992675 46.46026605 -55.82811785 36.81964412 -55 26.4375 C-53.21003803 16.5320325 -48.10686614 8.35347832 -40.31640625 2.01171875 C-27.84252046 -6.46547513 -13.15181514 -7.20456034 0 0 Z " fill="#FAFAFA" transform="translate(87,36.5625)"/>
</svg>
