<svg xmlns="http://www.w3.org/2000/svg" width="165" height="32" fill="none"><clipPath id="a"><path d="M.254 0h164v32h-164z"/></clipPath><g fill="#fff" clip-path="url(#a)"><path fill-rule="evenodd" d="M16.47.267C7.615.267.457 7.478.457 16.399c0 7.131 4.587 13.167 10.95 15.304.795.16 1.087-.347 1.087-.774 0-.374-.027-1.656-.027-2.992-4.454.962-5.382-1.923-5.382-1.923-.716-1.87-1.776-2.35-1.776-2.35-1.458-.989.106-.989.106-.989 1.617.107 2.465 1.656 2.465 1.656 1.432 2.458 3.739 1.763 4.667 1.336.132-1.042.556-1.763 1.007-2.164-3.553-.373-7.29-1.762-7.29-7.959 0-1.763.635-3.205 1.643-4.327-.16-.4-.716-2.056.159-4.273 0 0 1.352-.427 4.4 1.656a15.4 15.4 0 0 1 4.004-.534c1.352 0 2.731.187 4.004.534 3.048-2.083 4.4-1.656 4.4-1.656.875 2.217.319 3.873.16 4.273 1.034 1.122 1.643 2.564 1.643 4.327 0 6.197-3.738 7.559-7.317 7.96.583.507 1.087 1.468 1.087 2.99 0 2.164-.027 3.9-.027 4.435 0 .427.292.934 1.087.774 6.363-2.137 10.95-8.173 10.95-15.304C32.483 7.479 25.299.267 16.47.267" clip-rule="evenodd"/><path d="M6.528 23.423c-.027.08-.16.107-.265.054-.106-.054-.186-.16-.133-.24.027-.08.16-.108.265-.054.106.053.16.16.133.24M7.165 24.144c-.08.08-.238.027-.318-.08-.106-.107-.132-.267-.053-.347s.212-.027.318.08c.106.134.133.294.053.347M7.801 25.08c-.106.08-.265 0-.345-.134-.106-.134-.106-.32 0-.374.107-.08.266 0 .345.133.106.134.106.294 0 .374M8.675 25.987c-.08.107-.265.08-.424-.053-.132-.134-.185-.32-.08-.4.08-.108.266-.081.425.053.132.107.159.294.08.4M9.868 26.495c-.027.133-.212.187-.398.133-.185-.053-.291-.213-.265-.32.027-.134.212-.187.398-.134.185.054.292.187.265.32M11.168 26.602c0 .133-.16.24-.345.24s-.345-.107-.345-.24c0-.134.16-.24.345-.24.186 0 .345.106.345.24M12.387 26.388c.026.134-.106.267-.292.294-.185.027-.344-.054-.37-.187-.027-.134.105-.267.29-.294.186-.027.345.053.372.187M42.588 27H54.86v-2.519h-9.347v-5.937h8.599v-2.51h-8.6v-5.909h9.234V7.606h-12.16zM63.607 27.284c2.651 0 3.693-1.62 4.204-2.547h.237V27h2.765V7.606h-2.831v7.206h-.17c-.512-.9-1.478-2.547-4.186-2.547-3.513 0-6.099 2.775-6.099 7.49 0 4.707 2.548 7.529 6.08 7.529m.625-2.415c-2.529 0-3.845-2.225-3.845-5.142 0-2.888 1.288-5.057 3.845-5.057 2.471 0 3.797 2.018 3.797 5.057 0 3.059-1.354 5.142-3.797 5.142M83.802 20.968c.01 2.471-1.828 3.646-3.419 3.646-1.752 0-2.964-1.27-2.964-3.248v-8.911h-2.831v9.252c0 3.607 1.979 5.482 4.773 5.482 2.187 0 3.674-1.155 4.346-2.708h.152v2.52h2.784V12.454h-2.841zM96.308 27.294c3.437 0 5.663-2.065 5.975-4.896h-2.756c-.36 1.572-1.581 2.5-3.2 2.5-2.396 0-3.94-1.998-3.94-5.17 0-3.116 1.572-5.076 3.94-5.076 1.799 0 2.897 1.136 3.2 2.5h2.756c-.303-2.936-2.699-4.887-6.004-4.887-4.1 0-6.752 3.087-6.752 7.529 0 4.384 2.557 7.5 6.78 7.5M109.276 27.322c2.405 0 3.76-1.222 4.299-2.31h.114V27h2.765v-9.659c0-4.233-3.333-5.076-5.644-5.076-2.632 0-5.057 1.06-6.004 3.712l2.661.606c.417-1.032 1.478-2.026 3.381-2.026 1.828 0 2.765.956 2.765 2.604v.066c0 1.033-1.06 1.014-3.674 1.317-2.756.322-5.578 1.041-5.578 4.346 0 2.86 2.15 4.432 4.915 4.432m.616-2.273c-1.601 0-2.756-.72-2.756-2.12 0-1.516 1.345-2.056 2.983-2.274.918-.123 3.096-.369 3.504-.776v1.875c0 1.723-1.373 3.295-3.731 3.295M126.75 12.455h-2.983V8.97h-2.832v3.485h-2.13v2.272h2.13v8.59c-.009 2.641 2.008 3.92 4.243 3.872.899-.009 1.506-.18 1.837-.303l-.511-2.339c-.19.038-.54.123-.995.123-.918 0-1.742-.303-1.742-1.94v-8.003h2.983zM129.614 27h2.831V12.455h-2.831zm1.43-16.79c.975 0 1.79-.757 1.79-1.685s-.815-1.695-1.79-1.695c-.985 0-1.79.767-1.79 1.695s.805 1.685 1.79 1.685M142.116 27.294c4.101 0 6.781-3.002 6.781-7.5 0-4.527-2.68-7.529-6.781-7.529s-6.78 3.002-6.78 7.529c0 4.498 2.68 7.5 6.78 7.5m.01-2.377c-2.68 0-3.93-2.34-3.93-5.133 0-2.784 1.25-5.151 3.93-5.151 2.661 0 3.911 2.367 3.911 5.151 0 2.794-1.25 5.133-3.911 5.133M154.62 18.364c0-2.32 1.421-3.646 3.391-3.646 1.922 0 3.087 1.26 3.087 3.371V27h2.831v-9.252c0-3.598-1.979-5.483-4.953-5.483-2.187 0-3.617 1.014-4.289 2.557h-.18v-2.367h-2.718V27h2.831z"/></g></svg>