<svg xmlns="http://www.w3.org/2000/svg" width="120" height="32" fill="none"><clipPath id="a"><path d="M.758 0h118.646v32H.758z"/></clipPath><g fill="#fff" clip-path="url(#a)"><path d="M23.765 13.714H13.83a.465.465 0 0 0-.464.464v4.857c0 .256.208.465.464.465h3.875v6.034s-.87.297-3.276.297c-2.838 0-6.803-1.037-6.803-9.756s4.129-9.867 8.005-9.867c3.355 0 4.8.59 5.72.875.289.089.556-.2.556-.456l1.108-4.692c0-.12-.04-.264-.177-.363-.373-.266-2.652-1.541-8.409-1.541C7.8.03.996 2.852.996 16.415S8.784 32 15.348 32c5.434 0 8.73-2.322 8.73-2.322.136-.075.15-.265.15-.352V14.178a.464.464 0 0 0-.463-.464M74.96 1.656a.463.463 0 0 0-.461-.467h-5.593a.465.465 0 0 0-.463.467v10.81h-8.717V1.655a.463.463 0 0 0-.462-.467H53.67a.464.464 0 0 0-.462.467v29.268c0 .259.207.469.462.469h5.593c.256 0 .461-.21.461-.469V18.405h8.719l-.015 12.52c0 .258.207.468.463.468H74.5c.256 0 .46-.21.461-.469zM34.32 5.496c0-2.013-1.614-3.641-3.607-3.641-1.99 0-3.606 1.628-3.606 3.641s1.616 3.645 3.606 3.645c1.993 0 3.607-1.632 3.607-3.645M33.92 24.75V11.24a.465.465 0 0 0-.463-.466H27.88c-.256 0-.485.263-.485.52V30.65c0 .57.355.738.814.738h5.023c.551 0 .687-.27.687-.747zM96.217 10.818h-5.55a.466.466 0 0 0-.462.468v14.35s-1.41 1.033-3.412 1.033-2.533-.908-2.533-2.868V11.286a.465.465 0 0 0-.461-.468h-5.633a.467.467 0 0 0-.463.468v13.462c0 5.821 3.244 7.245 7.707 7.245 3.661 0 6.613-2.023 6.613-2.023s.14 1.066.204 1.193c.063.126.23.253.408.253l3.584-.016c.254 0 .463-.21.463-.467l-.002-19.647a.466.466 0 0 0-.463-.468M109.197 26.65c-1.925-.058-3.231-.931-3.231-.931v-9.27s1.288-.789 2.869-.93c1.998-.179 3.924.425 3.924 5.193 0 5.028-.869 6.02-3.562 5.939m2.189-16.49c-3.152 0-5.296 1.407-5.296 1.407v-9.91a.464.464 0 0 0-.462-.468h-5.609a.464.464 0 0 0-.462.467v29.268c0 .259.207.468.462.468h3.892c.176 0 .308-.09.406-.248.097-.157.237-1.35.237-1.35s2.293 2.174 6.635 2.174c5.098 0 8.021-2.585 8.021-11.607s-4.669-10.2-7.824-10.2M49.994 10.771h-4.196l-.006-5.543c0-.21-.108-.315-.35-.315h-5.718c-.222 0-.342.098-.342.312v5.728s-2.865.692-3.059.747a.465.465 0 0 0-.335.446v3.6c0 .259.207.468.463.468h2.931v8.66c0 6.43 4.512 7.062 7.556 7.062 1.391 0 3.055-.446 3.33-.548.166-.06.263-.233.263-.42l.004-3.959a.47.47 0 0 0-.463-.467c-.245 0-.87.1-1.514.1-2.061 0-2.76-.959-2.76-2.2v-8.228h4.196a.465.465 0 0 0 .463-.468v-4.509a.464.464 0 0 0-.463-.466"/></g></svg>