<svg width="70" height="70" viewBox="0 0 70 70" fill="none" xmlns="http://www.w3.org/2000/svg">
<rect width="69.33" height="69.33" rx="2" fill="white"/>
<path fill-rule="evenodd" clip-rule="evenodd" d="M10.8804 29.1127C10.4829 29.1592 10.192 29.2089 9.93431 29.2743C8.11748 29.7358 6.61678 31.1106 5.99546 32.8825C5.65564 33.8517 5.5765 34.8554 5.76111 35.8541C6.11902 37.7903 7.45906 39.4083 9.29883 40.1256C9.57947 40.235 9.69364 40.2506 9.80247 40.1945C9.92868 40.1294 9.94283 40.0438 9.92837 39.4321C9.91683 38.9441 9.91125 38.885 9.87757 38.895C9.76096 38.9297 9.38656 38.9598 9.21155 38.9485C8.79519 38.9217 8.5109 38.804 8.26671 38.5572C8.18179 38.4714 8.09449 38.3641 8.07271 38.3187C8.05092 38.2733 7.99047 38.1451 7.93836 38.0338C7.82501 37.7918 7.66562 37.5736 7.52779 37.4718C7.47242 37.4309 7.37665 37.3602 7.31496 37.3147C7.18788 37.2209 7.14707 37.1265 7.21292 37.0786C7.28682 37.0247 7.42821 37.0161 7.58451 37.056C7.86799 37.1284 8.09132 37.3048 8.30103 37.6218C8.46329 37.8672 8.6509 38.0423 8.85198 38.1362C8.98668 38.1991 9.04647 38.2123 9.2317 38.2204C9.47076 38.2309 9.68439 38.1988 9.85216 38.1272C9.9577 38.0822 9.95967 38.0793 9.98883 37.926C10.025 37.736 10.1066 37.5588 10.2175 37.4296C10.2634 37.3762 10.3009 37.3275 10.3009 37.3215C10.3009 37.3155 10.2344 37.3034 10.1531 37.2945C10.0718 37.2856 9.90415 37.2576 9.78057 37.2322C8.50449 36.9706 7.85226 36.2108 7.7419 34.8573C7.68274 34.1316 7.84417 33.53 8.21725 33.0857C8.30619 32.9797 8.31241 32.9638 8.28873 32.9025C8.16162 32.5732 8.17214 32.0343 8.31399 31.6093L8.36525 31.4557H8.51443C8.80779 31.4557 9.26723 31.6304 9.71713 31.9131L9.9257 32.0441L10.1192 31.9992C10.5383 31.9019 10.8408 31.8698 11.3417 31.8698C11.8451 31.8698 12.1535 31.9024 12.5688 31.9995L12.767 32.0459L12.9566 31.9246C13.4064 31.6369 13.9158 31.4458 14.1938 31.4604L14.3295 31.4675L14.3733 31.5966C14.4639 31.8628 14.4935 32.0825 14.4812 32.396C14.4747 32.562 14.4524 32.7548 14.4309 32.8316L14.3924 32.9694L14.5119 33.1264C14.6639 33.326 14.8252 33.6541 14.8907 33.8967C14.9629 34.1642 14.9796 34.7172 14.9268 35.0939C14.8109 35.9206 14.4878 36.4746 13.9021 36.8511C13.5997 37.0454 13.0783 37.219 12.6034 37.2834C12.4884 37.2989 12.3901 37.3151 12.385 37.3193C12.3799 37.3235 12.414 37.3692 12.4608 37.4208C12.5671 37.538 12.6262 37.6525 12.6948 37.8741C12.7469 38.0424 12.7485 38.0761 12.749 39.0262C12.7496 40.0928 12.7537 40.129 12.8813 40.1947C12.9178 40.2136 12.9849 40.229 13.0304 40.229C13.2213 40.229 13.9727 39.8902 14.3929 39.6148C15.0274 39.1988 15.5662 38.683 15.9809 38.0946C16.9129 36.7723 17.2411 35.05 16.8638 33.4604C16.7201 32.855 16.4139 32.1488 16.0763 31.6444C15.1131 30.2052 13.5915 29.2883 11.8891 29.1213C11.6615 29.099 11.0427 29.0937 10.8804 29.1127ZM51.8277 31.4412C51.6701 31.485 51.5305 31.5891 51.4458 31.7259C51.3824 31.8282 51.3743 31.8617 51.375 32.02C51.376 32.2841 51.4828 32.443 51.7374 32.5592C51.9094 32.6377 52.1555 32.6264 52.3161 32.5325C52.6843 32.3174 52.7381 31.8686 52.429 31.5903C52.2591 31.4372 52.0387 31.3825 51.8277 31.4412ZM20.6136 35.123V38.5545H22.7897H24.9657V38.1064V37.6583H23.31H21.6543V36.6088V35.5593H23.18H24.7056V35.1112V34.6631H23.18H21.6543V33.6254V32.5877H23.2864H24.9184V32.1396V31.6915H22.766H20.6136V35.123ZM29.6254 32.9651C29.6254 34.3779 29.6276 34.3602 29.4809 34.1045C29.4386 34.0308 29.3297 33.8924 29.2388 33.797C29.1053 33.6569 29.0325 33.6034 28.8587 33.5178C28.572 33.3766 28.3354 33.332 27.9697 33.3501C27.5514 33.3708 27.2337 33.4733 26.9142 33.6906C26.7559 33.7983 26.502 34.0546 26.3871 34.2226C26.2708 34.3928 26.1118 34.7425 26.0432 34.9789C25.8635 35.5987 25.8746 36.4844 26.0697 37.1011C26.2858 37.784 26.7428 38.3037 27.3168 38.5191C27.8259 38.7101 28.4351 38.6939 28.8683 38.4778C29.0638 38.3802 29.3221 38.1371 29.4598 37.9209C29.5245 37.8193 29.5825 37.7536 29.6076 37.7533C29.6455 37.7527 29.649 37.7872 29.649 38.1536V38.5545H30.1339H30.6188V35.123V31.6915H30.1221H29.6254V32.9651ZM48.4058 32.7877V33.4132H48.0274H47.6489V33.8141V34.215H48.0274H48.4058L48.4062 35.8129C48.4066 37.5587 48.4092 37.5963 48.5441 37.8803C48.782 38.381 49.3355 38.6592 50.0119 38.6182C50.2826 38.6017 50.5582 38.5393 50.5582 38.4943C50.5582 38.4637 50.3935 37.6984 50.3852 37.6903C50.3828 37.688 50.3223 37.6969 50.2507 37.7101C50.1792 37.7234 50.0431 37.7285 49.9483 37.7216C49.719 37.7048 49.5989 37.6356 49.5045 37.4655L49.4347 37.3399L49.4282 35.7775L49.4216 34.215H49.9426H50.4636V33.8141V33.4132H49.9436H49.4237L49.4174 32.7941L49.411 32.175L48.9084 32.1687L48.4058 32.1623V32.7877ZM39.1987 33.3783C38.2265 33.5615 37.561 34.2475 37.333 35.3015C37.2556 35.6589 37.2557 36.3564 37.3332 36.7143C37.5095 37.5298 37.924 38.097 38.5748 38.4135C38.9745 38.6079 39.1098 38.635 39.6779 38.6347C40.1387 38.6344 40.1733 38.6311 40.3756 38.5696C40.9521 38.3942 41.3583 38.0703 41.5923 37.5994C41.6895 37.4039 41.783 37.1063 41.783 36.9925V36.9272H41.3013H40.8195L40.7699 37.0628C40.5941 37.5434 40.2141 37.7998 39.6779 37.7998C38.8652 37.7998 38.3424 37.1734 38.2902 36.1371C38.2669 35.6727 38.334 35.2915 38.5001 34.9462C38.6176 34.7019 38.8793 34.4251 39.0865 34.3259C39.7855 33.9914 40.5653 34.2892 40.7882 34.9756L40.8169 35.0641H41.3032H41.7896L41.7755 34.946C41.7563 34.7842 41.6395 34.4551 41.5433 34.2914C41.4995 34.217 41.3668 34.0588 41.2484 33.94C41.0554 33.7462 41.0055 33.7104 40.7636 33.5927C40.3984 33.415 40.1824 33.3646 39.737 33.3529C39.4889 33.3464 39.327 33.3541 39.1987 33.3783ZM44.3734 33.3687C43.7473 33.4596 43.226 33.7521 42.938 34.174C42.8544 34.2966 42.6746 34.6412 42.6881 34.6531C42.6912 34.6557 42.8905 34.7021 43.1312 34.7563C43.3719 34.8104 43.5814 34.8587 43.5968 34.8637C43.6123 34.8687 43.657 34.8159 43.6964 34.7465C43.8484 34.4778 44.1431 34.2683 44.4794 34.1898C44.6644 34.1467 45.029 34.1524 45.2008 34.2012C45.3755 34.2508 45.5655 34.3762 45.6498 34.4974C45.7411 34.6288 45.804 34.8517 45.804 35.0441C45.804 35.3835 45.7284 35.4184 44.7423 35.5353C43.6269 35.6674 43.1863 35.818 42.855 36.1802C42.614 36.4437 42.5294 36.7152 42.5454 37.1737C42.5585 37.5492 42.6123 37.7294 42.7884 37.9883C42.9882 38.2821 43.309 38.4955 43.7177 38.6065C43.9791 38.6775 44.5533 38.6777 44.814 38.6068C45.1646 38.5116 45.4858 38.3042 45.6637 38.0583C45.7213 37.9786 45.7815 37.8958 45.7973 37.8743C45.8204 37.8429 45.8263 37.9063 45.8269 38.1949L45.8276 38.5545H46.3253H46.8229L46.8155 36.6501C46.8083 34.7709 46.8075 34.7433 46.7561 34.5617C46.57 33.9034 46.063 33.4955 45.2836 33.3769C45.0401 33.3398 44.5996 33.3359 44.3734 33.3687ZM55.5726 33.3574C55.2167 33.4029 54.7655 33.5829 54.4817 33.7927C54.0416 34.1179 53.7214 34.6552 53.5833 35.2999C53.5119 35.6336 53.5064 36.3053 53.5723 36.6442C53.6818 37.2067 53.8842 37.6202 54.223 37.9734C54.4997 38.262 54.7973 38.4385 55.2297 38.5705C55.4328 38.6325 55.4647 38.6354 55.9274 38.6349C56.3875 38.6344 56.4232 38.631 56.6252 38.5697C57.4108 38.3313 57.9188 37.8244 58.1841 37.0143C58.3254 36.5825 58.3688 35.8737 58.2829 35.3977C58.0934 34.3473 57.491 33.6576 56.5465 33.4099C56.3671 33.3629 55.7782 33.3311 55.5726 33.3574ZM61.5388 33.3672C61.3593 33.3991 61.1389 33.4768 60.9892 33.561C60.8142 33.6594 60.5423 33.9358 60.456 34.103C60.3414 34.3249 60.3269 34.2937 60.3269 33.8259V33.4132H59.842H59.3571V35.9838V38.5545H59.8656H60.3742V36.8968C60.3742 35.4901 60.3796 35.2178 60.4102 35.0985C60.5495 34.5545 60.9869 34.215 61.5488 34.215C62.1054 34.215 62.4609 34.4789 62.6135 35.0051C62.6504 35.1323 62.6554 35.3191 62.6628 36.8506L62.6711 38.5545H63.1676H63.6641L63.6563 36.6855C63.6486 34.8214 63.6484 34.8159 63.5942 34.616C63.4562 34.107 63.1741 33.7363 62.7768 33.542C62.6587 33.4843 62.4982 33.42 62.4202 33.3992C62.2519 33.3543 61.7197 33.335 61.5388 33.3672ZM31.9671 35.1761C31.9672 37.0839 31.9722 37.1755 32.0967 37.5395C32.2348 37.9435 32.5082 38.2693 32.8489 38.4357C33.138 38.577 33.2978 38.6118 33.6582 38.6118C34.0163 38.6118 34.1721 38.578 34.4721 38.4354C34.6328 38.359 34.7078 38.3037 34.8632 38.147C34.9808 38.0284 35.0855 37.8959 35.1328 37.8057C35.1754 37.7247 35.2203 37.6583 35.2325 37.6583C35.2456 37.6583 35.2548 37.842 35.2548 38.1064V38.5545H35.7515H36.2482V35.9838V33.4132H35.7397H35.2311V35.0131C35.2311 36.53 35.2287 36.6226 35.1843 36.7955C35.1238 37.0316 35.0375 37.1866 34.8761 37.3497C34.5813 37.6475 34.1296 37.7731 33.7282 37.6689C33.379 37.5782 33.1345 37.3232 33.014 36.9241C32.9808 36.814 32.9746 36.5774 32.9666 35.1053L32.9574 33.4132H32.4622H31.967L31.9671 35.1761ZM51.4807 35.9838V38.5545H51.9892H52.4978V35.9838V33.4132H51.9892H51.4807V35.9838ZM27.9947 34.2265C27.5729 34.3222 27.2423 34.6303 27.0784 35.0807C26.9706 35.3767 26.945 35.5458 26.9434 35.9721C26.9419 36.3827 26.9595 36.5195 27.0517 36.8093C27.1661 37.1695 27.4038 37.4907 27.6685 37.6431C27.8522 37.7488 28.1338 37.8085 28.3716 37.7924C29.1731 37.7378 29.6288 37.0823 29.6288 35.9838C29.6288 35.0535 29.2918 34.4356 28.6821 34.2481C28.5151 34.1967 28.1733 34.186 27.9947 34.2265ZM55.5017 34.2517C54.9719 34.4248 54.6426 34.921 54.5541 35.6798C54.471 36.3919 54.6528 37.07 55.0283 37.4488C55.2814 37.7041 55.5507 37.8108 55.9393 37.8097C56.3178 37.8086 56.6451 37.6651 56.8805 37.3969C57.4344 36.7658 57.4592 35.3764 56.9292 34.6638C56.8312 34.5321 56.6058 34.3485 56.4714 34.2911C56.1943 34.1726 55.7934 34.1563 55.5017 34.2517ZM45.7567 36.0787C45.6606 36.1393 45.3103 36.2121 44.7396 36.2901C44.1425 36.3717 43.9262 36.4447 43.7244 36.633C43.5756 36.7717 43.5212 36.9054 43.5224 37.1291C43.524 37.4292 43.6971 37.6677 43.9969 37.7829C44.1417 37.8386 44.4643 37.8759 44.6422 37.8575C45.1924 37.8006 45.6019 37.5033 45.7554 37.0489C45.7997 36.9177 45.8044 36.8567 45.7986 36.4791C45.793 36.11 45.7876 36.0591 45.7567 36.0787ZM7.68269 37.2254C7.66857 37.2621 7.72811 37.3281 7.77534 37.3281C7.81125 37.3281 7.82326 37.2575 7.79346 37.2217C7.75486 37.1753 7.70129 37.1771 7.68269 37.2254ZM7.90342 37.4107C7.88464 37.4595 7.90893 37.5135 7.96256 37.5421C8.0526 37.5902 8.09135 37.4872 8.01064 37.4143C7.95693 37.3659 7.92114 37.3646 7.90342 37.4107ZM8.14064 37.6976C8.1044 37.7338 8.12798 37.8243 8.18295 37.8603C8.25167 37.9052 8.29043 37.8884 8.29043 37.8139C8.29043 37.7322 8.18671 37.6517 8.14064 37.6976ZM8.39604 38.037C8.36816 38.082 8.40886 38.1783 8.46698 38.2046C8.54397 38.2396 8.59792 38.2146 8.59792 38.1439C8.59792 38.0514 8.43919 37.9674 8.39604 38.037ZM8.79187 38.2762C8.74802 38.3199 8.75793 38.3611 8.82246 38.4033C8.9486 38.4857 9.07013 38.3703 8.94744 38.2846C8.8845 38.2407 8.83045 38.2378 8.79187 38.2762ZM9.6869 38.3057C9.67122 38.3246 9.66209 38.3591 9.66658 38.3824C9.6777 38.4399 9.84708 38.4424 9.88306 38.3855C9.93855 38.2978 9.75547 38.2234 9.6869 38.3057ZM9.25691 38.3658L9.20107 38.413L9.25691 38.4602C9.28762 38.4861 9.32636 38.5073 9.34299 38.5073C9.35962 38.5073 9.39836 38.4861 9.42906 38.4602L9.48491 38.413L9.42906 38.3658C9.39836 38.3399 9.35962 38.3187 9.34299 38.3187C9.32636 38.3187 9.28762 38.3399 9.25691 38.3658Z" fill="black"/>
</svg>
