<svg width="70" height="70" viewBox="0 0 70 70" fill="none" xmlns="http://www.w3.org/2000/svg">
<rect width="69.33" height="69.33" rx="2" fill="white"/>
<g clip-path="url(#clip0_5637_80426)">
<path fill-rule="evenodd" clip-rule="evenodd" d="M17.1461 24.3657C11.3498 24.3657 6.66406 29.086 6.66406 34.9257C6.66406 39.5936 9.66639 43.545 13.8314 44.9435C14.3522 45.0486 14.5429 44.7163 14.5429 44.4367C14.5429 44.1919 14.5257 43.3527 14.5257 42.4784C11.6099 43.1079 11.0027 41.2196 11.0027 41.2196C10.5341 39.9957 9.83976 39.6812 9.83976 39.6812C8.8854 39.0343 9.90927 39.0343 9.90927 39.0343C10.9679 39.1042 11.5234 40.1182 11.5234 40.1182C12.4604 41.7266 13.9702 41.2721 14.5777 40.9924C14.6643 40.3105 14.9422 39.8385 15.2372 39.5763C12.9116 39.3315 10.4648 38.4224 10.4648 34.3661C10.4648 33.2122 10.881 32.2682 11.5406 31.5339C11.4365 31.2717 11.072 30.1876 11.6448 28.7365C11.6448 28.7365 12.5299 28.4567 14.5255 29.8205C15.3799 29.5893 16.261 29.4717 17.1461 29.4707C18.0312 29.4707 18.9334 29.5932 19.7666 29.8205C21.7624 28.4567 22.6474 28.7365 22.6474 28.7365C23.2203 30.1876 22.8556 31.2717 22.7515 31.5339C23.4284 32.2682 23.8275 33.2122 23.8275 34.3661C23.8275 38.4224 21.3807 39.3139 19.0377 39.5763C19.4196 39.9084 19.7492 40.5377 19.7492 41.5343C19.7492 42.9504 19.732 44.087 19.732 44.4365C19.732 44.7163 19.923 45.0486 20.4435 44.9437C24.6085 43.5448 27.6108 39.5936 27.6108 34.9257C27.628 29.086 22.9251 24.3657 17.1461 24.3657Z" fill="black"/>
</g>
<g clip-path="url(#clip1_5637_80426)">
<path d="M36.5055 34.0345H33.7827C33.7125 34.0345 33.6559 34.0912 33.6559 34.1614V35.4926C33.6559 35.5628 33.7125 35.6204 33.7827 35.6204H34.845V37.2746C34.845 37.2746 34.6066 37.3555 33.9473 37.3555C33.1692 37.3555 32.0826 37.0713 32.0826 34.6822C32.0826 32.2931 33.2142 31.9783 34.2765 31.9783C35.1958 31.9783 35.5925 32.1402 35.8444 32.2184C35.9235 32.2427 35.9964 32.1636 35.9964 32.0934L36.3004 30.8071C36.3004 30.7738 36.2896 30.7343 36.2518 30.7082C36.1493 30.6353 35.525 30.2854 33.9473 30.2854C32.1303 30.2845 30.2656 31.0581 30.2656 34.7748C30.2656 38.4916 32.4002 39.0457 34.1992 39.0457C35.6888 39.0457 36.5919 38.4089 36.5919 38.4089C36.6287 38.3882 36.6332 38.336 36.6332 38.3126V34.1614C36.6332 34.0912 36.5766 34.0345 36.5064 34.0345H36.5055Z" fill="black"/>
<path d="M50.5353 30.7305C50.5353 30.6595 50.4795 30.6028 50.4093 30.6028H48.8766C48.8064 30.6028 48.7497 30.6604 48.7497 30.7305V33.6926H46.3606V30.7305C46.3606 30.6595 46.304 30.6028 46.2338 30.6028H44.701C44.6309 30.6028 44.5742 30.6604 44.5742 30.7305V38.7523C44.5742 38.8234 44.6309 38.881 44.701 38.881H46.2338C46.304 38.881 46.3606 38.8234 46.3606 38.7523V35.3216H48.7497L48.7452 38.7523C48.7452 38.8234 48.8019 38.881 48.8721 38.881H50.4084C50.4786 38.881 50.5344 38.8234 50.5353 38.7523V30.7305Z" fill="black"/>
<path d="M39.397 31.7824C39.397 31.2301 38.9545 30.7839 38.4085 30.7839C37.8625 30.7839 37.4199 31.2301 37.4199 31.7824C37.4199 32.3347 37.8625 32.7808 38.4085 32.7808C38.9545 32.7808 39.397 32.3338 39.397 31.7824Z" fill="black"/>
<path d="M39.2863 37.0596V33.3572C39.2863 33.2871 39.2296 33.2295 39.1594 33.2295H37.6312C37.561 33.2295 37.498 33.3015 37.498 33.3725V38.6778C37.498 38.8334 37.5952 38.8802 37.7211 38.8802H39.0983C39.2494 38.8802 39.2863 38.8064 39.2863 38.6751V37.0605V37.0596Z" fill="black"/>
<path d="M56.3612 33.2412H54.8402C54.77 33.2412 54.7133 33.2988 54.7133 33.3698V37.3034C54.7133 37.3034 54.3265 37.5858 53.7787 37.5858C53.2309 37.5858 53.0843 37.3367 53.0843 36.7997V33.3698C53.0843 33.2988 53.0277 33.2412 52.9575 33.2412H51.4139C51.3447 33.2412 51.2871 33.2988 51.2871 33.3698V37.0596C51.2871 38.6544 52.1758 39.0448 53.3992 39.0448C54.4021 39.0448 55.2117 38.4907 55.2117 38.4907C55.2117 38.4907 55.2503 38.7831 55.2674 38.8173C55.2845 38.8514 55.3304 38.8865 55.379 38.8865L56.3612 38.882C56.4305 38.882 56.4881 38.8245 56.4881 38.7543V33.3698C56.4881 33.2988 56.4305 33.2412 56.3603 33.2412H56.3612Z" fill="black"/>
<path d="M60.5201 33.0611C59.6556 33.0611 59.0683 33.447 59.0683 33.447V30.7305C59.0683 30.6595 59.0116 30.6028 58.9414 30.6028H57.4042C57.334 30.6028 57.2773 30.6604 57.2773 30.7305V38.7523C57.2773 38.8234 57.334 38.881 57.4042 38.881H58.471C58.5187 38.881 58.5555 38.8558 58.5825 38.8126C58.6086 38.7694 58.6473 38.4429 58.6473 38.4429C58.6473 38.4429 59.2761 39.0384 60.4661 39.0384C61.863 39.0384 62.6645 38.3296 62.6645 35.8568C62.6645 33.3841 61.3845 33.0611 60.5201 33.0611ZM59.9201 37.5812C59.3921 37.565 59.035 37.3257 59.035 37.3257V34.7855C59.035 34.7855 59.3876 34.5687 59.8212 34.53C60.369 34.4806 60.897 34.6461 60.897 35.9531C60.897 37.3311 60.6586 37.6028 59.921 37.5812H59.9201Z" fill="black"/>
<path d="M43.6956 33.2277H42.546C42.546 33.2277 42.5443 31.7093 42.5443 31.7084C42.5443 31.6509 42.5146 31.6221 42.448 31.6221H40.8811C40.8199 31.6221 40.7875 31.6491 40.7875 31.7075V33.2772C40.7875 33.2772 40.0022 33.467 39.9492 33.4823C39.8961 33.4975 39.8574 33.5461 39.8574 33.6046V34.5913C39.8574 34.6624 39.9141 34.7191 39.9843 34.7191H40.7875V37.092C40.7875 38.855 42.0243 39.0277 42.8582 39.0277C43.2396 39.0277 43.6956 38.9054 43.7712 38.8775C43.8171 38.8604 43.8431 38.8136 43.8431 38.7624V37.6776C43.844 37.6065 43.7847 37.5498 43.7172 37.5498C43.6497 37.5498 43.4788 37.5768 43.3025 37.5768C42.7376 37.5768 42.546 37.3142 42.546 36.9741C42.546 36.6341 42.546 34.7191 42.546 34.7191H43.6956C43.7658 34.7191 43.8225 34.6615 43.8225 34.5913V33.3554C43.8225 33.2844 43.7658 33.2277 43.6956 33.2277Z" fill="black"/>
</g>
<defs>
<clipPath id="clip0_5637_80426">
<rect width="21.0268" height="20.5977" fill="white" transform="translate(6.66406 24.3662)"/>
</clipPath>
<clipPath id="clip1_5637_80426">
<rect width="32.3985" height="8.7621" fill="white" transform="translate(30.2656 30.2839)"/>
</clipPath>
</defs>
</svg>
