<svg width="135" height="50" viewBox="0 0 135 50" fill="none" xmlns="http://www.w3.org/2000/svg">
<g clip-path="url(#clip0_3187_65699)">
<path fill-rule="evenodd" clip-rule="evenodd" d="M25.7774 0.100098C11.9077 0.100098 0.695312 11.3951 0.695312 25.3686C0.695312 36.5383 7.87946 45.9933 17.8458 49.3397C19.0918 49.5913 19.5482 48.796 19.5482 48.127C19.5482 47.5412 19.5072 45.5333 19.5072 43.4411C12.5299 44.9475 11.077 40.429 11.077 40.429C9.95569 37.5005 8.29429 36.7478 8.29429 36.7478C6.01064 35.1999 8.46064 35.1999 8.46064 35.1999C10.9938 35.3673 12.323 37.7936 12.323 37.7936C14.5651 41.6422 18.1779 40.5547 19.6314 39.8853C19.8388 38.2536 20.5037 37.1241 21.2096 36.4968C15.6448 35.911 9.78986 33.7356 9.78986 24.0296C9.78986 21.2685 10.7859 19.0095 12.3641 17.2526C12.1151 16.6252 11.2428 14.031 12.6136 10.5588C12.6136 10.5588 14.7314 9.88929 19.5066 13.1525C21.5511 12.5994 23.6595 12.318 25.7774 12.3157C27.8953 12.3157 30.0541 12.6088 32.0477 13.1525C36.8235 9.88929 38.9413 10.5588 38.9413 10.5588C40.3121 14.031 39.4393 16.6252 39.1903 17.2526C40.8101 19.0095 41.765 21.2685 41.765 24.0296C41.765 33.7356 35.9101 35.8689 30.3037 36.4968C31.2175 37.2915 32.0061 38.7973 32.0061 41.1821C32.0061 44.5706 31.9651 47.2902 31.9651 48.1265C31.9651 48.796 32.422 49.5913 33.6675 49.3402C43.6338 45.9928 50.818 36.5383 50.818 25.3686C50.859 11.3951 39.6056 0.100098 25.7774 0.100098Z" fill="white"/>
</g>
<g clip-path="url(#clip1_3187_65699)">
<path d="M72.103 23.2339H65.5877C65.4198 23.2339 65.2842 23.3695 65.2842 23.5374V26.7229C65.2842 26.8908 65.4198 27.0285 65.5877 27.0285H68.1297V30.9868C68.1297 30.9868 67.5593 31.1805 65.9816 31.1805C64.1198 31.1805 61.5197 30.5003 61.5197 24.7836C61.5197 19.0668 64.2274 18.3135 66.7694 18.3135C68.9691 18.3135 69.9183 18.7009 70.521 18.8882C70.7104 18.9463 70.8848 18.7569 70.8848 18.589L71.6123 15.5111C71.6123 15.4314 71.5865 15.3367 71.4961 15.2743C71.2507 15.1 69.7569 14.2627 65.9816 14.2627C61.6338 14.2605 57.1719 16.1116 57.1719 25.0053C57.1719 33.899 62.2795 35.2249 66.5843 35.2249C70.1487 35.2249 72.3097 33.701 72.3097 33.701C72.3979 33.6515 72.4087 33.5266 72.4087 33.4706V23.5374C72.4087 23.3695 72.2731 23.2339 72.1052 23.2339H72.103Z" fill="white"/>
<path d="M105.678 15.3276C105.678 15.1576 105.545 15.022 105.377 15.022H101.709C101.541 15.022 101.405 15.1597 101.405 15.3276V22.4154H95.6887V15.3276C95.6887 15.1576 95.5531 15.022 95.3852 15.022H91.7176C91.5497 15.022 91.4141 15.1597 91.4141 15.3276V34.5227C91.4141 34.6927 91.5497 34.8304 91.7176 34.8304H95.3852C95.5531 34.8304 95.6887 34.6927 95.6887 34.5227V26.3134H101.405L101.395 34.5227C101.395 34.6927 101.53 34.8304 101.698 34.8304H105.374C105.542 34.8304 105.676 34.6927 105.678 34.5227V15.3276Z" fill="white"/>
<path d="M79.0239 17.8447C79.0239 16.5232 77.965 15.4556 76.6584 15.4556C75.3519 15.4556 74.293 16.5232 74.293 17.8447C74.293 19.1663 75.3519 20.2339 76.6584 20.2339C77.965 20.2339 79.0239 19.1641 79.0239 17.8447Z" fill="white"/>
<path d="M78.7633 30.4725V21.6133C78.7633 21.4454 78.6277 21.3076 78.4598 21.3076H74.8029C74.635 21.3076 74.4844 21.4798 74.4844 21.6498V34.3447C74.4844 34.717 74.7168 34.829 75.0182 34.829H78.3135C78.6751 34.829 78.7633 34.6525 78.7633 34.3382V30.4747V30.4725Z" fill="white"/>
<path d="M119.618 21.3354H115.979C115.811 21.3354 115.675 21.4732 115.675 21.6432V31.0557C115.675 31.0557 114.749 31.7315 113.439 31.7315C112.128 31.7315 111.777 31.1353 111.777 29.8503V21.6432C111.777 21.4732 111.641 21.3354 111.474 21.3354H107.78C107.614 21.3354 107.477 21.4732 107.477 21.6432V30.4724C107.477 34.2886 109.603 35.2227 112.53 35.2227C114.93 35.2227 116.867 33.8968 116.867 33.8968C116.867 33.8968 116.96 34.5963 117.001 34.6781C117.042 34.7599 117.152 34.8439 117.268 34.8439L119.618 34.8331C119.784 34.8331 119.922 34.6954 119.922 34.5275V21.6432C119.922 21.4732 119.784 21.3354 119.616 21.3354H119.618Z" fill="white"/>
<path d="M129.568 20.9045C127.5 20.9045 126.094 21.8278 126.094 21.8278V15.3276C126.094 15.1576 125.958 15.022 125.791 15.022H122.112C121.944 15.022 121.809 15.1597 121.809 15.3276V34.5227C121.809 34.6927 121.944 34.8304 122.112 34.8304H124.665C124.779 34.8304 124.867 34.7702 124.932 34.6669C124.994 34.5636 125.087 33.7822 125.087 33.7822C125.087 33.7822 126.591 35.2071 129.439 35.2071C132.781 35.2071 134.699 33.511 134.699 27.5941C134.699 21.6772 131.636 20.9045 129.568 20.9045ZM128.132 31.7202C126.869 31.6815 126.014 31.109 126.014 31.109V25.0306C126.014 25.0306 126.858 24.5119 127.896 24.4193C129.206 24.3009 130.47 24.697 130.47 27.8244C130.47 31.1219 129.899 31.7719 128.134 31.7202H128.132Z" fill="white"/>
<path d="M89.3054 21.303H86.5546C86.5546 21.303 86.5503 17.6697 86.5503 17.6676C86.5503 17.5298 86.4793 17.4609 86.32 17.4609H82.5705C82.4242 17.4609 82.3467 17.5255 82.3467 17.6654V21.4213C82.3467 21.4213 80.4676 21.8755 80.3406 21.9121C80.2136 21.9487 80.1211 22.0649 80.1211 22.2048V24.566C80.1211 24.736 80.2567 24.8716 80.4246 24.8716H82.3467V30.5496C82.3467 34.7683 85.3062 35.1816 87.3015 35.1816C88.2141 35.1816 89.3054 34.8889 89.4862 34.8221C89.5959 34.7812 89.6583 34.6693 89.6583 34.5466V31.9509C89.6605 31.7808 89.5184 31.6452 89.357 31.6452C89.1956 31.6452 88.7866 31.7098 88.3648 31.7098C87.0131 31.7098 86.5546 31.0813 86.5546 30.2677C86.5546 29.4541 86.5546 24.8716 86.5546 24.8716H89.3054C89.4732 24.8716 89.6088 24.7339 89.6088 24.566V21.6086C89.6088 21.4386 89.4732 21.303 89.3054 21.303Z" fill="white"/>
</g>
<defs>
<clipPath id="clip0_3187_65699">
<rect width="50.3142" height="49.2874" fill="white" transform="translate(0.695312 0.100098)"/>
</clipPath>
<clipPath id="clip1_3187_65699">
<rect width="77.5249" height="20.9665" fill="white" transform="translate(57.1719 14.2607)"/>
</clipPath>
</defs>
</svg>
