<svg width="70" height="70" viewBox="0 0 70 70" fill="none" xmlns="http://www.w3.org/2000/svg">
<rect width="69.33" height="69.33" rx="2" fill="white"/>
<path d="M19.0243 33.4085L19.0082 33.3601L17.2978 28.8986C17.2656 28.8098 17.201 28.7372 17.1203 28.6888C17.0397 28.6404 16.9509 28.6162 16.8541 28.6162C16.7573 28.6162 16.6685 28.6565 16.5959 28.713C16.5233 28.7695 16.4668 28.8502 16.4426 28.947L15.2889 32.4807H10.6177L9.46399 28.947C9.43979 28.8582 9.38332 28.7776 9.31071 28.713C9.2381 28.6565 9.14935 28.6162 9.05254 28.6162C8.95572 28.6162 8.86698 28.6323 8.7863 28.6888C8.70562 28.7372 8.64108 28.8098 8.60881 28.8986L6.89844 33.3601L6.8823 33.4085C6.37403 34.7316 6.80969 36.2241 7.93918 37.0793H7.95532C7.95532 37.0874 10.5612 39.0398 10.5612 39.0398L11.8521 40.016L12.6346 40.605C12.8202 40.7502 13.0864 40.7502 13.272 40.605L14.0546 40.016L15.3454 39.0398L17.9674 37.0793C19.0969 36.2241 19.5245 34.7316 19.0163 33.4085H19.0243Z" fill="#E24329"/>
<path d="M19.0243 33.4088L19.0081 33.3604C18.161 33.5378 17.3784 33.8928 16.7088 34.393C16.7007 34.393 14.6757 35.934 12.9492 37.2329C14.2239 38.201 15.3373 39.0401 15.3373 39.0401L17.9593 37.0796C19.0888 36.2244 19.5164 34.7319 19.0081 33.4088H19.0243Z" fill="#FC6D26"/>
<path d="M10.5547 39.0394L11.8455 40.0156L12.6281 40.6045C12.8137 40.7497 13.0799 40.7497 13.2655 40.6045L14.048 40.0156L15.3389 39.0394C15.3389 39.0394 14.2255 38.2003 12.9508 37.2322C11.668 38.2003 10.5547 39.0394 10.5547 39.0394Z" fill="#FCA326"/>
<path d="M9.18995 34.393C8.52032 33.8928 7.73774 33.5298 6.89062 33.3604L6.87449 33.4088C6.36622 34.7319 6.80188 36.2244 7.93137 37.0796H7.9475C7.9475 37.0877 10.5534 39.0401 10.5534 39.0401C10.5534 39.0401 11.6668 38.201 12.9495 37.2329C11.2311 35.934 9.20608 34.4011 9.18995 34.393Z" fill="#FC6D26"/>
<path d="M29.2972 33.0915H31.1366C30.83 31.1391 29.1358 29.7756 26.9333 29.7756C24.7308 29.7756 22.375 31.6877 22.375 34.8987C22.375 38.1097 24.2387 40.0056 26.9898 40.0056C29.7409 40.0056 31.2173 38.4243 31.2173 35.8507V34.6567H27.1753V36.0685H29.4666C29.4343 37.4884 28.4904 38.384 26.9898 38.384C25.4892 38.384 24.1822 37.1335 24.1822 34.8825C24.1822 32.6316 25.3439 31.3973 26.9494 31.3973C28.5549 31.3973 28.9664 32.0427 29.2891 33.0915H29.2972Z" fill="#171321"/>
<path d="M32.4343 39.8688H34.1931V32.4061H32.4343V39.8688ZM33.3137 31.2202C33.8704 31.2202 34.3302 30.7926 34.3302 30.2682C34.3302 29.7438 33.8704 29.3081 33.3137 29.3081C32.757 29.3081 32.2891 29.7357 32.2891 30.2682C32.2891 30.8006 32.7489 31.2202 33.3137 31.2202Z" fill="#171321"/>
<path d="M39.462 32.406H37.9856V30.615H36.2268V32.406H35.1699V33.7695H36.2268V37.9244C36.2268 39.3282 37.2353 40.022 38.5584 39.9817C39.0586 39.9656 39.4055 39.8687 39.5911 39.8042L39.2926 38.4246C39.1957 38.4488 38.9941 38.4892 38.7762 38.4892C38.3325 38.4892 37.9775 38.3359 37.9775 37.6259V33.7695H39.4539V32.406H39.462Z" fill="#171321"/>
<path d="M40.8262 39.8687H47.0142V38.3601H42.6334V29.9131H40.8262V39.8687Z" fill="#171321"/>
<path d="M50.3853 40.0221C51.5551 40.0221 52.257 39.4735 52.5797 38.8442H52.6362V39.8688H54.3304V34.8749C54.3304 32.8983 52.7249 32.3093 51.2969 32.3093C49.8689 32.3093 48.5216 33.0112 48.1344 34.3666L49.7802 34.6006C49.9577 34.0923 50.4498 33.6566 51.3131 33.6566C52.1763 33.6566 52.5797 34.0762 52.5797 34.8103V34.8426C52.5797 35.3509 52.0472 35.3751 50.7322 35.5122C49.28 35.6655 47.9004 36.1012 47.9004 37.7793C47.9004 39.4574 48.9734 40.0221 50.4014 40.0221H50.3853ZM50.9581 38.7232C50.2239 38.7232 49.6995 38.3844 49.6995 37.739C49.6995 37.0935 50.2885 36.7789 51.0791 36.6659C51.539 36.6014 52.4668 36.4884 52.6927 36.3029V37.1823C52.6927 38.0133 52.023 38.7152 50.9581 38.7152V38.7232Z" fill="#171321"/>
<path d="M55.6214 39.8688H57.3479V38.6909H57.4527C57.727 39.2314 58.3079 39.9978 59.5907 39.9978C60.8735 39.9978 62.6645 38.6021 62.6645 36.1414C62.6645 33.6808 61.3091 32.3012 59.5826 32.3012C57.8561 32.3012 57.719 33.0918 57.4447 33.6323H57.3721V29.905H55.6133V39.8607H55.6214V39.8688ZM57.3479 36.1334C57.3479 34.6812 57.9691 33.7453 59.1066 33.7453C60.2442 33.7453 60.8816 34.7457 60.8816 36.1334C60.8816 37.521 60.2684 38.5537 59.1066 38.5537C57.9449 38.5537 57.3479 37.5775 57.3479 36.1334Z" fill="#171321"/>
</svg>
