<svg xmlns="http://www.w3.org/2000/svg" width="148" height="32" fill="none"><clipPath id="a"><path d="M.275 0h147.073v32H.275z"/></clipPath><g fill="#fff" clip-path="url(#a)"><path d="m32.74 12.794-.044-.119L28.204.955a1.187 1.187 0 0 0-2.244.12l-3.033 9.286h-12.28L7.613 1.077A1.189 1.189 0 0 0 5.369.956L.88 12.677l-.047.117a8.34 8.34 0 0 0 2.768 9.64l.017.013.038.03 6.834 5.121 3.391 2.563 2.06 1.557a1.39 1.39 0 0 0 1.678 0l2.06-1.557 3.39-2.563 6.884-5.151.02-.015a8.34 8.34 0 0 0 2.769-9.638M59.638 12.188h4.827C63.66 7.055 59.216 3.48 53.433 3.48c-6.843 0-11.978 5.03-11.978 13.457 0 8.275 4.904 13.408 12.118 13.408 6.474 0 11.109-4.164 11.109-10.905v-3.141H54.07V20h6.027c-.077 3.73-2.567 6.09-6.5 6.09-4.378 0-7.379-3.28-7.379-9.205 0-5.887 3.052-9.155 7.277-9.155 3.154 0 5.311 1.685 6.142 4.457M67.873 29.987h4.622V10.384h-4.622zm2.331-22.718c1.469 0 2.668-1.125 2.668-2.503 0-1.377-1.2-2.515-2.668-2.515s-2.68 1.123-2.68 2.515 1.19 2.503 2.672 2.503zM86.335 10.384h-3.87V5.675h-4.622v4.71H75.06v3.574h2.783v10.906c-.025 3.69 2.657 5.51 6.129 5.402a9.4 9.4 0 0 0 2.72-.46l-.779-3.616a5.6 5.6 0 0 1-1.352.18c-1.164 0-2.096-.409-2.096-2.274V13.95h3.87zM89.912 29.987h16.254v-3.972H94.651V3.835h-4.739zM115.021 30.383c3.077 0 4.915-1.443 5.758-3.09h.153v2.694h4.45V16.86c0-5.184-4.226-6.742-7.968-6.742-4.124 0-7.29 1.838-8.312 5.413l4.317.614c.458-1.341 1.761-2.49 4.027-2.49 2.146 0 3.32 1.098 3.32 3.026v.077c0 1.326-1.392 1.392-4.853 1.76-3.804.41-7.442 1.546-7.442 5.964-.013 3.857 2.808 5.9 6.55 5.9m1.52-3.39c-1.929 0-3.308-.882-3.308-2.58 0-1.776 1.545-2.515 3.602-2.81 1.215-.165 3.641-.472 4.239-.956v2.31c.012 2.177-1.751 4.029-4.533 4.029zM128.785 29.987h4.546v-3.09h.267c.729 1.43 2.248 3.435 5.62 3.435 4.622 0 8.083-3.666 8.083-10.125 0-6.538-3.563-10.088-8.096-10.088-3.46 0-4.904 2.081-5.607 3.5h-.195V3.835h-4.618zm4.533-9.806c0-3.814 1.634-6.27 4.609-6.27 3.077 0 4.663 2.617 4.663 6.27 0 3.654-1.609 6.358-4.663 6.358-2.95 0-4.609-2.554-4.609-6.358"/></g></svg>