<svg width="138" height="31" viewBox="0 0 138 31" fill="none" xmlns="http://www.w3.org/2000/svg">
<path d="M30.7813 12.6602L30.7398 12.5497L26.5567 1.63812C26.4721 1.42386 26.3214 1.24211 26.1266 1.11917C25.9812 1.02611 25.8161 0.968405 25.6444 0.950671C25.4727 0.932938 25.2992 0.955675 25.1379 1.01706C24.9766 1.07844 24.8319 1.17676 24.7154 1.30415C24.5989 1.43153 24.5139 1.58443 24.4672 1.75058L21.6436 10.395H10.2091L7.38555 1.75058C7.33845 1.58467 7.25323 1.43206 7.1367 1.30493C7.02016 1.17779 6.87553 1.07964 6.71434 1.01831C6.55315 0.956973 6.37986 0.934152 6.20828 0.951665C6.03671 0.969178 5.8716 1.02654 5.72612 1.11917C5.53129 1.24211 5.38064 1.42386 5.29597 1.63812L1.11485 12.5516L1.07144 12.6602C0.469484 14.2334 0.395325 15.9597 0.860145 17.5787C1.32496 19.1977 2.30357 20.6218 3.64839 21.6361L3.66417 21.6479L3.69969 21.6755L10.0631 26.4446L13.2202 28.8302L15.1381 30.2805C15.3631 30.4505 15.6374 30.5424 15.9195 30.5424C16.2015 30.5424 16.4758 30.4505 16.7008 30.2805L18.6187 28.8302L21.7758 26.4446L28.1846 21.6479L28.2024 21.6341C29.5471 20.6202 30.5258 19.1966 30.991 17.578C31.4561 15.9593 31.3825 14.2333 30.7813 12.6602Z" fill="white"/>
<path d="M55.8281 12.096H60.323C59.5732 7.317 55.4355 3.98828 50.0507 3.98828C43.6794 3.98828 38.8984 8.67256 38.8984 16.5178C38.8984 24.223 43.4643 29.002 50.1809 29.002C56.2089 29.002 60.5242 25.1247 60.5242 18.8481V15.9239H50.6446V19.371H56.2563C56.1853 22.8438 53.8668 25.0419 50.2046 25.0419C46.1281 25.0419 43.3341 21.9874 43.3341 16.4705C43.3341 10.989 46.1754 7.94643 50.1099 7.94643C53.046 7.94643 55.0547 9.51509 55.8281 12.096Z" fill="white"/>
<path d="M63.4935 28.6679H67.797V10.4162H63.4935V28.6679ZM65.664 7.5157C67.0314 7.5157 68.1482 6.46795 68.1482 5.1854C68.1482 3.90285 67.0314 2.84326 65.664 2.84326C64.2966 2.84326 63.168 3.88904 63.168 5.1854C63.168 6.48176 64.2769 7.5157 65.6561 7.5157H65.664Z" fill="white"/>
<path d="M80.6808 10.4171H77.0778V6.03271H72.7744V10.4171H70.1836V13.7458H72.7744V23.8997C72.7507 27.3349 75.2487 29.0299 78.4807 28.9292C79.3417 28.9121 80.1955 28.7678 81.0143 28.5011L80.2881 25.1348C79.8768 25.2416 79.4541 25.2979 79.0293 25.3026C77.946 25.3026 77.0778 24.9218 77.0778 23.1854V13.7359H80.6808V10.4171Z" fill="white"/>
<path d="M84.0156 28.6686H99.1497V24.9709H88.4276V4.31982H84.0156V28.6686Z" fill="white"/>
<path d="M107.392 29.0377C110.257 29.0377 111.968 27.694 112.753 26.1609H112.895V28.6688H117.039V16.447C117.039 11.6207 113.104 10.1704 109.62 10.1704C105.78 10.1704 102.832 11.8811 101.881 15.2099L105.9 15.7821C106.327 14.5331 107.54 13.4636 109.649 13.4636C111.648 13.4636 112.741 14.4857 112.741 16.2813V16.3523C112.741 17.5875 111.445 17.6487 108.223 17.992C104.681 18.3728 101.293 19.4304 101.293 23.5445C101.281 27.1356 103.907 29.0377 107.392 29.0377ZM108.807 25.8807C107.011 25.8807 105.727 25.0599 105.727 23.4794C105.727 21.8259 107.165 21.1372 109.081 20.863C110.212 20.709 112.471 20.4229 113.027 19.9731V22.1238C113.039 24.1502 111.398 25.8748 108.807 25.8748V25.8807Z" fill="white"/>
<path d="M120.207 28.6686H124.439V25.7917H124.688C125.367 27.1236 126.782 28.9902 129.921 28.9902C134.224 28.9902 137.447 25.5766 137.447 19.5625C137.447 13.4753 134.13 10.1702 129.909 10.1702C126.687 10.1702 125.343 12.1079 124.688 13.4279H124.507V4.31982H120.207V28.6686ZM124.428 19.5388C124.428 15.9871 125.949 13.7002 128.719 13.7002C131.584 13.7002 133.06 16.1371 133.06 19.5388C133.06 22.9405 131.563 25.4583 128.719 25.4583C125.973 25.4583 124.428 23.0806 124.428 19.5388Z" fill="white"/>
</svg>
