<?xml version="1.0" encoding="UTF-8"?>
<svg version="1.1" xmlns="http://www.w3.org/2000/svg" width="136" height="136">
<path d="M0 0 C44.88 0 89.76 0 136 0 C136 44.88 136 89.76 136 136 C91.12 136 46.24 136 0 136 C0 91.12 0 46.24 0 0 Z " fill="#FBFBFB" transform="translate(0,0)"/>
<path d="M0 0 C1.95605469 0.20556641 1.95605469 0.20556641 4 1 C5.00488281 2.62646484 5.00488281 2.62646484 5.703125 4.7109375 C5.9609375 5.46117187 6.21875 6.21140625 6.484375 6.984375 C6.73703125 7.77328125 6.9896875 8.5621875 7.25 9.375 C7.518125 10.15617187 7.78625 10.93734375 8.0625 11.7421875 C9.15562725 14.99926054 10 17.53649703 10 21 C18.58 21 27.16 21 36 21 C36.66 18.03 37.32 15.06 38 12 C38.57628524 9.98542304 39.19383376 7.98157451 39.875 6 C40.18179688 5.071875 40.48859375 4.14375 40.8046875 3.1875 C42 1 42 1 44.07470703 0.36328125 C45.02772705 0.18345703 45.02772705 0.18345703 46 0 C59.35358807 26.11630941 59.35358807 26.11630941 57 38 C52.91025081 47.24638948 42.08615012 53.6056883 34.25 59.5625 C33.42169678 60.20703125 32.59339355 60.8515625 31.73999023 61.515625 C30.94407471 62.10988281 30.14815918 62.70414063 29.328125 63.31640625 C28.6155957 63.85724854 27.90306641 64.39809082 27.16894531 64.95532227 C24.29450988 66.33980101 22.99101583 66.01850378 20 65 C17.81518555 63.6965332 17.81518555 63.6965332 15.63671875 62.05078125 C14.83169922 61.44943359 14.02667969 60.84808594 13.19726562 60.22851562 C11.95493164 59.28008789 11.95493164 59.28008789 10.6875 58.3125 C9.87087891 57.69955078 9.05425781 57.08660156 8.21289062 56.45507812 C6.58900686 55.23490092 4.96834797 54.01041909 3.35107422 52.78149414 C0.46995046 50.59836226 -2.4359647 48.44947247 -5.34643555 46.30566406 C-9.01257077 43.41086248 -10.70065967 40.86693839 -11.4453125 36.22265625 C-11.8869669 28.30168064 -9.96257862 22.49044376 -6.59765625 15.38671875 C-4.69204035 11.34718579 -3.22051618 7.2280742 -1.76171875 3.01171875 C-1 1 -1 1 0 0 Z " fill="#E3452C" transform="translate(45,35)"/>
<path d="M0 0 C0.33 0.66 0.66 1.32 1 2 C2.8064685 2.65524356 2.8064685 2.65524356 4.98046875 3.1875 C10.6883333 4.98653393 14.73689538 8.23775054 19.3125 12 C20.09689453 12.6290625 20.88128906 13.258125 21.68945312 13.90625 C23.14319404 15.07220703 24.59274335 16.24342668 26.03637695 17.421875 C27.99238528 18.9938802 29.98429623 20.50559408 32 22 C34.78400654 20.69035246 37.17272924 19.23019014 39.609375 17.35546875 C40.28226563 16.84306641 40.95515625 16.33066406 41.6484375 15.80273438 C43.0339945 14.73781277 44.41941437 13.67271272 45.8046875 12.60742188 C58.42830787 2.99571093 58.42830787 2.99571093 65 2 C65.33 1.34 65.66 0.68 66 0 C68.09634108 4.19268216 67.40853542 9.43401593 67 14 C62.91025081 23.24638948 52.08615012 29.6056883 44.25 35.5625 C43.42169678 36.20703125 42.59339355 36.8515625 41.73999023 37.515625 C40.94407471 38.10988281 40.14815918 38.70414063 39.328125 39.31640625 C38.6155957 39.85724854 37.90306641 40.39809082 37.16894531 40.95532227 C34.29450988 42.33980101 32.99101583 42.01850378 30 41 C27.81518555 39.6965332 27.81518555 39.6965332 25.63671875 38.05078125 C24.83169922 37.44943359 24.02667969 36.84808594 23.19726562 36.22851562 C21.95493164 35.28008789 21.95493164 35.28008789 20.6875 34.3125 C19.87087891 33.69955078 19.05425781 33.08660156 18.21289062 32.45507812 C16.58900686 31.23490092 14.96834797 30.01041909 13.35107422 28.78149414 C10.46995046 26.59836226 7.5640353 24.44947247 4.65356445 22.30566406 C1.80762972 20.05849752 0.4634003 18.35362569 -1 15 C-1.93730408 3.87460815 -1.93730408 3.87460815 0 0 Z " fill="#FB6E28" transform="translate(35,59)"/>
<path d="M0 0 C2.65499376 2.65499376 2.32897553 4.04963297 2.375 7.75 C2.22498864 14.38208139 0.72118421 17.36659592 -4.05859375 21.9921875 C-6.31741724 24.07198114 -8.62660402 26.05249215 -11 28 C-11.57492188 28.47308594 -12.14984375 28.94617188 -12.7421875 29.43359375 C-15.05014698 31.16157377 -16.45058456 32.04344636 -19.37109375 31.8125 C-22.45910546 30.85810708 -24.32126069 29.48254719 -26.8125 27.4375 C-27.99779297 26.47650391 -27.99779297 26.47650391 -29.20703125 25.49609375 C-29.79871094 25.00238281 -30.39039062 24.50867188 -31 24 C-29.65346453 20.88023362 -28.31107279 19.1739007 -25.5859375 17.16015625 C-24.90660156 16.65419922 -24.22726563 16.14824219 -23.52734375 15.62695312 C-22.81707031 15.11068359 -22.10679688 14.59441406 -21.375 14.0625 C-20.68792969 13.55009766 -20.00085938 13.03769531 -19.29296875 12.50976562 C-5.79300464 2.54309418 -5.79300464 2.54309418 0 2 C0 1.34 0 0.68 0 0 Z " fill="#FB6E27" transform="translate(100,59)"/>
<path d="M0 0 C2.9707191 1.38234804 5.46949026 3.00153392 8.0625 5 C10.34345464 6.75121278 12.60386777 8.40257851 15 10 C13.11741837 11.54029406 11.22186184 13.05605156 9.3125 14.5625 C8.78205078 15.00013672 8.25160156 15.43777344 7.70507812 15.88867188 C5.23289389 17.81485223 3.62486768 19 0.4375 19 C-2.47038404 17.80702193 -4.77826954 16.29593567 -7.3125 14.4375 C-8.19550781 13.79683594 -9.07851563 13.15617187 -9.98828125 12.49609375 C-10.65214844 12.00238281 -11.31601562 11.50867188 -12 11 C-8.19588166 7.08060535 -4.18423892 3.50897269 0 0 Z " fill="#FBA22A" transform="translate(67,82)"/>
</svg>
