<svg width="107" height="27" viewBox="0 0 107 27" fill="none" xmlns="http://www.w3.org/2000/svg">
<g clip-path="url(#clip0_3187_65799)">
<path d="M31.9149 24.7984H28.4375V2.64893H31.9149V12.1464H35.8751V2.64893H39.4171V24.8018H35.8751V15.3111H31.9149V24.8018V24.7984Z" fill="white"/>
<path d="M45.1454 19.7035C45.1454 20.5023 45.3086 21.0666 45.6349 21.3963C45.9612 21.7226 46.3997 21.8858 46.9538 21.8858C47.5079 21.8858 47.9396 21.7226 48.2625 21.3963C48.5888 21.0666 48.752 20.5023 48.752 19.7035V7.74495C48.752 6.94272 48.5888 6.37845 48.2625 6.05212C47.9362 5.72239 47.5011 5.55583 46.9538 5.55583C46.4065 5.55583 45.9612 5.72239 45.6349 6.05212C45.3086 6.37845 45.1454 6.94272 45.1454 7.74495V19.7069V19.7035ZM41.668 7.9625C41.668 6.1677 42.1201 4.7944 43.0277 3.83241C43.9353 2.87383 45.2406 2.39453 46.9504 2.39453C48.6602 2.39453 49.9689 2.87383 50.8731 3.83241C51.7807 4.791 52.2328 6.1677 52.2328 7.9625V19.4791C52.2328 21.2739 51.7807 22.6506 50.8731 23.616C49.9655 24.5746 48.6568 25.0539 46.9504 25.0539C45.244 25.0539 43.9319 24.5746 43.0277 23.616C42.1201 22.654 41.668 21.2739 41.668 19.4791V7.9625Z" fill="white"/>
<path d="M54.4805 2.64893H57.9579V21.6337H63.6856V24.7984H54.4805V2.64893Z" fill="white"/>
<path d="M68.3993 19.7035C68.3993 20.5023 68.5625 21.0666 68.8888 21.3963C69.2151 21.7226 69.6536 21.8858 70.2077 21.8858C70.7618 21.8858 71.1935 21.7226 71.5164 21.3963C71.8427 21.0666 72.0059 20.5023 72.0059 19.7035V7.74495C72.0059 6.94272 71.8427 6.37845 71.5164 6.05212C71.1901 5.72239 70.755 5.55583 70.2077 5.55583C69.6604 5.55583 69.2151 5.72239 68.8888 6.05212C68.5625 6.37845 68.3993 6.94272 68.3993 7.74495V19.7069V19.7035ZM64.9219 7.9625C64.9219 6.1677 65.374 4.7944 66.2816 3.83241C67.1892 2.87383 68.4945 2.39453 70.2043 2.39453C71.9141 2.39453 73.2228 2.87383 74.127 3.83241C75.0346 4.791 75.4867 6.1677 75.4867 7.9625V19.4791C75.4867 21.2739 75.0346 22.6506 74.127 23.616C73.2194 24.5746 71.9107 25.0539 70.2043 25.0539C68.4979 25.0539 67.1858 24.5746 66.2816 23.616C65.374 22.654 64.9219 21.2739 64.9219 19.4791V7.9625Z" fill="white"/>
<path d="M82.8604 2.64893C84.6077 2.64893 85.9062 3.11462 86.7628 4.04262C87.616 4.97401 88.0443 6.33371 88.0443 8.12171V11.0043C88.0443 12.7991 87.616 14.1622 86.7628 15.0902C85.9062 16.0148 84.6077 16.4771 82.8604 16.4771H81.2118V24.7984H77.7344V2.64893H82.8604ZM81.2118 5.81362V13.3124H82.8604C83.4077 13.3124 83.8258 13.1662 84.1216 12.8739C84.4173 12.5815 84.5669 12.0274 84.5669 11.2252V7.90416C84.5669 7.10194 84.4173 6.55466 84.1216 6.26232C83.8292 5.96319 83.4077 5.81702 82.8604 5.81702H81.2118V5.81362Z" fill="white"/>
<path d="M89.6602 2.64893H93.1376V24.8018H89.6602V2.64893Z" fill="white"/>
<path d="M98.7742 8.76077V24.8018H95.6367V2.64893H100.005L103.581 15.906V2.64893H106.684V24.8018H103.108L98.7742 8.76077Z" fill="white"/>
<path d="M19.6255 9.52262C20.217 9.50563 21.4951 8.66941 21.971 8.67961C22.0832 8.67961 22.1069 8.7272 22.1749 8.80198C21.3897 10.6206 19.9416 12.1298 18.2692 13.1666C18.3882 13.3638 18.6839 13.3162 18.4426 13.6357C18.3474 13.7649 17.0999 14.5127 16.9503 14.5127C16.2229 14.1932 15.4002 13.7955 14.7816 13.2924C13.4899 12.2352 13.3097 10.4608 11.6373 9.85915C11.4163 9.57361 15.645 7.97257 15.9441 7.8434C17.9497 6.95279 19.9314 5.89223 21.7262 4.62771C22.3891 4.16201 22.9738 3.59774 23.6638 3.16943L23.8542 3.29521C23.3919 5.96361 21.4747 7.73802 19.6255 9.52602V9.52262Z" fill="white"/>
<path d="M3.6523 24.0953C4.14179 23.0959 5.4471 22.9361 6.44308 22.8953C6.67763 22.2971 7.16372 21.4575 6.90198 20.8116C6.49747 19.8156 3.61831 19.8224 3.33277 17.8441C3.28518 17.5177 3.31578 16.124 3.77807 16.1274C4.53611 16.5626 5.16497 17.1948 5.9196 17.6367C6.27652 17.8441 7.53084 18.3268 7.69061 18.4967C7.85037 18.6667 7.87077 19.0508 7.99314 19.2955C8.58461 20.4683 8.95173 20.5193 8.72398 22.0795C8.65599 22.5384 8.38065 22.8002 8.27528 23.1571C7.97614 24.1735 8.49623 24.7649 6.91558 24.8329L6.74902 24.3468C6.18474 24.7751 5.55248 25.0165 4.83524 24.9383L5.09018 24.0919H3.6455L3.6523 24.0953Z" fill="white"/>
<path d="M19.6273 0.541381C19.7871 1.27222 19.6035 2.10503 19.4165 2.82907C19.3146 3.22339 19.0494 3.64829 19.0766 4.01541L19.6307 3.46473C19.6885 3.38655 19.7769 3.51232 19.7905 3.55991C19.8584 3.80466 19.5627 5.24254 19.4131 5.44989C19.216 5.72523 16.3912 7.01015 15.8643 7.24809C15.4462 7.43845 12.3121 8.87973 12.1523 8.75736L12.1897 7.91095C14.576 6.04476 16.7787 4.02221 18.6449 1.63254C18.8251 1.40139 19.1684 0.76913 19.335 0.626362C19.4403 0.534582 19.4845 0.517586 19.6307 0.537981L19.6273 0.541381Z" fill="white"/>
<path d="M1.26155 14.9344C0.938621 15.0125 0.829845 14.9004 0.642887 14.6828C0.024224 13.9622 0.153395 13.1871 0.727868 12.4937C1.65586 11.3685 1.64906 12.5039 2.03658 13.2925C1.56068 13.8262 1.34313 14.2001 1.26155 14.931V14.9344Z" fill="white"/>
<path d="M19.3552 16.2764C17.6862 15.7155 14.5623 14.349 13.5595 12.9043C12.6247 11.5548 12.5737 10.4841 10.5546 10.2257C10.1909 10.1781 9.74557 10.2631 9.42604 10.1645C9.17789 10.0864 8.51164 9.52208 8.11393 9.35212C7.00577 8.88642 5.24496 9.0054 4.45634 8.0842C4.29997 7.90064 4.08242 7.56412 4.2048 7.31937C4.96963 8.65867 6.34632 8.43772 7.63124 8.73006C8.38927 8.90342 10.4152 9.82461 11.0271 9.54248C11.3092 9.41331 11.6423 8.59409 11.5438 8.30515C11.4962 8.16918 11.0951 8.00262 11.0033 7.82586L10.7483 8.16238L10.5784 7.82586L10.1977 8.0808L10.0685 7.57091L9.73197 7.74088L9.68778 7.40095L9.26287 7.57091L9.04872 7.14941C8.92295 7.14941 8.81077 7.70009 8.66801 7.42815C8.43346 6.98964 8.50824 7.09842 8.19891 7.48593L8.06974 7.14941C7.84539 7.11202 7.82499 7.37036 7.68902 7.48593L7.55985 7.14941C7.37969 7.08822 7.26752 7.38735 7.17914 7.38735C6.96158 7.38735 6.39051 6.57493 6.4551 6.303C6.68624 6.34719 7.30151 6.22821 7.45787 6.31999C7.53606 6.36418 7.51906 6.64972 7.81479 6.55454L7.94397 6.12963C8.2431 6.03445 8.12753 6.41517 8.40966 6.38118C8.50824 6.14323 8.41306 5.68773 8.74959 5.70473L8.96374 6.04125L9.21868 5.44978L9.55861 5.95627C9.83055 5.98687 9.72517 5.54496 9.81355 5.53137L10.0991 5.54496L10.3234 6.04125L10.5818 5.61295L10.8639 5.63334C11.0645 6.42537 11.2242 5.56536 11.3432 5.53477C11.5132 5.49058 11.5166 5.74212 11.5676 5.77271C11.9007 5.96647 11.8225 5.50417 11.9007 5.34781C11.9449 5.26283 12.0537 5.25603 12.0876 5.17445C12.3494 4.53879 12.4514 3.72297 12.1896 3.07711C11.8565 2.75758 10.1161 2.99213 9.53821 2.6726C8.90935 2.32588 9.00453 1.3027 7.96436 0.935586C6.54348 0.432498 3.95325 0.799616 2.8077 1.85678C0.472423 4.0323 1.10128 10.1475 2.25363 12.8228C3.67451 16.1268 6.67945 17.9896 10.1433 18.6661C10.2996 18.6219 10.2894 18.4281 10.2826 18.2955C10.2521 17.3709 9.94952 16.8543 10.1467 15.7869C10.1705 15.6645 10.2215 15.3144 10.3642 15.2838V17.6123C10.3642 19.6076 13.1652 20.8212 13.6751 22.701C13.7635 23.0341 13.8485 24.3496 13.7499 24.6317C13.7227 24.7133 13.2162 25.0634 13.0836 25.2402C12.7743 25.6481 12.6519 26.0458 12.8389 26.5421C13.4847 26.6373 13.9912 26.3246 14.5283 26.0424C14.8172 26.9942 16.1531 27.3953 16.1429 26.0424L17.2069 26.5421C18.1927 25.4917 16.5577 25.0498 16.2925 24.4108C16.0988 23.9485 16.1735 23.0579 15.956 22.4596C15.6399 21.603 14.9056 20.9673 14.5929 19.9204C14.1476 18.4247 14.824 18.1324 14.6983 16.8509C14.6575 16.4463 14.4739 16.086 14.3583 15.7053C14.7527 16.0452 15.0416 16.8509 15.045 17.3573C15.045 17.6497 14.6983 18.5573 15.0076 18.6593C16.731 18.7102 18.4612 18.4859 20.1813 18.5845C21.6293 18.6661 23.4581 18.9312 23.2814 20.7906C23.4105 20.9368 23.7709 20.2569 23.8082 20.1719C25.0626 17.2962 21.1432 16.878 19.3552 16.2764ZM6.91739 2.83237C7.92697 2.96494 7.24372 4.58638 6.39731 3.90653C5.9656 3.5598 6.28513 2.75078 6.91739 2.83237ZM6.11517 13.4618C5.1056 13.9173 4.44614 12.1225 5.56449 11.3033C5.90102 11.0585 6.56727 10.8546 6.88 11.2183C6.25454 11.1333 5.30955 11.7486 5.36734 12.4216C5.39793 12.8024 5.56449 13.2171 6.01659 13.0675C6.13557 12.493 6.53328 12.3571 7.09076 12.4046L7.13155 12.5712C6.60806 12.5678 6.34632 13.353 6.11177 13.4618H6.11517Z" fill="white"/>
</g>
<defs>
<clipPath id="clip0_3187_65799">
<rect width="106.451" height="26.3782" fill="white" transform="translate(0.234375 0.53418)"/>
</clipPath>
</defs>
</svg>
