<svg width="70" height="70" viewBox="0 0 70 70" fill="none" xmlns="http://www.w3.org/2000/svg">
<rect width="69.33" height="69.33" rx="2" fill="white"/>
<path d="M23.519 39.8818H21.7285V28.7249H23.519V33.5068H25.5537V28.7249H27.3767V39.8818H25.5537V35.1005H23.519V39.8818Z" fill="black"/>
<path d="M30.3237 37.3157C30.3237 37.7198 30.4077 38.0039 30.5757 38.1691C30.7437 38.3337 30.969 38.4157 31.2514 38.4157C31.5331 38.4157 31.7583 38.3337 31.9263 38.1691C32.0951 38.0039 32.1791 37.7198 32.1791 37.3157V31.2914C32.1791 30.8872 32.0951 30.6032 31.9263 30.4386C31.7583 30.2733 31.5331 30.1914 31.2514 30.1914C30.969 30.1914 30.7437 30.2733 30.5757 30.4386C30.4077 30.6032 30.3237 30.8872 30.3237 31.2914V37.3157ZM28.5332 31.4025C28.5332 30.4997 28.7662 29.806 29.2329 29.3226C29.6995 28.8393 30.3724 28.5969 31.2514 28.5969C32.1304 28.5969 32.8025 28.8393 33.2692 29.3226C33.7359 29.806 33.9695 30.4997 33.9695 31.4025V37.2039C33.9695 38.1073 33.7359 38.8011 33.2692 39.2844C32.8025 39.7678 32.1304 40.0094 31.2514 40.0094C30.3724 40.0094 29.6995 39.7678 29.2329 39.2844C28.7662 38.8011 28.5332 38.1073 28.5332 37.2039V31.4025Z" fill="black"/>
<path d="M35.125 28.7249H36.9155V38.288H39.861V39.8818H35.125V28.7249Z" fill="black"/>
<path d="M42.2866 37.3157C42.2866 37.7198 42.3706 38.0039 42.5386 38.1691C42.7066 38.3337 42.9319 38.4157 43.2136 38.4157C43.496 38.4157 43.7212 38.3337 43.8892 38.1691C44.058 38.0039 44.142 37.7198 44.142 37.3157V31.2914C44.142 30.8872 44.058 30.6032 43.8892 30.4386C43.7212 30.2733 43.496 30.1914 43.2136 30.1914C42.9319 30.1914 42.7066 30.2733 42.5386 30.4386C42.3706 30.6032 42.2866 30.8872 42.2866 31.2914V37.3157ZM40.4961 31.4025C40.4961 30.4997 40.7291 29.806 41.1958 29.3226C41.6624 28.8393 42.3346 28.5969 43.2136 28.5969C44.0926 28.5969 44.7654 28.8393 45.2321 29.3226C45.6987 29.806 45.9317 30.4997 45.9317 31.4025V37.2039C45.9317 38.1073 45.6987 38.8011 45.2321 39.2844C44.7654 39.7678 44.0926 40.0094 43.2136 40.0094C42.3346 40.0094 41.6624 39.7678 41.1958 39.2844C40.7291 38.8011 40.4961 38.1073 40.4961 37.2039V31.4025Z" fill="black"/>
<path d="M49.7249 28.7249C50.6257 28.7249 51.2958 28.9589 51.7349 29.4262C52.1748 29.8936 52.3943 30.579 52.3943 31.4825V32.9325C52.3943 33.836 52.1748 34.5214 51.7349 34.9887C51.2958 35.4568 50.6257 35.6901 49.7249 35.6901H48.8791V39.8818H47.0879V28.7249H49.7249ZM48.8791 30.3186V34.0964H49.7249C50.0073 34.0964 50.224 34.0221 50.3758 33.8735C50.5283 33.7249 50.6039 33.4485 50.6039 33.0443V31.3707C50.6039 30.9672 50.5283 30.6908 50.3758 30.5422C50.224 30.3929 50.0073 30.3186 49.7249 30.3186H48.8791Z" fill="black"/>
<path d="M53.2246 28.7249H55.0151V39.8818H53.2246V28.7249Z" fill="black"/>
<path d="M57.9126 31.8012V39.8818H56.3008V28.7249H58.5473L60.3865 35.4033V28.7249H61.9814V39.8818H60.1422L57.9126 31.8012Z" fill="black"/>
<mask id="mask0_5637_80325" style="mask-type:luminance" maskUnits="userSpaceOnUse" x="7" y="26" width="13" height="15">
<path d="M7.07422 26.9216H19.9273V40.9064H7.07422V26.9216Z" fill="white"/>
</mask>
<g mask="url(#mask0_5637_80325)">
<path d="M17.1619 26.9513C17.0913 26.9783 17.0723 27.0026 16.6628 27.5457C16.0831 28.3158 15.1491 29.252 14.1324 30.0915C13.8175 30.3478 13.5005 30.6165 13.42 30.686C13.2845 30.8103 13.2075 30.8464 13.2075 30.7888C13.2075 30.7318 13.0317 30.6561 12.8778 30.6471C12.7882 30.6408 12.6653 30.611 12.6004 30.5776C12.3102 30.4325 11.9805 30.3026 11.8852 30.3026C11.811 30.2999 11.8146 30.2964 11.9127 30.2638C11.9748 30.2395 12.1196 30.2304 12.2523 30.236C12.6837 30.2547 13.0134 30.236 13.1059 30.1881C13.1426 30.1665 13.2195 30.152 13.2753 30.152C13.4264 30.152 13.4942 30.0915 13.6481 29.8138C13.8147 29.5089 13.855 29.3367 13.855 28.92C13.855 28.5332 13.8211 28.3978 13.7003 28.3006C13.5803 28.2013 13.408 28.1651 12.8157 28.1193C12.5418 28.0957 12.2982 28.0624 12.2735 28.0443C12.2488 28.0228 12.1718 27.8992 12.0977 27.7638C11.8823 27.3742 11.6974 27.2228 11.2935 27.1145C11.1333 27.0686 10.9822 27.0596 10.4795 27.0596C9.9189 27.0596 9.83841 27.0686 9.5673 27.1381C8.4765 27.4256 7.88769 28.1561 7.65611 29.5026C7.62575 29.6658 7.61304 30.0068 7.61657 30.5596C7.61657 31.3686 7.62575 31.4804 7.76413 32.3561C7.78602 32.4978 7.79167 32.6401 7.77966 32.6763C7.76696 32.7089 7.67447 32.8207 7.5728 32.9207C7.35111 33.1381 7.15978 33.4186 7.10471 33.6061C7.01858 33.9172 7.10471 34.252 7.35394 34.5603C7.50855 34.7506 7.62858 34.8138 7.80438 34.7929C8.02324 34.7686 8.18351 34.5756 8.18351 34.3395C8.18351 34.2096 8.26964 34.1283 8.37413 34.1526C8.43909 34.1679 8.55628 34.3068 8.88317 34.7651C8.91071 34.8075 8.90435 34.8499 8.84293 34.9922C8.65795 35.4145 8.63042 35.9672 8.7688 36.3263C8.82457 36.4651 8.89235 36.5589 9.0738 36.7374C9.29619 36.9547 9.33926 36.9818 9.91537 37.2596C10.4428 37.5103 10.5289 37.5617 10.5444 37.6311C10.572 37.7304 10.5197 37.9846 10.4364 38.1686C10.3778 38.295 10.3686 38.304 10.255 38.304C10.0728 38.304 9.56095 38.4401 9.3795 38.5367C8.96013 38.7568 8.73844 39.177 8.94177 39.3638C9.00672 39.4242 9.05897 39.4367 9.24395 39.4457L9.47199 39.4575L9.48752 39.5936C9.4967 39.6749 9.53059 39.7568 9.57366 39.8047C9.64426 39.8776 9.65979 39.8804 9.89419 39.8651C10.0297 39.8561 10.2331 39.82 10.3475 39.7839C10.5042 39.7388 10.572 39.7297 10.615 39.7533C10.6983 39.7957 11.0069 39.7929 11.1947 39.7443C11.5555 39.6513 11.7002 39.4638 11.7221 39.0624C11.7341 38.8506 11.7496 38.7846 11.8237 38.6693C11.9593 38.452 12.0052 38.2256 12.0052 37.7547C12.0052 37.2804 11.9748 37.1658 11.768 36.8672C11.6204 36.6526 11.5336 36.4929 11.5555 36.4714C11.5618 36.4624 11.6352 36.4776 11.7185 36.5047C12.0179 36.5985 12.3907 36.677 12.4768 36.6645C12.5573 36.6554 12.5785 36.6735 12.7084 36.8672C12.7917 36.9936 13.0346 37.2624 13.3 37.5221C13.9347 38.1415 14.1014 38.4492 14.1014 39.0047V39.2707L13.9227 39.4457C13.6763 39.6874 13.5775 39.8867 13.5775 40.152C13.5775 40.4179 13.6481 40.5929 13.7745 40.6443C13.8952 40.6929 14.2772 40.6624 14.4805 40.5839L14.6224 40.5297L14.7332 40.6263C14.8752 40.7471 15.1865 40.9013 15.291 40.9013C15.3863 40.9013 15.5529 40.7922 15.692 40.6353L15.7873 40.5297L15.9539 40.6082C16.1573 40.7047 16.2618 40.6895 16.3726 40.5506C16.5428 40.3304 16.5858 40.0221 16.4715 39.7929C16.4347 39.7145 16.302 39.5665 16.1509 39.4304L15.8953 39.2013L15.8735 38.9867C15.8149 38.4249 15.7075 38.1138 15.4421 37.7457C15.368 37.6464 15.2635 37.4679 15.2049 37.3533C15.094 37.1388 14.9486 36.7401 14.9705 36.7193C14.998 36.6888 16.2095 36.6436 16.9064 36.6436C17.9668 36.6436 18.4074 36.695 18.6968 36.8457C18.9249 36.9665 19.0301 37.1596 19.0329 37.4679C19.0329 37.6068 19.1007 37.7151 19.215 37.7547C19.4148 37.8242 19.5631 37.7096 19.7573 37.3318C20.0467 36.7645 19.9606 36.2207 19.5109 35.7797C19.2207 35.4929 19.0943 35.4415 17.7536 35.0554C17.1344 34.877 16.2279 34.5422 16.2279 34.4908C16.2279 34.4846 16.3543 34.4061 16.5117 34.3158C16.888 34.0985 17.02 33.9742 17.0483 33.8117C17.0666 33.6964 17.0942 33.6631 17.3533 33.4582C17.7416 33.1499 18.2379 32.6367 18.4723 32.3047C18.6756 32.0117 18.9404 31.5075 18.9404 31.411C18.9404 31.227 18.7618 31.0575 18.5705 31.0575H18.4751L18.6665 30.8464C19.2426 30.2151 19.7206 29.3096 19.794 28.7082C19.8159 28.5151 19.794 28.4304 19.6923 28.3311C19.5695 28.2103 19.3873 28.2165 19.2207 28.3464C19.1501 28.4006 18.9468 28.5603 18.7681 28.6992C18.4229 28.9679 17.6427 29.4964 17.6216 29.4756C17.6152 29.4665 17.6307 29.3575 17.6583 29.2311C17.6858 29.1013 17.7077 28.911 17.7077 28.8054C17.7077 28.636 17.6985 28.6026 17.6152 28.5124L17.5227 28.4096L17.5721 28.2013C17.5997 28.0867 17.6272 27.8145 17.6364 27.5943C17.6519 27.2256 17.6491 27.1895 17.5905 27.0929C17.4917 26.9388 17.3286 26.8846 17.1619 26.9513ZM17.3625 27.1985C17.4147 27.2499 17.4083 27.6422 17.3533 27.9568C17.3067 28.2193 17.2177 28.5179 17.0942 28.8235L17.0264 28.9895L17.2022 28.8145C17.2975 28.7172 17.3935 28.645 17.4119 28.6513C17.4302 28.6575 17.4486 28.7172 17.4549 28.7839C17.4669 28.9318 17.3286 29.5568 17.2608 29.6568C17.205 29.7408 16.2131 30.2332 15.2112 30.6742C14.4402 31.0124 13.5987 31.3596 13.5528 31.3596C13.5372 31.3596 13.5252 31.2596 13.5252 31.1395V30.9214L13.8055 30.695C15.2818 29.5026 16.3543 28.4367 17.0137 27.5096C17.1747 27.2804 17.2763 27.1624 17.3067 27.1624C17.3159 27.1624 17.3406 27.1776 17.3625 27.1985ZM11.29 27.3679C11.5399 27.4464 11.6571 27.5367 11.7863 27.754C11.9805 28.0832 12.0977 28.2401 12.181 28.277C12.2276 28.2978 12.4987 28.3339 12.7882 28.3582C13.42 28.4096 13.4631 28.4158 13.5344 28.4971C13.5838 28.5485 13.593 28.6089 13.5895 28.911C13.5867 29.3096 13.5492 29.4756 13.4384 29.5783C13.3953 29.6172 13.3614 29.6776 13.3614 29.7138C13.3614 29.7499 13.3403 29.8047 13.3156 29.8381C13.269 29.895 13.2661 29.8922 13.1984 29.8103C13.1059 29.7047 13.0684 29.7082 13.0346 29.8256C12.9978 29.9526 12.9025 29.9582 12.8439 29.8408C12.7882 29.7263 12.7048 29.7353 12.6554 29.8651C12.6032 30.0096 12.5199 30.004 12.4584 29.8499C12.397 29.6957 12.3074 29.6867 12.2671 29.8256C12.2241 29.9645 12.1252 29.9617 12.0793 29.8193C12.0299 29.6749 11.9438 29.6596 11.9438 29.7957C11.9438 29.9707 11.8174 30.0339 11.7524 29.895C11.7065 29.7922 11.6232 29.8103 11.6105 29.9256C11.5893 30.1575 11.5244 30.2214 11.4446 30.0915C11.386 30.004 11.3338 30.0158 11.2843 30.1339C11.2596 30.1881 11.2257 30.2422 11.2102 30.2547C11.1763 30.2756 11.081 30.1971 11.081 30.1485C11.081 30.1339 10.9638 30.1214 10.8191 30.1214C10.6588 30.1214 10.5564 30.1339 10.5564 30.152C10.5564 30.2332 10.7202 30.4867 10.8247 30.5714L10.9419 30.6651L10.9913 30.602C11.0499 30.5235 11.1333 30.5415 11.1671 30.6381C11.1919 30.7013 11.1947 30.7013 11.2441 30.6228C11.3119 30.5235 11.3825 30.5235 11.4227 30.6228C11.4538 30.7103 11.4721 30.704 11.5244 30.5985C11.5802 30.4929 11.6691 30.511 11.7129 30.6346L11.7496 30.7408L11.7927 30.6499C11.8541 30.5235 11.9374 30.5172 11.9777 30.6318C12.0179 30.7374 12.0271 30.7436 12.1012 30.6804C12.1471 30.6381 12.1563 30.6381 12.2029 30.6804C12.2304 30.7075 12.2523 30.7589 12.2523 30.7915C12.2523 30.852 12.2551 30.852 12.3074 30.8068C12.3384 30.777 12.3815 30.7554 12.3998 30.7554C12.4464 30.7554 12.4987 30.8554 12.4987 30.9429V31.0124L12.5573 30.9401C12.6307 30.8464 12.7267 30.8645 12.7387 30.9763C12.7514 31.0818 12.779 31.079 12.8439 30.9672C12.899 30.8707 12.9767 30.8707 13.007 30.97C13.0197 30.9999 13.0437 31.0276 13.0684 31.0276C13.1398 31.0276 13.2075 31.1179 13.2075 31.2117C13.2075 31.3235 13.0536 31.6582 12.9668 31.7339C12.8468 31.8395 12.5446 31.7881 11.7771 31.5436C11.2102 31.3596 11.0316 31.3172 10.6588 31.2658C10.1533 31.1999 10.082 31.1874 9.95561 31.1242C9.79817 31.0485 9.57013 30.8672 9.47481 30.7436C9.38515 30.6228 9.38515 30.6228 9.38515 30.7075C9.38515 30.8249 9.45363 30.9401 9.60402 31.07C9.81088 31.254 10.0545 31.3478 10.615 31.4499C11.2872 31.577 11.5336 31.6707 11.9777 31.9846C12.1132 32.0783 12.1351 32.0839 12.397 32.0839C12.6773 32.0839 13.0564 32.1568 13.2294 32.2471C13.4264 32.3471 13.6975 32.5735 13.8119 32.7395C13.8797 32.836 14.0117 33.0506 14.1042 33.2165C14.3075 33.5846 14.5264 33.8082 14.9486 34.0832C15.8304 34.6568 16.6628 35.0068 18.0897 35.4089C18.8606 35.6263 19.0548 35.7075 19.2856 35.9158C19.7234 36.3082 19.7728 36.8186 19.4247 37.3624C19.3781 37.4318 19.3287 37.4888 19.3132 37.4888C19.3012 37.4888 19.2793 37.4013 19.2701 37.2929C19.2454 37.0332 19.1656 36.8672 18.9962 36.7158C18.7032 36.4533 18.2471 36.3686 17.1069 36.3596C16.684 36.3596 16.0373 36.3686 15.6701 36.3811C15.0566 36.4047 14.998 36.402 14.9486 36.354C14.909 36.3145 14.9027 36.2749 14.9147 36.1936C14.9832 35.8401 14.9923 35.7047 14.9641 35.5388C14.9337 35.3485 14.77 34.9978 14.6436 34.8471C14.573 34.7624 14.573 34.7686 14.6591 34.9436C14.7643 35.161 14.8413 35.4721 14.8413 35.6985C14.8413 35.786 14.8074 35.961 14.7643 36.0908C14.5885 36.6311 14.7304 37.1596 15.2571 37.9388C15.476 38.2561 15.5593 38.4978 15.596 38.911C15.6334 39.3006 15.6454 39.3249 15.9476 39.5964C16.1545 39.7804 16.2342 39.8742 16.2561 39.9589C16.29 40.077 16.2618 40.2429 16.1883 40.3395C16.1481 40.3936 16.1326 40.3908 15.8798 40.2582C15.7351 40.179 15.6115 40.1158 15.6023 40.1158C15.596 40.1158 15.5812 40.17 15.5713 40.2367C15.5529 40.3756 15.464 40.5082 15.3524 40.5686C15.2818 40.6054 15.2571 40.602 15.1152 40.5388C14.9549 40.4631 14.7488 40.27 14.7488 40.1915C14.7488 40.1249 14.7085 40.1339 14.5454 40.2339C14.3944 40.327 14.1755 40.3874 13.9813 40.3874C13.8458 40.3874 13.8239 40.3513 13.8239 40.1158C13.8239 39.929 13.975 39.6874 14.1875 39.5304L14.3478 39.4124V39.0471C14.3478 38.5999 14.3047 38.4158 14.1077 38.0506C13.9594 37.7728 13.9227 37.7304 13.4419 37.2776C13.1179 36.9756 12.899 36.7013 12.7762 36.4471C12.6187 36.1214 12.582 35.9249 12.5629 35.2846L12.5446 34.6957L12.4895 34.9138C12.4217 35.1971 12.4217 35.6138 12.4952 35.979C12.582 36.402 12.5509 36.4263 12.1012 36.3117C11.3888 36.1332 10.6616 35.8256 10.1067 35.4631C9.6845 35.1881 9.0738 34.6026 8.82457 34.2283C8.34377 33.5151 8.06631 32.7367 7.91804 31.6915C7.84109 31.145 7.83826 29.829 7.91522 29.427C8.1588 28.1589 8.72926 27.5311 9.82641 27.3256C10.1681 27.2624 11.0372 27.286 11.29 27.3679ZM19.5356 28.636C19.5264 28.8415 19.3845 29.2492 19.1868 29.6297C18.8882 30.2124 18.4815 30.695 17.6463 31.4624L17.2947 31.7853L17.4613 31.7221C17.5538 31.6853 17.8496 31.5742 18.1207 31.4742C18.5429 31.3172 18.617 31.2992 18.6538 31.3381C18.6905 31.3749 18.6785 31.4138 18.5648 31.6346C18.2132 32.302 17.7141 32.8513 16.9403 33.4249C16.7122 33.5908 16.6628 33.6422 16.7122 33.6485C16.7828 33.6575 16.8195 33.7207 16.7955 33.7839C16.7765 33.8325 16.4842 34.0256 16.1848 34.186L15.9723 34.2971L15.692 34.1526C14.8321 33.7026 14.5574 33.4672 14.2397 32.8992C14.16 32.7575 14.0399 32.5735 13.975 32.486C13.8486 32.3228 13.5097 32.036 13.3403 31.9513C13.2845 31.9242 13.2386 31.8908 13.2386 31.879C13.2386 31.8547 13.5344 31.6672 13.6912 31.5888C13.7469 31.5617 14.006 31.4589 14.268 31.3624C16.2469 30.62 18.0035 29.6686 19.215 28.6756C19.4798 28.4575 19.5448 28.4485 19.5356 28.636ZM7.98017 33.029C8.0296 33.0624 8.2294 33.4943 8.26682 33.6422C8.276 33.6908 8.24493 33.7422 8.14044 33.8415C7.983 33.9957 7.95546 34.0526 7.92157 34.2825C7.88416 34.545 7.74295 34.5874 7.56362 34.3853C7.42524 34.2311 7.32005 33.9957 7.32005 33.8325C7.32005 33.6485 7.46196 33.3707 7.67164 33.1561C7.83826 32.9839 7.88769 32.9631 7.98017 33.029ZM9.49953 35.3089C10.0022 35.6895 10.2698 35.8582 10.668 36.0429C10.8869 36.1422 11.0994 36.2422 11.1424 36.2603C11.1975 36.2874 11.2377 36.3568 11.2963 36.5228C11.3394 36.6464 11.4319 36.8311 11.4997 36.9304C11.7433 37.2804 11.7433 37.2776 11.7433 37.7457C11.7433 38.1957 11.7094 38.3401 11.5555 38.5763C11.506 38.6547 11.4813 38.7485 11.4658 38.9381C11.4566 39.0804 11.4319 39.2311 11.4135 39.2763C11.3733 39.3825 11.1827 39.4728 10.9356 39.4999L10.7449 39.5179L10.7231 39.4096C10.7139 39.3492 10.6955 39.3006 10.6828 39.3068C10.6736 39.3131 10.5691 39.3638 10.4491 39.4242C10.2423 39.5304 9.82288 39.627 9.75228 39.5874C9.6965 39.5513 9.72475 39.3735 9.8017 39.2617L9.88148 39.1499H9.49317C9.28066 39.1499 9.10769 39.1374 9.10769 39.1256C9.10769 39.0867 9.24677 38.9145 9.32655 38.854C9.53977 38.6908 10.017 38.5457 10.3475 38.5457C10.5225 38.5457 10.5261 38.5457 10.5875 38.4283C10.7075 38.1957 10.8035 37.8603 10.8035 37.6735C10.8035 37.3922 10.7322 37.3318 10.0206 36.9908C9.53624 36.761 9.40068 36.6825 9.2623 36.5499C9.00037 36.3026 8.93824 36.1547 8.93824 35.7679C8.93824 35.5388 8.95377 35.4089 8.99402 35.2936C9.08368 35.0401 9.1451 35.0436 9.49953 35.3089Z" fill="black"/>
</g>
<path d="M10.6303 28.3699C10.4298 28.4483 10.3719 28.7081 10.5223 28.856C10.7165 29.0462 11.0497 28.9164 11.0497 28.6511C11.0469 28.4275 10.8372 28.2886 10.6303 28.3699Z" fill="black"/>
<path d="M10.2324 32.5796C10.0594 32.6546 9.89351 32.824 9.82573 32.9865C9.73325 33.1983 9.83491 33.5698 10.0199 33.7115C10.1802 33.8351 10.4421 33.7566 10.5254 33.5636C10.5501 33.5032 10.6299 33.4275 10.7534 33.349L10.9412 33.2316H10.7563C10.5374 33.2316 10.4576 33.274 10.3715 33.44C10.303 33.5726 10.2599 33.5969 10.1618 33.5608C10.0072 33.5032 9.94576 33.1289 10.063 32.9448C10.1336 32.8296 10.4082 32.64 10.5346 32.6157C10.5805 32.6032 10.6546 32.5886 10.704 32.5796L10.7873 32.558L10.7104 32.5372C10.5621 32.4914 10.3863 32.5066 10.2324 32.5796Z" fill="black"/>
<mask id="mask1_5637_80325" style="mask-type:luminance" maskUnits="userSpaceOnUse" x="7" y="27" width="13" height="14">
<path d="M7.13477 27.0204H19.8657V40.8711H7.13477V27.0204Z" fill="white"/>
</mask>
<g mask="url(#mask1_5637_80325)">
<path fill-rule="evenodd" clip-rule="evenodd" d="M17.1022 27.0109C17.2039 27.0109 17.3063 27.0109 17.4079 27.0109C17.5287 27.0984 17.595 27.2178 17.6063 27.3692C17.6318 27.7525 17.5859 28.1261 17.4687 28.4907C17.6699 28.6241 17.7362 28.8088 17.6671 29.0435C17.6473 29.1748 17.6226 29.3039 17.5908 29.4324C17.6014 29.4525 17.6113 29.472 17.6212 29.4921C18.1479 29.1893 18.6364 28.8359 19.0869 28.431C19.4385 28.2018 19.6623 28.2866 19.7583 28.6852C19.5754 29.6074 19.1476 30.3998 18.4762 31.0616C18.7819 31.1116 18.9089 31.2859 18.8581 31.5852C18.4394 32.4435 17.8337 33.1511 17.0415 33.7081C17.0373 33.8859 16.966 34.0303 16.8276 34.1414C16.6243 34.2609 16.4209 34.381 16.2169 34.5004C16.9208 34.8261 17.6536 35.0754 18.4154 35.2477C18.8666 35.3317 19.2485 35.5359 19.5599 35.8609C19.682 36.0296 19.7788 36.2095 19.8501 36.3991C19.8501 36.5879 19.8501 36.7775 19.8501 36.9671C19.7604 37.247 19.6178 37.5011 19.4229 37.7296C19.2055 37.8282 19.0473 37.7741 18.9492 37.565C19.0007 37.1616 18.8327 36.897 18.4458 36.7727C17.9269 36.6775 17.4023 36.6331 16.8735 36.6379C16.2268 36.6553 15.5808 36.6796 14.9348 36.7129C15.0174 36.9754 15.1247 37.2296 15.2553 37.4754C15.4134 37.6845 15.5554 37.9039 15.6824 38.1331C15.7855 38.4699 15.8519 38.8143 15.8815 39.1643C16.058 39.3074 16.2254 39.4616 16.3849 39.6282C16.577 39.9741 16.541 40.2984 16.2783 40.5998C16.1908 40.6435 16.099 40.6532 16.0037 40.6296C15.9288 40.5907 15.8526 40.556 15.7742 40.5248C15.6563 40.6449 15.5292 40.7546 15.393 40.8539C15.3012 40.8539 15.2094 40.8539 15.1183 40.8539C14.9192 40.7685 14.7413 40.6491 14.5839 40.4949C14.3191 40.622 14.0395 40.6671 13.7444 40.6296C13.7006 40.6157 13.6646 40.5907 13.6371 40.5546C13.4274 40.0088 13.57 39.5699 14.065 39.2393C14.1179 38.7379 13.9859 38.29 13.6682 37.8942C13.2248 37.5296 12.8379 37.1213 12.5075 36.6678C12.4771 36.6782 12.4468 36.6879 12.4164 36.6977C12.1502 36.6345 11.8855 36.5643 11.6228 36.4886C11.6073 36.4984 11.5918 36.5088 11.5769 36.5185C11.704 36.7275 11.8311 36.9373 11.9582 37.1463C12.0577 37.5643 12.0577 37.9831 11.9582 38.4018C11.913 38.5303 11.8523 38.6498 11.7753 38.7609C11.8368 39.4386 11.5212 39.7775 10.8286 39.7775C10.7234 39.7831 10.6323 39.7532 10.5539 39.6879C10.2786 39.8143 9.9884 39.8692 9.68411 39.8525C9.52455 39.7525 9.45324 39.6081 9.47018 39.4185C9.30356 39.4303 9.14047 39.4157 8.98162 39.3741C8.839 39.2331 8.82418 39.0789 8.93573 38.9102C9.08823 38.6817 9.29721 38.5171 9.56196 38.4171C9.83025 38.3303 10.1049 38.2706 10.3859 38.2379C10.4925 38.0456 10.5483 37.8407 10.5539 37.6248C10.5257 37.5636 10.4798 37.5185 10.4162 37.49C10.0032 37.3192 9.60574 37.1199 9.2259 36.8921C8.71686 36.4623 8.55871 35.9289 8.75287 35.2928C8.79029 35.1317 8.84677 34.9775 8.9209 34.8289C8.77193 34.6435 8.63496 34.4491 8.50859 34.2463C8.4401 34.1928 8.36385 34.1782 8.27984 34.2011C8.24242 34.3442 8.20712 34.4893 8.17252 34.6352C7.91977 34.9081 7.6656 34.9081 7.40931 34.6352C7.28859 34.4873 7.19186 34.3282 7.11914 34.1567C7.11914 33.9768 7.11914 33.7977 7.11914 33.6185C7.28294 33.2734 7.51239 32.9741 7.8061 32.7213C7.7009 31.9984 7.63453 31.2713 7.60771 30.5386C7.58158 29.7143 7.7595 28.9373 8.14216 28.2067C8.51918 27.6352 9.05363 27.2914 9.74482 27.1748C10.1917 27.1282 10.6393 27.1185 11.0884 27.1449C11.4393 27.1748 11.7287 27.3192 11.9582 27.5789C12.0563 27.7754 12.1735 27.9602 12.3091 28.1317C12.6346 28.1664 12.96 28.1963 13.2862 28.2213C13.4281 28.231 13.5601 28.2713 13.683 28.3414C13.7564 28.3998 13.8023 28.4741 13.8207 28.565C13.9301 29.1102 13.839 29.6185 13.546 30.09C13.4931 30.1532 13.4267 30.1984 13.3476 30.2248C13.2417 30.2303 13.1401 30.2504 13.0419 30.2845C12.9487 30.3067 12.857 30.3018 12.7673 30.2699C12.6247 30.3491 12.4821 30.3491 12.3401 30.2699C12.1771 30.29 12.014 30.315 11.8516 30.3442C12.1615 30.4109 12.4566 30.5206 12.7369 30.6734C12.8873 30.672 13.0299 30.7018 13.1641 30.7629C13.186 30.8004 13.2114 30.8352 13.2403 30.8678C13.7451 30.4227 14.2591 29.9893 14.7823 29.5671C15.3598 29.031 15.9048 28.4678 16.4153 27.8775C16.6003 27.647 16.7732 27.4074 16.9342 27.1602C16.9872 27.1032 17.0436 27.0532 17.1022 27.0109Z" fill="#030303" fill-opacity="0.941"/>
</g>
<path fill-rule="evenodd" clip-rule="evenodd" d="M17.2242 27.2497C17.2645 27.2449 17.3005 27.2546 17.3316 27.2796C17.369 27.8879 17.2518 28.4657 16.98 29.0136C17.0972 28.9546 17.1995 28.8595 17.2857 28.7296C17.3245 28.7095 17.3605 28.7143 17.3923 28.7449C17.4022 29.0859 17.3407 29.4143 17.2094 29.7317C16.6601 30.0428 16.0953 30.3268 15.515 30.5838C14.8527 30.8831 14.1813 31.1574 13.5 31.406C13.5353 31.2664 13.5402 31.1268 13.5148 30.9872C14.4058 30.2852 15.2502 29.5275 16.0487 28.715C16.4709 28.2477 16.8628 27.7588 17.2242 27.2497Z" fill="#B8E4FD" fill-opacity="0.996"/>
<path fill-rule="evenodd" clip-rule="evenodd" d="M9.9593 27.3692C10.3052 27.3644 10.6512 27.3692 10.9971 27.3845C11.2584 27.4095 11.4871 27.5047 11.6841 27.6685C11.7914 27.8185 11.8825 27.9776 11.9587 28.147C12.0145 28.2415 12.0908 28.3165 12.1875 28.3713C12.6168 28.4116 13.0439 28.4616 13.4703 28.5206C13.4957 28.5456 13.5212 28.5706 13.5466 28.5956C13.5663 28.8547 13.5663 29.1137 13.5466 29.3727C13.531 29.5019 13.4703 29.6019 13.363 29.672C13.3545 29.7429 13.339 29.813 13.3171 29.881C13.2797 29.9144 13.2395 29.9192 13.195 29.8956C13.1682 29.8484 13.1378 29.804 13.1039 29.7616C13.0481 29.8456 12.9867 29.9248 12.9203 30.0005C12.8554 29.9713 12.8194 29.922 12.8137 29.8512C12.6902 29.7922 12.6288 29.8317 12.6302 29.9706C12.5793 30.0505 12.5285 30.0505 12.4777 29.9706C12.453 29.913 12.4374 29.8533 12.4318 29.7915C12.3809 29.7915 12.3301 29.7915 12.2793 29.7915C12.2807 29.8831 12.2454 29.9526 12.1727 30.0005C12.1487 29.9963 12.1289 29.9859 12.1112 29.9706C12.0795 29.9047 12.059 29.8345 12.0505 29.7616C12.0195 29.7366 11.9842 29.7262 11.9432 29.7317C11.9482 29.8241 11.9326 29.9144 11.898 30.0005C11.8655 30.031 11.8302 30.0359 11.7907 30.0158C11.7575 29.9623 11.7272 29.9074 11.6996 29.8512C11.6693 29.8651 11.6439 29.8852 11.6234 29.9109C11.6128 29.9908 11.6029 30.0706 11.5923 30.1498C11.5711 30.1755 11.5457 30.1956 11.5161 30.2095C11.4561 30.1727 11.4109 30.1227 11.3791 30.0602C11.2908 30.1005 11.2499 30.1699 11.257 30.2699C11.1786 30.3137 11.1228 30.2942 11.0889 30.2095C10.9054 30.181 10.7218 30.1658 10.5389 30.1651C10.5997 30.3991 10.7373 30.5734 10.9513 30.688C11.0649 30.5588 11.1461 30.579 11.1955 30.7477C11.2901 30.5554 11.377 30.5554 11.4554 30.7477C11.5613 30.5151 11.658 30.5151 11.7448 30.7477C11.8684 30.5442 11.9651 30.554 12.035 30.7783C12.1804 30.6533 12.2567 30.6935 12.2644 30.8977C12.3026 30.829 12.3583 30.804 12.4318 30.8227C12.4508 30.897 12.4713 30.9713 12.4932 31.047C12.6217 30.8755 12.7135 30.8956 12.7678 31.1067C12.7996 31.0102 12.861 30.9554 12.9507 30.9422C12.9931 31.038 13.0637 31.1026 13.1646 31.1366C13.1837 31.3762 13.1124 31.5901 12.9507 31.7797C12.8215 31.8234 12.6895 31.8331 12.5539 31.8095C12.0555 31.6602 11.557 31.5102 11.0579 31.3609C10.7627 31.3234 10.4676 31.2838 10.1732 31.2415C9.85269 31.147 9.60346 30.9623 9.42484 30.688C9.39943 30.7963 9.4199 30.8963 9.48627 30.9873C9.65359 31.1817 9.86257 31.3158 10.1118 31.3908C10.5227 31.4672 10.9294 31.5567 11.3332 31.6602C11.6029 31.7845 11.8571 31.9345 12.0964 32.1081C12.8815 32.022 13.4873 32.2956 13.913 32.9304C14.0902 33.3831 14.3797 33.747 14.7828 34.022C15.5114 34.5033 16.2951 34.8824 17.1332 35.1581C17.6514 35.3123 18.1703 35.4616 18.6906 35.6067C19.5682 35.9547 19.7871 36.538 19.3472 37.3554C19.3155 37.3915 19.2802 37.4213 19.2399 37.4456C19.2343 36.9463 18.99 36.6227 18.5071 36.4734C18.2056 36.4095 17.8999 36.3692 17.5914 36.354C16.7152 36.3366 15.8404 36.3463 14.9657 36.3838C14.9 36.3491 14.869 36.2942 14.8746 36.2192C15.0349 35.697 14.9381 35.229 14.5844 34.8144C14.6522 34.9776 14.7129 35.147 14.7673 35.3227C14.7871 35.4415 14.8026 35.5609 14.8132 35.681C14.7708 35.9449 14.7101 36.204 14.6303 36.4588C14.6755 36.8262 14.7821 37.1748 14.9508 37.5054C15.1288 37.7547 15.2919 38.0137 15.4394 38.2824C15.5284 38.6165 15.5898 38.9554 15.6223 39.2991C15.8362 39.4685 16.0296 39.6581 16.2026 39.8672C16.2443 40.0449 16.209 40.204 16.0953 40.3456C15.9273 40.2484 15.7543 40.1588 15.5764 40.0762C15.5601 40.3019 15.4479 40.4609 15.241 40.5547C14.9713 40.4852 14.7828 40.3255 14.6762 40.0762C14.4347 40.2769 14.1545 40.3665 13.836 40.3456C13.7556 39.9158 13.913 39.597 14.3098 39.3887C14.3303 39.1199 14.3303 38.8505 14.3098 38.5817C14.2166 38.2595 14.074 37.9602 13.8819 37.6845C13.608 37.4463 13.344 37.197 13.0884 36.9373C12.8363 36.6519 12.6732 36.3234 12.5998 35.9505C12.5645 35.5324 12.5447 35.1144 12.5391 34.6949C12.4515 34.9213 12.4155 35.1554 12.4318 35.397C12.4311 35.6748 12.4614 35.9491 12.5236 36.2192C12.5221 36.2672 12.5116 36.3123 12.4932 36.354C11.1518 36.1685 10.0278 35.5852 9.11984 34.6047C8.58186 33.9338 8.22602 33.1762 8.05093 32.3324C7.89419 31.5019 7.84336 30.6651 7.89843 29.8213C7.9422 29.3144 8.08482 28.8359 8.32557 28.3859C8.70965 27.8019 9.25399 27.463 9.9593 27.3692Z" fill="#C5FDB9" fill-opacity="0.996"/>
<path fill-rule="evenodd" clip-rule="evenodd" d="M10.6307 28.4157C10.9513 28.3858 11.0882 28.5254 11.0431 28.8344C10.9541 28.9997 10.8164 29.0546 10.6307 28.999C10.462 28.9115 10.4062 28.7768 10.4627 28.5956C10.5044 28.5199 10.5601 28.4601 10.6307 28.4157Z" fill="#040504" fill-opacity="0.984"/>
<path fill-rule="evenodd" clip-rule="evenodd" d="M19.3626 28.5651C19.4466 28.5526 19.4868 28.5873 19.4847 28.67C19.3379 29.3415 19.0477 29.9443 18.6149 30.479C18.4822 30.6283 18.3501 30.7783 18.2181 30.9276C17.9124 31.2019 17.6123 31.4811 17.3172 31.7644C17.719 31.6484 18.1207 31.5089 18.5231 31.3464C18.5725 31.3595 18.6085 31.3894 18.6297 31.4359C18.3042 32.1179 17.8467 32.7012 17.2558 33.1845C17.0532 33.354 16.8393 33.5082 16.6147 33.6484C16.7644 33.6651 16.8004 33.7345 16.7221 33.8575C16.475 34.0262 16.2151 34.1755 15.9433 34.3061C15.3785 34.0769 14.885 33.7484 14.4628 33.3193C14.2898 33.0401 14.1169 32.7609 13.9439 32.4825C13.7349 32.2582 13.4963 32.0741 13.2266 31.929C13.384 31.797 13.557 31.6873 13.7455 31.6005C15.43 31.0193 17.0073 30.2422 18.4772 29.2679C18.778 29.038 19.0731 28.804 19.3626 28.5651Z" fill="#B9E4FD" fill-opacity="0.996"/>
<path fill-rule="evenodd" clip-rule="evenodd" d="M10.7836 32.572C10.7228 32.5921 10.6614 32.6116 10.6007 32.6317C10.355 32.6977 10.1672 32.8373 10.0359 33.0505C9.99636 33.2414 10.0324 33.4157 10.1425 33.5734C10.1933 33.5935 10.2442 33.5935 10.2957 33.5734C10.3529 33.506 10.3988 33.4317 10.4327 33.3491C10.4602 33.3137 10.4955 33.2887 10.5393 33.2748C10.672 33.2546 10.804 33.2546 10.9368 33.2748C10.8344 33.3345 10.7327 33.3942 10.6311 33.4539C10.5711 33.5359 10.5153 33.6206 10.463 33.7081C10.1016 33.8637 9.88763 33.7442 9.82197 33.3491C9.7902 32.9519 9.96812 32.6873 10.3564 32.5567C10.4997 32.5373 10.6424 32.5428 10.7836 32.572Z" fill="#070906" fill-opacity="0.969"/>
<path fill-rule="evenodd" clip-rule="evenodd" d="M10.7825 32.5719C10.8065 32.5802 10.8269 32.5955 10.8439 32.6163C10.7627 32.6316 10.6815 32.6365 10.5996 32.6316C10.6603 32.6115 10.7218 32.592 10.7825 32.5719Z" fill="#709069" fill-opacity="0.992"/>
<path fill-rule="evenodd" clip-rule="evenodd" d="M7.85166 33.0207C7.9265 33.0151 7.99216 33.0346 8.05006 33.0804C8.12842 33.2832 8.21456 33.4825 8.30987 33.6783C8.24068 33.7908 8.15384 33.8908 8.05006 33.9769C7.97734 34.1401 7.9258 34.3096 7.89756 34.4853C7.83472 34.5179 7.76835 34.5228 7.69916 34.5006C7.33486 34.1978 7.26849 33.8436 7.50077 33.4388C7.60103 33.286 7.71823 33.1464 7.85166 33.0207Z" fill="#C3FBB7" fill-opacity="0.992"/>
<path fill-rule="evenodd" clip-rule="evenodd" d="M9.13373 35.1129C9.19939 35.1095 9.26081 35.124 9.31729 35.1581C9.86375 35.64 10.4843 36.0088 11.1791 36.2643C11.249 36.4386 11.3252 36.6129 11.4085 36.7872C11.7827 37.2664 11.8646 37.7949 11.6528 38.372C11.5914 38.472 11.5307 38.5713 11.4692 38.6713C11.4657 38.8726 11.4452 39.072 11.4085 39.2692C11.2193 39.422 11.0004 39.4914 10.7519 39.4782C10.7463 39.397 10.7314 39.3178 10.706 39.2393C10.4286 39.4678 10.108 39.5671 9.74444 39.5386C9.72255 39.3768 9.77338 39.2421 9.89694 39.1345C9.64206 39.1296 9.3879 39.1143 9.13373 39.09C9.25375 38.8879 9.42673 38.7435 9.65265 38.656C9.93718 38.5463 10.2323 38.4963 10.538 38.5067C10.7378 38.1886 10.8246 37.8449 10.7978 37.4754C10.7427 37.3914 10.6771 37.3171 10.5994 37.2511C10.2669 37.0858 9.93153 36.9268 9.59194 36.7726C9.001 36.422 8.81249 35.9185 9.02712 35.2629C9.03489 35.1907 9.07019 35.1407 9.13373 35.1129Z" fill="#C4FDB8" fill-opacity="0.996"/>
</svg>
