<?xml version="1.0" encoding="UTF-8"?>
<svg version="1.1" xmlns="http://www.w3.org/2000/svg" width="136" height="136">
<path d="M0 0 C44.88 0 89.76 0 136 0 C136 44.88 136 89.76 136 136 C91.12 136 46.24 136 0 136 C0 91.12 0 46.24 0 0 Z " fill="#100B14" transform="translate(0,0)"/>
<path d="M0 0 C2.6875 2.4375 2.6875 2.4375 5 5 C8.18150892 5.87989974 8.18150892 5.87989974 11 6 C11.04254356 7.99954746 11.04080783 10.00041636 11 12 C9.11525997 13.88474003 5.97253598 13.69332 3.4375 14.0625 C2.23996094 14.23910156 1.04242188 14.41570313 -0.19140625 14.59765625 C-1.11824219 14.73042969 -2.04507813 14.86320312 -3 15 C-3 15.66 -3 16.32 -3 17 C-2.07767578 17.09087891 -2.07767578 17.09087891 -1.13671875 17.18359375 C-0.32847656 17.26738281 0.47976562 17.35117187 1.3125 17.4375 C2.11300781 17.51871094 2.91351563 17.59992187 3.73828125 17.68359375 C6 18 6 18 9 19 C9 20.32 9 21.64 9 23 C4.94520982 23.18430864 2.54985343 22.89325516 -1 21 C-2.32 21 -3.64 21 -5 21 C-4.04738281 21.23074219 -3.09476563 21.46148437 -2.11328125 21.69921875 C-0.85902344 22.02535156 0.39523438 22.35148437 1.6875 22.6875 C2.92886719 23.00074219 4.17023437 23.31398438 5.44921875 23.63671875 C9.39199458 25.15050177 11.25365547 26.84096685 14 30 C20.09013259 36.76681398 27.09208081 40.08917531 35.8359375 42.2265625 C38.28384184 43.10144528 39.45836891 43.91247987 41 46 C40.6875 49.1875 40.6875 49.1875 40 52 C39.34 50.68 38.68 49.36 38 48 C37.09906616 47.96241577 37.09906616 47.96241577 36.17993164 47.92407227 C33.47388563 47.8084472 30.76821717 47.68557064 28.0625 47.5625 C26.64420898 47.50352539 26.64420898 47.50352539 25.19726562 47.44335938 C24.29814453 47.40146484 23.39902344 47.35957031 22.47265625 47.31640625 C21.22367554 47.26141968 21.22367554 47.26141968 19.94946289 47.20532227 C18 47 18 47 17 46 C17.61100934 50.15486354 19.10050076 53.27698149 21 57 C22.18752023 60.29866729 23.21170302 63.58404643 24 67 C20.67438135 68.76062164 19.40826005 69.10784228 15.6875 68.125 C14.3571875 67.568125 14.3571875 67.568125 13 67 C13.15339844 66.38253906 13.30679688 65.76507813 13.46484375 65.12890625 C14.21009181 61.08239407 14.56913071 58.18643236 12.75390625 54.40234375 C10.01538342 50.65136036 7.61745725 47.76952226 3.0625 46.4375 C2.051875 46.293125 1.04125 46.14875 0 46 C0.495 46.7425 0.495 46.7425 1 47.5 C2.82359473 52.05898683 2.51853136 56.44440592 1 61 C0.67 61.66 0.34 62.32 0 63 C-1.27875 63.061875 -2.5575 63.12375 -3.875 63.1875 C-4.95394531 63.23970703 -4.95394531 63.23970703 -6.0546875 63.29296875 C-6.69664063 63.19628906 -7.33859375 63.09960938 -8 63 C-8.66 62.01 -9.32 61.02 -10 60 C-7.8614515 57.8614515 -6.86724686 57.57344937 -4 57 C-3.49758678 54.6704053 -3.49758678 54.6704053 -4 52 C-6.86875539 49.6984961 -6.86875539 49.6984961 -10 48 C-11 47 -11 47 -11.0625 43.4375 C-11.041875 42.303125 -11.02125 41.16875 -11 40 C-10.34 40 -9.68 40 -9 40 C-9.598125 39.34 -10.19625 38.68 -10.8125 38 C-16.90156591 29.64928103 -17.68962638 20.06854511 -17 10 C-14.266373 1.799119 -8.46988374 -1.85810978 0 0 Z " fill="#BCF3B1" transform="translate(55,34)"/>
<path d="M0 0 C0.66 0 1.32 0 2 0 C1.32034502 5.77706732 -1.72605156 10.1534464 -6 14 C-4.68 14 -3.36 14 -2 14 C-3.35723237 17.94576832 -5.10732377 20.63766975 -7.875 23.75 C-8.55304688 24.52859375 -9.23109375 25.3071875 -9.9296875 26.109375 C-12.06798473 28.06208417 -13.13829825 28.77897425 -16 29 C-21.92162889 26.16791662 -24.68015445 21.50953091 -28 16 C-26.97261719 15.50371094 -25.94523437 15.00742187 -24.88671875 14.49609375 C-11.60879098 8.51343424 -11.60879098 8.51343424 0 0 Z " fill="#B4DFF7" transform="translate(93,41)"/>
<path d="M0 0 C4.455 1.98 4.455 1.98 9 4 C9 4.66 9 5.32 9 6 C9.66 6 10.32 6 11 6 C13.49571585 9.74357377 13.44684588 13.66043907 13 18 C12 21 12 21 11 23 C9.72125 23.061875 8.4425 23.12375 7.125 23.1875 C6.04605469 23.23970703 6.04605469 23.23970703 4.9453125 23.29296875 C4.30335937 23.19628906 3.66140625 23.09960938 3 23 C2.34 22.01 1.68 21.02 1 20 C3.1385485 17.8614515 4.13275314 17.57344937 7 17 C7.50241322 14.6704053 7.50241322 14.6704053 7 12 C4.13124461 9.6984961 4.13124461 9.6984961 1 8 C0 7 0 7 -0.0625 3.4375 C-0.041875 2.303125 -0.02125 1.16875 0 0 Z " fill="#B5EAAA" transform="translate(44,74)"/>
<path d="M0 0 C1.15876454 4.17715925 1.27522553 7.66519787 1 12 C-0.87188857 14.36417439 -2.85271068 15.59139885 -5.57421875 16.82421875 C-6.57485352 17.28344727 -6.57485352 17.28344727 -7.59570312 17.75195312 C-8.63114258 18.21504883 -8.63114258 18.21504883 -9.6875 18.6875 C-10.38939453 19.00783203 -11.09128906 19.32816406 -11.81445312 19.65820312 C-13.54025143 20.44479147 -15.2697711 21.22320597 -17 22 C-17.33 21.01 -17.66 20.02 -18 19 C-17.20335938 18.29875 -16.40671875 17.5975 -15.5859375 16.875 C-9.73534109 11.65941634 -4.32000496 6.61263916 0 0 Z " fill="#B1DBF3" transform="translate(84,33)"/>
<path d="M0 0 C0.495 1.485 0.495 1.485 1 3 C-5.27 5.97 -11.54 8.94 -18 12 C-13.4331178 19.34240316 -13.4331178 19.34240316 -7 25 C-10.99711412 25 -12.1042329 23.67858456 -15 21 C-15.43828125 20.17242187 -15.8765625 19.34484375 -16.328125 18.4921875 C-18.37747407 15.43731668 -19.78789689 14.91979276 -23.25 13.8125 C-24.22066406 13.49410156 -25.19132812 13.17570312 -26.19140625 12.84765625 C-27.11824219 12.56792969 -28.04507813 12.28820313 -29 12 C-29.75152344 11.77183594 -30.50304688 11.54367188 -31.27734375 11.30859375 C-32.8452128 10.85009626 -34.42162238 10.4209007 -36 10 C-36 9.67 -36 9.34 -36 9 C-31.92956503 8.81498023 -29.55947131 9.10903086 -26 11 C-24.00889599 11.38290462 -22.00899487 11.72604615 -20 12 C-20 11.01 -20 10.02 -20 9 C-19.13890625 8.89816406 -18.2778125 8.79632813 -17.390625 8.69140625 C-13.73272413 7.94549789 -11.0386009 6.68508565 -7.75 4.9375 C-2.19294118 2 -2.19294118 2 0 2 C0 1.34 0 0.68 0 0 Z " fill="#2F3B36" transform="translate(84,45)"/>
<path d="M0 0 C0 0.33 0 0.66 0 1 C-1.98 1 -3.96 1 -6 1 C-5.67 2.32 -5.34 3.64 -5 5 C-7.64 4.67 -10.28 4.34 -13 4 C-13 3.34 -13 2.68 -13 2 C-8.49646738 0.24252386 -4.82360189 -0.19294408 0 0 Z " fill="#2A3728" transform="translate(65,47)"/>
<path d="M0 0 C0.99 0.33 1.98 0.66 3 1 C2.67 2.98 2.34 4.96 2 7 C1.01 6.67 0.02 6.34 -1 6 C-1.042721 4.33388095 -1.04063832 2.66617115 -1 1 C-0.67 0.67 -0.34 0.34 0 0 Z " fill="#B5EAAA" transform="translate(37,64)"/>
</svg>
