<svg width="142" height="32" viewBox="0 0 142 32" fill="none" xmlns="http://www.w3.org/2000/svg">
<path d="M40.6387 21.8181V10.69H43.5833V14.8331H46.9047V10.69H49.8493V21.8181H46.9047V17.4011H43.5833V21.8181H40.6387ZM54.671 22.0235C53.7351 22.0235 53.056 21.7097 52.6337 21.0819C52.2114 20.4428 52.0003 19.5925 52.0003 18.531V13.2581H54.9449V18.1544C54.9449 18.7023 55.0135 19.0674 55.1504 19.25C55.2987 19.4327 55.5156 19.524 55.801 19.524C56.0748 19.524 56.3032 19.4669 56.4858 19.3528C56.6684 19.2387 56.851 19.0446 57.0337 18.7707V13.2581H59.9783V21.8181H57.5814L57.376 20.6883H57.3074C56.9651 21.0991 56.5828 21.4244 56.1605 21.6641C55.7496 21.9038 55.2531 22.0235 54.671 22.0235ZM65.0821 25.3449C64.4316 25.3449 63.8324 25.2707 63.2845 25.1224C62.7368 24.9853 62.2973 24.7628 61.9664 24.4546C61.6467 24.1465 61.487 23.7355 61.487 23.2219C61.487 22.5486 61.8863 22.0007 62.6854 21.5784V21.5099C62.4666 21.3481 62.2757 21.1514 62.1204 20.9279C61.972 20.6883 61.8978 20.3914 61.8978 20.0376C61.8978 19.7409 61.9835 19.4498 62.1546 19.1645C62.3373 18.8791 62.5713 18.6338 62.8565 18.4284V18.3598C62.5483 18.1544 62.2746 17.8634 62.0349 17.4866C61.8065 17.0986 61.6924 16.6592 61.6924 16.1685C61.6924 15.4608 61.8636 14.8788 62.206 14.4222C62.5598 13.9542 63.0164 13.6119 63.5756 13.395C64.1349 13.1668 64.7284 13.0525 65.3561 13.0525C65.8582 13.0525 66.3148 13.1211 66.7256 13.2581H69.9101V15.3809H68.6775C68.7116 15.4837 68.7402 15.615 68.763 15.7746C68.7972 15.9345 68.8144 16.1 68.8144 16.2711C68.8144 16.9446 68.6603 17.4925 68.3521 17.9148C68.0439 18.3256 67.6274 18.6281 67.1024 18.8221C66.5773 19.0162 65.9953 19.1131 65.3561 19.1131C65.0708 19.1131 64.7512 19.0732 64.3974 18.9932C64.2603 19.1188 64.192 19.2843 64.192 19.4897C64.192 19.6723 64.2833 19.8036 64.4659 19.8836C64.6598 19.9634 64.968 20.0033 65.3903 20.0033H66.6744C67.7472 20.0033 68.5747 20.1803 69.1568 20.5341C69.7503 20.8765 70.047 21.4414 70.047 22.2289C70.047 22.8453 69.8416 23.3874 69.4308 23.8554C69.0312 24.3233 68.4606 24.6886 67.7186 24.951C66.9768 25.2137 66.0979 25.3449 65.0821 25.3449ZM65.3561 17.3669C65.63 17.3669 65.8526 17.2699 66.0237 17.0758C66.195 16.8819 66.2805 16.5793 66.2805 16.1685C66.2805 15.769 66.195 15.4779 66.0237 15.2953C65.8526 15.1013 65.63 15.0044 65.3561 15.0044C65.0822 15.0044 64.8596 15.1013 64.6885 15.2953C64.5171 15.4779 64.4316 15.769 64.4316 16.1685C64.4316 16.5793 64.5171 16.8819 64.6885 17.0758C64.8596 17.2699 65.0822 17.3669 65.3561 17.3669ZM65.5615 23.5301C66.0409 23.5301 66.4404 23.4559 66.7599 23.3076C67.0796 23.1705 67.2392 22.9822 67.2392 22.7426C67.2392 22.5144 67.1366 22.3716 66.9312 22.3146C66.7371 22.2575 66.4575 22.2289 66.0923 22.2289H65.4246C65.0821 22.2289 64.8197 22.2176 64.6371 22.1947C64.4659 22.1834 64.3175 22.1606 64.192 22.1263C63.9866 22.3317 63.8838 22.5371 63.8838 22.7426C63.8838 23.0165 64.0378 23.2162 64.346 23.3418C64.6657 23.4674 65.0708 23.5301 65.5615 23.5301ZM74.4281 25.3449C73.7774 25.3449 73.1783 25.2707 72.6304 25.1224C72.0826 24.9853 71.6431 24.7628 71.3121 24.4546C70.9926 24.1465 70.8328 23.7355 70.8328 23.2219C70.8328 22.5486 71.2323 22.0007 72.0312 21.5784V21.5099C71.8123 21.3481 71.6215 21.1514 71.4663 20.9279C71.3178 20.6883 71.2436 20.3914 71.2436 20.0376C71.2436 19.7409 71.3293 19.4498 71.5004 19.1645C71.683 18.8791 71.9171 18.6338 72.2025 18.4284V18.3598C71.8943 18.1544 71.6203 17.8634 71.3807 17.4866C71.1523 17.0986 71.0382 16.6592 71.0382 16.1685C71.0382 15.4608 71.2095 14.8788 71.5518 14.4222C71.9056 13.9542 72.3621 13.6119 72.9215 13.395C73.4807 13.1668 74.0742 13.0525 74.7019 13.0525C75.2042 13.0525 75.6607 13.1211 76.0716 13.2581H79.2559V15.3809H78.0232C78.0575 15.4837 78.0859 15.615 78.1089 15.7746C78.143 15.9345 78.1601 16.1 78.1601 16.2711C78.1601 16.9446 78.0061 17.4925 77.6979 17.9148C77.3899 18.3256 76.9732 18.6281 76.4481 18.8221C75.9232 19.0162 75.3411 19.1131 74.7019 19.1131C74.4166 19.1131 74.0971 19.0732 73.7432 18.9932C73.6063 19.1188 73.5377 19.2843 73.5377 19.4897C73.5377 19.6723 73.6291 19.8036 73.8117 19.8836C74.0058 19.9634 74.3138 20.0033 74.7361 20.0033H76.0202C77.093 20.0033 77.9204 20.1803 78.5026 20.5341C79.096 20.8765 79.3928 21.4414 79.3928 22.2289C79.3928 22.8453 79.1874 23.3874 78.7765 23.8554C78.377 24.3233 77.8064 24.6886 77.0645 24.951C76.3227 25.2137 75.4438 25.3449 74.4281 25.3449ZM74.7019 17.3669C74.9758 17.3669 75.1983 17.2699 75.3697 17.0758C75.5408 16.8819 75.6265 16.5793 75.6265 16.1685C75.6265 15.769 75.5408 15.4779 75.3697 15.2953C75.1983 15.1013 74.9758 15.0044 74.7019 15.0044C74.4281 15.0044 74.2054 15.1013 74.0342 15.2953C73.8631 15.4779 73.7774 15.769 73.7774 16.1685C73.7774 16.5793 73.8631 16.8819 74.0342 17.0758C74.2054 17.2699 74.4281 17.3669 74.7019 17.3669ZM74.9074 23.5301C75.3868 23.5301 75.7861 23.4559 76.1058 23.3076C76.4253 23.1705 76.5852 22.9822 76.5852 22.7426C76.5852 22.5144 76.4824 22.3716 76.277 22.3146C76.083 22.2575 75.8033 22.2289 75.438 22.2289H74.7704C74.4281 22.2289 74.1655 22.2176 73.9828 22.1947C73.8117 22.1834 73.6633 22.1606 73.5377 22.1263C73.3323 22.3317 73.2295 22.5371 73.2295 22.7426C73.2295 23.0165 73.3837 23.2162 73.6919 23.3418C74.0114 23.4674 74.4166 23.5301 74.9074 23.5301ZM80.6581 21.8181V13.2581H83.6027V21.8181H80.6581ZM82.1304 12.1966C81.651 12.1966 81.2628 12.0654 80.9661 11.8029C80.6694 11.529 80.521 11.1694 80.521 10.7243C80.521 10.2792 80.6694 9.92525 80.9661 9.66278C81.2628 9.38884 81.651 9.25195 82.1304 9.25195C82.6097 9.25195 82.9978 9.38884 83.2945 9.66278C83.5912 9.92525 83.7396 10.2792 83.7396 10.7243C83.7396 11.1694 83.5912 11.529 83.2945 11.8029C82.9978 12.0654 82.6097 12.1966 82.1304 12.1966ZM85.5901 21.8181V13.2581H87.9869L88.1923 14.2852H88.2608C88.6031 13.9542 88.9913 13.6689 89.4249 13.4293C89.87 13.1781 90.3836 13.0525 90.9658 13.0525C91.913 13.0525 92.5921 13.3722 93.0031 14.0114C93.4254 14.6391 93.6365 15.4837 93.6365 16.5451V21.8181H90.6918V16.9218C90.6918 16.3739 90.6233 16.0087 90.4864 15.826C90.3494 15.6434 90.1327 15.5521 89.8358 15.5521C89.562 15.5521 89.3336 15.6091 89.151 15.7234C88.9684 15.8375 88.763 15.9973 88.5348 16.2028V21.8181H85.5901ZM98.6703 25.3449C98.0198 25.3449 97.4206 25.2707 96.8727 25.1224C96.325 24.9853 95.8855 24.7628 95.5546 24.4546C95.2349 24.1465 95.0752 23.7355 95.0752 23.2219C95.0752 22.5486 95.4745 22.0007 96.2736 21.5784V21.5099C96.0548 21.3481 95.8639 21.1514 95.7086 20.9279C95.5602 20.6883 95.486 20.3914 95.486 20.0376C95.486 19.7409 95.5717 19.4498 95.7428 19.1645C95.9255 18.8791 96.1595 18.6338 96.4447 18.4284V18.3598C96.1365 18.1544 95.8626 17.8634 95.6229 17.4866C95.3947 17.0986 95.2806 16.6592 95.2806 16.1685C95.2806 15.4608 95.4518 14.8788 95.7942 14.4222C96.148 13.9542 96.6046 13.6119 97.1638 13.395C97.7231 13.1668 98.3166 13.0525 98.9443 13.0525C99.4464 13.0525 99.903 13.1211 100.314 13.2581H103.498V15.3809H102.266C102.3 15.4837 102.328 15.615 102.351 15.7746C102.385 15.9345 102.403 16.1 102.403 16.2711C102.403 16.9446 102.249 17.4925 101.94 17.9148C101.632 18.3256 101.215 18.6281 100.691 18.8221C100.165 19.0162 99.5835 19.1131 98.9443 19.1131C98.6589 19.1131 98.3394 19.0732 97.9856 18.9932C97.8485 19.1188 97.7802 19.2843 97.7802 19.4897C97.7802 19.6723 97.8715 19.8036 98.0541 19.8836C98.2481 19.9634 98.5562 20.0033 98.9785 20.0033H100.263C101.335 20.0033 102.163 20.1803 102.745 20.5341C103.338 20.8765 103.635 21.4414 103.635 22.2289C103.635 22.8453 103.43 23.3874 103.019 23.8554C102.619 24.3233 102.049 24.6886 101.307 24.951C100.565 25.2137 99.6861 25.3449 98.6703 25.3449ZM98.9443 17.3669C99.2182 17.3669 99.4408 17.2699 99.6119 17.0758C99.7832 16.8819 99.8687 16.5793 99.8687 16.1685C99.8687 15.769 99.7832 15.4779 99.6119 15.2953C99.4408 15.1013 99.2182 15.0044 98.9443 15.0044C98.6704 15.0044 98.4478 15.1013 98.2767 15.2953C98.1053 15.4779 98.0198 15.769 98.0198 16.1685C98.0198 16.5793 98.1053 16.8819 98.2767 17.0758C98.4478 17.2699 98.6704 17.3669 98.9443 17.3669ZM99.1497 23.5301C99.6291 23.5301 100.029 23.4559 100.348 23.3076C100.668 23.1705 100.827 22.9822 100.827 22.7426C100.827 22.5144 100.725 22.3716 100.519 22.3146C100.325 22.2575 100.046 22.2289 99.6805 22.2289H99.0128C98.6704 22.2289 98.4079 22.2176 98.2253 22.1947C98.0541 22.1834 97.9056 22.1606 97.7802 22.1263C97.5746 22.3317 97.472 22.5371 97.472 22.7426C97.472 23.0165 97.626 23.2162 97.9342 23.3418C98.2537 23.4674 98.6589 23.5301 99.1497 23.5301ZM108.567 21.8181V10.69H115.826V13.1553H111.512V15.2781H115.21V17.7434H111.512V21.8181H108.567ZM119.046 22.0235C118.51 22.0235 118.048 21.9038 117.66 21.6641C117.289 21.4197 116.988 21.0836 116.787 20.6883C116.581 20.2887 116.479 19.855 116.479 19.3871C116.479 18.4967 116.844 17.8007 117.574 17.2984C118.305 16.7847 119.492 16.4424 121.135 16.2711C121.067 15.6777 120.667 15.3809 119.937 15.3809C119.629 15.3809 119.303 15.4436 118.961 15.5692C118.618 15.6833 118.225 15.8603 117.78 16.1L116.752 14.1826C117.357 13.8173 117.968 13.5377 118.584 13.3436C119.211 13.1498 119.863 13.0517 120.519 13.0525C121.637 13.0525 122.511 13.3722 123.138 14.0114C123.766 14.6391 124.08 15.6549 124.08 17.0587V21.8181H121.683L121.478 20.9963H121.409C121.067 21.3045 120.701 21.5556 120.313 21.7496C119.937 21.9322 119.514 22.0235 119.046 22.0235ZM120.074 19.7636C120.313 19.7636 120.513 19.7123 120.673 19.6096C120.833 19.4955 120.987 19.3528 121.135 19.1817V18.0174C120.439 18.1202 119.954 18.2742 119.68 18.4796C119.418 18.6852 119.286 18.9077 119.286 19.1474C119.286 19.5582 119.549 19.7636 120.074 19.7636ZM129.869 22.0235C129.058 22.0235 128.328 21.8466 127.677 21.4928C127.027 21.139 126.507 20.631 126.119 19.9691C125.743 19.2958 125.554 18.4854 125.554 17.538C125.554 16.5908 125.766 15.7861 126.188 15.1241C126.622 14.4507 127.187 13.9372 127.883 13.5833C128.579 13.2295 129.332 13.0525 130.143 13.0525C130.656 13.0525 131.119 13.1325 131.529 13.2922C131.952 13.452 132.323 13.6689 132.642 13.9429L131.273 15.826C131.09 15.6664 130.924 15.5579 130.776 15.5009C130.629 15.4438 130.472 15.4149 130.314 15.4152C129.766 15.4152 129.338 15.6091 129.03 15.9973C128.722 16.3739 128.568 16.8875 128.568 17.538C128.568 18.1887 128.727 18.708 129.047 19.096C129.366 19.4726 129.754 19.661 130.211 19.661C130.451 19.661 130.685 19.6096 130.913 19.5068C131.147 19.3961 131.37 19.2643 131.581 19.1131L132.711 21.0306C132.288 21.4073 131.82 21.6697 131.307 21.8181C130.793 21.955 130.314 22.0235 129.869 22.0235ZM137.528 22.0235C136.695 22.0235 135.942 21.8466 135.268 21.4928C134.607 21.139 134.081 20.631 133.693 19.9691C133.305 19.2958 133.111 18.4854 133.111 17.538C133.111 16.6136 133.305 15.8204 133.693 15.1584C134.093 14.4849 134.607 13.9657 135.234 13.6004C135.862 13.2352 136.524 13.0525 137.22 13.0525C138.065 13.0525 138.761 13.241 139.309 13.6175C139.868 13.9828 140.279 14.4793 140.541 15.107C140.815 15.7347 140.952 16.431 140.952 17.1957C140.952 17.4467 140.935 17.6922 140.901 17.9319C140.878 18.1601 140.855 18.3256 140.832 18.4284H135.953C136.09 18.942 136.336 19.3014 136.689 19.5068C137.043 19.7009 137.46 19.7979 137.939 19.7979C138.487 19.7979 139.069 19.6268 139.685 19.2843L140.644 21.0306C140.188 21.3501 139.674 21.5956 139.103 21.7667C138.533 21.9379 138.008 22.0235 137.528 22.0235ZM135.919 16.5108H138.453C138.453 16.1798 138.367 15.8946 138.196 15.6549C138.036 15.4037 137.734 15.2781 137.289 15.2781C136.969 15.2781 136.684 15.3753 136.433 15.5692C136.181 15.7633 136.01 16.0772 135.919 16.5108Z" fill="#EFEDEF"/>
<path d="M34.3086 23.4489C34.2218 23.1213 34.0812 22.8105 33.8926 22.529C33.933 22.3806 33.9637 22.23 33.9844 22.0779C34.1182 21.1121 33.7835 20.2279 33.1524 19.5436C32.8106 19.1699 32.4442 18.9233 32.0562 18.7719C32.3109 17.6821 32.4398 16.5668 32.4405 15.4476C32.4405 14.9365 32.4116 14.4359 32.3631 13.9426C32.3377 13.6963 32.3072 13.4505 32.2714 13.2055C32.1602 12.4826 31.9954 11.7689 31.7782 11.0705C31.6358 10.6116 31.4711 10.16 31.2848 9.71715C31.0053 9.06138 30.679 8.42652 30.3084 7.81752C30.0652 7.41244 29.8005 7.0207 29.5152 6.64402C29.3754 6.4538 29.2298 6.26807 29.0782 6.08709C28.6293 5.54138 28.1415 5.02894 27.6183 4.55384C27.4448 4.39413 27.2662 4.23993 27.0827 4.09146C26.9022 3.94086 26.7177 3.79508 26.5294 3.65428C26.1504 3.37223 25.7586 3.1076 25.3556 2.86123C23.1283 1.50851 20.5164 0.73291 17.7249 0.73291C9.59703 0.73291 3.00939 7.32071 3.00939 15.4482C3.00918 16.5815 3.14048 17.7108 3.40066 18.8137C3.05157 18.9653 2.71687 19.2014 2.40672 19.5433C1.77577 20.2271 1.44091 21.1082 1.57489 22.0738C1.59509 22.2274 1.6258 22.3793 1.66652 22.5286C1.47803 22.8103 1.33747 23.1213 1.25052 23.4489C1.05658 24.186 1.12042 24.8507 1.36689 25.433C1.09909 26.1944 1.166 27.0051 1.51493 27.7099C1.76866 28.2246 2.13182 28.6227 2.57933 28.9787C3.11153 29.4017 3.77771 29.7613 4.58143 30.106C5.54014 30.5149 6.71024 30.8991 7.24244 31.04C8.61715 31.396 9.93529 31.6216 11.2714 31.6325C13.1745 31.6502 14.8137 31.2026 15.9873 30.0572C16.5638 30.1278 17.144 30.1632 17.7249 30.1631C18.3385 30.1618 18.9515 30.123 19.5605 30.0473C20.7312 31.2 22.3766 31.6517 24.287 31.6334C25.6227 31.6229 26.9409 31.3973 28.312 31.0408C28.8478 30.8999 30.0175 30.5157 30.9767 30.107C31.7804 29.7614 32.4465 29.402 32.9824 28.9795C33.4265 28.6237 33.7893 28.2254 34.0432 27.7107C34.3957 27.0059 34.4592 26.1952 34.1948 25.4338C34.439 24.8515 34.5024 24.1854 34.3086 23.4489ZM32.9447 25.3837C33.2148 25.8962 33.2321 26.4753 32.9937 27.0146C32.6323 27.8321 31.7347 28.4758 29.9914 29.167C28.9074 29.5971 27.9146 29.8718 27.9059 29.8744C26.472 30.2463 25.1752 30.4351 24.0526 30.4351C22.1937 30.4351 20.8106 29.9222 19.9333 28.9092C18.4499 29.1618 16.935 29.1704 15.4488 28.9346C14.5706 29.9308 13.1951 30.4351 11.3518 30.4351C10.2291 30.4351 8.93246 30.2463 7.4986 29.8744C7.48971 29.8718 6.49755 29.5971 5.41311 29.167C3.66975 28.4758 2.77198 27.8324 2.41077 27.0146C2.17238 26.4753 2.18967 25.8962 2.45973 25.3837C2.48478 25.3362 2.51145 25.2897 2.54006 25.2449C2.37818 25.0018 2.26963 24.7271 2.22148 24.4391C2.17335 24.1511 2.18675 23.856 2.26079 23.5735C2.3681 23.1659 2.58984 22.8268 2.89076 22.5833C2.74586 22.345 2.65075 22.08 2.61117 21.8039C2.52454 21.2037 2.72365 20.6043 3.17198 20.1157C3.52091 19.7354 4.01432 19.5261 4.56075 19.5261H4.57529C4.16338 18.2059 3.95451 16.8307 3.95582 15.4477C3.95582 7.90479 10.0709 1.78956 17.6146 1.78956C25.1585 1.78956 31.2735 7.9043 31.2735 15.4477C31.2744 16.8344 31.0642 18.2132 30.6498 19.5365C30.7157 19.53 30.7804 19.5266 30.8437 19.5266C31.39 19.5266 31.8836 19.7357 32.2325 20.116C32.6805 20.6043 32.8801 21.2042 32.7933 21.8043C32.7537 22.0803 32.6587 22.3455 32.5137 22.5837C32.8146 22.8271 33.0364 23.1662 33.1437 23.574C33.2175 23.8565 33.231 24.1514 33.1828 24.4396C33.1346 24.7276 33.0262 25.0022 32.8644 25.2454C32.893 25.2897 32.92 25.3362 32.9447 25.3837Z" fill="white"/>
<path d="M32.8627 25.2455C33.0245 25.0022 33.1329 24.7277 33.1811 24.4397C33.2293 24.1515 33.2158 23.8565 33.142 23.574C33.0347 23.1664 32.8129 22.8274 32.512 22.5838C32.6568 22.3456 32.752 22.0805 32.7916 21.8045C32.8782 21.2043 32.6791 20.6048 32.2308 20.1163C31.8819 19.736 31.3883 19.5267 30.842 19.5267C30.7785 19.5267 30.714 19.5299 30.6481 19.5365C31.062 18.2132 31.2719 16.8345 31.2706 15.448C31.2706 7.90517 25.1556 1.78979 17.6124 1.78979C10.0693 1.78979 3.95362 7.90453 3.95362 15.448C3.95231 16.8309 4.16118 18.2061 4.57309 19.5264H4.55855C4.01228 19.5264 3.51887 19.7357 3.16994 20.1159C2.72194 20.6042 2.52251 21.2039 2.60913 21.8042C2.64868 22.0802 2.74379 22.3453 2.88873 22.5835C2.5878 22.827 2.36606 23.1661 2.25891 23.5739C2.18492 23.8564 2.17157 24.1515 2.21977 24.4397C2.26796 24.7277 2.37658 25.0024 2.53851 25.2455C2.50958 25.2902 2.48307 25.3368 2.45818 25.3843C2.18828 25.8968 2.17083 26.4759 2.40921 27.0152C2.77042 27.8325 3.6682 28.4765 5.41156 29.1676C6.49551 29.5976 7.48832 29.8724 7.49705 29.875C8.93091 30.2468 10.2276 30.4358 11.3501 30.4358C13.1935 30.4358 14.5689 29.9315 15.4473 28.9352C16.9335 29.171 18.4483 29.1624 19.9318 28.9098C20.8089 29.9228 22.1922 30.4358 24.0511 30.4358C25.1737 30.4358 26.4705 30.2468 27.9043 29.875C27.913 29.8724 28.9054 29.5976 29.9898 29.1676C31.7332 28.4765 32.6309 27.8325 32.9922 27.0152C33.2305 26.4759 33.2133 25.8968 32.9432 25.3843C32.9185 25.3363 32.8913 25.2899 32.8627 25.2455ZM14.8187 27.3756C14.7431 27.5079 14.6621 27.6371 14.5758 27.7626C14.3488 28.0951 14.0501 28.349 13.7036 28.5379C13.0408 28.8991 12.2022 29.0255 11.35 29.0255C10.004 29.0255 8.62416 28.7105 7.85067 28.5098C7.81269 28.4999 3.10982 27.1716 3.70521 26.0409C3.80541 25.8509 3.97042 25.7749 4.17794 25.7749C5.01624 25.7749 6.54272 27.0233 7.19889 27.0233C7.34531 27.0233 7.44873 26.9607 7.49091 26.8086C7.77051 25.8058 3.24154 25.3843 3.62295 23.9323C3.69034 23.6754 3.87281 23.5711 4.12962 23.5711C5.23782 23.571 7.72541 25.5201 8.24566 25.5201C8.28558 25.5201 8.31418 25.5084 8.3297 25.4839L8.33648 25.4727C8.58053 25.0695 8.44057 24.7763 6.76751 23.7517L6.60687 23.6539C4.76606 22.5395 3.47378 21.8691 4.20881 21.0691C4.29333 20.9767 4.41309 20.9358 4.55871 20.9358C4.73147 20.9358 4.94044 20.9937 5.17059 21.0905C6.14287 21.5005 7.49042 22.6187 8.05333 23.1065C8.21931 23.251 8.31709 23.3392 8.31709 23.3392C8.31709 23.3392 9.02982 24.0804 9.46085 24.0804C9.56008 24.0804 9.64412 24.0414 9.70117 23.9446C10.0069 23.4294 6.86271 21.0468 6.68541 20.0639C6.56533 19.3977 6.76978 19.0604 7.14812 19.0604C7.32784 19.0604 7.54731 19.1369 7.78958 19.2906C8.54109 19.7677 9.99208 22.2611 10.5233 23.2309C10.7014 23.5561 11.0054 23.6935 11.2794 23.6935C11.8229 23.6935 12.2478 23.1532 11.3291 22.4666C9.94845 21.4334 10.433 19.7449 11.0919 19.6409C11.12 19.6366 11.1484 19.6343 11.1767 19.6342C11.776 19.6342 12.0404 20.6669 12.0404 20.6669C12.0404 20.6669 12.815 22.6124 14.1459 23.9422C15.3537 25.1493 15.5223 26.14 14.8187 27.3756ZM19.1224 27.6035L19.0534 27.6117L18.9356 27.6253C18.8737 27.6316 18.8118 27.6377 18.7496 27.6435L18.6888 27.649L18.6335 27.6537L18.5548 27.66C18.5259 27.6621 18.497 27.6644 18.468 27.6662L18.3814 27.672L18.3623 27.6731L18.2941 27.6772L18.2652 27.6786L18.1844 27.6826L18.0905 27.6865L18.0052 27.6894L17.9483 27.691H17.9195C17.9017 27.691 17.8841 27.692 17.8663 27.6922H17.8381C17.8203 27.6922 17.8027 27.6922 17.7849 27.6931L17.7126 27.694H17.6115C17.5321 27.694 17.4531 27.6931 17.3741 27.6917L17.3101 27.6902C17.292 27.6902 17.2737 27.6893 17.2556 27.6888L17.1879 27.6867L17.1035 27.6835L17.0277 27.6802L17.008 27.6794L16.9358 27.6755C16.9157 27.6744 16.8957 27.6734 16.8758 27.6721L16.8291 27.6694C16.7704 27.6657 16.7118 27.6615 16.6531 27.6569L16.5917 27.6521L16.5141 27.6455L16.4234 27.6371C16.3728 27.6324 16.3223 27.6272 16.2717 27.6216H16.2693C17.0078 25.9739 16.6343 24.4351 15.1418 22.9437C14.1631 21.9663 13.5118 20.5226 13.3768 20.2056C13.1034 19.2675 12.3795 18.2245 11.1775 18.2245C11.0759 18.2247 10.9745 18.2328 10.8742 18.2486C10.3475 18.3314 9.88719 18.6346 9.55879 19.0906C9.20404 18.6493 8.85899 18.2984 8.54707 18.1001C8.07677 17.8021 7.6076 17.6508 7.15022 17.6508C6.57972 17.6508 6.0695 17.8851 5.71394 18.3102L5.70505 18.321L5.68501 18.2368L5.6842 18.2333C5.61658 17.944 5.55977 17.6521 5.51386 17.3586C5.51386 17.3565 5.51386 17.3546 5.51289 17.3526L5.50287 17.2862C5.49745 17.2503 5.49217 17.2143 5.48703 17.1784C5.48283 17.1485 5.47863 17.1186 5.47475 17.0889C5.47087 17.0591 5.46667 17.0292 5.46311 16.9993C5.45923 16.9693 5.45568 16.9394 5.45212 16.9095C5.44871 16.881 5.44543 16.8526 5.44226 16.8241L5.44131 16.8169C5.42673 16.6856 5.41424 16.5542 5.4038 16.4227L5.39814 16.3466C5.39653 16.3257 5.39507 16.3047 5.39378 16.2835C5.39378 16.2787 5.39313 16.2737 5.39281 16.2691L5.38749 16.1848C5.38555 16.1542 5.38408 16.1237 5.38246 16.0931C5.38085 16.0628 5.37923 16.0322 5.37794 16.0015L5.37471 15.9215L5.37374 15.8973L5.37131 15.8232L5.36955 15.7605C5.36955 15.7355 5.3684 15.7103 5.36792 15.6852L5.36663 15.6062C5.3663 15.5799 5.36663 15.5537 5.36598 15.5273C5.36517 15.5008 5.36598 15.4745 5.36598 15.448C5.36598 8.684 10.8498 3.2002 17.6144 3.2002C24.379 3.2002 29.8626 8.68368 29.8626 15.448V15.6062C29.8626 15.6325 29.862 15.659 29.8613 15.6852C29.8613 15.7072 29.8605 15.7287 29.8599 15.7507C29.8599 15.7702 29.8591 15.7896 29.8583 15.8085C29.8583 15.8333 29.8568 15.8578 29.856 15.8826V15.8847C29.8539 15.9383 29.8516 15.992 29.8494 16.0456L29.8484 16.0634L29.8442 16.1436L29.8403 16.2071C29.8313 16.3576 29.8195 16.508 29.8051 16.6582V16.6603C29.8025 16.6884 29.7996 16.7167 29.7965 16.7448C29.7894 16.8102 29.7821 16.8757 29.7749 16.9411L29.7666 17.0069L29.7564 17.0842C29.7529 17.1125 29.749 17.1406 29.745 17.1687C29.7406 17.2002 29.7359 17.2316 29.7314 17.2629L29.7201 17.3369L29.7068 17.421C29.7023 17.4489 29.6978 17.4767 29.6924 17.5047C29.6869 17.5325 29.6827 17.5603 29.6779 17.5883C29.6682 17.6439 29.6582 17.6993 29.6474 17.7547C29.6259 17.8651 29.6034 17.9752 29.5796 18.0851C29.5737 18.1124 29.5675 18.1399 29.5612 18.1672C29.2165 17.8321 28.7601 17.6497 28.2565 17.6497C27.7996 17.6497 27.3299 17.8008 26.8598 18.099C26.5477 18.2971 26.203 18.6481 25.8479 19.0895C25.519 18.6333 25.0587 18.3302 24.5327 18.2473C24.4323 18.2317 24.3308 18.2236 24.2292 18.2234C23.0269 18.2234 22.3035 19.2663 22.0299 20.2045C21.8943 20.5214 21.243 21.965 20.2631 22.9441C18.7717 24.4306 18.3953 25.9626 19.1224 27.6035ZM31.7673 24.3052L31.7624 24.3196C31.759 24.3288 31.7556 24.338 31.7519 24.347C31.7461 24.3608 31.74 24.3742 31.7335 24.3876C31.7178 24.4196 31.7 24.4506 31.6805 24.4804C31.6535 24.5206 31.6239 24.5591 31.5918 24.5953C31.5843 24.6037 31.5772 24.6119 31.5688 24.6202C31.5575 24.6326 31.5454 24.6447 31.5334 24.6569C31.3157 24.8726 30.9841 25.0616 30.6091 25.2351C30.5666 25.2544 30.5236 25.2736 30.48 25.2928L30.4367 25.3121C30.4078 25.3248 30.379 25.3376 30.3486 25.35C30.319 25.3626 30.2893 25.3751 30.2596 25.3874L30.1694 25.4247C29.9585 25.5115 29.7424 25.5941 29.5315 25.6759L29.4415 25.7108L29.3522 25.7457C29.2931 25.7688 29.2346 25.7919 29.1769 25.815L29.0911 25.8496L29.0069 25.8842L28.9653 25.9015C28.9379 25.9131 28.9107 25.9244 28.8839 25.9361C28.2636 26.2021 27.8175 26.4728 27.9113 26.8088C27.9139 26.8183 27.9168 26.8274 27.92 26.8361C27.9284 26.861 27.9399 26.8846 27.9541 26.9066C27.9625 26.9198 27.9722 26.9323 27.983 26.9436C28.0933 27.058 28.2938 27.0399 28.5467 26.9491C28.5673 26.9416 28.5883 26.9337 28.6095 26.9253C28.624 26.9198 28.6384 26.914 28.6529 26.9082L28.6747 26.899C28.7326 26.8744 28.7939 26.8471 28.8566 26.8172C28.8722 26.8099 28.8881 26.8028 28.9039 26.7944C29.2131 26.6433 29.5636 26.4395 29.9114 26.2541C29.9648 26.2252 30.0183 26.1976 30.0714 26.1701C30.1584 26.125 30.2461 26.0815 30.3347 26.04C30.6641 25.8851 30.9736 25.7752 31.2226 25.7752C31.3393 25.7752 31.4426 25.7992 31.5284 25.8541L31.5428 25.8637C31.5863 25.8944 31.6241 25.932 31.6549 25.9753C31.6621 25.9855 31.6695 25.996 31.6758 26.0068C31.6826 26.018 31.6891 26.0295 31.6952 26.0411C31.8182 26.2745 31.7152 26.5164 31.4744 26.7535C31.2432 26.9811 30.8834 27.2043 30.4743 27.411C30.4441 27.4263 30.4136 27.4417 30.3829 27.4565C29.1657 28.0542 27.5722 28.5043 27.5499 28.51C27.1252 28.62 26.5178 28.7647 25.8337 28.8728L25.7324 28.8885L25.7159 28.8909C25.5607 28.9142 25.4051 28.9347 25.2491 28.9525L25.2347 28.9539C24.9511 28.9862 24.6602 29.0097 24.3688 29.0195H24.3644C24.2597 29.0234 24.1552 29.0252 24.0504 29.0252H23.9299C23.7702 29.0229 23.6107 29.0158 23.4515 29.0035C23.4478 29.0035 23.4439 29.0035 23.44 29.0027C23.3831 28.9984 23.3261 28.993 23.2693 28.9867C23.1717 28.9762 23.0743 28.9633 22.9771 28.9481C22.9393 28.9418 22.8989 28.9352 22.86 28.9284C22.8422 28.9251 22.8246 28.9219 22.8069 28.9184L22.8027 28.9176C22.7467 28.9069 22.6909 28.8951 22.6353 28.8823C22.6032 28.875 22.5708 28.8678 22.539 28.8592L22.5199 28.8542C22.5041 28.8503 22.4886 28.8461 22.4731 28.8419L22.4645 28.8397L22.4145 28.8253C22.3964 28.8201 22.3785 28.8148 22.3604 28.8094L22.3539 28.8075L22.3069 28.7931C22.2891 28.7876 22.2715 28.7818 22.2539 28.7761C22.2394 28.7713 22.225 28.7663 22.2104 28.7616L22.1786 28.7504C22.1479 28.7398 22.1175 28.7285 22.0871 28.7168L22.0583 28.7057L22.0346 28.6961C21.9888 28.6777 21.9433 28.6585 21.8982 28.6383L21.8681 28.6239L21.8631 28.6216C21.8524 28.6166 21.8419 28.6116 21.8313 28.6071C21.8104 28.5971 21.7897 28.5867 21.7692 28.5762L21.7631 28.5731L21.7333 28.5575C21.6805 28.53 21.6286 28.5006 21.5779 28.4692L21.5501 28.4523C21.5357 28.4435 21.5226 28.4346 21.5089 28.4258L21.4726 28.4017C21.4596 28.3929 21.4465 28.3841 21.4337 28.3748L21.4104 28.3584C21.3859 28.3407 21.3618 28.3228 21.338 28.3042C21.3254 28.2945 21.313 28.2845 21.3005 28.2753C21.2729 28.2531 21.2459 28.2304 21.2192 28.2069L21.2181 28.206C21.1921 28.1835 21.1667 28.1602 21.142 28.1365L21.1407 28.1348C21.1278 28.1226 21.1152 28.1103 21.1025 28.0975C21.0901 28.0847 21.0775 28.0721 21.0654 28.0594C21.0531 28.0464 21.0408 28.0333 21.0288 28.0199C21.0172 28.0073 21.0059 27.9946 20.9946 27.9816L20.9907 27.9773C20.9324 27.9096 20.8777 27.8386 20.8272 27.7647L20.8071 27.7352C20.7939 27.7156 20.7808 27.6959 20.7678 27.6762L20.7297 27.6175C20.711 27.5889 20.6927 27.56 20.6749 27.5309C20.6621 27.5102 20.6495 27.4895 20.6371 27.4687C20.6266 27.4509 20.6161 27.4333 20.6061 27.4158C20.6004 27.4063 20.5951 27.3966 20.5897 27.3869C20.5844 27.3769 20.5781 27.3667 20.5724 27.3565L20.5634 27.3405C20.5603 27.3352 20.5594 27.3336 20.5577 27.33C20.5467 27.3108 20.5361 27.2912 20.5257 27.2713C20.521 27.2628 20.5164 27.254 20.5114 27.2455L20.4968 27.2177L20.4824 27.19L20.4546 27.134C20.4501 27.1247 20.4457 27.1155 20.4414 27.1063C20.4318 27.0864 20.4228 27.0669 20.4137 27.0473C20.4102 27.0394 20.4065 27.0315 20.4032 27.0236C20.3908 26.9966 20.379 26.9693 20.3678 26.9416C20.3602 26.9234 20.3533 26.9053 20.3459 26.8872C20.325 26.8338 20.3055 26.78 20.2875 26.7256C20.2822 26.7094 20.2768 26.6934 20.2722 26.6772C20.2605 26.6405 20.25 26.6035 20.2406 26.5662C20.2292 26.5227 20.219 26.4788 20.2104 26.4346C20.2049 26.4086 20.2001 26.3824 20.196 26.3561C20.1917 26.3301 20.188 26.3041 20.1849 26.2782C20.1783 26.2266 20.1736 26.1749 20.1708 26.123C20.1708 26.1145 20.17 26.1058 20.1699 26.0972C20.1691 26.0801 20.1686 26.0629 20.1684 26.0458C20.1594 25.3554 20.5089 24.6913 21.2561 23.9445C22.5868 22.6148 23.3616 20.6691 23.3616 20.6691C23.3616 20.6691 23.3825 20.5875 23.4259 20.4702C23.4405 20.4312 23.4557 20.3925 23.4717 20.3542C23.4899 20.3108 23.5095 20.268 23.5305 20.226L23.5366 20.2137C23.5636 20.1601 23.5929 20.1079 23.6247 20.0569C23.632 20.0451 23.6391 20.0333 23.6475 20.0217C23.6711 19.9865 23.6962 19.9524 23.7225 19.9193C23.7429 19.8939 23.7645 19.8693 23.7873 19.846C23.8646 19.7665 23.9526 19.7016 24.0524 19.6668L24.065 19.6628C24.0734 19.66 24.0816 19.6574 24.0902 19.655C24.1002 19.6524 24.1102 19.65 24.1202 19.6479L24.1248 19.6471C24.1459 19.6429 24.1671 19.64 24.1886 19.6385H24.1905C24.2017 19.6385 24.2128 19.6374 24.2243 19.6374C24.2529 19.6376 24.2814 19.6398 24.3097 19.6442C24.4296 19.6631 24.5438 19.7345 24.6421 19.8447L24.6554 19.8603C24.6874 19.8978 24.7164 19.9378 24.7423 19.9799C24.7617 20.011 24.78 20.0439 24.7973 20.0783C24.8042 20.0928 24.8108 20.1061 24.8175 20.1203C24.8207 20.1276 24.8239 20.1347 24.827 20.1421C24.8335 20.1565 24.8394 20.171 24.8454 20.1862C24.8792 20.2729 24.9054 20.3622 24.9238 20.4534C24.9434 20.5518 24.9547 20.6517 24.9579 20.7521C24.959 20.7962 24.959 20.8408 24.9579 20.886C24.9571 20.9032 24.9563 20.9205 24.955 20.9378C24.9417 21.1299 24.8999 21.319 24.8307 21.4989C24.8238 21.5167 24.8162 21.5348 24.809 21.5529C24.7743 21.6359 24.7339 21.7164 24.6883 21.794C24.6623 21.8383 24.6342 21.8822 24.6041 21.9259L24.5857 21.9521C24.5144 22.0516 24.4349 22.145 24.348 22.2313C24.2623 22.3172 24.1705 22.3965 24.0734 22.4691C23.9759 22.541 23.8846 22.6208 23.8002 22.7076C23.5573 22.9626 23.5008 23.1875 23.5554 23.358C23.5619 23.3772 23.5695 23.3961 23.5782 23.4144C23.5984 23.454 23.6246 23.4903 23.6559 23.522L23.6645 23.5306C23.6734 23.5391 23.6827 23.5474 23.6923 23.5553L23.702 23.5632C23.7256 23.5813 23.7505 23.5975 23.7765 23.6115C23.7839 23.6156 23.7909 23.6196 23.7994 23.6235C23.8352 23.6413 23.8725 23.6555 23.9109 23.6663L23.9216 23.6691L23.936 23.6729L23.9486 23.676L23.962 23.6789L23.9754 23.6817L23.9882 23.6838C23.9977 23.6856 24.0074 23.687 24.017 23.6883L24.0263 23.6896L24.043 23.6914L24.0533 23.6923L24.0705 23.6936H24.0803L24.0981 23.6944H24.1542L24.1702 23.6936L24.1886 23.6925L24.2111 23.6904L24.2321 23.6878C24.2368 23.6878 24.2416 23.6865 24.2465 23.6857C24.3205 23.6749 24.3926 23.654 24.4608 23.6237C24.4753 23.6175 24.4897 23.6107 24.5029 23.6036C24.5314 23.5894 24.559 23.5734 24.5855 23.5558C24.6225 23.5315 24.6575 23.5042 24.6903 23.4745L24.7131 23.4528C24.7166 23.4493 24.7203 23.4459 24.7237 23.4422C24.746 23.4199 24.767 23.3963 24.7866 23.3715C24.8212 23.3279 24.8519 23.2815 24.8785 23.2327C25.1948 22.6577 25.5263 22.091 25.8726 21.5336L25.9202 21.4575L25.9682 21.3812C25.9922 21.3428 26.0163 21.3046 26.0404 21.267L26.0648 21.229L26.1135 21.1532C26.1787 21.0522 26.2442 20.9523 26.3101 20.8534L26.3594 20.7797C26.4583 20.6333 26.5571 20.4907 26.6547 20.3551L26.7035 20.2882C26.8097 20.1415 26.9204 19.9981 27.0353 19.8582L27.081 19.8035C27.0885 19.7943 27.0954 19.7854 27.1037 19.7765L27.1484 19.7247C27.1559 19.7161 27.163 19.7077 27.1707 19.6995L27.2141 19.6505L27.2359 19.6269C27.2569 19.6041 27.2782 19.5816 27.2999 19.5593C27.3144 19.5449 27.3278 19.5304 27.3419 19.517C27.4238 19.4331 27.5142 19.358 27.6116 19.2928L27.6341 19.2784L27.6569 19.2639C27.6714 19.2548 27.6861 19.2461 27.7012 19.2379C28.0832 19.0211 28.3997 19.0051 28.5817 19.1871C28.692 19.2975 28.753 19.4803 28.7497 19.7345C28.7497 19.7458 28.7497 19.757 28.7488 19.7686V19.7812C28.7488 19.7927 28.7478 19.8045 28.747 19.8163C28.747 19.8307 28.7452 19.8452 28.7438 19.8596C28.7423 19.8742 28.7417 19.8851 28.7402 19.8979C28.7402 19.9016 28.7394 19.9054 28.7389 19.9091C28.7378 19.9204 28.7363 19.9319 28.7349 19.9432C28.7349 19.9467 28.7349 19.9501 28.7334 19.9537C28.7318 19.969 28.7295 19.9844 28.7268 19.9996C28.725 20.0136 28.7227 20.0277 28.72 20.0418C28.7189 20.0498 28.7173 20.0578 28.716 20.0658C28.7118 20.0888 28.7063 20.1116 28.6996 20.1339C28.6872 20.1756 28.672 20.2165 28.6541 20.2562C28.6463 20.2735 28.6381 20.2908 28.6297 20.3078C28.6122 20.3428 28.5925 20.3787 28.5708 20.4159C28.56 20.4342 28.5488 20.4531 28.5369 20.472L28.5188 20.5007C28.5004 20.5297 28.4811 20.5589 28.4611 20.5885C28.441 20.6181 28.4196 20.6483 28.3964 20.6788C28.3665 20.7196 28.335 20.7611 28.3017 20.8031L28.2765 20.835C28.2053 20.9237 28.1322 21.011 28.0575 21.0968L27.9982 21.1639L27.968 21.1978C27.9268 21.2439 27.8854 21.2896 27.8437 21.335L27.8117 21.3696C27.7905 21.3925 27.7684 21.4158 27.7472 21.4389C27.7256 21.4624 27.7036 21.4856 27.6816 21.5089L27.615 21.579L27.5476 21.6493C27.5252 21.6728 27.5025 21.6965 27.4798 21.72L27.3425 21.8614C26.6872 22.5336 25.9966 23.2035 25.7629 23.6211C25.7474 23.6484 25.7333 23.6763 25.7206 23.7049C25.6874 23.7809 25.6735 23.8459 25.6829 23.8984C25.686 23.9157 25.6921 23.9323 25.701 23.9474C25.7143 23.9702 25.7303 23.9912 25.7487 24.0099C25.7573 24.0183 25.7661 24.0262 25.7758 24.0334C25.8238 24.0676 25.882 24.0852 25.941 24.0835H25.9594L25.9783 24.0822L25.9974 24.0799L26.0131 24.0776C26.0152 24.0775 26.0173 24.077 26.0194 24.0765L26.0338 24.0738L26.0377 24.0728L26.0535 24.0694L26.0592 24.0679L26.0761 24.0636L26.0963 24.0576C26.1096 24.0536 26.1228 24.049 26.1364 24.044C26.1657 24.0337 26.1943 24.0217 26.2222 24.0083C26.2293 24.0049 26.2366 24.0017 26.2436 23.998L26.2651 23.9873C26.2932 23.9731 26.3211 23.9577 26.3493 23.9411C26.3717 23.9278 26.394 23.9142 26.4163 23.8999L26.438 23.8855C26.4451 23.8809 26.4524 23.8763 26.4595 23.8709L26.481 23.8565L26.4923 23.8486L26.5233 23.827C26.5522 23.8069 26.5792 23.7864 26.6067 23.7656L26.6091 23.7638L26.6524 23.7302C26.7118 23.6833 26.7682 23.6361 26.8191 23.5917L26.853 23.5618L26.8562 23.5588L26.8739 23.5432C26.9156 23.5058 26.9527 23.4709 26.9838 23.442L26.9964 23.4297L27.0269 23.4008L27.0452 23.383L27.0515 23.3765L27.0533 23.3748C27.0688 23.3593 27.0688 23.3592 27.0843 23.3436L27.0856 23.3423L27.0914 23.3371C27.0932 23.3352 27.0956 23.3332 27.0983 23.3308L27.1006 23.3287L27.1067 23.3232L27.1396 23.2943L27.158 23.2776C27.167 23.2699 27.1769 23.261 27.1869 23.2515L27.2091 23.2321C27.2129 23.2288 27.2168 23.2251 27.2208 23.2216L27.244 23.2014L27.2781 23.1716L27.296 23.1559C27.3663 23.0947 27.452 23.0208 27.5501 22.9376L27.5903 22.9037L27.6569 22.8479L27.7248 22.791C27.8137 22.7173 27.9093 22.6389 28.0105 22.5575L28.0769 22.5041C28.1335 22.4592 28.1917 22.4131 28.2505 22.3669C28.2741 22.3483 28.2982 22.3298 28.3227 22.3113C28.383 22.2648 28.4436 22.2184 28.5044 22.1727C28.6431 22.0679 28.7861 21.963 28.9307 21.8607L28.993 21.8176C29.0363 21.7875 29.0796 21.7576 29.1231 21.7284L29.1623 21.7017C29.2401 21.6494 29.3185 21.5981 29.3975 21.548L29.4368 21.5233L29.4757 21.499C29.5147 21.475 29.5536 21.451 29.5921 21.4279L29.6307 21.405L29.7081 21.3599C29.7335 21.3452 29.7587 21.3308 29.7839 21.3166L29.7991 21.308L29.8592 21.2752C29.8841 21.2616 29.9092 21.2485 29.9339 21.2358L29.9711 21.2167L30.0069 21.1984C30.0891 21.1572 30.1726 21.1191 30.2576 21.0842C30.2693 21.0793 30.2807 21.0746 30.2922 21.0696C30.315 21.0601 30.3376 21.0514 30.3601 21.0436C30.3825 21.036 30.4047 21.0281 30.4265 21.0203C30.4464 21.0137 30.4656 21.0076 30.4844 21.0018L30.4907 20.9998C30.5007 20.9967 30.5107 20.9938 30.5207 20.9913L30.5236 20.9904C30.544 20.9846 30.5644 20.9793 30.5849 20.9744H30.5865C30.6167 20.9672 30.6461 20.961 30.6749 20.9562C30.6848 20.9546 30.6945 20.9529 30.7038 20.9517C30.7318 20.9475 30.7599 20.9445 30.788 20.9426C30.8058 20.9413 30.8238 20.9408 30.8415 20.9408H30.8551C30.8732 20.9408 30.8907 20.942 30.908 20.9437C30.9159 20.9437 30.9238 20.9452 30.9316 20.9463H30.9348C30.9425 20.9471 30.9505 20.9484 30.9581 20.95C30.9657 20.9517 30.9734 20.9528 30.9808 20.9546H30.9834C30.9909 20.9562 30.9978 20.9583 31.0056 20.9604C31.0673 20.977 31.124 21.0084 31.1711 21.0517L31.1753 21.0559L31.1835 21.064L31.1916 21.0725C31.2564 21.1407 31.3101 21.2188 31.3505 21.3038L31.3568 21.3182C31.3705 21.3505 31.3813 21.384 31.3889 21.4182C31.4099 21.5138 31.4043 21.6133 31.3724 21.7058C31.3587 21.746 31.3419 21.7851 31.322 21.8226L31.3088 21.8465C31.2583 21.931 31.1989 22.0098 31.1312 22.0812L31.1166 22.0965C31.0848 22.1303 31.0516 22.1631 31.0175 22.1946C31.0067 22.2048 30.9956 22.215 30.9842 22.2252L30.9671 22.2407C30.9316 22.2722 30.8952 22.3029 30.8583 22.333C30.8519 22.3382 30.8453 22.3433 30.8389 22.3488C30.8133 22.3695 30.7867 22.3905 30.7593 22.4115C30.6646 22.4839 30.5681 22.5538 30.4698 22.6211C30.412 22.6607 30.3522 22.7007 30.2904 22.7412C30.1754 22.8167 30.0595 22.8906 29.9425 22.963C29.9087 22.9838 29.8747 23.005 29.8402 23.026C29.5223 23.2216 29.1698 23.4307 28.7939 23.6581L28.6966 23.7172C28.5901 23.7822 28.4895 23.8443 28.395 23.9032L28.3473 23.9333L28.2571 23.9912C28.2214 24.0138 28.1867 24.0361 28.1529 24.0581C28.1274 24.0744 28.1025 24.0906 28.0781 24.1066L28.0299 24.1382C28.0065 24.1536 27.9832 24.1689 27.9599 24.1846L27.9373 24.199C27.9134 24.215 27.8901 24.2307 27.8675 24.2462L27.8305 24.2714L27.787 24.3016L27.7469 24.3296C27.6836 24.374 27.621 24.4195 27.5589 24.4657L27.5373 24.4822C27.5129 24.5006 27.4893 24.519 27.4665 24.5369L27.4368 24.5607C27.3867 24.6009 27.3413 24.6396 27.3002 24.6764L27.2802 24.6948C27.2687 24.7054 27.2574 24.7159 27.2467 24.7262C27.2391 24.7333 27.2322 24.7406 27.2246 24.7477L27.2141 24.758C27.1909 24.7811 27.1685 24.8049 27.1467 24.8293L27.136 24.8416C27.1122 24.8691 27.0916 24.8954 27.0733 24.9211L27.0652 24.9327C27.0442 24.9635 27.0256 24.9959 27.0098 25.0297L27.0043 25.0415L27.0009 25.0498L26.9981 25.0569L26.9944 25.0667C26.9933 25.0701 26.991 25.0761 26.9897 25.0813C26.9831 25.1005 26.9783 25.1204 26.975 25.1406L26.9734 25.1514L26.9721 25.1613L26.9713 25.1708V25.2216C26.9713 25.2258 26.9713 25.2301 26.9723 25.2345C26.9724 25.2371 26.9728 25.2397 26.9731 25.2422C26.9731 25.2464 26.9742 25.2506 26.9747 25.255L26.9778 25.2728V25.2736C26.9789 25.2792 26.98 25.2849 26.9815 25.2906C26.9829 25.2962 26.9844 25.3025 26.9862 25.3085C26.9914 25.3268 26.9977 25.3449 27.0049 25.3625C27.0049 25.3638 27.0061 25.3652 27.0065 25.3665C27.0085 25.3709 27.0103 25.3754 27.0124 25.3798C27.0203 25.3982 27.0292 25.4161 27.0389 25.4338L27.049 25.452L27.0597 25.4704L27.0709 25.4889C27.0728 25.4919 27.0749 25.4947 27.0773 25.4974L27.081 25.5013L27.0849 25.5049L27.0893 25.5083C27.0922 25.5104 27.0953 25.5121 27.0985 25.5139C27.1017 25.5154 27.1053 25.517 27.1088 25.5183C27.1127 25.5196 27.1166 25.5207 27.1205 25.5217C27.2137 25.5427 27.4054 25.4654 27.66 25.331L27.7057 25.3067L27.7831 25.2645L27.8211 25.2435C27.8479 25.229 27.8756 25.2128 27.9035 25.1968L27.9547 25.1679C28.2914 24.9741 28.6937 24.7251 29.1093 24.482C29.1481 24.4592 29.1872 24.4366 29.2263 24.414L29.3049 24.3639C29.3442 24.3412 29.3833 24.3189 29.4225 24.2969C29.5897 24.2019 29.759 24.1106 29.9302 24.0232L30.0069 23.9842C30.058 23.959 30.1086 23.9344 30.1585 23.9105C30.2554 23.8646 30.3531 23.8211 30.4519 23.7799L30.506 23.758L30.5126 23.7554C30.7994 23.6418 31.0594 23.5715 31.2698 23.5715C31.3154 23.5711 31.3608 23.5748 31.4057 23.5826H31.407C31.4216 23.5852 31.4347 23.5881 31.4479 23.5915H31.4503C31.4697 23.5962 31.4888 23.6022 31.5072 23.6096C31.5219 23.6149 31.5362 23.6212 31.5499 23.6287C31.6102 23.6592 31.6617 23.7043 31.7002 23.7599C31.7034 23.7646 31.7065 23.7694 31.7094 23.7744C31.7236 23.7961 31.7359 23.8189 31.7459 23.8428C31.7519 23.8565 31.7574 23.8708 31.7626 23.8861C31.7678 23.9016 31.7723 23.9165 31.777 23.9325C31.8112 24.055 31.8078 24.1846 31.7673 24.3052Z" fill="#FF9D00"/>
<path fill-rule="evenodd" clip-rule="evenodd" d="M29.8617 15.5275V15.4483C29.8617 8.68404 24.38 3.20056 17.6152 3.20056C10.8508 3.20056 5.36698 8.68436 5.36698 15.4483L5.36682 15.4748C5.36666 15.4924 5.3665 15.5099 5.36682 15.5275C5.36759 15.5539 5.36787 15.5802 5.36763 15.6065L5.3686 15.6647L5.36892 15.6857L5.36973 15.7145C5.37005 15.73 5.37054 15.7454 5.37054 15.7609L5.37215 15.8238L5.37474 15.8976L5.37555 15.9219L5.37878 15.9983V16.0019L5.3833 16.0912V16.0935C5.38492 16.124 5.38654 16.1546 5.38848 16.185C5.39009 16.2132 5.39187 16.2414 5.39381 16.2695L5.39429 16.2745C5.39572 16.2986 5.39733 16.3228 5.39914 16.3469L5.39963 16.3532C5.40124 16.3765 5.40302 16.3999 5.40496 16.423L5.40528 16.4276L5.40852 16.468C5.4182 16.5845 5.42951 16.701 5.44246 16.8172L5.44326 16.8245L5.45296 16.9098L5.46411 16.9997C5.47159 17.0595 5.47958 17.1191 5.48803 17.1787C5.49307 17.2148 5.49831 17.2507 5.50371 17.2865L5.50452 17.2909C5.51659 17.372 5.52962 17.4532 5.54363 17.534C5.58382 17.7685 5.63103 18.0019 5.6852 18.2336L5.68601 18.2373L5.69118 18.2591C5.69603 18.2798 5.70088 18.3005 5.70605 18.3214L5.71494 18.3105C6.0705 17.8855 6.58056 17.6511 7.15122 17.6511C7.6086 17.6511 8.07793 17.8023 8.54807 18.1004C8.85999 18.2986 9.20488 18.6496 9.55979 19.091C9.88819 18.6347 10.3485 18.3317 10.875 18.249C10.9755 18.2331 11.077 18.225 11.1785 18.2249C12.3805 18.2249 13.1043 19.268 13.3778 20.206C13.5127 20.5231 14.1641 21.9665 15.146 22.9429C16.6386 24.4342 17.0121 25.9731 16.2735 27.6208H16.2759C16.3263 27.6263 16.3769 27.6314 16.4277 27.6361C16.4579 27.639 16.4881 27.6419 16.5183 27.6445L16.529 27.6455C16.5511 27.6476 16.5734 27.6495 16.5957 27.6511L16.6571 27.6562C16.7157 27.6607 16.7743 27.6647 16.8333 27.6686L16.8799 27.6713L16.9169 27.6735L16.94 27.6747L17.0121 27.6786L17.0318 27.6794L17.1077 27.6827L17.1919 27.6859L17.2598 27.6878L17.2711 27.6883C17.2853 27.6888 17.2999 27.6894 17.3143 27.6894L17.3296 27.6898C17.425 27.692 17.5202 27.6932 17.6155 27.6932H17.7167L17.7891 27.6924C17.8069 27.6914 17.8245 27.6914 17.8423 27.6914H17.8704L17.8948 27.6909C17.9043 27.6906 17.914 27.6903 17.9236 27.6903H17.9525L18.0092 27.6886L18.0946 27.6857L18.1886 27.6817C18.2156 27.6806 18.2424 27.6793 18.2694 27.6778L18.2984 27.6762L18.3412 27.6738L18.3666 27.6723L18.3855 27.6712L18.4723 27.6654C18.5012 27.6636 18.5301 27.6613 18.559 27.6591L18.6376 27.6529L18.693 27.6482L18.7536 27.6427C18.8159 27.6369 18.8779 27.6308 18.9397 27.6243C18.9791 27.62 19.0182 27.6156 19.0575 27.6109L19.1265 27.6027C18.3994 25.9618 18.7758 24.4298 20.2623 22.9444C21.242 21.9655 21.8934 20.5218 22.0291 20.2048C22.3027 19.2667 23.026 18.2238 24.2282 18.2238C24.3299 18.2239 24.4314 18.2318 24.5317 18.2478C25.0578 18.3306 25.5182 18.6338 25.8471 19.0899C26.2022 18.6485 26.5469 18.2975 26.8588 18.0993C27.329 17.8011 27.7986 17.65 28.2555 17.65C28.7591 17.65 29.2157 17.8326 29.5604 18.1675C29.5793 18.0831 29.5976 17.9988 29.615 17.9141C29.6257 17.8612 29.6362 17.8082 29.6466 17.7551C29.6592 17.6898 29.6711 17.6242 29.6821 17.5585C29.685 17.5408 29.6881 17.523 29.6915 17.505C29.6968 17.4771 29.7015 17.4494 29.7059 17.4213L29.7077 17.4107L29.7191 17.3375L29.7304 17.2633L29.7306 17.2625C29.7351 17.2314 29.7398 17.2002 29.744 17.169C29.7474 17.1454 29.7506 17.1219 29.7537 17.0981L29.7557 17.0845L29.7657 17.0073L29.7739 16.9415C29.7789 16.8982 29.7838 16.8549 29.7885 16.8114C29.7906 16.7941 29.7923 16.7766 29.7941 16.7592L29.7957 16.7451C29.7988 16.7162 29.8016 16.6874 29.8041 16.6585L29.8106 16.5913C29.824 16.4423 29.8348 16.2932 29.8433 16.1439V16.1429L29.8476 16.0638L29.8484 16.046L29.8517 15.9708C29.8529 15.9425 29.8541 15.9139 29.855 15.885V15.8829L29.8559 15.8621C29.8567 15.8443 29.8573 15.8265 29.8573 15.8089L29.8576 15.8016C29.8583 15.7851 29.8589 15.768 29.8589 15.751L29.8594 15.7365C29.8599 15.7195 29.8604 15.7027 29.8604 15.6857L29.8607 15.6713C29.8612 15.6497 29.8617 15.6282 29.8617 15.6065V15.5275ZM14.5775 27.763C15.5473 26.3404 15.4786 25.2728 14.1477 23.9427C12.8168 22.6126 12.0422 20.6674 12.0422 20.6674C12.0422 20.6674 11.7531 19.5374 11.0937 19.6413C10.4343 19.745 9.95058 21.4335 11.3311 22.467C12.7116 23.5005 11.0565 24.2013 10.5251 23.2314C9.99357 22.2614 8.5429 19.7682 7.79058 19.2912C7.03842 18.8143 6.50945 19.0816 6.68674 20.0646C6.77482 20.5525 7.59389 21.3851 8.35914 22.1631C9.13555 22.9526 9.85652 23.6856 9.7025 23.945C9.39656 24.4602 8.31906 23.3397 8.31906 23.3397C8.31906 23.3397 4.94516 20.2695 4.21062 21.0697C3.53361 21.8071 4.57765 22.434 6.1867 23.4002C6.32359 23.4824 6.46452 23.5671 6.60884 23.6544C8.44965 24.7689 8.59284 25.0629 8.33167 25.4845C8.23518 25.6403 7.61894 25.2704 6.86096 24.8153C5.56884 24.0395 3.86492 23.0166 3.62444 23.9322C3.41611 24.7246 4.66961 25.2101 5.80642 25.6505C6.75349 26.0174 7.61975 26.3529 7.49239 26.8083C7.36035 27.2804 6.64456 26.8867 5.86201 26.4562C4.98363 25.9728 4.0212 25.4431 3.70637 26.0408C3.11098 27.1705 7.81304 28.5004 7.85167 28.5101C9.37086 28.9042 13.2289 29.7391 14.5775 27.763ZM20.8262 27.763C19.8562 26.3404 19.925 25.2728 21.2559 23.9427C22.5868 22.6126 23.3616 20.6674 23.3616 20.6674C23.3616 20.6674 23.6506 19.5374 24.31 19.6413C24.9694 19.745 25.4533 21.4335 24.0726 22.467C22.6919 23.5005 24.3472 24.2013 24.8787 23.2314C25.4101 22.2614 26.8601 19.7682 27.6123 19.2912C28.3645 18.8143 28.8936 19.0816 28.7163 20.0646C28.6282 20.5525 27.8091 21.3853 27.0437 22.1633C26.2675 22.9526 25.5465 23.6856 25.7005 23.945C26.0063 24.4602 27.0848 23.3391 27.0848 23.3391C27.0848 23.3391 30.4585 20.2688 31.1931 21.069C31.8701 21.8065 30.8259 22.4335 29.2168 23.3998C29.0799 23.4819 28.9392 23.5665 28.7948 23.6539C26.9539 24.7682 26.8108 25.0624 27.072 25.4839C27.1685 25.6397 27.7847 25.2697 28.5426 24.8148C29.8348 24.039 31.5388 23.016 31.7792 23.9316C31.9876 24.724 30.7341 25.2096 29.5971 25.65C28.65 26.0169 27.7839 26.3522 27.9111 26.8078C28.0432 27.2799 28.7586 26.8861 29.5409 26.4555C30.4193 25.9721 31.3818 25.4423 31.6968 26.0402C32.2922 27.1707 27.5895 28.4991 27.5514 28.509C26.0322 28.9042 22.1741 29.7391 20.8262 27.763Z" fill="#FFD21E"/>
<path fill-rule="evenodd" clip-rule="evenodd" d="M21.5948 12.1142C21.7857 12.1818 21.9277 12.3875 22.0629 12.5831C22.2455 12.8477 22.4155 13.0936 22.6763 12.955C22.9842 12.7914 23.2365 12.5403 23.4015 12.2332C23.5665 11.9262 23.6367 11.5771 23.6032 11.2302C23.5783 10.9708 23.4962 10.7201 23.3627 10.4963C23.2292 10.2724 23.0477 10.081 22.8315 9.93568C22.6151 9.79042 22.3691 9.69497 22.1115 9.6562C21.8537 9.61743 21.5906 9.63632 21.3411 9.71149C21.0073 9.812 20.7109 10.0092 20.4892 10.2781C20.2676 10.547 20.1306 10.8755 20.0955 11.2223C20.0606 11.5691 20.1293 11.9185 20.2928 12.2262C20.4137 12.4536 20.682 12.3465 20.9652 12.2332C21.1872 12.1445 21.4183 12.052 21.5948 12.1142ZM13.2916 12.1144C13.1008 12.182 12.9585 12.3877 12.8234 12.5832C12.6408 12.8477 12.4708 13.0938 12.2099 12.9551C11.9799 12.8328 11.78 12.6608 11.6244 12.4519C11.4688 12.2429 11.3614 12.0021 11.31 11.7466C11.2587 11.4912 11.2645 11.2275 11.3272 10.9746C11.39 10.7218 11.508 10.4859 11.6727 10.2841C11.8377 10.0824 12.0452 9.91973 12.2806 9.80785C12.5159 9.69596 12.7732 9.63765 13.0337 9.63707C13.2942 9.6365 13.5517 9.6937 13.7875 9.80453C14.0233 9.91539 14.2316 10.0771 14.3974 10.2781C14.6191 10.547 14.7562 10.8757 14.7913 11.2225C14.8262 11.5693 14.7575 11.9187 14.5938 12.2264C14.4726 12.4538 14.2043 12.3465 13.9211 12.2332C13.6992 12.1445 13.4681 12.052 13.2916 12.1144ZM20.3103 19.6701C21.6263 18.6332 22.1097 16.9406 22.1097 15.8978C22.1097 15.0736 21.5551 15.333 20.6673 15.7724L20.6174 15.7973C19.8023 16.2009 18.7176 16.7381 17.5268 16.7381C16.3358 16.7381 15.2511 16.2007 14.4363 15.7971C13.5198 15.3432 12.945 15.0584 12.945 15.898C12.945 16.9736 13.4592 18.7399 14.8709 19.7661C15.0571 19.3879 15.3193 19.0523 15.6412 18.7801C15.963 18.5079 16.3376 18.3053 16.7415 18.1845C16.8824 18.1425 17.0275 18.3851 17.1762 18.6334C17.3196 18.873 17.466 19.118 17.6152 19.118C17.7739 19.118 17.93 18.8766 18.0824 18.6408C18.2416 18.3945 18.3968 18.1543 18.5469 18.2023C19.3026 18.4449 19.9347 18.971 20.3103 19.6701Z" fill="#32343D"/>
<path d="M20.308 19.67C19.6226 20.2102 18.7116 20.5723 17.5253 20.5723C16.4106 20.5723 15.5387 20.2527 14.8691 19.766C15.0555 19.388 15.3178 19.0523 15.6396 18.7803C15.9613 18.5082 16.336 18.3054 16.7397 18.1845C17.0165 18.1019 17.3097 19.118 17.6132 19.118C17.9382 19.118 18.2513 18.1083 18.5451 18.2022C19.3005 18.445 19.9324 18.971 20.308 19.67Z" fill="#FF323D"/>
<path fill-rule="evenodd" clip-rule="evenodd" d="M10.1445 13.5808C10.0194 13.665 9.87898 13.7236 9.73121 13.7534C9.58343 13.7831 9.43123 13.7834 9.28334 13.7544C9.13544 13.7251 8.99476 13.6671 8.86934 13.5835C8.74393 13.4998 8.63626 13.3923 8.55249 13.2669C8.46873 13.1417 8.41053 13.0009 8.38123 12.8532C8.35193 12.7053 8.35209 12.5531 8.38171 12.4052C8.41134 12.2575 8.46986 12.117 8.55388 11.9918C8.63793 11.8666 8.74584 11.7593 8.87143 11.676C9.12404 11.5083 9.4328 11.4476 9.73006 11.5072C10.0273 11.5668 10.2889 11.7418 10.4574 11.9939C10.6258 12.246 10.6875 12.5545 10.6288 12.8519C10.5702 13.1494 10.3959 13.4116 10.1445 13.5808ZM26.5343 13.5808C26.4092 13.665 26.2687 13.7236 26.121 13.7534C25.9733 13.7831 25.8211 13.7834 25.6732 13.7544C25.5253 13.7251 25.3845 13.6671 25.2591 13.5835C25.1337 13.4998 25.0261 13.3923 24.9424 13.2669C24.8585 13.1417 24.8003 13.0009 24.771 12.8532C24.7418 12.7053 24.742 12.5531 24.7715 12.4052C24.8011 12.2575 24.8596 12.117 24.9437 11.9918C25.0277 11.8666 25.1357 11.7593 25.2612 11.676C25.5138 11.5083 25.8227 11.4476 26.1199 11.5072C26.4171 11.5668 26.6786 11.7418 26.8472 11.9939C27.0156 12.246 27.0773 12.5545 27.0186 12.8519C26.96 13.1494 26.7858 13.4116 26.5343 13.5808Z" fill="#FFAD03"/>
</svg>
