<svg xmlns="http://www.w3.org/2000/svg" width="142" height="32" fill="none"><path fill="#efedef" d="M40.639 21.818V10.69h2.944v4.143h3.322V10.69h2.944v11.128h-2.944v-4.417h-3.322v4.417zm14.032.205q-1.404 0-2.037-.941Q52 20.122 52 18.53v-5.273h2.945v4.896q0 .822.205 1.096.224.274.651.274.41 0 .685-.171c.275-.171.365-.308.548-.582v-5.513h2.944v8.56h-2.397l-.205-1.13h-.069q-.513.616-1.147.976-.615.36-1.489.36m10.411 3.322q-.976 0-1.797-.223-.822-.206-1.319-.667-.48-.463-.479-1.233 0-1.01 1.198-1.644v-.068a2.5 2.5 0 0 1-.565-.582q-.222-.36-.222-.89 0-.445.257-.873a2.7 2.7 0 0 1 .701-.737v-.068a2.9 2.9 0 0 1-.821-.873 2.55 2.55 0 0 1-.343-1.318q0-1.062.514-1.747.53-.702 1.37-1.027a4.7 4.7 0 0 1 1.78-.343q.753.001 1.37.206h3.184v2.123h-1.232q.05.154.085.394.051.24.051.496 0 1.01-.462 1.644a2.7 2.7 0 0 1-1.25.907 5 5 0 0 1-1.746.291q-.428 0-.959-.12a.64.64 0 0 0-.205.497q0 .273.274.394.291.12.924.12h1.284q1.609 0 2.483.53.89.513.89 1.695a2.4 2.4 0 0 1-.616 1.626q-.6.702-1.712 1.096t-2.637.394m.274-7.978a.85.85 0 0 0 .668-.291q.256-.291.256-.907 0-.6-.256-.874-.257-.29-.668-.29c-.41 0-.496.096-.667.29q-.257.274-.257.874 0 .615.257.907a.85.85 0 0 0 .667.29m.206 6.163q.718 0 1.198-.222.48-.206.48-.565 0-.343-.309-.428-.291-.086-.839-.086h-.667q-.514 0-.788-.034a2.3 2.3 0 0 1-.445-.069q-.308.308-.308.617 0 .41.462.599.48.188 1.216.188m8.866 1.815q-.976 0-1.798-.223-.821-.206-1.318-.667-.48-.463-.48-1.233 0-1.01 1.2-1.644v-.068a2.5 2.5 0 0 1-.566-.582q-.222-.36-.222-.89 0-.445.256-.873.274-.429.703-.737v-.068a2.9 2.9 0 0 1-.822-.873 2.55 2.55 0 0 1-.343-1.318q0-1.062.514-1.747.53-.702 1.37-1.027a4.7 4.7 0 0 1 1.78-.343q.753.001 1.37.206h3.184v2.123h-1.233q.052.154.086.394.051.24.051.496 0 1.01-.462 1.644a2.7 2.7 0 0 1-1.25.907 5 5 0 0 1-1.746.291q-.428 0-.959-.12a.64.64 0 0 0-.205.497q0 .273.274.394.291.12.924.12h1.284q1.609 0 2.483.53.89.513.89 1.695a2.4 2.4 0 0 1-.616 1.626q-.6.702-1.712 1.096t-2.637.394m.274-7.978a.85.85 0 0 0 .668-.291q.256-.291.256-.907 0-.6-.256-.874a.85.85 0 0 0-.668-.29.85.85 0 0 0-.668.29q-.256.274-.257.874 0 .615.257.907a.85.85 0 0 0 .668.29m.205 6.163q.72 0 1.199-.222.48-.206.48-.565 0-.343-.309-.428-.291-.086-.839-.086h-.668a7 7 0 0 1-.787-.034 2.3 2.3 0 0 1-.445-.069q-.309.308-.308.617 0 .41.462.599.48.188 1.215.188m5.751-1.712v-8.56h2.945v8.56zm1.472-9.621q-.718 0-1.164-.394-.445-.411-.445-1.079c0-.668.148-.799.445-1.061q.445-.411 1.164-.411.72 0 1.164.41.446.395.446 1.062c0 .667-.149.805-.445 1.079q-.445.394-1.165.394m3.46 9.621v-8.56h2.397l.205 1.027h.069q.513-.495 1.164-.856.668-.376 1.54-.377 1.422 0 2.038.96.633.941.633 2.533v5.273h-2.944v-4.896q0-.822-.206-1.096-.205-.274-.65-.274-.41 0-.685.171a4.6 4.6 0 0 0-.616.48v5.615zm13.08 3.527q-.976 0-1.797-.223-.823-.206-1.318-.667-.48-.463-.48-1.233 0-1.01 1.199-1.644v-.068a2.5 2.5 0 0 1-.565-.582q-.223-.36-.223-.89 0-.445.257-.873a2.7 2.7 0 0 1 .702-.737v-.068a2.9 2.9 0 0 1-.822-.873 2.55 2.55 0 0 1-.342-1.318q0-1.062.513-1.747.53-.702 1.37-1.027a4.7 4.7 0 0 1 1.78-.343q.753.001 1.37.206h3.184v2.123h-1.232q.05.154.085.394.052.24.052.496 0 1.01-.463 1.644-.463.616-1.249.907a5 5 0 0 1-1.747.291q-.428 0-.958-.12a.64.64 0 0 0-.206.497q0 .273.274.394.29.12.925.12h1.284q1.609 0 2.482.53.89.513.89 1.695a2.4 2.4 0 0 1-.616 1.626q-.6.702-1.712 1.096t-2.637.394m.274-7.978a.85.85 0 0 0 .668-.291q.257-.291.257-.907 0-.6-.257-.874-.257-.29-.668-.29c-.41 0-.496.096-.667.29q-.257.274-.257.874 0 .615.257.907a.85.85 0 0 0 .667.29m.206 6.163q.72 0 1.198-.222.48-.206.479-.565 0-.343-.308-.428-.29-.086-.839-.086h-.667q-.514 0-.788-.034a2.3 2.3 0 0 1-.445-.069q-.308.308-.308.617 0 .41.462.599.48.188 1.216.188m9.417-1.712V10.69h7.259v2.465h-4.314v2.123h3.698v2.465h-3.698v4.075zm10.479.205q-.804 0-1.386-.359a2.56 2.56 0 0 1-.873-.976 2.8 2.8 0 0 1-.308-1.3q0-1.336 1.095-2.09 1.097-.77 3.561-1.027-.103-.89-1.198-.89-.463 0-.976.188a7.6 7.6 0 0 0-1.181.531l-1.028-1.917a8.5 8.5 0 0 1 1.832-.84 6.5 6.5 0 0 1 1.935-.29q1.678 0 2.619.958.942.942.942 3.048v4.76h-2.397l-.205-.823h-.069q-.514.463-1.096.754a2.9 2.9 0 0 1-1.267.274m1.028-2.26q.359 0 .599-.153.24-.171.462-.428v-1.165q-1.044.154-1.455.463-.394.308-.394.667 0 .617.788.617m9.795 2.26q-1.216 0-2.192-.53a4 4 0 0 1-1.558-1.524q-.564-1.01-.565-2.431 0-1.42.634-2.414a4.3 4.3 0 0 1 1.695-1.54 4.9 4.9 0 0 1 2.26-.531 3.8 3.8 0 0 1 2.499.89l-1.369 1.883a1.8 1.8 0 0 0-.497-.325 1.3 1.3 0 0 0-.462-.086q-.822 0-1.284.582-.462.565-.462 1.541 0 .975.479 1.558.478.565 1.164.565.36 0 .702-.154.351-.166.668-.394l1.13 1.918q-.635.565-1.404.787a5.6 5.6 0 0 1-1.438.206m7.659 0q-1.25 0-2.26-.53a3.97 3.97 0 0 1-1.575-1.524q-.582-1.01-.582-2.431 0-1.386.582-2.38.6-1.01 1.541-1.558a3.9 3.9 0 0 1 1.986-.547q1.267 0 2.089.565.839.547 1.232 1.489.411.942.411 2.089 0 .375-.051.736a5 5 0 0 1-.069.496h-4.879q.206.77.736 1.079.531.29 1.25.29.822 0 1.746-.513l.959 1.747q-.684.48-1.541.736a5.5 5.5 0 0 1-1.575.257m-1.609-5.512h2.534q0-.496-.257-.856-.24-.377-.907-.377-.48 0-.856.291-.378.291-.514.942"/><path fill="#fff" d="M34.309 23.449a3 3 0 0 0-.416-.92q.06-.223.091-.451c.134-.966-.2-1.85-.832-2.534a2.9 2.9 0 0 0-1.096-.772 14.7 14.7 0 0 0 .215-5.566 14.7 14.7 0 0 0-.986-3.489 14.87 14.87 0 0 0-4.756-6.063q-.569-.423-1.173-.793A14.65 14.65 0 0 0 17.725.733C9.597.733 3.009 7.32 3.009 15.448c0 1.133.131 2.263.392 3.366-.35.151-.684.387-.994.73-.631.683-.966 1.564-.832 2.53q.03.23.092.455a3.1 3.1 0 0 0-.416.92c-.194.737-.13 1.402.116 1.984a2.92 2.92 0 0 0 .148 2.277c.254.515.617.913 1.064 1.269.533.423 1.199.782 2.002 1.127.96.409 2.13.793 2.661.934 1.375.356 2.693.582 4.03.593 1.902.017 3.542-.43 4.715-1.576q.866.106 1.738.106.92-.002 1.835-.116c1.171 1.153 2.817 1.605 4.727 1.586 1.336-.01 2.654-.236 4.025-.592.536-.141 1.705-.525 2.665-.934.803-.346 1.47-.705 2.005-1.127.444-.356.807-.755 1.061-1.27a2.92 2.92 0 0 0 .152-2.276c.244-.583.307-1.249.114-1.985m-1.364 1.935c.27.512.287 1.091.049 1.63-.362.818-1.26 1.462-3.003 2.153-1.084.43-2.076.705-2.085.707-1.434.372-2.73.561-3.853.561-1.86 0-3.242-.513-4.12-1.526a13.8 13.8 0 0 1-4.484.026c-.878.996-2.254 1.5-4.097 1.5-1.123 0-2.42-.189-3.853-.56-.01-.003-1.001-.278-2.086-.708-1.743-.691-2.641-1.335-3.002-2.152a1.84 1.84 0 0 1 .13-1.77 2.07 2.07 0 0 1-.28-1.672c.107-.407.329-.746.63-.99a2.1 2.1 0 0 1-.28-.78c-.086-.6.113-1.199.561-1.687.349-.38.842-.59 1.389-.59h.014a13.7 13.7 0 0 1-.62-4.078c0-7.543 6.116-13.658 13.66-13.658s13.659 6.114 13.659 13.658c0 1.386-.21 2.765-.624 4.088q.098-.01.194-.01c.546 0 1.04.21 1.388.59.449.488.648 1.088.561 1.688-.04.276-.134.541-.28.78.302.243.523.582.63.99a2.07 2.07 0 0 1-.279 1.671q.044.067.08.139"/><path fill="#ff9d00" d="M32.863 25.246a2.07 2.07 0 0 0 .279-1.672 1.87 1.87 0 0 0-.63-.99c.145-.238.24-.504.28-.78.086-.6-.113-1.2-.561-1.688a1.86 1.86 0 0 0-1.389-.59q-.096 0-.194.01c.414-1.323.624-2.702.623-4.088 0-7.543-6.115-13.658-13.659-13.658-7.543 0-13.658 6.115-13.658 13.658a13.7 13.7 0 0 0 .62 4.078h-.015c-.547 0-1.04.21-1.39.59-.447.488-.646 1.088-.56 1.688.04.276.135.541.28.78a1.87 1.87 0 0 0-.63.99 2.07 2.07 0 0 0 .28 1.671 1.84 1.84 0 0 0-.13 1.77c.361.817 1.26 1.461 3.003 2.153 1.084.43 2.076.704 2.085.707 1.434.372 2.73.56 3.853.56 1.843 0 3.219-.504 4.097-1.5 1.486.236 3.001.227 4.485-.025.877 1.013 2.26 1.526 4.12 1.526 1.122 0 2.418-.19 3.852-.561.009-.003 1.001-.277 2.086-.707 1.743-.692 2.64-1.336 3.002-2.153a1.84 1.84 0 0 0-.13-1.77m-18.044 2.13a6 6 0 0 1-.243.387 2.5 2.5 0 0 1-.872.775c-.663.361-1.502.488-2.354.488-1.346 0-2.726-.315-3.5-.516-.037-.01-4.74-1.338-4.145-2.47.1-.19.265-.265.473-.265.838 0 2.365 1.248 3.02 1.248.147 0 .25-.062.293-.214.28-1.003-4.25-1.425-3.868-2.877.067-.257.25-.36.507-.36 1.108-.001 3.595 1.948 4.116 1.948q.06 0 .084-.036l.006-.011c.245-.403.105-.697-1.568-1.721l-.161-.098c-1.84-1.114-3.133-1.785-2.398-2.585.084-.092.204-.133.35-.133.172 0 .381.058.612.155.972.41 2.32 1.528 2.882 2.016.166.144.264.232.264.232s.713.741 1.144.741c.1 0 .183-.039.24-.135.306-.516-2.838-2.898-3.016-3.881-.12-.666.085-1.004.463-1.004.18 0 .4.077.642.23.751.478 2.202 2.971 2.733 3.94a.86.86 0 0 0 .756.464c.544 0 .969-.54.05-1.227-1.38-1.034-.896-2.722-.237-2.826a1 1 0 0 1 .085-.007c.599 0 .863 1.033.863 1.033s.775 1.945 2.106 3.275c1.208 1.207 1.376 2.198.673 3.434m4.303.227-.069.009-.117.013-.186.018-.061.006-.056.005-.078.006-.087.006-.087.006-.019.001-.068.004-.029.002-.08.004-.095.004-.085.002-.057.002h-.029l-.053.001h-.028l-.053.001-.072.001h-.102q-.119 0-.237-.002l-.064-.002-.054-.001-.068-.002-.085-.003-.075-.004h-.02l-.072-.004-.06-.004-.047-.003-.176-.012-.061-.005-.078-.006-.09-.009-.152-.015h-.003c.739-1.648.365-3.187-1.127-4.678-.979-.978-1.63-2.421-1.765-2.738-.274-.938-.998-1.981-2.2-1.981q-.152 0-.303.024c-.527.082-.987.386-1.315.842-.355-.442-.7-.793-1.012-.99-.47-.299-.94-.45-1.397-.45-.57 0-1.08.234-1.436.66l-.009.01-.02-.084v-.004q-.102-.433-.171-.874l-.001-.006-.01-.067-.016-.108-.012-.09L5.463 17l-.01-.09-.01-.085-.002-.007a13 13 0 0 1-.037-.394l-.006-.076-.004-.064-.001-.014-.006-.084-.005-.092-.004-.092-.003-.08-.001-.024-.003-.074-.001-.063-.002-.075-.001-.079-.001-.079v-.079C5.366 8.684 10.85 3.2 17.614 3.2s12.249 5.484 12.249 12.248v.158l-.002.08-.001.065q0 .03-.002.058l-.002.074v.002l-.007.16v.018l-.005.08-.004.064q-.013.225-.035.451v.002l-.009.085-.021.196-.008.066-.01.077-.012.085-.014.094-.01.074-.014.084-.015.084-.014.083-.03.167a16 16 0 0 1-.087.412 1.84 1.84 0 0 0-1.305-.517c-.456 0-.926.15-1.396.449-.312.198-.657.55-1.012.99-.329-.456-.79-.759-1.315-.842a2 2 0 0 0-.304-.024c-1.202 0-1.926 1.043-2.2 1.982-.135.316-.786 1.76-1.766 2.74-1.491 1.486-1.868 3.018-1.14 4.659m12.645-3.298-.005.015-.01.027a.8.8 0 0 1-.16.248l-.023.025-.036.037c-.217.216-.549.405-.924.578q-.063.03-.129.058l-.043.02-.088.037-.09.037-.09.038c-.21.086-.427.17-.638.25l-.09.036-.089.035-.175.069-.086.035-.084.034-.042.017-.081.035c-.62.266-1.066.537-.973.873a.34.34 0 0 0 .072.135c.11.114.31.096.564.005l.063-.024.043-.017.022-.009q.087-.037.182-.082.023-.01.047-.023c.31-.15.66-.355 1.007-.54l.16-.084q.13-.068.264-.13c.33-.155.639-.265.888-.265q.176-.002.305.08l.015.009a.5.5 0 0 1 .152.177c.123.233.02.475-.22.712-.232.228-.592.451-1 .658l-.092.045c-1.217.598-2.81 1.048-2.833 1.054a18 18 0 0 1-1.716.363l-.102.015-.016.003q-.232.035-.467.062h-.014q-.428.051-.866.066h-.005q-.156.006-.314.006h-.12q-.24-.004-.478-.022h-.012l-.17-.016a6 6 0 0 1-.293-.039l-.117-.02-.053-.01h-.004l-.168-.036q-.048-.01-.096-.023l-.02-.005-.046-.012-.009-.002-.05-.015-.054-.016-.006-.001-.047-.015-.053-.017-.044-.014-.031-.012-.092-.033-.029-.011-.023-.01-.137-.058-.03-.014-.005-.002-.032-.015-.062-.03-.006-.004-.03-.015a2 2 0 0 1-.155-.089l-.028-.017-.041-.026-.036-.024q-.02-.014-.04-.027l-.023-.017-.072-.054-.038-.029-.08-.068-.002-.001-.076-.07-.001-.001-.039-.037-.037-.039-.07-.077-.004-.005a2 2 0 0 1-.164-.212l-.02-.03-.04-.059-.037-.058a3 3 0 0 1-.093-.15l-.03-.052q-.01-.015-.017-.03l-.018-.03-.009-.016-.005-.01-.032-.059-.015-.026-.014-.027-.015-.028-.027-.056-.014-.028-.027-.059-.01-.023-.036-.082-.022-.055a3 3 0 0 1-.059-.161l-.015-.049a2 2 0 0 1-.062-.242 2 2 0 0 1-.025-.157 2 2 0 0 1-.014-.155l-.001-.026-.002-.051c-.009-.69.34-1.355 1.088-2.102 1.33-1.33 2.106-3.275 2.106-3.275s.02-.082.064-.199a3 3 0 0 1 .104-.244l.007-.012q.04-.08.088-.157l.022-.035a2 2 0 0 1 .14-.176.7.7 0 0 1 .265-.18l.013-.003.055-.015h.005a1 1 0 0 1 .064-.01h.035q.043 0 .086.006c.12.02.234.09.332.2l.013.016a1 1 0 0 1 .142.218l.02.042.01.022.018.044a1.6 1.6 0 0 1 .113.566v.134l-.003.052a2 2 0 0 1-.124.56l-.022.055a2 2 0 0 1-.205.373l-.018.026q-.108.15-.238.28a2.5 2.5 0 0 1-.275.237 2 2 0 0 0-.273.239c-.243.255-.3.48-.245.65l.023.056q.03.06.078.108l.008.009.028.024.01.008a1 1 0 0 0 .074.048q.011.008.023.012a.6.6 0 0 0 .112.043l.01.003.015.004.013.003.013.003.013.003.013.002.029.004.01.002.016.001.01.001.017.002h.1l.019-.002.022-.002.021-.002.014-.002a.8.8 0 0 0 .34-.13 1 1 0 0 0 .104-.082l.023-.021.01-.01a.97.97 0 0 0 .155-.21q.475-.863.995-1.7l.047-.076.048-.076.072-.114.025-.038.048-.076.197-.3.05-.073q.148-.221.295-.425l.048-.067q.16-.22.332-.43l.046-.055q.01-.014.023-.027l.044-.051.023-.026.043-.049.022-.023.064-.068.042-.042q.123-.126.27-.224l.022-.015.023-.014.044-.026c.382-.217.699-.233.88-.05.111.11.172.292.169.546l-.001.035v.012l-.002.035q0 .023-.003.044l-.004.038-.001.011-.004.034q0 .006-.002.01a1 1 0 0 1-.013.089l-.004.024-.016.068a1 1 0 0 1-.07.174 2 2 0 0 1-.093.164l-.018.029a4 4 0 0 1-.217.302l-.026.032a9 9 0 0 1-.219.262l-.059.067-.03.034-.124.137-.032.035-.065.069-.065.07-.067.07-.067.07-.068.071-.138.141c-.655.673-1.345 1.342-1.58 1.76a1 1 0 0 0-.041.084.35.35 0 0 0-.038.193q.005.026.018.05a.3.3 0 0 0 .075.085.27.27 0 0 0 .165.05h.038l.018-.003.016-.002.006-.002.015-.002.004-.001.015-.004.006-.001.017-.004.02-.006.04-.014a1 1 0 0 0 .086-.036l.022-.01.021-.01a2 2 0 0 0 .151-.088l.022-.015.021-.014.022-.015.011-.007.031-.022q.043-.03.084-.061l.002-.002.043-.034a5 5 0 0 0 .167-.138l.034-.03.003-.003.018-.016q.063-.056.11-.101l.012-.012.03-.03.02-.017.005-.007.002-.001.031-.031.002-.002.005-.005.007-.006.003-.002.006-.006.033-.029.018-.016.029-.027.022-.019.012-.01.023-.02.034-.03.018-.016.254-.218.04-.034.067-.056.068-.057.285-.234.067-.053.246-.193a19 19 0 0 1 .608-.45l.062-.043.13-.09.04-.026q.115-.08.234-.154l.04-.025.039-.024.116-.071.039-.023.077-.045q.037-.023.076-.043l.015-.009.06-.033.075-.04.037-.018.036-.019a4 4 0 0 1 .25-.114l.035-.014a1 1 0 0 1 .134-.05l.058-.018.007-.002.03-.009h.003l.06-.017h.002l.089-.018.029-.004a1 1 0 0 1 .137-.011h.014q.027 0 .053.003l.024.002h.003l.023.004.023.005h.002l.023.005a.4.4 0 0 1 .165.092l.004.004.008.008.009.008a.9.9 0 0 1 .158.232l.007.014a.532.532 0 0 1 .016.388 1 1 0 0 1-.051.117l-.013.023a1.3 1.3 0 0 1-.178.235l-.014.015a2 2 0 0 1-.133.13l-.017.015-.109.092-.02.016-.079.062a7 7 0 0 1-.469.33q-.172.114-.348.222l-.102.063c-.318.196-.67.405-1.046.632l-.097.06q-.16.096-.302.185l-.048.03-.09.058-.179.116-.048.031q-.036.023-.07.047l-.023.014-.07.047-.037.025-.043.03-.04.029q-.095.066-.188.136l-.022.016-.07.055-.03.024a3 3 0 0 0-.137.115l-.02.019-.033.031-.022.022-.01.01-.068.071-.011.013a1 1 0 0 0-.063.08l-.008.01a1 1 0 0 0-.055.098l-.006.012-.003.008-.003.007-.004.01-.004.014a.4.4 0 0 0-.015.06l-.002.01v.01l-.002.01v.05l.001.013.001.008.002.013.003.018.003.018.005.017.019.054.001.004.006.014.027.054.01.018.01.018.012.019.006.008.004.004.004.004.004.003.01.006.021.008c.094.02.285-.057.54-.191l.046-.024.077-.042.038-.022.082-.046.052-.03c.336-.193.739-.442 1.154-.685l.117-.068.079-.05.117-.067q.252-.142.508-.274l.077-.039.151-.074q.145-.068.294-.13l.054-.022.007-.003c.286-.113.546-.184.757-.184q.067 0 .136.012h.001l.04.008h.003a.4.4 0 0 1 .1.038.4.4 0 0 1 .196.214 1 1 0 0 1 .031.09.63.63 0 0 1-.01.372"/><path fill="#ffd21e" fill-rule="evenodd" d="M29.862 15.528v-.08c0-6.764-5.482-12.247-12.247-12.247S5.367 8.684 5.367 15.448v.158l.002.059v.05l.002.046.001.063.003.074v.024l.004.076v.004l.004.09v.002l.005.091.006.085v.005l.005.072v.006l.006.07v.005l.004.04q.014.175.033.35l.001.007.01.085.011.09.04.287v.004l.04.243q.06.352.141.7l.001.003.005.022.015.062.009-.01c.356-.425.866-.66 1.436-.66.458 0 .927.151 1.397.45.312.198.657.549 1.012.99.328-.456.789-.76 1.315-.842q.15-.024.304-.024c1.202 0 1.925 1.043 2.199 1.981.135.317.786 1.76 1.768 2.737 1.493 1.491 1.866 3.03 1.128 4.678h.002l.242.024h.011l.067.006.061.005.176.013.047.002.037.003h.023l.072.005h.02l.076.004.084.003.068.002h.011l.043.001h.016q.142.004.286.004h.173q.027-.003.053-.002h.111l.056-.002.086-.003.094-.004.08-.004.03-.002.042-.002.026-.002h.019l.086-.007q.044-.002.087-.006l.079-.006.055-.005.06-.005.305-.032.069-.008c-.728-1.641-.351-3.173 1.135-4.659.98-.979 1.631-2.422 1.767-2.74.274-.937.997-1.98 2.2-1.98q.15 0 .303.024c.526.083.986.386 1.315.842.355-.442.7-.793 1.012-.99.47-.299.94-.45 1.397-.45.503 0 .96.183 1.304.517a15 15 0 0 0 .146-.746l.002-.01.011-.074.011-.074.014-.094.01-.07.002-.015.01-.077.008-.066.014-.13q.004-.025.006-.052l.002-.014.008-.087.007-.067q.02-.223.032-.447v-.001l.005-.08v-.017l.004-.075q0-.043.003-.086v-.022q.002-.029.002-.054v-.007l.002-.051v-.015l.001-.05v-.015l.002-.065zM14.578 27.763c.97-1.423.9-2.49-.43-3.82s-2.106-3.276-2.106-3.276-.289-1.13-.948-1.026c-.66.104-1.143 1.792.237 2.826s-.275 1.734-.806.764-1.982-3.463-2.734-3.94c-.753-.477-1.282-.21-1.104.774.088.487.907 1.32 1.672 2.098.777.79 1.498 1.523 1.343 1.782-.305.515-1.383-.605-1.383-.605s-3.374-3.07-4.108-2.27c-.677.737.367 1.364 1.976 2.33l.422.254c1.84 1.115 1.984 1.409 1.723 1.83-.097.156-.713-.214-1.471-.669-1.292-.776-2.996-1.798-3.237-.883-.208.793 1.046 1.278 2.182 1.719.947.366 1.814.702 1.686 1.157-.132.472-.847.079-1.63-.352-.878-.483-1.84-1.013-2.156-.415-.595 1.13 4.107 2.46 4.146 2.47 1.519.393 5.377 1.228 6.725-.748m6.248 0c-.97-1.423-.901-2.49.43-3.82s2.106-3.276 2.106-3.276.289-1.13.948-1.026c.66.104 1.143 1.792-.237 2.826s.274 1.734.806.764c.531-.97 1.981-3.463 2.733-3.94s1.282-.21 1.104.774c-.088.487-.907 1.32-1.672 2.098-.777.79-1.498 1.523-1.344 1.782.306.515 1.385-.606 1.385-.606s3.373-3.07 4.108-2.27c.677.738-.367 1.365-1.976 2.33l-.422.255c-1.841 1.114-1.984 1.408-1.723 1.83.097.156.713-.214 1.47-.67 1.293-.775 2.997-1.798 3.237-.882.209.792-1.045 1.278-2.182 1.718-.947.367-1.813.702-1.686 1.158.132.472.848.078 1.63-.352.878-.484 1.84-1.014 2.156-.416.595 1.13-4.108 2.46-4.146 2.469-1.519.395-5.377 1.23-6.725-.746" clip-rule="evenodd"/><path fill="#32343d" fill-rule="evenodd" d="M21.595 12.114c.19.068.333.273.468.47.183.264.353.51.613.371a1.761 1.761 0 1 0-2.383-.729c.12.228.389.12.672.007.222-.089.453-.181.63-.119m-8.303 0c-.191.068-.334.274-.469.47-.182.264-.352.51-.613.371a1.762 1.762 0 1 1 2.384-.729c-.121.228-.39.12-.673.007-.222-.089-.453-.181-.63-.119m7.018 7.556c1.316-1.037 1.8-2.73 1.8-3.772 0-.824-.555-.565-1.443-.126l-.05.025c-.815.404-1.9.941-3.09.941-1.191 0-2.276-.537-3.09-.94-.917-.455-1.492-.74-1.492.1 0 1.076.514 2.842 1.926 3.868a3.06 3.06 0 0 1 1.87-1.582c.141-.042.286.201.435.45.144.239.29.484.44.484.158 0 .314-.241.466-.477.16-.247.315-.487.465-.439a3.07 3.07 0 0 1 1.763 1.468" clip-rule="evenodd"/><path fill="#ff323d" d="M20.308 19.67c-.685.54-1.596.902-2.783.902-1.114 0-1.986-.32-2.656-.806a3.07 3.07 0 0 1 1.87-1.581c.278-.083.57.933.874.933.325 0 .638-1.01.932-.916a3.07 3.07 0 0 1 1.763 1.468"/><path fill="#ffad03" fill-rule="evenodd" d="M10.145 13.58a1.146 1.146 0 1 1-1.28-1.9 1.146 1.146 0 0 1 1.28 1.9m16.39 0a1.146 1.146 0 1 1-1.28-1.901 1.146 1.146 0 0 1 1.28 1.902" clip-rule="evenodd"/></svg>