<svg width="100" height="43" viewBox="0 0 100 43" fill="none" xmlns="http://www.w3.org/2000/svg">
<g clip-path="url(#clip0_3187_65674)">
<path fill-rule="evenodd" clip-rule="evenodd" d="M6.13914 37.1476C6.23688 37.1977 6.33118 37.2543 6.42142 37.3169C6.50532 37.3934 6.56525 37.4925 6.59392 37.6023C6.62639 37.7126 6.64535 37.8263 6.65037 37.9411V42.0906C6.65037 42.1188 6.65037 42.1752 6.62215 42.1752C6.61055 42.1862 6.59665 42.1945 6.58145 42.1993C6.56625 42.2042 6.55014 42.2056 6.53433 42.2035H5.51185C5.49654 42.2055 5.48095 42.2041 5.46631 42.1991C5.45166 42.1942 5.43836 42.1859 5.42743 42.175C5.4165 42.1641 5.40825 42.1508 5.40331 42.1361C5.39836 42.1215 5.39687 42.1059 5.39894 42.0906V38.3269H4.57406V42.0906C4.57406 42.1188 4.57406 42.1752 4.54584 42.1752C4.53472 42.186 4.52135 42.1941 4.50669 42.199C4.49204 42.2038 4.47648 42.2054 4.46115 42.2035H3.52023C3.492 42.2035 3.43554 42.2035 3.43554 42.1752C3.42482 42.1641 3.41671 42.1508 3.41183 42.1361C3.40694 42.1214 3.4054 42.1059 3.40731 42.0906V38.3269H2.58557V42.0906C2.58693 42.1096 2.58423 42.1287 2.57766 42.1466C2.57109 42.1645 2.56079 42.1808 2.54745 42.1944C2.53411 42.2081 2.51803 42.2187 2.50028 42.2257C2.48252 42.2327 2.46348 42.2358 2.44443 42.2348H1.41882C1.39977 42.2358 1.38074 42.2327 1.36298 42.2257C1.34522 42.2187 1.32914 42.2081 1.3158 42.1944C1.30246 42.1808 1.29217 42.1645 1.2856 42.1466C1.27903 42.1287 1.27633 42.1096 1.27768 42.0906V37.2322C1.27633 37.2132 1.27903 37.1941 1.2856 37.1762C1.29217 37.1583 1.30246 37.142 1.3158 37.1284C1.32914 37.1147 1.34522 37.1041 1.36298 37.0971C1.38074 37.0902 1.39977 37.087 1.41882 37.088H5.85372C5.90278 37.0767 5.95369 37.0762 6.00297 37.0865C6.05224 37.0967 6.0987 37.1176 6.13914 37.1476Z" fill="white"/>
<path fill-rule="evenodd" clip-rule="evenodd" d="M11.2828 37.0607C11.3976 37.0658 11.5113 37.0847 11.6215 37.1172C11.7201 37.1688 11.8154 37.2264 11.9069 37.2897C11.9892 37.3657 12.048 37.4636 12.0763 37.572C12.1111 37.6828 12.1311 37.7978 12.1359 37.9138V42.0633C12.1359 42.0916 12.1359 42.148 12.1077 42.148C12.0959 42.1586 12.0819 42.1666 12.0668 42.1715C12.0516 42.1764 12.0357 42.178 12.0199 42.1762H10.9974C10.9692 42.1762 10.9127 42.1762 10.9127 42.148C10.902 42.1369 10.8939 42.1235 10.889 42.1089C10.8841 42.0942 10.8826 42.0787 10.8845 42.0633V40.7711C10.8845 40.7429 10.8845 40.6864 10.8562 40.6864C10.8451 40.6757 10.8318 40.6676 10.8171 40.6627C10.8024 40.6578 10.7869 40.6563 10.7716 40.6582H9.3194C9.29117 40.6582 9.23471 40.6582 9.23471 40.6864C9.22399 40.6976 9.21589 40.7109 9.211 40.7256C9.20612 40.7402 9.20458 40.7558 9.20649 40.7711V42.079C9.20738 42.0978 9.20434 42.1165 9.19757 42.1341C9.19079 42.1516 9.18043 42.1675 9.16714 42.1808C9.15385 42.1941 9.13793 42.2045 9.1204 42.2112C9.10287 42.218 9.08412 42.221 9.06535 42.2201H8.04287C8.02385 42.2215 8.00475 42.2188 7.98684 42.2122C7.96894 42.2057 7.95263 42.1954 7.93899 42.182C7.92536 42.1687 7.91471 42.1526 7.90774 42.1349C7.90078 42.1171 7.89766 42.0981 7.8986 42.079V37.9138C7.90341 37.7978 7.92344 37.6828 7.95819 37.572C8.00834 37.4742 8.06492 37.3799 8.12756 37.2897C8.20539 37.2075 8.30401 37.1479 8.41297 37.1172C8.51962 37.0711 8.63589 37.0518 8.75171 37.0607H11.2828ZM10.828 39.5166V38.2369H9.09358V39.5166H10.828Z" fill="white"/>
<path fill-rule="evenodd" clip-rule="evenodd" d="M16.7687 37.1167C16.7793 37.1285 16.7873 37.1425 16.7922 37.1576C16.797 37.1727 16.7986 37.1887 16.7969 37.2045V41.354C16.7919 41.4688 16.7729 41.5825 16.7404 41.6928C16.6888 41.7913 16.6312 41.8866 16.5679 41.9782C16.4919 42.0604 16.394 42.1192 16.2857 42.1475C16.1778 42.1934 16.0606 42.2127 15.9438 42.204H13.7263C13.6106 42.1987 13.4958 42.1798 13.3845 42.1475C13.2867 42.0974 13.1924 42.0408 13.1022 41.9782C13.0173 41.9026 12.9571 41.8031 12.9297 41.6928C12.8836 41.5861 12.8643 41.4698 12.8732 41.354V39.7858C12.8723 39.767 12.8754 39.7483 12.8821 39.7308C12.8889 39.7132 12.8993 39.6973 12.9126 39.684C12.9259 39.6707 12.9418 39.6604 12.9593 39.6536C12.9768 39.6468 12.9956 39.6438 13.0144 39.6447H14.04C14.0588 39.6438 14.0775 39.6468 14.095 39.6536C14.1126 39.6604 14.1285 39.6707 14.1418 39.684C14.1551 39.6973 14.1654 39.7132 14.1722 39.7308C14.179 39.7483 14.182 39.767 14.1811 39.7858V40.8396C14.179 40.855 14.1805 40.8705 14.1855 40.8852C14.1904 40.8998 14.1987 40.9131 14.2096 40.9241C14.2205 40.935 14.2338 40.9433 14.2485 40.9482C14.2631 40.9531 14.2787 40.9546 14.294 40.9526H15.3353C15.3635 40.9526 15.42 40.9526 15.42 40.9243C15.4307 40.9132 15.4388 40.8998 15.4437 40.8852C15.4486 40.8705 15.4501 40.855 15.4482 40.8396V37.2328C15.4482 37.2045 15.4482 37.1481 15.4765 37.1481C15.487 37.1364 15.5002 37.1274 15.5149 37.122C15.5297 37.1165 15.5455 37.1147 15.5611 37.1167H16.5899C16.6135 37.0953 16.6443 37.0835 16.6761 37.0835C16.708 37.0835 16.7388 37.0953 16.7624 37.1167H16.7687Z" fill="white"/>
<path fill-rule="evenodd" clip-rule="evenodd" d="M21.3998 37.0606C21.5146 37.0657 21.6284 37.0846 21.7386 37.1171C21.8371 37.1687 21.9324 37.2263 22.024 37.2896C22.1062 37.3656 22.165 37.4635 22.1933 37.5719C22.2256 37.6832 22.2445 37.798 22.2498 37.9137V41.3262C22.2448 41.441 22.2258 41.5547 22.1933 41.6649C22.1439 41.764 22.0873 41.8594 22.024 41.9503C21.9474 42.0334 21.8482 42.0922 21.7386 42.1197C21.6319 42.1657 21.5156 42.1851 21.3998 42.1761H18.8123C18.6965 42.1709 18.5817 42.1519 18.4704 42.1197C18.3727 42.0695 18.2784 42.013 18.1881 41.9503C18.1032 41.8747 18.0431 41.7752 18.0156 41.6649C17.9696 41.5583 17.9502 41.442 17.9592 41.3262V37.9137C17.9644 37.798 17.9834 37.6832 18.0156 37.5719C18.056 37.4683 18.1144 37.3728 18.1881 37.2896C18.2651 37.2079 18.3626 37.1483 18.4704 37.1171C18.5782 37.0713 18.6954 37.0519 18.8123 37.0606H21.3998ZM20.945 38.3152H19.2106V40.9592H20.945V38.3152Z" fill="white"/>
<path fill-rule="evenodd" clip-rule="evenodd" d="M27.8823 42.092C27.8888 42.097 27.8941 42.1034 27.8977 42.1107C27.9013 42.1181 27.9032 42.1262 27.9032 42.1344C27.9032 42.1426 27.9013 42.1506 27.8977 42.158C27.8941 42.1653 27.8888 42.1717 27.8823 42.1767C27.8541 42.2049 27.8541 42.2049 27.7945 42.2049H26.6278C26.588 42.2092 26.548 42.1992 26.5148 42.1767L26.427 42.092L25.6617 40.6994C25.6617 40.6712 25.6335 40.6712 25.6053 40.6712H24.7271C24.6989 40.6712 24.6989 40.6712 24.6989 40.6994V42.0638C24.6998 42.0828 24.6967 42.1019 24.6897 42.1196C24.6827 42.1374 24.6721 42.1535 24.6585 42.1668C24.6448 42.1801 24.6285 42.1904 24.6106 42.197C24.5927 42.2036 24.5736 42.2063 24.5546 42.2049H23.5321C23.5133 42.2058 23.4946 42.2028 23.477 42.196C23.4595 42.1892 23.4436 42.1789 23.4303 42.1656C23.417 42.1523 23.4067 42.1364 23.3999 42.1188C23.3931 42.1013 23.3901 42.0826 23.391 42.0638V37.2055C23.3896 37.1864 23.3923 37.1673 23.3989 37.1494C23.4055 37.1315 23.4157 37.1152 23.4291 37.1016C23.4424 37.088 23.4585 37.0773 23.4763 37.0703C23.494 37.0634 23.5131 37.0603 23.5321 37.0612H26.8567C26.9725 37.066 27.0874 37.0849 27.1986 37.1177C27.2967 37.17 27.392 37.2276 27.484 37.2902C27.5662 37.3662 27.625 37.4641 27.6534 37.5724C27.6992 37.6803 27.7186 37.7975 27.7098 37.9143V39.8463C27.7105 40.0306 27.651 40.2101 27.5405 40.3576C27.4322 40.5018 27.2839 40.6109 27.1139 40.6712H27.0857C27.0574 40.6712 27.0574 40.6994 27.0574 40.7277V40.7716L27.8823 42.092ZM26.4302 38.2624H24.6706V39.517H26.4302V38.2624Z" fill="white"/>
<path fill-rule="evenodd" clip-rule="evenodd" d="M34.7809 40.9554C34.7967 40.9533 34.8128 40.9547 34.828 40.9596C34.8432 40.9645 34.8571 40.9727 34.8687 40.9837C34.8794 40.9948 34.8875 41.0082 34.8924 41.0228C34.8973 41.0375 34.8988 41.053 34.8969 41.0684V42.025C34.8969 42.0532 34.8969 42.1096 34.8687 42.1096C34.8571 42.1206 34.8432 42.1289 34.828 42.1337C34.8128 42.1386 34.7967 42.14 34.7809 42.1379H31.6444C31.6254 42.1392 31.6063 42.1365 31.5884 42.13C31.5705 42.1234 31.5542 42.1131 31.5406 42.0998C31.5269 42.0864 31.5163 42.0703 31.5093 42.0526C31.5023 42.0348 31.4992 42.0158 31.5002 41.9967V37.1478C31.4992 37.1288 31.5023 37.1097 31.5093 37.092C31.5163 37.0742 31.5269 37.0581 31.5406 37.0448C31.5542 37.0315 31.5705 37.0212 31.5884 37.0146C31.6063 37.008 31.6254 37.0053 31.6444 37.0067H32.6669C32.686 37.0058 32.705 37.0089 32.7228 37.0158C32.7405 37.0228 32.7566 37.0334 32.7699 37.0471C32.7833 37.0607 32.7936 37.077 32.8001 37.0949C32.8067 37.1128 32.8094 37.1319 32.808 37.151V40.7704C32.8063 40.7862 32.8079 40.8022 32.8128 40.8173C32.8177 40.8325 32.8257 40.8464 32.8363 40.8582C32.8474 40.8689 32.8608 40.877 32.8754 40.8819C32.8901 40.8868 32.9056 40.8884 32.921 40.8864H34.8028V40.9711L34.7809 40.9554Z" fill="white"/>
<path fill-rule="evenodd" clip-rule="evenodd" d="M39.5314 37.1171C39.5421 37.1289 39.5501 37.1429 39.5549 37.158C39.5598 37.1731 39.5614 37.1891 39.5597 37.2049V38.1459C39.5617 38.1612 39.5602 38.1768 39.5553 38.1914C39.5504 38.206 39.5421 38.2193 39.5312 38.2303C39.5202 38.2412 39.5069 38.2495 39.4923 38.2544C39.4777 38.2593 39.4621 38.2608 39.4467 38.2588H37.0003C36.9721 38.2588 36.9721 38.2588 36.9721 38.287V39.0836C36.9721 39.1119 36.9721 39.1119 37.0003 39.1119H39.1049C39.1202 39.1098 39.1358 39.1113 39.1504 39.1162C39.1651 39.1212 39.1784 39.1294 39.1893 39.1404C39.2002 39.1513 39.2085 39.1646 39.2134 39.1792C39.2184 39.1939 39.2199 39.2095 39.2178 39.2248V39.965C39.2178 39.9932 39.2178 40.0497 39.1896 40.0497C39.1784 40.0604 39.1651 40.0685 39.1504 40.0734C39.1358 40.0783 39.1202 40.0798 39.1049 40.0779H37.0003C36.9721 40.0779 36.9721 40.0779 36.9721 40.1061V40.4762V40.9028C36.9721 40.931 36.9721 40.931 37.0003 40.931H39.4467C39.475 40.931 39.5314 40.931 39.5314 40.9592C39.5422 40.9703 39.5503 40.9837 39.5551 40.9984C39.56 41.013 39.5616 41.0286 39.5597 41.0439V41.9535C39.5597 41.9817 39.5597 42.0381 39.5314 42.0381C39.5203 42.0489 39.5069 42.057 39.4923 42.0619C39.4776 42.0667 39.4621 42.0683 39.4467 42.0664H35.8085C35.7895 42.0677 35.7704 42.065 35.7525 42.0585C35.7346 42.0519 35.7183 42.0416 35.7046 42.0283C35.691 42.0149 35.6803 41.9988 35.6734 41.9811C35.6664 41.9633 35.6633 41.9443 35.6642 41.9252V37.0638C35.6642 37.0356 35.6642 36.9791 35.6925 36.9791C35.7043 36.9685 35.7182 36.9605 35.7333 36.9556C35.7485 36.9507 35.7645 36.9491 35.7803 36.9509H39.4154C39.4436 37.0138 39.4829 37.0712 39.5314 37.1202V37.1171Z" fill="white"/>
<path fill-rule="evenodd" clip-rule="evenodd" d="M44.1916 37.0606C44.3074 37.0659 44.4221 37.0848 44.5335 37.1171C44.6306 37.1694 44.7249 37.227 44.8157 37.2896C44.8975 37.3666 44.957 37.464 44.9882 37.5719C45.0205 37.6832 45.0394 37.798 45.0447 37.9137V42.0632C45.0447 42.0915 45.0447 42.1479 45.0165 42.1479C45.0048 42.1587 44.9908 42.1668 44.9757 42.1717C44.9605 42.1766 44.9445 42.1781 44.9286 42.1761H43.8779C43.8497 42.1761 43.7933 42.1761 43.7933 42.1479C43.7825 42.1368 43.7744 42.1234 43.7696 42.1088C43.7647 42.0941 43.7631 42.0786 43.765 42.0632V40.771C43.765 40.7428 43.765 40.6863 43.7368 40.6863C43.7257 40.6756 43.7123 40.6675 43.6977 40.6626C43.683 40.6577 43.6674 40.6562 43.6521 40.6581H42.1717C42.1435 40.6581 42.087 40.6581 42.087 40.6863C42.0763 40.6975 42.0682 40.7108 42.0633 40.7255C42.0585 40.7401 42.0569 40.7557 42.0588 40.771V42.0789C42.0597 42.0977 42.0567 42.1164 42.0499 42.134C42.0431 42.1515 42.0328 42.1674 42.0195 42.1807C42.0062 42.194 41.9903 42.2044 41.9727 42.2111C41.9552 42.2179 41.9365 42.2209 41.9177 42.2201H40.8983C40.8793 42.2214 40.8602 42.2187 40.8423 42.2121C40.8244 42.2056 40.8081 42.1953 40.7945 42.1819C40.7808 42.1686 40.7702 42.1525 40.7632 42.1348C40.7562 42.117 40.7531 42.098 40.7541 42.0789V37.9137C40.7589 37.7977 40.7789 37.6827 40.8137 37.5719C40.8638 37.4741 40.9204 37.3798 40.983 37.2896C41.06 37.2079 41.1575 37.1483 41.2653 37.1171C41.3731 37.0713 41.4903 37.0519 41.6072 37.0606H44.1916ZM43.7368 39.507V38.2274H41.9961V39.5165L43.7368 39.507Z" fill="white"/>
<path fill-rule="evenodd" clip-rule="evenodd" d="M50.4638 39.4482C50.4744 39.46 50.4824 39.474 50.4872 39.4891C50.4921 39.5042 50.4937 39.5202 50.492 39.536V41.3551C50.487 41.4699 50.468 41.5837 50.4355 41.6939C50.386 41.793 50.3294 41.8884 50.2662 41.9793C50.1895 42.0623 50.0903 42.1212 49.9807 42.1487C49.8741 42.1947 49.7578 42.2141 49.642 42.2051H47.0545C46.9387 42.1999 46.8239 42.1809 46.7126 42.1487C46.6149 42.0985 46.5206 42.0419 46.4303 41.9793C46.3454 41.9037 46.2853 41.8042 46.2578 41.6939C46.2118 41.5872 46.1924 41.471 46.2014 41.3551V37.949C46.2064 37.8342 46.2253 37.7205 46.2578 37.6103C46.2979 37.5056 46.3563 37.409 46.4303 37.3248C46.5063 37.2426 46.6043 37.1838 46.7126 37.1555C46.8197 37.1072 46.9373 37.0867 47.0545 37.0959H50.0968C50.125 37.0959 50.1815 37.0959 50.1815 37.1241C50.1921 37.1359 50.2001 37.1499 50.205 37.165C50.2098 37.1801 50.2114 37.1961 50.2097 37.2119V38.178C50.2097 38.2062 50.2097 38.2626 50.1815 38.2626C50.1704 38.2734 50.157 38.2815 50.1423 38.2863C50.1277 38.2912 50.1121 38.2928 50.0968 38.2909H47.6504C47.6222 38.2909 47.5657 38.2909 47.5657 38.3191C47.555 38.3302 47.5469 38.3436 47.542 38.3582C47.5371 38.3729 47.5356 38.3884 47.5375 38.4038V40.7718C47.5355 40.7876 47.537 40.8036 47.5419 40.8188C47.5468 40.834 47.5549 40.8479 47.5657 40.8596C47.5768 40.8703 47.5902 40.8784 47.6048 40.8833C47.6195 40.8882 47.6351 40.8897 47.6504 40.8878H49.0994C49.1153 40.8906 49.1315 40.8895 49.1469 40.8846C49.1622 40.8798 49.1762 40.8713 49.1875 40.8599C49.1989 40.8485 49.2074 40.8346 49.2122 40.8192C49.2171 40.8039 49.2182 40.7876 49.2155 40.7718V39.5172C49.2155 39.489 49.2155 39.4294 49.2437 39.4294C49.2548 39.4187 49.2682 39.4106 49.2828 39.4057C49.2975 39.4008 49.313 39.3992 49.3284 39.4012H50.3508C50.3933 39.4081 50.4327 39.4278 50.4638 39.4576V39.4482Z" fill="white"/>
<path fill-rule="evenodd" clip-rule="evenodd" d="M55.8739 37.1178C55.8845 37.1297 55.8925 37.1436 55.8974 37.1587C55.9023 37.1739 55.9039 37.1899 55.9021 37.2057V41.3552C55.8971 41.4699 55.8782 41.5837 55.8457 41.6939C55.7962 41.793 55.7396 41.8884 55.6763 41.9793C55.5987 42.0611 55.4999 42.1197 55.3909 42.1487C55.2832 42.195 55.1659 42.2144 55.049 42.2051H52.4646C52.3488 42.2004 52.234 42.1814 52.1227 42.1487C52.0244 42.0978 51.9291 42.0412 51.8373 41.9793C51.7543 41.9027 51.6954 41.8035 51.668 41.6939C51.6219 41.5872 51.6025 41.471 51.6115 41.3552V37.2057C51.6102 37.1866 51.6129 37.1675 51.6194 37.1496C51.626 37.1317 51.6363 37.1154 51.6496 37.1018C51.663 37.0881 51.679 37.0775 51.6968 37.0705C51.7146 37.0636 51.7336 37.0605 51.7527 37.0614H52.7751C52.7944 37.06 52.8138 37.0628 52.8319 37.0695C52.8501 37.0763 52.8666 37.0868 52.8803 37.1005C52.8939 37.1142 52.9045 37.1307 52.9113 37.1488C52.918 37.167 52.9208 37.1864 52.9194 37.2057V40.8125C52.9172 40.8284 52.9186 40.8445 52.9235 40.8597C52.9284 40.8749 52.9366 40.8888 52.9476 40.9004C52.9587 40.9111 52.9721 40.9192 52.9868 40.9241C53.0014 40.929 53.017 40.9305 53.0323 40.9286H54.4813C54.4967 40.9305 54.5122 40.929 54.5269 40.9241C54.5415 40.9192 54.5549 40.9111 54.566 40.9004C54.577 40.8888 54.5852 40.8749 54.5901 40.8597C54.595 40.8445 54.5964 40.8284 54.5942 40.8125V37.2057C54.5942 37.1774 54.5942 37.1178 54.6225 37.1178C54.6341 37.1069 54.648 37.0986 54.6632 37.0937C54.6784 37.0889 54.6945 37.0874 54.7103 37.0896H55.7328C55.7559 37.0772 55.7827 37.0732 55.8084 37.0783C55.8342 37.0835 55.8573 37.0975 55.8739 37.1178Z" fill="white"/>
<path fill-rule="evenodd" clip-rule="evenodd" d="M60.9619 37.1162C60.9725 37.1281 60.9805 37.142 60.9854 37.1571C60.9902 37.1723 60.9919 37.1883 60.9901 37.2041V38.145C60.9922 38.1603 60.9907 38.1759 60.9857 38.1905C60.9808 38.2052 60.9725 38.2185 60.9616 38.2294C60.9507 38.2403 60.9374 38.2486 60.9227 38.2535C60.9081 38.2585 60.8925 38.26 60.8772 38.2579H58.4339C58.4057 38.2579 58.4057 38.2579 58.4057 38.2861V39.0828C58.4057 39.111 58.4057 39.111 58.4339 39.111H60.5353C60.5506 39.1089 60.5662 39.1104 60.5809 39.1154C60.5955 39.1203 60.6088 39.1286 60.6198 39.1395C60.6307 39.1504 60.6389 39.1637 60.6439 39.1784C60.6488 39.193 60.6503 39.2086 60.6482 39.2239V39.9641C60.6482 39.9923 60.6482 40.0488 60.62 40.0488C60.6089 40.0595 60.5955 40.0676 60.5809 40.0725C60.5662 40.0774 60.5507 40.0789 60.5353 40.077H58.4339C58.4057 40.077 58.4057 40.077 58.4057 40.1053V40.4754V40.9019C58.4057 40.9301 58.4057 40.9301 58.4339 40.9301H60.8772C60.9054 40.9301 60.9619 40.9301 60.9619 40.9584C60.9726 40.9695 60.9807 40.9829 60.9856 40.9975C60.9905 41.0122 60.992 41.0277 60.9901 41.043V41.9526C60.9901 41.9808 60.9901 42.0373 60.9619 42.0373C60.9508 42.048 60.9374 42.0561 60.9227 42.061C60.9081 42.0659 60.8925 42.0674 60.8772 42.0655H57.239C57.2202 42.0664 57.2014 42.0634 57.1839 42.0566C57.1664 42.0498 57.1504 42.0395 57.1372 42.0262C57.1239 42.0129 57.1135 41.997 57.1067 41.9794C57.1 41.9619 57.0969 41.9432 57.0978 41.9244V37.0629C57.0978 37.0347 57.0978 36.9782 57.126 36.9782C57.1372 36.9675 57.1505 36.9594 57.1652 36.9545C57.1798 36.9496 57.1954 36.9481 57.2107 36.95H60.849C60.8754 37.0132 60.9137 37.0707 60.9619 37.1194V37.1162Z" fill="white"/>
<path fill-rule="evenodd" clip-rule="evenodd" d="M68.8317 37.0606C68.8599 37.0606 68.9164 37.0606 68.9164 37.0888C68.9272 37.1006 68.9353 37.1145 68.9402 37.1296C68.9451 37.1448 68.9466 37.1609 68.9446 37.1767V42.0256C68.9446 42.0538 68.9446 42.1103 68.9164 42.1103C68.9053 42.121 68.8919 42.1291 68.8772 42.134C68.8626 42.1389 68.847 42.1404 68.8317 42.1385H67.8092C67.781 42.1385 67.7245 42.1385 67.7245 42.1103C67.7165 42.0979 67.7113 42.0839 67.7091 42.0693C67.707 42.0547 67.7079 42.0398 67.712 42.0256V40.3194C67.7139 40.304 67.7124 40.2885 67.7075 40.2738C67.7026 40.2592 67.6945 40.2458 67.6838 40.2347C67.672 40.2241 67.658 40.216 67.6429 40.2112C67.6278 40.2063 67.6118 40.2047 67.596 40.2064H66.1438C66.1156 40.2064 66.0591 40.2064 66.0591 40.2347C66.0484 40.2458 66.0403 40.2592 66.0354 40.2738C66.0305 40.2885 66.029 40.304 66.0309 40.3194V42.0256C66.0318 42.0443 66.0287 42.0631 66.022 42.0806C66.0152 42.0982 66.0048 42.1141 65.9915 42.1274C65.9782 42.1407 65.9623 42.151 65.9448 42.1578C65.9273 42.1646 65.9085 42.1676 65.8897 42.1667H64.8641C64.8454 42.1676 64.8266 42.1646 64.8091 42.1578C64.7916 42.151 64.7756 42.1407 64.7623 42.1274C64.7491 42.1141 64.7387 42.0982 64.7319 42.0806C64.7251 42.0631 64.7221 42.0443 64.723 42.0256V37.1767C64.7216 37.1576 64.7243 37.1385 64.7309 37.1206C64.7375 37.1027 64.7478 37.0864 64.7611 37.0728C64.7745 37.0591 64.7905 37.0485 64.8083 37.0415C64.8261 37.0346 64.8451 37.0315 64.8641 37.0324H65.8897C65.9088 37.0315 65.9278 37.0346 65.9456 37.0415C65.9633 37.0485 65.9794 37.0591 65.9928 37.0728C66.0061 37.0864 66.0164 37.1027 66.023 37.1206C66.0295 37.1385 66.0322 37.1576 66.0309 37.1767V38.8233C66.03 38.8421 66.033 38.8608 66.0398 38.8783C66.0466 38.8959 66.0569 38.9118 66.0702 38.9251C66.0835 38.9384 66.0994 38.9487 66.117 38.9555C66.1345 38.9623 66.1532 38.9653 66.172 38.9644H67.6211C67.6369 38.9664 67.6529 38.9649 67.6681 38.96C67.6832 38.9551 67.6972 38.947 67.7089 38.9362C67.7196 38.9251 67.7277 38.9117 67.7326 38.8971C67.7375 38.8824 67.739 38.8668 67.7371 38.8515V37.2049C67.7371 37.1767 67.7371 37.1171 67.7653 37.1171C67.7764 37.1063 67.7898 37.0982 67.8045 37.0934C67.8191 37.0885 67.8347 37.0869 67.85 37.0888H68.8443V37.0606H68.8317Z" fill="white"/>
<path fill-rule="evenodd" clip-rule="evenodd" d="M73.5765 37.0607C73.6924 37.0655 73.8072 37.0845 73.9184 37.1172C74.0313 37.1768 74.116 37.2332 74.2038 37.2897C74.2861 37.3657 74.3448 37.4636 74.3732 37.572C74.4054 37.6833 74.4244 37.7981 74.4296 37.9138V42.0633C74.4296 42.0916 74.4296 42.148 74.4014 42.148C74.3903 42.1587 74.3769 42.1668 74.3623 42.1717C74.3476 42.1766 74.3321 42.1782 74.3167 42.1762H73.2943C73.266 42.1762 73.2064 42.1762 73.2064 42.148C73.1957 42.1369 73.1876 42.1235 73.1827 42.1089C73.1778 42.0942 73.1763 42.0787 73.1782 42.0633V40.7711C73.1782 40.7429 73.1782 40.6864 73.15 40.6864C73.1389 40.6757 73.1255 40.6676 73.1108 40.6627C73.0962 40.6578 73.0806 40.6563 73.0653 40.6582H71.6163C71.588 40.6582 71.5316 40.6582 71.5316 40.6864C71.5209 40.6976 71.5128 40.7109 71.5079 40.7256C71.503 40.7402 71.5014 40.7558 71.5034 40.7711V42.079C71.5043 42.0981 71.5012 42.1171 71.4942 42.1349C71.4872 42.1526 71.4766 42.1687 71.463 42.182C71.4493 42.1954 71.433 42.2057 71.4151 42.2122C71.3972 42.2188 71.3781 42.2215 71.3591 42.2201H70.3366C70.3178 42.221 70.2991 42.218 70.2816 42.2112C70.264 42.2045 70.2481 42.1941 70.2348 42.1808C70.2215 42.1675 70.2112 42.1516 70.2044 42.1341C70.1976 42.1165 70.1946 42.0978 70.1955 42.079V37.9138C70.2007 37.7981 70.2197 37.6833 70.2519 37.572C70.3021 37.4742 70.3586 37.3799 70.4213 37.2897C70.4996 37.2081 70.598 37.1486 70.7067 37.1172C70.8145 37.0711 70.9317 37.0518 71.0486 37.0607H73.5765ZM73.15 39.5071V38.2275H71.4187V39.5166L73.15 39.5071Z" fill="white"/>
<path fill-rule="evenodd" clip-rule="evenodd" d="M76.9016 38.34C76.8909 38.3511 76.8828 38.3645 76.8779 38.3791C76.873 38.3938 76.8715 38.4093 76.8734 38.4246V40.8115C76.8712 40.8273 76.8726 40.8434 76.8775 40.8586C76.8824 40.8738 76.8907 40.8877 76.9016 40.8993C76.9135 40.9099 76.9274 40.9179 76.9425 40.9228C76.9577 40.9276 76.9736 40.9293 76.9894 40.9275H79.348C79.3763 40.9275 79.4327 40.9275 79.4327 40.9557C79.4434 40.9669 79.4515 40.9802 79.4564 40.9949C79.4613 41.0095 79.4629 41.0251 79.461 41.0404V42.0064C79.461 42.0347 79.4609 42.0911 79.4327 42.0911C79.4216 42.1019 79.4082 42.1099 79.3936 42.1148C79.3789 42.1197 79.3634 42.1213 79.348 42.1194H76.4186C76.3038 42.1143 76.1901 42.0954 76.0799 42.0629C75.9808 42.0134 75.8854 41.9568 75.7945 41.8935C75.7121 41.8163 75.6534 41.7174 75.6251 41.6081C75.5788 41.5004 75.5594 41.3831 75.5686 41.2662V37.8162C75.5739 37.7004 75.5929 37.5856 75.6251 37.4743C75.6752 37.3766 75.7318 37.2823 75.7945 37.192C75.8701 37.1071 75.9695 37.047 76.0799 37.0195C76.1865 36.9735 76.3028 36.9541 76.4186 36.9631H79.348C79.3763 36.9631 79.4327 36.9631 79.4327 36.9913C79.4434 37.0024 79.4515 37.0158 79.4564 37.0304C79.4613 37.0451 79.4629 37.0607 79.461 37.076V38.042C79.461 38.0734 79.4609 38.1298 79.4327 38.1298C79.4216 38.1405 79.4082 38.1487 79.3936 38.1535C79.3789 38.1584 79.3634 38.16 79.348 38.1581H76.9894C76.9612 38.2992 76.933 38.3274 76.9016 38.3274V38.34Z" fill="white"/>
<path fill-rule="evenodd" clip-rule="evenodd" d="M83.582 39.2203C83.5538 39.2486 83.5538 39.2486 83.582 39.2768L85.2882 42.0996C85.2947 42.1045 85.3 42.111 85.3036 42.1183C85.3072 42.1256 85.3091 42.1337 85.3091 42.1419C85.3091 42.1501 85.3072 42.1582 85.3036 42.1655C85.3 42.1729 85.2947 42.1793 85.2882 42.1842C85.26 42.2125 85.26 42.2125 85.2004 42.2125H83.9803C83.9405 42.2167 83.9005 42.2067 83.8674 42.1842L83.7796 42.0996L82.6724 40.1111C82.6442 40.0828 82.6442 40.0828 82.6442 40.1111L82.0483 40.7635C82.0303 40.7771 82.0156 40.7946 82.0053 40.8147C81.9949 40.8348 81.9893 40.8569 81.9887 40.8795C81.9659 40.9228 81.9561 40.9719 81.9605 41.0206V42.0996C81.9618 42.1186 81.9591 42.1377 81.9525 42.1556C81.946 42.1735 81.9357 42.1898 81.9223 42.2034C81.909 42.2171 81.8929 42.2277 81.8752 42.2347C81.8574 42.2417 81.8384 42.2448 81.8193 42.2438H80.8251C80.806 42.2448 80.787 42.2417 80.7692 42.2347C80.7515 42.2277 80.7354 42.2171 80.7221 42.2034C80.7087 42.1898 80.6984 42.1735 80.6918 42.1556C80.6853 42.1377 80.6826 42.1186 80.6839 42.0996V37.2318C80.6826 37.2128 80.6853 37.1937 80.6918 37.1758C80.6984 37.1579 80.7087 37.1416 80.7221 37.128C80.7354 37.1143 80.7515 37.1037 80.7692 37.0967C80.787 37.0897 80.806 37.0866 80.8251 37.0876H81.8475C81.8666 37.0866 81.8856 37.0897 81.9034 37.0967C81.9211 37.1037 81.9372 37.1143 81.9506 37.128C81.9639 37.1416 81.9742 37.1579 81.9808 37.1758C81.9873 37.1937 81.99 37.2128 81.9887 37.2318V39.4273L83.8956 37.213C83.9284 37.178 83.9665 37.1483 84.0085 37.1252C84.0428 37.1055 84.0819 37.0957 84.1215 37.097H85.3447C85.3729 37.097 85.4011 37.097 85.4011 37.1252C85.4033 37.141 85.4019 37.1571 85.397 37.1723C85.3921 37.1875 85.3839 37.2014 85.3729 37.213L83.582 39.2297V39.2203Z" fill="white"/>
<path fill-rule="evenodd" clip-rule="evenodd" d="M87.5317 42.0638C87.5326 42.0826 87.5295 42.1013 87.5227 42.1188C87.516 42.1364 87.5056 42.1523 87.4923 42.1656C87.479 42.1789 87.4631 42.1892 87.4456 42.196C87.428 42.2028 87.4093 42.2058 87.3905 42.2049H86.368C86.3493 42.2058 86.3305 42.2028 86.313 42.196C86.2955 42.1892 86.2795 42.1789 86.2663 42.1656C86.253 42.1523 86.2426 42.1364 86.2358 42.1188C86.229 42.1013 86.226 42.0826 86.2269 42.0638V37.2055C86.2255 37.1864 86.2282 37.1673 86.2348 37.1494C86.2414 37.1315 86.2517 37.1152 86.265 37.1016C86.2784 37.088 86.2944 37.0773 86.3122 37.0703C86.33 37.0634 86.349 37.0603 86.368 37.0612H87.3905C87.4096 37.0603 87.4286 37.0634 87.4464 37.0703C87.4641 37.0773 87.4802 37.088 87.4935 37.1016C87.5069 37.1152 87.5172 37.1315 87.5237 37.1494C87.5303 37.1673 87.533 37.1864 87.5317 37.2055V42.0638Z" fill="white"/>
<path fill-rule="evenodd" clip-rule="evenodd" d="M92.492 37.1473C92.5908 37.1975 92.6861 37.2541 92.7775 37.3167C92.8605 37.3933 92.9194 37.4925 92.9468 37.6021C92.9929 37.7087 93.0122 37.825 93.0033 37.9408V42.0903C93.0033 42.1185 93.0033 42.175 92.975 42.175C92.9639 42.1857 92.9506 42.1938 92.9359 42.1987C92.9212 42.2036 92.9057 42.2051 92.8904 42.2032H91.8648C91.8494 42.2053 91.8339 42.2038 91.8192 42.1989C91.8046 42.1939 91.7913 42.1856 91.7803 42.1747C91.7694 42.1638 91.7611 42.1505 91.7562 42.1358C91.7513 42.1212 91.7498 42.1056 91.7518 42.0903V38.4803C91.7539 38.4647 91.7521 38.4488 91.7466 38.4341C91.7411 38.4193 91.7322 38.4061 91.7205 38.3956C91.7094 38.3849 91.696 38.3768 91.6813 38.3719C91.6667 38.367 91.6511 38.3655 91.6358 38.3674H90.1868C90.1585 38.3674 90.1021 38.3674 90.1021 38.3956C90.1021 38.4238 90.0739 38.4521 90.0739 38.4803V42.0903C90.0752 42.1093 90.0725 42.1284 90.0659 42.1463C90.0594 42.1642 90.0491 42.1805 90.0357 42.1942C90.0224 42.2078 90.0063 42.2185 89.9886 42.2254C89.9708 42.2324 89.9518 42.2355 89.9327 42.2346H88.9071C88.8881 42.2355 88.869 42.2324 88.8513 42.2254C88.8335 42.2185 88.8174 42.2078 88.8041 42.1942C88.7907 42.1805 88.7805 42.1642 88.7739 42.1463C88.7673 42.1284 88.7646 42.1093 88.766 42.0903V37.232C88.7646 37.213 88.7673 37.1939 88.7739 37.176C88.7805 37.158 88.7907 37.1417 88.8041 37.1281C88.8174 37.1145 88.8335 37.1038 88.8513 37.0969C88.869 37.0899 88.8881 37.0868 88.9071 37.0877H92.2348C92.279 37.0788 92.3245 37.0795 92.3684 37.0898C92.4122 37.1001 92.4533 37.1197 92.4889 37.1473H92.492Z" fill="white"/>
<path fill-rule="evenodd" clip-rule="evenodd" d="M98.4185 39.4471C98.4291 39.4589 98.4371 39.4729 98.442 39.488C98.4468 39.5031 98.4484 39.5191 98.4467 39.5349V41.3541C98.4417 41.4688 98.4227 41.5826 98.3902 41.6928C98.3408 41.7919 98.2842 41.8873 98.2209 41.9782C98.1433 42.06 98.0445 42.1186 97.9355 42.1476C97.8277 42.1936 97.7104 42.213 97.5936 42.204H94.9998C94.8839 42.1993 94.7691 42.1803 94.6579 42.1476C94.5592 42.0974 94.4638 42.0408 94.3725 41.9782C94.2895 41.9016 94.2306 41.8024 94.2031 41.6928C94.1571 41.5861 94.1377 41.4699 94.1467 41.3541V37.9479C94.1517 37.8331 94.1706 37.7194 94.2031 37.6092C94.2414 37.5034 94.2989 37.4056 94.3725 37.3206C94.4497 37.2383 94.5487 37.1795 94.6579 37.1512C94.7649 37.1026 94.8826 37.0821 94.9998 37.0917H98.039C98.0672 37.0917 98.1237 37.0917 98.1237 37.1199C98.1343 37.1317 98.1423 37.1456 98.1471 37.1608C98.152 37.1759 98.1536 37.1919 98.1519 37.2077V38.1737C98.1519 38.2019 98.1519 38.2584 98.1237 38.2584C98.1125 38.2691 98.0992 38.2772 98.0845 38.2821C98.0699 38.287 98.0543 38.2885 98.039 38.2866H95.5957C95.5675 38.2866 95.511 38.2866 95.511 38.3149C95.5003 38.326 95.4922 38.3393 95.4873 38.354C95.4824 38.3687 95.4809 38.3842 95.4828 38.3995V40.7707C95.4808 40.7865 95.4824 40.8025 95.4872 40.8177C95.4921 40.8329 95.5002 40.8468 95.511 40.8585C95.5221 40.8692 95.5355 40.8773 95.5502 40.8822C95.5648 40.8871 95.5804 40.8886 95.5957 40.8867H97.0447C97.06 40.8886 97.0756 40.8871 97.0903 40.8822C97.1049 40.8773 97.1183 40.8692 97.1294 40.8585C97.1402 40.8468 97.1483 40.8329 97.1532 40.8177C97.1581 40.8025 97.1596 40.7865 97.1576 40.7707V39.5161C97.1576 39.4879 97.1576 39.4283 97.1859 39.4283C97.197 39.4176 97.2103 39.4095 97.225 39.4046C97.2397 39.3997 97.2552 39.3981 97.2705 39.4001H98.2962C98.318 39.4005 98.3394 39.4058 98.359 39.4156C98.3785 39.4254 98.3956 39.4393 98.4091 39.4565L98.4185 39.4471Z" fill="white"/>
<path fill-rule="evenodd" clip-rule="evenodd" d="M35.0703 4.5759C34.7817 3.94543 34.3882 3.36851 33.9067 2.86969C33.4158 2.37839 32.837 1.98368 32.2004 1.70607C31.5326 1.42708 30.8193 1.27293 30.0959 1.25129H2.13156C2.00892 1.24068 1.88543 1.25616 1.7692 1.2967C1.65298 1.33724 1.54665 1.40194 1.45723 1.48652C1.37264 1.57595 1.30795 1.68228 1.2674 1.7985C1.22686 1.91473 1.21138 2.03822 1.222 2.16086V33.6223C1.222 34.2182 1.50741 34.5036 2.10333 34.5036H8.4985C9.09442 34.5036 9.37983 34.2182 9.37983 33.6223V9.12371H14.58V33.6223C14.5796 33.7379 14.6021 33.8524 14.6464 33.9591C14.6906 34.0659 14.7556 34.1628 14.8376 34.2442C14.9196 34.3257 15.017 34.39 15.1241 34.4334C15.2311 34.4769 15.3458 34.4986 15.4614 34.4974H21.3139C21.4275 34.5028 21.541 34.4831 21.6461 34.4397C21.7513 34.3964 21.8456 34.3304 21.9224 34.2464C22.0717 34.0719 22.152 33.8488 22.1482 33.6192V9.12371H27.339V33.6223C27.336 33.8524 27.4175 34.0755 27.5679 34.2496C27.6406 34.3357 27.7322 34.4037 27.8356 34.4483C27.939 34.4929 28.0514 34.5129 28.1639 34.5068H34.6155C34.7313 34.5072 34.8461 34.4847 34.9532 34.4405C35.0604 34.3964 35.1577 34.3315 35.2396 34.2496C35.3215 34.1676 35.3864 34.0703 35.4306 33.9632C35.4747 33.8561 35.4972 33.7413 35.4968 33.6254V6.68044C35.5015 5.957 35.3563 5.24043 35.0703 4.5759Z" fill="white"/>
<path fill-rule="evenodd" clip-rule="evenodd" d="M64.2307 26.6877C64.1514 26.6014 64.0542 26.5335 63.9457 26.4891C63.8373 26.4446 63.7204 26.4246 63.6034 26.4306V26.4588H50.1513C50.0324 26.467 49.9132 26.4513 49.8005 26.4125C49.6879 26.3737 49.5843 26.3127 49.4957 26.233C49.4032 26.1575 49.3295 26.0616 49.2805 25.9527C49.2315 25.8438 49.2085 25.725 49.2135 25.6057V2.19228C49.2135 1.59636 48.8998 1.28271 48.2725 1.28271H41.523C40.8957 1.28271 40.582 1.59636 40.582 2.19228V33.6224C40.582 34.2183 40.8957 34.5319 41.523 34.5319H63.6065C63.7233 34.5358 63.8396 34.5148 63.9477 34.4705C64.0558 34.4262 64.1533 34.3594 64.2338 34.2747C64.4004 34.0985 64.4925 33.8648 64.491 33.6224V27.3495C64.4946 27.2273 64.4734 27.1057 64.4287 26.9919C64.3839 26.8782 64.3166 26.7747 64.2307 26.6877Z" fill="white"/>
<path fill-rule="evenodd" clip-rule="evenodd" d="M98.191 1.53787C98.1055 1.45295 98.0035 1.38634 97.8913 1.34213C97.7792 1.29791 97.6592 1.277 97.5387 1.28069H90.6605C90.54 1.27719 90.4201 1.29818 90.3079 1.34238C90.1958 1.38659 90.0938 1.4531 90.0081 1.53787C89.9159 1.61998 89.8427 1.72112 89.7934 1.83429C89.7442 1.94746 89.72 2.06998 89.7227 2.19339V12.8572C89.7276 12.978 89.7074 13.0984 89.6634 13.211C89.6194 13.3235 89.5526 13.4257 89.4671 13.5112C89.3817 13.5966 89.2794 13.6635 89.1669 13.7075C89.0543 13.7514 88.9339 13.7716 88.8131 13.7668H79.1781C78.6292 13.7668 78.3375 13.5127 78.2685 13.0485V2.19339C78.2685 1.59747 77.9548 1.28382 77.3276 1.28382H70.4839C69.8566 1.28382 69.543 1.59747 69.543 2.19339V33.7082C69.543 34.3041 69.8566 34.6177 70.4839 34.6177H77.3307C77.958 34.6177 78.2716 34.3041 78.2716 33.7082V22.5049C78.3185 22.3444 78.4073 22.1993 78.5288 22.0846C78.7128 21.9344 78.9437 21.8533 79.1812 21.8556H88.8163C88.9355 21.8455 89.0555 21.8607 89.1685 21.9001C89.2814 21.9396 89.3848 22.0024 89.4718 22.0846C89.5554 22.1657 89.6213 22.2634 89.665 22.3714C89.7088 22.4794 89.7295 22.5954 89.7258 22.7119V33.7113C89.7274 33.8341 89.7534 33.9553 89.8024 34.0678C89.8514 34.1804 89.9224 34.282 90.0113 34.3668C90.0975 34.4506 90.1997 34.5162 90.3117 34.5599C90.4238 34.6035 90.5434 34.6242 90.6636 34.6209H97.5418C97.662 34.6244 97.7817 34.6037 97.8938 34.5601C98.0059 34.5165 98.108 34.4507 98.1942 34.3668C98.2858 34.2843 98.3588 34.1831 98.408 34.07C98.4572 33.9569 98.4816 33.8346 98.4796 33.7113V2.19339C98.4784 2.07028 98.4521 1.94871 98.4025 1.83603C98.3529 1.72336 98.281 1.62192 98.191 1.53787Z" fill="white"/>
</g>
<defs>
<clipPath id="clip0_3187_65674">
<rect width="99.6934" height="42.0115" fill="white" transform="translate(0 0.737793)"/>
</clipPath>
</defs>
</svg>
