<?xml version="1.0" encoding="UTF-8"?>
<svg version="1.1" xmlns="http://www.w3.org/2000/svg" width="136" height="136">
<path d="M0 0 C44.88 0 89.76 0 136 0 C136 44.88 136 89.76 136 136 C91.12 136 46.24 136 0 136 C0 91.12 0 46.24 0 0 Z " fill="#EBE8EA" transform="translate(0,0)"/>
<path d="M0 0 C5.3625 -0.0825 10.725 -0.165 16.25 -0.25 C18.77962402 -0.30462402 18.77962402 -0.30462402 21.36035156 -0.36035156 C22.7037631 -0.3720389 24.04718885 -0.38223062 25.390625 -0.390625 C26.42872314 -0.4213208 26.42872314 -0.4213208 27.48779297 -0.45263672 C30.72037436 -0.45497071 32.70945508 -0.1872568 35.44897461 1.57836914 C37.57165013 4.89252285 37.47073935 7.21691852 37.42578125 11.13671875 C37.42249313 11.81676468 37.41920502 12.49681061 37.41581726 13.19746399 C37.4054247 14.62889232 37.38552237 16.06027943 37.35668945 17.49145508 C37.31243963 19.69050039 37.29522727 21.88845432 37.28320312 24.08789062 C37.17970188 34.82029812 37.17970188 34.82029812 36 36 C33.36 36 30.72 36 28 36 C28 26.76 28 17.52 28 8 C26.02 8 24.04 8 22 8 C22 17.24 22 26.48 22 36 C19.69 36 17.38 36 15 36 C14 35 14 35 13.88647461 32.40795898 C13.89171143 31.28204346 13.89694824 30.15612793 13.90234375 28.99609375 C13.90556641 27.78115234 13.90878906 26.56621094 13.91210938 25.31445312 C13.92048828 24.03505859 13.92886719 22.75566406 13.9375 21.4375 C13.94201172 20.15423828 13.94652344 18.87097656 13.95117188 17.54882812 C13.96300455 14.36583978 13.97948932 11.18294238 14 8 C12.35 8 10.7 8 9 8 C9 17.24 9 26.48 9 36 C6.03 36 3.06 36 0 36 C0 24.12 0 12.24 0 0 Z " fill="#E73A2D" transform="translate(16,46)"/>
<path d="M0 0 C2.97 0 5.94 0 9 0 C9 4.29 9 8.58 9 13 C13.29 13 17.58 13 22 13 C22 8.71 22 4.42 22 0 C24.97 0 27.94 0 31 0 C31 11.88 31 23.76 31 36 C28.03 36 25.06 36 22 36 C22 31.38 22 26.76 22 22 C17.71 22 13.42 22 9 22 C9 26.62 9 31.24 9 36 C6.03 36 3.06 36 0 36 C0 24.12 0 12.24 0 0 Z " fill="#F7B92C" transform="translate(89,46)"/>
<path d="M0 0 C2.97 0 5.94 0 9 0 C9 8.91 9 17.82 9 27 C14.61 27 20.22 27 26 27 C26 29.64 26 32.28 26 35 C25 36 25 36 22.59155273 36.11352539 C21.54942627 36.10828857 20.5072998 36.10305176 19.43359375 36.09765625 C18.42095459 36.09515869 17.40831543 36.09266113 16.36499023 36.09008789 C15.06891846 36.08098389 13.77284668 36.07187988 12.4375 36.0625 C8.333125 36.041875 4.22875 36.02125 0 36 C0 24.12 0 12.24 0 0 Z " fill="#2357A1" transform="translate(58,46)"/>
<path d="M0 0 C3.3 0 6.6 0 10 0 C10 1.98 10 3.96 10 6 C6.66666667 6 3.33333333 6 0 6 C0 4.02 0 2.04 0 0 Z " fill="#777678" transform="translate(34,84)"/>
<path d="M0 0 C0.33 0 0.66 0 1 0 C1 1.65 1 3.3 1 5 C1.66 5 2.32 5 3 5 C3 3.35 3 1.7 3 0 C5.31 0 7.62 0 10 0 C10 1.98 10 3.96 10 6 C6.7 6 3.4 6 0 6 C0 4.02 0 2.04 0 0 Z " fill="#6E6D6E" transform="translate(70,84)"/>
<path d="M0 0 C2.475 0.495 2.475 0.495 5 1 C5 1.66 5 2.32 5 3 C5.66 3 6.32 3 7 3 C7.33 2.01 7.66 1.02 8 0 C8.66 0 9.32 0 10 0 C10 1.98 10 3.96 10 6 C6.7 6 3.4 6 0 6 C0 4.02 0 2.04 0 0 Z " fill="#666566" transform="translate(23,84)"/>
<path d="M0 0 C1.98 0 3.96 0 6 0 C6 1.98 6 3.96 6 6 C4.02 6 2.04 6 0 6 C0 4.02 0 2.04 0 0 Z " fill="#666667" transform="translate(16,84)"/>
<path d="M0 0 C2.31 0 4.62 0 7 0 C7 1.98 7 3.96 7 6 C6.67 4.68 6.34 3.36 6 2 C5.34 2 4.68 2 4 2 C4 3.32 4 4.64 4 6 C2.68 6 1.36 6 0 6 C0 4.02 0 2.04 0 0 Z " fill="#676667" transform="translate(107,84)"/>
<path d="M0 0 C2.0625 0.4375 2.0625 0.4375 4 1 C4 2.65 4 4.3 4 6 C2.35 6 0.7 6 -1 6 C-1.042721 4.33388095 -1.04063832 2.66617115 -1 1 C-0.67 0.67 -0.34 0.34 0 0 Z " fill="#5C5B5D" transform="translate(59,84)"/>
<path d="M0 0 C1.32 0 2.64 0 4 0 C4 0.66 4 1.32 4 2 C3.01 2 2.02 2 1 2 C1.99 2.33 2.98 2.66 4 3 C4 3.99 4 4.98 4 6 C2.35 6 0.7 6 -1 6 C-1.042721 4.33388095 -1.04063832 2.66617115 -1 1 C-0.67 0.67 -0.34 0.34 0 0 Z " fill="#626162" transform="translate(116,84)"/>
<path d="M0 0 C1.32 0 2.64 0 4 0 C4 0.66 4 1.32 4 2 C4.33 2.33 4.66 2.66 5 3 C5 3.99 5 4.98 5 6 C3.35 6 1.7 6 0 6 C0 4.02 0 2.04 0 0 Z " fill="#5F5E5F" transform="translate(64,84)"/>
<path d="M0 0 C1.65 0 3.3 0 5 0 C5 1.98 5 3.96 5 6 C3.35 6 1.7 6 0 6 C0 4.02 0 2.04 0 0 Z " fill="#646364" transform="translate(101,84)"/>
<path d="M0 0 C1.32 0 2.64 0 4 0 C4 1.98 4 3.96 4 6 C2.68 6 1.36 6 0 6 C0 4.02 0 2.04 0 0 Z " fill="#676668" transform="translate(53,84)"/>
<path d="M0 0 C1.32 0 2.64 0 4 0 C4 1.98 4 3.96 4 6 C2.66666667 6 1.33333333 6 0 6 C0 4.02 0 2.04 0 0 Z " fill="#504F50" transform="translate(40,84)"/>
<path d="M0 0 C1.32 0 2.64 0 4 0 C4 1.98 4 3.96 4 6 C3.67 5.34 3.34 4.68 3 4 C2.34 4 1.68 4 1 4 C0.67 4.66 0.34 5.32 0 6 C0 4.02 0 2.04 0 0 Z " fill="#4D4D4E" transform="translate(90,84)"/>
</svg>
