<svg width="56" height="72" viewBox="0 0 56 72" fill="none" xmlns="http://www.w3.org/2000/svg">
<g clip-path="url(#clip0_3187_65769)">
<path d="M31.0079 35.8325C34.7395 34.4466 36.6875 31.7778 36.6875 27.1844C36.6875 22.591 32.8167 18.5436 27.9803 18.5354C22.8763 18.5273 19.0263 22.5743 19.0877 27.1844C19.1492 31.7945 21.348 34.8614 24.8668 35.9703L18.6331 51.3062C10.2901 49.1462 1.80469 39.3038 1.80469 27.1844C1.80469 12.83 13.3385 1.19319 27.795 1.19319C42.2515 1.19319 53.9706 12.83 53.9706 27.1844C53.9706 39.4923 45.5656 49.1977 37.0445 51.3491L31.0079 35.8325Z" stroke="white" stroke-width="1.77799" stroke-linecap="round" stroke-linejoin="round"/>
<path d="M5.68033 58.9857C5.68033 59.8517 5.46012 60.5276 5.0197 61.0136C4.58222 61.4964 3.96858 61.7379 3.17876 61.7379C2.42125 61.7379 1.81788 61.4902 1.36865 60.9949C0.922363 60.4996 0.699219 59.8299 0.699219 58.9857C0.699219 58.1228 0.917959 57.453 1.35544 56.9764C1.79586 56.4967 2.41244 56.2568 3.20519 56.2568C3.69552 56.2568 4.1286 56.3674 4.50442 56.5886C4.88024 56.8098 5.16945 57.1275 5.37204 57.5418C5.57757 57.953 5.68033 58.4343 5.68033 58.9857ZM2.44767 58.9857C2.44767 59.4405 2.50493 59.7878 2.61943 60.0277C2.73394 60.2644 2.92626 60.3828 3.19638 60.3828C3.46357 60.3828 3.65148 60.2644 3.76011 60.0277C3.87169 59.7878 3.92747 59.4405 3.92747 58.9857C3.92747 58.534 3.87169 58.1929 3.76011 57.9624C3.64854 57.7318 3.45769 57.6166 3.18757 57.6166C2.92332 57.6166 2.73394 57.7318 2.61943 57.9624C2.50493 58.1898 2.44767 58.5309 2.44767 58.9857Z" fill="white"/>
<path d="M9.65108 61.7379C9.39858 61.7379 9.1725 61.6943 8.97284 61.607C8.77319 61.5167 8.575 61.3563 8.37828 61.1257H8.299C8.35185 61.4964 8.37828 61.727 8.37828 61.8173V63.9434H6.65625V56.3503H8.05677L8.299 57.0232H8.37828C8.69831 56.5123 9.1402 56.2568 9.70393 56.2568C10.2559 56.2568 10.689 56.4998 11.0032 56.9858C11.3173 57.4717 11.4744 58.1384 11.4744 58.9857C11.4744 59.8392 11.31 60.5121 10.9811 61.0043C10.6552 61.4933 10.2119 61.7379 9.65108 61.7379ZM9.07414 57.6913C8.82163 57.6913 8.644 57.7879 8.54123 57.981C8.4414 58.1711 8.38709 58.4545 8.37828 58.8315V58.9763C8.37828 59.4311 8.43553 59.7598 8.55004 59.9623C8.66455 60.1647 8.84512 60.266 9.09175 60.266C9.31196 60.266 9.47198 60.1663 9.57181 59.9669C9.67163 59.7644 9.72155 59.4311 9.72155 58.967C9.72155 58.5122 9.67163 58.1866 9.57181 57.9904C9.47198 57.791 9.30609 57.6913 9.07414 57.6913Z" fill="white"/>
<path d="M14.8632 61.7379C14.0322 61.7379 13.3863 61.5042 12.9253 61.037C12.4673 60.5666 12.2383 59.8984 12.2383 59.0324C12.2383 58.1384 12.4511 57.453 12.8769 56.9764C13.3026 56.4967 13.9104 56.2568 14.7002 56.2568C15.4519 56.2568 16.0317 56.4655 16.4399 56.883C16.8509 57.2973 17.0564 57.8954 17.0564 58.6773V59.4903H13.9779C13.9897 59.7863 14.091 60.0183 14.2818 60.1865C14.4756 60.3548 14.7384 60.4389 15.0702 60.4389C15.3726 60.4389 15.65 60.4093 15.9025 60.3501C16.158 60.2878 16.434 60.1834 16.7305 60.037V61.35C16.4604 61.4964 16.1815 61.5977 15.8937 61.6538C15.606 61.7098 15.2625 61.7379 14.8632 61.7379ZM14.7619 57.4998C14.5593 57.4998 14.389 57.5683 14.251 57.7054C14.1159 57.8393 14.0366 58.0511 14.0132 58.3408H15.493C15.4871 58.0854 15.4181 57.8814 15.286 57.7287C15.1568 57.5761 14.9821 57.4998 14.7619 57.4998Z" fill="white"/>
<path d="M21.188 61.6444V58.7567C21.188 58.4047 21.1396 58.1399 21.0427 57.9624C20.9487 57.7817 20.7961 57.6913 20.5847 57.6913C20.294 57.6913 20.0841 57.8144 19.9549 58.0605C19.8257 58.3066 19.7611 58.7287 19.7611 59.3268V61.6444H18.0391V56.3503H19.3383L19.5541 57.0045H19.6554C19.8022 56.7553 20.0048 56.5683 20.2632 56.4437C20.5245 56.3191 20.824 56.2568 21.1616 56.2568C21.7136 56.2568 22.1423 56.4266 22.4476 56.7662C22.7559 57.1057 22.9101 57.5839 22.9101 58.2007V61.6444H21.188Z" fill="white"/>
<path d="M29.8423 60.1719C29.8423 60.6765 29.6691 61.0643 29.3226 61.3353C28.9762 61.6032 28.4799 61.7372 27.834 61.7372C27.1851 61.7372 26.664 61.6328 26.2705 61.4241V60.4756C26.8431 60.7559 27.376 60.8961 27.8692 60.8961C28.5064 60.8961 28.8249 60.6921 28.8249 60.284C28.8249 60.1532 28.7897 60.0441 28.7192 59.9569C28.6488 59.8697 28.5328 59.7793 28.3713 59.6859C28.2098 59.5924 27.9852 59.4865 27.6975 59.3682C27.1367 59.1376 26.7565 58.9071 26.5568 58.6766C26.3601 58.4461 26.2617 58.147 26.2617 57.7794C26.2617 57.3371 26.4291 56.9944 26.7638 56.7515C27.1014 56.5054 27.5595 56.3823 28.1379 56.3823C28.7104 56.3823 29.2521 56.5054 29.763 56.7515L29.4283 57.5785C28.9027 57.348 28.4609 57.2327 28.1027 57.2327C27.5565 57.2327 27.2835 57.3978 27.2835 57.7281C27.2835 57.89 27.354 58.0271 27.4949 58.1392C27.6388 58.2514 27.95 58.4056 28.4286 58.6018C28.8308 58.7669 29.123 58.918 29.305 59.0551C29.487 59.1922 29.6221 59.351 29.7102 59.5317C29.7983 59.7093 29.8423 59.9226 29.8423 60.1719Z" fill="white"/>
<path d="M35.2752 59.0504C35.2752 59.8946 35.0712 60.5535 34.663 61.0269C34.2549 61.5004 33.6868 61.7372 32.9586 61.7372C32.5035 61.7372 32.1013 61.6282 31.7519 61.4101C31.4025 61.192 31.1338 60.879 30.9459 60.4709C30.758 60.0628 30.6641 59.5893 30.6641 59.0504C30.6641 58.2124 30.8667 57.5583 31.2718 57.0879C31.677 56.6175 32.2481 56.3823 32.9851 56.3823C33.6897 56.3823 34.2476 56.6237 34.6586 57.1066C35.0697 57.5863 35.2752 58.2343 35.2752 59.0504ZM31.7299 59.0504C31.7299 60.2435 32.1453 60.84 32.9762 60.84C33.7984 60.84 34.2094 60.2435 34.2094 59.0504C34.2094 57.8698 33.7954 57.2795 32.9674 57.2795C32.5329 57.2795 32.2173 57.4321 32.0205 57.7374C31.8268 58.0427 31.7299 58.4803 31.7299 59.0504Z" fill="white"/>
<path d="M39.9051 61.644L39.7597 60.9665H39.7069C39.563 61.2064 39.3575 61.3948 39.0903 61.5319C38.8261 61.669 38.5236 61.7375 38.183 61.7375C37.5929 61.7375 37.1525 61.5817 36.8618 61.2702C36.5711 60.9587 36.4258 60.4868 36.4258 59.8544V56.4761H37.4696V59.6628C37.4696 60.0584 37.5459 60.3559 37.6986 60.5553C37.8513 60.7516 38.0906 60.8497 38.4165 60.8497C38.851 60.8497 39.1696 60.7126 39.3722 60.4385C39.5777 60.1612 39.6805 59.6987 39.6805 59.0507V56.4761H40.7198V61.644H39.9051Z" fill="white"/>
<path d="M44.666 56.3823C44.8745 56.3823 45.0463 56.3979 45.1813 56.4291L45.08 57.4524C44.9332 57.415 44.7806 57.3963 44.622 57.3963C44.208 57.3963 43.8718 57.5396 43.6135 57.8262C43.358 58.1128 43.2303 58.485 43.2303 58.9429V61.6437H42.1953V56.4758H43.0057L43.1422 57.3869H43.1951C43.3565 57.0786 43.5665 56.834 43.8249 56.6533C44.0862 56.4727 44.3666 56.3823 44.666 56.3823Z" fill="white"/>
<path d="M48.0518 61.7372C47.3148 61.7372 46.754 61.5098 46.3694 61.055C45.9877 60.5971 45.7969 59.9413 45.7969 59.0878C45.7969 58.2187 45.9965 57.5505 46.3958 57.0832C46.7981 56.616 47.378 56.3823 48.1355 56.3823C48.6493 56.3823 49.1117 56.4836 49.5228 56.686L49.2101 57.5692C48.7726 57.3885 48.4115 57.2982 48.1267 57.2982C47.284 57.2982 46.8627 57.8916 46.8627 59.0784C46.8627 59.6579 46.9669 60.094 47.1754 60.3868C47.3868 60.6765 47.6951 60.8214 48.1003 60.8214C48.5612 60.8214 48.9972 60.6999 49.4083 60.4569V61.4148C49.2233 61.53 49.0251 61.6126 48.8137 61.6624C48.6053 61.7123 48.3513 61.7372 48.0518 61.7372Z" fill="white"/>
<path d="M52.6913 61.7372C51.9338 61.7372 51.3407 61.5036 50.912 61.0363C50.4863 60.5659 50.2734 59.9195 50.2734 59.0971C50.2734 58.2529 50.4716 57.5894 50.868 57.1066C51.2644 56.6237 51.809 56.3823 52.5019 56.3823C53.145 56.3823 53.6529 56.5895 54.0258 57.0038C54.3987 57.4181 54.5851 57.9882 54.5851 58.714V59.3074H51.3392C51.3539 59.8089 51.4816 60.1952 51.7224 60.4662C51.9632 60.7341 52.3023 60.8681 52.7398 60.8681C53.0275 60.8681 53.2947 60.84 53.5413 60.784C53.7909 60.7248 54.0581 60.6282 54.3429 60.4943V61.3867C54.0904 61.5145 53.8349 61.6048 53.5766 61.6578C53.3182 61.7107 53.0231 61.7372 52.6913 61.7372ZM52.5019 57.2141C52.1731 57.2141 51.9088 57.3246 51.7092 57.5458C51.5125 57.767 51.395 58.0894 51.3569 58.5131H53.5678C53.5619 58.0863 53.465 57.7639 53.2771 57.5458C53.0892 57.3246 52.8308 57.2141 52.5019 57.2141Z" fill="white"/>
<path d="M10.374 71.24H9.339V66.072H10.374V71.24ZM9.27734 64.7029C9.27734 64.5067 9.32726 64.3556 9.42708 64.2497C9.52985 64.1438 9.67519 64.0908 9.8631 64.0908C10.0451 64.0908 10.1861 64.1438 10.2859 64.2497C10.3887 64.3556 10.44 64.5067 10.44 64.7029C10.44 64.8898 10.3887 65.0378 10.2859 65.1468C10.1861 65.2528 10.0451 65.3057 9.8631 65.3057C9.67519 65.3057 9.52985 65.2528 9.42708 65.1468C9.32726 65.0378 9.27734 64.8898 9.27734 64.7029Z" fill="white"/>
<path d="M16.1446 71.2404H15.1052V68.063C15.1052 67.6643 15.0289 67.3668 14.8762 67.1705C14.7265 66.9743 14.4872 66.8762 14.1583 66.8762C13.7209 66.8762 13.4008 67.0132 13.1982 67.2873C12.9956 67.5615 12.8944 68.021 12.8944 68.6658V71.2404H11.8594V66.0725H12.6697L12.8151 66.75H12.8679C13.0147 66.5039 13.2232 66.3139 13.4933 66.1799C13.7634 66.046 14.0629 65.979 14.3918 65.979C15.5603 65.979 16.1446 66.6098 16.1446 67.8714V71.2404Z" fill="white"/>
<path d="M18.6201 71.24H17.5851V66.072H18.6201V71.24ZM17.5234 64.7029C17.5234 64.5067 17.5734 64.3556 17.6732 64.2497C17.7759 64.1438 17.9213 64.0908 18.1092 64.0908C18.2912 64.0908 18.4322 64.1438 18.532 64.2497C18.6348 64.3556 18.6861 64.5067 18.6861 64.7029C18.6861 64.8898 18.6348 65.0378 18.532 65.1468C18.4322 65.2528 18.2912 65.3057 18.1092 65.3057C17.9213 65.3057 17.7759 65.2528 17.6732 65.1468C17.5734 65.0378 17.5234 64.8898 17.5234 64.7029Z" fill="white"/>
<path d="M21.9178 70.4454C22.1703 70.4454 22.4228 70.4034 22.6753 70.3193V71.1463C22.5608 71.1993 22.4125 71.2429 22.2305 71.2772C22.0514 71.3146 21.865 71.3333 21.6712 71.3333C20.6905 71.3333 20.2002 70.785 20.2002 69.6885V66.9036H19.5352V66.4176L20.2486 66.0158L20.601 64.9224H21.2396V66.0718H22.6269V66.9036H21.2396V69.6698C21.2396 69.9346 21.3012 70.1308 21.4245 70.2585C21.5508 70.3831 21.7152 70.4454 21.9178 70.4454Z" fill="white"/>
<path d="M24.6787 71.24H23.6437V66.072H24.6787V71.24ZM23.582 64.7029C23.582 64.5067 23.6319 64.3556 23.7318 64.2497C23.8345 64.1438 23.9799 64.0908 24.1678 64.0908C24.3498 64.0908 24.4908 64.1438 24.5906 64.2497C24.6933 64.3556 24.7447 64.5067 24.7447 64.7029C24.7447 64.8898 24.6933 65.0378 24.5906 65.1468C24.4908 65.2528 24.3498 65.3057 24.1678 65.3057C23.9799 65.3057 23.8345 65.2528 23.7318 65.1468C23.6319 65.0378 23.582 64.8898 23.582 64.7029Z" fill="white"/>
<path d="M29.2115 71.2404L29.0045 70.5208H28.9693C28.7344 70.8355 28.498 71.0504 28.2602 71.1657C28.0224 71.2778 27.717 71.3339 27.3442 71.3339C26.8656 71.3339 26.4912 71.1968 26.2211 70.9227C25.9539 70.6485 25.8203 70.2607 25.8203 69.7592C25.8203 69.2265 26.0068 68.8247 26.3796 68.5536C26.7525 68.2826 27.3207 68.1347 28.0841 68.1097L28.9252 68.0817V67.806C28.9252 67.4758 28.8518 67.2297 28.705 67.0677C28.5612 66.9026 28.3366 66.8201 28.0312 66.8201C27.7816 66.8201 27.5423 66.859 27.3133 66.9369C27.0843 67.0148 26.8641 67.1067 26.6527 67.2126L26.318 66.4276C26.5822 66.2812 26.8714 66.1706 27.1856 66.0958C27.4998 66.0179 27.7963 65.979 28.0752 65.979C28.6948 65.979 29.1616 66.1223 29.4758 66.4089C29.7929 66.6955 29.9514 67.1456 29.9514 67.7593V71.2404H29.2115ZM27.6701 70.4928C28.0459 70.4928 28.3468 70.3822 28.5729 70.161C28.8019 69.9367 28.9164 69.6237 28.9164 69.2218V68.7733L28.291 68.8013C27.8037 68.82 27.4484 68.9072 27.2252 69.063C27.005 69.2156 26.8949 69.4508 26.8949 69.7685C26.8949 69.999 26.9595 70.1782 27.0887 70.3059C27.2179 70.4305 27.4117 70.4928 27.6701 70.4928Z" fill="white"/>
<path d="M33.2108 70.4454C33.4633 70.4454 33.7158 70.4034 33.9683 70.3193V71.1463C33.8538 71.1993 33.7055 71.2429 33.5235 71.2772C33.3444 71.3146 33.1579 71.3333 32.9641 71.3333C31.9835 71.3333 31.4932 70.785 31.4932 69.6885V66.9036H30.8281V66.4176L31.5416 66.0158L31.8939 64.9224H32.5325V66.0718H33.9198V66.9036H32.5325V69.6698C32.5325 69.9346 32.5942 70.1308 32.7175 70.2585C32.8438 70.3831 33.0082 70.4454 33.2108 70.4454Z" fill="white"/>
<path d="M35.9716 71.24H34.9367V66.072H35.9716V71.24ZM34.875 64.7029C34.875 64.5067 34.9249 64.3556 35.0247 64.2497C35.1275 64.1438 35.2728 64.0908 35.4608 64.0908C35.6428 64.0908 35.7837 64.1438 35.8836 64.2497C35.9863 64.3556 36.0377 64.5067 36.0377 64.7029C36.0377 64.8898 35.9863 65.0378 35.8836 65.1468C35.7837 65.2528 35.6428 65.3057 35.4608 65.3057C35.2728 65.3057 35.1275 65.2528 35.0247 65.1468C34.9249 65.0378 34.875 64.8898 34.875 64.7029Z" fill="white"/>
<path d="M38.5646 71.2402L36.7148 66.0723H37.8071L38.798 69.0768C38.9683 69.5814 39.0711 69.9895 39.1063 70.301H39.1415C39.168 70.0767 39.2707 69.6687 39.4498 69.0768L40.4408 66.0723H41.5418L39.6833 71.2402H38.5646Z" fill="white"/>
<path d="M44.4101 71.3339C43.6526 71.3339 43.0595 71.1002 42.6308 70.633C42.2051 70.1626 41.9922 69.5162 41.9922 68.6938C41.9922 67.8496 42.1904 67.1861 42.5867 66.7033C42.9831 66.2204 43.5278 65.979 44.2207 65.979C44.8637 65.979 45.3716 66.1862 45.7445 66.6005C46.1174 67.0148 46.3039 67.5848 46.3039 68.3107V68.9041H43.058C43.0727 69.4056 43.2004 69.7919 43.4412 70.0629C43.6819 70.3308 44.021 70.4648 44.4585 70.4648C44.7463 70.4648 45.0134 70.4367 45.2601 70.3806C45.5096 70.3215 45.7768 70.2249 46.0616 70.0909V70.9834C45.8091 71.1111 45.5537 71.2015 45.2953 71.2544C45.0369 71.3074 44.7419 71.3339 44.4101 71.3339ZM44.2207 66.8107C43.8919 66.8107 43.6276 66.9213 43.4279 67.1425C43.2312 67.3637 43.1138 67.6861 43.0756 68.1097H45.2865C45.2806 67.683 45.1837 67.3606 44.9958 67.1425C44.8079 66.9213 44.5495 66.8107 44.2207 66.8107Z" fill="white"/>
<path d="M48.3567 65.3421H48.5763C48.6848 65.3421 48.7715 65.3143 48.8366 65.2587C48.903 65.2018 48.9362 65.1299 48.9362 65.0432C48.9362 64.9415 48.9071 64.869 48.8488 64.8256C48.7905 64.7809 48.6983 64.7585 48.5722 64.7585H48.3567V65.3421ZM49.2392 65.035C49.2392 65.1435 49.2101 65.2397 49.1518 65.3238C49.0948 65.4065 49.0142 65.4682 48.9098 65.5088L49.3938 66.3121H49.0521L48.6312 65.5922H48.3567V66.3121H48.0557V64.5002H48.5865C48.8115 64.5002 48.9762 64.5443 49.0806 64.6324C49.1863 64.7205 49.2392 64.8547 49.2392 65.035ZM47.0898 65.4051C47.0898 65.134 47.1576 64.8798 47.2932 64.6426C47.4288 64.4054 47.6152 64.2183 47.8524 64.0814C48.0896 63.9444 48.3452 63.876 48.619 63.876C48.8901 63.876 49.1443 63.9438 49.3816 64.0793C49.6188 64.2149 49.8059 64.4013 49.9428 64.6385C50.0797 64.8758 50.1482 65.1313 50.1482 65.4051C50.1482 65.6722 50.0824 65.923 49.9509 66.1575C49.8194 66.392 49.6351 66.5798 49.3978 66.7208C49.1606 66.8618 48.901 66.9323 48.619 66.9323C48.3384 66.9323 48.0795 66.8624 47.8422 66.7228C47.605 66.5818 47.4199 66.3941 47.2871 66.1596C47.1556 65.925 47.0898 65.6736 47.0898 65.4051ZM47.3034 65.4051C47.3034 65.6397 47.3623 65.8593 47.4803 66.064C47.5982 66.2673 47.7589 66.428 47.9622 66.5459C48.1669 66.6625 48.3858 66.7208 48.619 66.7208C48.8549 66.7208 49.0738 66.6618 49.2758 66.5439C49.4778 66.4259 49.6378 66.2666 49.7557 66.066C49.875 65.864 49.9347 65.6437 49.9347 65.4051C49.9347 65.1693 49.8757 64.9503 49.7577 64.7483C49.6398 64.5463 49.4798 64.3864 49.2778 64.2684C49.0772 64.1491 48.8576 64.0895 48.619 64.0895C48.3831 64.0895 48.1642 64.1485 47.9622 64.2664C47.7602 64.3843 47.5996 64.5443 47.4803 64.7463C47.3623 64.9469 47.3034 65.1665 47.3034 65.4051Z" fill="white"/>
</g>
<defs>
<clipPath id="clip0_3187_65769">
<rect width="54.7461" height="71.1439" fill="white" transform="translate(0.265625 0.151367)"/>
</clipPath>
</defs>
</svg>
