<svg width="110" height="50" viewBox="0 0 110 50" fill="none" xmlns="http://www.w3.org/2000/svg">
<path d="M62.884 22.3336C62.884 22.7598 62.828 23.1355 62.714 23.4644C62.6 23.7933 62.435 24.0697 62.221 24.2974C62.006 24.5251 61.746 24.6944 61.442 24.8112C61.139 24.928 60.797 24.9844 60.416 24.9844C60.061 24.9844 59.732 24.926 59.436 24.8112C59.141 24.6964 58.88 24.5251 58.662 24.2974C58.443 24.0697 58.273 23.7933 58.155 23.4644C58.037 23.1355 57.976 22.7598 57.976 22.3336C57.976 21.7672 58.076 21.2884 58.275 20.8972C58.474 20.506 58.758 20.2063 59.127 20.0039C59.496 19.8015 59.935 19.6983 60.445 19.6983C60.919 19.6983 61.34 19.7995 61.707 20.0039C62.074 20.2083 62.362 20.506 62.573 20.8972C62.783 21.2884 62.888 21.7692 62.888 22.3336H62.884ZM59.384 22.3336C59.384 22.6684 59.421 22.9486 59.492 23.1783C59.564 23.4079 59.678 23.5773 59.833 23.694C59.987 23.8108 60.188 23.8673 60.435 23.8673C60.683 23.8673 60.878 23.8089 61.031 23.694C61.183 23.5792 61.295 23.406 61.365 23.1783C61.434 22.9506 61.471 22.6684 61.471 22.3336C61.471 21.9988 61.436 21.7147 61.365 21.4928C61.293 21.2709 61.181 21.1016 61.027 20.9887C60.872 20.8758 60.671 20.8194 60.424 20.8194C60.059 20.8194 59.794 20.9459 59.63 21.1989C59.465 21.4519 59.382 21.8295 59.382 22.3355L59.384 22.3336Z" fill="#1C1C1C"/>
<path d="M66.612 19.6983C67.182 19.6983 67.644 19.9221 67.996 20.3698C68.348 20.8174 68.523 21.4714 68.523 22.3355C68.523 22.9136 68.44 23.3982 68.274 23.7933C68.108 24.1884 67.878 24.4842 67.586 24.6847C67.294 24.8852 66.956 24.9864 66.576 24.9864C66.33 24.9864 66.121 24.9552 65.946 24.893C65.77 24.8307 65.621 24.7509 65.497 24.6516C65.374 24.5524 65.265 24.4473 65.177 24.3344H65.103C65.126 24.455 65.146 24.5815 65.157 24.7081C65.169 24.8346 65.175 24.9611 65.175 25.0817V27.139H63.793V19.7956H64.916L65.111 20.4574H65.175C65.265 20.3211 65.376 20.1946 65.505 20.0779C65.634 19.9611 65.791 19.8696 65.975 19.8015C66.158 19.7334 66.369 19.6983 66.61 19.6983H66.612ZM66.168 20.8116C65.926 20.8116 65.735 20.8622 65.592 20.9615C65.449 21.0607 65.347 21.2125 65.281 21.413C65.215 21.6135 65.18 21.8684 65.175 22.174V22.3239C65.175 22.6528 65.206 22.9311 65.267 23.1588C65.329 23.3865 65.434 23.5598 65.58 23.6785C65.727 23.7972 65.928 23.8556 66.185 23.8556C66.396 23.8556 66.57 23.7972 66.707 23.6785C66.844 23.5598 66.945 23.3865 67.012 23.1569C67.08 22.9272 67.115 22.6469 67.115 22.3161C67.115 21.8178 67.037 21.4422 66.883 21.1892C66.728 20.9362 66.491 20.8097 66.168 20.8097V20.8116Z" fill="#1C1C1C"/>
<path d="M71.519 19.6983C71.987 19.6983 72.391 19.7879 72.729 19.9689C73.067 20.1499 73.328 20.4126 73.511 20.7552C73.695 21.0977 73.788 21.5181 73.788 22.0144V22.6898H70.522C70.538 23.0829 70.653 23.3904 70.874 23.6142C71.094 23.8381 71.397 23.949 71.786 23.949C72.109 23.949 72.404 23.9159 72.673 23.8478C72.941 23.7797 73.218 23.6804 73.502 23.5461V24.6224C73.251 24.747 72.99 24.8385 72.715 24.8968C72.441 24.9552 72.11 24.9844 71.722 24.9844C71.216 24.9844 70.766 24.891 70.375 24.7022C69.985 24.5134 69.678 24.2254 69.455 23.84C69.233 23.4547 69.123 22.9681 69.123 22.3803C69.123 21.7925 69.224 21.2884 69.424 20.8914C69.625 20.4944 69.906 20.1966 70.265 19.9981C70.624 19.7995 71.042 19.6983 71.519 19.6983ZM71.529 20.687C71.26 20.687 71.038 20.7746 70.86 20.9478C70.682 21.1211 70.582 21.3935 70.555 21.7653H72.493C72.489 21.559 72.452 21.3741 72.383 21.2125C72.313 21.051 72.207 20.9245 72.066 20.8291C71.925 20.7337 71.747 20.687 71.529 20.687Z" fill="#1C1C1C"/>
<path d="M77.557 19.6983C78.098 19.6983 78.533 19.8462 78.861 20.144C79.19 20.4418 79.354 20.9148 79.354 21.5687V24.8949H77.972V21.9171C77.972 21.5512 77.907 21.2768 77.775 21.0919C77.644 20.907 77.437 20.8135 77.157 20.8135C76.734 20.8135 76.446 20.9576 76.291 21.2476C76.137 21.5376 76.059 21.9521 76.059 22.4971V24.8968H74.678V19.7976H75.733L75.918 20.4496H75.996C76.104 20.2725 76.239 20.1304 76.401 20.0214C76.564 19.9124 76.743 19.8307 76.941 19.7801C77.138 19.7295 77.342 19.7022 77.555 19.7022L77.557 19.6983Z" fill="#1C1C1C"/>
<path d="M86.001 23.5247C86.001 23.8439 85.922 24.1125 85.763 24.3305C85.605 24.5485 85.379 24.7119 85.083 24.8209C84.788 24.9299 84.438 24.9844 84.03 24.9844C83.682 24.9844 83.383 24.9572 83.13 24.9027C82.876 24.8482 82.654 24.7703 82.463 24.6691V23.9704C82.666 24.0716 82.907 24.1611 83.188 24.2448C83.468 24.3285 83.756 24.3675 84.047 24.3675C84.476 24.3675 84.788 24.2974 84.981 24.1573C85.174 24.0171 85.271 23.8264 85.271 23.587C85.271 23.4508 85.232 23.3301 85.155 23.225C85.077 23.1199 84.948 23.0187 84.768 22.9194C84.588 22.8202 84.337 22.7112 84.016 22.5924C83.7 22.4718 83.425 22.3492 83.195 22.2304C82.965 22.1117 82.786 21.9638 82.66 21.7906C82.534 21.6174 82.473 21.3916 82.473 21.1152C82.473 20.6929 82.643 20.3678 82.983 20.1421C83.323 19.9163 83.769 19.8015 84.322 19.8015C84.621 19.8015 84.902 19.8307 85.162 19.891C85.423 19.9513 85.667 20.0292 85.895 20.1304L85.642 20.7376C85.437 20.6501 85.216 20.5742 84.985 20.5138C84.753 20.4535 84.515 20.4223 84.273 20.4223C83.926 20.4223 83.659 20.4807 83.474 20.5956C83.288 20.7104 83.195 20.87 83.195 21.0705C83.195 21.2262 83.238 21.3527 83.325 21.4539C83.412 21.5551 83.549 21.6485 83.738 21.7361C83.928 21.8237 84.179 21.9268 84.49 22.0455C84.801 22.1604 85.07 22.281 85.296 22.4037C85.522 22.5263 85.696 22.6761 85.819 22.8513C85.943 23.0265 86.003 23.2503 86.003 23.5247H86.001Z" fill="#1C1C1C"/>
<path d="M91.257 22.3842C91.257 22.7949 91.204 23.1608 91.098 23.4838C90.992 23.8069 90.839 24.0775 90.64 24.3013C90.441 24.5251 90.2 24.6925 89.918 24.8093C89.635 24.926 89.317 24.9844 88.959 24.9844C88.627 24.9844 88.323 24.926 88.047 24.8093C87.771 24.6925 87.533 24.5232 87.332 24.3013C87.131 24.0794 86.977 23.8069 86.866 23.4838C86.756 23.1608 86.7 22.7949 86.7 22.3842C86.7 21.8373 86.793 21.3702 86.977 20.9868C87.16 20.6033 87.425 20.3095 87.767 20.107C88.109 19.9046 88.519 19.8034 88.992 19.8034C89.465 19.8034 89.84 19.9046 90.18 20.109C90.52 20.3133 90.783 20.6072 90.973 20.9926C91.162 21.378 91.255 21.8412 91.255 22.3861L91.257 22.3842ZM87.481 22.3842C87.481 22.7851 87.533 23.1335 87.639 23.4293C87.746 23.7252 87.908 23.9529 88.128 24.1144C88.348 24.276 88.633 24.3558 88.98 24.3558C89.328 24.3558 89.608 24.276 89.829 24.1144C90.049 23.9529 90.215 23.7252 90.319 23.4293C90.424 23.1335 90.478 22.7871 90.478 22.3842C90.478 21.9813 90.426 21.6407 90.319 21.3507C90.213 21.0607 90.051 20.8369 89.831 20.6773C89.61 20.5177 89.324 20.4399 88.975 20.4399C88.459 20.4399 88.08 20.6111 87.84 20.9556C87.601 21.3001 87.481 21.775 87.481 22.3842Z" fill="#1C1C1C"/>
<path d="M96.424 19.893V24.893H95.808L95.699 24.1904H95.659C95.556 24.3636 95.423 24.5095 95.261 24.6283C95.099 24.747 94.915 24.8365 94.71 24.8949C94.505 24.9533 94.289 24.9844 94.061 24.9844C93.669 24.9844 93.34 24.9202 93.073 24.7937C92.807 24.6672 92.608 24.4687 92.472 24.2001C92.337 23.9315 92.271 23.589 92.271 23.1686V19.893H93.033V23.1141C93.033 23.5306 93.126 23.842 93.313 24.0463C93.5 24.2507 93.786 24.3538 94.169 24.3538C94.552 24.3538 94.832 24.2838 95.05 24.1436C95.269 24.0035 95.427 23.7972 95.524 23.5247C95.62 23.2522 95.669 22.9194 95.669 22.5243V19.893H96.424Z" fill="#1C1C1C"/>
<path d="M100.037 19.8034C100.138 19.8034 100.24 19.8093 100.35 19.819C100.46 19.8287 100.555 19.8443 100.64 19.8618L100.545 20.5644C100.464 20.543 100.373 20.5255 100.273 20.5138C100.173 20.5021 100.08 20.4963 99.993 20.4963C99.794 20.4963 99.606 20.5372 99.429 20.617C99.251 20.6968 99.098 20.8135 98.965 20.9634C98.831 21.1133 98.727 21.2943 98.652 21.5064C98.576 21.7186 98.538 21.9521 98.538 22.211V24.893H97.782V19.893H98.406L98.488 20.8135H98.518C98.621 20.6286 98.745 20.4593 98.889 20.3056C99.034 20.1518 99.202 20.0292 99.394 19.9377C99.585 19.8462 99.8 19.8015 100.035 19.8015L100.037 19.8034Z" fill="#1C1C1C"/>
<path d="M103.331 24.9844C102.885 24.9844 102.491 24.891 102.149 24.7061C101.806 24.5212 101.542 24.2371 101.352 23.8575C101.163 23.478 101.066 22.9992 101.066 22.4212C101.066 21.8431 101.167 21.3215 101.368 20.9362C101.569 20.5508 101.845 20.2666 102.199 20.0817C102.552 19.8968 102.954 19.8034 103.403 19.8034C103.65 19.8034 103.89 19.8287 104.12 19.8793C104.349 19.9299 104.541 19.9922 104.688 20.0681L104.462 20.7026C104.311 20.6423 104.137 20.5878 103.938 20.5391C103.739 20.4905 103.555 20.4652 103.383 20.4652C103.039 20.4652 102.753 20.5391 102.525 20.689C102.297 20.8388 102.127 21.0568 102.013 21.3468C101.899 21.6368 101.843 21.991 101.843 22.4134C101.843 22.8357 101.899 23.1627 102.009 23.4488C102.12 23.7349 102.284 23.9529 102.502 24.1028C102.72 24.2526 102.995 24.3285 103.323 24.3285C103.586 24.3285 103.824 24.3013 104.034 24.2448C104.245 24.1884 104.438 24.1222 104.61 24.0463V24.7217C104.444 24.8073 104.259 24.8715 104.056 24.9183C103.853 24.965 103.609 24.9864 103.329 24.9864L103.331 24.9844Z" fill="#1C1C1C"/>
<path d="M107.464 19.8034C107.887 19.8034 108.248 19.8968 108.55 20.0856C108.851 20.2744 109.083 20.5372 109.243 20.8778C109.404 21.2184 109.483 21.6135 109.483 22.0669V22.536H106.055C106.065 23.1238 106.21 23.5695 106.49 23.877C106.77 24.1845 107.166 24.3383 107.676 24.3383C107.989 24.3383 108.268 24.3091 108.509 24.2507C108.751 24.1923 109.002 24.1086 109.261 23.9957V24.6613C109.01 24.7742 108.762 24.856 108.515 24.9085C108.268 24.9611 107.978 24.9864 107.643 24.9864C107.166 24.9864 106.751 24.8891 106.395 24.6925C106.04 24.4959 105.765 24.2079 105.568 23.8283C105.371 23.4488 105.274 22.9836 105.274 22.4328C105.274 21.8821 105.363 21.4286 105.543 21.0354C105.723 20.6423 105.976 20.3386 106.304 20.1246C106.633 19.9105 107.017 19.8054 107.462 19.8054L107.464 19.8034ZM107.454 20.4223C107.052 20.4223 106.733 20.5547 106.494 20.8194C106.254 21.0841 106.113 21.4539 106.069 21.9288H108.695C108.691 21.631 108.646 21.3682 108.557 21.1425C108.469 20.9167 108.333 20.7396 108.152 20.6131C107.97 20.4866 107.738 20.4243 107.454 20.4243V20.4223Z" fill="#1C1C1C"/>
<path d="M67.045 27.1721C67.169 27.1721 67.275 27.2129 67.364 27.2927C67.453 27.3725 67.497 27.499 67.497 27.6684C67.497 27.8377 67.453 27.9603 67.364 28.042C67.275 28.1238 67.169 28.1647 67.045 28.1647C66.921 28.1647 66.807 28.1238 66.72 28.042C66.633 27.9603 66.591 27.8357 66.591 27.6684C66.591 27.501 66.633 27.3725 66.72 27.2927C66.807 27.2129 66.914 27.1721 67.045 27.1721ZM67.412 29.0405V34.0405H66.66V29.0405H67.412Z" fill="#1C1C1C"/>
<path d="M71.351 28.951C71.94 28.951 72.385 29.0969 72.686 29.3869C72.987 29.6769 73.138 30.144 73.138 30.7844V34.0405H72.396V30.833C72.396 30.4165 72.301 30.1051 72.114 29.8988C71.927 29.6925 71.637 29.5893 71.246 29.5893C70.698 29.5893 70.311 29.745 70.087 30.0584C69.863 30.3717 69.753 30.8272 69.753 31.4227V34.0405H69.001V29.0405H69.608L69.722 29.7606H69.762C69.869 29.5835 70.002 29.4356 70.166 29.3149C70.33 29.1942 70.512 29.1028 70.715 29.0405C70.918 28.9782 71.13 28.9471 71.353 28.9471L71.351 28.951Z" fill="#1C1C1C"/>
<path d="M75.075 27.1721C75.199 27.1721 75.305 27.2129 75.394 27.2927C75.483 27.3725 75.527 27.499 75.527 27.6684C75.527 27.8377 75.483 27.9603 75.394 28.042C75.305 28.1238 75.199 28.1647 75.075 28.1647C74.952 28.1647 74.838 28.1238 74.751 28.042C74.664 27.9603 74.621 27.8357 74.621 27.6684C74.621 27.501 74.664 27.3725 74.751 27.2927C74.838 27.2129 74.944 27.1721 75.075 27.1721ZM75.442 29.0405V34.0405H74.691V29.0405H75.442Z" fill="#1C1C1C"/>
<path d="M78.635 33.5111C78.759 33.5111 78.886 33.5014 79.016 33.48C79.145 33.4585 79.251 33.4332 79.333 33.4021V33.9899C79.246 34.0288 79.124 34.0638 78.967 34.0911C78.811 34.1183 78.66 34.132 78.511 34.132C78.248 34.132 78.011 34.0852 77.796 33.9938C77.582 33.9023 77.41 33.7427 77.282 33.5208C77.155 33.2989 77.089 32.9914 77.089 32.6002V29.636H76.382V29.2663L77.093 28.9704L77.392 27.8844H77.845V29.0424H79.298V29.636H77.845V32.5788C77.845 32.8922 77.916 33.1257 78.059 33.2814C78.202 33.4371 78.393 33.515 78.631 33.515L78.635 33.5111Z" fill="#1C1C1C"/>
<path d="M80.723 27.1721C80.846 27.1721 80.953 27.2129 81.041 27.2927C81.13 27.3725 81.175 27.499 81.175 27.6684C81.175 27.8377 81.13 27.9603 81.041 28.042C80.953 28.1238 80.846 28.1647 80.723 28.1647C80.599 28.1647 80.485 28.1238 80.398 28.042C80.311 27.9603 80.269 27.8357 80.269 27.6684C80.269 27.501 80.311 27.3725 80.398 27.2927C80.485 27.2129 80.591 27.1721 80.723 27.1721ZM81.088 29.0405V34.0405H80.336V29.0405H81.088Z" fill="#1C1C1C"/>
<path d="M84.537 28.9587C85.128 28.9587 85.568 29.093 85.854 29.3597C86.14 29.6263 86.285 30.0545 86.285 30.6423V34.0405H85.737L85.592 33.3009H85.555C85.416 33.4838 85.271 33.6357 85.12 33.7602C84.969 33.8848 84.796 33.9763 84.597 34.0385C84.398 34.1008 84.156 34.132 83.87 34.132C83.569 34.132 83.3 34.0794 83.066 33.9724C82.832 33.8653 82.649 33.7038 82.513 33.4897C82.378 33.2756 82.312 32.9992 82.312 32.6684C82.312 32.1701 82.51 31.7867 82.902 31.5181C83.294 31.2495 83.891 31.1055 84.695 31.0802L85.551 31.0432V30.7376C85.551 30.3056 85.458 30.0039 85.275 29.8307C85.091 29.6575 84.83 29.5699 84.496 29.5699C84.237 29.5699 83.99 29.6088 83.754 29.6847C83.518 29.7606 83.294 29.8501 83.084 29.9533L82.852 29.3791C83.076 29.2643 83.331 29.165 83.621 29.0833C83.911 29.0016 84.216 28.9607 84.535 28.9607L84.537 28.9587ZM85.541 31.5784L84.786 31.6096C84.168 31.6329 83.731 31.7361 83.478 31.9151C83.225 32.0942 83.097 32.3492 83.097 32.6761C83.097 32.9622 83.184 33.1724 83.356 33.3106C83.528 33.4488 83.756 33.515 84.04 33.515C84.481 33.515 84.842 33.3924 85.122 33.1452C85.402 32.898 85.543 32.5302 85.543 32.0358V31.5745L85.541 31.5784Z" fill="#1C1C1C"/>
<path d="M89.437 33.5111C89.56 33.5111 89.688 33.5014 89.817 33.48C89.947 33.4585 90.053 33.4332 90.134 33.4021V33.9899C90.047 34.0288 89.926 34.0638 89.769 34.0911C89.613 34.1183 89.462 34.132 89.313 34.132C89.05 34.132 88.813 34.0852 88.598 33.9938C88.384 33.9023 88.212 33.7427 88.084 33.5208C87.957 33.2989 87.891 32.9914 87.891 32.6002V29.636H87.184V29.2663L87.895 28.9704L88.194 27.8844H88.646V29.0424H90.1V29.636H88.646V32.5788C88.646 32.8922 88.718 33.1257 88.861 33.2814C89.004 33.4371 89.195 33.515 89.433 33.515L89.437 33.5111Z" fill="#1C1C1C"/>
<path d="M91.523 27.1721C91.647 27.1721 91.753 27.2129 91.842 27.2927C91.931 27.3725 91.976 27.499 91.976 27.6684C91.976 27.8377 91.931 27.9603 91.842 28.042C91.753 28.1238 91.647 28.1647 91.523 28.1647C91.4 28.1647 91.286 28.1238 91.199 28.042C91.112 27.9603 91.069 27.8357 91.069 27.6684C91.069 27.501 91.112 27.3725 91.199 27.2927C91.286 27.2129 91.392 27.1721 91.523 27.1721ZM91.891 29.0405V34.0405H91.139V29.0405H91.891Z" fill="#1C1C1C"/>
<path d="M94.573 34.0405L92.688 29.0405H93.494L94.586 32.065C94.661 32.2713 94.739 32.499 94.818 32.7501C94.897 33.0012 94.951 33.1997 94.98 33.3515H95.011C95.048 33.1997 95.108 32.9973 95.193 32.7462C95.278 32.4951 95.355 32.2674 95.425 32.065L96.516 29.0405H97.322L95.434 34.0405H94.574H94.573Z" fill="#1C1C1C"/>
<path d="M100.025 28.951C100.448 28.951 100.81 29.0444 101.111 29.2332C101.413 29.422 101.645 29.6847 101.805 30.0253C101.965 30.3659 102.045 30.761 102.045 31.2145V31.6835H98.617C98.626 32.2713 98.771 32.717 99.051 33.0245C99.332 33.332 99.728 33.4858 100.238 33.4858C100.551 33.4858 100.829 33.4566 101.071 33.3982C101.312 33.3398 101.563 33.2561 101.822 33.1432V33.8089C101.571 33.9218 101.324 34.0035 101.076 34.056C100.829 34.1086 100.539 34.1339 100.205 34.1339C99.728 34.1339 99.312 34.0366 98.957 33.84C98.601 33.6434 98.327 33.3554 98.13 32.9759C97.933 32.5963 97.836 32.1312 97.836 31.5804C97.836 31.0296 97.925 30.5761 98.105 30.1829C98.284 29.7898 98.537 29.4862 98.866 29.2721C99.194 29.058 99.579 28.9529 100.023 28.9529L100.025 28.951ZM100.016 29.5699C99.614 29.5699 99.295 29.7022 99.055 29.9669C98.816 30.2316 98.675 30.6014 98.63 31.0763H101.256C101.252 30.7785 101.208 30.5158 101.119 30.29C101.03 30.0642 100.895 29.8871 100.713 29.7606C100.532 29.6341 100.3 29.5718 100.016 29.5718V29.5699Z" fill="#1C1C1C"/>
<path d="M51.111 25.7396C51.111 11.5239 39.669 0 25.555 0C11.441 0 0 11.5239 0 25.7396C0 36.9346 7.096 46.4578 17.005 50L22.179 35.4087C18.61 34.0385 16.073 30.5605 16.073 26.4831C16.073 21.2086 20.319 16.9307 25.557 16.9307C30.796 16.9307 35.041 21.2067 35.041 26.4831C35.041 30.5605 32.504 34.0385 28.935 35.4087L34.11 50C44.019 46.4578 51.114 36.9327 51.114 25.7396H51.111Z" fill="#1C1C1C"/>
</svg>
