<svg xmlns="http://www.w3.org/2000/svg" width="8in" height="11in" viewBox="0 0 576 792"><path fill="#3da638" stroke="#1c511c" stroke-linecap="round" stroke-linejoin="round" stroke-width="15.369700000000002" d="M317.042 354.533c32.258-11.98 49.098-35.05 49.098-74.758s-33.461-74.695-75.27-74.765c-44.121-.07-77.402 34.914-76.871 74.765s19.539 66.364 49.957 75.95l-53.887 132.57c-72.12-18.672-145.472-103.754-145.472-208.52 0-124.085 99.703-224.68 224.671-224.68s226.274 100.595 226.274 224.68c0 106.395-72.656 190.293-146.316 208.891zm0 0"/><g stroke-width=".75"><path d="M98.095 554.68q0 11.23-5.71 17.53-5.674 6.261-15.915 6.261-9.822 0-15.647-6.422-5.787-6.423-5.787-17.369 0-11.189 5.673-17.369 5.71-6.22 15.99-6.22 6.358 0 11.23 2.868 4.874 2.867 7.5 8.24 2.666 5.331 2.666 12.481m-27.945 0q0 5.897 1.485 9.008 1.485 3.07 4.987 3.07 3.465 0 4.874-3.07 1.446-3.11 1.446-9.008 0-5.857-1.446-8.846-1.447-2.989-4.95-2.989-3.426 0-4.91 2.989-1.486 2.949-1.486 8.846M132.435 578.471q-3.274 0-5.863-1.13-2.589-1.172-5.14-4.161h-.685q.686 4.806.686 5.978v18.378h-14.886V531.9h12.106l2.094 5.816h.686q4.15-6.624 11.46-6.624 7.157 0 11.23 6.301t4.074 17.288q0 11.068-4.264 17.45-4.226 6.341-11.498 6.341m-4.987-34.98q-3.274 0-4.607 2.505-1.294 2.464-1.408 7.351v1.252q0 5.898 1.484 8.523 1.485 2.626 4.683 2.626 2.856 0 4.15-2.586 1.295-2.625 1.295-8.644 0-5.897-1.295-8.442-1.294-2.585-4.302-2.585M177.474 578.471q-10.774 0-16.751-6.059-5.94-6.099-5.94-17.328 0-11.593 5.52-17.773 5.521-6.22 15.762-6.22 9.747 0 15.039 5.412 5.33 5.373 5.33 15.511v7.028h-26.612q.152 3.838 2.627 6.019 2.512 2.181 6.814 2.181 3.922 0 7.196-.767 3.312-.808 7.157-2.707v11.35q-3.502 1.9-7.233 2.626-3.731.727-8.909.727m-.876-36.636q-2.627 0-4.416 1.777-1.751 1.737-2.056 5.494h12.792q-.076-3.312-1.79-5.292-1.674-1.979-4.53-1.979M232.145 577.663v-24.962q0-4.565-1.257-6.867-1.218-2.343-3.959-2.343-3.77 0-5.444 3.191-1.675 3.191-1.675 10.947v20.034h-14.886V531.9h11.23l1.866 5.655h.876q1.903-3.232 5.254-4.848 3.388-1.615 7.766-1.615 7.158 0 11.117 4.403 3.998 4.402 3.998 12.4v29.77zM306.955 564.94q0 6.543-4.492 10.057-4.492 3.474-12.868 3.474-8.414 0-13.516-2.706v-8.2q7.424 3.636 13.82 3.636 8.262 0 8.262-5.292 0-1.696-.914-2.827t-3.007-2.343-5.825-2.747q-7.272-2.989-9.861-5.978-2.55-2.989-2.55-7.755 0-5.736 4.34-8.887 4.378-3.19 11.878-3.19 7.424 0 14.048 3.19l-2.893 7.15q-6.815-2.99-11.46-2.99-7.081 0-7.081 4.282 0 2.1 1.827 3.555 1.866 1.454 8.071 3.999 5.216 2.14 7.577 3.918 2.36 1.777 3.502 4.12 1.142 2.302 1.142 5.534M353.936 555.245q0 10.947-5.292 17.087t-14.734 6.14q-5.901 0-10.432-2.828-4.53-2.828-6.967-8.12-2.436-5.29-2.436-12.279 0-10.865 5.254-16.964 5.254-6.1 14.81-6.1 9.137 0 14.467 6.261 5.33 6.22 5.33 16.803m-30.648 0q0 15.47 10.774 15.47 10.66 0 10.66-15.47 0-15.308-10.736-15.308-5.634 0-8.185 3.958-2.513 3.959-2.513 11.35M393.949 577.663l-1.256-5.857h-.457q-1.866 3.11-5.33 4.888-3.427 1.777-7.843 1.777-7.652 0-11.422-4.039-3.769-4.04-3.769-12.239v-29.204h9.023v27.548q0 5.13 1.98 7.715 1.98 2.545 6.206 2.545 5.634 0 8.261-3.555 2.665-3.595 2.665-11.997V532.99h8.985v44.674zM435.104 532.181q2.703 0 4.455.404l-.876 8.846q-1.904-.484-3.96-.484-5.368 0-8.718 3.716-3.312 3.716-3.312 9.653v23.347h-8.947V532.99h7.005l1.18 7.877h.457q2.094-4 5.445-6.342 3.388-2.343 7.271-2.343M464.381 578.471q-9.556 0-14.543-5.897-4.95-5.938-4.95-17.005 0-11.27 5.178-17.329 5.216-6.059 15.039-6.059 6.662 0 11.992 2.626l-2.703 7.634q-5.673-2.343-9.365-2.343-10.927 0-10.927 15.39 0 7.513 2.703 11.31 2.741 3.756 7.995 3.756 5.977 0 11.307-3.15v8.28q-2.398 1.495-5.14 2.14-2.702.647-6.586.647M504.47 578.471q-9.822 0-15.38-6.059-5.52-6.099-5.52-16.763 0-10.946 5.14-17.207 5.139-6.26 14.124-6.26 8.337 0 13.172 5.372t4.835 14.783v5.13h-28.058q.19 6.503 3.312 10.017 3.122 3.474 8.794 3.474 3.731 0 6.93-.727 3.236-.767 6.929-2.504v7.715q-3.275 1.656-6.625 2.343-3.35.686-7.652.686m-1.636-39.1q-4.264 0-6.853 2.868-2.551 2.868-3.046 8.361h19.112q-.076-5.533-2.513-8.36-2.436-2.869-6.7-2.869M138.68 660.616h-8.948v-44.674h8.947zm-9.48-56.51q0-2.544 1.294-3.917 1.332-1.374 3.769-1.374 2.36 0 3.655 1.374 1.332 1.373 1.332 3.918 0 2.423-1.332 3.837-1.295 1.373-3.655 1.373-2.437 0-3.77-1.373-1.294-1.414-1.294-3.837M188.553 660.616h-8.985v-27.467q0-5.17-1.98-7.715-1.941-2.545-6.205-2.545-5.673 0-8.3 3.555-2.627 3.554-2.627 11.915v22.257h-8.947v-44.674h7.005l1.257 5.857h.457q1.903-3.191 5.406-4.928t7.766-1.737q15.153 0 15.153 16.359zM209.95 660.616h-8.948v-44.674h8.947zm-9.48-56.51q0-2.544 1.294-3.917 1.332-1.374 3.769-1.374 2.36 0 3.655 1.374 1.332 1.373 1.332 3.918 0 2.423-1.332 3.837-1.295 1.373-3.655 1.373-2.437 0-3.77-1.373-1.294-1.414-1.294-3.837M238.465 653.75q3.274 0 6.548-1.092v7.15q-1.485.687-3.845 1.13-2.323.486-4.835.486-12.716 0-12.716-14.219v-24.074h-5.75v-4.2l6.169-3.474 3.045-9.452h5.52v9.937h11.993v7.19h-11.992v23.912q0 3.433 1.599 5.09 1.637 1.615 4.264 1.615M262.336 660.616h-8.947v-44.674h8.947zm-9.48-56.51q0-2.544 1.294-3.917 1.333-1.374 3.77-1.374 2.36 0 3.654 1.374 1.333 1.373 1.333 3.918 0 2.423-1.333 3.837-1.294 1.373-3.655 1.373-2.436 0-3.769-1.373-1.294-1.414-1.294-3.837M301.511 660.616l-1.79-6.22h-.304q-3.045 4.079-6.13 5.574-3.083 1.454-7.918 1.454-6.206 0-9.708-3.555-3.465-3.554-3.465-10.058 0-6.907 4.835-10.42 4.835-3.515 14.734-3.838l7.272-.243v-2.383q0-4.281-1.904-6.382-1.866-2.14-5.825-2.14-3.236 0-6.206 1.01t-5.71 2.382l-2.894-6.786q3.427-1.898 7.5-2.867 4.074-1.01 7.69-1.01 8.034 0 12.107 3.716 4.112 3.716 4.112 11.673v30.093zm-13.325-6.463q4.873 0 7.805-2.868 2.97-2.908 2.97-8.119v-3.877l-5.407.242q-6.32.242-9.213 2.262-2.855 1.98-2.855 6.1 0 2.988 1.675 4.644 1.675 1.616 5.025 1.616M336.08 653.75q3.274 0 6.548-1.092v7.15q-1.484.687-3.845 1.13-2.322.486-4.835.486-12.716 0-12.716-14.219v-24.074h-5.749v-4.2l6.168-3.474 3.046-9.452h5.52v9.937h11.993v7.19h-11.993v23.912q0 3.433 1.6 5.09 1.636 1.615 4.263 1.615M359.951 660.616h-8.947v-44.674h8.947zm-9.48-56.51q0-2.544 1.295-3.917 1.332-1.374 3.769-1.374 2.36 0 3.655 1.374 1.332 1.373 1.332 3.918 0 2.423-1.332 3.837-1.295 1.373-3.655 1.373-2.437 0-3.77-1.373-1.294-1.414-1.294-3.837M382.375 660.616l-15.99-44.674h9.442l8.566 25.972q2.208 6.544 2.665 10.583h.305q.342-2.908 2.665-10.583l8.566-25.972h9.518l-16.067 44.674zM432.896 661.424q-9.822 0-15.38-6.06-5.521-6.099-5.521-16.762 0-10.947 5.14-17.207t14.124-6.261q8.338 0 13.173 5.372t4.835 14.784v5.13h-28.059q.19 6.503 3.312 10.017 3.122 3.474 8.795 3.474 3.73 0 6.929-.727 3.236-.768 6.929-2.505v7.715q-3.274 1.656-6.624 2.343t-7.653.687m-1.637-39.1q-4.264 0-6.853 2.868-2.55 2.867-3.046 8.36h19.112q-.076-5.533-2.512-8.36-2.437-2.868-6.7-2.868M467.017 609.63h1.898q1.407 0 2.25-.72.862-.738.862-1.863 0-1.319-.756-1.881-.756-.58-2.39-.58h-1.864zm7.629-2.654q0 1.407-.756 2.496-.738 1.073-2.092 1.6l4.184 6.943h-2.953l-3.639-6.222h-2.373v6.222h-2.602v-15.662h4.588q2.918 0 4.272 1.143 1.37 1.143 1.37 3.48m-18.58 3.2q0-3.516 1.758-6.592 1.757-3.076 4.834-4.852 3.076-1.775 6.627-1.775 3.515 0 6.591 1.758 3.077 1.757 4.852 4.834t1.775 6.627q0 3.463-1.705 6.504t-4.781 4.869-6.732 1.828q-3.64 0-6.715-1.81-3.076-1.829-4.8-4.87-1.704-3.04-1.704-6.521m1.846 0q0 3.04 1.529 5.695 1.53 2.637 4.166 4.166 2.654 1.512 5.678 1.512 3.058 0 5.677-1.53 2.62-1.529 4.149-4.13 1.547-2.62 1.547-5.713 0-3.059-1.53-5.678-1.529-2.62-4.148-4.149-2.602-1.546-5.695-1.546-3.059 0-5.678 1.529-2.62 1.53-4.166 4.148-1.53 2.602-1.53 5.696"/></g><ellipse cx="-31.875" cy="191.25" fill="none" rx="229.248" ry="226.623"/></svg>