<svg width="70" height="70" viewBox="0 0 70 70" fill="none" xmlns="http://www.w3.org/2000/svg">
<rect width="69.33" height="69.33" rx="2" fill="white"/>
<path d="M37.0691 34.3706C39.9461 33.3021 41.4479 31.2445 41.4479 27.7032C41.4479 24.162 38.4637 21.0415 34.735 21.0352C30.8 21.029 27.8318 24.1491 27.8792 27.7032C27.9266 31.2574 29.6218 33.6219 32.3346 34.4768L27.5287 46.3002C21.0966 44.6349 14.5547 37.0468 14.5547 27.7032C14.5547 16.6366 23.4468 7.66509 34.5921 7.66509C45.7375 7.66509 54.7724 16.6366 54.7724 27.7032C54.7724 37.1921 48.2926 44.6746 41.7232 46.3333L37.0691 34.3706Z" fill="#3DA638" stroke="#1C511C" stroke-width="1.37075" stroke-linecap="round" stroke-linejoin="round"/>
<path d="M17.7348 52.1441C17.7348 52.8118 17.565 53.3329 17.2254 53.7076C16.8882 54.0798 16.4151 54.2659 15.8062 54.2659C15.2221 54.2659 14.757 54.075 14.4106 53.6931C14.0666 53.3113 13.8945 52.7949 13.8945 52.1441C13.8945 51.4789 14.0632 50.9625 14.4005 50.5951C14.74 50.2252 15.2154 50.0403 15.8265 50.0403C16.2046 50.0403 16.5384 50.1255 16.8282 50.2961C17.1179 50.4666 17.3409 50.7115 17.4971 51.031C17.6555 51.348 17.7348 51.719 17.7348 52.1441ZM15.2425 52.1441C15.2425 52.4947 15.2867 52.7625 15.3749 52.9474C15.4632 53.13 15.6115 53.2212 15.8197 53.2212C16.0257 53.2212 16.1706 53.13 16.2544 52.9474C16.3404 52.7625 16.3834 52.4947 16.3834 52.1441C16.3834 51.7959 16.3404 51.5329 16.2544 51.3552C16.1683 51.1774 16.0212 51.0886 15.8129 51.0886C15.6092 51.0886 15.4632 51.1774 15.3749 51.3552C15.2867 51.5305 15.2425 51.7935 15.2425 52.1441Z" fill="black"/>
<path d="M20.7972 54.2659C20.6025 54.2659 20.4282 54.2323 20.2743 54.1651C20.1204 54.0954 19.9676 53.9717 19.8159 53.794H19.7548C19.7955 54.0798 19.8159 54.2575 19.8159 54.3272V55.9663H18.4883V50.1123H19.568L19.7548 50.6311H19.8159C20.0626 50.2372 20.4033 50.0403 20.8379 50.0403C21.2635 50.0403 21.5974 50.2276 21.8396 50.6023C22.0818 50.9769 22.2029 51.4909 22.2029 52.1441C22.2029 52.8021 22.0761 53.3209 21.8226 53.7004C21.5713 54.0774 21.2295 54.2659 20.7972 54.2659ZM20.3524 51.1462C20.1577 51.1462 20.0208 51.2207 19.9415 51.3696C19.8646 51.5161 19.8227 51.7346 19.8159 52.0252V52.1369C19.8159 52.4875 19.86 52.7409 19.9483 52.897C20.0366 53.0531 20.1758 53.1312 20.366 53.1312C20.5357 53.1312 20.6591 53.0543 20.7361 52.9006C20.813 52.7445 20.8515 52.4875 20.8515 52.1297C20.8515 51.7791 20.813 51.5281 20.7361 51.3768C20.6591 51.2231 20.5312 51.1462 20.3524 51.1462Z" fill="black"/>
<path d="M24.8108 54.2659C24.1702 54.2659 23.6722 54.0858 23.3168 53.7256C22.9637 53.3629 22.7871 52.8478 22.7871 52.1801C22.7871 51.4909 22.9512 50.9625 23.2794 50.5951C23.6077 50.2252 24.0762 50.0403 24.6852 50.0403C25.2646 50.0403 25.7117 50.2012 26.0263 50.523C26.3433 50.8424 26.5017 51.3035 26.5017 51.9063V52.5332H24.1283C24.1374 52.7613 24.2155 52.9402 24.3626 53.0699C24.512 53.1996 24.7146 53.2645 24.9704 53.2645C25.2035 53.2645 25.4174 53.2416 25.6121 53.196C25.809 53.148 26.0218 53.0675 26.2504 52.9546V53.9669C26.0422 54.0798 25.8272 54.1579 25.6053 54.2011C25.3835 54.2443 25.1186 54.2659 24.8108 54.2659ZM24.7327 50.9985C24.5765 50.9985 24.4452 51.0514 24.3388 51.157C24.2347 51.2603 24.1736 51.4236 24.1555 51.647H25.2963C25.2918 51.45 25.2386 51.2927 25.1367 51.175C25.0371 51.0574 24.9025 50.9985 24.7327 50.9985Z" fill="black"/>
<path d="M29.6895 54.1939V51.9676C29.6895 51.6962 29.6521 51.4921 29.5774 51.3552C29.505 51.2159 29.3873 51.1462 29.2243 51.1462C29.0002 51.1462 28.8383 51.2411 28.7387 51.4308C28.6391 51.6205 28.5893 51.946 28.5893 52.4071V54.1939H27.2617V50.1123H28.2634L28.4297 50.6167H28.5078C28.621 50.4245 28.7772 50.2804 28.9764 50.1844C29.1779 50.0883 29.4088 50.0403 29.6691 50.0403C30.0946 50.0403 30.4251 50.1712 30.6605 50.4329C30.8982 50.6947 31.0171 51.0634 31.0171 51.5389V54.1939H29.6895Z" fill="black"/>
<path d="M36.3601 53.0617C36.3601 53.4508 36.2265 53.7498 35.9594 53.9587C35.6923 54.1652 35.3098 54.2685 34.8118 54.2685C34.3115 54.2685 33.9097 54.1881 33.6064 54.0272V53.2959C34.0478 53.512 34.4587 53.6201 34.8389 53.6201C35.3301 53.6201 35.5757 53.4628 35.5757 53.1482C35.5757 53.0473 35.5486 52.9632 35.4943 52.896C35.4399 52.8287 35.3505 52.7591 35.226 52.6871C35.1015 52.615 34.9284 52.5333 34.7065 52.4421C34.2742 52.2644 33.981 52.0866 33.8271 51.9089C33.6754 51.7312 33.5996 51.5007 33.5996 51.2173C33.5996 50.8762 33.7286 50.6121 33.9867 50.4247C34.247 50.235 34.6001 50.1401 35.0461 50.1401C35.4875 50.1401 35.9051 50.235 36.299 50.4247L36.0409 51.0624C35.6357 50.8846 35.2951 50.7958 35.0189 50.7958C34.5979 50.7958 34.3873 50.9231 34.3873 51.1776C34.3873 51.3025 34.4417 51.4082 34.5503 51.4946C34.6612 51.5811 34.9012 51.7 35.2702 51.8513C35.5803 51.9786 35.8055 52.0951 35.9459 52.2007C36.0862 52.3064 36.1903 52.4289 36.2582 52.5682C36.3261 52.7051 36.3601 52.8696 36.3601 53.0617Z" fill="black"/>
<path d="M40.5492 52.1971C40.5492 52.848 40.3918 53.3559 40.0772 53.721C39.7625 54.086 39.3245 54.2685 38.7632 54.2685C38.4123 54.2685 38.1022 54.1845 37.8328 54.0163C37.5634 53.8482 37.3563 53.6069 37.2114 53.2923C37.0666 52.9776 36.9941 52.6126 36.9941 52.1971C36.9941 51.5511 37.1503 51.0467 37.4627 50.6841C37.7751 50.3215 38.2154 50.1401 38.7835 50.1401C39.3268 50.1401 39.7569 50.3263 40.0738 50.6985C40.3907 51.0684 40.5492 51.5679 40.5492 52.1971ZM37.8158 52.1971C37.8158 53.1169 38.1361 53.5769 38.7767 53.5769C39.4106 53.5769 39.7275 53.1169 39.7275 52.1971C39.7275 51.2869 39.4083 50.8318 38.77 50.8318C38.4349 50.8318 38.1916 50.9495 38.0399 51.1848C37.8905 51.4202 37.8158 51.7576 37.8158 52.1971Z" fill="black"/>
<path d="M44.1199 54.195L44.0078 53.6726H43.9671C43.8562 53.8576 43.6977 54.0028 43.4917 54.1085C43.288 54.2142 43.0549 54.267 42.7923 54.267C42.3373 54.267 41.9977 54.1469 41.7736 53.9068C41.5495 53.6666 41.4375 53.3028 41.4375 52.8152V50.2107H42.2422V52.6675C42.2422 52.9726 42.3011 53.2019 42.4188 53.3556C42.5365 53.5069 42.721 53.5826 42.9722 53.5826C43.3073 53.5826 43.5529 53.4769 43.709 53.2656C43.8675 53.0518 43.9467 52.6952 43.9467 52.1956V50.2107H44.748V54.195H44.1199Z" fill="black"/>
<path d="M47.7857 50.1401C47.9464 50.1401 48.0788 50.1521 48.183 50.1762L48.1049 50.9651C47.9917 50.9363 47.874 50.9219 47.7517 50.9219C47.4326 50.9219 47.1734 51.0323 46.9742 51.2533C46.7773 51.4742 46.6788 51.7612 46.6788 52.1143V54.1965H45.8809V50.2122H46.5056L46.6109 50.9147H46.6516C46.7761 50.6769 46.938 50.4884 47.1372 50.3491C47.3386 50.2098 47.5548 50.1401 47.7857 50.1401Z" fill="black"/>
<path d="M50.4006 54.2685C49.8324 54.2685 49.4 54.0932 49.1035 53.7426C48.8092 53.3895 48.6621 52.884 48.6621 52.2259C48.6621 51.5559 48.816 51.0407 49.1239 50.6805C49.434 50.3203 49.8811 50.1401 50.4651 50.1401C50.8612 50.1401 51.2177 50.2182 51.5346 50.3743L51.2936 51.0552C50.9563 50.9159 50.6779 50.8462 50.4583 50.8462C49.8086 50.8462 49.4838 51.3037 49.4838 52.2187C49.4838 52.6654 49.5642 53.0017 49.7249 53.2274C49.8879 53.4508 50.1255 53.5624 50.4379 53.5624C50.7933 53.5624 51.1295 53.4688 51.4464 53.2815V54.02C51.3038 54.1088 51.151 54.1725 50.988 54.2109C50.8273 54.2493 50.6315 54.2685 50.4006 54.2685Z" fill="black"/>
<path d="M53.9735 54.2685C53.3895 54.2685 52.9322 54.0884 52.6017 53.7282C52.2735 53.3655 52.1094 52.8672 52.1094 52.2331C52.1094 51.5823 52.2622 51.0708 52.5678 50.6985C52.8733 50.3263 53.2932 50.1401 53.8275 50.1401C54.3232 50.1401 54.7148 50.2998 55.0023 50.6193C55.2898 50.9387 55.4335 51.3782 55.4335 51.9377V52.3953H52.9311C52.9424 52.7819 53.0409 53.0797 53.2265 53.2887C53.4121 53.4952 53.6735 53.5985 54.0108 53.5985C54.2326 53.5985 54.4386 53.5769 54.6288 53.5336C54.8212 53.488 55.0272 53.4135 55.2468 53.3103V53.9983C55.0521 54.0968 54.8551 54.1665 54.6559 54.2073C54.4567 54.2481 54.2293 54.2685 53.9735 54.2685ZM53.8275 50.7814C53.5739 50.7814 53.3702 50.8666 53.2163 51.0371C53.0646 51.2077 52.9741 51.4562 52.9447 51.7828H54.6492C54.6446 51.4538 54.5699 51.2053 54.4251 51.0371C54.2802 50.8666 54.081 50.7814 53.8275 50.7814Z" fill="black"/>
<path d="M21.3513 61.5918H20.5534V57.6075H21.3513V61.5918ZM20.5059 56.552C20.5059 56.4007 20.5443 56.2842 20.6213 56.2026C20.7005 56.1209 20.8126 56.0801 20.9575 56.0801C21.0978 56.0801 21.2064 56.1209 21.2834 56.2026C21.3626 56.2842 21.4023 56.4007 21.4023 56.552C21.4023 56.6961 21.3626 56.8102 21.2834 56.8942C21.2064 56.9759 21.0978 57.0167 20.9575 57.0167C20.8126 57.0167 20.7005 56.9759 20.6213 56.8942C20.5443 56.8102 20.5059 56.6961 20.5059 56.552Z" fill="black"/>
<path d="M25.7979 61.5915H24.9966V59.1418C24.9966 58.8344 24.9377 58.6051 24.82 58.4538C24.7046 58.3025 24.5201 58.2268 24.2666 58.2268C23.9293 58.2268 23.6825 58.3325 23.5264 58.5438C23.3702 58.7552 23.2921 59.1094 23.2921 59.6066V61.5915H22.4941V57.6072H23.1189L23.2309 58.1296H23.2717C23.3849 57.9398 23.5456 57.7933 23.7538 57.6901C23.9621 57.5868 24.193 57.5352 24.4465 57.5352C25.3474 57.5352 25.7979 58.0215 25.7979 58.9941V61.5915Z" fill="black"/>
<path d="M27.7068 61.5918H26.9089V57.6075H27.7068V61.5918ZM26.8613 56.552C26.8613 56.4007 26.8998 56.2842 26.9768 56.2026C27.056 56.1209 27.168 56.0801 27.3129 56.0801C27.4533 56.0801 27.5619 56.1209 27.6389 56.2026C27.7181 56.2842 27.7577 56.4007 27.7577 56.552C27.7577 56.6961 27.7181 56.8102 27.6389 56.8942C27.5619 56.9759 27.4533 57.0167 27.3129 57.0167C27.168 57.0167 27.056 56.9759 26.9768 56.8942C26.8998 56.8102 26.8613 56.6961 26.8613 56.552Z" fill="black"/>
<path d="M30.249 60.9805C30.4437 60.9805 30.6384 60.9481 30.8331 60.8832V61.5208C30.7448 61.5617 30.6305 61.5953 30.4901 61.6217C30.352 61.6505 30.2083 61.6649 30.0589 61.6649C29.3028 61.6649 28.9248 61.2423 28.9248 60.3969V58.2498H28.4121V57.8752L28.9622 57.5654L29.2338 56.7224H29.7261V57.6086H30.7957V58.2498H29.7261V60.3825C29.7261 60.5866 29.7737 60.7379 29.8687 60.8364C29.9661 60.9325 30.0928 60.9805 30.249 60.9805Z" fill="black"/>
<path d="M32.3806 61.5918H31.5827V57.6075H32.3806V61.5918ZM31.5352 56.552C31.5352 56.4007 31.5736 56.2842 31.6506 56.2026C31.7298 56.1209 31.8419 56.0801 31.9867 56.0801C32.1271 56.0801 32.2357 56.1209 32.3127 56.2026C32.3919 56.2842 32.4315 56.4007 32.4315 56.552C32.4315 56.6961 32.3919 56.8102 32.3127 56.8942C32.2357 56.9759 32.1271 57.0167 31.9867 57.0167C31.8419 57.0167 31.7298 56.9759 31.6506 56.8942C31.5736 56.8102 31.5352 56.6961 31.5352 56.552Z" fill="black"/>
<path d="M35.8762 61.5915L35.7166 61.0367H35.6895C35.5084 61.2793 35.3261 61.445 35.1428 61.5339C34.9594 61.6203 34.724 61.6635 34.4365 61.6635C34.0676 61.6635 33.779 61.5579 33.5707 61.3465C33.3647 61.1352 33.2617 60.8362 33.2617 60.4495C33.2617 60.0388 33.4055 59.729 33.6929 59.5201C33.9804 59.3112 34.4184 59.1971 35.007 59.1779L35.6555 59.1562V58.9437C35.6555 58.6891 35.5989 58.4994 35.4857 58.3745C35.3748 58.2472 35.2016 58.1836 34.9662 58.1836C34.7738 58.1836 34.5893 58.2136 34.4128 58.2737C34.2362 58.3337 34.0664 58.4045 33.9035 58.4862L33.6454 57.881C33.8491 57.7681 34.0721 57.6829 34.3143 57.6252C34.5565 57.5652 34.7851 57.5352 35.0002 57.5352C35.4778 57.5352 35.8377 57.6456 36.0799 57.8666C36.3244 58.0875 36.4466 58.4346 36.4466 58.9077V61.5915H35.8762ZM34.6878 61.0151C34.9775 61.0151 35.2096 60.9298 35.3839 60.7593C35.5604 60.5864 35.6487 60.3451 35.6487 60.0352V59.6894L35.1666 59.711C34.7908 59.7254 34.5169 59.7927 34.3449 59.9128C34.1751 60.0304 34.0902 60.2118 34.0902 60.4567C34.0902 60.6344 34.14 60.7725 34.2396 60.871C34.3392 60.9671 34.4886 61.0151 34.6878 61.0151Z" fill="black"/>
<path d="M38.9561 60.9805C39.1507 60.9805 39.3454 60.9481 39.5401 60.8832V61.5208C39.4518 61.5617 39.3375 61.5953 39.1971 61.6217C39.0591 61.6505 38.9153 61.6649 38.7659 61.6649C38.0099 61.6649 37.6319 61.2423 37.6319 60.3969V58.2498H37.1191V57.8752L37.6692 57.5654L37.9408 56.7224H38.4332V57.6086H39.5027V58.2498H38.4332V60.3825C38.4332 60.5866 38.4807 60.7379 38.5758 60.8364C38.6731 60.9325 38.7999 60.9805 38.9561 60.9805Z" fill="black"/>
<path d="M41.0837 61.5918H40.2858V57.6075H41.0837V61.5918ZM40.2383 56.552C40.2383 56.4007 40.2768 56.2842 40.3537 56.2026C40.433 56.1209 40.545 56.0801 40.6899 56.0801C40.8302 56.0801 40.9389 56.1209 41.0158 56.2026C41.0951 56.2842 41.1347 56.4007 41.1347 56.552C41.1347 56.6961 41.0951 56.8102 41.0158 56.8942C40.9389 56.9759 40.8302 57.0167 40.6899 57.0167C40.545 57.0167 40.433 56.9759 40.3537 56.8942C40.2768 56.8102 40.2383 56.6961 40.2383 56.552Z" fill="black"/>
<path d="M43.0823 61.5927L41.6562 57.6084H42.4983L43.2623 59.9248C43.3936 60.3138 43.4728 60.6284 43.5 60.8686H43.5271C43.5475 60.6957 43.6267 60.3811 43.7648 59.9248L44.5288 57.6084H45.3776L43.9448 61.5927H43.0823Z" fill="black"/>
<path d="M47.5907 61.6635C47.0066 61.6635 46.5494 61.4834 46.2189 61.1232C45.8907 60.7605 45.7266 60.2622 45.7266 59.6282C45.7266 58.9773 45.8794 58.4658 46.1849 58.0935C46.4905 57.7213 46.9104 57.5352 47.4446 57.5352C47.9404 57.5352 48.332 57.6949 48.6195 58.0143C48.9069 58.3337 49.0507 58.7732 49.0507 59.3328V59.7903H46.5483C46.5596 60.1769 46.658 60.4747 46.8437 60.6837C47.0293 60.8902 47.2907 60.9935 47.628 60.9935C47.8498 60.9935 48.0558 60.9719 48.246 60.9286C48.4384 60.883 48.6444 60.8086 48.8639 60.7053V61.3934C48.6693 61.4918 48.4723 61.5615 48.2731 61.6023C48.0739 61.6431 47.8464 61.6635 47.5907 61.6635ZM47.4446 58.1764C47.1911 58.1764 46.9874 58.2616 46.8335 58.4322C46.6818 58.6027 46.5913 58.8512 46.5618 59.1779H48.2663C48.2618 58.8488 48.1871 58.6003 48.0422 58.4322C47.8974 58.2616 47.6982 58.1764 47.4446 58.1764Z" fill="black"/>
<path d="M50.6329 57.0454H50.8022C50.8859 57.0454 50.9527 57.0239 51.0029 56.9811C51.0541 56.9372 51.0797 56.8818 51.0797 56.8149C51.0797 56.7365 51.0573 56.6806 51.0123 56.6472C50.9674 56.6127 50.8963 56.5954 50.7991 56.5954H50.6329V57.0454ZM51.3133 56.8086C51.3133 56.8922 51.2909 56.9665 51.2459 57.0313C51.202 57.095 51.1398 57.1426 51.0594 57.1739L51.4325 57.7932H51.1691L50.8446 57.2382H50.6329V57.7932H50.4009V56.3963H50.8101C50.9836 56.3963 51.1106 56.4303 51.191 56.4982C51.2726 56.5662 51.3133 56.6696 51.3133 56.8086ZM49.6562 57.094C49.6562 56.8849 49.7085 56.689 49.813 56.5061C49.9175 56.3232 50.0612 56.1789 50.2441 56.0734C50.427 55.9678 50.6241 55.915 50.8352 55.915C51.0442 55.915 51.2402 55.9673 51.4231 56.0718C51.606 56.1763 51.7502 56.32 51.8558 56.5029C51.9613 56.6858 52.0141 56.8828 52.0141 57.094C52.0141 57.2999 51.9634 57.4932 51.862 57.674C51.7606 57.8548 51.6185 57.9996 51.4356 58.1083C51.2527 58.217 51.0526 58.2713 50.8352 58.2713C50.6188 58.2713 50.4192 58.2175 50.2363 58.1098C50.0534 58.0011 49.9107 57.8564 49.8083 57.6756C49.7069 57.4948 49.6562 57.3009 49.6562 57.094ZM49.8209 57.094C49.8209 57.2748 49.8663 57.4441 49.9573 57.6019C50.0482 57.7587 50.172 57.8825 50.3288 57.9734C50.4866 58.0633 50.6554 58.1083 50.8352 58.1083C51.017 58.1083 51.1858 58.0628 51.3415 57.9719C51.4973 57.881 51.6206 57.7581 51.7115 57.6035C51.8035 57.4477 51.8495 57.2779 51.8495 57.094C51.8495 56.9121 51.804 56.7433 51.7131 56.5876C51.6222 56.4319 51.4988 56.3085 51.3431 56.2176C51.1884 56.1256 51.0191 56.0796 50.8352 56.0796C50.6533 56.0796 50.4845 56.1251 50.3288 56.216C50.1731 56.307 50.0492 56.4303 49.9573 56.586C49.8663 56.7407 49.8209 56.91 49.8209 57.094Z" fill="black"/>
</svg>
