<svg xmlns="http://www.w3.org/2000/svg" width="744.094" height="1052.362"><path fill="#3ea639" stroke="#1e541e" stroke-linecap="round" stroke-linejoin="round" stroke-width="19.212" d="M398.404 595.278c40.321-14.974 61.37-43.813 61.37-93.447s-41.825-93.371-94.087-93.456c-55.149-.09-96.751 43.64-96.086 93.456.665 49.815 24.421 82.955 62.446 94.939L264.69 762.48C174.536 739.142 82.845 632.788 82.845 501.83c0-155.109 124.633-280.85 280.842-280.85S646.53 346.722 646.53 501.83c0 132.995-90.82 237.865-182.898 261.116z"/><path d="M626.324 745.385q1.421.48 2.755 2.055 1.355 1.574 2.71 4.329l4.483 8.92h-4.745l-4.175-8.374q-1.619-3.279-3.149-4.35-1.508-1.072-4.132-1.072h-4.81v13.796h-4.416v-32.642h9.97q5.596 0 8.351 2.34t2.755 7.061q0 3.083-1.443 5.116-1.42 2.034-4.154 2.82m-11.063-13.707v11.587h5.553q3.192 0 4.81-1.465 1.64-1.486 1.64-4.35 0-2.865-1.64-4.308-1.618-1.464-4.81-1.464z"/><path fill="none" stroke="#000" stroke-linecap="round" stroke-linejoin="round" stroke-width="7.524" d="M-174.38 399.405a42.626 44.564 0 1 1-85.253 0 42.626 44.564 0 1 1 85.253 0" transform="matrix(.5399 0 0 .51642 738.71 538.651)"/></svg>