<svg width="191" height="46" viewBox="0 0 191 46" fill="none" xmlns="http://www.w3.org/2000/svg">
<g clip-path="url(#clip0_98_450)">
<g opacity="0.25">
<path d="M40.2955 19.4495C40.2955 29.5503 27.9915 41.3587 17.3626 41.3587C6.73367 41.3587 1.07617 30.2104 1.07617 20.1074C1.07617 10.0044 11.4648 1.55499 22.0959 1.55499C32.727 1.55499 40.2955 9.34865 40.2955 19.4495Z" stroke="white" stroke-width="2.02362" stroke-miterlimit="10"/>
</g>
<g opacity="0.54">
<path d="M38.9667 19.6226C38.9667 28.8014 27.4959 39.2745 17.5834 39.2745C7.67086 39.2745 2.39429 29.4009 2.39429 20.2243C2.39429 11.0476 11.3091 3.64788 21.2129 3.64788C31.1254 3.63922 38.9667 10.4438 38.9667 19.6204V19.6226Z" stroke="white" stroke-width="2.02362" stroke-miterlimit="10"/>
</g>
<path d="M37.391 20.1074C37.391 29.2516 27.1322 37.0215 17.8235 37.0215C8.5148 37.0215 4.052 29.9139 4.052 20.7675C4.052 11.6212 10.625 5.94853 19.9272 5.94853C29.2294 5.94853 37.3931 10.9546 37.3931 20.1074H37.391Z" stroke="white" stroke-width="2.0193" stroke-miterlimit="10"/>
<path d="M16.016 11.7711H24.2382C27.3137 11.7711 29.846 13.7427 29.846 17.1385C29.846 21.452 26.448 24.0405 22.2189 24.0405H17.9639L16.7519 30.9922H12.6289L16.0182 11.7711H16.016ZM22.0285 20.7421C24.1322 20.7421 25.7727 19.6621 25.7727 17.4762C25.7727 15.7772 24.4525 15.076 22.9938 15.076H19.546L18.5483 20.7334H22.0285V20.7421Z" fill="white"/>
<path d="M145.273 37.9613C144.632 37.5198 143.84 37.2904 142.912 37.2904H140.901V43.6902H142.912C143.84 43.6902 144.632 43.4457 145.273 42.989C145.623 42.7444 145.898 42.3938 146.08 41.9674C146.262 41.5411 146.37 41.0216 146.37 40.4589C146.37 39.8962 146.279 39.3919 146.08 38.9655C145.898 38.5392 145.623 38.2037 145.273 37.9591V37.9613ZM142.074 38.3877H142.712C143.414 38.3877 143.992 38.524 144.433 38.7989C144.92 39.0889 145.165 39.6516 145.165 40.4589C145.165 41.2662 144.92 41.8765 144.433 42.1969C144.007 42.4717 143.444 42.6232 142.728 42.6232H142.089V38.3877H142.074Z" fill="white"/>
<path d="M147.589 37.2298C147.392 37.2298 147.223 37.3055 147.102 37.4289C146.965 37.5652 146.905 37.7189 146.905 37.9159C146.905 38.1128 146.981 38.2816 147.102 38.418C147.238 38.5543 147.407 38.6171 147.604 38.6171C147.801 38.6171 147.97 38.5413 148.106 38.418C148.242 38.2816 148.303 38.1128 148.303 37.9159C148.303 37.7189 148.227 37.5501 148.106 37.4289C147.954 37.2925 147.786 37.2298 147.589 37.2298Z" fill="white"/>
<path d="M148.136 39.195H147.009V43.7054H148.136V39.195Z" fill="white"/>
<path d="M152.067 39.5759C151.731 39.2707 151.35 39.0889 150.924 39.0889C150.298 39.0889 149.781 39.3032 149.385 39.7296C148.974 40.1559 148.777 40.6905 148.777 41.3441C148.777 41.9978 148.974 42.5172 149.372 42.9587C149.768 43.3851 150.301 43.5993 150.926 43.5993C151.368 43.5993 151.733 43.4781 152.038 43.2336V43.3396C152.038 43.7205 151.932 44.0106 151.733 44.2075C151.534 44.4045 151.261 44.5127 150.926 44.5127C150.409 44.5127 150.073 44.3136 149.677 43.766L148.9 44.5127L148.915 44.543C149.082 44.7724 149.342 44.9996 149.677 45.2291C150.013 45.4433 150.439 45.5494 150.941 45.5494C151.612 45.5494 152.16 45.3351 152.556 44.939C152.952 44.5278 153.164 43.9781 153.164 43.3093V39.195H152.051V39.5759H152.067ZM151.761 42.2272C151.562 42.4566 151.305 42.5626 150.984 42.5626C150.664 42.5626 150.407 42.4566 150.207 42.2272C150.011 41.9978 149.917 41.7099 149.917 41.3441C149.917 40.9784 150.008 40.6732 150.207 40.4459C150.404 40.2165 150.664 40.1105 150.984 40.1105C151.305 40.1105 151.562 40.2165 151.761 40.4459C151.958 40.6754 152.067 40.9632 152.067 41.3441C152.067 41.7251 151.961 41.9999 151.761 42.2272Z" fill="white"/>
<path d="M155.081 39.195H153.954V43.7054H155.081V39.195Z" fill="white"/>
<path d="M154.534 37.2298C154.337 37.2298 154.168 37.3055 154.047 37.4289C153.91 37.5652 153.85 37.7189 153.85 37.9159C153.85 38.1128 153.926 38.2816 154.047 38.418C154.183 38.5543 154.352 38.6171 154.549 38.6171C154.746 38.6171 154.915 38.5413 155.051 38.418C155.187 38.2816 155.248 38.1128 155.248 37.9159C155.248 37.7189 155.172 37.5501 155.051 37.4289C154.884 37.2925 154.716 37.2298 154.534 37.2298Z" fill="white"/>
<path d="M157.503 37.9765H156.391V39.195H155.75V40.2317H156.406V42.106C156.406 42.686 156.527 43.1124 156.757 43.3548C156.986 43.5993 157.397 43.7205 157.975 43.7205C158.159 43.7205 158.341 43.7205 158.523 43.7054H158.568V42.6687L158.172 42.6838C157.897 42.6838 157.715 42.6384 157.64 42.5475C157.549 42.4566 157.503 42.2575 157.503 41.9523V40.2295H158.555V39.1928H157.503V37.9743V37.9765Z" fill="white"/>
<path d="M164.723 37.3055H163.596V43.7054H164.723V37.3055Z" fill="white"/>
<path d="M175.841 42.0908C175.644 42.3202 175.43 42.5172 175.279 42.6232C175.127 42.7293 174.928 42.7747 174.686 42.7747C174.35 42.7747 174.078 42.6535 173.863 42.409C173.649 42.1644 173.528 41.8441 173.528 41.4632C173.528 41.0822 173.634 40.7619 173.848 40.5174C174.062 40.2728 174.335 40.1516 174.671 40.1516C175.036 40.1516 175.417 40.381 175.753 40.7619L176.499 40.0456C176.012 39.4049 175.387 39.1149 174.642 39.1149C174.017 39.1149 173.485 39.3443 173.043 39.7858C172.601 40.2273 172.387 40.7922 172.387 41.4632C172.387 42.1341 172.614 42.6968 173.043 43.1405C173.485 43.582 174.017 43.8114 174.642 43.8114C175.465 43.8114 176.121 43.4608 176.577 42.805L175.846 42.0887L175.841 42.0908Z" fill="white"/>
<path d="M180.534 39.8205C180.367 39.591 180.153 39.4092 179.878 39.288C179.603 39.1517 179.3 39.0889 178.949 39.0889C178.311 39.0889 177.807 39.3183 177.411 39.7902C177.03 40.2468 176.848 40.8117 176.848 41.4827C176.848 42.1536 177.062 42.7315 177.473 43.16C177.885 43.5864 178.432 43.8006 179.103 43.8006C179.865 43.8006 180.488 43.4955 180.962 42.8873L180.993 42.857L180.246 42.1406C180.185 42.2163 180.079 42.3224 179.986 42.4003C179.88 42.5064 179.772 42.5821 179.651 42.6449C179.484 42.7358 179.285 42.7661 179.073 42.7661C178.752 42.7661 178.495 42.6752 178.296 42.4912C178.114 42.3246 178.006 42.0951 177.976 41.8051H180.975L180.99 41.3939C180.99 41.1039 180.945 40.8139 180.869 40.5563C180.809 40.2966 180.687 40.0542 180.534 39.8248V39.8205ZM178.051 40.8875C178.112 40.6732 178.203 40.4914 178.341 40.355C178.493 40.2035 178.692 40.1256 178.934 40.1256C179.209 40.1256 179.421 40.2014 179.56 40.355C179.696 40.4914 179.774 40.6754 179.789 40.8875H178.053H178.051Z" fill="white"/>
<path d="M184.858 39.5304C184.507 39.2404 184.035 39.0889 183.442 39.0889C183.061 39.0889 182.711 39.1647 182.393 39.3335C182.103 39.485 181.815 39.7296 181.631 40.0499L181.646 40.065L182.377 40.7663C182.683 40.2944 183.003 40.1256 183.444 40.1256C183.689 40.1256 183.871 40.1862 184.022 40.3074C184.174 40.4286 184.25 40.5974 184.25 40.7944V41.0087C183.975 40.9178 183.687 40.8875 183.412 40.8875C182.849 40.8875 182.39 41.0238 182.042 41.2835C181.691 41.5433 181.525 41.9242 181.525 42.4111C181.525 42.8375 181.676 43.173 181.966 43.4327C182.256 43.6773 182.622 43.7985 183.063 43.7985C183.505 43.7985 183.901 43.6318 184.267 43.3266V43.6924H185.379V40.7966C185.379 40.249 185.213 39.8205 184.862 39.5326L184.858 39.5304ZM182.847 41.9696C182.968 41.8787 183.152 41.8333 183.379 41.8333C183.654 41.8333 183.942 41.8939 184.232 41.9999V42.4414C183.988 42.6709 183.654 42.7921 183.258 42.7921C183.061 42.7921 182.908 42.7466 182.802 42.6557C182.696 42.5648 182.65 42.4566 182.65 42.3202C182.665 42.1839 182.726 42.0605 182.847 41.9696Z" fill="white"/>
<path d="M189.595 39.6213C189.275 39.2707 188.833 39.0889 188.271 39.0889C187.829 39.0889 187.463 39.2101 187.189 39.4698V39.195H186.076V43.7054H187.204V41.2056C187.204 40.8702 187.28 40.5953 187.448 40.3983C187.6 40.1992 187.829 40.1083 188.119 40.1083C188.379 40.1083 188.576 40.1841 188.712 40.368C188.849 40.5347 188.927 40.7793 188.927 41.0844V43.6902H190.054V41.0844C190.069 40.4589 189.903 39.972 189.598 39.6213H189.595Z" fill="white"/>
<path d="M162.362 39.5304C162.011 39.2404 161.539 39.0889 160.946 39.0889C160.565 39.0889 160.215 39.1647 159.895 39.3335C159.605 39.485 159.317 39.7296 159.133 40.0499L159.148 40.065L159.879 40.7663C160.185 40.2944 160.505 40.1256 160.946 40.1256C161.191 40.1256 161.373 40.1862 161.524 40.3074C161.676 40.4286 161.754 40.5974 161.754 40.7944V41.0087C161.479 40.9178 161.191 40.8875 160.916 40.8875C160.353 40.8875 159.897 41.0238 159.546 41.2835C159.195 41.5433 159.029 41.9242 159.029 42.4111C159.029 42.8375 159.18 43.173 159.47 43.4327C159.76 43.6773 160.126 43.7985 160.568 43.7985C161.009 43.7985 161.405 43.6318 161.771 43.3266V43.6924H162.883V40.7966C162.883 40.249 162.717 39.8205 162.366 39.5326L162.362 39.5304ZM160.351 41.9696C160.472 41.8787 160.656 41.8333 160.884 41.8333C161.158 41.8333 161.446 41.8939 161.736 41.9999V42.4414C161.492 42.6709 161.158 42.7921 160.762 42.7921C160.565 42.7921 160.412 42.7466 160.306 42.6557C160.2 42.5648 160.154 42.4566 160.154 42.3202C160.169 42.1839 160.23 42.0605 160.351 41.9696Z" fill="white"/>
<path d="M168.639 43.7963C166.825 43.7963 165.349 42.3181 165.349 40.5044C165.349 38.6907 166.827 37.2125 168.639 37.2125C170.45 37.2125 171.928 38.6907 171.928 40.5044C171.928 42.3181 170.465 43.7963 168.639 43.7963ZM168.639 38.3552C167.466 38.3552 166.507 39.3162 166.507 40.4892C166.507 41.6623 167.466 42.6232 168.639 42.6232C169.812 42.6232 170.77 41.6623 170.77 40.4892C170.77 39.3162 169.827 38.3552 168.639 38.3552Z" fill="white"/>
<path d="M134.287 43.7595C133.977 43.7595 133.731 43.6621 133.547 43.4673V43.701H132.951V39.9698H133.557V41.2857C133.757 41.1147 133.999 41.0303 134.287 41.0303C134.659 41.0303 134.964 41.1602 135.202 41.4199C135.44 41.6796 135.559 42.0064 135.559 42.4003C135.559 42.7942 135.44 43.121 135.202 43.3807C134.962 43.6361 134.655 43.7638 134.287 43.7638V43.7595ZM133.733 42.9933C133.856 43.1492 134.027 43.2271 134.243 43.2271C134.46 43.2271 134.631 43.1492 134.754 42.9933C134.878 42.8375 134.94 42.6384 134.94 42.3981C134.94 42.1579 134.878 41.9588 134.754 41.803C134.631 41.6471 134.46 41.5692 134.243 41.5692C134.027 41.5692 133.856 41.6471 133.733 41.803C133.609 41.9588 133.547 42.1579 133.547 42.3981C133.547 42.6384 133.609 42.8375 133.733 42.9933Z" fill="white"/>
<path d="M138.555 41.0931L137.096 44.7334H136.457L136.862 43.7335L135.83 41.0931H136.522L137.204 42.9782L137.897 41.0931H138.557H138.555Z" fill="white"/>
<path d="M54.3373 11.7711H62.0963C65.1328 11.7711 67.6066 13.7947 67.6066 17.0563C67.6066 21.2161 64.2325 23.8024 60.1852 23.8024H55.6878L54.4498 30.9987H50.9631L54.3373 11.7711ZM60.0727 20.7659C62.4339 20.7659 64.1199 19.7552 64.1199 17.2792C64.1199 15.3681 62.659 14.6929 61.0834 14.6929H57.2613L56.2484 20.7659H60.0705H60.0727Z" fill="white"/>
<path d="M67.6433 27.064C67.6433 26.6139 67.6433 26.2762 67.7559 25.8282C67.9809 24.7049 68.206 23.5795 68.3186 22.4541C68.8813 19.0799 71.13 16.8312 74.6145 16.8312C75.9629 16.8312 77.5385 17.2814 78.2138 18.5172H78.3263L78.664 17.0563H81.813L79.3392 30.9987H76.1901L76.4152 29.4253H76.3027C75.4023 30.4382 73.4913 31.3364 72.1429 31.3364C69.5566 31.3364 67.6455 29.7629 67.6455 27.064H67.6433ZM77.0883 25.7157L77.6511 22.3415V21.8914C77.6511 20.3179 76.188 19.6426 74.8396 19.6426C73.0411 19.6426 71.9156 20.7681 71.578 22.4541L70.9028 25.9408V26.5035C70.9028 27.9666 72.1386 28.6397 73.4891 28.6397C75.2876 28.5271 76.7507 27.5142 77.0883 25.7157Z" fill="white"/>
<path d="M84.235 17.1688H87.3841L87.0464 18.7423H87.159C88.2844 17.6169 89.8579 16.8312 91.3188 16.8312C94.0177 16.8312 95.9287 18.2921 95.9287 21.1035C95.9287 21.5537 95.9287 21.8914 95.8162 22.3394C95.5911 23.4648 95.366 24.5881 95.2535 25.7135C94.6908 29.0877 92.1044 31.3364 88.6199 31.3364C87.3841 31.3364 86.0335 30.7737 85.4708 29.6504H85.3583L84.0099 36.1714H80.7483L84.235 17.1688ZM91.8815 25.8261L92.5567 22.3415V21.7788C92.5567 20.3179 91.3209 19.6426 89.9704 19.6426C88.1719 19.6426 86.7088 20.8785 86.4837 22.5666L85.921 25.8282V26.3909C85.921 27.8518 87.2693 28.6397 88.6199 28.6397C90.1933 28.5271 91.5438 27.5142 91.8815 25.8282V25.8261Z" fill="white"/>
<path d="M97.2036 26.7264C97.2036 25.601 97.5412 24.0275 97.7663 22.9021C98.4416 19.1925 101.476 16.829 105.188 16.829C107.887 16.829 110.248 18.1774 110.248 21.1014C110.248 22.2268 109.91 23.8003 109.685 24.9235H100.803C100.69 25.3737 100.578 25.8239 100.578 26.2719C100.578 27.8453 101.926 28.5206 103.389 28.5206C105.413 28.5206 107.099 27.6203 107.999 27.2848L109.012 29.421C107.776 30.5464 105.302 31.332 102.714 31.332C99.9025 31.332 97.2036 29.9837 97.2036 26.7221V26.7264ZM106.874 22.7917C106.874 22.4541 106.986 22.1164 106.986 21.7788C106.986 20.4304 105.973 19.7552 104.738 19.7552C103.052 19.7552 101.814 20.6555 101.363 22.229C101.363 22.4541 101.251 22.6792 101.251 22.9042L106.874 22.7917Z" fill="white"/>
<path d="M113.321 17.1688H116.47L116.02 19.5301H116.133C117.143 18.0692 119.507 16.9437 121.08 16.9437C121.418 16.9437 121.755 16.9437 122.091 17.0563L121.528 19.9803C121.078 19.8677 120.515 19.8677 120.065 19.8677C117.479 19.8677 115.68 21.4412 115.23 23.915L113.994 30.9987H110.733L113.319 17.1688H113.321Z" fill="white"/>
<path d="M121.141 28.9751L123.164 26.9515C124.065 27.8518 125.526 28.6375 126.874 28.6375C128.11 28.6375 129.798 28.5249 129.798 26.9515C129.798 25.9386 128.449 25.6031 127.099 25.153C125.075 24.4777 122.827 23.8046 122.827 21.3308C122.827 18.2943 125.526 16.7208 128.675 16.7208C130.586 16.7208 132.274 17.0585 133.622 18.5194L131.711 20.4304C130.923 19.7552 129.687 19.1946 128.449 19.1946C127.324 19.1946 125.863 19.6448 125.863 20.9932C125.863 21.5559 126.313 21.781 126.989 22.0061C129.012 22.7939 132.947 23.467 132.947 26.2784C132.947 29.988 129.798 31.1134 126.763 31.1134C124.515 31.226 122.266 30.6633 121.141 28.9773V28.9751Z" fill="white"/>
<path d="M136.321 17.1688H139.47L139.133 18.7423H139.245C140.368 17.6169 141.944 16.8312 143.405 16.8312C146.104 16.8312 148.015 18.2921 148.015 21.1035C148.015 21.5537 148.015 21.8914 147.902 22.3394C147.677 23.4648 147.452 24.5881 147.34 25.7135C146.777 29.0877 144.191 31.3364 140.706 31.3364C139.47 31.3364 138.12 30.7737 137.557 29.6504H137.444L136.209 36.284H132.947L136.321 17.1688ZM144.08 25.8261L144.755 22.3415V21.7788C144.755 20.3179 143.52 19.6426 142.169 19.6426C140.371 19.6426 138.908 20.8785 138.682 22.5666L138.12 25.8282V26.3909C138.12 27.8518 139.468 28.6396 140.819 28.6396C142.392 28.5271 143.743 27.5142 144.08 25.8282V25.8261Z" fill="white"/>
<path d="M148.952 27.064C148.952 26.6139 148.952 26.2762 149.065 25.8282C149.29 24.7049 149.515 23.5795 149.627 22.4541C150.19 19.0799 152.439 16.8312 155.926 16.8312C157.274 16.8312 158.85 17.2814 159.525 18.5172H159.637L159.975 17.0563H163.124L160.65 30.8862H157.501L157.726 29.3127H157.614C156.713 30.3235 154.802 31.2238 153.454 31.2238C150.98 31.3364 148.956 29.7608 148.956 27.0619L148.952 27.064ZM158.397 25.7157L158.96 22.3415V21.8914C158.96 20.3179 157.499 19.6426 156.148 19.6426C154.35 19.6426 153.224 20.7681 152.887 22.4541L152.212 25.9408V26.5035C152.212 27.9666 153.447 28.6397 154.798 28.6397C156.709 28.5271 158.172 27.5142 158.397 25.7157Z" fill="white"/>
<path d="M163.607 26.7264C163.607 25.4884 163.832 24.1401 164.169 22.9021C164.957 19.3028 167.543 16.829 171.366 16.829C174.065 16.829 176.426 18.1774 176.426 21.1014C176.426 21.5516 176.313 22.0017 176.201 22.4497H173.164C173.164 22.2247 173.277 21.887 173.277 21.6619C173.277 20.201 172.153 19.5258 170.803 19.5258C168.892 19.5258 167.879 20.6512 167.541 22.4497C167.316 23.2375 166.979 25.4863 166.979 26.1594C166.979 27.7328 168.327 28.4081 169.677 28.4081C171.028 28.4081 172.489 27.8453 173.837 27.2826L174.848 29.7564C173.387 30.5442 171.699 31.2195 169.113 31.2195C166.414 31.332 163.602 29.869 163.602 26.7221L163.607 26.7264Z" fill="white"/>
<path d="M177.175 26.7264C177.175 25.601 177.512 24.0275 177.737 22.9021C178.413 19.1925 181.447 16.829 185.159 16.829C187.858 16.829 190.219 18.1774 190.219 21.1014C190.219 22.2268 189.881 23.8003 189.656 24.9235H180.774C180.661 25.3737 180.549 25.8239 180.549 26.2719C180.549 27.8453 181.897 28.5206 183.36 28.5206C185.384 28.5206 187.07 27.6203 187.97 27.2848L188.983 29.421C187.747 30.5464 185.273 31.332 182.685 31.332C179.761 31.332 177.175 29.9837 177.175 26.7221V26.7264ZM186.732 22.7917C186.732 22.4541 186.845 22.1164 186.845 21.7788C186.845 20.4304 185.832 19.7552 184.596 19.7552C182.91 19.7552 181.672 20.6555 181.222 22.229C181.222 22.4541 181.109 22.6792 181.109 22.9042L186.732 22.7917Z" fill="white"/>
</g>
<defs>
<clipPath id="clip0_98_450">
<rect width="190" height="44.9158" fill="white" transform="translate(0.0632324 0.542099)"/>
</clipPath>
</defs>
</svg>
