<svg xmlns="http://www.w3.org/2000/svg" width="191" height="46" fill="none"><clipPath id="a"><path d="M.063.542h190v44.916h-190z"/></clipPath><g clip-path="url(#a)"><path stroke="#fff" stroke-miterlimit="10" stroke-width="2.024" d="M40.296 19.45c0 10.1-12.305 21.909-22.933 21.909-10.63 0-16.287-11.149-16.287-21.252S11.465 1.555 22.096 1.555s18.2 7.794 18.2 17.895z" opacity=".25"/><path stroke="#fff" stroke-miterlimit="10" stroke-width="2.024" d="M38.967 19.623c0 9.178-11.471 19.652-21.384 19.652S2.394 29.4 2.394 20.225 11.31 3.647 21.213 3.647c9.912-.009 17.754 6.796 17.754 15.972z" opacity=".54"/><path stroke="#fff" stroke-miterlimit="10" stroke-width="2.019" d="M37.391 20.107c0 9.145-10.259 16.915-19.567 16.915S4.051 29.914 4.051 20.768s6.573-14.82 15.875-14.82 17.466 5.007 17.466 14.16z"/><g fill="#fff"><path d="M16.016 11.771h8.222c3.076 0 5.608 1.972 5.608 5.368 0 4.313-3.398 6.902-7.627 6.902h-4.255l-1.212 6.951h-4.123l3.39-19.22zm6.013 8.971c2.103 0 3.744-1.08 3.744-3.266 0-1.699-1.32-2.4-2.78-2.4h-3.447l-.998 5.657h3.48zM145.273 37.961c-.641-.441-1.433-.67-2.361-.67h-2.011v6.4h2.011c.928 0 1.72-.245 2.361-.702.35-.245.625-.595.807-1.022.182-.426.29-.945.29-1.508s-.091-1.067-.29-1.494a2.3 2.3 0 0 0-.807-1.006zm-3.199.427h.638c.702 0 1.28.136 1.721.41.487.29.732.854.732 1.66s-.245 1.419-.732 1.739c-.426.275-.989.426-1.705.426h-.639v-4.235zM147.589 37.23a.67.67 0 0 0-.487.199.64.64 0 0 0-.197.487c0 .197.076.366.197.502q.205.202.502.2c.297-.003.366-.077.502-.2a.68.68 0 0 0 .197-.502.68.68 0 0 0-.197-.487.74.74 0 0 0-.517-.2M148.136 39.195h-1.127v4.51h1.127zM152.067 39.576c-.336-.305-.717-.487-1.143-.487-.626 0-1.143.214-1.539.64-.411.427-.608.961-.608 1.615s.197 1.173.595 1.615c.396.426.929.64 1.554.64.442 0 .807-.12 1.112-.365v.106c0 .38-.106.67-.305.868s-.472.305-.807.305c-.517 0-.853-.2-1.249-.747l-.777.747.015.03c.167.23.427.457.762.686.336.214.762.32 1.264.32.671 0 1.219-.214 1.615-.61.396-.411.608-.96.608-1.63v-4.114h-1.113v.38zm-.306 2.651c-.199.23-.456.336-.777.336-.32 0-.577-.106-.777-.336-.196-.23-.29-.517-.29-.883s.091-.67.29-.898c.197-.23.457-.336.777-.336.321 0 .578.106.777.336.197.23.306.517.306.898s-.106.656-.306.883M155.081 39.195h-1.127v4.51h1.127zM154.534 37.23a.67.67 0 0 0-.487.199.64.64 0 0 0-.197.487c0 .197.076.366.197.502q.205.202.502.2c.297-.003.366-.077.502-.2a.68.68 0 0 0 .197-.502.68.68 0 0 0-.197-.487.8.8 0 0 0-.517-.2M157.503 37.977h-1.112v1.218h-.641v1.037h.656v1.874c0 .58.121 1.006.351 1.249s.64.366 1.218.366c.184 0 .366 0 .548-.016h.045V42.67l-.396.015c-.275 0-.457-.046-.532-.136q-.137-.137-.137-.596V40.23h1.052v-1.037h-1.052v-1.219zM164.723 37.306h-1.127v6.4h1.127zM175.841 42.09c-.197.23-.411.427-.562.533s-.351.152-.593.152q-.502 0-.823-.366a1.4 1.4 0 0 1-.335-.946c0-.38.106-.701.32-.946q.32-.365.823-.365c.365 0 .746.229 1.082.61l.746-.716c-.487-.641-1.112-.931-1.857-.931-.625 0-1.157.23-1.599.67s-.656 1.007-.656 1.678.227 1.234.656 1.678c.442.441.974.67 1.599.67.823 0 1.479-.35 1.935-1.006l-.731-.716zM180.534 39.82a1.6 1.6 0 0 0-.656-.532 2.04 2.04 0 0 0-.929-.2c-.638 0-1.142.23-1.538.702-.381.457-.563 1.022-.563 1.693 0 .67.214 1.249.625 1.677.412.426.959.64 1.63.64.762 0 1.385-.304 1.859-.913l.031-.03-.747-.716a2 2 0 0 1-.26.26 1.201 1.201 0 0 1-.913.366q-.48 0-.777-.276-.274-.25-.32-.686h2.999l.015-.411c0-.29-.045-.58-.121-.838a2.2 2.2 0 0 0-.335-.731zm-2.483 1.068c.061-.215.152-.397.29-.533a.8.8 0 0 1 .593-.23c.275 0 .487.076.626.23a.82.82 0 0 1 .229.533h-1.736zM184.858 39.53c-.351-.29-.823-.441-1.416-.441-.381 0-.731.076-1.049.245a1.9 1.9 0 0 0-.762.716l.015.015.731.701c.306-.472.626-.64 1.067-.64.245 0 .427.06.578.181a.6.6 0 0 1 .228.487v.215a2.7 2.7 0 0 0-.838-.121c-.563 0-1.022.136-1.37.396-.351.26-.517.64-.517 1.127 0 .427.151.762.441 1.022q.435.366 1.097.366c.442 0 .838-.167 1.204-.472v.365h1.112v-2.895c0-.548-.166-.976-.517-1.264zm-2.011 2.44c.121-.091.305-.137.532-.137.275 0 .563.06.853.167v.441c-.244.23-.578.351-.974.351q-.296 0-.456-.136c-.16-.136-.152-.2-.152-.336a.5.5 0 0 1 .197-.35M189.595 39.621c-.32-.35-.762-.532-1.324-.532-.442 0-.808.121-1.082.38v-.274h-1.113v4.51h1.128v-2.5c0-.335.076-.61.244-.807.152-.199.381-.29.671-.29.26 0 .457.076.593.26.137.167.215.411.215.716v2.606h1.127v-2.606c.015-.625-.151-1.112-.456-1.463zM162.362 39.53c-.351-.29-.823-.441-1.416-.441a2.2 2.2 0 0 0-1.051.245 1.9 1.9 0 0 0-.762.716l.015.015.731.701c.306-.472.626-.64 1.067-.64.245 0 .427.06.578.181.152.122.23.29.23.487v.215a2.7 2.7 0 0 0-.838-.121c-.563 0-1.019.136-1.37.396s-.517.64-.517 1.127c0 .427.151.762.441 1.022q.435.366 1.098.366c.441 0 .837-.167 1.203-.472v.365h1.112v-2.895c0-.548-.166-.976-.517-1.264zm-2.011 2.44c.121-.091.305-.137.533-.137.274 0 .562.06.852.167v.441c-.244.23-.578.351-.974.351q-.296 0-.456-.136c-.16-.136-.152-.2-.152-.336a.5.5 0 0 1 .197-.35M168.639 43.796c-1.814 0-3.29-1.478-3.29-3.292s1.478-3.291 3.29-3.291c1.811 0 3.289 1.478 3.289 3.291s-1.463 3.292-3.289 3.292m0-5.44a2.14 2.14 0 0 0-2.132 2.133c0 1.173.959 2.134 2.132 2.134s2.131-.96 2.131-2.134a2.13 2.13 0 0 0-2.131-2.134M134.287 43.76q-.465 0-.74-.293v.234h-.596V39.97h.606v1.316q.299-.256.73-.256.558 0 .915.39c.357.39.357.586.357.98s-.119.721-.357.98q-.362.384-.915.384zm-.554-.767a.62.62 0 0 0 .51.234.62.62 0 0 0 .511-.234.93.93 0 0 0 .186-.595q0-.361-.186-.595a.62.62 0 0 0-.511-.234.62.62 0 0 0-.51.234.93.93 0 0 0-.186.595q0 .361.186.595M138.555 41.093l-1.459 3.64h-.639l.405-1-1.032-2.64h.692l.682 1.885.693-1.885h.66zM54.337 11.771h7.76c3.036 0 5.51 2.024 5.51 5.285 0 4.16-3.374 6.746-7.422 6.746h-4.497L54.45 31h-3.487zm5.736 8.995c2.36 0 4.047-1.01 4.047-3.487 0-1.91-1.461-2.586-3.037-2.586h-3.822l-1.013 6.073h3.822zM67.643 27.064c0-.45 0-.788.113-1.236.225-1.123.45-2.249.563-3.374.562-3.374 2.811-5.623 6.296-5.623 1.348 0 2.924.45 3.599 1.686h.112l.338-1.46h3.149l-2.474 13.942H76.19l.225-1.574h-.112c-.9 1.013-2.812 1.911-4.16 1.911-2.586 0-4.498-1.573-4.498-4.272zm9.445-1.348.563-3.375v-.45c0-1.573-1.463-2.248-2.811-2.248-1.799 0-2.924 1.125-3.262 2.811l-.675 3.487v.562c0 1.464 1.236 2.137 2.586 2.137 1.799-.113 3.262-1.126 3.6-2.924M84.235 17.169h3.15l-.339 1.573h.113c1.125-1.125 2.699-1.91 4.16-1.91 2.699 0 4.61 1.46 4.61 4.271 0 .45 0 .788-.113 1.236-.225 1.126-.45 2.25-.562 3.375-.563 3.374-3.15 5.622-6.634 5.622-1.236 0-2.587-.562-3.15-1.686h-.112l-1.348 6.521h-3.262zm7.647 8.657.675-3.484v-.563c0-1.461-1.236-2.136-2.587-2.136-1.798 0-3.261 1.236-3.486 2.924l-.563 3.261v.563c0 1.46 1.348 2.249 2.699 2.249 1.573-.113 2.924-1.126 3.261-2.812zM97.204 26.726c0-1.125.337-2.698.562-3.824.676-3.71 3.71-6.073 7.422-6.073 2.699 0 5.06 1.348 5.06 4.272 0 1.126-.338 2.7-.563 3.823h-8.882c-.113.45-.225.9-.225 1.348 0 1.573 1.348 2.249 2.811 2.249 2.024 0 3.71-.9 4.61-1.236l1.013 2.136c-1.236 1.125-3.71 1.911-6.298 1.911-2.811 0-5.51-1.348-5.51-4.61zm9.67-3.934c0-.338.112-.676.112-1.013 0-1.349-1.013-2.024-2.248-2.024-1.686 0-2.924.9-3.375 2.474 0 .225-.112.45-.112.675zM113.321 17.169h3.149l-.45 2.361h.113c1.01-1.46 3.374-2.586 4.947-2.586.338 0 .675 0 1.011.112l-.563 2.924c-.45-.112-1.013-.112-1.463-.112-2.586 0-4.385 1.573-4.835 4.047l-1.236 7.084h-3.261l2.586-13.83zM121.141 28.975l2.023-2.024c.901.9 2.362 1.687 3.71 1.687 1.236 0 2.924-.113 2.924-1.686 0-1.013-1.349-1.349-2.699-1.799-2.024-.675-4.272-1.348-4.272-3.822 0-3.037 2.699-4.61 5.848-4.61 1.911 0 3.599.338 4.947 1.798l-1.911 1.911c-.788-.675-2.024-1.235-3.262-1.235-1.125 0-2.586.45-2.586 1.798 0 .563.45.788 1.126 1.013 2.023.788 5.958 1.461 5.958 4.272 0 3.71-3.149 4.835-6.184 4.835-2.248.113-4.497-.45-5.622-2.136zM136.321 17.169h3.149l-.337 1.573h.112c1.123-1.125 2.699-1.91 4.16-1.91 2.699 0 4.61 1.46 4.61 4.271 0 .45 0 .788-.113 1.236-.225 1.126-.45 2.25-.562 3.375-.563 3.374-3.149 5.622-6.634 5.622-1.236 0-2.586-.562-3.149-1.686h-.113l-1.235 6.634h-3.262zm7.759 8.657.675-3.484v-.563c0-1.461-1.235-2.136-2.586-2.136-1.798 0-3.261 1.236-3.487 2.924l-.562 3.261v.563c0 1.46 1.348 2.249 2.699 2.249 1.573-.113 2.924-1.126 3.261-2.812zM148.952 27.064c0-.45 0-.788.113-1.236.225-1.123.45-2.249.562-3.374.563-3.374 2.812-5.623 6.299-5.623 1.348 0 2.924.45 3.599 1.686h.112l.338-1.46h3.149l-2.474 13.83h-3.149l.225-1.574h-.112c-.901 1.01-2.812 1.91-4.16 1.91-2.474.113-4.498-1.462-4.498-4.161zm9.445-1.348.563-3.375v-.45c0-1.573-1.461-2.248-2.812-2.248-1.798 0-2.924 1.125-3.261 2.811l-.675 3.487v.562c0 1.464 1.235 2.137 2.586 2.137 1.911-.113 3.374-1.126 3.599-2.924M163.607 26.726c0-1.238.225-2.586.562-3.824.788-3.6 3.374-6.073 7.197-6.073 2.699 0 5.06 1.348 5.06 4.272 0 .45-.113.9-.225 1.349h-3.037c0-.225.113-.563.113-.788 0-1.461-1.124-2.136-2.474-2.136-1.911 0-2.924 1.125-3.262 2.924-.225.788-.562 3.036-.562 3.71 0 1.573 1.348 2.248 2.698 2.248 1.351 0 2.812-.563 4.16-1.125l1.011 2.473c-1.461.788-3.149 1.464-5.735 1.464-2.699.112-5.511-1.351-5.511-4.498zM177.175 26.726c0-1.125.337-2.698.562-3.824.676-3.71 3.71-6.073 7.422-6.073 2.699 0 5.06 1.348 5.06 4.272 0 1.126-.338 2.7-.563 3.823h-8.882c-.113.45-.225.9-.225 1.348 0 1.573 1.348 2.249 2.811 2.249 2.024 0 3.71-.9 4.61-1.236l1.013 2.136c-1.236 1.125-3.71 1.911-6.298 1.911-2.924 0-5.51-1.348-5.51-4.61zm9.557-3.934c0-.338.113-.676.113-1.013 0-1.349-1.013-2.024-2.249-2.024-1.686 0-2.924.9-3.374 2.474 0 .225-.113.45-.113.675z"/></g></g></svg>