<svg xmlns="http://www.w3.org/2000/svg" width="140" height="32" fill="none"><clipPath id="a"><path d="M.854 0h138.462v32H.854z"/></clipPath><g fill="#fff" clip-path="url(#a)"><path d="M116.123 9.258c-.635 0-1.049.433-1.049 1.065 0 .591.414 1.044 1.049 1.044s1.05-.453 1.05-1.044c0-.632-.415-1.065-1.05-1.065M45.3 11.074h-1.724v8.248c0 2.587 1.524 4.143 4.444 4.143V21.83c-1.885 0-2.72-.931-2.72-2.508v-4.203h2.72v-1.716H45.3zM49.357 18.337v4.935h1.704v-4.935c0-2.208 1.29-3.412 3.669-3.412V13.21c-3.388-.006-5.373 1.909-5.373 5.128M60.27 13.203c-2.934 0-4.999 2.168-4.999 5.134 0 2.94 2.065 5.135 4.959 5.135 2.358 0 4.122-1.384 4.777-3.472h-1.844c-.475 1.164-1.584 1.935-2.933 1.935-1.704 0-2.974-1.163-3.174-3.079h8.111c.02-.2.04-.432.04-.632 0-2.847-1.984-5.022-4.937-5.022m3.187 4.416h-6.368c.247-1.756 1.47-2.893 3.187-2.893 1.73 0 2.947 1.17 3.18 2.893M71.386 13.203c-2.933 0-4.997 2.168-4.997 5.134 0 2.94 2.064 5.135 4.957 5.135 2.359 0 4.123-1.384 4.778-3.472h-1.837c-.475 1.164-1.584 1.935-2.934 1.935-1.704 0-2.974-1.164-3.174-3.079h8.112c.02-.2.04-.432.04-.632-.006-2.847-1.99-5.022-4.945-5.022m3.188 4.416h-6.368c.247-1.756 1.47-2.893 3.187-2.893 1.731 0 2.947 1.17 3.18 2.893M79.451 17.632v1.191h4.851v-1.2640000000000002h-4.85zM91.554 13.203c-2.6 0-4.544 2.188-4.544 5.134v4.935h1.704v-4.935c0-1.995 1.19-3.412 2.833-3.412 1.684 0 2.833 1.483 2.833 3.412v4.935h1.724v-4.935c.007-2.94-1.91-5.135-4.55-5.135M102.566 13.203c-2.854 0-4.959 2.128-4.959 5.134 0 2.9 2.065 5.135 4.718 5.135 1.43 0 2.679-.712 3.488-1.856v1.656h1.724v-4.935c0-2.92-1.978-5.135-4.971-5.135m0 8.533c-1.865 0-3.215-1.503-3.215-3.392 0-1.796 1.19-3.412 3.215-3.412 2.125 0 3.254 1.616 3.254 3.412-.007 1.929-1.39 3.392-3.254 3.392M110.931 11.074h-1.724v8.248c0 2.587 1.523 4.143 4.443 4.143V21.83c-1.884 0-2.719-.931-2.719-2.508v-4.203h2.719v-1.716h-2.719zM116.991 13.402h-1.743v9.87h1.743zM123.754 13.203c-2.954 0-4.979 2.168-4.979 5.134 0 2.94 2.025 5.135 4.979 5.135 2.933 0 4.957-2.188 4.957-5.135 0-2.96-2.017-5.134-4.957-5.134m0 8.533c-1.924 0-3.235-1.423-3.235-3.392 0-1.995 1.311-3.412 3.235-3.412 1.904 0 3.213 1.423 3.213 3.412 0 1.969-1.309 3.392-3.213 3.392M134.752 13.203c-2.599 0-4.543 2.188-4.543 5.134v4.935h1.703v-4.935c0-1.995 1.19-3.412 2.834-3.412 1.683 0 2.833 1.483 2.833 3.412v4.935h1.724v-4.935c.013-2.94-1.911-5.135-4.551-5.135M16.716 0C7.996 0 .9 7.064.9 15.743c0 7.63 5.48 14.008 12.73 15.438.801.172 1.623.279 2.465.312v-8.327l-4.196-3.592a2.525 2.525 0 0 1-3.996-2.048c0-1.39 1.136-2.521 2.532-2.521s2.533 1.13 2.533 2.52c0 .406-.107.779-.274 1.118l3.401 2.907v-7.915l-1.517-1.297a2.54 2.54 0 0 1-1.724.685 2.53 2.53 0 0 1-2.532-2.52 2.53 2.53 0 0 1 2.532-2.522 2.53 2.53 0 0 1 2.533 2.521c0 .28-.054.539-.14.792l1.463 1.257 1.483-1.244a2.4 2.4 0 0 1-.14-.798 2.53 2.53 0 0 1 2.532-2.52 2.53 2.53 0 0 1 2.532 2.52 2.53 2.53 0 0 1-4.25 1.842l-1.536 1.317v6.279l3.602-3.086a2.46 2.46 0 0 1-.228-1.038 2.53 2.53 0 0 1 2.533-2.52c1.396 0 2.532 1.13 2.532 2.52a2.53 2.53 0 0 1-4.069 1.995l-4.37 3.732v9.943c.842-.033 1.664-.14 2.466-.312 7.25-1.43 12.729-7.809 12.729-15.438C32.526 7.063 25.436 0 16.716 0m3.08 29.924V22.68l2.346-2.008c.354.08.722.12 1.096.12 2.76 0 4.998-2.235 4.998-4.976a4.98 4.98 0 0 0-2.733-4.436q.08-.428.08-.885c0-2.746-2.245-4.975-4.998-4.975a5.02 5.02 0 0 0-3.869 1.823 5 5 0 0 0-3.868-1.823c-2.76 0-4.998 2.235-4.998 4.975 0 .885.233 1.723.641 2.441a4.99 4.99 0 0 0-3.06 4.59c0 2.747 2.245 4.975 4.998 4.975q.499 0 .989-.1l2.205 1.889v5.633c-6.555-1.41-11.486-7.23-11.486-14.18 0-8.001 6.541-14.513 14.58-14.513s14.58 6.512 14.58 14.513c0 6.95-4.939 12.77-11.5 14.18"/><path d="M11.531 10.516c0 .718.582 1.303 1.303 1.303.722 0 1.31-.579 1.31-1.297S13.563 9.22 12.84 9.22a1.307 1.307 0 0 0-1.31 1.296M20.586 11.813a1.3 1.3 0 0 0 1.303-1.298 1.3 1.3 0 0 0-1.303-1.296 1.3 1.3 0 0 0-1.303 1.296 1.3 1.3 0 0 0 1.303 1.297M10.414 18.863c.72 0 1.303-.581 1.303-1.297s-.583-1.297-1.303-1.297-1.303.58-1.303 1.297.584 1.297 1.303 1.297M23.244 17.147c.72 0 1.303-.581 1.303-1.297s-.583-1.297-1.303-1.297-1.303.58-1.303 1.297.584 1.297 1.303 1.297"/></g></svg>