<svg width="258" height="238" viewBox="0 0 258 238" fill="none" xmlns="http://www.w3.org/2000/svg">
<g filter="url(#filter0_d_1814_3483)">
<path d="M119.232 220.236C113.894 214.12 100.566 202.196 89.6138 193.739C57.1629 168.681 52.7464 165.054 39.5707 152.649C15.2804 129.778 4.96474 106.801 5.00009 75.6461C5.01734 60.4373 6.03114 54.5779 10.1964 45.6131C17.2631 30.4036 27.6728 19.1018 40.9815 12.1895C50.4076 7.29383 55.0565 5.11875 70.7974 5.02977C87.2636 4.93672 90.7299 6.89985 100.416 12.3409C112.205 18.9636 124.34 33.1174 126.849 43.1716L128.398 49.3814L132.218 40.829C153.808 -7.49998 222.738 -6.77692 246.726 42.0302C254.335 57.5133 255.171 90.5733 248.423 109.196C239.621 133.488 223.088 152.009 184.87 180.389C159.807 199.001 131.44 227.162 129.465 231.117C127.173 235.708 129.356 231.836 119.232 220.236Z" fill="url(#paint0_linear_1814_3483)" shape-rendering="crispEdges"/>
<path d="M119.232 220.236C113.894 214.12 100.566 202.196 89.6138 193.739C57.1629 168.681 52.7464 165.054 39.5707 152.649C15.2804 129.778 4.96474 106.801 5.00009 75.6461C5.01734 60.4373 6.03114 54.5779 10.1964 45.6131C17.2631 30.4036 27.6728 19.1018 40.9815 12.1895C50.4076 7.29383 55.0565 5.11875 70.7974 5.02977C87.2636 4.93672 90.7299 6.89985 100.416 12.3409C112.205 18.9636 124.34 33.1174 126.849 43.1716L128.398 49.3814L132.218 40.829C153.808 -7.49998 222.738 -6.77692 246.726 42.0302C254.335 57.5133 255.171 90.5733 248.423 109.196C239.621 133.488 223.088 152.009 184.87 180.389C159.807 199.001 131.44 227.162 129.465 231.117C127.173 235.708 129.356 231.836 119.232 220.236Z" stroke="#9092FF" shape-rendering="crispEdges"/>
</g>
<defs>
<filter id="filter0_d_1814_3483" x="0.5" y="0.499756" width="257" height="237" filterUnits="userSpaceOnUse" color-interpolation-filters="sRGB">
<feFlood flood-opacity="0" result="BackgroundImageFix"/>
<feColorMatrix in="SourceAlpha" type="matrix" values="0 0 0 0 0 0 0 0 0 0 0 0 0 0 0 0 0 0 127 0" result="hardAlpha"/>
<feOffset/>
<feGaussianBlur stdDeviation="2"/>
<feComposite in2="hardAlpha" operator="out"/>
<feColorMatrix type="matrix" values="0 0 0 0 0.564706 0 0 0 0 0.572549 0 0 0 0 1 0 0 0 1 0"/>
<feBlend mode="normal" in2="BackgroundImageFix" result="effect1_dropShadow_1814_3483"/>
<feBlend mode="normal" in="SourceGraphic" in2="effect1_dropShadow_1814_3483" result="shape"/>
</filter>
<linearGradient id="paint0_linear_1814_3483" x1="129" y1="5" x2="129" y2="233" gradientUnits="userSpaceOnUse">
<stop stop-color="#9092FF" stop-opacity="0"/>
<stop offset="1" stop-color="#9092FF"/>
</linearGradient>
</defs>
</svg>
