<svg width="1440" height="456" viewBox="0 0 1440 456" fill="none" xmlns="http://www.w3.org/2000/svg">
<g clip-path="url(#clip0_11_17)">
<mask id="mask0_11_17" style="mask-type:alpha" maskUnits="userSpaceOnUse" x="120" y="-8" width="1200" height="464">
<ellipse cx="720" cy="224" rx="600" ry="232" fill="url(#paint0_radial_11_17)"/>
</mask>
<g mask="url(#mask0_11_17)">
<g opacity="0.4" filter="url(#filter0_f_11_17)">
<ellipse cx="720" cy="276.5" rx="375" ry="160.5" fill="#9092FF"/>
</g>
<rect x="104" y="-56" width="56" height="56" stroke="#8586E9" stroke-opacity="0.1"/>
<rect x="160" y="-56" width="56" height="56" stroke="#8586E9" stroke-opacity="0.1"/>
<rect x="216" y="-56" width="56" height="56" stroke="#8586E9" stroke-opacity="0.1"/>
<rect x="272" y="-56" width="56" height="56" stroke="#8586E9" stroke-opacity="0.1"/>
<rect x="328" y="-56" width="56" height="56" stroke="#8586E9" stroke-opacity="0.1"/>
<rect x="384" y="-56" width="56" height="56" stroke="#8586E9" stroke-opacity="0.1"/>
<rect x="440" y="-56" width="56" height="56" stroke="#8586E9" stroke-opacity="0.1"/>
<rect x="496" y="-56" width="56" height="56" stroke="#8586E9" stroke-opacity="0.1"/>
<rect x="552" y="-56" width="56" height="56" stroke="#8586E9" stroke-opacity="0.1"/>
<rect x="608" y="-56" width="56" height="56" stroke="#8586E9" stroke-opacity="0.1"/>
<rect x="664" y="-56" width="56" height="56" stroke="#8586E9" stroke-opacity="0.1"/>
<rect x="720" y="-56" width="56" height="56" stroke="#8586E9" stroke-opacity="0.1"/>
<rect x="776" y="-56" width="56" height="56" stroke="#8586E9" stroke-opacity="0.1"/>
<rect x="832" y="-56" width="56" height="56" stroke="#8586E9" stroke-opacity="0.1"/>
<rect x="888" y="-56" width="56" height="56" stroke="#8586E9" stroke-opacity="0.1"/>
<rect x="944" y="-56" width="56" height="56" stroke="#8586E9" stroke-opacity="0.1"/>
<rect x="1000" y="-56" width="56" height="56" stroke="#8586E9" stroke-opacity="0.1"/>
<rect x="1056" y="-56" width="56" height="56" stroke="#8586E9" stroke-opacity="0.1"/>
<rect x="1112" y="-56" width="56" height="56" stroke="#8586E9" stroke-opacity="0.1"/>
<rect x="1168" y="-56" width="56" height="56" stroke="#8586E9" stroke-opacity="0.1"/>
<rect x="1224" y="-56" width="56" height="56" stroke="#8586E9" stroke-opacity="0.1"/>
<rect x="1280" y="-56" width="56" height="56" stroke="#8586E9" stroke-opacity="0.1"/>
<rect x="104" width="56" height="56" stroke="#8586E9" stroke-opacity="0.1"/>
<rect x="160" width="56" height="56" stroke="#8586E9" stroke-opacity="0.1"/>
<rect x="216" width="56" height="56" stroke="#8586E9" stroke-opacity="0.1"/>
<rect x="272" width="56" height="56" stroke="#8586E9" stroke-opacity="0.1"/>
<rect x="328" width="56" height="56" stroke="#8586E9" stroke-opacity="0.1"/>
<rect x="384" width="56" height="56" stroke="#8586E9" stroke-opacity="0.1"/>
<rect x="440" width="56" height="56" stroke="#8586E9" stroke-opacity="0.1"/>
<rect x="496" width="56" height="56" stroke="#8586E9" stroke-opacity="0.1"/>
<rect x="552" width="56" height="56" stroke="#8586E9" stroke-opacity="0.1"/>
<rect x="608" width="56" height="56" stroke="#8586E9" stroke-opacity="0.1"/>
<rect x="664" width="56" height="56" stroke="#8586E9" stroke-opacity="0.1"/>
<rect x="720" width="56" height="56" stroke="#8586E9" stroke-opacity="0.1"/>
<rect x="776" width="56" height="56" stroke="#8586E9" stroke-opacity="0.1"/>
<rect x="832" width="56" height="56" stroke="#8586E9" stroke-opacity="0.1"/>
<rect x="888" width="56" height="56" stroke="#8586E9" stroke-opacity="0.1"/>
<rect x="944" width="56" height="56" stroke="#8586E9" stroke-opacity="0.1"/>
<rect x="1000" width="56" height="56" stroke="#8586E9" stroke-opacity="0.1"/>
<rect x="1056" width="56" height="56" stroke="#8586E9" stroke-opacity="0.1"/>
<rect x="1112" width="56" height="56" stroke="#8586E9" stroke-opacity="0.1"/>
<rect x="1168" width="56" height="56" stroke="#8586E9" stroke-opacity="0.1"/>
<rect x="1224" width="56" height="56" stroke="#8586E9" stroke-opacity="0.1"/>
<rect x="1280" width="56" height="56" stroke="#8586E9" stroke-opacity="0.1"/>
<rect x="104" y="56" width="56" height="56" stroke="#8586E9" stroke-opacity="0.1"/>
<rect x="160" y="56" width="56" height="56" stroke="#8586E9" stroke-opacity="0.1"/>
<rect x="216" y="56" width="56" height="56" stroke="#8586E9" stroke-opacity="0.1"/>
<rect x="272" y="56" width="56" height="56" stroke="#8586E9" stroke-opacity="0.1"/>
<rect x="328" y="56" width="56" height="56" stroke="#8586E9" stroke-opacity="0.1"/>
<rect x="384" y="56" width="56" height="56" stroke="#8586E9" stroke-opacity="0.1"/>
<rect x="440" y="56" width="56" height="56" stroke="#8586E9" stroke-opacity="0.1"/>
<rect x="496" y="56" width="56" height="56" stroke="#8586E9" stroke-opacity="0.1"/>
<rect x="552" y="56" width="56" height="56" stroke="#8586E9" stroke-opacity="0.1"/>
<rect x="608" y="56" width="56" height="56" stroke="#8586E9" stroke-opacity="0.1"/>
<rect x="664" y="56" width="56" height="56" stroke="#8586E9" stroke-opacity="0.1"/>
<rect x="720" y="56" width="56" height="56" stroke="#8586E9" stroke-opacity="0.1"/>
<rect x="776" y="56" width="56" height="56" stroke="#8586E9" stroke-opacity="0.1"/>
<rect x="832" y="56" width="56" height="56" stroke="#8586E9" stroke-opacity="0.1"/>
<rect x="888" y="56" width="56" height="56" stroke="#8586E9" stroke-opacity="0.1"/>
<rect x="944" y="56" width="56" height="56" stroke="#8586E9" stroke-opacity="0.1"/>
<rect x="1000" y="56" width="56" height="56" stroke="#8586E9" stroke-opacity="0.1"/>
<rect x="1056" y="56" width="56" height="56" stroke="#8586E9" stroke-opacity="0.1"/>
<rect x="1112" y="56" width="56" height="56" stroke="#8586E9" stroke-opacity="0.1"/>
<rect x="1168" y="56" width="56" height="56" stroke="#8586E9" stroke-opacity="0.1"/>
<rect x="1224" y="56" width="56" height="56" stroke="#8586E9" stroke-opacity="0.1"/>
<rect x="1280" y="56" width="56" height="56" stroke="#8586E9" stroke-opacity="0.1"/>
<rect x="104" y="112" width="56" height="56" stroke="#8586E9" stroke-opacity="0.1"/>
<rect x="160" y="112" width="56" height="56" stroke="#8586E9" stroke-opacity="0.1"/>
<rect x="216" y="112" width="56" height="56" stroke="#8586E9" stroke-opacity="0.1"/>
<rect x="272" y="112" width="56" height="56" stroke="#8586E9" stroke-opacity="0.1"/>
<rect x="328" y="112" width="56" height="56" stroke="#8586E9" stroke-opacity="0.1"/>
<rect x="384" y="112" width="56" height="56" stroke="#8586E9" stroke-opacity="0.1"/>
<rect x="440" y="112" width="56" height="56" stroke="#8586E9" stroke-opacity="0.1"/>
<rect x="496" y="112" width="56" height="56" stroke="#8586E9" stroke-opacity="0.1"/>
<rect x="552" y="112" width="56" height="56" stroke="#8586E9" stroke-opacity="0.1"/>
<rect x="608" y="112" width="56" height="56" stroke="#8586E9" stroke-opacity="0.1"/>
<rect x="664" y="112" width="56" height="56" stroke="#8586E9" stroke-opacity="0.1"/>
<rect x="720" y="112" width="56" height="56" stroke="#8586E9" stroke-opacity="0.1"/>
<rect x="776" y="112" width="56" height="56" stroke="#8586E9" stroke-opacity="0.1"/>
<rect x="832" y="112" width="56" height="56" stroke="#8586E9" stroke-opacity="0.1"/>
<rect x="888" y="112" width="56" height="56" stroke="#8586E9" stroke-opacity="0.1"/>
<rect x="944" y="112" width="56" height="56" stroke="#8586E9" stroke-opacity="0.1"/>
<rect x="1000" y="112" width="56" height="56" stroke="#8586E9" stroke-opacity="0.1"/>
<rect x="1056" y="112" width="56" height="56" stroke="#8586E9" stroke-opacity="0.1"/>
<rect x="1112" y="112" width="56" height="56" stroke="#8586E9" stroke-opacity="0.1"/>
<rect x="1168" y="112" width="56" height="56" stroke="#8586E9" stroke-opacity="0.1"/>
<rect x="1224" y="112" width="56" height="56" stroke="#8586E9" stroke-opacity="0.1"/>
<rect x="1280" y="112" width="56" height="56" stroke="#8586E9" stroke-opacity="0.1"/>
<rect x="104" y="168" width="56" height="56" stroke="#8586E9" stroke-opacity="0.1"/>
<rect x="160" y="168" width="56" height="56" stroke="#8586E9" stroke-opacity="0.1"/>
<rect x="216" y="168" width="56" height="56" stroke="#8586E9" stroke-opacity="0.1"/>
<rect x="272" y="168" width="56" height="56" stroke="#8586E9" stroke-opacity="0.1"/>
<rect x="328" y="168" width="56" height="56" stroke="#8586E9" stroke-opacity="0.1"/>
<rect x="384" y="168" width="56" height="56" stroke="#8586E9" stroke-opacity="0.1"/>
<rect x="440" y="168" width="56" height="56" stroke="#8586E9" stroke-opacity="0.1"/>
<rect x="496" y="168" width="56" height="56" stroke="#8586E9" stroke-opacity="0.1"/>
<rect x="552" y="168" width="56" height="56" stroke="#8586E9" stroke-opacity="0.1"/>
<rect x="608" y="168" width="56" height="56" stroke="#8586E9" stroke-opacity="0.1"/>
<rect x="664" y="168" width="56" height="56" stroke="#8586E9" stroke-opacity="0.1"/>
<rect x="720" y="168" width="56" height="56" stroke="#8586E9" stroke-opacity="0.1"/>
<rect x="776" y="168" width="56" height="56" stroke="#8586E9" stroke-opacity="0.1"/>
<rect x="832" y="168" width="56" height="56" stroke="#8586E9" stroke-opacity="0.1"/>
<rect x="888" y="168" width="56" height="56" stroke="#8586E9" stroke-opacity="0.1"/>
<rect x="944" y="168" width="56" height="56" stroke="#8586E9" stroke-opacity="0.1"/>
<rect x="1000" y="168" width="56" height="56" stroke="#8586E9" stroke-opacity="0.1"/>
<rect x="1056" y="168" width="56" height="56" stroke="#8586E9" stroke-opacity="0.1"/>
<rect x="1112" y="168" width="56" height="56" stroke="#8586E9" stroke-opacity="0.1"/>
<rect x="1168" y="168" width="56" height="56" stroke="#8586E9" stroke-opacity="0.1"/>
<rect x="1224" y="168" width="56" height="56" stroke="#8586E9" stroke-opacity="0.1"/>
<rect x="1280" y="168" width="56" height="56" stroke="#8586E9" stroke-opacity="0.1"/>
<rect x="104" y="224" width="56" height="56" stroke="#8586E9" stroke-opacity="0.1"/>
<rect x="160" y="224" width="56" height="56" stroke="#8586E9" stroke-opacity="0.1"/>
<rect x="216" y="224" width="56" height="56" stroke="#8586E9" stroke-opacity="0.1"/>
<rect x="272" y="224" width="56" height="56" stroke="#8586E9" stroke-opacity="0.1"/>
<rect x="328" y="224" width="56" height="56" stroke="#8586E9" stroke-opacity="0.1"/>
<rect x="384" y="224" width="56" height="56" stroke="#8586E9" stroke-opacity="0.1"/>
<rect x="440" y="224" width="56" height="56" stroke="#8586E9" stroke-opacity="0.1"/>
<rect x="496" y="224" width="56" height="56" stroke="#8586E9" stroke-opacity="0.1"/>
<rect x="552" y="224" width="56" height="56" stroke="#8586E9" stroke-opacity="0.1"/>
<rect x="608" y="224" width="56" height="56" stroke="#8586E9" stroke-opacity="0.1"/>
<rect x="664" y="224" width="56" height="56" stroke="#8586E9" stroke-opacity="0.1"/>
<rect x="720" y="224" width="56" height="56" stroke="#8586E9" stroke-opacity="0.1"/>
<rect x="776" y="224" width="56" height="56" stroke="#8586E9" stroke-opacity="0.1"/>
<rect x="832" y="224" width="56" height="56" stroke="#8586E9" stroke-opacity="0.1"/>
<rect x="888" y="224" width="56" height="56" stroke="#8586E9" stroke-opacity="0.1"/>
<rect x="944" y="224" width="56" height="56" stroke="#8586E9" stroke-opacity="0.1"/>
<rect x="1000" y="224" width="56" height="56" stroke="#8586E9" stroke-opacity="0.1"/>
<rect x="1056" y="224" width="56" height="56" stroke="#8586E9" stroke-opacity="0.1"/>
<rect x="1112" y="224" width="56" height="56" stroke="#8586E9" stroke-opacity="0.1"/>
<rect x="1168" y="224" width="56" height="56" stroke="#8586E9" stroke-opacity="0.1"/>
<rect x="1224" y="224" width="56" height="56" stroke="#8586E9" stroke-opacity="0.1"/>
<rect x="1280" y="224" width="56" height="56" stroke="#8586E9" stroke-opacity="0.1"/>
<rect x="104" y="280" width="56" height="56" stroke="#8586E9" stroke-opacity="0.1"/>
<rect x="160" y="280" width="56" height="56" stroke="#8586E9" stroke-opacity="0.1"/>
<rect x="216" y="280" width="56" height="56" stroke="#8586E9" stroke-opacity="0.1"/>
<rect x="272" y="280" width="56" height="56" stroke="#8586E9" stroke-opacity="0.1"/>
<rect x="328" y="280" width="56" height="56" stroke="#8586E9" stroke-opacity="0.1"/>
<rect x="384" y="280" width="56" height="56" stroke="#8586E9" stroke-opacity="0.1"/>
<rect x="440" y="280" width="56" height="56" stroke="#8586E9" stroke-opacity="0.1"/>
<rect x="496" y="280" width="56" height="56" stroke="#8586E9" stroke-opacity="0.1"/>
<rect x="552" y="280" width="56" height="56" stroke="#8586E9" stroke-opacity="0.1"/>
<rect x="608" y="280" width="56" height="56" stroke="#8586E9" stroke-opacity="0.1"/>
<rect x="664" y="280" width="56" height="56" stroke="#8586E9" stroke-opacity="0.1"/>
<rect x="720" y="280" width="56" height="56" stroke="#8586E9" stroke-opacity="0.1"/>
<rect x="776" y="280" width="56" height="56" stroke="#8586E9" stroke-opacity="0.1"/>
<rect x="832" y="280" width="56" height="56" stroke="#8586E9" stroke-opacity="0.1"/>
<rect x="888" y="280" width="56" height="56" stroke="#8586E9" stroke-opacity="0.1"/>
<rect x="944" y="280" width="56" height="56" stroke="#8586E9" stroke-opacity="0.1"/>
<rect x="1000" y="280" width="56" height="56" stroke="#8586E9" stroke-opacity="0.1"/>
<rect x="1056" y="280" width="56" height="56" stroke="#8586E9" stroke-opacity="0.1"/>
<rect x="1112" y="280" width="56" height="56" stroke="#8586E9" stroke-opacity="0.1"/>
<rect x="1168" y="280" width="56" height="56" stroke="#8586E9" stroke-opacity="0.1"/>
<rect x="1224" y="280" width="56" height="56" stroke="#8586E9" stroke-opacity="0.1"/>
<rect x="1280" y="280" width="56" height="56" stroke="#8586E9" stroke-opacity="0.1"/>
<rect x="104" y="336" width="56" height="56" stroke="#8586E9" stroke-opacity="0.1"/>
<rect x="160" y="336" width="56" height="56" stroke="#8586E9" stroke-opacity="0.1"/>
<rect x="216" y="336" width="56" height="56" stroke="#8586E9" stroke-opacity="0.1"/>
<rect x="272" y="336" width="56" height="56" stroke="#8586E9" stroke-opacity="0.1"/>
<rect x="328" y="336" width="56" height="56" stroke="#8586E9" stroke-opacity="0.1"/>
<rect x="384" y="336" width="56" height="56" stroke="#8586E9" stroke-opacity="0.1"/>
<rect x="440" y="336" width="56" height="56" stroke="#8586E9" stroke-opacity="0.1"/>
<rect x="496" y="336" width="56" height="56" stroke="#8586E9" stroke-opacity="0.1"/>
<rect x="552" y="336" width="56" height="56" stroke="#8586E9" stroke-opacity="0.1"/>
<rect x="608" y="336" width="56" height="56" stroke="#8586E9" stroke-opacity="0.1"/>
<rect x="664" y="336" width="56" height="56" stroke="#8586E9" stroke-opacity="0.1"/>
<rect x="720" y="336" width="56" height="56" stroke="#8586E9" stroke-opacity="0.1"/>
<rect x="776" y="336" width="56" height="56" stroke="#8586E9" stroke-opacity="0.1"/>
<rect x="832" y="336" width="56" height="56" stroke="#8586E9" stroke-opacity="0.1"/>
<rect x="888" y="336" width="56" height="56" stroke="#8586E9" stroke-opacity="0.1"/>
<rect x="944" y="336" width="56" height="56" stroke="#8586E9" stroke-opacity="0.1"/>
<rect x="1000" y="336" width="56" height="56" stroke="#8586E9" stroke-opacity="0.1"/>
<rect x="1056" y="336" width="56" height="56" stroke="#8586E9" stroke-opacity="0.1"/>
<rect x="1112" y="336" width="56" height="56" stroke="#8586E9" stroke-opacity="0.1"/>
<rect x="1168" y="336" width="56" height="56" stroke="#8586E9" stroke-opacity="0.1"/>
<rect x="1224" y="336" width="56" height="56" stroke="#8586E9" stroke-opacity="0.1"/>
<rect x="1280" y="336" width="56" height="56" stroke="#8586E9" stroke-opacity="0.1"/>
<rect x="104" y="392" width="56" height="56" stroke="#8586E9" stroke-opacity="0.1"/>
<rect x="160" y="392" width="56" height="56" stroke="#8586E9" stroke-opacity="0.1"/>
<rect x="216" y="392" width="56" height="56" stroke="#8586E9" stroke-opacity="0.1"/>
<rect x="272" y="392" width="56" height="56" stroke="#8586E9" stroke-opacity="0.1"/>
<rect x="328" y="392" width="56" height="56" stroke="#8586E9" stroke-opacity="0.1"/>
<rect x="384" y="392" width="56" height="56" stroke="#8586E9" stroke-opacity="0.1"/>
<rect x="440" y="392" width="56" height="56" stroke="#8586E9" stroke-opacity="0.1"/>
<rect x="496" y="392" width="56" height="56" stroke="#8586E9" stroke-opacity="0.1"/>
<rect x="552" y="392" width="56" height="56" stroke="#8586E9" stroke-opacity="0.1"/>
<rect x="608" y="392" width="56" height="56" stroke="#8586E9" stroke-opacity="0.1"/>
<rect x="664" y="392" width="56" height="56" stroke="#8586E9" stroke-opacity="0.1"/>
<rect x="720" y="392" width="56" height="56" stroke="#8586E9" stroke-opacity="0.1"/>
<rect x="776" y="392" width="56" height="56" stroke="#8586E9" stroke-opacity="0.1"/>
<rect x="832" y="392" width="56" height="56" stroke="#8586E9" stroke-opacity="0.1"/>
<rect x="888" y="392" width="56" height="56" stroke="#8586E9" stroke-opacity="0.1"/>
<rect x="944" y="392" width="56" height="56" stroke="#8586E9" stroke-opacity="0.1"/>
<rect x="1000" y="392" width="56" height="56" stroke="#8586E9" stroke-opacity="0.1"/>
<rect x="1056" y="392" width="56" height="56" stroke="#8586E9" stroke-opacity="0.1"/>
<rect x="1112" y="392" width="56" height="56" stroke="#8586E9" stroke-opacity="0.1"/>
<rect x="1168" y="392" width="56" height="56" stroke="#8586E9" stroke-opacity="0.1"/>
<rect x="1224" y="392" width="56" height="56" stroke="#8586E9" stroke-opacity="0.1"/>
<rect x="1280" y="392" width="56" height="56" stroke="#8586E9" stroke-opacity="0.1"/>
<rect x="104" y="448" width="56" height="56" stroke="#8586E9" stroke-opacity="0.1"/>
<rect x="160" y="448" width="56" height="56" stroke="#8586E9" stroke-opacity="0.1"/>
<rect x="216" y="448" width="56" height="56" stroke="#8586E9" stroke-opacity="0.1"/>
<rect x="272" y="448" width="56" height="56" stroke="#8586E9" stroke-opacity="0.1"/>
<rect x="328" y="448" width="56" height="56" stroke="#8586E9" stroke-opacity="0.1"/>
<rect x="384" y="448" width="56" height="56" stroke="#8586E9" stroke-opacity="0.1"/>
<rect x="440" y="448" width="56" height="56" stroke="#8586E9" stroke-opacity="0.1"/>
<rect x="496" y="448" width="56" height="56" stroke="#8586E9" stroke-opacity="0.1"/>
<rect x="552" y="448" width="56" height="56" stroke="#8586E9" stroke-opacity="0.1"/>
<rect x="608" y="448" width="56" height="56" stroke="#8586E9" stroke-opacity="0.1"/>
<rect x="664" y="448" width="56" height="56" stroke="#8586E9" stroke-opacity="0.1"/>
<rect x="720" y="448" width="56" height="56" stroke="#8586E9" stroke-opacity="0.1"/>
<rect x="776" y="448" width="56" height="56" stroke="#8586E9" stroke-opacity="0.1"/>
<rect x="832" y="448" width="56" height="56" stroke="#8586E9" stroke-opacity="0.1"/>
<rect x="888" y="448" width="56" height="56" stroke="#8586E9" stroke-opacity="0.1"/>
<rect x="944" y="448" width="56" height="56" stroke="#8586E9" stroke-opacity="0.1"/>
<rect x="1000" y="448" width="56" height="56" stroke="#8586E9" stroke-opacity="0.1"/>
<rect x="1056" y="448" width="56" height="56" stroke="#8586E9" stroke-opacity="0.1"/>
<rect x="1112" y="448" width="56" height="56" stroke="#8586E9" stroke-opacity="0.1"/>
<rect x="1168" y="448" width="56" height="56" stroke="#8586E9" stroke-opacity="0.1"/>
<rect x="1224" y="448" width="56" height="56" stroke="#8586E9" stroke-opacity="0.1"/>
<rect x="1280" y="448" width="56" height="56" stroke="#8586E9" stroke-opacity="0.1"/>
</g>
</g>
<g filter="url(#filter1_d_11_17)">
<path d="M710.232 325.236C704.894 319.12 691.566 307.196 680.614 298.739C648.163 273.681 643.746 270.054 630.571 257.649C606.28 234.778 595.965 211.801 596 180.646C596.017 165.437 597.031 159.578 601.196 150.613C608.263 135.404 618.673 124.102 631.981 117.19C641.408 112.294 646.057 110.119 661.797 110.03C678.264 109.937 681.73 111.9 691.416 117.341C703.205 123.964 715.34 138.117 717.849 148.172L719.398 154.381L723.218 145.829C744.808 97.5 813.738 98.2231 837.726 147.03C845.335 162.513 846.171 195.573 839.423 214.196C830.621 238.488 814.088 257.009 775.87 285.389C750.807 304.001 722.44 332.162 720.465 336.117C718.173 340.708 720.356 336.836 710.232 325.236Z" fill="url(#paint1_linear_11_17)" shape-rendering="crispEdges"/>
<path d="M710.232 325.236C704.894 319.12 691.566 307.196 680.614 298.739C648.163 273.681 643.746 270.054 630.571 257.649C606.28 234.778 595.965 211.801 596 180.646C596.017 165.437 597.031 159.578 601.196 150.613C608.263 135.404 618.673 124.102 631.981 117.19C641.408 112.294 646.057 110.119 661.797 110.03C678.264 109.937 681.73 111.9 691.416 117.341C703.205 123.964 715.34 138.117 717.849 148.172L719.398 154.381L723.218 145.829C744.808 97.5 813.738 98.2231 837.726 147.03C845.335 162.513 846.171 195.573 839.423 214.196C830.621 238.488 814.088 257.009 775.87 285.389C750.807 304.001 722.44 332.162 720.465 336.117C718.173 340.708 720.356 336.836 710.232 325.236Z" stroke="#9092FF" shape-rendering="crispEdges"/>
</g>
<defs>
<filter id="filter0_f_11_17" x="45" y="-184" width="1350" height="921" filterUnits="userSpaceOnUse" color-interpolation-filters="sRGB">
<feFlood flood-opacity="0" result="BackgroundImageFix"/>
<feBlend mode="normal" in="SourceGraphic" in2="BackgroundImageFix" result="shape"/>
<feGaussianBlur stdDeviation="150" result="effect1_foregroundBlur_11_17"/>
</filter>
<filter id="filter1_d_11_17" x="591.5" y="105.5" width="257" height="237" filterUnits="userSpaceOnUse" color-interpolation-filters="sRGB">
<feFlood flood-opacity="0" result="BackgroundImageFix"/>
<feColorMatrix in="SourceAlpha" type="matrix" values="0 0 0 0 0 0 0 0 0 0 0 0 0 0 0 0 0 0 127 0" result="hardAlpha"/>
<feOffset/>
<feGaussianBlur stdDeviation="2"/>
<feComposite in2="hardAlpha" operator="out"/>
<feColorMatrix type="matrix" values="0 0 0 0 0.564706 0 0 0 0 0.572549 0 0 0 0 1 0 0 0 1 0"/>
<feBlend mode="normal" in2="BackgroundImageFix" result="effect1_dropShadow_11_17"/>
<feBlend mode="normal" in="SourceGraphic" in2="effect1_dropShadow_11_17" result="shape"/>
</filter>
<radialGradient id="paint0_radial_11_17" cx="0" cy="0" r="1" gradientUnits="userSpaceOnUse" gradientTransform="translate(720 224) rotate(90) scale(232 600)">
<stop/>
<stop offset="1" stop-opacity="0"/>
</radialGradient>
<linearGradient id="paint1_linear_11_17" x1="720" y1="110" x2="720" y2="338" gradientUnits="userSpaceOnUse">
<stop stop-color="#9092FF" stop-opacity="0"/>
<stop offset="1" stop-color="#9092FF"/>
</linearGradient>
<clipPath id="clip0_11_17">
<rect width="1440" height="456" fill="white"/>
</clipPath>
</defs>
</svg>
