<svg xmlns="http://www.w3.org/2000/svg" width="68" height="68" fill="none"><path fill="#9FFF45" d="M0 0h68v68H0z"/><path fill="#1B1D22" fill-rule="evenodd" d="m43.106 40.271-5.736-6.13-9.204-9.84c1.772-1.397 3.962-2.224 6.334-2.224 5.902 0 10.687 5.114 10.687 11.423 0 2.535-.774 4.876-2.081 6.771M34.5 44.923c-5.902 0-10.687-5.114-10.687-11.423 0-2.535.774-4.876 2.081-6.77l14.94 15.969c-1.772 1.397-3.962 2.224-6.334 2.224m12.279-.726-1.28-1.367c1.905-2.563 3.046-5.803 3.046-9.33 0-8.292-6.288-15.013-14.045-15.013-3.3 0-6.331 1.22-8.728 3.255L22.272 18 20 20.428l3.5 3.742c-1.904 2.563-3.045 5.803-3.045 9.33 0 8.292 6.288 15.014 14.045 15.014 3.3 0 6.33-1.22 8.728-3.256l3.5 3.742L49 46.572z" clip-rule="evenodd"/></svg>