<svg xmlns="http://www.w3.org/2000/svg" width="200" height="68" fill="none"><path fill="#1B1D22" fill-rule="evenodd" d="m42.159 40.963-6.76-7.16-10.85-11.492c2.09-1.632 4.671-2.598 7.466-2.598 6.957 0 12.596 5.974 12.596 13.342 0 2.96-.912 5.695-2.452 7.908m-10.144 5.433c-6.956 0-12.595-5.973-12.595-13.341 0-2.96.912-5.695 2.452-7.908l17.61 18.652c-2.09 1.632-4.671 2.597-7.467 2.597m14.472-.848-1.507-1.597c2.245-2.992 3.59-6.777 3.59-10.896 0-9.684-7.412-17.534-16.555-17.534-3.888 0-7.462 1.424-10.286 3.802l-4.127-4.371-2.677 2.836 4.126 4.37c-2.245 2.993-3.59 6.777-3.59 10.897 0 9.684 7.412 17.535 16.554 17.535 3.89 0 7.462-1.425 10.288-3.803l4.125 4.37 2.678-2.835zm33.567-28.98h-3.908v21.288c0 4.732-3.65 8.569-8.151 8.569-4.502 0-8.151-3.837-8.151-8.569V16.568h-3.908v21.288c0 7.002 5.399 12.677 12.059 12.677s12.059-5.675 12.059-12.677zm20.369 28.969h8.615v4.108H87.9v-4.108h8.615V21.976c0-.746-.575-1.35-1.284-1.35H87.9v-4.108h7.33c2.867 0 5.192 2.444 5.192 5.458zm27.546-25.76c4.494 0 8.138 3.84 8.138 8.575h3.901c0-7.006-5.39-12.685-12.039-12.685-3.406 0-6.481 1.49-8.671 3.885-.846-1.806-2.611-3.048-4.651-3.048h-3.121v4.11h3.121c.708 0 1.282.606 1.282 1.352v27.688h3.901l.001-21.302c0-4.735 3.644-8.574 8.138-8.574m36.125 26.428c6.563 0 12.284-5.557 12.284-13.063s-5.721-13.064-12.284-13.064c-6.561 0-12.282 5.557-12.282 13.064s5.721 13.063 12.282 13.063m12.657-1.807c-3.039 3.786-7.581 6.19-12.657 6.19-9.148 0-16.565-7.811-16.565-17.446s7.417-17.447 16.565-17.447c5.114 0 9.685 2.44 12.724 6.273.397-2.605 2.542-4.596 5.128-4.596h3.129v4.12h-3.129c-.709 0-1.285.605-1.285 1.353v27.742h-3.91v-6.189" clip-rule="evenodd"/></svg>