<svg width="250" height="48" viewBox="0 0 250 48" fill="none" xmlns="http://www.w3.org/2000/svg">
<g clip-path="url(#clip0_3518_23141)">
<path fill-rule="evenodd" clip-rule="evenodd" d="M7.63064 1.27002H39.167C43.3147 1.27002 46.6772 4.63261 46.6772 8.78013V40.3168C46.6772 44.4675 43.3147 47.83 39.167 47.83H7.63064C3.47984 47.83 0.117188 44.4675 0.117188 40.3168V8.78013C0.117188 4.63261 3.47984 1.27002 7.63064 1.27002ZM14.502 34.8336V14.2667C14.502 13.1742 15.7742 12.5065 16.7594 13.0835L34.3752 23.367C35.3082 23.9118 35.3082 25.1887 34.3752 25.7333L16.7594 36.0168C15.7742 36.5933 14.502 35.9255 14.502 34.8336Z" fill="white"/>
<path d="M58.3223 34.1222V16.645H63.2492V20.44H63.4156C63.5045 19.9518 63.6597 19.4857 63.8817 19.0418C64.1037 18.5758 64.3921 18.1652 64.7472 17.8101C65.1245 17.455 65.5685 17.1776 66.0788 16.9779C66.5892 16.7559 67.1884 16.645 67.8765 16.645H68.742V21.239H67.5103C66.0678 21.239 64.9913 21.4277 64.2812 21.8049C63.5931 22.1821 63.2492 22.8812 63.2492 23.9022V34.1222H58.3223ZM83.7658 31.1927H83.5994C83.4439 31.6365 83.2332 32.0582 82.9668 32.4577C82.7226 32.8572 82.4009 33.2123 82.0014 33.523C81.602 33.8336 81.1247 34.0779 80.57 34.2554C80.0373 34.4328 79.4158 34.5217 78.7057 34.5217C76.9081 34.5217 75.5432 33.9335 74.6111 32.7573C73.701 31.5589 73.2462 29.8501 73.2462 27.6307V16.645H78.1731V27.1979C78.1731 28.2632 78.3616 29.0844 78.739 29.6613C79.1162 30.2383 79.7598 30.5269 80.6698 30.5269C81.0471 30.5269 81.4243 30.4713 81.8017 30.3604C82.1789 30.2495 82.5118 30.0941 82.8004 29.8944C83.0888 29.6724 83.3218 29.406 83.4995 29.0954C83.677 28.7848 83.7658 28.4186 83.7658 27.9968V16.645H88.6927V34.1222H83.7658V31.1927ZM94.9412 34.1222V16.645H99.8682V19.6078H100.068C100.379 18.6978 100.922 17.91 101.699 17.2442C102.476 16.5784 103.552 16.2455 104.928 16.2455C106.726 16.2455 108.08 16.8447 108.99 18.0431C109.922 19.2416 110.388 20.9504 110.388 23.1698V34.1222H105.461V23.5693C105.461 22.4374 105.283 21.6052 104.928 21.0725C104.573 20.5177 103.941 20.2403 103.031 20.2403C102.631 20.2403 102.243 20.2958 101.866 20.4067C101.488 20.4955 101.144 20.6508 100.834 20.8728C100.545 21.0948 100.312 21.3721 100.134 21.705C99.957 22.0157 99.8682 22.3819 99.8682 22.8036V34.1222H94.9412ZM116.437 34.1222V16.645H121.364V19.6078H121.563C121.874 18.6756 122.407 17.8878 123.161 17.2442C123.916 16.5784 124.948 16.2455 126.257 16.2455C127.456 16.2455 128.477 16.5451 129.32 17.1443C130.163 17.7435 130.774 18.6202 131.151 19.7742H131.251C131.406 19.286 131.639 18.831 131.95 18.4093C132.283 17.9655 132.682 17.5882 133.148 17.2775C133.614 16.9668 134.136 16.7226 134.713 16.5451C135.29 16.3453 135.911 16.2455 136.577 16.2455C138.264 16.2455 139.551 16.8447 140.439 18.0431C141.349 19.2416 141.804 20.9504 141.804 23.1698V34.1222H136.877V23.5693C136.877 21.3499 136.078 20.2403 134.48 20.2403C133.748 20.2403 133.082 20.4511 132.482 20.8728C131.883 21.2945 131.584 21.9381 131.584 22.8036V34.1222H126.657V23.5693C126.657 21.3499 125.858 20.2403 124.26 20.2403C123.905 20.2403 123.55 20.2958 123.195 20.4067C122.862 20.4955 122.551 20.6508 122.263 20.8728C121.996 21.0948 121.774 21.3721 121.597 21.705C121.441 22.0157 121.364 22.3819 121.364 22.8036V34.1222H116.437ZM155.138 34.5217C153.806 34.5217 152.619 34.3109 151.576 33.8892C150.533 33.4454 149.645 32.8349 148.913 32.0582C148.203 31.2593 147.659 30.2939 147.282 29.162C146.927 28.0301 146.749 26.7651 146.749 25.3669C146.749 23.991 146.927 22.7481 147.282 21.6385C147.637 20.5066 148.158 19.5412 148.846 18.7422C149.557 17.9433 150.422 17.333 151.443 16.9113C152.464 16.4674 153.629 16.2455 154.938 16.2455C156.381 16.2455 157.613 16.4896 158.634 16.9779C159.677 17.4661 160.52 18.1208 161.164 18.942C161.829 19.7631 162.307 20.7174 162.595 21.8049C162.906 22.8702 163.061 23.991 163.061 25.1672V26.632H151.842V26.8983C151.842 28.0524 152.153 28.9733 152.774 29.6613C153.396 30.3271 154.372 30.66 155.704 30.66C156.725 30.66 157.557 30.4603 158.201 30.0608C158.845 29.6391 159.444 29.1397 159.998 28.5628L162.462 31.6255C161.685 32.5353 160.664 33.2456 159.399 33.756C158.156 34.2664 156.736 34.5217 155.138 34.5217ZM155.038 19.8741C154.04 19.8741 153.252 20.207 152.675 20.8728C152.12 21.5163 151.842 22.3819 151.842 23.4694V23.7357H157.968V23.4361C157.968 22.3708 157.724 21.5163 157.235 20.8728C156.769 20.207 156.037 19.8741 155.038 19.8741ZM170.58 34.4884C169.582 34.4884 168.838 34.2443 168.35 33.756C167.884 33.2456 167.651 32.6019 167.651 31.8252V31.1594C167.651 30.3827 167.884 29.7502 168.35 29.2619C168.838 28.7515 169.582 28.4962 170.58 28.4962C171.579 28.4962 172.312 28.7515 172.778 29.2619C173.266 29.7502 173.51 30.3827 173.51 31.1594V31.8252C173.51 32.6019 173.266 33.2456 172.778 33.756C172.312 34.2443 171.579 34.4884 170.58 34.4884ZM189.919 31.1927H189.753C189.62 31.6587 189.409 32.1025 189.12 32.5243C188.832 32.9238 188.477 33.2789 188.055 33.5896C187.656 33.8781 187.19 34.0999 186.657 34.2554C186.146 34.4328 185.614 34.5217 185.059 34.5217C182.84 34.5217 181.164 33.745 180.032 32.1914C178.9 30.6157 178.335 28.3408 178.335 25.3669C178.335 22.3931 178.9 20.1293 180.032 18.5758C181.164 17.0222 182.84 16.2455 185.059 16.2455C186.191 16.2455 187.19 16.5562 188.055 17.1776C188.943 17.799 189.509 18.598 189.753 19.5745H189.919V9.48761H194.846V34.1222H189.919V31.1927ZM186.69 30.5269C187.622 30.5269 188.388 30.3049 188.987 29.8611C189.609 29.395 189.919 28.7625 189.919 27.9636V22.8036C189.919 22.0046 189.609 21.3832 188.987 20.9394C188.388 20.4733 187.622 20.2403 186.69 20.2403C185.758 20.2403 184.981 20.5732 184.36 21.239C183.761 21.8825 183.461 22.7593 183.461 23.8689V26.8983C183.461 28.0079 183.761 28.8957 184.36 29.5615C184.981 30.205 185.758 30.5269 186.69 30.5269ZM208.408 34.5217C207.077 34.5217 205.89 34.3109 204.847 33.8892C203.803 33.4454 202.916 32.8349 202.184 32.0582C201.473 31.2593 200.93 30.2939 200.552 29.162C200.197 28.0301 200.02 26.7651 200.02 25.3669C200.02 23.991 200.197 22.7481 200.552 21.6385C200.907 20.5066 201.429 19.5412 202.117 18.7422C202.827 17.9433 203.693 17.333 204.714 16.9113C205.734 16.4674 206.899 16.2455 208.208 16.2455C209.652 16.2455 210.884 16.4896 211.904 16.9779C212.948 17.4661 213.791 18.1208 214.434 18.942C215.099 19.7631 215.578 20.7174 215.865 21.8049C216.177 22.8702 216.331 23.991 216.331 25.1672V26.632H205.113V26.8983C205.113 28.0524 205.424 28.9733 206.045 29.6613C206.666 30.3271 207.643 30.66 208.974 30.66C209.996 30.66 210.828 30.4603 211.471 30.0608C212.116 29.6391 212.715 29.1397 213.268 28.5628L215.732 31.6255C214.956 32.5353 213.934 33.2456 212.669 33.756C211.427 34.2664 210.006 34.5217 208.408 34.5217ZM208.308 19.8741C207.31 19.8741 206.522 20.207 205.945 20.8728C205.39 21.5163 205.113 22.3819 205.113 23.4694V23.7357H211.238V23.4361C211.238 22.3708 210.994 21.5163 210.505 20.8728C210.039 20.207 209.307 19.8741 208.308 19.8741ZM224.878 34.1222L219.152 16.645H224.013L226.177 23.7024L227.808 30.0275H228.074L229.705 23.7024L231.803 16.645H236.463L230.737 34.1222H224.878Z" fill="white"/>
<path d="M58.3228 34.1222H58.2188V34.2263H58.3228V34.1222ZM58.3228 16.645V16.541H58.2188V16.645H58.3228ZM63.2497 16.645H63.3537V16.541H63.2497V16.645ZM63.2497 20.44H63.1457V20.5441H63.2497V20.44ZM63.4162 20.44V20.5441H63.5029L63.5185 20.4586L63.4162 20.44ZM63.8822 19.0419L63.9752 19.0884L63.9756 19.0875L63.976 19.0866L63.8822 19.0419ZM64.7477 17.8101L64.6764 17.7344L64.6753 17.7355L64.6741 17.7366L64.7477 17.8101ZM66.0793 16.9779L66.1172 17.0748L66.1191 17.0741L66.1208 17.0733L66.0793 16.9779ZM68.7425 16.645H68.8466V16.541H68.7425V16.645ZM68.7425 21.239V21.343H68.8466V21.239H68.7425ZM64.2817 21.8049L64.2328 21.713L64.2322 21.7134L64.2318 21.7138L64.2817 21.8049ZM63.2497 34.1222V34.2263H63.3537V34.1222H63.2497ZM58.4268 34.1222V16.645H58.2188V34.1222H58.4268ZM58.3228 16.749H63.2497V16.541H58.3228V16.749ZM63.1457 16.645V20.44H63.3537V16.645H63.1457ZM63.2497 20.5441H63.4162V20.336H63.2497V20.5441ZM63.5185 20.4586C63.6055 19.9801 63.7578 19.5234 63.9752 19.0884L63.7892 18.9953C63.5628 19.448 63.4043 19.9235 63.3138 20.4214L63.5185 20.4586ZM63.976 19.0866C64.1931 18.6309 64.4748 18.2302 64.8214 17.8837L64.6741 17.7366C64.3104 18.1003 64.0152 18.5207 63.7884 18.9971L63.976 19.0866ZM64.8191 17.8859C65.1861 17.5404 65.6185 17.2699 66.1172 17.0748L66.0415 16.881C65.5192 17.0853 65.064 17.3696 64.6764 17.7344L64.8191 17.8859ZM66.1208 17.0733C66.6155 16.8582 67.2 16.749 67.877 16.749V16.541C67.1779 16.541 66.5641 16.6537 66.0379 16.8825L66.1208 17.0733ZM67.877 16.749H68.7425V16.541H67.877V16.749ZM68.6385 16.645V21.239H68.8466V16.645H68.6385ZM68.7425 21.135H67.5108V21.343H68.7425V21.135ZM67.5108 21.135C66.0627 21.135 64.9658 21.3237 64.2328 21.713L64.3306 21.8969C65.018 21.5315 66.0737 21.343 67.5108 21.343V21.135ZM64.2318 21.7138C63.5002 22.1149 63.1457 22.8567 63.1457 23.9022H63.3537C63.3537 22.906 63.6873 22.2496 64.3316 21.8961L64.2318 21.7138ZM63.1457 23.9022V34.1222H63.3537V23.9022H63.1457ZM63.2497 34.0182H58.3228V34.2263H63.2497V34.0182ZM83.7663 31.1927H83.8704V31.0887H83.7663V31.1927ZM83.5999 31.1927V31.0887H83.526L83.5017 31.1584L83.5999 31.1927ZM82.9674 32.4577L82.8806 32.4001L82.8796 32.4018L82.8785 32.4034L82.9674 32.4577ZM80.5705 34.2554L80.5386 34.1563L80.538 34.1566L80.5374 34.1568L80.5705 34.2554ZM74.6116 32.7573L74.5286 32.8202L74.5292 32.821L74.53 32.822L74.6116 32.7573ZM73.2465 16.645V16.541H73.1424V16.645H73.2465ZM78.1734 16.645H78.2774V16.541H78.1734V16.645ZM82.8009 29.8944L82.86 29.9799L82.8621 29.9785L82.8642 29.9768L82.8009 29.8944ZM83.7663 16.645V16.541H83.6623V16.645H83.7663ZM88.6932 16.645H88.7973V16.541H88.6932V16.645ZM88.6932 34.1222V34.2263H88.7973V34.1222H88.6932ZM83.7663 34.1222H83.6623V34.2263H83.7663V34.1222ZM83.7663 31.0887H83.5999V31.2967H83.7663V31.0887ZM83.5017 31.1584C83.3492 31.5939 83.1423 32.0077 82.8806 32.4001L83.0539 32.5154C83.3248 32.1088 83.5397 31.6794 83.6979 31.227L83.5017 31.1584ZM82.8785 32.4034C82.6413 32.7915 82.3284 33.1373 81.9381 33.4408L82.0656 33.6052C82.4743 33.2873 82.8049 32.923 83.056 32.512L82.8785 32.4034ZM81.9381 33.4408C81.5494 33.7431 81.0836 33.982 80.5386 34.1563L80.6021 34.3544C81.1668 34.1738 81.6553 33.9244 82.0656 33.6052L81.9381 33.4408ZM80.5374 34.1568C80.0179 34.3299 79.408 34.4177 78.7062 34.4177V34.6257C79.4247 34.6257 80.0576 34.5359 80.6034 34.354L80.5374 34.1568ZM78.7062 34.4177C76.9333 34.4177 75.6013 33.8391 74.6929 32.6926L74.53 32.822C75.4859 34.0282 76.8836 34.6257 78.7062 34.6257V34.4177ZM74.6944 32.6945C73.8033 31.5208 73.3505 29.8376 73.3505 27.6307H73.1424C73.1424 29.8624 73.5998 31.597 74.5286 32.8202L74.6944 32.6945ZM73.3505 27.6307V16.645H73.1424V27.6307H73.3505ZM73.2465 16.749H78.1734V16.541H73.2465V16.749ZM78.0694 16.645V27.1979H78.2774V16.645H78.0694ZM78.0694 27.1979C78.0694 28.2732 78.2595 29.1175 78.6524 29.7184L78.8265 29.6044C78.4647 29.0513 78.2774 28.2532 78.2774 27.1979H78.0694ZM78.6524 29.7184C79.0547 30.3338 79.7378 30.6309 80.6701 30.6309V30.4229C79.783 30.4229 79.1785 30.143 78.8265 29.6044L78.6524 29.7184ZM80.6701 30.6309C81.058 30.6309 81.445 30.5739 81.8315 30.4603L81.7727 30.2606C81.4046 30.369 81.0372 30.4229 80.6701 30.4229V30.6309ZM81.8315 30.4603C82.2181 30.3465 82.5614 30.1867 82.86 29.9799L82.7416 29.8089C82.4632 30.0016 82.1407 30.1524 81.7727 30.2606L81.8315 30.4603ZM82.8642 29.9768C83.1636 29.7467 83.4058 29.47 83.5903 29.147L83.4095 29.0438C83.2389 29.3424 83.0152 29.5983 82.7375 29.812L82.8642 29.9768ZM83.5903 29.147C83.7782 28.8181 83.8704 28.4334 83.8704 27.9969H83.6623C83.6623 28.4036 83.5766 28.7515 83.4095 29.0438L83.5903 29.147ZM83.8704 27.9969V16.645H83.6623V27.9969H83.8704ZM83.7663 16.749H88.6932V16.541H83.7663V16.749ZM88.5892 16.645V34.1222H88.7973V16.645H88.5892ZM88.6932 34.0182H83.7663V34.2263H88.6932V34.0182ZM83.8704 34.1222V31.1927H83.6623V34.1222H83.8704ZM94.9418 34.1222H94.8377V34.2263H94.9418V34.1222ZM94.9418 16.645V16.541H94.8377V16.645H94.9418ZM99.8687 16.645H99.9727V16.541H99.8687V16.645ZM99.8687 19.6078H99.7647V19.7118H99.8687V19.6078ZM100.068 19.6078V19.7118H100.143L100.167 19.6414L100.068 19.6078ZM108.99 18.0432L108.907 18.1061L108.908 18.1066L108.908 18.107L108.99 18.0432ZM110.388 34.1222V34.2263H110.492V34.1222H110.388ZM105.461 34.1222H105.357V34.2263H105.461V34.1222ZM104.929 21.0726L104.841 21.1287L104.842 21.1294L104.842 21.1302L104.929 21.0726ZM101.866 20.4068L101.89 20.508L101.893 20.5074L101.895 20.5066L101.866 20.4068ZM100.834 20.8728L100.774 20.7882L100.772 20.7892L100.771 20.7904L100.834 20.8728ZM100.135 21.7051L100.225 21.7567L100.226 21.7554L100.227 21.754L100.135 21.7051ZM99.8687 34.1222V34.2263H99.9727V34.1222H99.8687ZM95.0458 34.1222V16.645H94.8377V34.1222H95.0458ZM94.9418 16.749H99.8687V16.541H94.9418V16.749ZM99.7647 16.645V19.6078H99.9727V16.645H99.7647ZM99.8687 19.7118H100.068V19.5038H99.8687V19.7118ZM100.167 19.6414C100.471 18.7502 101.004 17.9777 101.767 17.3232L101.632 17.1652C100.842 17.8423 100.287 18.6455 99.97 19.5742L100.167 19.6414ZM101.767 17.3232C102.52 16.6784 103.569 16.3495 104.929 16.3495V16.1415C103.537 16.1415 102.433 16.4784 101.632 17.1652L101.767 17.3232ZM104.929 16.3495C106.701 16.3495 108.021 16.9387 108.907 18.1061L109.073 17.9802C108.139 16.7507 106.752 16.1415 104.929 16.1415V16.3495ZM108.908 18.107C109.821 19.2805 110.284 20.9633 110.284 23.1698H110.492C110.492 20.9377 110.024 19.2027 109.072 17.9793L108.908 18.107ZM110.284 23.1698V34.1222H110.492V23.1698H110.284ZM110.388 34.0182H105.461V34.2263H110.388V34.0182ZM105.565 34.1222V23.5693H105.357V34.1222H105.565ZM105.565 23.5693C105.565 22.4308 105.388 21.5734 105.015 21.0149L104.842 21.1302C105.18 21.637 105.357 22.4441 105.357 23.5693H105.565ZM105.016 21.0164C104.635 20.4211 103.962 20.1363 103.031 20.1363V20.3443C103.92 20.3443 104.512 20.6144 104.841 21.1287L105.016 21.0164ZM103.031 20.1363C102.622 20.1363 102.224 20.1931 101.837 20.3069L101.895 20.5066C102.263 20.3984 102.642 20.3443 103.031 20.3443V20.1363ZM101.842 20.3055C101.452 20.3973 101.095 20.5582 100.774 20.7882L100.895 20.9575C101.194 20.7435 101.526 20.5937 101.89 20.508L101.842 20.3055ZM100.771 20.7904C100.47 21.0216 100.227 21.3106 100.043 21.6562L100.227 21.754C100.398 21.4338 100.621 21.1678 100.898 20.9552L100.771 20.7904ZM100.045 21.6535C99.8566 21.9824 99.7647 22.3671 99.7647 22.8036H99.9727C99.9727 22.3969 100.058 22.049 100.225 21.7567L100.045 21.6535ZM99.7647 22.8036V34.1222H99.9727V22.8036H99.7647ZM99.8687 34.0182H94.9418V34.2263H99.8687V34.0182ZM116.437 34.1222H116.333V34.2263H116.437V34.1222ZM116.437 16.645V16.541H116.333V16.645H116.437ZM121.364 16.645H121.468V16.541H121.364V16.645ZM121.364 19.6078H121.26V19.7118H121.364V19.6078ZM121.564 19.6078V19.7118H121.639L121.663 19.6407L121.564 19.6078ZM123.162 17.2442L123.229 17.3234L123.23 17.3228L123.231 17.3222L123.162 17.2442ZM131.151 19.7742L131.052 19.8066L131.076 19.8783H131.151V19.7742ZM131.251 19.7742V19.8783H131.327L131.35 19.8058L131.251 19.7742ZM131.95 18.4094L131.867 18.3469L131.867 18.3473L131.867 18.3476L131.95 18.4094ZM134.714 16.5451L134.744 16.6445L134.746 16.644L134.747 16.6434L134.714 16.5451ZM140.439 18.0432L140.356 18.1051L140.356 18.1056L140.356 18.1061L140.439 18.0432ZM141.804 34.1222V34.2263H141.908V34.1222H141.804ZM136.877 34.1222H136.773V34.2263H136.877V34.1222ZM131.584 34.1222V34.2263H131.688V34.1222H131.584ZM126.657 34.1222H126.553V34.2263H126.657V34.1222ZM123.195 20.4068L123.222 20.5073L123.224 20.5067L123.226 20.506L123.195 20.4068ZM122.263 20.8728L122.2 20.7904L122.198 20.7916L122.196 20.7929L122.263 20.8728ZM121.597 21.7051L121.505 21.6562L121.505 21.6574L121.504 21.6585L121.597 21.7051ZM121.364 34.1222V34.2263H121.468V34.1222H121.364ZM116.541 34.1222V16.645H116.333V34.1222H116.541ZM116.437 16.749H121.364V16.541H116.437V16.749ZM121.26 16.645V19.6078H121.468V16.645H121.26ZM121.364 19.7118H121.564V19.5038H121.364V19.7118ZM121.663 19.6407C121.967 18.7267 122.489 17.9548 123.229 17.3234L123.094 17.1651C122.325 17.8208 121.782 18.6246 121.465 19.5749L121.663 19.6407ZM123.231 17.3222C123.961 16.6777 124.966 16.3495 126.258 16.3495V16.1415C124.931 16.1415 123.872 16.4791 123.093 17.1662L123.231 17.3222ZM126.258 16.3495C127.438 16.3495 128.437 16.6443 129.26 17.2291L129.381 17.0595C128.517 16.4459 127.474 16.1415 126.258 16.1415V16.3495ZM129.26 17.2291C130.082 17.8133 130.681 18.6699 131.052 19.8066L131.25 19.7419C130.867 18.5705 130.245 17.6738 129.381 17.0595L129.26 17.2291ZM131.151 19.8783H131.251V19.6702H131.151V19.8783ZM131.35 19.8058C131.502 19.3286 131.73 18.8838 132.034 18.4711L131.867 18.3476C131.549 18.7782 131.311 19.2434 131.152 19.7427L131.35 19.8058ZM132.033 18.4718C132.359 18.0374 132.75 17.6683 133.207 17.364L133.091 17.1909C132.615 17.5081 132.207 17.8935 131.867 18.3469L132.033 18.4718ZM133.207 17.364C133.664 17.0593 134.176 16.8194 134.744 16.6445L134.683 16.4457C134.097 16.626 133.566 16.8742 133.091 17.1909L133.207 17.364ZM134.747 16.6434C135.313 16.4478 135.922 16.3495 136.578 16.3495V16.1415C135.901 16.1415 135.268 16.2429 134.679 16.4468L134.747 16.6434ZM136.578 16.3495C138.236 16.3495 139.49 16.9369 140.356 18.1051L140.523 17.9812C139.613 16.7526 138.292 16.1415 136.578 16.1415V16.3495ZM140.356 18.1061C141.248 19.2796 141.7 20.9629 141.7 23.1698H141.908C141.908 20.9381 141.451 19.2036 140.522 17.9802L140.356 18.1061ZM141.7 23.1698V34.1222H141.908V23.1698H141.7ZM141.804 34.0182H136.877V34.2263H141.804V34.0182ZM136.981 34.1222V23.5693H136.773V34.1222H136.981ZM136.981 23.5693C136.981 22.4503 136.78 21.5923 136.362 21.0118C135.94 20.4249 135.306 20.1363 134.48 20.1363V20.3443C135.252 20.3443 135.817 20.6105 136.194 21.1333C136.575 21.6624 136.773 22.4691 136.773 23.5693H136.981ZM134.48 20.1363C133.726 20.1363 133.04 20.3537 132.423 20.7877L132.543 20.9579C133.125 20.5485 133.77 20.3443 134.48 20.3443V20.1363ZM132.423 20.7877C131.791 21.2326 131.48 21.9113 131.48 22.8036H131.688C131.688 21.9649 131.977 21.3563 132.543 20.9579L132.423 20.7877ZM131.48 22.8036V34.1222H131.688V22.8036H131.48ZM131.584 34.0182H126.657V34.2263H131.584V34.0182ZM126.761 34.1222V23.5693H126.553V34.1222H126.761ZM126.761 23.5693C126.761 22.4503 126.56 21.5923 126.142 21.0118C125.72 20.4249 125.086 20.1363 124.26 20.1363V20.3443C125.032 20.3443 125.597 20.6105 125.974 21.1333C126.355 21.6624 126.553 22.4691 126.553 23.5693H126.761ZM124.26 20.1363C123.894 20.1363 123.529 20.1935 123.164 20.3075L123.226 20.506C123.572 20.3981 123.916 20.3443 124.26 20.3443V20.1363ZM123.168 20.3062C122.821 20.3987 122.498 20.5605 122.2 20.7904L122.326 20.9552C122.605 20.7412 122.903 20.5923 123.222 20.5073L123.168 20.3062ZM122.196 20.7929C121.919 21.0241 121.689 21.3124 121.505 21.6562L121.689 21.754C121.861 21.4319 122.074 21.1653 122.33 20.9527L122.196 20.7929ZM121.504 21.6585C121.34 21.9864 121.26 22.3692 121.26 22.8036H121.468C121.468 22.3948 121.543 22.045 121.69 21.7517L121.504 21.6585ZM121.26 22.8036V34.1222H121.468V22.8036H121.26ZM121.364 34.0182H116.437V34.2263H121.364V34.0182ZM151.577 33.8892L151.536 33.9849L151.537 33.9853L151.538 33.9857L151.577 33.8892ZM148.913 32.0582L148.836 32.1273L148.837 32.1286L148.838 32.1296L148.913 32.0582ZM147.282 29.162L147.183 29.1932L147.183 29.1941L147.184 29.1949L147.282 29.162ZM147.282 21.6385L147.381 21.6701L147.381 21.6699V21.6697L147.282 21.6385ZM148.847 18.7423L148.769 18.6731L148.769 18.6738L148.768 18.6744L148.847 18.7423ZM151.443 16.9113L151.483 17.0075L151.484 17.0071L151.485 17.0067L151.443 16.9113ZM158.634 16.9779L158.589 17.0717L158.59 17.0719L158.59 17.0721L158.634 16.9779ZM161.164 18.942L161.082 19.0062L161.083 19.0068L161.083 19.0075L161.164 18.942ZM162.596 21.8049L162.495 21.8316L162.495 21.8328L162.496 21.8341L162.596 21.8049ZM163.062 26.632V26.736H163.166V26.632H163.062ZM151.843 26.632V26.5279H151.739V26.632H151.843ZM152.775 29.6614L152.698 29.7311L152.698 29.7317L152.699 29.7323L152.775 29.6614ZM158.201 30.0609L158.256 30.1493L158.257 30.1487L158.258 30.1478L158.201 30.0609ZM159.999 28.5628L160.08 28.4977L160.006 28.4055L159.924 28.4906L159.999 28.5628ZM162.462 31.6255L162.542 31.6931L162.598 31.6273L162.544 31.5604L162.462 31.6255ZM159.4 33.756L159.361 33.6595L159.361 33.6597H159.36L159.4 33.756ZM152.675 20.8728L152.596 20.8047V20.8049L152.675 20.8728ZM151.843 23.7358H151.739V23.8398H151.843V23.7358ZM157.968 23.7358V23.8398H158.072V23.7358H157.968ZM157.236 20.8728L157.151 20.9325L157.152 20.9342L157.153 20.9356L157.236 20.8728ZM155.139 34.4177C153.818 34.4177 152.644 34.2086 151.616 33.7927L151.538 33.9857C152.595 34.4131 153.796 34.6257 155.139 34.6257V34.4177ZM151.617 33.7935C150.587 33.3549 149.711 32.7526 148.989 31.9869L148.838 32.1296C149.581 32.9175 150.48 33.5357 151.536 33.9849L151.617 33.7935ZM148.991 31.9892C148.291 31.2019 147.754 30.2491 147.381 29.1291L147.184 29.1949C147.565 30.3386 148.115 31.3167 148.836 32.1273L148.991 31.9892ZM147.381 29.1308C147.03 28.0108 146.854 26.7564 146.854 25.367H146.645C146.645 26.7739 146.824 28.0495 147.183 29.1932L147.381 29.1308ZM146.854 25.367C146.854 23.9998 147.03 22.7678 147.381 21.6701L147.183 21.6069C146.824 22.7283 146.645 23.9821 146.645 25.367H146.854ZM147.381 21.6697C147.733 20.5496 148.248 19.5971 148.926 18.8101L148.768 18.6744C148.07 19.4853 147.542 20.4637 147.183 21.6073L147.381 21.6697ZM148.925 18.8114C149.624 18.0246 150.476 17.4233 151.483 17.0075L151.404 16.8152C150.369 17.2426 149.49 17.862 148.769 18.6731L148.925 18.8114ZM151.485 17.0067C152.491 16.5694 153.641 16.3495 154.939 16.3495V16.1415C153.618 16.1415 152.438 16.3654 151.402 16.8159L151.485 17.0067ZM154.939 16.3495C156.37 16.3495 157.586 16.5918 158.589 17.0717L158.679 16.884C157.641 16.3875 156.393 16.1415 154.939 16.1415V16.3495ZM158.59 17.0721C159.62 17.5542 160.45 18.1991 161.082 19.0062L161.246 18.8778C160.591 18.0425 159.734 17.3781 158.678 16.8837L158.59 17.0721ZM161.083 19.0075C161.739 19.8165 162.21 20.7574 162.495 21.8316L162.696 21.7783C162.404 20.6775 161.921 19.7098 161.245 18.8765L161.083 19.0075ZM162.496 21.8341C162.804 22.8894 162.958 24.0002 162.958 25.1672H163.166C163.166 23.9817 163.009 22.8511 162.695 21.7758L162.496 21.8341ZM162.958 25.1672V26.632H163.166V25.1672H162.958ZM163.062 26.5279H151.843V26.736H163.062V26.5279ZM151.739 26.632V26.8983H151.947V26.632H151.739ZM151.739 26.8983C151.739 28.0716 152.055 29.0197 152.698 29.7311L152.852 29.5917C152.252 28.9271 151.947 28.0331 151.947 26.8983H151.739ZM152.699 29.7323C153.348 30.4275 154.358 30.7641 155.705 30.7641V30.556C154.388 30.556 153.445 30.2269 152.851 29.5904L152.699 29.7323ZM155.705 30.7641C156.738 30.7641 157.591 30.5619 158.256 30.1493L158.147 29.9724C157.524 30.3588 156.713 30.556 155.705 30.556V30.7641ZM158.258 30.1478C158.909 29.7217 159.514 29.2174 160.074 28.635L159.924 28.4906C159.374 29.0624 158.781 29.5565 158.144 29.9739L158.258 30.1478ZM159.918 28.6279L162.381 31.6906L162.544 31.5604L160.08 28.4977L159.918 28.6279ZM162.383 31.5579C161.619 32.4534 160.613 33.1545 159.361 33.6595L159.439 33.8526C160.717 33.3366 161.752 32.6173 162.542 31.6931L162.383 31.5579ZM159.36 33.6597C158.132 34.1643 156.725 34.4177 155.139 34.4177V34.6257C156.748 34.6257 158.182 34.3688 159.439 33.8524L159.36 33.6597ZM155.039 19.7701C154.014 19.7701 153.196 20.1129 152.596 20.8047L152.754 20.9408C153.308 20.3011 154.066 19.9781 155.039 19.9781V19.7701ZM152.596 20.8049C152.021 21.4722 151.739 22.3642 151.739 23.4694H151.947C151.947 22.3998 152.219 21.5607 152.754 20.9406L152.596 20.8049ZM151.739 23.4694V23.7358H151.947V23.4694H151.739ZM151.843 23.8398H157.968V23.6317H151.843V23.8398ZM158.072 23.7358V23.4361H157.864V23.7358H158.072ZM158.072 23.4361C158.072 22.3555 157.825 21.4766 157.319 20.81L157.153 20.9356C157.624 21.5561 157.864 22.3863 157.864 23.4361H158.072ZM157.321 20.8131C156.831 20.1131 156.063 19.7701 155.039 19.7701V19.9781C156.012 19.9781 156.709 20.301 157.151 20.9325L157.321 20.8131ZM168.351 33.756L168.274 33.8262L168.275 33.828L168.277 33.8297L168.351 33.756ZM168.351 29.2619L168.275 29.1899V29.1901L168.351 29.2619ZM172.778 29.2619L172.701 29.332L172.703 29.3339L172.705 29.3355L172.778 29.2619ZM172.778 33.756L172.703 33.684V33.6843L172.778 33.756ZM170.581 34.3844C169.598 34.3844 168.886 34.1439 168.424 33.6824L168.277 33.8297C168.792 34.3446 169.567 34.5924 170.581 34.5924V34.3844ZM168.428 33.6859C167.981 33.197 167.755 32.5794 167.755 31.8252H167.547C167.547 32.6244 167.788 33.2941 168.274 33.8262L168.428 33.6859ZM167.755 31.8252V31.1594H167.547V31.8252H167.755ZM167.755 31.1594C167.755 30.405 167.981 29.7997 168.426 29.3337L168.275 29.1901C167.788 29.7007 167.547 30.3603 167.547 31.1594H167.755ZM168.426 29.3339C168.887 28.8512 169.599 28.6003 170.581 28.6003V28.3922C169.566 28.3922 168.79 28.6516 168.275 29.1899L168.426 29.3339ZM170.581 28.6003C171.564 28.6003 172.262 28.8514 172.701 29.332L172.855 29.1918C172.362 28.6516 171.596 28.3922 170.581 28.3922V28.6003ZM172.705 29.3355C173.171 29.8016 173.406 30.4064 173.406 31.1594H173.615C173.615 30.3588 173.362 29.6986 172.852 29.1882L172.705 29.3355ZM173.406 31.1594V31.8252H173.615V31.1594H173.406ZM173.406 31.8252C173.406 32.5782 173.171 33.1951 172.703 33.684L172.853 33.828C173.362 33.2962 173.615 32.6258 173.615 31.8252H173.406ZM172.703 33.6843C172.264 34.1439 171.565 34.3844 170.581 34.3844V34.5924C171.594 34.5924 172.36 34.3449 172.853 33.8278L172.703 33.6843ZM189.92 31.1927H190.024V31.0887H189.92V31.1927ZM189.754 31.1927V31.0887H189.675L189.653 31.1642L189.754 31.1927ZM189.121 32.5243L189.205 32.5853L189.206 32.5842L189.207 32.583L189.121 32.5243ZM188.056 33.5896L188.117 33.6739L188.117 33.6736L188.117 33.6734L188.056 33.5896ZM186.658 34.2554L186.628 34.1555L186.626 34.1563L186.623 34.1572L186.658 34.2554ZM180.033 32.1914L179.948 32.2522L179.949 32.2524L179.949 32.2526L180.033 32.1914ZM188.056 17.1776L187.995 17.2621L187.996 17.2625L187.996 17.2628L188.056 17.1776ZM189.754 19.5745L189.653 19.5997L189.672 19.6785H189.754V19.5745ZM189.92 19.5745V19.6785H190.024V19.5745H189.92ZM189.92 9.48764V9.38361H189.816V9.48764H189.92ZM194.847 9.48764H194.951V9.38361H194.847V9.48764ZM194.847 34.1222V34.2263H194.951V34.1222H194.847ZM189.92 34.1222H189.816V34.2263H189.92V34.1222ZM188.988 29.8611L189.05 29.9447L189.05 29.9445L189.05 29.9443L188.988 29.8611ZM188.988 20.9394L188.924 21.0216L188.926 21.0228L188.927 21.0241L188.988 20.9394ZM184.361 29.5615L184.283 29.631L184.284 29.6324L184.286 29.6337L184.361 29.5615ZM189.92 31.0887H189.754V31.2967H189.92V31.0887ZM189.653 31.1642C189.524 31.6188 189.318 32.0526 189.035 32.4656L189.207 32.583C189.501 32.1527 189.717 31.6987 189.854 31.2212L189.653 31.1642ZM189.037 32.4633C188.755 32.8537 188.408 33.2011 187.994 33.5057L188.117 33.6734C188.547 33.3566 188.91 32.9939 189.205 32.5853L189.037 32.4633ZM187.995 33.5053C187.606 33.786 187.151 34.003 186.628 34.1555L186.687 34.3553C187.229 34.1969 187.706 33.9701 188.117 33.6739L187.995 33.5053ZM186.623 34.1572C186.124 34.3307 185.603 34.4177 185.06 34.4177V34.6257C185.626 34.6257 186.17 34.535 186.692 34.3536L186.623 34.1572ZM185.06 34.4177C182.868 34.4177 181.226 33.6524 180.117 32.1302L179.949 32.2526C181.103 33.8376 182.813 34.6257 185.06 34.6257V34.4177ZM180.117 32.1307C179.003 30.5798 178.439 28.33 178.439 25.367H178.231C178.231 28.3518 178.799 30.6515 179.948 32.2522L180.117 32.1307ZM178.439 25.367C178.439 22.4037 179.003 20.1655 180.117 18.6371L179.949 18.5146C178.799 20.0932 178.231 22.3823 178.231 25.367H178.439ZM180.117 18.6371C181.226 17.1148 182.868 16.3495 185.06 16.3495V16.1415C182.813 16.1415 181.103 16.9297 179.949 18.5146L180.117 18.6371ZM185.06 16.3495C186.171 16.3495 187.148 16.6542 187.995 17.2621L188.116 17.0931C187.232 16.4582 186.212 16.1415 185.06 16.1415V16.3495ZM187.996 17.2628C188.865 17.8711 189.415 18.6495 189.653 19.5997L189.854 19.5493C189.604 18.5465 189.022 17.727 188.115 17.0924L187.996 17.2628ZM189.754 19.6785H189.92V19.4705H189.754V19.6785ZM190.024 19.5745V9.48764H189.816V19.5745H190.024ZM189.92 9.59167H194.847V9.38361H189.92V9.59167ZM194.743 9.48764V34.1222H194.951V9.48764H194.743ZM194.847 34.0182H189.92V34.2263H194.847V34.0182ZM190.024 34.1222V31.1927H189.816V34.1222H190.024ZM186.691 30.6309C187.64 30.6309 188.429 30.4048 189.05 29.9447L188.926 29.7775C188.349 30.205 187.606 30.4229 186.691 30.4229V30.6309ZM189.05 29.9443C189.699 29.4579 190.024 28.7942 190.024 27.9636H189.816C189.816 28.7309 189.52 29.3322 188.925 29.7779L189.05 29.9443ZM190.024 27.9636V22.8036H189.816V27.9636H190.024ZM190.024 22.8036C190.024 21.9728 189.698 21.3191 189.048 20.8547L188.927 21.0241C189.52 21.4473 189.816 22.0365 189.816 22.8036H190.024ZM189.052 20.8572C188.43 20.374 187.641 20.1363 186.691 20.1363V20.3443C187.605 20.3443 188.347 20.5726 188.924 21.0216L189.052 20.8572ZM186.691 20.1363C185.731 20.1363 184.926 20.4806 184.284 21.1681L184.436 21.31C185.038 20.6658 185.787 20.3443 186.691 20.3443V20.1363ZM184.284 21.1681C183.663 21.8357 183.358 22.7402 183.358 23.8689H183.566C183.566 22.7785 183.86 21.9296 184.437 21.31L184.284 21.1681ZM183.358 23.8689V26.8983H183.566V23.8689H183.358ZM183.358 26.8983C183.358 28.0272 183.663 28.9419 184.283 29.631L184.438 29.492C183.86 28.8495 183.566 27.9888 183.566 26.8983H183.358ZM184.286 29.6337C184.928 30.2987 185.732 30.6309 186.691 30.6309V30.4229C185.786 30.4229 185.036 30.1116 184.435 29.4893L184.286 29.6337ZM204.847 33.8892L204.806 33.9849L204.807 33.9853L204.808 33.9857L204.847 33.8892ZM202.184 32.0582L202.106 32.1273L202.107 32.1286L202.108 32.1296L202.184 32.0582ZM200.553 29.162L200.453 29.1932L200.454 29.1941L200.454 29.1949L200.553 29.162ZM200.553 21.6385L200.652 21.6701V21.6699L200.652 21.6697L200.553 21.6385ZM202.117 18.7423L202.04 18.6731L202.039 18.6738L202.039 18.6744L202.117 18.7423ZM204.714 16.9113L204.754 17.0075L204.755 17.0071L204.755 17.0067L204.714 16.9113ZM211.904 16.9779L211.86 17.0717V17.0719V17.0721L211.904 16.9779ZM214.434 18.942L214.353 19.0062V19.0068V19.0075L214.434 18.942ZM215.866 21.8049L215.766 21.8316V21.8328V21.8341L215.866 21.8049ZM216.332 26.632V26.736H216.436V26.632H216.332ZM205.113 26.632V26.5279H205.009V26.632H205.113ZM206.046 29.6614L205.968 29.7311L205.969 29.7317L205.969 29.7323L206.046 29.6614ZM211.471 30.0609L211.527 30.1493V30.1487L211.53 30.1478L211.471 30.0609ZM213.269 28.5628L213.35 28.4977L213.277 28.4055L213.194 28.4906L213.269 28.5628ZM215.732 31.6255L215.811 31.6931L215.868 31.6273L215.814 31.5604L215.732 31.6255ZM212.67 33.756L212.632 33.6595L212.63 33.6597L212.67 33.756ZM205.946 20.8728L205.867 20.8047L205.867 20.8049L205.946 20.8728ZM205.113 23.7358H205.009V23.8398H205.113V23.7358ZM211.238 23.7358V23.8398H211.342V23.7358H211.238ZM210.506 20.8728L210.421 20.9325L210.423 20.9342V20.9356L210.506 20.8728ZM208.409 34.4177C207.088 34.4177 205.915 34.2086 204.886 33.7927L204.808 33.9857C205.866 34.4131 207.067 34.6257 208.409 34.6257V34.4177ZM204.888 33.7935C203.857 33.3549 202.982 32.7526 202.26 31.9869L202.108 32.1296C202.851 32.9175 203.751 33.5357 204.806 33.9849L204.888 33.7935ZM202.262 31.9892C201.562 31.2019 201.025 30.2491 200.651 29.1291L200.454 29.1949C200.835 30.3386 201.386 31.3167 202.106 32.1273L202.262 31.9892ZM200.652 29.1308C200.301 28.0108 200.124 26.7564 200.124 25.367H199.916C199.916 26.7739 200.095 28.0495 200.453 29.1932L200.652 29.1308ZM200.124 25.367C200.124 23.9998 200.3 22.7678 200.652 21.6701L200.454 21.6069C200.095 22.7283 199.916 23.9821 199.916 25.367H200.124ZM200.652 21.6697C201.003 20.5496 201.518 19.5971 202.196 18.8101L202.039 18.6744C201.34 19.4853 200.812 20.4637 200.453 21.6073L200.652 21.6697ZM202.195 18.8114C202.895 18.0246 203.747 17.4233 204.754 17.0075L204.674 16.8152C203.639 17.2426 202.761 17.862 202.04 18.6731L202.195 18.8114ZM204.755 17.0067C205.761 16.5694 206.912 16.3495 208.209 16.3495V16.1415C206.888 16.1415 205.709 16.3654 204.672 16.8159L204.755 17.0067ZM208.209 16.3495C209.64 16.3495 210.855 16.5918 211.86 17.0717L211.95 16.884C210.912 16.3875 209.663 16.1415 208.209 16.1415V16.3495ZM211.86 17.0721C212.89 17.5542 213.72 18.1991 214.353 19.0062L214.517 18.8778C213.862 18.0425 213.005 17.3781 211.948 16.8837L211.86 17.0721ZM214.353 19.0075C215.01 19.8165 215.481 20.7574 215.766 21.8316L215.968 21.7783C215.674 20.6775 215.191 19.7098 214.515 18.8765L214.353 19.0075ZM215.766 21.8341C216.074 22.8894 216.228 24.0002 216.228 25.1672H216.436C216.436 23.9817 216.28 22.8511 215.965 21.7758L215.766 21.8341ZM216.228 25.1672V26.632H216.436V25.1672H216.228ZM216.332 26.5279H205.113V26.736H216.332V26.5279ZM205.009 26.632V26.8983H205.217V26.632H205.009ZM205.009 26.8983C205.009 28.0716 205.326 29.0197 205.968 29.7311L206.123 29.5917C205.523 28.9271 205.217 28.0331 205.217 26.8983H205.009ZM205.969 29.7323C206.618 30.4275 207.628 30.7641 208.975 30.7641V30.556C207.659 30.556 206.716 30.2269 206.122 29.5904L205.969 29.7323ZM208.975 30.7641C210.009 30.7641 210.862 30.5619 211.527 30.1493L211.417 29.9724C210.795 30.3588 209.984 30.556 208.975 30.556V30.7641ZM211.53 30.1478C212.179 29.7217 212.784 29.2174 213.344 28.635L213.194 28.4906C212.645 29.0624 212.052 29.5565 211.415 29.9739L211.53 30.1478ZM213.188 28.6279L215.651 31.6906L215.814 31.5604L213.35 28.4977L213.188 28.6279ZM215.653 31.5579C214.89 32.4534 213.883 33.1545 212.632 33.6595L212.709 33.8526C213.987 33.3366 215.023 32.6173 215.811 31.6931L215.653 31.5579ZM212.63 33.6597C211.403 34.1643 209.996 34.4177 208.409 34.4177V34.6257C210.019 34.6257 211.453 34.3688 212.709 33.8524L212.63 33.6597ZM208.309 19.7701C207.285 19.7701 206.467 20.1129 205.867 20.8047L206.024 20.9408C206.579 20.3011 207.336 19.9781 208.309 19.9781V19.7701ZM205.867 20.8049C205.292 21.4722 205.009 22.3642 205.009 23.4694H205.217C205.217 22.3998 205.49 21.5607 206.024 20.9406L205.867 20.8049ZM205.009 23.4694V23.7358H205.217V23.4694H205.009ZM205.113 23.8398H211.238V23.6317H205.113V23.8398ZM211.342 23.7358V23.4361H211.134V23.7358H211.342ZM211.342 23.4361C211.342 22.3555 211.095 21.4766 210.589 20.81L210.423 20.9356C210.895 21.5561 211.134 22.3863 211.134 23.4361H211.342ZM210.591 20.8131C210.102 20.1131 209.332 19.7701 208.309 19.7701V19.9781C209.282 19.9781 209.979 20.301 210.421 20.9325L210.591 20.8131ZM224.879 34.1222L224.781 34.1547L224.804 34.2263H224.879V34.1222ZM219.153 16.645V16.541H219.009L219.055 16.6774L219.153 16.645ZM224.013 16.645L224.113 16.6145L224.09 16.541H224.013V16.645ZM226.177 23.7025L226.279 23.6765V23.6742L226.277 23.6719L226.177 23.7025ZM227.808 30.0276L227.708 30.0536L227.729 30.1316H227.808V30.0276ZM228.075 30.0276V30.1316H228.156L228.177 30.0536L228.075 30.0276ZM229.706 23.7025L229.606 23.6729V23.6746V23.6765L229.706 23.7025ZM231.803 16.645V16.541H231.726L231.703 16.6154L231.803 16.645ZM236.464 16.645L236.564 16.6774L236.607 16.541H236.464V16.645ZM230.738 34.1222V34.2263H230.815L230.838 34.1547L230.738 34.1222ZM224.979 34.0898L219.253 16.6126L219.055 16.6774L224.781 34.1547L224.979 34.0898ZM219.153 16.749H224.013V16.541H219.153V16.749ZM223.915 16.6755L226.079 23.733L226.277 23.6719L224.113 16.6145L223.915 16.6755ZM226.077 23.7285L227.708 30.0536L227.91 30.0016L226.279 23.6765L226.077 23.7285ZM227.808 30.1316H228.075V29.9235H227.808V30.1316ZM228.177 30.0536L229.808 23.7285L229.606 23.6765L227.975 30.0016L228.177 30.0536ZM229.806 23.732L231.903 16.6746L231.703 16.6154L229.606 23.6729L229.806 23.732ZM231.803 16.749H236.464V16.541H231.803V16.749ZM236.366 16.6126L230.64 34.0898L230.838 34.1547L236.564 16.6774L236.366 16.6126ZM230.738 34.0182H224.879V34.2263H230.738V34.0182Z" fill="white"/>
</g>
<defs>
<clipPath id="clip0_3518_23141">
<rect width="249.925" height="48" fill="white" transform="translate(0.0371094)"/>
</clipPath>
</defs>
</svg>
