<svg width="24" height="24" viewBox="0 0 24 24" fill="none" xmlns="http://www.w3.org/2000/svg">
<path d="M5.76884 3.87101C8.29094 5.77092 11.0042 9.62264 12 11.6896V17.149C12 17.0329 11.9553 17.1642 11.8591 17.4471C11.3393 18.9788 9.30912 24.957 4.66678 20.1778C2.22237 17.6616 3.354 15.1453 7.8035 14.3856C5.25803 14.8201 2.39631 14.102 1.61119 11.2867C1.385 10.4769 1 5.48836 1 4.81461C1 1.43967 3.94903 2.50048 5.76884 3.87101ZM18.2312 3.87101C15.7091 5.77092 12.9958 9.62264 12 11.6896V17.149C12 17.0329 12.0447 17.1642 12.1409 17.4471C12.6607 18.9788 14.6909 24.957 19.3332 20.1778C21.7776 17.6616 20.646 15.1453 16.1965 14.3856C18.742 14.8201 21.6037 14.102 22.3888 11.2867C22.615 10.4769 23 5.48836 23 4.81461C23 1.43967 20.0513 2.50048 18.2312 3.87101Z" fill="white"/>
</svg>
