<svg width="24" height="24" viewBox="0 0 24 24" fill="none" xmlns="http://www.w3.org/2000/svg">
<path d="M19.6361 5.6762C18.1907 5.01445 16.6648 4.54498 15.0974 4.27979C14.8829 4.66322 14.6888 5.05772 14.516 5.46163C12.8463 5.21004 11.1484 5.21004 9.47883 5.46163C9.30589 5.05776 9.11182 4.66326 8.89742 4.27979C7.32898 4.54722 5.80206 5.0178 4.35518 5.67966C1.48276 9.92946 0.704089 14.0737 1.09342 18.1591C2.77559 19.402 4.65841 20.3472 6.66004 20.9537C7.11075 20.3475 7.50957 19.7044 7.85227 19.0312C7.20136 18.7881 6.57312 18.4882 5.97481 18.1349C6.13228 18.0207 6.28628 17.903 6.43509 17.7888C8.17602 18.6075 10.0762 19.032 12 19.032C13.9238 19.032 15.8239 18.6075 17.5649 17.7888C17.7154 17.9117 17.8694 18.0294 18.0252 18.1349C17.4257 18.4888 16.7963 18.7893 16.1442 19.033C16.4865 19.7058 16.8854 20.3484 17.3365 20.9537C19.3398 20.3496 21.2241 19.4049 22.9065 18.1609C23.3634 13.4231 22.1261 9.31691 19.6361 5.6762ZM8.34543 15.6466C7.26048 15.6466 6.36415 14.662 6.36415 13.4508C6.36415 12.2395 7.22934 11.2463 8.34197 11.2463C9.4546 11.2463 10.344 12.2395 10.325 13.4508C10.3059 14.662 9.45114 15.6466 8.34543 15.6466ZM15.6545 15.6466C14.5679 15.6466 13.675 14.662 13.675 13.4508C13.675 12.2395 14.5402 11.2463 15.6545 11.2463C16.7689 11.2463 17.6514 12.2395 17.6324 13.4508C17.6133 14.662 16.7602 15.6466 15.6545 15.6466Z" fill="white"/>
</svg>
