<svg width="24" height="24" viewBox="0 0 24 24" fill="none" xmlns="http://www.w3.org/2000/svg">
<path d="M22.3057 18.8638C21.8379 19.3671 21.1705 19.6831 20.4307 19.6831H3.5606C2.82089 19.683 2.15338 19.3672 1.6856 18.8638L9.13482 12.0366C10.4824 12.9186 10.9663 13.3599 11.9962 13.3599C13.0258 13.3598 13.5099 12.9186 14.8575 12.0366L22.3057 18.8638ZM7.75103 11.1313L1.00885 17.311C0.997412 17.1565 1.00103 17.8136 1.00103 7.43701C1.00103 7.20675 1.03163 6.98341 1.08892 6.771L7.75103 11.1313ZM22.9024 6.771C23.0495 7.31959 22.9876 17.2156 22.9835 17.311L16.2403 11.1313L22.9024 6.771ZM20.4307 4.87646C21.0315 4.87646 21.5844 5.08536 22.0215 5.43311L12.6622 11.5591C12.2578 11.8238 11.7346 11.8237 11.3301 11.5591L1.97076 5.43311C2.40792 5.08547 2.96003 4.87654 3.5606 4.87646H20.4307Z" fill="white"/>
</svg>
