<svg width="24" height="24" viewBox="0 0 24 24" fill="none" xmlns="http://www.w3.org/2000/svg">
<path d="M3.44434 1.29232C3.4917 1.38333 8.18075 10.093 10.4857 14.3861C10.549 14.51 10.5823 14.6468 10.5828 14.7857C10.5886 17.5402 10.5869 23.2046 10.5869 23.2798H13.3361C13.3361 23.1807 13.3341 17.6474 13.341 14.9669C13.343 14.8078 13.3827 14.6514 13.457 14.5103C15.7541 10.2281 20.4828 1.43551 20.5554 1.29839C20.4889 1.29111 18.5768 1.28585 17.6589 1.27979C17.5303 1.27979 17.4845 1.34248 17.4355 1.43955C16.9925 2.31768 16.5413 3.19216 16.1 4.0715C14.7644 6.73256 12.0691 12.098 12.0438 12.1315C12.0062 12.0571 8.49148 4.93182 6.77126 1.42418C6.71246 1.30284 6.63733 1.28059 6.51729 1.281C5.55857 1.28464 3.53457 1.28787 3.44434 1.29232Z" fill="white"/>
</svg>
