<svg width="24" height="24" viewBox="0 0 24 24" fill="none" xmlns="http://www.w3.org/2000/svg">
<path d="M21.376 1.27979H2.62403C1.72722 1.27979 1 2.00701 1 2.90381V21.6558C1 22.5526 1.72722 23.2798 2.62403 23.2798H21.376C22.2728 23.2798 23 22.5526 23 21.6558V2.90381C23 2.00701 22.2728 1.27979 21.376 1.27979ZM7.55722 20.0226H4.24958V9.51451H7.55722V20.0226ZM5.90417 8.06006C4.85153 8.06006 3.9975 7.25798 3.9975 6.16104C3.9975 5.06409 4.85153 4.26201 5.90417 4.26201C6.95681 4.26201 7.81083 5.06409 7.81083 6.16104C7.81083 7.25798 6.95681 8.06006 5.90417 8.06006ZM19.7504 20.0302H16.4428V14.2919C16.4428 12.5991 15.7232 12.0766 14.7943 12.0766C13.8135 12.0766 12.851 12.8145 12.851 14.3346V20.0317H9.54333V9.52215H12.7242V10.9781H12.7669C13.0862 10.3319 14.2046 9.22728 15.9111 9.22728C17.7567 9.22728 19.7504 10.3227 19.7504 13.531V20.0302Z" fill="white"/>
</svg>
