<svg width="24" height="24" viewBox="0 0 24 24" fill="none" xmlns="http://www.w3.org/2000/svg">
<path d="M11.7103 1.27979C15.3258 1.2798 16.8869 1.50196 17.2992 1.56299C19.7413 1.92393 21.8013 3.78635 22.1195 6.1499C22.2925 7.90571 22.143 10.7638 22.142 11.2329C22.142 11.3709 22.1216 12.6312 22.1137 12.7642C21.8995 16.1416 19.7936 17.4759 17.5805 17.9009C17.5506 17.9098 17.5157 17.9154 17.4808 17.9224C16.0777 18.1963 14.574 18.2691 13.1478 18.3091C12.807 18.3181 12.4672 18.3179 12.1264 18.3179C10.7084 18.3183 9.29479 18.1514 7.91639 17.8188C7.90909 17.817 7.90128 17.8163 7.89393 17.8179C7.88673 17.8195 7.88013 17.823 7.8744 17.8276C7.86861 17.8323 7.86376 17.8384 7.86073 17.8452C7.85766 17.8521 7.8564 17.8601 7.85682 17.8677C7.89582 18.3163 7.99337 18.7578 8.14686 19.1812C8.33789 19.6711 9.00465 20.8481 11.4847 20.8481C12.9259 20.8508 14.3624 20.6829 15.764 20.3481C15.771 20.3465 15.7785 20.3466 15.7855 20.3481C15.7925 20.3497 15.7994 20.3526 15.8051 20.3569C15.8108 20.3614 15.8155 20.368 15.8187 20.3745C15.8219 20.381 15.8245 20.3878 15.8246 20.395V22.0532C15.8243 22.061 15.8224 22.0688 15.8187 22.0757C15.8151 22.0826 15.8094 22.0886 15.8031 22.0933C15.3451 22.4251 14.7218 22.6138 14.1898 22.7827C13.9552 22.8567 13.7175 22.922 13.4769 22.978C11.2891 23.4763 9.00544 23.3561 6.88221 22.6304C4.89908 21.9344 2.87541 20.228 2.37537 18.1782C2.10834 17.0684 1.91975 15.9406 1.8119 14.8042C1.65592 13.0935 1.64257 11.3783 1.57557 9.66064C1.52859 8.46286 1.55598 7.15677 1.80897 5.979C2.33513 3.58747 4.5033 1.91401 6.87733 1.56299C7.28937 1.50199 8.06566 1.27979 11.683 1.27979H11.7103ZM15.2055 4.87939C14.0163 4.87939 13.116 5.33752 12.516 6.25244L11.9359 7.22412L11.3568 6.25244C10.7567 5.33752 9.85653 4.87939 8.66541 4.87939C7.6364 4.87942 6.80719 5.24186 6.17518 5.94678C5.56263 6.65336 5.25623 7.60645 5.25623 8.80615V14.6782H7.58241V8.979C7.58242 7.77914 8.08791 7.16748 9.09901 7.16748C10.2168 7.16765 10.7777 7.89123 10.7777 9.3208V12.4409H13.0912V9.3208C13.0913 7.89113 13.651 7.16755 14.7689 7.16748C15.786 7.16748 16.2865 7.77914 16.2865 8.979V14.6782H18.6137V8.80615C18.6143 7.60583 18.3085 6.65269 17.6967 5.94678C17.0627 5.2419 16.2334 4.87947 15.2055 4.87939Z" fill="white"/>
</svg>
