<svg width="24" height="24" viewBox="0 0 24 24" fill="none" xmlns="http://www.w3.org/2000/svg">
<path d="M14.797 5.14947C15.0353 6.17857 15.9426 6.9452 17.026 6.9452C18.2908 6.9452 19.3162 5.90079 19.3162 4.61249C19.3162 3.3242 18.2908 2.27979 17.026 2.27979C15.9201 2.27979 14.9978 3.07813 14.783 4.14005C12.9309 4.34237 11.4846 5.94234 11.4846 7.88135C11.4846 7.88572 11.4846 7.889 11.4846 7.89338C9.47038 7.97977 7.63114 8.56377 6.17091 9.4857C5.6287 9.05809 4.94797 8.80328 4.20927 8.80328C2.4366 8.80328 1 10.2666 1 12.0721C1 13.3823 1.75588 14.5109 2.84783 15.0326C2.95412 18.8275 7.01376 21.8798 12.0075 21.8798C17.0013 21.8798 21.0663 18.8242 21.1672 15.026C22.2506 14.5011 23 13.3757 23 12.0732C23 10.2676 21.5634 8.80437 19.7907 8.80437C19.0552 8.80437 18.3777 9.057 17.8366 9.48133C16.3635 8.55284 14.5039 7.96884 12.4692 7.89119C12.4692 7.88791 12.4692 7.88572 12.4692 7.88244C12.4692 6.49353 13.4828 5.34085 14.797 5.15165V5.14947ZM6.04207 14.1467C6.09575 12.9613 6.86881 12.0514 7.7675 12.0514C8.66618 12.0514 9.35334 13.0127 9.29966 14.1981C9.24597 15.3836 8.57491 15.8145 7.67516 15.8145C6.7754 15.8145 5.98838 15.3322 6.04207 14.1467ZM16.2486 12.0514C17.1484 12.0514 17.9214 12.9613 17.974 14.1467C18.0277 15.3322 17.2396 15.8145 16.3409 15.8145C15.4423 15.8145 14.7701 15.3847 14.7164 14.1981C14.6628 13.0127 15.3489 12.0514 16.2486 12.0514ZM15.1792 16.8896C15.3478 16.9071 15.4551 17.0853 15.3897 17.245C14.8367 18.5912 13.5311 19.5372 12.0075 19.5372C10.4839 19.5372 9.1794 18.5912 8.62538 17.245C8.55988 17.0853 8.66725 16.9071 8.83582 16.8896C9.82362 16.7879 10.8919 16.7321 12.0075 16.7321C13.1231 16.7321 14.1903 16.7879 15.1792 16.8896Z" fill="white"/>
</svg>
