<svg xmlns="http://www.w3.org/2000/svg" width="68" height="68" fill="none"><path fill="#fff" d="M0 0h68v68H0z"/><path fill="#F78100" d="m44.23 45.95.276-.991c.341-1.178.215-2.267-.358-3.068a3.12 3.12 0 0 0-2.476-1.219l-20.18-.258a.41.41 0 0 1-.32-.168.42.42 0 0 1-.04-.366.55.55 0 0 1 .467-.358l20.36-.258c2.415-.11 5.031-2.072 5.947-4.463l1.161-3.026a.7.7 0 0 0 .044-.259.7.7 0 0 0-.013-.143 13.264 13.264 0 0 0-25.504-1.375 5.969 5.969 0 0 0-9.36 6.256 8.482 8.482 0 0 0-8.146 9.706.396.396 0 0 0 .418.35h37.265a.49.49 0 0 0 .46-.36"/><path fill="#FCAD32" d="M50.955 32.003h-.55a.4.4 0 0 0-.086.02.31.31 0 0 0-.203.214l-.795 2.752c-.342 1.177-.212 2.267.36 3.064a3.11 3.11 0 0 0 2.476 1.222l4.3.258a.4.4 0 0 1 .308.166.41.41 0 0 1 .044.368.55.55 0 0 1-.467.358l-4.468.259c-2.427.11-5.043 2.068-5.96 4.46l-.321.844a.24.24 0 0 0 .211.325h15.39a.41.41 0 0 0 .4-.295 11.046 11.046 0 0 0-10.64-14.015"/></svg>