<svg width="68" height="68" viewBox="0 0 68 68" fill="none" xmlns="http://www.w3.org/2000/svg">
<rect width="68" height="68" fill="white"/>
<path d="M34 17C30.6377 17 27.3509 17.997 24.5553 19.865C21.7597 21.733 19.5807 24.388 18.2941 27.4944C17.0074 30.6007 16.6707 34.0189 17.3267 37.3165C17.9826 40.6142 19.6017 43.6433 21.9792 46.0208C24.3567 48.3983 27.3858 50.0174 30.6835 50.6734C33.9811 51.3293 37.3993 50.9926 40.5056 49.706C43.612 48.4193 46.267 46.2403 48.135 43.4447C50.003 40.6491 51 37.3623 51 34C51 29.4913 49.2089 25.1673 46.0208 21.9792C42.8327 18.7911 38.5087 17 34 17ZM34 46.4667C31.5343 46.4667 29.124 45.7355 27.0739 44.3657C25.0238 42.9958 23.4259 41.0488 22.4823 38.7708C21.5387 36.4928 21.2919 33.9862 21.7729 31.5679C22.2539 29.1496 23.4412 26.9282 25.1847 25.1847C26.9282 23.4412 29.1496 22.2539 31.5679 21.7729C33.9862 21.2918 36.4928 21.5387 38.7708 22.4823C41.0488 23.4259 42.9958 25.0238 44.3657 27.0739C45.7355 29.124 46.4667 31.5343 46.4667 34C46.4667 37.3064 45.1532 40.4773 42.8153 42.8153C40.4773 45.1532 37.3064 46.4667 34 46.4667ZM41.7067 29.8067C41.7067 30.5015 41.5006 31.1808 41.1146 31.7586C40.7285 32.3363 40.1798 32.7866 39.5378 33.0526C38.8959 33.3185 38.1894 33.3881 37.5079 33.2525C36.8264 33.1169 36.2004 32.7823 35.709 32.291C35.2177 31.7996 34.8831 31.1736 34.7475 30.4921C34.612 29.8106 34.6815 29.1042 34.9474 28.4622C35.2134 27.8202 35.6637 27.2715 36.2414 26.8854C36.8192 26.4994 37.4985 26.2933 38.1933 26.2933C39.1233 26.2993 40.0135 26.6713 40.6711 27.3289C41.3287 27.9865 41.7007 28.8767 41.7067 29.8067ZM41.7067 38.1933C41.7067 38.8882 41.5006 39.5675 41.1146 40.1452C40.7285 40.723 40.1798 41.1733 39.5378 41.4392C38.8959 41.7051 38.1894 41.7747 37.5079 41.6392C36.8264 41.5036 36.2004 41.169 35.709 40.6776C35.2177 40.1863 34.8831 39.5603 34.7475 38.8787C34.612 38.1972 34.6815 37.4908 34.9474 36.8488C35.2134 36.2069 35.6637 35.6582 36.2414 35.2721C36.8192 34.8861 37.4985 34.68 38.1933 34.68C39.1233 34.6859 40.0135 35.058 40.6711 35.7156C41.3287 36.3732 41.7007 37.2634 41.7067 38.1933ZM33.32 38.1933C33.32 38.8882 33.114 39.5675 32.7279 40.1452C32.3419 40.723 31.7931 41.1733 31.1512 41.4392C30.5092 41.7051 29.8028 41.7747 29.1213 41.6392C28.4397 41.5036 27.8137 41.169 27.3224 40.6776C26.831 40.1863 26.4964 39.5603 26.3608 38.8787C26.2253 38.1972 26.2949 37.4908 26.5608 36.8488C26.8267 36.2069 27.277 35.6582 27.8548 35.2721C28.4325 34.8861 29.1118 34.68 29.8067 34.68C30.7366 34.6859 31.6268 35.058 32.2844 35.7156C32.942 36.3732 33.3141 37.2634 33.32 38.1933ZM33.32 29.8067C33.32 30.5015 33.114 31.1808 32.7279 31.7586C32.3419 32.3363 31.7931 32.7866 31.1512 33.0526C30.5092 33.3185 29.8028 33.3881 29.1213 33.2525C28.4397 33.1169 27.8137 32.7823 27.3224 32.291C26.831 31.7996 26.4964 31.1736 26.3608 30.4921C26.2253 29.8106 26.2949 29.1042 26.5608 28.4622C26.8267 27.8202 27.277 27.2715 27.8548 26.8854C28.4325 26.4994 29.1118 26.2933 29.8067 26.2933C30.7366 26.2993 31.6268 26.6713 32.2844 27.3289C32.942 27.9865 33.3141 28.8767 33.32 29.8067Z" fill="#F22F46"/>
</svg>
