<svg xmlns="http://www.w3.org/2000/svg" width="68" height="68" fill="none"><path fill="#fff" d="M0 0h68v68H0z"/><path fill="#F22F46" d="M34 17a17 17 0 1 0 0 34 17 17 0 0 0 0-34m0 29.467a12.467 12.467 0 1 1 0-24.934 12.467 12.467 0 0 1 0 24.934m7.707-16.66a3.514 3.514 0 1 1-3.514-3.514 3.536 3.536 0 0 1 3.514 3.514m0 8.386a3.513 3.513 0 1 1-3.514-3.513 3.536 3.536 0 0 1 3.514 3.513m-8.387 0a3.513 3.513 0 1 1-3.513-3.513 3.536 3.536 0 0 1 3.513 3.513m0-8.386a3.513 3.513 0 1 1-3.513-3.514 3.536 3.536 0 0 1 3.513 3.514"/></svg>