<svg xmlns="http://www.w3.org/2000/svg" viewBox="0 0 200 200" width="200" height="200">
<g fill="none" stroke="#10201d" stroke-width="32.00" stroke-linejoin="round"><path d="M28 46 H172 A10 10 0 0 1 182 56 V144 A10 10 0 0 1 172 154 H28 A10 10 0 0 1 18 144 V56 A10 10 0 0 1 28 46 Z"/></g>
<g fill="none" stroke="#f7f7f2" stroke-width="20.00" stroke-linejoin="round"><path d="M28 46 H172 A10 10 0 0 1 182 56 V144 A10 10 0 0 1 172 154 H28 A10 10 0 0 1 18 144 V56 A10 10 0 0 1 28 46 Z"/></g>
<g fill="#3d5f58"><path d="M28 46 H172 A10 10 0 0 1 182 56 V144 A10 10 0 0 1 172 154 H28 A10 10 0 0 1 18 144 V56 A10 10 0 0 1 28 46 Z"/></g>
<path d="M40 80 H118" fill="none" stroke="#f7f7f2" stroke-width="6" stroke-linecap="round" stroke-linejoin="round"/>
<path d="M40 100 H100" fill="none" stroke="#f7f7f2" stroke-width="6" stroke-linecap="round" stroke-linejoin="round"/>
<path d="M40 120 H84" fill="none" stroke="#f7f7f2" stroke-width="6" stroke-linecap="round" stroke-linejoin="round"/>
<circle cx="150" cy="122" r="20" fill="#f5b726" stroke="#10201d" stroke-width="5.4"/>
<g transform="translate(137.00 109.00) scale(1.08)" fill="none" stroke="#10201d" stroke-width="4.98" stroke-linejoin="round"><path d="M19 19h-14c-.5 0 -.9 -.3 -1 -.8l-2 -10c0 -.4 .1 -.8 .5 -1.1c.4 -.2 .8 -.2 1.1 0l4.1 3.3l3.4 -5.1c.4 -.6 1.3 -.6 1.7 0l3.4 5.1l4.1 -3.3c.3 -.3 .8 -.3 1.1 0c.4 .2 .5 .6 .5 1.1l-2 10c0 .5 -.5 .8 -1 .8z"/></g>
<g transform="translate(137.00 109.00) scale(1.08)" fill="#f7f7f2"><path d="M19 19h-14c-.5 0 -.9 -.3 -1 -.8l-2 -10c0 -.4 .1 -.8 .5 -1.1c.4 -.2 .8 -.2 1.1 0l4.1 3.3l3.4 -5.1c.4 -.6 1.3 -.6 1.7 0l3.4 5.1l4.1 -3.3c.3 -.3 .8 -.3 1.1 0c.4 .2 .5 .6 .5 1.1l-2 10c0 .5 -.5 .8 -1 .8z"/></g>
</svg>
