<svg xmlns="http://www.w3.org/2000/svg" width="141" height="172" viewBox="0 0 141 172" fill="none">
  <path d="M135.119 56.6379H129.97V61.7867H119.672V66.9356H109.374V61.7867H99.0767H73.3324V66.9356H68.1836V61.7867V15.4471H73.3324V10.2983H83.6301V5.14941H99.0767V10.2983H109.374V15.4471H119.672V10.2983H129.97V5.14941H135.119V56.6379Z" fill="#9DC1D8"/>
  <rect x="83.625" y="5.14941" width="15.4465" height="5.14885" fill="#E0F7FA"/>
  <rect x="73.3281" y="10.2979" width="36.0419" height="5.14885" fill="#E0F7FA"/>
  <rect x="83.625" y="15.4463" width="15.4465" height="20.5954" fill="#E0F7FA"/>
  <rect x="73.3281" y="15.4463" width="10.2977" height="25.7444" fill="#E0F7FA"/>
  <rect x="68.1836" y="15.4463" width="5.14885" height="30.8931" fill="#E0F7FA"/>
  <rect x="99.0703" y="15.4463" width="10.2977" height="25.7444" fill="#E0F7FA"/>
  <rect x="109.371" y="15.4463" width="10.2977" height="30.8932" fill="#E0F7FA"/>
  <rect x="119.664" y="10.2979" width="10.2977" height="30.8931" fill="#E0F7FA"/>
  <rect x="129.965" y="5.14941" width="5.14885" height="30.8931" fill="#E0F7FA"/>
  <rect x="68.1836" y="66.9346" width="5.14885" height="5.14885" fill="#3A4A69"/>
  <rect x="68.1836" y="10.2979" width="5.14885" height="5.14885" fill="#5A7C90"/>
  <rect x="73.3281" y="61.7861" width="10.2977" height="5.14885" fill="#3A4A69"/>
  <rect x="73.3281" y="5.14941" width="10.2977" height="5.14885" fill="#5A7C90"/>
  <rect x="99.0703" y="61.7861" width="10.2977" height="5.14885" fill="#3A4A69"/>
  <rect x="99.0703" y="5.14941" width="10.2977" height="5.14885" fill="#5A7C90"/>
  <rect x="109.371" y="66.9346" width="10.2977" height="5.14885" fill="#3A4A69"/>
  <rect x="109.371" y="10.2979" width="10.2977" height="5.14885" fill="#5A7C90"/>
  <rect x="119.664" y="61.7861" width="10.2977" height="5.14885" fill="#3A4A69"/>
  <rect x="119.664" y="5.14941" width="10.2977" height="5.14885" fill="#5A7C90"/>
  <rect x="129.965" y="56.6377" width="10.2977" height="5.14885" fill="#3A4A69"/>
  <rect x="135.113" y="5.14941" width="5.14885" height="30.8931" fill="#5A7C90"/>
  <rect x="135.113" y="36.042" width="5.14885" height="20.5954" fill="#3A4A69"/>
  <rect x="63" y="46" width="5" height="126" fill="#3A4A69"/>
  <rect x="63.0312" y="5.14941" width="5.14885" height="41.1906" fill="#5A7C90"/>
  <rect x="129.965" width="10.2977" height="5.14885" fill="#5A7C90"/>
  <rect x="83.625" y="56.6377" width="15.4465" height="5.14885" fill="#3A4A69"/>
  <rect x="83.625" width="15.4465" height="5.14885" fill="#5A7C90"/>
  <rect x="88.7773" y="30.8936" width="5.14885" height="5.14885" transform="rotate(-90 88.7773 30.8936)" fill="#3A4A69"/>
  <rect x="88.7773" y="41.1914" width="5.14885" height="5.14885" transform="rotate(-90 88.7773 41.1914)" fill="#3A4A69"/>
  <rect x="93.9219" y="46.3398" width="5.14885" height="5.14885" transform="rotate(-90 93.9219 46.3398)" fill="#3A4A69"/>
  <rect x="99.0703" y="41.1914" width="5.14885" height="5.14885" transform="rotate(-90 99.0703 41.1914)" fill="#3A4A69"/>
  <rect x="104.219" y="46.3398" width="5.14885" height="5.14885" transform="rotate(-90 104.219 46.3398)" fill="#3A4A69"/>
  <rect x="109.371" y="41.1914" width="15.4465" height="5.14885" transform="rotate(-90 109.371 41.1914)" fill="#3A4A69"/>
  <rect x="109.371" y="25.7441" width="15.4465" height="5.14885" transform="rotate(180 109.371 25.7441)" fill="#3A4A69"/>
  <rect y="134" width="4" height="73" transform="rotate(-90 0 134)" fill="#A0A0FF"/>
  <rect x="68" y="128" width="4" height="5" transform="rotate(-90 68 128)" fill="#A0A0FF"/>
  <rect x="57" y="128" width="4" height="6" transform="rotate(-90 57 128)" fill="#A0A0FF"/>
  <rect x="61" y="132.252" width="4" height="6" transform="rotate(180 61 132.252)" fill="#A0A0FF"/>
</svg>